# Blender 4.5.4 LTS
# www.blender.org
mtllib test cube.mtl
o Cube.001
v -1.000000 -1.000000 1.000000
v -1.000000 1.000000 1.000000
v -1.000000 -1.000000 -1.000000
v -1.000000 1.000000 -1.000000
v 1.000000 -1.000000 1.000000
v 1.000000 1.000000 1.000000
v 1.000000 -1.000000 -1.000000
v 1.000000 1.000000 -1.000000
v 0.009983 -0.925225 -1.300229
v 0.000000 1.000000 -1.000000
v 0.010523 1.534445 0.921945
vn -1.0000 -0.0000 -0.0000
vn 0.1515 0.0758 -0.9855
vn 1.0000 -0.0000 -0.0000
vn -0.2594 0.9570 -0.1297
vn 0.2620 0.9561 -0.1310
vn -0.0000 -0.6875 0.7262
vn -0.1500 0.0750 -0.9858
vt 0.375000 0.000000
vt 0.625000 0.000000
vt 0.625000 0.250000
vt 0.375000 0.250000
vt 0.375000 0.375000
vt 0.625000 0.375000
vt 0.625000 0.500000
vt 0.375000 0.500000
vt 0.625000 0.750000
vt 0.375000 0.750000
vt 0.750000 0.500000
vt 0.875000 0.500000
vt 0.875000 0.750000
vt 0.750000 0.750000
vt 0.625000 0.875000
vt 0.625000 1.000000
vt 0.125000 0.750000
vt 0.125000 0.500000
vt 0.250000 0.500000
s 0
f 1/1/1 2/2/1 4/3/1 3/4/1
f 9/5/2 10/6/2 8/7/2 7/8/2
f 7/8/3 8/7/3 6/9/3 5/10/3
f 10/11/4 4/12/4 2/13/4 11/14/4
f 8/7/5 10/11/5 11/14/5 6/9/5
f 11/15/6 2/16/6 1/17/6 3/18/6 9/19/6 7/8/6 5/10/6 6/9/6
f 3/4/7 4/3/7 10/6/7 9/5/7
