# Blender 4.5.0
# www.blender.org
mtllib fleches.mtl
o fleches
v 33.359459 0.494502 18.962618
v 38.035027 0.367045 14.816008
v 31.675652 0.467019 19.260233
v 36.351219 0.339562 15.113622
v -51.967003 -0.228330 12.048784
v -47.120712 1.234582 7.225083
v -53.817928 -0.315120 12.524556
v -48.971638 1.147792 7.700854
v 41.916893 0.496523 27.630451
v 48.903244 0.353941 27.886158
v 40.324432 0.465779 26.570765
v 47.310780 0.323196 26.826471
v -39.624058 0.317485 -19.601397
v -38.407070 0.317348 -20.634844
v -37.201916 0.318629 -18.570480
v -35.984928 0.318492 -19.603926
v -1.275047 0.496523 27.630451
v 5.711301 0.353941 27.886158
v -2.867507 0.465779 26.570765
v 4.118839 0.323196 26.826471
v 4.411288 0.492485 7.926710
v -1.090606 0.380131 7.649569
v 5.654539 0.468258 8.778902
v 0.152645 0.355905 8.501761
v 58.188278 0.496523 -23.554070
v 51.206108 0.353941 -23.905773
v 59.766026 0.465779 -22.472595
v 52.783852 0.323196 -22.824299
v 4.310076 0.496523 -23.554070
v -2.672095 0.353941 -23.905773
v 5.887822 0.465779 -22.472595
v -1.094350 0.323196 -22.824299
v -18.628323 0.317485 -20.811506
v -18.688610 0.317348 -19.216064
v -21.024797 0.318629 -19.722250
v -21.085085 0.318492 -18.126808
v -17.920895 0.317485 4.648266
v -18.543438 0.317348 6.118473
v -20.547941 0.318629 4.816183
v -21.170485 0.318492 6.286390
v 40.764599 0.318800 -0.337776
v 38.730042 0.318975 -0.465215
v 39.450077 0.317338 -3.431172
v 37.415516 0.317513 -3.558611
vn -0.0271 0.9978 -0.0612
vn 0.0396 0.9445 0.3262
vn 0.0227 0.9978 -0.0630
vn 0.0003 -1.0000 0.0005
vn -0.0235 0.9978 0.0627
vn -0.0005 -1.0000 -0.0001
vn -0.0005 -1.0000 -0.0003
vn -0.0001 -1.0000 0.0005
vt 0.000000 0.000000
vt 1.000000 0.000000
vt 1.000000 1.000000
vt 0.000000 1.000000
s 1
usemtl Material.006
f 1/1/1 2/2/1 4/3/1 3/4/1
f 5/1/2 6/2/2 8/3/2 7/4/2
f 9/1/3 10/2/3 12/3/3 11/4/3
f 17/1/3 18/2/3 20/3/3 19/4/3
f 21/1/5 22/2/5 24/3/5 23/4/5
f 25/1/5 26/2/5 28/3/5 27/4/5
f 29/1/5 30/2/5 32/3/5 31/4/5
usemtl Material.005
f 13/1/4 14/2/4 16/3/4 15/4/4
f 33/1/6 34/2/6 36/3/6 35/4/6
f 37/1/7 38/2/7 40/3/7 39/4/7
f 41/1/8 42/2/8 44/3/8 43/4/8
