# Blender 4.5.4 LTS
# www.blender.org
mtllib round_about.mtl
o ronds_points
v -32.805927 0.447940 21.598637
v -27.416952 0.447940 21.598637
v -32.805927 0.447939 16.209665
v -27.416952 0.447939 16.209665
v -33.536987 0.447939 17.442026
v -33.787636 0.447939 18.904152
v -33.536987 0.447940 20.366276
v -31.573565 0.447940 22.329699
v -30.111439 0.447940 22.580349
v -28.649313 0.447940 22.329699
v -26.685890 0.447940 20.366276
v -26.435242 0.447939 18.904152
v -26.685890 0.447939 17.442026
v -28.649313 0.447939 15.478602
v -30.111439 0.447939 15.227953
v -31.573565 0.447939 15.478602
v -31.947685 0.447940 20.733940
v -30.117893 0.447940 20.851992
v -28.288103 0.447940 20.733940
v -32.065735 0.447939 18.904152
v -30.117893 0.447939 18.904152
v -28.273338 0.447939 18.904152
v -31.947685 0.447939 17.074362
v -30.117893 0.447939 16.956310
v -28.288105 0.447939 17.074362
v 16.019194 0.447938 4.418681
v 21.426426 0.447938 4.418681
v 16.019194 0.447938 -0.988550
v 21.426426 0.447938 -0.988550
v 15.285653 0.447938 0.247986
v 15.034154 0.447938 1.715065
v 15.285653 0.447938 3.182143
v 17.255730 0.447938 5.152221
v 18.722809 0.447938 5.403720
v 20.189890 0.447938 5.152221
v 22.159967 0.447938 3.182143
v 22.411467 0.447938 1.715065
v 22.159967 0.447938 0.247986
v 20.189890 0.447938 -1.722090
v 18.722809 0.447938 -1.973589
v 17.255730 0.447938 -1.722090
v 16.893021 0.447938 3.544854
v 18.722809 0.447938 3.662905
v 20.552601 0.447938 3.544854
v 16.774967 0.447938 1.715065
v 18.722809 0.447938 1.715065
v 20.670652 0.447938 1.715065
v 16.893021 0.447938 -0.114724
v 18.722809 0.447938 -0.232775
v 20.552599 0.447938 -0.114724
vn -0.0000 1.0000 -0.0000
vt 0.769668 0.637017
vt 0.651270 0.625552
vt 0.650252 0.793689
vt 0.776355 0.795046
vt 0.532748 0.634467
vt 0.530836 0.792404
vt 0.649234 0.961826
vt 0.767756 0.952910
vt 0.530836 0.950361
vt 0.564005 0.502727
vt 0.634646 0.582901
vt 0.628229 0.441675
vt 0.530836 0.387213
vt 0.725204 0.625552
vt 0.743699 0.478407
vt 0.821245 0.625552
vt 0.861751 0.495051
vt 0.907881 0.581327
vt 0.968011 0.487138
vt 1.000000 0.366395
vt 0.882709 0.339585
vt 1.000000 0.238339
vt 0.901783 0.183689
vt 0.966831 0.122825
vt 0.896190 0.042651
vt 0.786313 0.146957
vt 0.805632 -0.000000
vt 0.668261 0.130313
vt 0.709590 0.000000
vt 0.562824 0.138414
vt 0.622955 0.044225
vt 0.530836 0.259157
vt 0.640712 0.284272
vt 0.760986 0.996458
vt 0.776139 0.840530
vt 0.651128 0.829777
vt 0.643063 0.996458
vt 0.776139 0.683299
vt 0.659193 0.663095
vt 0.526117 0.819023
vt 0.526117 0.976254
vt 0.541269 0.663095
vt 0.901932 0.619014
vt 0.961866 0.525133
vt 0.856037 0.532499
vt 0.815579 0.663095
vt 0.993750 0.404783
vt 0.883403 0.379561
vt 0.993750 0.277145
vt 0.895804 0.223201
vt 0.960689 0.162008
vt 0.890279 0.082095
vt 0.800016 0.039583
vt 0.781100 0.186712
vt 0.704288 0.039583
vt 0.663830 0.170179
vt 0.617935 0.083664
vt 0.558001 0.177545
vt 0.636464 0.323118
vt 0.526117 0.297895
vt 0.624063 0.479477
vt 0.526117 0.425533
vt 0.629588 0.620583
vt 0.559178 0.540670
vt 0.719851 0.663095
vt 0.738767 0.515966
s 1
usemtl Material
f 17/1/1 18/2/1 21/3/1 20/4/1
f 18/2/1 19/5/1 22/6/1 21/3/1
f 20/4/1 21/3/1 24/7/1 23/8/1
f 21/3/1 22/6/1 25/9/1 24/7/1
f 1/10/1 8/11/1 17/12/1 7/13/1
f 8/11/1 9/14/1 18/15/1 17/12/1
f 9/14/1 10/16/1 19/17/1 18/15/1
f 10/16/1 2/18/1 11/19/1 19/17/1
f 19/17/1 11/19/1 12/20/1 22/21/1
f 22/21/1 12/20/1 13/22/1 25/23/1
f 25/23/1 13/22/1 4/24/1 14/25/1
f 24/26/1 25/23/1 14/25/1 15/27/1
f 23/28/1 24/26/1 15/27/1 16/29/1
f 5/30/1 23/28/1 16/29/1 3/31/1
f 6/32/1 20/33/1 23/28/1 5/30/1
f 7/13/1 17/12/1 20/33/1 6/32/1
f 42/34/1 43/35/1 46/36/1 45/37/1
f 43/35/1 44/38/1 47/39/1 46/36/1
f 45/37/1 46/36/1 49/40/1 48/41/1
f 46/36/1 47/39/1 50/42/1 49/40/1
f 26/43/1 33/44/1 42/45/1 32/46/1
f 33/44/1 34/47/1 43/48/1 42/45/1
f 34/47/1 35/49/1 44/50/1 43/48/1
f 35/49/1 27/51/1 36/52/1 44/50/1
f 44/50/1 36/52/1 37/53/1 47/54/1
f 47/54/1 37/53/1 38/55/1 50/56/1
f 50/56/1 38/55/1 29/57/1 39/58/1
f 49/59/1 50/56/1 39/58/1 40/60/1
f 48/61/1 49/59/1 40/60/1 41/62/1
f 30/63/1 48/61/1 41/62/1 28/64/1
f 31/65/1 45/66/1 48/61/1 30/63/1
f 32/46/1 42/45/1 45/66/1 31/65/1
