# Blender 5.1.0
# www.blender.org
mtllib barriere55_081.mtl
o barriere55.081
v 70.886787 0.406541 -19.595659
v 70.878387 0.597165 -19.533043
v 70.964409 0.643224 -20.174139
v 70.944084 0.684291 -20.022694
v 70.880180 0.406541 -19.637352
v 70.880180 0.372824 -19.637352
v 70.900963 0.406541 -19.792234
v 70.906960 0.643225 -19.746008
v 71.004753 0.643224 -20.474836
v 70.855652 1.574801 -19.363621
v 70.913956 1.574797 -19.798113
v 70.995445 1.574797 -20.405470
v 70.913956 0.406541 -19.798113
v 70.941116 0.406540 -20.000565
v 70.995445 0.406540 -20.405470
v 70.900963 0.372824 -19.792234
v 71.079552 0.224800 -19.579735
v 71.108742 0.224800 -19.797300
v 70.878387 1.574798 -19.533045
v 70.837891 1.411592 -19.231247
v 70.870758 0.406541 -19.476194
v 70.866615 0.558039 -19.445311
v 70.858063 0.558039 -19.381596
v 70.858063 1.334635 -19.381596
v 70.992981 0.684291 -20.387104
v 70.955856 0.643225 -20.110422
v 70.878387 1.295510 -19.533045
v 70.915512 1.249445 -19.809725
v 70.955856 1.249445 -20.110422
v 70.944084 1.208380 -20.022694
v 70.964409 1.249445 -20.174139
v 70.843636 1.519064 -19.274052
v 70.992981 1.208380 -20.387104
v 71.004753 1.249445 -20.474836
v 70.976181 1.208380 -20.261873
v 70.927284 1.208380 -19.897457
v 70.895187 1.208380 -19.658278
v 70.906960 1.249448 -19.746008
v 70.866615 1.334635 -19.445311
v 70.895187 0.684291 -19.658278
v 70.927284 0.684291 -19.897457
v 70.915512 0.643225 -19.809725
v 70.976181 0.684291 -20.261873
v 70.846298 1.295507 -19.293863
v 70.846298 0.597165 -19.293863
v 70.850372 0.442266 -19.324230
v 70.837891 0.546411 -19.231247
v 70.941116 1.574797 -20.000565
v 70.968285 1.574797 -20.203016
v 70.968285 0.406540 -20.203016
v 70.904106 1.295510 -19.724724
v 70.915291 1.295509 -19.808081
v 70.953773 1.295509 -20.094870
v 70.964958 1.295509 -20.178228
v 71.003433 1.295509 -20.465015
v 70.914238 1.514728 -19.800257
v 70.943840 1.514728 -20.020847
v 70.967567 1.514728 -20.197685
v 70.997162 1.514728 -20.418276
v 70.883919 1.514730 -19.574270
v 70.878387 1.514730 -19.533045
v 71.131210 0.406540 -21.417280
v 71.139610 0.597164 -21.479898
v 71.053589 0.643224 -20.838800
v 71.073906 0.684291 -20.990248
v 71.113838 0.406540 -21.378805
v 71.113838 0.372823 -21.378805
v 71.093063 0.406540 -21.223923
v 71.111031 0.643224 -21.266932
v 71.013245 0.643224 -20.538103
v 71.162338 1.574800 -21.649319
v 71.104042 1.574797 -21.214828
v 71.022552 1.574797 -20.607471
v 71.104042 0.406540 -21.214828
v 71.076881 0.406540 -21.012375
v 71.022552 0.406540 -20.607471
v 71.093063 0.372823 -21.223923
v 71.321350 0.224799 -21.381830
v 71.292160 0.224799 -21.164265
v 71.139610 1.574797 -21.479897
v 71.180099 1.411591 -21.781694
v 71.147240 0.406540 -21.536745
v 71.151382 0.558039 -21.567631
v 71.159927 0.558039 -21.631346
v 71.159927 1.334634 -21.631346
v 71.025017 0.684291 -20.625835
v 71.062141 0.643224 -20.902517
v 71.139610 1.295509 -21.479897
v 71.102486 1.249445 -21.203215
v 71.062141 1.249445 -20.902517
v 71.073906 1.208380 -20.990248
v 71.053589 1.249445 -20.838800
v 71.174362 1.519063 -21.738888
v 71.025017 1.208380 -20.625835
v 71.013245 1.249445 -20.538103
v 71.041817 1.208380 -20.751068
v 71.090714 1.208380 -21.115484
v 71.122803 1.208379 -21.354662
v 71.111031 1.249448 -21.266932
v 71.151382 1.334634 -21.567631
v 71.122803 0.684291 -21.354662
v 71.090714 0.684291 -21.115484
v 71.102486 0.643224 -21.203215
v 71.041817 0.684291 -20.751068
v 71.171700 1.295506 -21.719078
v 71.171700 0.597164 -21.719078
v 71.167625 0.442265 -21.688709
v 71.180099 0.546410 -21.781694
v 71.076881 1.574797 -21.012375
v 71.049713 1.574797 -20.809923
v 71.049713 0.406540 -20.809923
v 71.113892 1.295509 -21.288218
v 71.102707 1.295509 -21.204859
v 71.064224 1.295509 -20.918072
v 71.053040 1.295509 -20.834713
v 71.014557 1.295509 -20.547924
v 71.103752 1.514728 -21.212685
v 71.074158 1.514728 -20.992092
v 71.050430 1.514728 -20.815254
v 71.020828 1.514728 -20.594664
v 71.134079 1.514729 -21.438671
v 71.139610 1.514729 -21.479897
v 70.797150 0.406541 -19.607687
v 70.788750 0.597165 -19.545069
v 70.874771 0.643224 -20.186167
v 70.854454 0.684291 -20.034719
v 70.814522 0.406541 -19.646162
v 70.814522 0.372824 -19.646162
v 70.835297 0.406541 -19.801044
v 70.817329 0.643225 -19.758036
v 70.915115 0.643224 -20.486864
v 70.766022 1.574801 -19.375648
v 70.824318 1.574797 -19.810139
v 70.905807 1.574797 -20.417496
v 70.824318 0.406541 -19.810139
v 70.851479 0.406540 -20.012592
v 70.905807 0.406540 -20.417496
v 70.835297 0.372824 -19.801044
v 70.607010 0.224800 -19.643137
v 70.636200 0.224799 -19.860703
v 70.788750 1.574798 -19.545071
v 70.748260 1.411592 -19.243273
v 70.781120 0.406541 -19.488222
v 70.776978 0.558039 -19.457336
v 70.768433 0.558039 -19.393621
v 70.768433 1.334635 -19.393621
v 70.903343 0.684291 -20.399132
v 70.866219 0.643225 -20.122450
v 70.788750 1.295510 -19.545071
v 70.825874 1.249445 -19.821753
v 70.866219 1.249445 -20.122450
v 70.854454 1.208380 -20.034719
v 70.874771 1.249445 -20.186167
v 70.753998 1.519064 -19.286079
v 70.903343 1.208380 -20.399132
v 70.915115 1.249445 -20.486864
v 70.886543 1.208380 -20.273899
v 70.837646 1.208380 -19.909483
v 70.805557 1.208380 -19.670305
v 70.817329 1.249448 -19.758036
v 70.776978 1.334635 -19.457336
v 70.805557 0.684291 -19.670305
v 70.837646 0.684291 -19.909483
v 70.825874 0.643225 -19.821753
v 70.886543 0.684291 -20.273899
v 70.756660 1.295507 -19.305889
v 70.756660 0.597165 -19.305889
v 70.760735 0.442266 -19.336258
v 70.748260 0.546411 -19.243273
v 70.851479 1.574797 -20.012592
v 70.878647 1.574797 -20.215044
v 70.878647 0.406540 -20.215044
v 70.814468 1.295510 -19.736750
v 70.825653 1.295509 -19.820108
v 70.864136 1.295509 -20.106895
v 70.875320 1.295509 -20.190254
v 70.913803 1.295509 -20.477043
v 70.824608 1.514728 -19.812283
v 70.854202 1.514728 -20.032875
v 70.877930 1.514728 -20.209713
v 70.907532 1.514728 -20.430304
v 70.794281 1.514730 -19.586296
v 70.788750 1.514730 -19.545071
v 71.041573 0.406540 -21.429308
v 71.049973 0.597164 -21.491924
v 70.963951 0.643224 -20.850828
v 70.984276 0.684291 -21.002274
v 71.048180 0.406540 -21.387615
v 71.048180 0.372823 -21.387615
v 71.027397 0.406540 -21.232733
v 71.021400 0.643224 -21.278959
v 70.923607 0.643224 -20.550131
v 71.072708 1.574800 -21.661346
v 71.014404 1.574797 -21.226854
v 70.932915 1.574797 -20.619497
v 71.014404 0.406540 -21.226854
v 70.987244 0.406540 -21.024403
v 70.932915 0.406540 -20.619497
v 71.027397 0.372823 -21.232733
v 70.848808 0.224799 -21.445232
v 70.819618 0.224799 -21.227667
v 71.049973 1.574797 -21.491922
v 71.090469 1.411591 -21.793720
v 71.057602 0.406540 -21.548773
v 71.061745 0.558039 -21.579657
v 71.070297 0.558039 -21.643372
v 71.070297 1.334634 -21.643372
v 70.935379 0.684291 -20.637863
v 70.972504 0.643224 -20.914545
v 71.049973 1.295509 -21.491922
v 71.012848 1.249445 -21.215242
v 70.972504 1.249445 -20.914545
v 70.984276 1.208380 -21.002274
v 70.963951 1.249445 -20.850828
v 71.084724 1.519063 -21.750916
v 70.935379 1.208380 -20.637863
v 70.923607 1.249445 -20.550131
v 70.952179 1.208380 -20.763094
v 71.001076 1.208380 -21.127510
v 71.033173 1.208379 -21.366690
v 71.021400 1.249448 -21.278959
v 71.061745 1.334634 -21.579657
v 71.033173 0.684291 -21.366690
v 71.001076 0.684291 -21.127510
v 71.012848 0.643224 -21.215242
v 70.952179 0.684291 -20.763094
v 71.082062 1.295506 -21.731104
v 71.082062 0.597164 -21.731104
v 71.077988 0.442265 -21.700737
v 71.090469 0.546410 -21.793720
v 70.987244 1.574797 -21.024403
v 70.960075 1.574797 -20.821951
v 70.960075 0.406540 -20.821951
v 71.024254 1.295509 -21.300243
v 71.013069 1.295509 -21.216887
v 70.974586 1.295509 -20.930098
v 70.963402 1.295509 -20.846739
v 70.924927 1.295509 -20.559952
v 71.014122 1.514728 -21.224710
v 70.984520 1.514728 -21.004120
v 70.960793 1.514728 -20.827282
v 70.931198 1.514728 -20.606691
v 71.044441 1.514729 -21.450697
v 71.049973 1.514729 -21.491922
vn -0.0698 0.8511 0.5203
vn 0.5797 0.8111 0.0778
vn 0.9911 -0.0000 0.1330
vn 0.9911 -0.0002 0.1331
vn 0.9911 0.0001 0.1330
vn 0.9911 0.0002 0.1331
vn 0.9911 -0.0001 0.1330
vn -0.0000 1.0000 -0.0000
vn -0.0302 -0.9739 0.2249
vn -0.0988 -0.6693 0.7364
vn -0.0000 -1.0000 -0.0000
vn -0.1330 -0.0000 0.9911
vn -0.1234 0.3729 0.9196
vn -0.1302 0.2024 0.9706
vn 0.0560 0.9071 -0.4171
vn -0.9911 -0.0001 -0.1330
vn 0.0560 -0.9071 -0.4171
vn -0.0560 -0.9071 0.4171
vn 0.1330 -0.0000 -0.9911
vn -0.0560 0.9071 0.4171
vn 0.0698 0.8511 -0.5203
vn 0.9911 0.0002 0.1330
vn -0.9911 -0.0000 -0.1330
vn 0.0302 -0.9739 -0.2249
vn 0.0988 -0.6693 -0.7364
vn 0.1234 0.3729 -0.9196
vn 0.9911 -0.0000 0.1329
vn 0.1302 0.2024 -0.9706
vn 0.0538 -0.9146 -0.4007
vn -0.0537 -0.9146 0.4007
vn -0.0537 0.9146 0.4007
vn 0.0538 0.9146 -0.4007
vn -0.1299 0.2154 0.9679
vn -0.0538 -0.9146 0.4007
vn 0.1299 0.2154 -0.9679
vn -0.5797 0.8111 -0.0778
vn -0.9911 0.0001 -0.1330
vn -0.9911 -0.0002 -0.1330
vn -0.9911 -0.0000 -0.1329
vt 0.563424 0.076340
vt 0.553130 0.073518
vt 0.930572 0.423953
vt 0.921307 0.379121
vt 0.987792 0.379121
vt 0.977903 0.423953
vt 0.607372 0.029178
vt 0.597289 0.031257
vt 0.582896 0.026846
vt 0.590093 0.017196
vt 0.572813 0.024865
vt 0.576362 0.017196
vt 0.613360 0.017196
vt 0.614695 0.029178
vt 0.558897 0.019004
vt 0.565490 0.024865
vt 0.555407 0.026846
vt 0.548211 0.024277
vt 0.555407 0.062200
vt 0.548211 0.068077
vt 0.639171 0.057790
vt 0.624778 0.057790
vt 0.624778 0.031257
vt 0.639171 0.031257
vt 0.597289 0.057790
vt 0.582896 0.062201
vt 0.649254 0.029178
vt 0.691136 0.029178
vt 0.681053 0.031257
vt 0.666660 0.031257
vt 0.656577 0.029178
vt 0.565490 0.064181
vt 0.572813 0.064181
vt 0.666660 0.057790
vt 0.681053 0.057790
vt 0.691136 0.059869
vt 0.656577 0.059869
vt 0.649254 0.059869
vt 0.614695 0.059869
vt 0.706379 0.076340
vt 0.683164 0.076340
vt 0.613360 0.076340
vt 0.582896 0.076340
vt 0.659896 0.017196
vt 0.683164 0.017196
vt 0.659896 0.076340
vt 0.636628 0.076340
vt 0.636628 0.017196
vt 0.614506 0.062201
vt 0.604926 0.062201
vt 0.607372 0.059869
vt 0.613607 0.073299
vt 0.638959 0.073299
vt 0.657047 0.062201
vt 0.647466 0.062201
vt 0.659283 0.073299
vt 0.684635 0.073299
vt 0.688839 0.081258
vt 0.699816 0.081258
vt 0.706005 0.126709
vt 0.682651 0.126709
vt 0.698407 0.059869
vt 0.699536 0.062201
vt 0.690007 0.062201
vt 0.612500 0.017196
vt 0.594699 0.017196
vt 0.977903 0.434165
vt 0.930572 0.434165
vt 0.704907 0.073299
vt 0.706379 0.017196
vt 0.698407 0.029178
vt 0.653445 0.126709
vt 0.630032 0.126709
vt 0.639832 0.081258
vt 0.650869 0.081258
vt 0.600826 0.126709
vt 0.570905 0.126710
vt 0.590825 0.081258
vt 0.601862 0.081258
vt 0.587634 0.073299
vt 0.806647 0.062201
vt 0.806647 0.026846
vt 0.565447 0.081258
vt 0.565447 0.126710
vt 0.582896 0.073299
vt 0.836413 0.073518
vt 0.826118 0.076340
vt 0.729647 0.076340
vt 0.978547 0.423953
vt 0.931216 0.423953
vt 0.921327 0.379121
vt 0.987812 0.379121
vt 0.782171 0.029178
vt 0.799450 0.017196
vt 0.792254 0.031257
vt 0.813181 0.017196
vt 0.816730 0.024865
vt 0.774848 0.029178
vt 0.776183 0.017196
vt 0.830646 0.019004
vt 0.841332 0.024277
vt 0.834136 0.026846
vt 0.824053 0.024865
vt 0.841332 0.068077
vt 0.834136 0.062200
vt 0.750372 0.057790
vt 0.750372 0.031257
vt 0.764765 0.031257
vt 0.764765 0.057790
vt 0.792254 0.057790
vt 0.740289 0.029178
vt 0.732966 0.029178
vt 0.722883 0.031257
vt 0.708490 0.031257
vt 0.816730 0.064181
vt 0.824053 0.064181
vt 0.722883 0.057790
vt 0.732966 0.059869
vt 0.708490 0.057790
vt 0.740289 0.059869
vt 0.774848 0.059869
vt 0.806647 0.076340
vt 0.776183 0.076340
vt 0.729647 0.017196
vt 0.752915 0.076340
vt 0.752915 0.017196
vt 0.775037 0.062201
vt 0.782171 0.059869
vt 0.784617 0.062201
vt 0.775936 0.073299
vt 0.750584 0.073299
vt 0.732496 0.062201
vt 0.742077 0.062201
vt 0.730260 0.073299
vt 0.777043 0.017196
vt 0.794844 0.017196
vt 0.978547 0.434165
vt 0.931216 0.434165
vt 0.735211 0.126709
vt 0.737787 0.081258
vt 0.748824 0.081258
vt 0.758624 0.126709
vt 0.787830 0.126709
vt 0.786794 0.081258
vt 0.797831 0.081258
vt 0.817751 0.126710
vt 0.801909 0.073299
vt 0.823209 0.081258
vt 0.823209 0.126710
vt 0.806647 0.073299
s 1
usemtl initialShadingGroup.004
f 10/1/1 132/1/1 154/2/1 32/2/1
f 6/3/2 17/4/2 18/5/2 16/6/2
f 8/7/3 40/8/3 2/9/3 1/10/3
f 1/10/3 2/9/3 22/11/3 21/12/3
f 1/10/3 13/13/3 42/14/3 8/7/3
f 46/15/3 23/16/3 45/17/3 47/18/3
f 45/17/3 44/19/3 20/20/3 47/18/3
f 30/21/4 36/22/5 41/23/6 4/24/6
f 40/8/3 37/25/3 27/26/3 2/9/3
f 23/16/3 46/15/3 21/12/3 22/11/3
f 4/24/6 41/23/6 42/14/3 26/27/3
f 9/28/3 25/29/3 43/30/3 3/31/3
f 10/1/3 32/2/3 24/32/3 39/33/3
f 35/34/3 33/35/3 34/36/5 31/37/3
f 29/38/7 28/39/3 36/22/5 30/21/4
f 43/30/3 25/29/3 33/35/3 35/34/3
f 73/40/8 195/40/8 134/41/8 12/41/8
f 46/15/9 168/15/9 143/12/9 21/12/9
f 11/42/8 133/42/8 141/43/8 19/43/8
f 47/18/10 169/18/10 168/15/10 46/15/10
f 50/44/11 172/44/11 137/45/11 15/45/11
f 19/43/8 141/43/8 132/1/8 10/1/8
f 20/20/3 44/19/3 24/32/3 32/2/3
f 49/46/8 171/46/8 170/47/8 48/47/8
f 26/27/3 42/14/3 13/13/3 14/48/3
f 14/48/3 50/44/3 3/31/3 26/27/3
f 9/28/3 3/31/3 50/44/3 15/45/3
f 52/49/3 51/50/3 38/51/3 28/39/3
f 56/52/3 57/53/3 48/47/3 11/42/3
f 54/54/3 53/55/7 29/38/7 31/37/3
f 58/56/3 59/57/7 12/41/7 49/46/3
f 55/58/3 116/59/3 120/60/7 59/61/7
f 13/13/11 135/13/11 136/48/11 14/48/11
f 20/20/12 142/20/12 169/18/12 47/18/12
f 34/36/5 95/62/3 116/63/3 55/64/3
f 48/47/8 170/47/8 133/42/8 11/42/8
f 32/2/13 154/2/13 142/20/13 20/20/13
f 14/48/11 136/48/11 172/44/11 50/44/11
f 7/65/11 13/13/11 1/10/11 5/66/11
f 6/3/3 16/6/3 7/67/3 5/68/3
f 139/4/14 17/4/14 6/3/14 128/3/14
f 5/68/12 127/68/12 128/3/12 6/3/12
f 7/65/11 129/65/11 135/13/11 13/13/11
f 1/10/11 123/10/11 127/66/11 5/66/11
f 3/31/8 125/31/8 148/27/8 26/27/8
f 26/27/15 148/27/15 126/24/15 4/24/15
f 134/41/16 195/40/16 242/69/16 181/57/16
f 156/36/11 217/62/11 95/62/11 34/36/11
f 33/35/17 155/35/17 156/36/17 34/36/17
f 37/25/17 159/25/17 160/51/17 38/51/17
f 31/37/18 153/37/18 157/34/18 35/34/18
f 25/29/19 147/29/19 155/35/19 33/35/19
f 9/28/15 131/28/15 147/29/15 25/29/15
f 4/24/19 126/24/19 152/21/19 30/21/19
f 8/7/15 130/7/15 162/8/15 40/8/15
f 40/8/19 162/8/19 159/25/19 37/25/19
f 43/30/20 165/30/20 125/31/20 3/31/20
f 38/51/11 160/51/11 150/39/11 28/39/11
f 76/70/3 70/71/3 9/28/3 15/45/3
f 36/22/12 158/22/12 163/23/12 41/23/12
f 35/34/12 157/34/12 165/30/12 43/30/12
f 42/14/8 164/14/8 130/7/8 8/7/8
f 28/39/18 150/39/18 158/22/18 36/22/18
f 31/37/3 34/36/5 55/64/3 54/54/3
f 58/72/3 57/73/3 53/74/7 54/75/3
f 28/39/3 29/38/7 53/55/7 52/49/3
f 56/76/3 60/77/3 51/78/3 52/79/3
f 37/25/3 38/51/3 51/50/3 27/26/3
f 11/42/3 19/43/3 60/80/3 56/52/3
f 49/46/3 48/47/3 57/53/3 58/56/3
f 210/81/19 88/81/19 63/82/19 185/82/19
f 54/75/3 55/58/3 59/61/7 58/72/3
f 52/79/3 53/74/7 57/73/3 56/76/3
f 27/83/3 51/78/3 60/77/3 61/84/3
f 27/26/3 61/85/3 10/1/3 39/33/3
f 10/1/3 61/85/3 60/80/3 19/43/3
f 12/41/8 134/41/8 171/46/8 49/46/8
f 41/23/20 163/23/20 164/14/20 42/14/20
f 15/45/11 137/45/11 198/70/11 76/70/11
f 93/86/21 215/86/21 193/87/21 71/87/21
f 110/88/8 232/88/8 195/40/8 73/40/8
f 67/89/2 77/90/2 79/91/2 78/92/2
f 69/93/3 62/94/3 63/82/3 101/95/3
f 62/94/3 82/96/3 83/97/3 63/82/3
f 62/94/3 69/93/3 103/98/3 74/99/3
f 107/100/7 108/101/7 106/102/7 84/103/7
f 106/102/7 108/101/7 81/104/3 105/105/3
f 91/106/7 65/107/5 102/108/5 97/109/22
f 101/95/3 63/82/3 88/81/3 98/110/3
f 84/103/7 83/97/3 82/96/3 107/100/7
f 65/107/5 87/111/3 103/98/3 102/108/5
f 70/71/3 64/112/3 104/113/3 86/114/3
f 71/87/3 100/115/3 85/116/3 93/86/3
f 96/117/3 92/118/3 95/62/3 94/119/3
f 90/120/3 91/106/7 97/109/22 89/121/7
f 104/113/3 96/117/3 94/119/3 86/114/3
f 198/70/23 137/45/23 131/28/23 192/71/23
f 82/96/24 204/96/24 229/100/24 107/100/24
f 80/122/8 202/122/8 194/123/8 72/123/8
f 107/100/25 229/100/25 230/101/25 108/101/25
f 76/70/11 198/70/11 233/124/11 111/124/11
f 71/87/8 193/87/8 202/122/8 80/122/8
f 81/104/3 93/86/3 85/116/3 105/105/3
f 109/125/8 231/125/8 232/88/8 110/88/8
f 87/111/3 75/126/3 74/99/3 103/98/3
f 75/126/3 87/111/3 64/112/3 111/124/3
f 70/71/3 76/70/3 111/124/3 64/112/3
f 113/127/3 89/121/7 99/128/7 112/129/3
f 117/130/3 72/123/3 109/125/5 118/131/3
f 115/132/3 92/118/3 90/120/3 114/133/3
f 119/134/3 110/88/3 73/40/7 120/69/7
f 75/126/11 197/126/11 196/99/11 74/99/11
f 108/101/19 230/101/19 203/104/19 81/104/19
f 72/123/8 194/123/8 231/125/8 109/125/8
f 103/98/15 225/98/15 224/108/15 102/108/15
f 81/104/26 203/104/26 215/86/26 93/86/26
f 111/124/11 233/124/11 197/126/11 75/126/11
f 68/135/11 66/136/11 62/94/11 74/99/11
f 67/89/27 66/137/27 68/138/27 77/90/27
f 200/92/28 189/89/28 67/89/28 78/92/28
f 67/89/19 189/89/19 188/137/19 66/137/19
f 74/99/11 196/99/11 190/135/11 68/135/11
f 66/136/11 188/136/11 184/94/11 62/94/11
f 87/111/8 209/111/8 186/112/8 64/112/8
f 65/107/20 187/107/20 209/111/20 87/111/20
f 97/109/17 219/109/17 211/121/17 89/121/17
f 95/62/18 217/62/18 216/119/18 94/119/18
f 99/128/18 221/128/18 220/110/18 98/110/18
f 96/117/17 218/117/17 214/118/17 92/118/17
f 94/119/12 216/119/12 208/114/12 86/114/12
f 86/114/20 208/114/20 192/71/20 70/71/20
f 91/106/12 213/106/12 187/107/12 65/107/12
f 101/95/20 223/95/20 191/93/20 69/93/20
f 98/110/12 220/110/12 223/95/12 101/95/12
f 64/112/15 186/112/15 226/113/15 104/113/15
f 89/121/11 211/121/11 221/128/11 99/128/11
f 102/108/19 224/108/19 219/109/19 97/109/19
f 104/113/19 226/113/19 218/117/19 96/117/19
f 69/93/8 191/93/8 225/98/8 103/98/8
f 92/118/3 115/132/3 116/63/3 95/62/3
f 119/139/3 115/140/3 114/141/3 118/142/3
f 89/121/7 113/127/3 114/133/3 90/120/3
f 117/143/3 113/144/3 112/145/3 121/146/3
f 98/110/3 88/81/3 112/129/3 99/128/7
f 72/123/3 117/130/3 121/147/3 80/122/3
f 110/88/3 119/134/3 118/131/3 109/125/5
f 115/140/3 119/139/3 120/60/7 116/59/3
f 113/144/3 117/143/3 118/142/3 114/141/3
f 88/148/3 122/149/3 121/146/3 112/145/3
f 88/81/3 100/115/3 71/87/3 122/150/3
f 71/87/3 80/122/3 121/147/3 122/150/3
f 17/4/11 139/4/11 140/5/11 18/5/11
f 149/26/12 124/9/12 2/9/12 27/26/12
f 222/115/29 100/115/29 88/81/29 210/81/29
f 222/115/11 207/116/11 85/116/11 100/115/11
f 207/116/30 227/105/30 105/105/30 85/116/30
f 227/105/12 228/102/12 106/102/12 105/105/12
f 206/103/31 84/103/31 106/102/31 228/102/31
f 206/103/8 205/97/8 83/97/8 84/103/8
f 185/82/32 63/82/32 83/97/32 205/97/32
f 213/106/18 91/106/18 90/120/18 212/120/18
f 199/90/12 77/90/12 68/138/12 190/138/12
f 199/90/33 201/91/33 79/91/33 77/90/33
f 62/94/11 184/94/11 204/96/11 82/96/11
f 92/118/11 214/118/11 212/120/11 90/120/11
f 161/33/34 149/26/34 27/26/34 39/33/34
f 161/33/11 39/33/11 24/32/11 146/32/11
f 146/32/29 24/32/29 44/19/29 166/19/29
f 166/19/19 44/19/19 45/17/19 167/17/19
f 145/16/32 167/17/32 45/17/32 23/16/32
f 145/16/8 23/16/8 22/11/8 144/11/8
f 124/9/31 144/11/31 22/11/31 2/9/31
f 152/21/17 151/38/17 29/38/17 30/21/17
f 138/6/19 129/67/19 7/67/19 16/6/19
f 138/6/35 16/6/35 18/5/35 140/5/35
f 21/12/11 143/12/11 123/10/11 1/10/11
f 29/38/11 151/38/11 153/37/11 31/37/11
f 128/3/36 138/6/36 140/5/36 139/4/36
f 130/7/23 123/10/23 124/9/23 162/8/23
f 123/10/23 143/12/23 144/11/23 124/9/23
f 123/10/23 130/7/23 164/14/23 135/13/23
f 168/15/16 169/18/16 167/17/16 145/16/16
f 167/17/16 169/18/16 142/20/23 166/19/23
f 152/21/16 126/24/37 163/23/37 158/22/16
f 162/8/23 124/9/23 149/26/23 159/25/23
f 145/16/16 144/11/23 143/12/23 168/15/16
f 126/24/37 148/27/23 164/14/23 163/23/37
f 131/28/23 125/31/23 165/30/23 147/29/23
f 132/1/23 161/33/23 146/32/23 154/2/23
f 157/34/23 153/37/16 156/36/38 155/35/23
f 151/38/16 152/21/16 158/22/16 150/39/16
f 165/30/23 157/34/23 155/35/23 147/29/23
f 142/20/23 154/2/23 146/32/23 166/19/23
f 148/27/23 136/48/23 135/13/23 164/14/23
f 136/48/23 148/27/23 125/31/23 172/44/23
f 131/28/23 137/45/23 172/44/23 125/31/23
f 174/49/23 150/39/16 160/51/16 173/50/23
f 178/52/23 133/42/37 170/47/37 179/53/23
f 176/54/16 153/37/16 151/38/16 175/55/16
f 180/56/23 171/46/23 134/41/16 181/57/16
f 181/61/16 242/60/16 238/59/37 177/58/23
f 177/64/23 238/63/37 217/62/37 156/36/38
f 129/65/11 127/66/11 123/10/11 135/13/11
f 128/3/39 127/68/39 129/67/39 138/6/39
f 153/37/16 176/54/16 177/64/23 156/36/38
f 180/72/23 176/75/16 175/74/16 179/73/23
f 150/39/16 174/49/23 175/55/16 151/38/16
f 178/76/23 174/79/23 173/78/23 182/77/23
f 159/25/23 149/26/23 173/50/23 160/51/16
f 133/42/37 178/52/23 182/80/23 141/43/23
f 171/46/23 180/56/23 179/53/23 170/47/37
f 176/75/16 180/72/23 181/61/16 177/58/23
f 174/79/23 178/76/23 179/73/23 175/74/16
f 149/83/23 183/84/23 182/77/23 173/78/23
f 149/26/23 161/33/23 132/1/23 183/85/23
f 132/1/23 141/43/23 182/80/23 183/85/23
f 131/28/8 9/28/8 70/71/8 192/71/8
f 189/89/36 200/92/36 201/91/36 199/90/36
f 191/93/23 223/95/23 185/82/23 184/94/23
f 184/94/23 185/82/23 205/97/23 204/96/23
f 184/94/23 196/99/23 225/98/23 191/93/23
f 229/100/23 206/103/23 228/102/23 230/101/23
f 228/102/23 227/105/23 203/104/23 230/101/23
f 213/106/23 219/109/23 224/108/23 187/107/23
f 223/95/23 220/110/23 210/81/23 185/82/23
f 206/103/23 229/100/23 204/96/23 205/97/23
f 187/107/23 224/108/23 225/98/23 209/111/23
f 192/71/23 208/114/23 226/113/23 186/112/23
f 193/87/23 215/86/23 207/116/23 222/115/23
f 218/117/23 216/119/23 217/62/37 214/118/23
f 212/120/23 211/121/23 219/109/23 213/106/23
f 226/113/23 208/114/23 216/119/23 218/117/23
f 203/104/23 227/105/23 207/116/23 215/86/23
f 209/111/23 225/98/23 196/99/23 197/126/23
f 197/126/23 233/124/23 186/112/23 209/111/23
f 192/71/23 186/112/23 233/124/23 198/70/23
f 235/127/23 234/129/23 221/128/23 211/121/23
f 239/130/23 240/131/23 231/125/23 194/123/23
f 237/132/23 236/133/23 212/120/23 214/118/23
f 241/134/23 242/69/16 195/40/16 232/88/23
f 190/135/11 196/99/11 184/94/11 188/136/11
f 189/89/23 199/90/23 190/138/23 188/137/23
f 214/118/23 217/62/37 238/63/37 237/132/23
f 241/139/23 240/142/23 236/141/23 237/140/23
f 211/121/23 212/120/23 236/133/23 235/127/23
f 239/143/23 243/146/23 234/145/23 235/144/23
f 220/110/23 221/128/23 234/129/23 210/81/23
f 194/123/23 202/122/23 243/147/23 239/130/23
f 232/88/23 231/125/23 240/131/23 241/134/23
f 237/140/23 238/59/37 242/60/16 241/139/23
f 235/144/23 236/141/23 240/142/23 239/143/23
f 210/148/23 234/145/23 243/146/23 244/149/23
f 210/81/23 244/150/23 193/87/23 222/115/23
f 193/87/23 244/150/23 243/147/23 202/122/23
f 59/57/7 120/69/7 73/40/7 12/41/7
f 79/91/11 201/91/11 200/92/11 78/92/11
