# Blender 5.1.0
# www.blender.org
mtllib barriere55_028.mtl
o barriere55.028
v 30.193623 0.406541 -14.446737
v 30.130564 0.597165 -14.442836
v 30.776171 0.643225 -14.482785
v 30.623659 0.684292 -14.473348
v 30.233240 0.406541 -14.461307
v 30.233240 0.372824 -14.461307
v 30.389214 0.406541 -14.470958
v 30.345028 0.643225 -14.456106
v 31.078983 0.643225 -14.501523
v 29.959951 1.574801 -14.432278
v 30.397499 1.574798 -14.459353
v 31.009129 1.574798 -14.497201
v 30.397499 0.406541 -14.459353
v 30.601376 0.406541 -14.471969
v 31.009129 0.406541 -14.497201
v 30.389214 0.372824 -14.470958
v 30.215384 0.224800 -14.254548
v 30.434481 0.224800 -14.268106
v 30.130566 1.574798 -14.442836
v 29.826645 1.411592 -14.424029
v 30.073317 0.406541 -14.439293
v 30.042215 0.558040 -14.437368
v 29.978052 0.558040 -14.433398
v 29.978052 1.334635 -14.433398
v 30.990635 0.684292 -14.496057
v 30.712006 0.643225 -14.478815
v 30.130566 1.295510 -14.442836
v 30.409193 1.249446 -14.460077
v 30.712006 1.249446 -14.478815
v 30.623659 1.208380 -14.473348
v 30.776171 1.249446 -14.482785
v 29.869751 1.519064 -14.426697
v 30.990635 1.208380 -14.496057
v 31.078983 1.249446 -14.501523
v 30.864521 1.208380 -14.488253
v 30.497541 1.208380 -14.465544
v 30.256681 1.208380 -14.450640
v 30.345028 1.249449 -14.456106
v 30.042215 1.334635 -14.437368
v 30.256681 0.684292 -14.450640
v 30.497541 0.684292 -14.465544
v 30.409193 0.643225 -14.460077
v 30.864521 0.684292 -14.488253
v 29.889702 1.295507 -14.427931
v 29.889702 0.597165 -14.427931
v 29.920284 0.442266 -14.429823
v 29.826645 0.546411 -14.424029
v 30.601376 1.574798 -14.471969
v 30.805252 1.574798 -14.484585
v 30.805252 0.406541 -14.484585
v 30.323593 1.295510 -14.454780
v 30.407537 1.295510 -14.459974
v 30.696342 1.295510 -14.477846
v 30.780289 1.295510 -14.483040
v 31.069094 1.295510 -14.500912
v 30.399658 1.514729 -14.459487
v 30.621801 1.514729 -14.473233
v 30.799883 1.514729 -14.484253
v 31.022026 1.514729 -14.497999
v 30.172081 1.514730 -14.445404
v 30.130566 1.514730 -14.442836
v 32.028057 0.406541 -14.560252
v 32.091118 0.597165 -14.564154
v 31.445509 0.643225 -14.524204
v 31.598021 0.684292 -14.533641
v 31.986946 0.406541 -14.569825
v 31.986946 0.372824 -14.569825
v 31.830975 0.406541 -14.560174
v 31.876652 0.643225 -14.550883
v 31.142696 0.643225 -14.505466
v 32.261730 1.574801 -14.574712
v 31.824183 1.574798 -14.547636
v 31.212551 1.574798 -14.509789
v 31.824183 0.406541 -14.547636
v 31.620306 0.406541 -14.535020
v 31.212551 0.406541 -14.509789
v 31.830975 0.372824 -14.560174
v 32.030159 0.224800 -14.366845
v 31.811062 0.224800 -14.353288
v 32.091114 1.574798 -14.564154
v 32.395035 1.411592 -14.582960
v 32.148365 0.406541 -14.567697
v 32.179466 0.558040 -14.569621
v 32.243629 0.558040 -14.573591
v 32.243629 1.334635 -14.573591
v 31.231047 0.684292 -14.510933
v 31.509674 0.643225 -14.528174
v 32.091114 1.295510 -14.564154
v 31.812487 1.249446 -14.546912
v 31.509674 1.249446 -14.528174
v 31.598021 1.208380 -14.533641
v 31.445509 1.249446 -14.524204
v 32.351929 1.519064 -14.580293
v 31.231047 1.208380 -14.510933
v 31.142696 1.249446 -14.505466
v 31.357159 1.208380 -14.518737
v 31.724138 1.208380 -14.541446
v 31.965000 1.208380 -14.556350
v 31.876652 1.249449 -14.550883
v 32.179466 1.334635 -14.569621
v 31.965000 0.684292 -14.556350
v 31.724138 0.684292 -14.541446
v 31.812487 0.643225 -14.546912
v 31.357159 0.684292 -14.518737
v 32.331978 1.295507 -14.579059
v 32.331978 0.597165 -14.579059
v 32.301395 0.442266 -14.577166
v 32.395035 0.546411 -14.582960
v 31.620306 1.574798 -14.535020
v 31.416428 1.574798 -14.522405
v 31.416428 0.406541 -14.522405
v 31.898087 1.295510 -14.552209
v 31.814142 1.295510 -14.547015
v 31.525337 1.295510 -14.529143
v 31.441393 1.295510 -14.523950
v 31.152586 1.295510 -14.506078
v 31.822023 1.514729 -14.547503
v 31.599880 1.514729 -14.533756
v 31.421797 1.514729 -14.522737
v 31.199656 1.514729 -14.508990
v 32.049599 1.514730 -14.561584
v 32.091114 1.514730 -14.564154
v 30.188036 0.406541 -14.537004
v 30.124979 0.597165 -14.533102
v 30.770586 0.643225 -14.573051
v 30.618074 0.684292 -14.563615
v 30.229149 0.406541 -14.527431
v 30.229149 0.372824 -14.527431
v 30.385120 0.406541 -14.537082
v 30.339443 0.643225 -14.546372
v 31.073399 0.643225 -14.591790
v 29.954365 1.574801 -14.522545
v 30.391912 1.574798 -14.549620
v 31.003544 1.574798 -14.587467
v 30.391912 0.406541 -14.549620
v 30.595789 0.406541 -14.562236
v 31.003544 0.406541 -14.587467
v 30.385120 0.372824 -14.537082
v 30.185938 0.224800 -14.730411
v 30.405033 0.224800 -14.743968
v 30.124981 1.574798 -14.533102
v 29.821060 1.411592 -14.514296
v 30.067730 0.406541 -14.529559
v 30.036629 0.558040 -14.527635
v 29.972466 0.558040 -14.523664
v 29.972466 1.334635 -14.523664
v 30.985048 0.684292 -14.586323
v 30.706421 0.643225 -14.569081
v 30.124981 1.295510 -14.533102
v 30.403608 1.249446 -14.550344
v 30.706421 1.249446 -14.569081
v 30.618074 1.208380 -14.563615
v 30.770586 1.249446 -14.573051
v 29.864166 1.519064 -14.516963
v 30.985048 1.208380 -14.586323
v 31.073399 1.249446 -14.591790
v 30.858936 1.208380 -14.578519
v 30.491957 1.208380 -14.555810
v 30.251095 1.208380 -14.540906
v 30.339443 1.249449 -14.546373
v 30.036629 1.334635 -14.527635
v 30.251095 0.684292 -14.540906
v 30.491957 0.684292 -14.555810
v 30.403608 0.643225 -14.550344
v 30.858936 0.684292 -14.578519
v 29.884117 1.295507 -14.518197
v 29.884117 0.597165 -14.518197
v 29.914698 0.442266 -14.520090
v 29.821060 0.546411 -14.514296
v 30.595789 1.574798 -14.562236
v 30.799667 1.574798 -14.574851
v 30.799667 0.406541 -14.574851
v 30.318008 1.295510 -14.545047
v 30.401953 1.295510 -14.550241
v 30.690758 1.295510 -14.568112
v 30.774702 1.295510 -14.573307
v 31.063509 1.295510 -14.591178
v 30.394072 1.514729 -14.549753
v 30.616215 1.514729 -14.563499
v 30.794298 1.514729 -14.574519
v 31.016439 1.514729 -14.588265
v 30.166496 1.514730 -14.535671
v 30.124981 1.514730 -14.533102
v 32.022472 0.406541 -14.650518
v 32.085529 0.597165 -14.654420
v 31.439924 0.643225 -14.614470
v 31.592436 0.684292 -14.623908
v 31.982855 0.406541 -14.635949
v 31.982855 0.372824 -14.635949
v 31.826881 0.406541 -14.626298
v 31.871067 0.643225 -14.641150
v 31.137112 0.643225 -14.595733
v 32.256145 1.574801 -14.664978
v 31.818596 1.574798 -14.637902
v 31.206966 1.574798 -14.600055
v 31.818596 0.406541 -14.637902
v 31.614719 0.406541 -14.625287
v 31.206966 0.406541 -14.600055
v 31.826881 0.372824 -14.626298
v 32.000710 0.224800 -14.842708
v 31.781614 0.224800 -14.829150
v 32.085529 1.574798 -14.654421
v 32.389450 1.411592 -14.673227
v 32.142776 0.406541 -14.657963
v 32.173882 0.558040 -14.659887
v 32.238045 0.558040 -14.663857
v 32.238045 1.334635 -14.663858
v 31.225460 0.684292 -14.601199
v 31.504089 0.643225 -14.618441
v 32.085529 1.295510 -14.654420
v 31.806902 1.249446 -14.637179
v 31.504089 1.249446 -14.618441
v 31.592436 1.208380 -14.623908
v 31.439924 1.249446 -14.614470
v 32.346344 1.519064 -14.670560
v 31.225460 1.208380 -14.601199
v 31.137112 1.249446 -14.595733
v 31.351574 1.208380 -14.609003
v 31.718554 1.208380 -14.631712
v 31.959414 1.208380 -14.646616
v 31.871067 1.249449 -14.641150
v 32.173882 1.334635 -14.659887
v 31.959414 0.684292 -14.646616
v 31.718554 0.684292 -14.631712
v 31.806902 0.643225 -14.637178
v 31.351574 0.684292 -14.609003
v 32.326393 1.295507 -14.669325
v 32.326393 0.597165 -14.669325
v 32.295811 0.442266 -14.667433
v 32.389450 0.546411 -14.673227
v 31.614719 1.574798 -14.625287
v 31.410843 1.574798 -14.612671
v 31.410843 0.406541 -14.612671
v 31.892502 1.295510 -14.642476
v 31.808558 1.295510 -14.637281
v 31.519753 1.295510 -14.619411
v 31.435806 1.295510 -14.614216
v 31.147001 1.295510 -14.596344
v 31.816437 1.514729 -14.637769
v 31.594294 1.514729 -14.624022
v 31.416212 1.514729 -14.613003
v 31.194069 1.514729 -14.599257
v 32.044014 1.514730 -14.651852
v 32.085529 1.514730 -14.654421
vn -0.5240 0.8511 0.0324
vn 0.0361 0.8111 0.5838
vn 0.0618 -0.0000 0.9981
vn 0.0617 -0.0000 0.9981
vn -0.0000 1.0000 -0.0000
vn -0.2265 -0.9739 0.0140
vn -0.7416 -0.6693 0.0459
vn -0.0000 -1.0000 -0.0000
vn -0.9981 -0.0000 0.0618
vn -0.9261 0.3729 0.0573
vn -0.9774 0.2024 0.0605
vn 0.4201 0.9071 -0.0260
vn -0.0618 -0.0000 -0.9981
vn 0.4200 -0.9071 -0.0260
vn 0.4201 -0.9071 -0.0260
vn -0.4200 -0.9071 0.0260
vn 0.9981 -0.0000 -0.0618
vn 0.4200 0.9071 -0.0260
vn -0.4200 0.9071 0.0260
vn -0.4201 -0.9071 0.0260
vn -0.4201 0.9071 0.0260
vn 0.5239 0.8511 -0.0324
vn 0.2265 -0.9739 -0.0140
vn 0.7416 -0.6693 -0.0459
vn 0.9261 0.3729 -0.0573
vn 0.9774 0.2024 -0.0605
vn 0.4035 -0.9146 -0.0250
vn -0.4035 -0.9146 0.0250
vn -0.4035 0.9146 0.0250
vn 0.4035 0.9146 -0.0250
vn -0.9747 0.2154 0.0603
vn 0.9747 0.2155 -0.0603
vn -0.0361 0.8111 -0.5838
vt 0.563424 0.076340
vt 0.553130 0.073518
vt 0.930572 0.423953
vt 0.921307 0.379121
vt 0.987792 0.379121
vt 0.977903 0.423953
vt 0.607372 0.029178
vt 0.597289 0.031257
vt 0.582896 0.026846
vt 0.590093 0.017196
vt 0.572813 0.024865
vt 0.576362 0.017196
vt 0.613360 0.017196
vt 0.614695 0.029178
vt 0.558897 0.019004
vt 0.565490 0.024865
vt 0.555407 0.026846
vt 0.548211 0.024277
vt 0.555407 0.062200
vt 0.548211 0.068077
vt 0.639171 0.057790
vt 0.624778 0.057790
vt 0.624778 0.031257
vt 0.639171 0.031257
vt 0.597289 0.057790
vt 0.582896 0.062201
vt 0.649254 0.029178
vt 0.691136 0.029178
vt 0.681053 0.031257
vt 0.666660 0.031257
vt 0.656577 0.029178
vt 0.565490 0.064181
vt 0.572813 0.064181
vt 0.666660 0.057790
vt 0.681053 0.057790
vt 0.691136 0.059869
vt 0.656577 0.059869
vt 0.649254 0.059869
vt 0.614695 0.059869
vt 0.706379 0.076340
vt 0.683164 0.076340
vt 0.613360 0.076340
vt 0.582896 0.076340
vt 0.659896 0.017196
vt 0.683164 0.017196
vt 0.659896 0.076340
vt 0.636628 0.076340
vt 0.636628 0.017196
vt 0.614506 0.062201
vt 0.604926 0.062201
vt 0.607372 0.059869
vt 0.613607 0.073299
vt 0.638959 0.073299
vt 0.657047 0.062201
vt 0.647466 0.062201
vt 0.659283 0.073299
vt 0.684635 0.073299
vt 0.688839 0.081258
vt 0.699816 0.081258
vt 0.706005 0.126709
vt 0.682651 0.126709
vt 0.698407 0.059869
vt 0.699536 0.062201
vt 0.690007 0.062201
vt 0.612500 0.017196
vt 0.594699 0.017196
vt 0.977903 0.434165
vt 0.930572 0.434165
vt 0.704907 0.073299
vt 0.706379 0.017196
vt 0.698407 0.029178
vt 0.653445 0.126709
vt 0.630032 0.126709
vt 0.639832 0.081258
vt 0.650869 0.081258
vt 0.600826 0.126709
vt 0.570905 0.126710
vt 0.590825 0.081258
vt 0.601862 0.081258
vt 0.587634 0.073299
vt 0.806647 0.062201
vt 0.806647 0.026846
vt 0.565447 0.081258
vt 0.565447 0.126710
vt 0.582896 0.073299
vt 0.836413 0.073518
vt 0.826118 0.076340
vt 0.729647 0.076340
vt 0.978547 0.423953
vt 0.931216 0.423953
vt 0.921327 0.379121
vt 0.987812 0.379121
vt 0.782171 0.029178
vt 0.799450 0.017196
vt 0.792254 0.031257
vt 0.813181 0.017196
vt 0.816730 0.024865
vt 0.774848 0.029178
vt 0.776183 0.017196
vt 0.830646 0.019004
vt 0.841332 0.024277
vt 0.834136 0.026846
vt 0.824053 0.024865
vt 0.841332 0.068077
vt 0.834136 0.062200
vt 0.750372 0.057790
vt 0.750372 0.031257
vt 0.764765 0.031257
vt 0.764765 0.057790
vt 0.792254 0.057790
vt 0.740289 0.029178
vt 0.732966 0.029178
vt 0.722883 0.031257
vt 0.708490 0.031257
vt 0.816730 0.064181
vt 0.824053 0.064181
vt 0.722883 0.057790
vt 0.732966 0.059869
vt 0.708490 0.057790
vt 0.740289 0.059869
vt 0.774848 0.059869
vt 0.806647 0.076340
vt 0.776183 0.076340
vt 0.729647 0.017196
vt 0.752915 0.076340
vt 0.752915 0.017196
vt 0.775037 0.062201
vt 0.782171 0.059869
vt 0.784617 0.062201
vt 0.775936 0.073299
vt 0.750584 0.073299
vt 0.732496 0.062201
vt 0.742077 0.062201
vt 0.730260 0.073299
vt 0.777043 0.017196
vt 0.794844 0.017196
vt 0.978547 0.434165
vt 0.931216 0.434165
vt 0.735211 0.126709
vt 0.737787 0.081258
vt 0.748824 0.081258
vt 0.758624 0.126709
vt 0.787830 0.126709
vt 0.786794 0.081258
vt 0.797831 0.081258
vt 0.817751 0.126710
vt 0.801909 0.073299
vt 0.823209 0.081258
vt 0.823209 0.126710
vt 0.806647 0.073299
s 1
usemtl initialShadingGroup.004
f 10/1/1 132/1/1 154/2/1 32/2/1
f 6/3/2 17/4/2 18/5/2 16/6/2
f 8/7/3 40/8/3 2/9/3 1/10/3
f 1/10/3 2/9/3 22/11/3 21/12/3
f 1/10/3 13/13/3 42/14/3 8/7/3
f 46/15/3 23/16/3 45/17/4 47/18/4
f 45/17/4 44/19/4 20/20/3 47/18/4
f 30/21/3 36/22/3 41/23/3 4/24/3
f 40/8/3 37/25/3 27/26/3 2/9/3
f 23/16/3 46/15/3 21/12/3 22/11/3
f 4/24/3 41/23/3 42/14/3 26/27/3
f 9/28/3 25/29/3 43/30/3 3/31/3
f 10/1/3 32/2/3 24/32/3 39/33/3
f 35/34/3 33/35/3 34/36/3 31/37/3
f 29/38/3 28/39/3 36/22/3 30/21/3
f 43/30/3 25/29/3 33/35/3 35/34/3
f 73/40/5 195/40/5 134/41/5 12/41/5
f 46/15/6 168/15/6 143/12/6 21/12/6
f 11/42/5 133/42/5 141/43/5 19/43/5
f 47/18/7 169/18/7 168/15/7 46/15/7
f 50/44/8 172/44/8 137/45/8 15/45/8
f 19/43/5 141/43/5 132/1/5 10/1/5
f 20/20/3 44/19/4 24/32/3 32/2/3
f 49/46/5 171/46/5 170/47/5 48/47/5
f 26/27/3 42/14/3 13/13/3 14/48/3
f 14/48/3 50/44/3 3/31/3 26/27/3
f 9/28/3 3/31/3 50/44/3 15/45/3
f 52/49/3 51/50/3 38/51/3 28/39/3
f 56/52/3 57/53/3 48/47/3 11/42/3
f 54/54/3 53/55/3 29/38/3 31/37/3
f 58/56/3 59/57/3 12/41/3 49/46/3
f 55/58/3 116/59/3 120/60/3 59/61/3
f 13/13/8 135/13/8 136/48/8 14/48/8
f 20/20/9 142/20/9 169/18/9 47/18/9
f 34/36/3 95/62/3 116/63/3 55/64/3
f 48/47/5 170/47/5 133/42/5 11/42/5
f 32/2/10 154/2/10 142/20/10 20/20/10
f 14/48/8 136/48/8 172/44/8 50/44/8
f 7/65/8 13/13/8 1/10/8 5/66/8
f 6/3/3 16/6/3 7/67/3 5/68/3
f 139/4/11 17/4/11 6/3/11 128/3/11
f 5/68/9 127/68/9 128/3/9 6/3/9
f 7/65/8 129/65/8 135/13/8 13/13/8
f 1/10/8 123/10/8 127/66/8 5/66/8
f 3/31/5 125/31/5 148/27/5 26/27/5
f 26/27/12 148/27/12 126/24/12 4/24/12
f 134/41/13 195/40/13 242/69/13 181/57/13
f 156/36/8 217/62/8 95/62/8 34/36/8
f 33/35/14 155/35/14 156/36/14 34/36/14
f 37/25/15 159/25/15 160/51/15 38/51/15
f 31/37/16 153/37/16 157/34/16 35/34/16
f 25/29/17 147/29/17 155/35/17 33/35/17
f 9/28/18 131/28/18 147/29/18 25/29/18
f 4/24/17 126/24/17 152/21/17 30/21/17
f 8/7/12 130/7/12 162/8/12 40/8/12
f 40/8/17 162/8/17 159/25/17 37/25/17
f 43/30/19 165/30/19 125/31/19 3/31/19
f 38/51/8 160/51/8 150/39/8 28/39/8
f 76/70/3 70/71/3 9/28/3 15/45/3
f 36/22/9 158/22/9 163/23/9 41/23/9
f 35/34/9 157/34/9 165/30/9 43/30/9
f 42/14/5 164/14/5 130/7/5 8/7/5
f 28/39/20 150/39/20 158/22/20 36/22/20
f 31/37/3 34/36/3 55/64/3 54/54/3
f 58/72/3 57/73/3 53/74/3 54/75/3
f 28/39/3 29/38/3 53/55/3 52/49/3
f 56/76/3 60/77/3 51/78/3 52/79/3
f 37/25/3 38/51/3 51/50/3 27/26/3
f 11/42/3 19/43/3 60/80/3 56/52/3
f 49/46/3 48/47/3 57/53/3 58/56/3
f 210/81/17 88/81/17 63/82/17 185/82/17
f 54/75/3 55/58/3 59/61/3 58/72/3
f 52/79/3 53/74/3 57/73/3 56/76/3
f 27/83/3 51/78/3 60/77/3 61/84/3
f 27/26/3 61/85/3 10/1/3 39/33/3
f 10/1/3 61/85/3 60/80/3 19/43/3
f 12/41/5 134/41/5 171/46/5 49/46/5
f 41/23/21 163/23/21 164/14/21 42/14/21
f 15/45/8 137/45/8 198/70/8 76/70/8
f 93/86/22 215/86/22 193/87/22 71/87/22
f 110/88/5 232/88/5 195/40/5 73/40/5
f 67/89/2 77/90/2 79/91/2 78/92/2
f 69/93/3 62/94/3 63/82/3 101/95/3
f 62/94/3 82/96/3 83/97/3 63/82/3
f 62/94/3 69/93/3 103/98/3 74/99/3
f 107/100/3 108/101/3 106/102/3 84/103/3
f 106/102/3 108/101/3 81/104/4 105/105/4
f 91/106/3 65/107/3 102/108/3 97/109/3
f 101/95/3 63/82/3 88/81/3 98/110/3
f 84/103/3 83/97/3 82/96/3 107/100/3
f 65/107/3 87/111/3 103/98/3 102/108/3
f 70/71/3 64/112/3 104/113/3 86/114/3
f 71/87/3 100/115/3 85/116/3 93/86/3
f 96/117/3 92/118/3 95/62/3 94/119/3
f 90/120/3 91/106/3 97/109/3 89/121/3
f 104/113/3 96/117/3 94/119/3 86/114/3
f 198/70/13 137/45/13 131/28/13 192/71/13
f 82/96/23 204/96/23 229/100/23 107/100/23
f 80/122/5 202/122/5 194/123/5 72/123/5
f 107/100/24 229/100/24 230/101/24 108/101/24
f 76/70/8 198/70/8 233/124/8 111/124/8
f 71/87/5 193/87/5 202/122/5 80/122/5
f 81/104/4 93/86/3 85/116/3 105/105/4
f 109/125/5 231/125/5 232/88/5 110/88/5
f 87/111/3 75/126/3 74/99/3 103/98/3
f 75/126/3 87/111/3 64/112/3 111/124/3
f 70/71/3 76/70/3 111/124/3 64/112/3
f 113/127/3 89/121/3 99/128/3 112/129/3
f 117/130/3 72/123/3 109/125/3 118/131/3
f 115/132/3 92/118/3 90/120/3 114/133/3
f 119/134/3 110/88/3 73/40/3 120/69/3
f 75/126/8 197/126/8 196/99/8 74/99/8
f 108/101/17 230/101/17 203/104/17 81/104/17
f 72/123/5 194/123/5 231/125/5 109/125/5
f 103/98/12 225/98/12 224/108/12 102/108/12
f 81/104/25 203/104/25 215/86/25 93/86/25
f 111/124/8 233/124/8 197/126/8 75/126/8
f 68/135/8 66/136/8 62/94/8 74/99/8
f 67/89/3 66/137/3 68/138/3 77/90/3
f 200/92/26 189/89/26 67/89/26 78/92/26
f 67/89/17 189/89/17 188/137/17 66/137/17
f 74/99/8 196/99/8 190/135/8 68/135/8
f 66/136/8 188/136/8 184/94/8 62/94/8
f 87/111/5 209/111/5 186/112/5 64/112/5
f 65/107/21 187/107/21 209/111/21 87/111/21
f 97/109/14 219/109/14 211/121/14 89/121/14
f 95/62/16 217/62/16 216/119/16 94/119/16
f 99/128/20 221/128/20 220/110/20 98/110/20
f 96/117/14 218/117/14 214/118/14 92/118/14
f 94/119/9 216/119/9 208/114/9 86/114/9
f 86/114/19 208/114/19 192/71/19 70/71/19
f 91/106/9 213/106/9 187/107/9 65/107/9
f 101/95/19 223/95/19 191/93/19 69/93/19
f 98/110/9 220/110/9 223/95/9 101/95/9
f 64/112/18 186/112/18 226/113/18 104/113/18
f 89/121/8 211/121/8 221/128/8 99/128/8
f 102/108/17 224/108/17 219/109/17 97/109/17
f 104/113/17 226/113/17 218/117/17 96/117/17
f 69/93/5 191/93/5 225/98/5 103/98/5
f 92/118/3 115/132/3 116/63/3 95/62/3
f 119/139/3 115/140/3 114/141/3 118/142/3
f 89/121/3 113/127/3 114/133/3 90/120/3
f 117/143/3 113/144/3 112/145/3 121/146/3
f 98/110/3 88/81/3 112/129/3 99/128/3
f 72/123/3 117/130/3 121/147/3 80/122/3
f 110/88/3 119/134/3 118/131/3 109/125/3
f 115/140/3 119/139/3 120/60/3 116/59/3
f 113/144/3 117/143/3 118/142/3 114/141/3
f 88/148/3 122/149/3 121/146/3 112/145/3
f 88/81/3 100/115/3 71/87/3 122/150/3
f 71/87/3 80/122/3 121/147/3 122/150/3
f 17/4/8 139/4/8 140/5/8 18/5/8
f 149/26/9 124/9/9 2/9/9 27/26/9
f 222/115/27 100/115/27 88/81/27 210/81/27
f 222/115/8 207/116/8 85/116/8 100/115/8
f 207/116/28 227/105/28 105/105/28 85/116/28
f 227/105/9 228/102/9 106/102/9 105/105/9
f 206/103/29 84/103/29 106/102/29 228/102/29
f 206/103/5 205/97/5 83/97/5 84/103/5
f 185/82/30 63/82/30 83/97/30 205/97/30
f 213/106/16 91/106/16 90/120/16 212/120/16
f 199/90/9 77/90/9 68/138/9 190/138/9
f 199/90/31 201/91/31 79/91/31 77/90/31
f 62/94/8 184/94/8 204/96/8 82/96/8
f 92/118/8 214/118/8 212/120/8 90/120/8
f 161/33/28 149/26/28 27/26/28 39/33/28
f 161/33/8 39/33/8 24/32/8 146/32/8
f 146/32/27 24/32/27 44/19/27 166/19/27
f 166/19/17 44/19/17 45/17/17 167/17/17
f 145/16/30 167/17/30 45/17/30 23/16/30
f 145/16/5 23/16/5 22/11/5 144/11/5
f 124/9/29 144/11/29 22/11/29 2/9/29
f 152/21/14 151/38/14 29/38/14 30/21/14
f 138/6/17 129/67/17 7/67/17 16/6/17
f 138/6/32 16/6/32 18/5/32 140/5/32
f 21/12/8 143/12/8 123/10/8 1/10/8
f 29/38/8 151/38/8 153/37/8 31/37/8
f 128/3/33 138/6/33 140/5/33 139/4/33
f 130/7/13 123/10/13 124/9/13 162/8/13
f 123/10/13 143/12/13 144/11/13 124/9/13
f 123/10/13 130/7/13 164/14/13 135/13/13
f 168/15/13 169/18/13 167/17/13 145/16/13
f 167/17/13 169/18/13 142/20/13 166/19/13
f 152/21/13 126/24/13 163/23/13 158/22/13
f 162/8/13 124/9/13 149/26/13 159/25/13
f 145/16/13 144/11/13 143/12/13 168/15/13
f 126/24/13 148/27/13 164/14/13 163/23/13
f 131/28/13 125/31/13 165/30/13 147/29/13
f 132/1/13 161/33/13 146/32/13 154/2/13
f 157/34/13 153/37/13 156/36/13 155/35/13
f 151/38/13 152/21/13 158/22/13 150/39/13
f 165/30/13 157/34/13 155/35/13 147/29/13
f 142/20/13 154/2/13 146/32/13 166/19/13
f 148/27/13 136/48/13 135/13/13 164/14/13
f 136/48/13 148/27/13 125/31/13 172/44/13
f 131/28/13 137/45/13 172/44/13 125/31/13
f 174/49/13 150/39/13 160/51/13 173/50/13
f 178/52/13 133/42/13 170/47/13 179/53/13
f 176/54/13 153/37/13 151/38/13 175/55/13
f 180/56/13 171/46/13 134/41/13 181/57/13
f 181/61/13 242/60/13 238/59/13 177/58/13
f 177/64/13 238/63/13 217/62/13 156/36/13
f 129/65/8 127/66/8 123/10/8 135/13/8
f 128/3/13 127/68/13 129/67/13 138/6/13
f 153/37/13 176/54/13 177/64/13 156/36/13
f 180/72/13 176/75/13 175/74/13 179/73/13
f 150/39/13 174/49/13 175/55/13 151/38/13
f 178/76/13 174/79/13 173/78/13 182/77/13
f 159/25/13 149/26/13 173/50/13 160/51/13
f 133/42/13 178/52/13 182/80/13 141/43/13
f 171/46/13 180/56/13 179/53/13 170/47/13
f 176/75/13 180/72/13 181/61/13 177/58/13
f 174/79/13 178/76/13 179/73/13 175/74/13
f 149/83/13 183/84/13 182/77/13 173/78/13
f 149/26/13 161/33/13 132/1/13 183/85/13
f 132/1/13 141/43/13 182/80/13 183/85/13
f 131/28/5 9/28/5 70/71/5 192/71/5
f 189/89/33 200/92/33 201/91/33 199/90/33
f 191/93/13 223/95/13 185/82/13 184/94/13
f 184/94/13 185/82/13 205/97/13 204/96/13
f 184/94/13 196/99/13 225/98/13 191/93/13
f 229/100/13 206/103/13 228/102/13 230/101/13
f 228/102/13 227/105/13 203/104/13 230/101/13
f 213/106/13 219/109/13 224/108/13 187/107/13
f 223/95/13 220/110/13 210/81/13 185/82/13
f 206/103/13 229/100/13 204/96/13 205/97/13
f 187/107/13 224/108/13 225/98/13 209/111/13
f 192/71/13 208/114/13 226/113/13 186/112/13
f 193/87/13 215/86/13 207/116/13 222/115/13
f 218/117/13 216/119/13 217/62/13 214/118/13
f 212/120/13 211/121/13 219/109/13 213/106/13
f 226/113/13 208/114/13 216/119/13 218/117/13
f 203/104/13 227/105/13 207/116/13 215/86/13
f 209/111/13 225/98/13 196/99/13 197/126/13
f 197/126/13 233/124/13 186/112/13 209/111/13
f 192/71/13 186/112/13 233/124/13 198/70/13
f 235/127/13 234/129/13 221/128/13 211/121/13
f 239/130/13 240/131/13 231/125/13 194/123/13
f 237/132/13 236/133/13 212/120/13 214/118/13
f 241/134/13 242/69/13 195/40/13 232/88/13
f 190/135/8 196/99/8 184/94/8 188/136/8
f 189/89/13 199/90/13 190/138/13 188/137/13
f 214/118/13 217/62/13 238/63/13 237/132/13
f 241/139/13 240/142/13 236/141/13 237/140/13
f 211/121/13 212/120/13 236/133/13 235/127/13
f 239/143/13 243/146/13 234/145/13 235/144/13
f 220/110/13 221/128/13 234/129/13 210/81/13
f 194/123/13 202/122/13 243/147/13 239/130/13
f 232/88/13 231/125/13 240/131/13 241/134/13
f 237/140/13 238/59/13 242/60/13 241/139/13
f 235/144/13 236/141/13 240/142/13 239/143/13
f 210/148/13 234/145/13 243/146/13 244/149/13
f 210/81/13 244/150/13 193/87/13 222/115/13
f 193/87/13 244/150/13 243/147/13 202/122/13
f 59/57/3 120/69/3 73/40/3 12/41/3
f 79/91/8 201/91/8 200/92/8 78/92/8
