# Blender 5.1.0
# www.blender.org
mtllib barriere55_089.mtl
o barriere55.089
v 23.937876 0.406543 15.776570
v 23.895523 0.597167 15.823450
v 24.329155 0.643227 15.343484
v 24.226719 0.684294 15.456866
v 23.956015 0.406543 15.738453
v 23.956015 0.372826 15.738453
v 24.060776 0.406543 15.622499
v 24.039572 0.643227 15.664010
v 24.532545 0.643227 15.118362
v 23.780928 1.574803 15.950290
v 24.074814 1.574800 15.625002
v 24.485624 1.574800 15.170296
v 24.074814 0.406543 15.625002
v 24.211750 0.406543 15.473433
v 24.485624 0.406543 15.170296
v 24.060776 0.372826 15.622499
v 24.087812 0.224802 15.898758
v 24.234972 0.224802 15.735874
v 23.895523 1.574800 15.823448
v 23.691391 1.411594 16.049395
v 23.857071 0.406543 15.866010
v 23.836182 0.558042 15.889132
v 23.793085 0.558042 15.936833
v 23.793085 1.334637 15.936833
v 24.473204 0.684294 15.184045
v 24.286058 0.643227 15.391186
v 23.895523 1.295512 15.823448
v 24.082668 1.249448 15.616307
v 24.286058 1.249448 15.391186
v 24.226719 1.208382 15.456866
v 24.329155 1.249448 15.343484
v 23.720343 1.519066 16.017347
v 24.473204 1.208382 15.184045
v 24.532545 1.249448 15.118362
v 24.388496 1.208382 15.277802
v 24.142010 1.208382 15.550626
v 23.980230 1.208382 15.729691
v 24.039572 1.249451 15.664010
v 23.836182 1.334637 15.889132
v 23.980230 0.684294 15.729691
v 24.142010 0.684294 15.550626
v 24.082668 0.643227 15.616307
v 24.388496 0.684294 15.277802
v 23.733744 1.295509 16.002514
v 23.733744 0.597167 16.002514
v 23.754284 0.442268 15.979779
v 23.691391 0.546413 16.049395
v 24.211750 1.574800 15.473433
v 24.348688 1.574800 15.321864
v 24.348688 0.406543 15.321864
v 24.025173 1.295512 15.679945
v 24.081556 1.295512 15.617538
v 24.275537 1.295512 15.402831
v 24.331921 1.295512 15.340424
v 24.525902 1.295512 15.125715
v 24.076263 1.514731 15.623397
v 24.225470 1.514731 15.458248
v 24.345081 1.514731 15.325856
v 24.494287 1.514731 15.160707
v 23.923409 1.514732 15.792584
v 23.895523 1.514732 15.823448
v 25.170006 0.406543 14.412789
v 25.212360 0.597167 14.365910
v 24.778727 0.643227 14.845876
v 24.881165 0.684294 14.732493
v 25.133919 0.406543 14.434690
v 25.133919 0.372826 14.434690
v 25.029158 0.406543 14.550645
v 25.068312 0.643227 14.525350
v 24.575338 0.643227 15.070997
v 25.326956 1.574803 14.239070
v 25.033070 1.574800 14.564358
v 24.622257 1.574800 15.019064
v 25.033070 0.406543 14.564358
v 24.896132 0.406543 14.715927
v 24.622257 0.406543 15.019064
v 25.029158 0.372826 14.550645
v 25.306734 0.224802 14.549594
v 25.159576 0.224802 14.712478
v 25.212358 1.574800 14.365911
v 25.416492 1.411594 14.139966
v 25.250811 0.406543 14.323350
v 25.271702 0.558042 14.300228
v 25.314798 0.558042 14.252526
v 25.314798 1.334637 14.252526
v 24.634680 0.684294 15.005315
v 24.821825 0.643227 14.798174
v 25.212358 1.295512 14.365911
v 25.025213 1.249448 14.573052
v 24.821825 1.249448 14.798174
v 24.881165 1.208382 14.732493
v 24.778727 1.249448 14.845876
v 25.387539 1.519066 14.172013
v 24.634680 1.208382 15.005315
v 24.575338 1.249448 15.070997
v 24.719385 1.208382 14.911558
v 24.965874 1.208382 14.638734
v 25.127651 1.208382 14.459669
v 25.068312 1.249451 14.525350
v 25.271702 1.334637 14.300228
v 25.127651 0.684294 14.459669
v 24.965874 0.684294 14.638734
v 25.025213 0.643227 14.573052
v 24.719385 0.684294 14.911558
v 25.374138 1.295509 14.186845
v 25.374138 0.597167 14.186845
v 25.353598 0.442268 14.209580
v 25.416492 0.546413 14.139966
v 24.896132 1.574800 14.715927
v 24.759195 1.574800 14.867496
v 24.759195 0.406543 14.867496
v 25.082708 1.295512 14.509415
v 25.026325 1.295512 14.571821
v 24.832344 1.295512 14.786529
v 24.775961 1.295512 14.848936
v 24.581982 1.295512 15.063644
v 25.031618 1.514731 14.565963
v 24.882412 1.514731 14.731112
v 24.762800 1.514731 14.863503
v 24.613594 1.514731 15.028652
v 25.184473 1.514732 14.396775
v 25.212358 1.514732 14.365911
v 23.870770 0.406543 15.715941
v 23.828415 0.597167 15.762821
v 24.262049 0.643227 15.282855
v 24.159611 0.684294 15.396237
v 23.906857 0.406543 15.694040
v 23.906857 0.372826 15.694040
v 24.011618 0.406543 15.578086
v 23.972464 0.643227 15.603381
v 24.465437 0.643227 15.057734
v 23.713820 1.574803 15.889661
v 24.007706 1.574800 15.564373
v 24.418518 1.574800 15.109667
v 24.007706 0.406543 15.564373
v 24.144644 0.406543 15.412804
v 24.418518 0.406543 15.109667
v 24.011618 0.372826 15.578086
v 23.734041 0.224802 15.579137
v 23.881199 0.224802 15.416253
v 23.828417 1.574800 15.762819
v 23.624283 1.411594 15.988765
v 23.789965 0.406543 15.805381
v 23.769073 0.558042 15.828503
v 23.725977 0.558042 15.876204
v 23.725977 1.334637 15.876204
v 24.406096 0.684294 15.123416
v 24.218950 0.643227 15.330557
v 23.828417 1.295512 15.762819
v 24.015562 1.249448 15.555678
v 24.218950 1.249448 15.330557
v 24.159611 1.208382 15.396237
v 24.262049 1.249448 15.282855
v 23.653236 1.519066 15.956717
v 24.406096 1.208382 15.123416
v 24.465437 1.249448 15.057734
v 24.321390 1.208382 15.217173
v 24.074902 1.208382 15.489997
v 23.913124 1.208382 15.669062
v 23.972464 1.249451 15.603380
v 23.769073 1.334637 15.828503
v 23.913124 0.684294 15.669062
v 24.074902 0.684294 15.489997
v 24.015562 0.643227 15.555678
v 24.321390 0.684294 15.217173
v 23.666637 1.295509 15.941886
v 23.666637 0.597167 15.941886
v 23.687178 0.442268 15.919150
v 23.624283 0.546413 15.988765
v 24.144644 1.574800 15.412804
v 24.281580 1.574800 15.261235
v 24.281580 0.406543 15.261235
v 23.958067 1.295512 15.619316
v 24.014450 1.295512 15.556910
v 24.208431 1.295512 15.342201
v 24.264812 1.295512 15.279794
v 24.458794 1.295512 15.065086
v 24.009157 1.514731 15.562767
v 24.158363 1.514731 15.397619
v 24.277975 1.514731 15.265226
v 24.427181 1.514731 15.100079
v 23.856300 1.514732 15.731956
v 23.828417 1.514732 15.762819
v 25.102900 0.406543 14.352160
v 25.145252 0.597167 14.305281
v 24.711620 0.643227 14.785247
v 24.814056 0.684294 14.671865
v 25.084761 0.406543 14.390278
v 25.084761 0.372826 14.390278
v 24.980000 0.406543 14.506232
v 25.001204 0.643227 14.464721
v 24.508230 0.643227 15.010367
v 25.259848 1.574803 14.178441
v 24.965961 1.574800 14.503729
v 24.555151 1.574800 14.958435
v 24.965961 0.406543 14.503729
v 24.829025 0.406543 14.655298
v 24.555151 0.406543 14.958435
v 24.980000 0.372826 14.506232
v 24.952963 0.224802 14.229973
v 24.805803 0.224802 14.392857
v 25.145252 1.574800 14.305283
v 25.349384 1.411594 14.079337
v 25.183704 0.406543 14.262721
v 25.204594 0.558042 14.239599
v 25.247690 0.558042 14.191897
v 25.247690 1.334637 14.191897
v 24.567572 0.684294 14.944686
v 24.754717 0.643227 14.737544
v 25.145252 1.295512 14.305283
v 24.958107 1.249448 14.512424
v 24.754717 1.249448 14.737544
v 24.814056 1.208382 14.671865
v 24.711620 1.249448 14.785247
v 25.320431 1.519066 14.111384
v 24.567572 1.208382 14.944686
v 24.508230 1.249448 15.010367
v 24.652277 1.208382 14.850929
v 24.898766 1.208382 14.578104
v 25.060545 1.208382 14.399040
v 25.001204 1.249451 14.464721
v 25.204594 1.334637 14.239599
v 25.060545 0.684294 14.399040
v 24.898766 0.684294 14.578105
v 24.958107 0.643227 14.512424
v 24.652277 0.684294 14.850929
v 25.307032 1.295509 14.126216
v 25.307032 0.597167 14.126216
v 25.286491 0.442268 14.148952
v 25.349384 0.546413 14.079337
v 24.829025 1.574800 14.655297
v 24.692087 1.574800 14.806867
v 24.692087 0.406543 14.806867
v 25.015602 1.295512 14.448786
v 24.959219 1.295512 14.511192
v 24.765238 1.295512 14.725900
v 24.708855 1.295512 14.788307
v 24.514874 1.295512 15.003016
v 24.964512 1.514731 14.505334
v 24.815306 1.514731 14.670483
v 24.695694 1.514731 14.802875
v 24.546488 1.514731 14.968023
v 25.117367 1.514732 14.336146
v 25.145252 1.514732 14.305283
vn -0.3519 0.8511 0.3895
vn 0.4340 0.8111 0.3921
vn 0.7420 -0.0000 0.6704
vn -0.0000 1.0000 -0.0000
vn -0.1521 -0.9739 0.1684
vn -0.4981 -0.6693 0.5513
vn -0.0000 -1.0000 -0.0000
vn -0.6704 -0.0000 0.7420
vn -0.6220 0.3729 0.6885
vn -0.6565 0.2024 0.7267
vn 0.2821 0.9071 -0.3123
vn -0.7420 -0.0000 -0.6704
vn 0.2821 -0.9071 -0.3123
vn -0.2821 -0.9071 0.3123
vn 0.6704 -0.0000 -0.7420
vn -0.2821 0.9071 0.3123
vn 0.3519 0.8511 -0.3895
vn 0.1521 -0.9739 -0.1684
vn 0.4981 -0.6693 -0.5513
vn 0.6220 0.3729 -0.6885
vn 0.6565 0.2024 -0.7267
vn -0.2822 -0.9071 0.3123
vn 0.2710 -0.9146 -0.3000
vn -0.2710 -0.9146 0.3000
vn -0.2710 0.9146 0.3000
vn 0.2710 0.9146 -0.3000
vn -0.6546 0.2154 0.7246
vn 0.6546 0.2154 -0.7246
vn -0.4340 0.8111 -0.3921
vt 0.563424 0.076340
vt 0.553130 0.073518
vt 0.930572 0.423953
vt 0.921307 0.379121
vt 0.987792 0.379121
vt 0.977903 0.423953
vt 0.607372 0.029178
vt 0.597289 0.031257
vt 0.582896 0.026846
vt 0.590093 0.017196
vt 0.572813 0.024865
vt 0.576362 0.017196
vt 0.613360 0.017196
vt 0.614695 0.029178
vt 0.558897 0.019004
vt 0.565490 0.024865
vt 0.555407 0.026846
vt 0.548211 0.024277
vt 0.555407 0.062200
vt 0.548211 0.068077
vt 0.639171 0.057790
vt 0.624778 0.057790
vt 0.624778 0.031257
vt 0.639171 0.031257
vt 0.597289 0.057790
vt 0.582896 0.062201
vt 0.649254 0.029178
vt 0.691136 0.029178
vt 0.681053 0.031257
vt 0.666660 0.031257
vt 0.656577 0.029178
vt 0.565490 0.064181
vt 0.572813 0.064181
vt 0.666660 0.057790
vt 0.681053 0.057790
vt 0.691136 0.059869
vt 0.656577 0.059869
vt 0.649254 0.059869
vt 0.614695 0.059869
vt 0.706379 0.076340
vt 0.683164 0.076340
vt 0.613360 0.076340
vt 0.582896 0.076340
vt 0.659896 0.017196
vt 0.683164 0.017196
vt 0.659896 0.076340
vt 0.636628 0.076340
vt 0.636628 0.017196
vt 0.614506 0.062201
vt 0.604926 0.062201
vt 0.607372 0.059869
vt 0.613607 0.073299
vt 0.638959 0.073299
vt 0.657047 0.062201
vt 0.647466 0.062201
vt 0.659283 0.073299
vt 0.684635 0.073299
vt 0.688839 0.081258
vt 0.699816 0.081258
vt 0.706005 0.126709
vt 0.682651 0.126709
vt 0.698407 0.059869
vt 0.699536 0.062201
vt 0.690007 0.062201
vt 0.612500 0.017196
vt 0.594699 0.017196
vt 0.977903 0.434165
vt 0.930572 0.434165
vt 0.704907 0.073299
vt 0.706379 0.017196
vt 0.698407 0.029178
vt 0.653445 0.126709
vt 0.630032 0.126709
vt 0.639832 0.081258
vt 0.650869 0.081258
vt 0.600826 0.126709
vt 0.570905 0.126710
vt 0.590825 0.081258
vt 0.601862 0.081258
vt 0.587634 0.073299
vt 0.806647 0.062201
vt 0.806647 0.026846
vt 0.565447 0.081258
vt 0.565447 0.126710
vt 0.582896 0.073299
vt 0.836413 0.073518
vt 0.826118 0.076340
vt 0.729647 0.076340
vt 0.978547 0.423953
vt 0.931216 0.423953
vt 0.921327 0.379121
vt 0.987812 0.379121
vt 0.782171 0.029178
vt 0.799450 0.017196
vt 0.792254 0.031257
vt 0.813181 0.017196
vt 0.816730 0.024865
vt 0.774848 0.029178
vt 0.776183 0.017196
vt 0.830646 0.019004
vt 0.841332 0.024277
vt 0.834136 0.026846
vt 0.824053 0.024865
vt 0.841332 0.068077
vt 0.834136 0.062200
vt 0.750372 0.057790
vt 0.750372 0.031257
vt 0.764765 0.031257
vt 0.764765 0.057790
vt 0.792254 0.057790
vt 0.740289 0.029178
vt 0.732966 0.029178
vt 0.722883 0.031257
vt 0.708490 0.031257
vt 0.816730 0.064181
vt 0.824053 0.064181
vt 0.722883 0.057790
vt 0.732966 0.059869
vt 0.708490 0.057790
vt 0.740289 0.059869
vt 0.774848 0.059869
vt 0.806647 0.076340
vt 0.776183 0.076340
vt 0.729647 0.017196
vt 0.752915 0.076340
vt 0.752915 0.017196
vt 0.775037 0.062201
vt 0.782171 0.059869
vt 0.784617 0.062201
vt 0.775936 0.073299
vt 0.750584 0.073299
vt 0.732496 0.062201
vt 0.742077 0.062201
vt 0.730260 0.073299
vt 0.777043 0.017196
vt 0.794844 0.017196
vt 0.978547 0.434165
vt 0.931216 0.434165
vt 0.735211 0.126709
vt 0.737787 0.081258
vt 0.748824 0.081258
vt 0.758624 0.126709
vt 0.787830 0.126709
vt 0.786794 0.081258
vt 0.797831 0.081258
vt 0.817751 0.126710
vt 0.801909 0.073299
vt 0.823209 0.081258
vt 0.823209 0.126710
vt 0.806647 0.073299
s 1
usemtl initialShadingGroup.004
f 10/1/1 132/1/1 154/2/1 32/2/1
f 6/3/2 17/4/2 18/5/2 16/6/2
f 8/7/3 40/8/3 2/9/3 1/10/3
f 1/10/3 2/9/3 22/11/3 21/12/3
f 1/10/3 13/13/3 42/14/3 8/7/3
f 46/15/3 23/16/3 45/17/3 47/18/3
f 45/17/3 44/19/3 20/20/3 47/18/3
f 30/21/3 36/22/3 41/23/3 4/24/3
f 40/8/3 37/25/3 27/26/3 2/9/3
f 23/16/3 46/15/3 21/12/3 22/11/3
f 4/24/3 41/23/3 42/14/3 26/27/3
f 9/28/3 25/29/3 43/30/3 3/31/3
f 10/1/3 32/2/3 24/32/3 39/33/3
f 35/34/3 33/35/3 34/36/3 31/37/3
f 29/38/3 28/39/3 36/22/3 30/21/3
f 43/30/3 25/29/3 33/35/3 35/34/3
f 73/40/4 195/40/4 134/41/4 12/41/4
f 46/15/5 168/15/5 143/12/5 21/12/5
f 11/42/4 133/42/4 141/43/4 19/43/4
f 47/18/6 169/18/6 168/15/6 46/15/6
f 50/44/7 172/44/7 137/45/7 15/45/7
f 19/43/4 141/43/4 132/1/4 10/1/4
f 20/20/3 44/19/3 24/32/3 32/2/3
f 49/46/4 171/46/4 170/47/4 48/47/4
f 26/27/3 42/14/3 13/13/3 14/48/3
f 14/48/3 50/44/3 3/31/3 26/27/3
f 9/28/3 3/31/3 50/44/3 15/45/3
f 52/49/3 51/50/3 38/51/3 28/39/3
f 56/52/3 57/53/3 48/47/3 11/42/3
f 54/54/3 53/55/3 29/38/3 31/37/3
f 58/56/3 59/57/3 12/41/3 49/46/3
f 55/58/3 116/59/3 120/60/3 59/61/3
f 13/13/7 135/13/7 136/48/7 14/48/7
f 20/20/8 142/20/8 169/18/8 47/18/8
f 34/36/3 95/62/3 116/63/3 55/64/3
f 48/47/4 170/47/4 133/42/4 11/42/4
f 32/2/9 154/2/9 142/20/9 20/20/9
f 14/48/7 136/48/7 172/44/7 50/44/7
f 7/65/7 13/13/7 1/10/7 5/66/7
f 6/3/3 16/6/3 7/67/3 5/68/3
f 139/4/10 17/4/10 6/3/10 128/3/10
f 5/68/8 127/68/8 128/3/8 6/3/8
f 7/65/7 129/65/7 135/13/7 13/13/7
f 1/10/7 123/10/7 127/66/7 5/66/7
f 3/31/4 125/31/4 148/27/4 26/27/4
f 26/27/11 148/27/11 126/24/11 4/24/11
f 134/41/12 195/40/12 242/69/12 181/57/12
f 156/36/7 217/62/7 95/62/7 34/36/7
f 33/35/13 155/35/13 156/36/13 34/36/13
f 37/25/13 159/25/13 160/51/13 38/51/13
f 31/37/14 153/37/14 157/34/14 35/34/14
f 25/29/15 147/29/15 155/35/15 33/35/15
f 9/28/11 131/28/11 147/29/11 25/29/11
f 4/24/15 126/24/15 152/21/15 30/21/15
f 8/7/11 130/7/11 162/8/11 40/8/11
f 40/8/15 162/8/15 159/25/15 37/25/15
f 43/30/16 165/30/16 125/31/16 3/31/16
f 38/51/7 160/51/7 150/39/7 28/39/7
f 76/70/3 70/71/3 9/28/3 15/45/3
f 36/22/8 158/22/8 163/23/8 41/23/8
f 35/34/8 157/34/8 165/30/8 43/30/8
f 42/14/4 164/14/4 130/7/4 8/7/4
f 28/39/14 150/39/14 158/22/14 36/22/14
f 31/37/3 34/36/3 55/64/3 54/54/3
f 58/72/3 57/73/3 53/74/3 54/75/3
f 28/39/3 29/38/3 53/55/3 52/49/3
f 56/76/3 60/77/3 51/78/3 52/79/3
f 37/25/3 38/51/3 51/50/3 27/26/3
f 11/42/3 19/43/3 60/80/3 56/52/3
f 49/46/3 48/47/3 57/53/3 58/56/3
f 210/81/15 88/81/15 63/82/15 185/82/15
f 54/75/3 55/58/3 59/61/3 58/72/3
f 52/79/3 53/74/3 57/73/3 56/76/3
f 27/83/3 51/78/3 60/77/3 61/84/3
f 27/26/3 61/85/3 10/1/3 39/33/3
f 10/1/3 61/85/3 60/80/3 19/43/3
f 12/41/4 134/41/4 171/46/4 49/46/4
f 41/23/16 163/23/16 164/14/16 42/14/16
f 15/45/7 137/45/7 198/70/7 76/70/7
f 93/86/17 215/86/17 193/87/17 71/87/17
f 110/88/4 232/88/4 195/40/4 73/40/4
f 67/89/2 77/90/2 79/91/2 78/92/2
f 69/93/3 62/94/3 63/82/3 101/95/3
f 62/94/3 82/96/3 83/97/3 63/82/3
f 62/94/3 69/93/3 103/98/3 74/99/3
f 107/100/3 108/101/3 106/102/3 84/103/3
f 106/102/3 108/101/3 81/104/3 105/105/3
f 91/106/3 65/107/3 102/108/3 97/109/3
f 101/95/3 63/82/3 88/81/3 98/110/3
f 84/103/3 83/97/3 82/96/3 107/100/3
f 65/107/3 87/111/3 103/98/3 102/108/3
f 70/71/3 64/112/3 104/113/3 86/114/3
f 71/87/3 100/115/3 85/116/3 93/86/3
f 96/117/3 92/118/3 95/62/3 94/119/3
f 90/120/3 91/106/3 97/109/3 89/121/3
f 104/113/3 96/117/3 94/119/3 86/114/3
f 198/70/12 137/45/12 131/28/12 192/71/12
f 82/96/18 204/96/18 229/100/18 107/100/18
f 80/122/4 202/122/4 194/123/4 72/123/4
f 107/100/19 229/100/19 230/101/19 108/101/19
f 76/70/7 198/70/7 233/124/7 111/124/7
f 71/87/4 193/87/4 202/122/4 80/122/4
f 81/104/3 93/86/3 85/116/3 105/105/3
f 109/125/4 231/125/4 232/88/4 110/88/4
f 87/111/3 75/126/3 74/99/3 103/98/3
f 75/126/3 87/111/3 64/112/3 111/124/3
f 70/71/3 76/70/3 111/124/3 64/112/3
f 113/127/3 89/121/3 99/128/3 112/129/3
f 117/130/3 72/123/3 109/125/3 118/131/3
f 115/132/3 92/118/3 90/120/3 114/133/3
f 119/134/3 110/88/3 73/40/3 120/69/3
f 75/126/7 197/126/7 196/99/7 74/99/7
f 108/101/15 230/101/15 203/104/15 81/104/15
f 72/123/4 194/123/4 231/125/4 109/125/4
f 103/98/11 225/98/11 224/108/11 102/108/11
f 81/104/20 203/104/20 215/86/20 93/86/20
f 111/124/7 233/124/7 197/126/7 75/126/7
f 68/135/7 66/136/7 62/94/7 74/99/7
f 67/89/3 66/137/3 68/138/3 77/90/3
f 200/92/21 189/89/21 67/89/21 78/92/21
f 67/89/15 189/89/15 188/137/15 66/137/15
f 74/99/7 196/99/7 190/135/7 68/135/7
f 66/136/7 188/136/7 184/94/7 62/94/7
f 87/111/4 209/111/4 186/112/4 64/112/4
f 65/107/16 187/107/16 209/111/16 87/111/16
f 97/109/13 219/109/13 211/121/13 89/121/13
f 95/62/14 217/62/14 216/119/14 94/119/14
f 99/128/22 221/128/22 220/110/22 98/110/22
f 96/117/13 218/117/13 214/118/13 92/118/13
f 94/119/8 216/119/8 208/114/8 86/114/8
f 86/114/16 208/114/16 192/71/16 70/71/16
f 91/106/8 213/106/8 187/107/8 65/107/8
f 101/95/16 223/95/16 191/93/16 69/93/16
f 98/110/8 220/110/8 223/95/8 101/95/8
f 64/112/11 186/112/11 226/113/11 104/113/11
f 89/121/7 211/121/7 221/128/7 99/128/7
f 102/108/15 224/108/15 219/109/15 97/109/15
f 104/113/15 226/113/15 218/117/15 96/117/15
f 69/93/4 191/93/4 225/98/4 103/98/4
f 92/118/3 115/132/3 116/63/3 95/62/3
f 119/139/3 115/140/3 114/141/3 118/142/3
f 89/121/3 113/127/3 114/133/3 90/120/3
f 117/143/3 113/144/3 112/145/3 121/146/3
f 98/110/3 88/81/3 112/129/3 99/128/3
f 72/123/3 117/130/3 121/147/3 80/122/3
f 110/88/3 119/134/3 118/131/3 109/125/3
f 115/140/3 119/139/3 120/60/3 116/59/3
f 113/144/3 117/143/3 118/142/3 114/141/3
f 88/148/3 122/149/3 121/146/3 112/145/3
f 88/81/3 100/115/3 71/87/3 122/150/3
f 71/87/3 80/122/3 121/147/3 122/150/3
f 17/4/7 139/4/7 140/5/7 18/5/7
f 149/26/8 124/9/8 2/9/8 27/26/8
f 222/115/23 100/115/23 88/81/23 210/81/23
f 222/115/7 207/116/7 85/116/7 100/115/7
f 207/116/24 227/105/24 105/105/24 85/116/24
f 227/105/8 228/102/8 106/102/8 105/105/8
f 206/103/25 84/103/25 106/102/25 228/102/25
f 206/103/4 205/97/4 83/97/4 84/103/4
f 185/82/26 63/82/26 83/97/26 205/97/26
f 213/106/14 91/106/14 90/120/14 212/120/14
f 199/90/8 77/90/8 68/138/8 190/138/8
f 199/90/27 201/91/27 79/91/27 77/90/27
f 62/94/7 184/94/7 204/96/7 82/96/7
f 92/118/7 214/118/7 212/120/7 90/120/7
f 161/33/24 149/26/24 27/26/24 39/33/24
f 161/33/7 39/33/7 24/32/7 146/32/7
f 146/32/23 24/32/23 44/19/23 166/19/23
f 166/19/15 44/19/15 45/17/15 167/17/15
f 145/16/26 167/17/26 45/17/26 23/16/26
f 145/16/4 23/16/4 22/11/4 144/11/4
f 124/9/25 144/11/25 22/11/25 2/9/25
f 152/21/13 151/38/13 29/38/13 30/21/13
f 138/6/15 129/67/15 7/67/15 16/6/15
f 138/6/28 16/6/28 18/5/28 140/5/28
f 21/12/7 143/12/7 123/10/7 1/10/7
f 29/38/7 151/38/7 153/37/7 31/37/7
f 128/3/29 138/6/29 140/5/29 139/4/29
f 130/7/12 123/10/12 124/9/12 162/8/12
f 123/10/12 143/12/12 144/11/12 124/9/12
f 123/10/12 130/7/12 164/14/12 135/13/12
f 168/15/12 169/18/12 167/17/12 145/16/12
f 167/17/12 169/18/12 142/20/12 166/19/12
f 152/21/12 126/24/12 163/23/12 158/22/12
f 162/8/12 124/9/12 149/26/12 159/25/12
f 145/16/12 144/11/12 143/12/12 168/15/12
f 126/24/12 148/27/12 164/14/12 163/23/12
f 131/28/12 125/31/12 165/30/12 147/29/12
f 132/1/12 161/33/12 146/32/12 154/2/12
f 157/34/12 153/37/12 156/36/12 155/35/12
f 151/38/12 152/21/12 158/22/12 150/39/12
f 165/30/12 157/34/12 155/35/12 147/29/12
f 142/20/12 154/2/12 146/32/12 166/19/12
f 148/27/12 136/48/12 135/13/12 164/14/12
f 136/48/12 148/27/12 125/31/12 172/44/12
f 131/28/12 137/45/12 172/44/12 125/31/12
f 174/49/12 150/39/12 160/51/12 173/50/12
f 178/52/12 133/42/12 170/47/12 179/53/12
f 176/54/12 153/37/12 151/38/12 175/55/12
f 180/56/12 171/46/12 134/41/12 181/57/12
f 181/61/12 242/60/12 238/59/12 177/58/12
f 177/64/12 238/63/12 217/62/12 156/36/12
f 129/65/7 127/66/7 123/10/7 135/13/7
f 128/3/12 127/68/12 129/67/12 138/6/12
f 153/37/12 176/54/12 177/64/12 156/36/12
f 180/72/12 176/75/12 175/74/12 179/73/12
f 150/39/12 174/49/12 175/55/12 151/38/12
f 178/76/12 174/79/12 173/78/12 182/77/12
f 159/25/12 149/26/12 173/50/12 160/51/12
f 133/42/12 178/52/12 182/80/12 141/43/12
f 171/46/12 180/56/12 179/53/12 170/47/12
f 176/75/12 180/72/12 181/61/12 177/58/12
f 174/79/12 178/76/12 179/73/12 175/74/12
f 149/83/12 183/84/12 182/77/12 173/78/12
f 149/26/12 161/33/12 132/1/12 183/85/12
f 132/1/12 141/43/12 182/80/12 183/85/12
f 131/28/4 9/28/4 70/71/4 192/71/4
f 189/89/29 200/92/29 201/91/29 199/90/29
f 191/93/12 223/95/12 185/82/12 184/94/12
f 184/94/12 185/82/12 205/97/12 204/96/12
f 184/94/12 196/99/12 225/98/12 191/93/12
f 229/100/12 206/103/12 228/102/12 230/101/12
f 228/102/12 227/105/12 203/104/12 230/101/12
f 213/106/12 219/109/12 224/108/12 187/107/12
f 223/95/12 220/110/12 210/81/12 185/82/12
f 206/103/12 229/100/12 204/96/12 205/97/12
f 187/107/12 224/108/12 225/98/12 209/111/12
f 192/71/12 208/114/12 226/113/12 186/112/12
f 193/87/12 215/86/12 207/116/12 222/115/12
f 218/117/12 216/119/12 217/62/12 214/118/12
f 212/120/12 211/121/12 219/109/12 213/106/12
f 226/113/12 208/114/12 216/119/12 218/117/12
f 203/104/12 227/105/12 207/116/12 215/86/12
f 209/111/12 225/98/12 196/99/12 197/126/12
f 197/126/12 233/124/12 186/112/12 209/111/12
f 192/71/12 186/112/12 233/124/12 198/70/12
f 235/127/12 234/129/12 221/128/12 211/121/12
f 239/130/12 240/131/12 231/125/12 194/123/12
f 237/132/12 236/133/12 212/120/12 214/118/12
f 241/134/12 242/69/12 195/40/12 232/88/12
f 190/135/7 196/99/7 184/94/7 188/136/7
f 189/89/12 199/90/12 190/138/12 188/137/12
f 214/118/12 217/62/12 238/63/12 237/132/12
f 241/139/12 240/142/12 236/141/12 237/140/12
f 211/121/12 212/120/12 236/133/12 235/127/12
f 239/143/12 243/146/12 234/145/12 235/144/12
f 220/110/12 221/128/12 234/129/12 210/81/12
f 194/123/12 202/122/12 243/147/12 239/130/12
f 232/88/12 231/125/12 240/131/12 241/134/12
f 237/140/12 238/59/12 242/60/12 241/139/12
f 235/144/12 236/141/12 240/142/12 239/143/12
f 210/148/12 234/145/12 243/146/12 244/149/12
f 210/81/12 244/150/12 193/87/12 222/115/12
f 193/87/12 244/150/12 243/147/12 202/122/12
f 59/57/3 120/69/3 73/40/3 12/41/3
f 79/91/7 201/91/7 200/92/7 78/92/7
