# Blender 5.1.0
# www.blender.org
mtllib barriere55_066.mtl
o barriere55.066
v 48.667343 0.406544 24.037647
v 48.730263 0.597168 24.031973
v 48.086037 0.643228 24.090076
v 48.238224 0.684295 24.076349
v 48.628147 0.406544 24.053326
v 48.628147 0.372827 24.053326
v 48.472511 0.406544 24.067364
v 48.516258 0.643228 24.051273
v 47.783871 0.643228 24.117329
v 48.900513 1.574804 24.016619
v 48.463902 1.574801 24.055996
v 47.853577 1.574801 24.111042
v 48.463902 0.406544 24.055996
v 48.260460 0.406544 24.074345
v 47.853577 0.406544 24.111042
v 48.472511 0.372827 24.067364
v 48.640179 0.224803 23.846148
v 48.421551 0.224803 23.865866
v 48.730263 1.574801 24.031973
v 49.033535 1.411595 24.004622
v 48.787392 0.406544 24.026821
v 48.818424 0.558043 24.024021
v 48.882450 0.558043 24.018248
v 48.882450 1.334638 24.018248
v 47.872032 0.684295 24.109377
v 48.150066 0.643228 24.084301
v 48.730263 1.295513 24.031973
v 48.452229 1.249449 24.057049
v 48.150066 1.249449 24.084301
v 48.238224 1.208383 24.076349
v 48.086037 1.249449 24.090076
v 48.990520 1.519067 24.008501
v 47.872032 1.208383 24.109377
v 47.783871 1.249449 24.117329
v 47.997875 1.208383 24.098026
v 48.364071 1.208383 24.065001
v 48.604416 1.208383 24.043324
v 48.516258 1.249452 24.051273
v 48.818424 1.334638 24.024021
v 48.604416 0.684295 24.043324
v 48.364071 0.684295 24.065001
v 48.452229 0.643228 24.057049
v 47.997875 0.684295 24.098026
v 48.970612 1.295510 24.010296
v 48.970612 0.597168 24.010296
v 48.940094 0.442269 24.013048
v 49.033535 0.546414 24.004622
v 48.260460 1.574801 24.074345
v 48.057018 1.574801 24.092693
v 48.057018 0.406544 24.092693
v 48.537647 1.295513 24.049345
v 48.453884 1.295513 24.056900
v 48.165695 1.295513 24.082891
v 48.081928 1.295513 24.090446
v 47.793739 1.295513 24.116438
v 48.461746 1.514732 24.056190
v 48.240078 1.514732 24.076183
v 48.062378 1.514732 24.092209
v 47.840710 1.514732 24.112202
v 48.688835 1.514733 24.035709
v 48.730263 1.514733 24.031973
v 46.836826 0.406544 24.202742
v 46.773903 0.597168 24.208418
v 47.418129 0.643228 24.150314
v 47.265945 0.684295 24.164040
v 46.878193 0.406544 24.211155
v 46.878193 0.372827 24.211155
v 47.033829 0.406544 24.197119
v 46.987907 0.643228 24.189116
v 47.720295 0.643228 24.123062
v 46.603653 1.574804 24.223772
v 47.040268 1.574801 24.184393
v 47.650589 1.574801 24.129349
v 47.040268 0.406544 24.184393
v 47.243710 0.406544 24.166046
v 47.650589 0.406544 24.129349
v 47.033829 0.372827 24.197119
v 46.829285 0.224803 24.009472
v 47.047913 0.224803 23.989754
v 46.773903 1.574801 24.208418
v 46.470634 1.411595 24.235769
v 46.716778 0.406544 24.213570
v 46.685741 0.558043 24.216368
v 46.621716 0.558043 24.222143
v 46.621716 1.334638 24.222143
v 47.632133 0.684295 24.131014
v 47.354103 0.643228 24.156090
v 46.773903 1.295513 24.208418
v 47.051937 1.249449 24.183342
v 47.354103 1.249449 24.156090
v 47.265945 1.208383 24.164040
v 47.418129 1.249449 24.150314
v 46.513649 1.519067 24.231890
v 47.632133 1.208383 24.131014
v 47.720295 1.249449 24.123062
v 47.506290 1.208383 24.142363
v 47.140095 1.208383 24.175390
v 46.899750 1.208383 24.197067
v 46.987907 1.249452 24.189116
v 46.685741 1.334638 24.216368
v 46.899750 0.684295 24.197067
v 47.140095 0.684295 24.175390
v 47.051937 0.643228 24.183342
v 47.506290 0.684295 24.142363
v 46.533554 1.295510 24.230095
v 46.533554 0.597168 24.230095
v 46.564072 0.442269 24.227343
v 46.470634 0.546414 24.235769
v 47.243710 1.574801 24.166046
v 47.447147 1.574801 24.147697
v 47.447147 0.406544 24.147697
v 46.966518 1.295513 24.191046
v 47.050285 1.295513 24.183491
v 47.338474 1.295513 24.157499
v 47.422237 1.295513 24.149944
v 47.710426 1.295513 24.123953
v 47.042423 1.514732 24.184200
v 47.264088 1.514732 24.164207
v 47.441792 1.514732 24.148180
v 47.663460 1.514732 24.128187
v 46.815331 1.514733 24.204681
v 46.773903 1.514733 24.208418
v 48.675465 0.406544 24.127722
v 48.738388 0.597168 24.122046
v 48.094162 0.643228 24.180149
v 48.246346 0.684295 24.166424
v 48.634098 0.406544 24.119308
v 48.634098 0.372827 24.119308
v 48.478462 0.406544 24.133345
v 48.524384 0.643228 24.141348
v 47.791996 0.643228 24.207401
v 48.908638 1.574804 24.106691
v 48.472023 1.574801 24.146070
v 47.861702 1.574801 24.201115
v 48.472023 0.406544 24.146070
v 48.268581 0.406544 24.164417
v 47.861702 0.406544 24.201115
v 48.478462 0.372827 24.133345
v 48.683006 0.224803 24.320992
v 48.464378 0.224803 24.340710
v 48.738388 1.574801 24.122047
v 49.041656 1.411595 24.094694
v 48.795513 0.406544 24.116894
v 48.826550 0.558043 24.114096
v 48.890575 0.558043 24.108320
v 48.890575 1.334638 24.108320
v 47.880157 0.684295 24.199450
v 48.158188 0.643228 24.174374
v 48.738388 1.295513 24.122047
v 48.460354 1.249449 24.147121
v 48.158188 1.249449 24.174376
v 48.246346 1.208383 24.166424
v 48.094162 1.249449 24.180149
v 48.998642 1.519067 24.098574
v 47.880157 1.208383 24.199450
v 47.791996 1.249449 24.207401
v 48.006001 1.208383 24.188101
v 48.372196 1.208383 24.155073
v 48.612541 1.208383 24.133396
v 48.524384 1.249452 24.141348
v 48.826550 1.334638 24.114096
v 48.612541 0.684295 24.133396
v 48.372196 0.684295 24.155073
v 48.460354 0.643228 24.147121
v 48.006001 0.684295 24.188101
v 48.978737 1.295510 24.100370
v 48.978737 0.597168 24.100368
v 48.948219 0.442269 24.103121
v 49.041656 0.546414 24.094694
v 48.268581 1.574801 24.164417
v 48.065144 1.574801 24.182766
v 48.065144 0.406544 24.182766
v 48.545773 1.295513 24.139418
v 48.462006 1.295513 24.146973
v 48.173817 1.295513 24.172964
v 48.090054 1.295513 24.180519
v 47.801865 1.295513 24.206512
v 48.469868 1.514732 24.146265
v 48.248203 1.514732 24.166256
v 48.070499 1.514732 24.182283
v 47.848831 1.514732 24.202276
v 48.696960 1.514733 24.125782
v 48.738388 1.514733 24.122047
v 46.844948 0.406544 24.292816
v 46.782028 0.597168 24.298491
v 47.426254 0.643228 24.240387
v 47.274067 0.684295 24.254114
v 46.884144 0.406544 24.277138
v 46.884144 0.372827 24.277138
v 47.039780 0.406544 24.263100
v 46.996033 0.643228 24.279190
v 47.728420 0.643228 24.213135
v 46.611778 1.574804 24.313845
v 47.048389 1.574801 24.274467
v 47.658714 1.574801 24.219423
v 47.048389 0.406544 24.274467
v 47.251831 0.406544 24.256119
v 47.658714 0.406544 24.219421
v 47.039780 0.372827 24.263100
v 46.872112 0.224803 24.484316
v 47.090740 0.224803 24.464598
v 46.782028 1.574801 24.298491
v 46.478756 1.411595 24.325842
v 46.724899 0.406544 24.303642
v 46.693867 0.558043 24.306442
v 46.629841 0.558043 24.312216
v 46.629841 1.334638 24.312216
v 47.640259 0.684295 24.221087
v 47.362225 0.643228 24.246162
v 46.782028 1.295513 24.298491
v 47.060062 1.249449 24.273415
v 47.362225 1.249449 24.246162
v 47.274067 1.208383 24.254114
v 47.426254 1.249449 24.240387
v 46.521770 1.519067 24.321962
v 47.640259 1.208383 24.221087
v 47.728420 1.249449 24.213135
v 47.514416 1.208383 24.232437
v 47.148220 1.208383 24.265463
v 46.907875 1.208383 24.287140
v 46.996033 1.249452 24.279190
v 46.693867 1.334638 24.306442
v 46.907875 0.684295 24.287140
v 47.148220 0.684295 24.265463
v 47.060062 0.643228 24.273415
v 47.514416 0.684295 24.232437
v 46.541679 1.295510 24.320168
v 46.541679 0.597168 24.320168
v 46.572197 0.442269 24.317415
v 46.478756 0.546414 24.325842
v 47.251831 1.574801 24.256119
v 47.455273 1.574801 24.237770
v 47.455273 0.406544 24.237770
v 46.974644 1.295513 24.281118
v 47.058407 1.295513 24.273563
v 47.346596 1.295513 24.247572
v 47.430363 1.295513 24.240017
v 47.718552 1.295513 24.214025
v 47.050545 1.514732 24.274273
v 47.272213 1.514732 24.254280
v 47.449913 1.514732 24.238255
v 47.671581 1.514732 24.218262
v 46.823456 1.514733 24.294754
v 46.782028 1.514733 24.298491
vn 0.5228 0.8511 -0.0472
vn -0.0525 0.8111 -0.5825
vn -0.0898 -0.0000 -0.9960
vn -0.0000 1.0000 -0.0000
vn 0.2260 -0.9739 -0.0204
vn 0.7400 -0.6693 -0.0667
vn -0.0000 -1.0000 -0.0000
vn -0.0899 -0.0000 -0.9960
vn 0.9960 -0.0000 -0.0898
vn 0.9241 0.3729 -0.0833
vn 0.9754 0.2024 -0.0880
vn -0.4192 0.9071 0.0378
vn 0.0898 -0.0000 0.9960
vn -0.4191 -0.9071 0.0378
vn -0.4192 -0.9071 0.0378
vn 0.4191 -0.9071 -0.0378
vn -0.9960 -0.0000 0.0898
vn -0.4191 0.9071 0.0378
vn 0.4191 0.9071 -0.0378
vn 0.4192 -0.9071 -0.0378
vn -0.5228 0.8511 0.0472
vn -0.2260 -0.9739 0.0204
vn -0.7400 -0.6693 0.0667
vn -0.9241 0.3729 0.0833
vn -0.9754 0.2024 0.0880
vn 0.4192 0.9071 -0.0378
vn -0.4026 -0.9146 0.0363
vn 0.4027 -0.9146 -0.0363
vn 0.4027 0.9146 -0.0363
vn -0.4026 0.9146 0.0363
vn 0.9726 0.2155 -0.0877
vn 0.4026 -0.9146 -0.0363
vn -0.4027 -0.9146 0.0363
vn 0.4026 0.9146 -0.0363
vn -0.9726 0.2154 0.0877
vn 0.0525 0.8111 0.5825
vt 0.563424 0.076340
vt 0.553130 0.073518
vt 0.930572 0.423953
vt 0.921307 0.379121
vt 0.987792 0.379121
vt 0.977903 0.423953
vt 0.607372 0.029178
vt 0.597289 0.031257
vt 0.582896 0.026846
vt 0.590093 0.017196
vt 0.572813 0.024865
vt 0.576362 0.017196
vt 0.613360 0.017196
vt 0.614695 0.029178
vt 0.558897 0.019004
vt 0.565490 0.024865
vt 0.555407 0.026846
vt 0.548211 0.024277
vt 0.555407 0.062200
vt 0.548211 0.068077
vt 0.639171 0.057790
vt 0.624778 0.057790
vt 0.624778 0.031257
vt 0.639171 0.031257
vt 0.597289 0.057790
vt 0.582896 0.062201
vt 0.649254 0.029178
vt 0.691136 0.029178
vt 0.681053 0.031257
vt 0.666660 0.031257
vt 0.656577 0.029178
vt 0.565490 0.064181
vt 0.572813 0.064181
vt 0.666660 0.057790
vt 0.681053 0.057790
vt 0.691136 0.059869
vt 0.656577 0.059869
vt 0.649254 0.059869
vt 0.614695 0.059869
vt 0.706379 0.076340
vt 0.683164 0.076340
vt 0.613360 0.076340
vt 0.582896 0.076340
vt 0.659896 0.017196
vt 0.683164 0.017196
vt 0.659896 0.076340
vt 0.636628 0.076340
vt 0.636628 0.017196
vt 0.614506 0.062201
vt 0.604926 0.062201
vt 0.607372 0.059869
vt 0.613607 0.073299
vt 0.638959 0.073299
vt 0.657047 0.062201
vt 0.647466 0.062201
vt 0.659283 0.073299
vt 0.684635 0.073299
vt 0.688839 0.081258
vt 0.699816 0.081258
vt 0.706005 0.126709
vt 0.682651 0.126709
vt 0.698407 0.059869
vt 0.699536 0.062201
vt 0.690007 0.062201
vt 0.612500 0.017196
vt 0.594699 0.017196
vt 0.977903 0.434165
vt 0.930572 0.434165
vt 0.704907 0.073299
vt 0.706379 0.017196
vt 0.698407 0.029178
vt 0.653445 0.126709
vt 0.630032 0.126709
vt 0.639832 0.081258
vt 0.650869 0.081258
vt 0.600826 0.126709
vt 0.570905 0.126710
vt 0.590825 0.081258
vt 0.601862 0.081258
vt 0.587634 0.073299
vt 0.806647 0.062201
vt 0.806647 0.026846
vt 0.565447 0.081258
vt 0.565447 0.126710
vt 0.582896 0.073299
vt 0.836413 0.073518
vt 0.826118 0.076340
vt 0.729647 0.076340
vt 0.978547 0.423953
vt 0.931216 0.423953
vt 0.921327 0.379121
vt 0.987812 0.379121
vt 0.782171 0.029178
vt 0.799450 0.017196
vt 0.792254 0.031257
vt 0.813181 0.017196
vt 0.816730 0.024865
vt 0.774848 0.029178
vt 0.776183 0.017196
vt 0.830646 0.019004
vt 0.841332 0.024277
vt 0.834136 0.026846
vt 0.824053 0.024865
vt 0.841332 0.068077
vt 0.834136 0.062200
vt 0.750372 0.057790
vt 0.750372 0.031257
vt 0.764765 0.031257
vt 0.764765 0.057790
vt 0.792254 0.057790
vt 0.740289 0.029178
vt 0.732966 0.029178
vt 0.722883 0.031257
vt 0.708490 0.031257
vt 0.816730 0.064181
vt 0.824053 0.064181
vt 0.722883 0.057790
vt 0.732966 0.059869
vt 0.708490 0.057790
vt 0.740289 0.059869
vt 0.774848 0.059869
vt 0.806647 0.076340
vt 0.776183 0.076340
vt 0.729647 0.017196
vt 0.752915 0.076340
vt 0.752915 0.017196
vt 0.775037 0.062201
vt 0.782171 0.059869
vt 0.784617 0.062201
vt 0.775936 0.073299
vt 0.750584 0.073299
vt 0.732496 0.062201
vt 0.742077 0.062201
vt 0.730260 0.073299
vt 0.777043 0.017196
vt 0.794844 0.017196
vt 0.978547 0.434165
vt 0.931216 0.434165
vt 0.735211 0.126709
vt 0.737787 0.081258
vt 0.748824 0.081258
vt 0.758624 0.126709
vt 0.787830 0.126709
vt 0.786794 0.081258
vt 0.797831 0.081258
vt 0.817751 0.126710
vt 0.801909 0.073299
vt 0.823209 0.081258
vt 0.823209 0.126710
vt 0.806647 0.073299
s 1
usemtl initialShadingGroup.004
f 10/1/1 132/1/1 154/2/1 32/2/1
f 6/3/2 17/4/2 18/5/2 16/6/2
f 8/7/3 40/8/3 2/9/3 1/10/3
f 1/10/3 2/9/3 22/11/3 21/12/3
f 1/10/3 13/13/3 42/14/3 8/7/3
f 46/15/3 23/16/3 45/17/3 47/18/3
f 45/17/3 44/19/3 20/20/3 47/18/3
f 30/21/3 36/22/3 41/23/3 4/24/3
f 40/8/3 37/25/3 27/26/3 2/9/3
f 23/16/3 46/15/3 21/12/3 22/11/3
f 4/24/3 41/23/3 42/14/3 26/27/3
f 9/28/3 25/29/3 43/30/3 3/31/3
f 10/1/3 32/2/3 24/32/3 39/33/3
f 35/34/3 33/35/3 34/36/3 31/37/3
f 29/38/3 28/39/3 36/22/3 30/21/3
f 43/30/3 25/29/3 33/35/3 35/34/3
f 73/40/4 195/40/4 134/41/4 12/41/4
f 46/15/5 168/15/5 143/12/5 21/12/5
f 11/42/4 133/42/4 141/43/4 19/43/4
f 47/18/6 169/18/6 168/15/6 46/15/6
f 50/44/7 172/44/7 137/45/7 15/45/7
f 19/43/4 141/43/4 132/1/4 10/1/4
f 20/20/3 44/19/3 24/32/3 32/2/3
f 49/46/4 171/46/4 170/47/4 48/47/4
f 26/27/3 42/14/3 13/13/3 14/48/3
f 14/48/3 50/44/3 3/31/3 26/27/3
f 9/28/3 3/31/3 50/44/3 15/45/3
f 52/49/3 51/50/3 38/51/8 28/39/3
f 56/52/3 57/53/3 48/47/3 11/42/3
f 54/54/3 53/55/3 29/38/3 31/37/3
f 58/56/3 59/57/3 12/41/3 49/46/3
f 55/58/3 116/59/3 120/60/3 59/61/3
f 13/13/7 135/13/7 136/48/7 14/48/7
f 20/20/9 142/20/9 169/18/9 47/18/9
f 34/36/3 95/62/3 116/63/3 55/64/3
f 48/47/4 170/47/4 133/42/4 11/42/4
f 32/2/10 154/2/10 142/20/10 20/20/10
f 14/48/7 136/48/7 172/44/7 50/44/7
f 7/65/7 13/13/7 1/10/7 5/66/7
f 6/3/3 16/6/3 7/67/3 5/68/3
f 139/4/11 17/4/11 6/3/11 128/3/11
f 5/68/9 127/68/9 128/3/9 6/3/9
f 7/65/7 129/65/7 135/13/7 13/13/7
f 1/10/7 123/10/7 127/66/7 5/66/7
f 3/31/4 125/31/4 148/27/4 26/27/4
f 26/27/12 148/27/12 126/24/12 4/24/12
f 134/41/13 195/40/13 242/69/13 181/57/13
f 156/36/7 217/62/7 95/62/7 34/36/7
f 33/35/14 155/35/14 156/36/14 34/36/14
f 37/25/15 159/25/15 160/51/15 38/51/15
f 31/37/16 153/37/16 157/34/16 35/34/16
f 25/29/17 147/29/17 155/35/17 33/35/17
f 9/28/18 131/28/18 147/29/18 25/29/18
f 4/24/17 126/24/17 152/21/17 30/21/17
f 8/7/12 130/7/12 162/8/12 40/8/12
f 40/8/17 162/8/17 159/25/17 37/25/17
f 43/30/19 165/30/19 125/31/19 3/31/19
f 38/51/7 160/51/7 150/39/7 28/39/7
f 76/70/3 70/71/3 9/28/3 15/45/3
f 36/22/9 158/22/9 163/23/9 41/23/9
f 35/34/9 157/34/9 165/30/9 43/30/9
f 42/14/4 164/14/4 130/7/4 8/7/4
f 28/39/20 150/39/20 158/22/20 36/22/20
f 31/37/3 34/36/3 55/64/3 54/54/3
f 58/72/3 57/73/3 53/74/3 54/75/3
f 28/39/3 29/38/3 53/55/3 52/49/3
f 56/76/3 60/77/3 51/78/3 52/79/3
f 37/25/3 38/51/8 51/50/3 27/26/3
f 11/42/3 19/43/3 60/80/3 56/52/3
f 49/46/3 48/47/3 57/53/3 58/56/3
f 210/81/17 88/81/17 63/82/17 185/82/17
f 54/75/3 55/58/3 59/61/3 58/72/3
f 52/79/3 53/74/3 57/73/3 56/76/3
f 27/83/3 51/78/3 60/77/3 61/84/3
f 27/26/3 61/85/3 10/1/3 39/33/3
f 10/1/3 61/85/3 60/80/3 19/43/3
f 12/41/4 134/41/4 171/46/4 49/46/4
f 41/23/19 163/23/19 164/14/19 42/14/19
f 15/45/7 137/45/7 198/70/7 76/70/7
f 93/86/21 215/86/21 193/87/21 71/87/21
f 110/88/4 232/88/4 195/40/4 73/40/4
f 67/89/2 77/90/2 79/91/2 78/92/2
f 69/93/3 62/94/3 63/82/3 101/95/3
f 62/94/3 82/96/3 83/97/3 63/82/3
f 62/94/3 69/93/3 103/98/3 74/99/3
f 107/100/3 108/101/3 106/102/3 84/103/3
f 106/102/3 108/101/3 81/104/3 105/105/3
f 91/106/3 65/107/3 102/108/3 97/109/3
f 101/95/3 63/82/3 88/81/3 98/110/3
f 84/103/3 83/97/3 82/96/3 107/100/3
f 65/107/3 87/111/3 103/98/3 102/108/3
f 70/71/3 64/112/3 104/113/3 86/114/3
f 71/87/3 100/115/3 85/116/3 93/86/3
f 96/117/3 92/118/3 95/62/3 94/119/3
f 90/120/3 91/106/3 97/109/3 89/121/3
f 104/113/3 96/117/3 94/119/3 86/114/3
f 198/70/13 137/45/13 131/28/13 192/71/13
f 82/96/22 204/96/22 229/100/22 107/100/22
f 80/122/4 202/122/4 194/123/4 72/123/4
f 107/100/23 229/100/23 230/101/23 108/101/23
f 76/70/7 198/70/7 233/124/7 111/124/7
f 71/87/4 193/87/4 202/122/4 80/122/4
f 81/104/3 93/86/3 85/116/3 105/105/3
f 109/125/4 231/125/4 232/88/4 110/88/4
f 87/111/3 75/126/3 74/99/3 103/98/3
f 75/126/3 87/111/3 64/112/3 111/124/3
f 70/71/3 76/70/3 111/124/3 64/112/3
f 113/127/3 89/121/3 99/128/3 112/129/3
f 117/130/3 72/123/3 109/125/3 118/131/3
f 115/132/3 92/118/3 90/120/3 114/133/3
f 119/134/3 110/88/3 73/40/3 120/69/3
f 75/126/7 197/126/7 196/99/7 74/99/7
f 108/101/17 230/101/17 203/104/17 81/104/17
f 72/123/4 194/123/4 231/125/4 109/125/4
f 103/98/18 225/98/18 224/108/18 102/108/18
f 81/104/24 203/104/24 215/86/24 93/86/24
f 111/124/7 233/124/7 197/126/7 75/126/7
f 68/135/7 66/136/7 62/94/7 74/99/7
f 67/89/3 66/137/3 68/138/3 77/90/3
f 200/92/25 189/89/25 67/89/25 78/92/25
f 67/89/17 189/89/17 188/137/17 66/137/17
f 74/99/7 196/99/7 190/135/7 68/135/7
f 66/136/7 188/136/7 184/94/7 62/94/7
f 87/111/4 209/111/4 186/112/4 64/112/4
f 65/107/26 187/107/26 209/111/26 87/111/26
f 97/109/14 219/109/14 211/121/14 89/121/14
f 95/62/16 217/62/16 216/119/16 94/119/16
f 99/128/20 221/128/20 220/110/20 98/110/20
f 96/117/14 218/117/14 214/118/14 92/118/14
f 94/119/9 216/119/9 208/114/9 86/114/9
f 86/114/26 208/114/26 192/71/26 70/71/26
f 91/106/9 213/106/9 187/107/9 65/107/9
f 101/95/26 223/95/26 191/93/26 69/93/26
f 98/110/9 220/110/9 223/95/9 101/95/9
f 64/112/18 186/112/18 226/113/18 104/113/18
f 89/121/7 211/121/7 221/128/7 99/128/7
f 102/108/17 224/108/17 219/109/17 97/109/17
f 104/113/17 226/113/17 218/117/17 96/117/17
f 69/93/4 191/93/4 225/98/4 103/98/4
f 92/118/3 115/132/3 116/63/3 95/62/3
f 119/139/3 115/140/3 114/141/3 118/142/3
f 89/121/3 113/127/3 114/133/3 90/120/3
f 117/143/3 113/144/3 112/145/3 121/146/3
f 98/110/3 88/81/3 112/129/3 99/128/3
f 72/123/3 117/130/3 121/147/3 80/122/3
f 110/88/3 119/134/3 118/131/3 109/125/3
f 115/140/3 119/139/3 120/60/3 116/59/3
f 113/144/3 117/143/3 118/142/3 114/141/3
f 88/148/3 122/149/3 121/146/3 112/145/3
f 88/81/3 100/115/3 71/87/3 122/150/3
f 71/87/3 80/122/3 121/147/3 122/150/3
f 17/4/7 139/4/7 140/5/7 18/5/7
f 149/26/9 124/9/9 2/9/9 27/26/9
f 222/115/27 100/115/27 88/81/27 210/81/27
f 222/115/7 207/116/7 85/116/7 100/115/7
f 207/116/28 227/105/28 105/105/28 85/116/28
f 227/105/9 228/102/9 106/102/9 105/105/9
f 206/103/29 84/103/29 106/102/29 228/102/29
f 206/103/4 205/97/4 83/97/4 84/103/4
f 185/82/30 63/82/30 83/97/30 205/97/30
f 213/106/20 91/106/20 90/120/20 212/120/20
f 199/90/9 77/90/9 68/138/9 190/138/9
f 199/90/31 201/91/31 79/91/31 77/90/31
f 62/94/7 184/94/7 204/96/7 82/96/7
f 92/118/7 214/118/7 212/120/7 90/120/7
f 161/33/32 149/26/32 27/26/32 39/33/32
f 161/33/7 39/33/7 24/32/7 146/32/7
f 146/32/33 24/32/33 44/19/33 166/19/33
f 166/19/17 44/19/17 45/17/17 167/17/17
f 145/16/30 167/17/30 45/17/30 23/16/30
f 145/16/4 23/16/4 22/11/4 144/11/4
f 124/9/34 144/11/34 22/11/34 2/9/34
f 152/21/14 151/38/14 29/38/14 30/21/14
f 138/6/17 129/67/17 7/67/17 16/6/17
f 138/6/35 16/6/35 18/5/35 140/5/35
f 21/12/7 143/12/7 123/10/7 1/10/7
f 29/38/7 151/38/7 153/37/7 31/37/7
f 128/3/36 138/6/36 140/5/36 139/4/36
f 130/7/13 123/10/13 124/9/13 162/8/13
f 123/10/13 143/12/13 144/11/13 124/9/13
f 123/10/13 130/7/13 164/14/13 135/13/13
f 168/15/13 169/18/13 167/17/13 145/16/13
f 167/17/13 169/18/13 142/20/13 166/19/13
f 152/21/13 126/24/13 163/23/13 158/22/13
f 162/8/13 124/9/13 149/26/13 159/25/13
f 145/16/13 144/11/13 143/12/13 168/15/13
f 126/24/13 148/27/13 164/14/13 163/23/13
f 131/28/13 125/31/13 165/30/13 147/29/13
f 132/1/13 161/33/13 146/32/13 154/2/13
f 157/34/13 153/37/13 156/36/13 155/35/13
f 151/38/13 152/21/13 158/22/13 150/39/13
f 165/30/13 157/34/13 155/35/13 147/29/13
f 142/20/13 154/2/13 146/32/13 166/19/13
f 148/27/13 136/48/13 135/13/13 164/14/13
f 136/48/13 148/27/13 125/31/13 172/44/13
f 131/28/13 137/45/13 172/44/13 125/31/13
f 174/49/13 150/39/13 160/51/13 173/50/13
f 178/52/13 133/42/13 170/47/13 179/53/13
f 176/54/13 153/37/13 151/38/13 175/55/13
f 180/56/13 171/46/13 134/41/13 181/57/13
f 181/61/13 242/60/13 238/59/13 177/58/13
f 177/64/13 238/63/13 217/62/13 156/36/13
f 129/65/7 127/66/7 123/10/7 135/13/7
f 128/3/13 127/68/13 129/67/13 138/6/13
f 153/37/13 176/54/13 177/64/13 156/36/13
f 180/72/13 176/75/13 175/74/13 179/73/13
f 150/39/13 174/49/13 175/55/13 151/38/13
f 178/76/13 174/79/13 173/78/13 182/77/13
f 159/25/13 149/26/13 173/50/13 160/51/13
f 133/42/13 178/52/13 182/80/13 141/43/13
f 171/46/13 180/56/13 179/53/13 170/47/13
f 176/75/13 180/72/13 181/61/13 177/58/13
f 174/79/13 178/76/13 179/73/13 175/74/13
f 149/83/13 183/84/13 182/77/13 173/78/13
f 149/26/13 161/33/13 132/1/13 183/85/13
f 132/1/13 141/43/13 182/80/13 183/85/13
f 131/28/4 9/28/4 70/71/4 192/71/4
f 189/89/36 200/92/36 201/91/36 199/90/36
f 191/93/13 223/95/13 185/82/13 184/94/13
f 184/94/13 185/82/13 205/97/13 204/96/13
f 184/94/13 196/99/13 225/98/13 191/93/13
f 229/100/13 206/103/13 228/102/13 230/101/13
f 228/102/13 227/105/13 203/104/13 230/101/13
f 213/106/13 219/109/13 224/108/13 187/107/13
f 223/95/13 220/110/13 210/81/13 185/82/13
f 206/103/13 229/100/13 204/96/13 205/97/13
f 187/107/13 224/108/13 225/98/13 209/111/13
f 192/71/13 208/114/13 226/113/13 186/112/13
f 193/87/13 215/86/13 207/116/13 222/115/13
f 218/117/13 216/119/13 217/62/13 214/118/13
f 212/120/13 211/121/13 219/109/13 213/106/13
f 226/113/13 208/114/13 216/119/13 218/117/13
f 203/104/13 227/105/13 207/116/13 215/86/13
f 209/111/13 225/98/13 196/99/13 197/126/13
f 197/126/13 233/124/13 186/112/13 209/111/13
f 192/71/13 186/112/13 233/124/13 198/70/13
f 235/127/13 234/129/13 221/128/13 211/121/13
f 239/130/13 240/131/13 231/125/13 194/123/13
f 237/132/13 236/133/13 212/120/13 214/118/13
f 241/134/13 242/69/13 195/40/13 232/88/13
f 190/135/7 196/99/7 184/94/7 188/136/7
f 189/89/13 199/90/13 190/138/13 188/137/13
f 214/118/13 217/62/13 238/63/13 237/132/13
f 241/139/13 240/142/13 236/141/13 237/140/13
f 211/121/13 212/120/13 236/133/13 235/127/13
f 239/143/13 243/146/13 234/145/13 235/144/13
f 220/110/13 221/128/13 234/129/13 210/81/13
f 194/123/13 202/122/13 243/147/13 239/130/13
f 232/88/13 231/125/13 240/131/13 241/134/13
f 237/140/13 238/59/13 242/60/13 241/139/13
f 235/144/13 236/141/13 240/142/13 239/143/13
f 210/148/13 234/145/13 243/146/13 244/149/13
f 210/81/13 244/150/13 193/87/13 222/115/13
f 193/87/13 244/150/13 243/147/13 202/122/13
f 59/57/3 120/69/3 73/40/3 12/41/3
f 79/91/7 201/91/7 200/92/7 78/92/7
