# Blender 5.1.0
# www.blender.org
mtllib barriere55_132.mtl
o barriere55.132
v 18.810484 0.444970 -16.780592
v 18.820971 0.635593 -16.842894
v 18.713621 0.681654 -16.205023
v 18.738979 0.722721 -16.355707
v 18.815701 0.444970 -16.738703
v 18.815701 0.411253 -16.738703
v 18.789766 0.444970 -16.584600
v 18.785309 0.681654 -16.630999
v 18.663271 0.681654 -15.905838
v 18.849339 1.613229 -17.011463
v 18.776585 1.613227 -16.579159
v 18.674887 1.613227 -15.974855
v 18.776585 0.444970 -16.579159
v 18.742685 0.444970 -16.377724
v 18.674887 0.444970 -15.974855
v 18.789766 0.411253 -16.584600
v 18.618362 0.263229 -16.802937
v 18.581932 0.263229 -16.586466
v 18.820969 1.613227 -16.842894
v 18.871504 1.450021 -17.143173
v 18.830488 0.444970 -16.899456
v 18.835661 0.596468 -16.930185
v 18.846329 0.596468 -16.993580
v 18.846329 1.373064 -16.993580
v 18.677961 0.722721 -15.993129
v 18.724291 0.681654 -16.268419
v 18.820969 1.333938 -16.842894
v 18.774641 1.287875 -16.567604
v 18.724291 1.287875 -16.268419
v 18.738979 1.246809 -16.355707
v 18.713621 1.287875 -16.205023
v 18.864336 1.557493 -17.100582
v 18.677961 1.246809 -15.993129
v 18.663271 1.287875 -15.905838
v 18.698931 1.246809 -16.117731
v 18.759951 1.246809 -16.480312
v 18.799999 1.246809 -16.718288
v 18.785309 1.287878 -16.630999
v 18.835661 1.373064 -16.930185
v 18.799999 0.722721 -16.718288
v 18.759951 0.722721 -16.480312
v 18.774641 0.681654 -16.567604
v 18.698931 0.722721 -16.117731
v 18.861019 1.333936 -17.080872
v 18.861019 0.635593 -17.080872
v 18.855934 0.480695 -17.050655
v 18.871504 0.584840 -17.143173
v 18.742685 1.613227 -16.377724
v 18.708786 1.613227 -16.176291
v 18.708786 0.444970 -16.176291
v 18.788874 1.333938 -16.652178
v 18.774916 1.333938 -16.569239
v 18.726894 1.333938 -16.283894
v 18.712936 1.333938 -16.200954
v 18.664915 1.333938 -15.915609
v 18.776226 1.553158 -16.577024
v 18.739288 1.553158 -16.357544
v 18.709679 1.553158 -16.181595
v 18.672741 1.553158 -15.962113
v 18.814066 1.553159 -16.801874
v 18.820969 1.553159 -16.842894
v 18.505463 0.444970 -14.968134
v 18.494978 0.635593 -14.905832
v 18.602325 0.681654 -15.543703
v 18.576967 0.722721 -15.393020
v 18.524101 0.444970 -15.006009
v 18.524101 0.411253 -15.006009
v 18.550035 0.444970 -15.160112
v 18.530638 0.681654 -15.117727
v 18.652678 0.681654 -15.842889
v 18.466608 1.613229 -14.737263
v 18.539362 1.613227 -15.169568
v 18.641062 1.613227 -15.773870
v 18.539362 0.444970 -15.169568
v 18.573261 0.444970 -15.371002
v 18.641062 0.444970 -15.773870
v 18.550035 0.411253 -15.160112
v 18.316608 0.263229 -15.009905
v 18.353039 0.263229 -15.226377
v 18.494978 1.613227 -14.905833
v 18.444443 1.450021 -14.605554
v 18.485458 0.444970 -14.849270
v 18.480288 0.596468 -14.818541
v 18.469618 0.596468 -14.755146
v 18.469618 1.373064 -14.755146
v 18.637987 0.722721 -15.755597
v 18.591658 0.681654 -15.480308
v 18.494978 1.333938 -14.905833
v 18.541307 1.287875 -15.181123
v 18.591658 1.287875 -15.480308
v 18.576967 1.246809 -15.393020
v 18.602325 1.287875 -15.543703
v 18.451611 1.557493 -14.648144
v 18.637987 1.246809 -15.755597
v 18.652678 1.287875 -15.842889
v 18.617018 1.246809 -15.630996
v 18.555998 1.246809 -15.268413
v 18.515947 1.246809 -15.030437
v 18.530638 1.287878 -15.117727
v 18.480288 1.373064 -14.818541
v 18.515947 0.722721 -15.030437
v 18.555998 0.722721 -15.268413
v 18.541307 0.681654 -15.181123
v 18.617018 0.722721 -15.630996
v 18.454927 1.333936 -14.667855
v 18.454927 0.635593 -14.667855
v 18.460012 0.480695 -14.698071
v 18.444443 0.584840 -14.605554
v 18.573261 1.613227 -15.371002
v 18.607162 1.613227 -15.572436
v 18.607162 0.444970 -15.572436
v 18.527073 1.333938 -15.096548
v 18.541031 1.333938 -15.179487
v 18.589052 1.333938 -15.464832
v 18.603010 1.333938 -15.547771
v 18.651031 1.333938 -15.833117
v 18.539721 1.553158 -15.171701
v 18.576658 1.553158 -15.391183
v 18.606270 1.553158 -15.567131
v 18.643206 1.553158 -15.786613
v 18.501881 1.553159 -14.946852
v 18.494978 1.553159 -14.905833
v 18.899670 0.444970 -16.765583
v 18.910154 0.635593 -16.827885
v 18.802807 0.681654 -16.190014
v 18.828165 0.722721 -16.340698
v 18.881031 0.444970 -16.727709
v 18.881031 0.411253 -16.727709
v 18.855097 0.444970 -16.573605
v 18.874495 0.681654 -16.615990
v 18.752455 0.681654 -15.890828
v 18.938524 1.613229 -16.996454
v 18.865770 1.613227 -16.564148
v 18.764071 1.613227 -15.959846
v 18.865770 0.444970 -16.564148
v 18.831871 0.444970 -16.362715
v 18.764071 0.444970 -15.959846
v 18.855097 0.411253 -16.573605
v 19.088524 0.263229 -16.723812
v 19.052094 0.263229 -16.507341
v 18.910154 1.613227 -16.827883
v 18.960690 1.450021 -17.128164
v 18.919674 0.444970 -16.884447
v 18.924845 0.596468 -16.915176
v 18.935514 0.596468 -16.978571
v 18.935514 1.373064 -16.978571
v 18.767145 0.722721 -15.978120
v 18.813475 0.681654 -16.253408
v 18.910154 1.333938 -16.827883
v 18.863825 1.287875 -16.552593
v 18.813475 1.287875 -16.253408
v 18.828165 1.246809 -16.340698
v 18.802807 1.287875 -16.190014
v 18.953522 1.557493 -17.085573
v 18.767145 1.246809 -15.978120
v 18.752455 1.287875 -15.890828
v 18.788116 1.246809 -16.102722
v 18.849134 1.246809 -16.465303
v 18.889185 1.246809 -16.703279
v 18.874495 1.287878 -16.615990
v 18.924845 1.373064 -16.915176
v 18.889185 0.722721 -16.703279
v 18.849134 0.722721 -16.465303
v 18.863825 0.681654 -16.552593
v 18.788115 0.722721 -16.102722
v 18.950205 1.333936 -17.065861
v 18.950205 0.635593 -17.065861
v 18.945120 0.480695 -17.035646
v 18.960690 0.584840 -17.128164
v 18.831871 1.613227 -16.362715
v 18.797970 1.613227 -16.161282
v 18.797970 0.444970 -16.161282
v 18.878059 1.333938 -16.637169
v 18.864101 1.333938 -16.554230
v 18.816080 1.333938 -16.268885
v 18.802122 1.333938 -16.185946
v 18.754101 1.333938 -15.900600
v 18.865412 1.553158 -16.562016
v 18.828474 1.553158 -16.342535
v 18.798864 1.553158 -16.166586
v 18.761927 1.553158 -15.947104
v 18.903252 1.553159 -16.786865
v 18.910154 1.553159 -16.827883
v 18.594648 0.444970 -14.953125
v 18.584162 0.635593 -14.890822
v 18.691511 0.681654 -15.528694
v 18.666153 0.722721 -15.378010
v 18.589432 0.444970 -14.995014
v 18.589432 0.411253 -14.995014
v 18.615366 0.444970 -15.149117
v 18.619823 0.681654 -15.102717
v 18.741861 0.681654 -15.827879
v 18.555794 1.613229 -14.722254
v 18.628548 1.613227 -15.154559
v 18.730247 1.613227 -15.758862
v 18.628548 0.444970 -15.154559
v 18.662447 0.444970 -15.355993
v 18.730246 0.444970 -15.758862
v 18.615366 0.411253 -15.149117
v 18.786770 0.263229 -14.930781
v 18.823200 0.263229 -15.147252
v 18.584164 1.613227 -14.890824
v 18.533628 1.450021 -14.590545
v 18.574644 0.444970 -14.834261
v 18.569471 0.596468 -14.803532
v 18.558804 0.596468 -14.740137
v 18.558804 1.373064 -14.740137
v 18.727171 0.722721 -15.740588
v 18.680841 0.681654 -15.465299
v 18.584164 1.333938 -14.890824
v 18.630491 1.287875 -15.166114
v 18.680841 1.287875 -15.465299
v 18.666153 1.246809 -15.378010
v 18.691511 1.287875 -15.528694
v 18.540796 1.557493 -14.633135
v 18.727171 1.246809 -15.740588
v 18.741861 1.287875 -15.827879
v 18.706202 1.246809 -15.615987
v 18.645182 1.246809 -15.253404
v 18.605133 1.246809 -15.015429
v 18.619823 1.287878 -15.102717
v 18.569471 1.373064 -14.803532
v 18.605133 0.722721 -15.015429
v 18.645182 0.722721 -15.253404
v 18.630491 0.681654 -15.166114
v 18.706202 0.722721 -15.615987
v 18.544113 1.333936 -14.652846
v 18.544113 0.635593 -14.652846
v 18.549198 0.480695 -14.683062
v 18.533628 0.584840 -14.590545
v 18.662447 1.613227 -15.355993
v 18.696346 1.613227 -15.557427
v 18.696346 0.444970 -15.557427
v 18.616259 1.333938 -15.081539
v 18.630217 1.333938 -15.164478
v 18.678238 1.333938 -15.449823
v 18.692196 1.333938 -15.532763
v 18.740217 1.333938 -15.818108
v 18.628906 1.553158 -15.156693
v 18.665844 1.553158 -15.376174
v 18.695454 1.553158 -15.552122
v 18.732391 1.553158 -15.771604
v 18.591066 1.553159 -14.931843
v 18.584164 1.553159 -14.890824
vn 0.0871 0.8511 -0.5177
vn -0.5768 0.8111 -0.0971
vn -0.9861 -0.0000 -0.1660
vn -0.0000 1.0000 -0.0000
vn 0.0377 -0.9739 -0.2238
vn 0.1233 -0.6693 -0.7327
vn -0.0000 -1.0000 -0.0000
vn 0.1660 -0.0000 -0.9861
vn 0.1540 0.3729 -0.9150
vn 0.1625 0.2024 -0.9657
vn 0.1659 -0.0000 -0.9861
vn -0.0698 0.9071 0.4150
vn 0.9861 -0.0000 0.1660
vn -0.0699 -0.9071 0.4150
vn 0.0698 -0.9071 -0.4150
vn -0.1660 -0.0000 0.9861
vn -0.0699 0.9071 0.4150
vn 0.0698 0.9071 -0.4150
vn -0.1659 -0.0000 0.9861
vn -0.0871 0.8511 0.5177
vn -0.0377 -0.9739 0.2238
vn -0.1233 -0.6693 0.7327
vn -0.1540 0.3729 0.9150
vn -0.1625 0.2024 0.9657
vn 0.0699 0.9071 -0.4150
vn -0.0698 -0.9071 0.4150
vn 0.0699 -0.9071 -0.4150
vn -0.0671 -0.9146 0.3987
vn 0.0671 -0.9146 -0.3987
vn 0.0671 0.9146 -0.3987
vn -0.0671 0.9146 0.3987
vn 0.1621 0.2154 -0.9630
vn -0.1621 0.2154 0.9630
vn 0.5768 0.8111 0.0971
vt 0.563424 0.076340
vt 0.553130 0.073518
vt 0.930572 0.423953
vt 0.921307 0.379121
vt 0.987792 0.379121
vt 0.977903 0.423953
vt 0.607372 0.029178
vt 0.597289 0.031257
vt 0.582896 0.026846
vt 0.590093 0.017196
vt 0.572813 0.024865
vt 0.576362 0.017196
vt 0.613360 0.017196
vt 0.614695 0.029178
vt 0.558897 0.019004
vt 0.565490 0.024865
vt 0.555407 0.026846
vt 0.548211 0.024277
vt 0.555407 0.062200
vt 0.548211 0.068077
vt 0.639171 0.057790
vt 0.624778 0.057790
vt 0.624778 0.031257
vt 0.639171 0.031257
vt 0.597289 0.057790
vt 0.582896 0.062201
vt 0.649254 0.029178
vt 0.691136 0.029178
vt 0.681053 0.031257
vt 0.666660 0.031257
vt 0.656577 0.029178
vt 0.565490 0.064181
vt 0.572813 0.064181
vt 0.666660 0.057790
vt 0.681053 0.057790
vt 0.691136 0.059869
vt 0.656577 0.059869
vt 0.649254 0.059869
vt 0.614695 0.059869
vt 0.706379 0.076340
vt 0.683164 0.076340
vt 0.613360 0.076340
vt 0.582896 0.076340
vt 0.659896 0.017196
vt 0.683164 0.017196
vt 0.659896 0.076340
vt 0.636628 0.076340
vt 0.636628 0.017196
vt 0.614506 0.062201
vt 0.604926 0.062201
vt 0.607372 0.059869
vt 0.613607 0.073299
vt 0.638959 0.073299
vt 0.657047 0.062201
vt 0.647466 0.062201
vt 0.659283 0.073299
vt 0.684635 0.073299
vt 0.688839 0.081258
vt 0.699816 0.081258
vt 0.706005 0.126709
vt 0.682651 0.126709
vt 0.698407 0.059869
vt 0.699536 0.062201
vt 0.690007 0.062201
vt 0.612500 0.017196
vt 0.594699 0.017196
vt 0.977903 0.434165
vt 0.930572 0.434165
vt 0.704907 0.073299
vt 0.706379 0.017196
vt 0.698407 0.029178
vt 0.653445 0.126709
vt 0.630032 0.126709
vt 0.639832 0.081258
vt 0.650869 0.081258
vt 0.600826 0.126709
vt 0.570905 0.126710
vt 0.590825 0.081258
vt 0.601862 0.081258
vt 0.587634 0.073299
vt 0.806647 0.062201
vt 0.806647 0.026846
vt 0.565447 0.081258
vt 0.565447 0.126710
vt 0.582896 0.073299
vt 0.836413 0.073518
vt 0.826118 0.076340
vt 0.729647 0.076340
vt 0.978547 0.423953
vt 0.931216 0.423953
vt 0.921327 0.379121
vt 0.987812 0.379121
vt 0.782171 0.029178
vt 0.799450 0.017196
vt 0.792254 0.031257
vt 0.813181 0.017196
vt 0.816730 0.024865
vt 0.774848 0.029178
vt 0.776183 0.017196
vt 0.830646 0.019004
vt 0.841332 0.024277
vt 0.834136 0.026846
vt 0.824053 0.024865
vt 0.841332 0.068077
vt 0.834136 0.062200
vt 0.750372 0.057790
vt 0.750372 0.031257
vt 0.764765 0.031257
vt 0.764765 0.057790
vt 0.792254 0.057790
vt 0.740289 0.029178
vt 0.732966 0.029178
vt 0.722883 0.031257
vt 0.708490 0.031257
vt 0.816730 0.064181
vt 0.824053 0.064181
vt 0.722883 0.057790
vt 0.732966 0.059869
vt 0.708490 0.057790
vt 0.740289 0.059869
vt 0.774848 0.059869
vt 0.806647 0.076340
vt 0.776183 0.076340
vt 0.729647 0.017196
vt 0.752915 0.076340
vt 0.752915 0.017196
vt 0.775037 0.062201
vt 0.782171 0.059869
vt 0.784617 0.062201
vt 0.775936 0.073299
vt 0.750584 0.073299
vt 0.732496 0.062201
vt 0.742077 0.062201
vt 0.730260 0.073299
vt 0.777043 0.017196
vt 0.794844 0.017196
vt 0.978547 0.434165
vt 0.931216 0.434165
vt 0.735211 0.126709
vt 0.737787 0.081258
vt 0.748824 0.081258
vt 0.758624 0.126709
vt 0.787830 0.126709
vt 0.786794 0.081258
vt 0.797831 0.081258
vt 0.817751 0.126710
vt 0.801909 0.073299
vt 0.823209 0.081258
vt 0.823209 0.126710
vt 0.806647 0.073299
s 1
usemtl initialShadingGroup.004
f 10/1/1 132/1/1 154/2/1 32/2/1
f 6/3/2 17/4/2 18/5/2 16/6/2
f 8/7/3 40/8/3 2/9/3 1/10/3
f 1/10/3 2/9/3 22/11/3 21/12/3
f 1/10/3 13/13/3 42/14/3 8/7/3
f 46/15/3 23/16/3 45/17/3 47/18/3
f 45/17/3 44/19/3 20/20/3 47/18/3
f 30/21/3 36/22/3 41/23/3 4/24/3
f 40/8/3 37/25/3 27/26/3 2/9/3
f 23/16/3 46/15/3 21/12/3 22/11/3
f 4/24/3 41/23/3 42/14/3 26/27/3
f 9/28/3 25/29/3 43/30/3 3/31/3
f 10/1/3 32/2/3 24/32/3 39/33/3
f 35/34/3 33/35/3 34/36/3 31/37/3
f 29/38/3 28/39/3 36/22/3 30/21/3
f 43/30/3 25/29/3 33/35/3 35/34/3
f 73/40/4 195/40/4 134/41/4 12/41/4
f 46/15/5 168/15/5 143/12/5 21/12/5
f 11/42/4 133/42/4 141/43/4 19/43/4
f 47/18/6 169/18/6 168/15/6 46/15/6
f 50/44/7 172/44/7 137/45/7 15/45/7
f 19/43/4 141/43/4 132/1/4 10/1/4
f 20/20/3 44/19/3 24/32/3 32/2/3
f 49/46/4 171/46/4 170/47/4 48/47/4
f 26/27/3 42/14/3 13/13/3 14/48/3
f 14/48/3 50/44/3 3/31/3 26/27/3
f 9/28/3 3/31/3 50/44/3 15/45/3
f 52/49/3 51/50/3 38/51/3 28/39/3
f 56/52/3 57/53/3 48/47/3 11/42/3
f 54/54/3 53/55/3 29/38/3 31/37/3
f 58/56/3 59/57/3 12/41/3 49/46/3
f 55/58/3 116/59/3 120/60/3 59/61/3
f 13/13/7 135/13/7 136/48/7 14/48/7
f 20/20/8 142/20/8 169/18/8 47/18/8
f 34/36/3 95/62/3 116/63/3 55/64/3
f 48/47/4 170/47/4 133/42/4 11/42/4
f 32/2/9 154/2/9 142/20/9 20/20/9
f 14/48/7 136/48/7 172/44/7 50/44/7
f 7/65/7 13/13/7 1/10/7 5/66/7
f 6/3/3 16/6/3 7/67/3 5/68/3
f 139/4/10 17/4/10 6/3/10 128/3/10
f 5/68/11 127/68/11 128/3/11 6/3/11
f 7/65/7 129/65/7 135/13/7 13/13/7
f 1/10/7 123/10/7 127/66/7 5/66/7
f 3/31/4 125/31/4 148/27/4 26/27/4
f 26/27/12 148/27/12 126/24/12 4/24/12
f 134/41/13 195/40/13 242/69/13 181/57/13
f 156/36/7 217/62/7 95/62/7 34/36/7
f 33/35/14 155/35/14 156/36/14 34/36/14
f 37/25/14 159/25/14 160/51/14 38/51/14
f 31/37/15 153/37/15 157/34/15 35/34/15
f 25/29/16 147/29/16 155/35/16 33/35/16
f 9/28/17 131/28/17 147/29/17 25/29/17
f 4/24/16 126/24/16 152/21/16 30/21/16
f 8/7/12 130/7/12 162/8/12 40/8/12
f 40/8/16 162/8/16 159/25/16 37/25/16
f 43/30/18 165/30/18 125/31/18 3/31/18
f 38/51/7 160/51/7 150/39/7 28/39/7
f 76/70/3 70/71/3 9/28/3 15/45/3
f 36/22/8 158/22/8 163/23/8 41/23/8
f 35/34/8 157/34/8 165/30/8 43/30/8
f 42/14/4 164/14/4 130/7/4 8/7/4
f 28/39/15 150/39/15 158/22/15 36/22/15
f 31/37/3 34/36/3 55/64/3 54/54/3
f 58/72/3 57/73/3 53/74/3 54/75/3
f 28/39/3 29/38/3 53/55/3 52/49/3
f 56/76/3 60/77/3 51/78/3 52/79/3
f 37/25/3 38/51/3 51/50/3 27/26/3
f 11/42/3 19/43/3 60/80/3 56/52/3
f 49/46/3 48/47/3 57/53/3 58/56/3
f 210/81/19 88/81/19 63/82/19 185/82/19
f 54/75/3 55/58/3 59/61/3 58/72/3
f 52/79/3 53/74/3 57/73/3 56/76/3
f 27/83/3 51/78/3 60/77/3 61/84/3
f 27/26/3 61/85/3 10/1/3 39/33/3
f 10/1/3 61/85/3 60/80/3 19/43/3
f 12/41/4 134/41/4 171/46/4 49/46/4
f 41/23/18 163/23/18 164/14/18 42/14/18
f 15/45/7 137/45/7 198/70/7 76/70/7
f 93/86/20 215/86/20 193/87/20 71/87/20
f 110/88/4 232/88/4 195/40/4 73/40/4
f 67/89/2 77/90/2 79/91/2 78/92/2
f 69/93/3 62/94/3 63/82/3 101/95/3
f 62/94/3 82/96/3 83/97/3 63/82/3
f 62/94/3 69/93/3 103/98/3 74/99/3
f 107/100/3 108/101/3 106/102/3 84/103/3
f 106/102/3 108/101/3 81/104/3 105/105/3
f 91/106/3 65/107/3 102/108/3 97/109/3
f 101/95/3 63/82/3 88/81/3 98/110/3
f 84/103/3 83/97/3 82/96/3 107/100/3
f 65/107/3 87/111/3 103/98/3 102/108/3
f 70/71/3 64/112/3 104/113/3 86/114/3
f 71/87/3 100/115/3 85/116/3 93/86/3
f 96/117/3 92/118/3 95/62/3 94/119/3
f 90/120/3 91/106/3 97/109/3 89/121/3
f 104/113/3 96/117/3 94/119/3 86/114/3
f 198/70/13 137/45/13 131/28/13 192/71/13
f 82/96/21 204/96/21 229/100/21 107/100/21
f 80/122/4 202/122/4 194/123/4 72/123/4
f 107/100/22 229/100/22 230/101/22 108/101/22
f 76/70/7 198/70/7 233/124/7 111/124/7
f 71/87/4 193/87/4 202/122/4 80/122/4
f 81/104/3 93/86/3 85/116/3 105/105/3
f 109/125/4 231/125/4 232/88/4 110/88/4
f 87/111/3 75/126/3 74/99/3 103/98/3
f 75/126/3 87/111/3 64/112/3 111/124/3
f 70/71/3 76/70/3 111/124/3 64/112/3
f 113/127/3 89/121/3 99/128/3 112/129/3
f 117/130/3 72/123/3 109/125/3 118/131/3
f 115/132/3 92/118/3 90/120/3 114/133/3
f 119/134/3 110/88/3 73/40/3 120/69/3
f 75/126/7 197/126/7 196/99/7 74/99/7
f 108/101/16 230/101/16 203/104/16 81/104/16
f 72/123/4 194/123/4 231/125/4 109/125/4
f 103/98/12 225/98/12 224/108/12 102/108/12
f 81/104/23 203/104/23 215/86/23 93/86/23
f 111/124/7 233/124/7 197/126/7 75/126/7
f 68/135/7 66/136/7 62/94/7 74/99/7
f 67/89/3 66/137/3 68/138/3 77/90/3
f 200/92/24 189/89/24 67/89/24 78/92/24
f 67/89/16 189/89/16 188/137/16 66/137/16
f 74/99/7 196/99/7 190/135/7 68/135/7
f 66/136/7 188/136/7 184/94/7 62/94/7
f 87/111/4 209/111/4 186/112/4 64/112/4
f 65/107/25 187/107/25 209/111/25 87/111/25
f 97/109/26 219/109/26 211/121/26 89/121/26
f 95/62/27 217/62/27 216/119/27 94/119/27
f 99/128/27 221/128/27 220/110/27 98/110/27
f 96/117/26 218/117/26 214/118/26 92/118/26
f 94/119/8 216/119/8 208/114/8 86/114/8
f 86/114/18 208/114/18 192/71/18 70/71/18
f 91/106/8 213/106/8 187/107/8 65/107/8
f 101/95/25 223/95/25 191/93/25 69/93/25
f 98/110/8 220/110/8 223/95/8 101/95/8
f 64/112/12 186/112/12 226/113/12 104/113/12
f 89/121/7 211/121/7 221/128/7 99/128/7
f 102/108/16 224/108/16 219/109/16 97/109/16
f 104/113/16 226/113/16 218/117/16 96/117/16
f 69/93/4 191/93/4 225/98/4 103/98/4
f 92/118/3 115/132/3 116/63/3 95/62/3
f 119/139/3 115/140/3 114/141/3 118/142/3
f 89/121/3 113/127/3 114/133/3 90/120/3
f 117/143/3 113/144/3 112/145/3 121/146/3
f 98/110/3 88/81/3 112/129/3 99/128/3
f 72/123/3 117/130/3 121/147/3 80/122/3
f 110/88/3 119/134/3 118/131/3 109/125/3
f 115/140/3 119/139/3 120/60/3 116/59/3
f 113/144/3 117/143/3 118/142/3 114/141/3
f 88/148/3 122/149/3 121/146/3 112/145/3
f 88/81/3 100/115/3 71/87/3 122/150/3
f 71/87/3 80/122/3 121/147/3 122/150/3
f 17/4/7 139/4/7 140/5/7 18/5/7
f 149/26/8 124/9/8 2/9/8 27/26/8
f 222/115/28 100/115/28 88/81/28 210/81/28
f 222/115/7 207/116/7 85/116/7 100/115/7
f 207/116/29 227/105/29 105/105/29 85/116/29
f 227/105/11 228/102/11 106/102/11 105/105/11
f 206/103/30 84/103/30 106/102/30 228/102/30
f 206/103/4 205/97/4 83/97/4 84/103/4
f 185/82/31 63/82/31 83/97/31 205/97/31
f 213/106/27 91/106/27 90/120/27 212/120/27
f 199/90/11 77/90/11 68/138/11 190/138/11
f 199/90/32 201/91/32 79/91/32 77/90/32
f 62/94/7 184/94/7 204/96/7 82/96/7
f 92/118/7 214/118/7 212/120/7 90/120/7
f 161/33/29 149/26/29 27/26/29 39/33/29
f 161/33/7 39/33/7 24/32/7 146/32/7
f 146/32/28 24/32/28 44/19/28 166/19/28
f 166/19/16 44/19/16 45/17/16 167/17/16
f 145/16/31 167/17/31 45/17/31 23/16/31
f 145/16/4 23/16/4 22/11/4 144/11/4
f 124/9/30 144/11/30 22/11/30 2/9/30
f 152/21/26 151/38/26 29/38/26 30/21/26
f 138/6/16 129/67/16 7/67/16 16/6/16
f 138/6/33 16/6/33 18/5/33 140/5/33
f 21/12/7 143/12/7 123/10/7 1/10/7
f 29/38/7 151/38/7 153/37/7 31/37/7
f 128/3/34 138/6/34 140/5/34 139/4/34
f 130/7/13 123/10/13 124/9/13 162/8/13
f 123/10/13 143/12/13 144/11/13 124/9/13
f 123/10/13 130/7/13 164/14/13 135/13/13
f 168/15/13 169/18/13 167/17/13 145/16/13
f 167/17/13 169/18/13 142/20/13 166/19/13
f 152/21/13 126/24/13 163/23/13 158/22/13
f 162/8/13 124/9/13 149/26/13 159/25/13
f 145/16/13 144/11/13 143/12/13 168/15/13
f 126/24/13 148/27/13 164/14/13 163/23/13
f 131/28/13 125/31/13 165/30/13 147/29/13
f 132/1/13 161/33/13 146/32/13 154/2/13
f 157/34/13 153/37/13 156/36/13 155/35/13
f 151/38/13 152/21/13 158/22/13 150/39/13
f 165/30/13 157/34/13 155/35/13 147/29/13
f 142/20/13 154/2/13 146/32/13 166/19/13
f 148/27/13 136/48/13 135/13/13 164/14/13
f 136/48/13 148/27/13 125/31/13 172/44/13
f 131/28/13 137/45/13 172/44/13 125/31/13
f 174/49/13 150/39/13 160/51/13 173/50/13
f 178/52/13 133/42/13 170/47/13 179/53/13
f 176/54/13 153/37/13 151/38/13 175/55/13
f 180/56/13 171/46/13 134/41/13 181/57/13
f 181/61/13 242/60/13 238/59/13 177/58/13
f 177/64/13 238/63/13 217/62/13 156/36/13
f 129/65/7 127/66/7 123/10/7 135/13/7
f 128/3/13 127/68/13 129/67/13 138/6/13
f 153/37/13 176/54/13 177/64/13 156/36/13
f 180/72/13 176/75/13 175/74/13 179/73/13
f 150/39/13 174/49/13 175/55/13 151/38/13
f 178/76/13 174/79/13 173/78/13 182/77/13
f 159/25/13 149/26/13 173/50/13 160/51/13
f 133/42/13 178/52/13 182/80/13 141/43/13
f 171/46/13 180/56/13 179/53/13 170/47/13
f 176/75/13 180/72/13 181/61/13 177/58/13
f 174/79/13 178/76/13 179/73/13 175/74/13
f 149/83/13 183/84/13 182/77/13 173/78/13
f 149/26/13 161/33/13 132/1/13 183/85/13
f 132/1/13 141/43/13 182/80/13 183/85/13
f 131/28/4 9/28/4 70/71/4 192/71/4
f 189/89/34 200/92/34 201/91/34 199/90/34
f 191/93/13 223/95/13 185/82/13 184/94/13
f 184/94/13 185/82/13 205/97/13 204/96/13
f 184/94/13 196/99/13 225/98/13 191/93/13
f 229/100/13 206/103/13 228/102/13 230/101/13
f 228/102/13 227/105/13 203/104/13 230/101/13
f 213/106/13 219/109/13 224/108/13 187/107/13
f 223/95/13 220/110/13 210/81/13 185/82/13
f 206/103/13 229/100/13 204/96/13 205/97/13
f 187/107/13 224/108/13 225/98/13 209/111/13
f 192/71/13 208/114/13 226/113/13 186/112/13
f 193/87/13 215/86/13 207/116/13 222/115/13
f 218/117/13 216/119/13 217/62/13 214/118/13
f 212/120/13 211/121/13 219/109/13 213/106/13
f 226/113/13 208/114/13 216/119/13 218/117/13
f 203/104/13 227/105/13 207/116/13 215/86/13
f 209/111/13 225/98/13 196/99/13 197/126/13
f 197/126/13 233/124/13 186/112/13 209/111/13
f 192/71/13 186/112/13 233/124/13 198/70/13
f 235/127/13 234/129/13 221/128/13 211/121/13
f 239/130/13 240/131/13 231/125/13 194/123/13
f 237/132/13 236/133/13 212/120/13 214/118/13
f 241/134/13 242/69/13 195/40/13 232/88/13
f 190/135/7 196/99/7 184/94/7 188/136/7
f 189/89/13 199/90/13 190/138/13 188/137/13
f 214/118/13 217/62/13 238/63/13 237/132/13
f 241/139/13 240/142/13 236/141/13 237/140/13
f 211/121/13 212/120/13 236/133/13 235/127/13
f 239/143/13 243/146/13 234/145/13 235/144/13
f 220/110/13 221/128/13 234/129/13 210/81/13
f 194/123/13 202/122/13 243/147/13 239/130/13
f 232/88/13 231/125/13 240/131/13 241/134/13
f 237/140/13 238/59/13 242/60/13 241/139/13
f 235/144/13 236/141/13 240/142/13 239/143/13
f 210/148/13 234/145/13 243/146/13 244/149/13
f 210/81/13 244/150/13 193/87/13 222/115/13
f 193/87/13 244/150/13 243/147/13 202/122/13
f 59/57/3 120/69/3 73/40/3 12/41/3
f 79/91/7 201/91/7 200/92/7 78/92/7
