# Blender 5.1.0
# www.blender.org
mtllib barriere55_033.mtl
o barriere55.033
v 12.037930 0.406541 -14.544941
v 11.975049 0.597165 -14.551057
v 12.618853 0.643225 -14.488439
v 12.466767 0.684292 -14.503231
v 12.079354 0.406541 -14.553063
v 12.079354 0.372824 -14.553063
v 12.234891 0.406541 -14.537936
v 12.188914 0.643225 -14.530256
v 12.920819 0.643225 -14.459068
v 11.804912 1.574801 -14.567605
v 12.241238 1.574798 -14.525167
v 12.851160 1.574798 -14.465844
v 12.241238 0.406541 -14.525167
v 12.444545 0.406541 -14.505393
v 12.851160 0.406541 -14.465844
v 12.234891 0.372824 -14.537936
v 12.029035 0.224800 -14.351728
v 12.247519 0.224800 -14.330478
v 11.975050 1.574798 -14.551057
v 11.671978 1.411592 -14.580535
v 11.917961 0.406541 -14.556610
v 11.886946 0.558040 -14.559627
v 11.822962 0.558040 -14.565849
v 11.822962 1.334635 -14.565849
v 12.832717 0.684292 -14.467638
v 12.554867 0.643225 -14.494662
v 11.975050 1.295510 -14.551057
v 12.252900 1.249446 -14.524033
v 12.554867 1.249446 -14.494662
v 12.466767 1.208380 -14.503231
v 12.618853 1.249446 -14.488439
v 11.714965 1.519064 -14.576354
v 12.832717 1.208380 -14.467638
v 12.920819 1.249446 -14.459068
v 12.706957 1.208380 -14.479870
v 12.341002 1.208380 -14.515464
v 12.100813 1.208380 -14.538825
v 12.188914 1.249449 -14.530256
v 11.886946 1.334635 -14.559627
v 12.100813 0.684292 -14.538825
v 12.341002 0.684292 -14.515464
v 12.252900 0.643225 -14.524033
v 12.706957 0.684292 -14.479870
v 11.734859 1.295507 -14.574419
v 11.734859 0.597165 -14.574419
v 11.765356 0.442266 -14.571452
v 11.671978 0.546411 -14.580535
v 12.444545 1.574798 -14.505393
v 12.647852 1.574798 -14.485619
v 12.647852 0.406541 -14.485619
v 12.167539 1.295510 -14.532335
v 12.251249 1.295510 -14.524193
v 12.539248 1.295510 -14.496181
v 12.622958 1.295510 -14.488040
v 12.910957 1.295510 -14.460028
v 12.243391 1.514729 -14.524958
v 12.464913 1.514729 -14.503411
v 12.642498 1.514729 -14.486139
v 12.864020 1.514729 -14.464593
v 12.016450 1.514730 -14.547030
v 11.975050 1.514730 -14.551057
v 13.867244 0.406541 -14.367017
v 13.930125 0.597165 -14.360901
v 13.286322 0.643225 -14.423519
v 13.438407 0.684292 -14.408727
v 13.828161 0.406541 -14.382970
v 13.828161 0.372824 -14.382970
v 13.672625 0.406541 -14.398098
v 13.716260 0.643225 -14.381702
v 12.984354 0.643225 -14.452889
v 14.100262 1.574801 -14.344353
v 13.663937 1.574798 -14.386791
v 13.054014 1.574798 -14.446114
v 13.663937 0.406541 -14.386791
v 13.460629 0.406541 -14.406566
v 13.054014 0.406541 -14.446114
v 13.672625 0.372824 -14.398098
v 13.838739 0.224800 -14.175711
v 13.620255 0.224800 -14.196961
v 13.930123 1.574798 -14.360901
v 14.233196 1.411592 -14.331423
v 13.987213 0.406541 -14.355349
v 14.018228 0.558040 -14.352332
v 14.082212 0.558040 -14.346108
v 14.082212 1.334635 -14.346108
v 13.072457 0.684292 -14.444320
v 13.350307 0.643225 -14.417295
v 13.930123 1.295510 -14.360901
v 13.652274 1.249446 -14.387925
v 13.350307 1.249446 -14.417295
v 13.438407 1.208380 -14.408727
v 13.286322 1.249446 -14.423519
v 14.190209 1.519064 -14.335605
v 13.072457 1.208380 -14.444320
v 12.984354 1.249446 -14.452889
v 13.198217 1.208380 -14.432088
v 13.564172 1.208380 -14.396495
v 13.804360 1.208380 -14.373133
v 13.716260 1.249449 -14.381702
v 14.018228 1.334635 -14.352332
v 13.804360 0.684292 -14.373133
v 13.564172 0.684292 -14.396495
v 13.652274 0.643225 -14.387925
v 13.198217 0.684292 -14.432088
v 14.170315 1.295507 -14.337540
v 14.170315 0.597165 -14.337540
v 14.139818 0.442266 -14.340506
v 14.233196 0.546411 -14.331423
v 13.460629 1.574798 -14.406566
v 13.257321 1.574798 -14.426339
v 13.257321 0.406541 -14.426339
v 13.737635 1.295510 -14.379623
v 13.653925 1.295510 -14.387765
v 13.365926 1.295510 -14.415776
v 13.282216 1.295510 -14.423919
v 12.994217 1.295510 -14.451930
v 13.661783 1.514729 -14.387000
v 13.440261 1.514729 -14.408546
v 13.262675 1.514729 -14.425818
v 13.041153 1.514729 -14.447365
v 13.888723 1.514730 -14.364927
v 13.930123 1.514730 -14.360901
v 12.046685 0.406541 -14.634955
v 11.983804 0.597165 -14.641071
v 12.627607 0.643225 -14.578453
v 12.475522 0.684292 -14.593246
v 12.085768 0.406541 -14.619002
v 12.085768 0.372824 -14.619002
v 12.241304 0.406541 -14.603874
v 12.197669 0.643225 -14.620271
v 12.929575 0.643225 -14.549083
v 11.813667 1.574801 -14.657619
v 12.249992 1.574798 -14.615181
v 12.859915 1.574798 -14.555859
v 12.249992 0.406541 -14.615181
v 12.453300 0.406541 -14.595407
v 12.859915 0.406541 -14.555859
v 12.241304 0.372824 -14.603874
v 12.075190 0.224800 -14.826262
v 12.293674 0.224800 -14.805011
v 11.983806 1.574798 -14.641071
v 11.680733 1.411592 -14.670549
v 11.926716 0.406541 -14.646624
v 11.895701 0.558040 -14.649641
v 11.831717 0.558040 -14.655864
v 11.831717 1.334635 -14.655864
v 12.841472 0.684292 -14.557652
v 12.563622 0.643225 -14.584677
v 11.983806 1.295510 -14.641071
v 12.261655 1.249446 -14.614047
v 12.563622 1.249446 -14.584677
v 12.475522 1.208380 -14.593246
v 12.627607 1.249446 -14.578453
v 11.723720 1.519064 -14.666368
v 12.841472 1.208380 -14.557652
v 12.929575 1.249446 -14.549083
v 12.715712 1.208380 -14.569884
v 12.349757 1.208380 -14.605478
v 12.109569 1.208380 -14.628839
v 12.197669 1.249449 -14.620271
v 11.895701 1.334635 -14.649641
v 12.109569 0.684292 -14.628839
v 12.349757 0.684292 -14.605478
v 12.261655 0.643225 -14.614047
v 12.715712 0.684292 -14.569884
v 11.743614 1.295507 -14.664433
v 11.743614 0.597165 -14.664433
v 11.774111 0.442266 -14.661467
v 11.680733 0.546411 -14.670549
v 12.453300 1.574798 -14.595407
v 12.656608 1.574798 -14.575633
v 12.656608 0.406541 -14.575633
v 12.176294 1.295510 -14.622350
v 12.260004 1.295510 -14.614207
v 12.548003 1.295510 -14.586196
v 12.631713 1.295510 -14.578054
v 12.919712 1.295510 -14.550042
v 12.252146 1.514729 -14.614972
v 12.473668 1.514729 -14.593426
v 12.651254 1.514729 -14.576154
v 12.872776 1.514729 -14.554607
v 12.025206 1.514730 -14.637045
v 11.983806 1.514730 -14.641071
v 13.875998 0.406541 -14.457031
v 13.938880 0.597165 -14.450915
v 13.295076 0.643225 -14.513534
v 13.447162 0.684292 -14.498741
v 13.834575 0.406541 -14.448909
v 13.834575 0.372824 -14.448909
v 13.679038 0.406541 -14.464036
v 13.725015 0.643225 -14.471716
v 12.993110 0.643225 -14.542904
v 14.109017 1.574801 -14.434367
v 13.672691 1.574798 -14.476806
v 13.062769 1.574798 -14.536128
v 13.672691 0.406541 -14.476806
v 13.469384 0.406541 -14.496579
v 13.062769 0.406541 -14.536128
v 13.679038 0.372824 -14.464036
v 13.884894 0.224800 -14.650244
v 13.666410 0.224800 -14.671494
v 13.938879 1.574798 -14.450915
v 14.241951 1.411592 -14.421437
v 13.995968 0.406541 -14.445362
v 14.026983 0.558040 -14.442346
v 14.090967 0.558040 -14.436123
v 14.090967 1.334635 -14.436123
v 13.081212 0.684292 -14.534334
v 13.359062 0.643225 -14.507310
v 13.938879 1.295510 -14.450915
v 13.661029 1.249446 -14.477940
v 13.359062 1.249446 -14.507310
v 13.447162 1.208380 -14.498741
v 13.295076 1.249446 -14.513534
v 14.198964 1.519064 -14.425619
v 13.081212 1.208380 -14.534334
v 12.993110 1.249446 -14.542904
v 13.206972 1.208380 -14.522102
v 13.572927 1.208380 -14.486508
v 13.813116 1.208380 -14.463147
v 13.725015 1.249449 -14.471716
v 14.026983 1.334635 -14.442346
v 13.813116 0.684292 -14.463147
v 13.572927 0.684292 -14.486508
v 13.661029 0.643225 -14.477940
v 13.206972 0.684292 -14.522102
v 14.179070 1.295507 -14.427554
v 14.179070 0.597165 -14.427553
v 14.148573 0.442266 -14.430520
v 14.241951 0.546411 -14.421437
v 13.469384 1.574798 -14.496580
v 13.266077 1.574798 -14.516354
v 13.266077 0.406541 -14.516354
v 13.746390 1.295510 -14.469637
v 13.662680 1.295510 -14.477779
v 13.374681 1.295510 -14.505791
v 13.290971 1.295510 -14.513933
v 13.002972 1.295510 -14.541945
v 13.670538 1.514729 -14.477015
v 13.449016 1.514729 -14.498561
v 13.271431 1.514729 -14.515833
v 13.049909 1.514729 -14.537379
v 13.897479 1.514730 -14.454942
v 13.938879 1.514730 -14.450915
vn -0.5225 0.8511 -0.0508
vn -0.0566 0.8111 0.5822
vn -0.0968 -0.0000 0.9953
vn -0.0000 1.0000 -0.0000
vn -0.2259 -0.9739 -0.0220
vn -0.7395 -0.6693 -0.0719
vn -0.0000 -1.0000 -0.0000
vn -0.9953 -0.0000 -0.0968
vn -0.9235 0.3729 -0.0898
vn -0.9747 0.2024 -0.0948
vn 0.4189 0.9071 0.0407
vn 0.0968 -0.0000 -0.9953
vn 0.4189 -0.9071 0.0407
vn -0.4189 -0.9071 -0.0407
vn 0.9953 -0.0000 0.0968
vn -0.4189 0.9071 -0.0407
vn 0.5225 0.8511 0.0508
vn 0.2259 -0.9739 0.0220
vn 0.7395 -0.6693 0.0719
vn 0.9235 0.3729 0.0898
vn 0.9747 0.2024 0.0948
vn 0.4024 -0.9146 0.0391
vn -0.4024 -0.9146 -0.0391
vn -0.4024 0.9146 -0.0391
vn 0.4024 0.9146 0.0391
vn -0.9719 0.2154 -0.0945
vn 0.9719 0.2154 0.0945
vn 0.0566 0.8111 -0.5822
vt 0.563424 0.076340
vt 0.553130 0.073518
vt 0.930572 0.423953
vt 0.921307 0.379121
vt 0.987792 0.379121
vt 0.977903 0.423953
vt 0.607372 0.029178
vt 0.597289 0.031257
vt 0.582896 0.026846
vt 0.590093 0.017196
vt 0.572813 0.024865
vt 0.576362 0.017196
vt 0.613360 0.017196
vt 0.614695 0.029178
vt 0.558897 0.019004
vt 0.565490 0.024865
vt 0.555407 0.026846
vt 0.548211 0.024277
vt 0.555407 0.062200
vt 0.548211 0.068077
vt 0.639171 0.057790
vt 0.624778 0.057790
vt 0.624778 0.031257
vt 0.639171 0.031257
vt 0.597289 0.057790
vt 0.582896 0.062201
vt 0.649254 0.029178
vt 0.691136 0.029178
vt 0.681053 0.031257
vt 0.666660 0.031257
vt 0.656577 0.029178
vt 0.565490 0.064181
vt 0.572813 0.064181
vt 0.666660 0.057790
vt 0.681053 0.057790
vt 0.691136 0.059869
vt 0.656577 0.059869
vt 0.649254 0.059869
vt 0.614695 0.059869
vt 0.706379 0.076340
vt 0.683164 0.076340
vt 0.613360 0.076340
vt 0.582896 0.076340
vt 0.659896 0.017196
vt 0.683164 0.017196
vt 0.659896 0.076340
vt 0.636628 0.076340
vt 0.636628 0.017196
vt 0.614506 0.062201
vt 0.604926 0.062201
vt 0.607372 0.059869
vt 0.613607 0.073299
vt 0.638959 0.073299
vt 0.657047 0.062201
vt 0.647466 0.062201
vt 0.659283 0.073299
vt 0.684635 0.073299
vt 0.688839 0.081258
vt 0.699816 0.081258
vt 0.706005 0.126709
vt 0.682651 0.126709
vt 0.698407 0.059869
vt 0.699536 0.062201
vt 0.690007 0.062201
vt 0.612500 0.017196
vt 0.594699 0.017196
vt 0.977903 0.434165
vt 0.930572 0.434165
vt 0.704907 0.073299
vt 0.706379 0.017196
vt 0.698407 0.029178
vt 0.653445 0.126709
vt 0.630032 0.126709
vt 0.639832 0.081258
vt 0.650869 0.081258
vt 0.600826 0.126709
vt 0.570905 0.126710
vt 0.590825 0.081258
vt 0.601862 0.081258
vt 0.587634 0.073299
vt 0.806647 0.062201
vt 0.806647 0.026846
vt 0.565447 0.081258
vt 0.565447 0.126710
vt 0.582896 0.073299
vt 0.836413 0.073518
vt 0.826118 0.076340
vt 0.729647 0.076340
vt 0.978547 0.423953
vt 0.931216 0.423953
vt 0.921327 0.379121
vt 0.987812 0.379121
vt 0.782171 0.029178
vt 0.799450 0.017196
vt 0.792254 0.031257
vt 0.813181 0.017196
vt 0.816730 0.024865
vt 0.774848 0.029178
vt 0.776183 0.017196
vt 0.830646 0.019004
vt 0.841332 0.024277
vt 0.834136 0.026846
vt 0.824053 0.024865
vt 0.841332 0.068077
vt 0.834136 0.062200
vt 0.750372 0.057790
vt 0.750372 0.031257
vt 0.764765 0.031257
vt 0.764765 0.057790
vt 0.792254 0.057790
vt 0.740289 0.029178
vt 0.732966 0.029178
vt 0.722883 0.031257
vt 0.708490 0.031257
vt 0.816730 0.064181
vt 0.824053 0.064181
vt 0.722883 0.057790
vt 0.732966 0.059869
vt 0.708490 0.057790
vt 0.740289 0.059869
vt 0.774848 0.059869
vt 0.806647 0.076340
vt 0.776183 0.076340
vt 0.729647 0.017196
vt 0.752915 0.076340
vt 0.752915 0.017196
vt 0.775037 0.062201
vt 0.782171 0.059869
vt 0.784617 0.062201
vt 0.775936 0.073299
vt 0.750584 0.073299
vt 0.732496 0.062201
vt 0.742077 0.062201
vt 0.730260 0.073299
vt 0.777043 0.017196
vt 0.794844 0.017196
vt 0.978547 0.434165
vt 0.931216 0.434165
vt 0.735211 0.126709
vt 0.737787 0.081258
vt 0.748824 0.081258
vt 0.758624 0.126709
vt 0.787830 0.126709
vt 0.786794 0.081258
vt 0.797831 0.081258
vt 0.817751 0.126710
vt 0.801909 0.073299
vt 0.823209 0.081258
vt 0.823209 0.126710
vt 0.806647 0.073299
s 1
usemtl initialShadingGroup.004
f 10/1/1 132/1/1 154/2/1 32/2/1
f 6/3/2 17/4/2 18/5/2 16/6/2
f 8/7/3 40/8/3 2/9/3 1/10/3
f 1/10/3 2/9/3 22/11/3 21/12/3
f 1/10/3 13/13/3 42/14/3 8/7/3
f 46/15/3 23/16/3 45/17/3 47/18/3
f 45/17/3 44/19/3 20/20/3 47/18/3
f 30/21/3 36/22/3 41/23/3 4/24/3
f 40/8/3 37/25/3 27/26/3 2/9/3
f 23/16/3 46/15/3 21/12/3 22/11/3
f 4/24/3 41/23/3 42/14/3 26/27/3
f 9/28/3 25/29/3 43/30/3 3/31/3
f 10/1/3 32/2/3 24/32/3 39/33/3
f 35/34/3 33/35/3 34/36/3 31/37/3
f 29/38/3 28/39/3 36/22/3 30/21/3
f 43/30/3 25/29/3 33/35/3 35/34/3
f 73/40/4 195/40/4 134/41/4 12/41/4
f 46/15/5 168/15/5 143/12/5 21/12/5
f 11/42/4 133/42/4 141/43/4 19/43/4
f 47/18/6 169/18/6 168/15/6 46/15/6
f 50/44/7 172/44/7 137/45/7 15/45/7
f 19/43/4 141/43/4 132/1/4 10/1/4
f 20/20/3 44/19/3 24/32/3 32/2/3
f 49/46/4 171/46/4 170/47/4 48/47/4
f 26/27/3 42/14/3 13/13/3 14/48/3
f 14/48/3 50/44/3 3/31/3 26/27/3
f 9/28/3 3/31/3 50/44/3 15/45/3
f 52/49/3 51/50/3 38/51/3 28/39/3
f 56/52/3 57/53/3 48/47/3 11/42/3
f 54/54/3 53/55/3 29/38/3 31/37/3
f 58/56/3 59/57/3 12/41/3 49/46/3
f 55/58/3 116/59/3 120/60/3 59/61/3
f 13/13/7 135/13/7 136/48/7 14/48/7
f 20/20/8 142/20/8 169/18/8 47/18/8
f 34/36/3 95/62/3 116/63/3 55/64/3
f 48/47/4 170/47/4 133/42/4 11/42/4
f 32/2/9 154/2/9 142/20/9 20/20/9
f 14/48/7 136/48/7 172/44/7 50/44/7
f 7/65/7 13/13/7 1/10/7 5/66/7
f 6/3/3 16/6/3 7/67/3 5/68/3
f 139/4/10 17/4/10 6/3/10 128/3/10
f 5/68/8 127/68/8 128/3/8 6/3/8
f 7/65/7 129/65/7 135/13/7 13/13/7
f 1/10/7 123/10/7 127/66/7 5/66/7
f 3/31/4 125/31/4 148/27/4 26/27/4
f 26/27/11 148/27/11 126/24/11 4/24/11
f 134/41/12 195/40/12 242/69/12 181/57/12
f 156/36/7 217/62/7 95/62/7 34/36/7
f 33/35/13 155/35/13 156/36/13 34/36/13
f 37/25/13 159/25/13 160/51/13 38/51/13
f 31/37/14 153/37/14 157/34/14 35/34/14
f 25/29/15 147/29/15 155/35/15 33/35/15
f 9/28/11 131/28/11 147/29/11 25/29/11
f 4/24/15 126/24/15 152/21/15 30/21/15
f 8/7/11 130/7/11 162/8/11 40/8/11
f 40/8/15 162/8/15 159/25/15 37/25/15
f 43/30/16 165/30/16 125/31/16 3/31/16
f 38/51/7 160/51/7 150/39/7 28/39/7
f 76/70/3 70/71/3 9/28/3 15/45/3
f 36/22/8 158/22/8 163/23/8 41/23/8
f 35/34/8 157/34/8 165/30/8 43/30/8
f 42/14/4 164/14/4 130/7/4 8/7/4
f 28/39/14 150/39/14 158/22/14 36/22/14
f 31/37/3 34/36/3 55/64/3 54/54/3
f 58/72/3 57/73/3 53/74/3 54/75/3
f 28/39/3 29/38/3 53/55/3 52/49/3
f 56/76/3 60/77/3 51/78/3 52/79/3
f 37/25/3 38/51/3 51/50/3 27/26/3
f 11/42/3 19/43/3 60/80/3 56/52/3
f 49/46/3 48/47/3 57/53/3 58/56/3
f 210/81/15 88/81/15 63/82/15 185/82/15
f 54/75/3 55/58/3 59/61/3 58/72/3
f 52/79/3 53/74/3 57/73/3 56/76/3
f 27/83/3 51/78/3 60/77/3 61/84/3
f 27/26/3 61/85/3 10/1/3 39/33/3
f 10/1/3 61/85/3 60/80/3 19/43/3
f 12/41/4 134/41/4 171/46/4 49/46/4
f 41/23/16 163/23/16 164/14/16 42/14/16
f 15/45/7 137/45/7 198/70/7 76/70/7
f 93/86/17 215/86/17 193/87/17 71/87/17
f 110/88/4 232/88/4 195/40/4 73/40/4
f 67/89/2 77/90/2 79/91/2 78/92/2
f 69/93/3 62/94/3 63/82/3 101/95/3
f 62/94/3 82/96/3 83/97/3 63/82/3
f 62/94/3 69/93/3 103/98/3 74/99/3
f 107/100/3 108/101/3 106/102/3 84/103/3
f 106/102/3 108/101/3 81/104/3 105/105/3
f 91/106/3 65/107/3 102/108/3 97/109/3
f 101/95/3 63/82/3 88/81/3 98/110/3
f 84/103/3 83/97/3 82/96/3 107/100/3
f 65/107/3 87/111/3 103/98/3 102/108/3
f 70/71/3 64/112/3 104/113/3 86/114/3
f 71/87/3 100/115/3 85/116/3 93/86/3
f 96/117/3 92/118/3 95/62/3 94/119/3
f 90/120/3 91/106/3 97/109/3 89/121/3
f 104/113/3 96/117/3 94/119/3 86/114/3
f 198/70/12 137/45/12 131/28/12 192/71/12
f 82/96/18 204/96/18 229/100/18 107/100/18
f 80/122/4 202/122/4 194/123/4 72/123/4
f 107/100/19 229/100/19 230/101/19 108/101/19
f 76/70/7 198/70/7 233/124/7 111/124/7
f 71/87/4 193/87/4 202/122/4 80/122/4
f 81/104/3 93/86/3 85/116/3 105/105/3
f 109/125/4 231/125/4 232/88/4 110/88/4
f 87/111/3 75/126/3 74/99/3 103/98/3
f 75/126/3 87/111/3 64/112/3 111/124/3
f 70/71/3 76/70/3 111/124/3 64/112/3
f 113/127/3 89/121/3 99/128/3 112/129/3
f 117/130/3 72/123/3 109/125/3 118/131/3
f 115/132/3 92/118/3 90/120/3 114/133/3
f 119/134/3 110/88/3 73/40/3 120/69/3
f 75/126/7 197/126/7 196/99/7 74/99/7
f 108/101/15 230/101/15 203/104/15 81/104/15
f 72/123/4 194/123/4 231/125/4 109/125/4
f 103/98/11 225/98/11 224/108/11 102/108/11
f 81/104/20 203/104/20 215/86/20 93/86/20
f 111/124/7 233/124/7 197/126/7 75/126/7
f 68/135/7 66/136/7 62/94/7 74/99/7
f 67/89/3 66/137/3 68/138/3 77/90/3
f 200/92/21 189/89/21 67/89/21 78/92/21
f 67/89/15 189/89/15 188/137/15 66/137/15
f 74/99/7 196/99/7 190/135/7 68/135/7
f 66/136/7 188/136/7 184/94/7 62/94/7
f 87/111/4 209/111/4 186/112/4 64/112/4
f 65/107/16 187/107/16 209/111/16 87/111/16
f 97/109/13 219/109/13 211/121/13 89/121/13
f 95/62/14 217/62/14 216/119/14 94/119/14
f 99/128/14 221/128/14 220/110/14 98/110/14
f 96/117/13 218/117/13 214/118/13 92/118/13
f 94/119/8 216/119/8 208/114/8 86/114/8
f 86/114/16 208/114/16 192/71/16 70/71/16
f 91/106/8 213/106/8 187/107/8 65/107/8
f 101/95/16 223/95/16 191/93/16 69/93/16
f 98/110/8 220/110/8 223/95/8 101/95/8
f 64/112/11 186/112/11 226/113/11 104/113/11
f 89/121/7 211/121/7 221/128/7 99/128/7
f 102/108/15 224/108/15 219/109/15 97/109/15
f 104/113/15 226/113/15 218/117/15 96/117/15
f 69/93/4 191/93/4 225/98/4 103/98/4
f 92/118/3 115/132/3 116/63/3 95/62/3
f 119/139/3 115/140/3 114/141/3 118/142/3
f 89/121/3 113/127/3 114/133/3 90/120/3
f 117/143/3 113/144/3 112/145/3 121/146/3
f 98/110/3 88/81/3 112/129/3 99/128/3
f 72/123/3 117/130/3 121/147/3 80/122/3
f 110/88/3 119/134/3 118/131/3 109/125/3
f 115/140/3 119/139/3 120/60/3 116/59/3
f 113/144/3 117/143/3 118/142/3 114/141/3
f 88/148/3 122/149/3 121/146/3 112/145/3
f 88/81/3 100/115/3 71/87/3 122/150/3
f 71/87/3 80/122/3 121/147/3 122/150/3
f 17/4/7 139/4/7 140/5/7 18/5/7
f 149/26/8 124/9/8 2/9/8 27/26/8
f 222/115/22 100/115/22 88/81/22 210/81/22
f 222/115/7 207/116/7 85/116/7 100/115/7
f 207/116/23 227/105/23 105/105/23 85/116/23
f 227/105/8 228/102/8 106/102/8 105/105/8
f 206/103/24 84/103/24 106/102/24 228/102/24
f 206/103/4 205/97/4 83/97/4 84/103/4
f 185/82/25 63/82/25 83/97/25 205/97/25
f 213/106/14 91/106/14 90/120/14 212/120/14
f 199/90/8 77/90/8 68/138/8 190/138/8
f 199/90/26 201/91/26 79/91/26 77/90/26
f 62/94/7 184/94/7 204/96/7 82/96/7
f 92/118/7 214/118/7 212/120/7 90/120/7
f 161/33/23 149/26/23 27/26/23 39/33/23
f 161/33/7 39/33/7 24/32/7 146/32/7
f 146/32/22 24/32/22 44/19/22 166/19/22
f 166/19/15 44/19/15 45/17/15 167/17/15
f 145/16/25 167/17/25 45/17/25 23/16/25
f 145/16/4 23/16/4 22/11/4 144/11/4
f 124/9/24 144/11/24 22/11/24 2/9/24
f 152/21/13 151/38/13 29/38/13 30/21/13
f 138/6/15 129/67/15 7/67/15 16/6/15
f 138/6/27 16/6/27 18/5/27 140/5/27
f 21/12/7 143/12/7 123/10/7 1/10/7
f 29/38/7 151/38/7 153/37/7 31/37/7
f 128/3/28 138/6/28 140/5/28 139/4/28
f 130/7/12 123/10/12 124/9/12 162/8/12
f 123/10/12 143/12/12 144/11/12 124/9/12
f 123/10/12 130/7/12 164/14/12 135/13/12
f 168/15/12 169/18/12 167/17/12 145/16/12
f 167/17/12 169/18/12 142/20/12 166/19/12
f 152/21/12 126/24/12 163/23/12 158/22/12
f 162/8/12 124/9/12 149/26/12 159/25/12
f 145/16/12 144/11/12 143/12/12 168/15/12
f 126/24/12 148/27/12 164/14/12 163/23/12
f 131/28/12 125/31/12 165/30/12 147/29/12
f 132/1/12 161/33/12 146/32/12 154/2/12
f 157/34/12 153/37/12 156/36/12 155/35/12
f 151/38/12 152/21/12 158/22/12 150/39/12
f 165/30/12 157/34/12 155/35/12 147/29/12
f 142/20/12 154/2/12 146/32/12 166/19/12
f 148/27/12 136/48/12 135/13/12 164/14/12
f 136/48/12 148/27/12 125/31/12 172/44/12
f 131/28/12 137/45/12 172/44/12 125/31/12
f 174/49/12 150/39/12 160/51/12 173/50/12
f 178/52/12 133/42/12 170/47/12 179/53/12
f 176/54/12 153/37/12 151/38/12 175/55/12
f 180/56/12 171/46/12 134/41/12 181/57/12
f 181/61/12 242/60/12 238/59/12 177/58/12
f 177/64/12 238/63/12 217/62/12 156/36/12
f 129/65/7 127/66/7 123/10/7 135/13/7
f 128/3/12 127/68/12 129/67/12 138/6/12
f 153/37/12 176/54/12 177/64/12 156/36/12
f 180/72/12 176/75/12 175/74/12 179/73/12
f 150/39/12 174/49/12 175/55/12 151/38/12
f 178/76/12 174/79/12 173/78/12 182/77/12
f 159/25/12 149/26/12 173/50/12 160/51/12
f 133/42/12 178/52/12 182/80/12 141/43/12
f 171/46/12 180/56/12 179/53/12 170/47/12
f 176/75/12 180/72/12 181/61/12 177/58/12
f 174/79/12 178/76/12 179/73/12 175/74/12
f 149/83/12 183/84/12 182/77/12 173/78/12
f 149/26/12 161/33/12 132/1/12 183/85/12
f 132/1/12 141/43/12 182/80/12 183/85/12
f 131/28/4 9/28/4 70/71/4 192/71/4
f 189/89/28 200/92/28 201/91/28 199/90/28
f 191/93/12 223/95/12 185/82/12 184/94/12
f 184/94/12 185/82/12 205/97/12 204/96/12
f 184/94/12 196/99/12 225/98/12 191/93/12
f 229/100/12 206/103/12 228/102/12 230/101/12
f 228/102/12 227/105/12 203/104/12 230/101/12
f 213/106/12 219/109/12 224/108/12 187/107/12
f 223/95/12 220/110/12 210/81/12 185/82/12
f 206/103/12 229/100/12 204/96/12 205/97/12
f 187/107/12 224/108/12 225/98/12 209/111/12
f 192/71/12 208/114/12 226/113/12 186/112/12
f 193/87/12 215/86/12 207/116/12 222/115/12
f 218/117/12 216/119/12 217/62/12 214/118/12
f 212/120/12 211/121/12 219/109/12 213/106/12
f 226/113/12 208/114/12 216/119/12 218/117/12
f 203/104/12 227/105/12 207/116/12 215/86/12
f 209/111/12 225/98/12 196/99/12 197/126/12
f 197/126/12 233/124/12 186/112/12 209/111/12
f 192/71/12 186/112/12 233/124/12 198/70/12
f 235/127/12 234/129/12 221/128/12 211/121/12
f 239/130/12 240/131/12 231/125/12 194/123/12
f 237/132/12 236/133/12 212/120/12 214/118/12
f 241/134/12 242/69/12 195/40/12 232/88/12
f 190/135/7 196/99/7 184/94/7 188/136/7
f 189/89/12 199/90/12 190/138/12 188/137/12
f 214/118/12 217/62/12 238/63/12 237/132/12
f 241/139/12 240/142/12 236/141/12 237/140/12
f 211/121/12 212/120/12 236/133/12 235/127/12
f 239/143/12 243/146/12 234/145/12 235/144/12
f 220/110/12 221/128/12 234/129/12 210/81/12
f 194/123/12 202/122/12 243/147/12 239/130/12
f 232/88/12 231/125/12 240/131/12 241/134/12
f 237/140/12 238/59/12 242/60/12 241/139/12
f 235/144/12 236/141/12 240/142/12 239/143/12
f 210/148/12 234/145/12 243/146/12 244/149/12
f 210/81/12 244/150/12 193/87/12 222/115/12
f 193/87/12 244/150/12 243/147/12 202/122/12
f 59/57/3 120/69/3 73/40/3 12/41/3
f 79/91/7 201/91/7 200/92/7 78/92/7
