# Blender 5.1.0
# www.blender.org
mtllib barriere55_119.mtl
o barriere55.119
v -48.292622 0.445689 -6.426632
v -48.354202 0.636312 -6.440756
v -47.723732 0.682373 -6.296154
v -47.872665 0.723440 -6.330313
v -48.250500 0.445689 -6.429380
v -48.250500 0.411972 -6.429380
v -48.098183 0.445689 -6.394445
v -48.144764 0.682373 -6.392721
v -47.428017 0.682373 -6.228329
v -48.520817 1.613948 -6.478970
v -48.093525 1.613945 -6.380968
v -47.496235 1.613945 -6.243976
v -48.093525 0.445689 -6.380968
v -47.894428 0.445689 -6.335304
v -47.496235 0.445689 -6.243976
v -48.098183 0.411972 -6.394445
v -48.326206 0.263948 -6.236152
v -48.112244 0.263948 -6.187079
v -48.354202 1.613945 -6.440756
v -48.650997 1.450740 -6.508828
v -48.410107 0.445689 -6.453578
v -48.440479 0.597188 -6.460545
v -48.503139 0.597188 -6.474916
v -48.503139 1.373783 -6.474916
v -47.514294 0.723440 -6.248118
v -47.786392 0.682373 -6.310525
v -48.354202 1.334658 -6.440756
v -48.082104 1.288594 -6.378349
v -47.786392 1.288594 -6.310525
v -47.872665 1.247527 -6.330313
v -47.723732 1.288594 -6.296154
v -48.608902 1.558212 -6.499173
v -47.514294 1.247527 -6.248118
v -47.428017 1.288594 -6.228329
v -47.637451 1.247527 -6.276364
v -47.995827 1.247527 -6.358561
v -48.231041 1.247527 -6.412508
v -48.144764 1.288597 -6.392721
v -48.440479 1.373783 -6.460545
v -48.231041 0.723440 -6.412508
v -47.995827 0.723440 -6.358561
v -48.082104 0.682373 -6.378349
v -47.637451 0.723440 -6.276364
v -48.589417 1.334655 -6.494705
v -48.589417 0.636312 -6.494705
v -48.559555 0.481414 -6.487855
v -48.650997 0.585559 -6.508828
v -47.894428 1.613945 -6.335304
v -47.695332 1.613945 -6.289640
v -47.695332 0.445689 -6.289640
v -48.165699 1.334658 -6.397521
v -48.083721 1.334658 -6.378720
v -47.801689 1.334658 -6.314033
v -47.719711 1.334658 -6.295231
v -47.437675 1.334658 -6.230545
v -48.091419 1.553877 -6.380485
v -47.874481 1.553877 -6.330729
v -47.700577 1.553877 -6.290843
v -47.483639 1.553877 -6.241087
v -48.313660 1.553877 -6.431457
v -48.354202 1.553877 -6.440756
v -46.501194 0.445689 -6.015756
v -46.439613 0.636312 -6.001632
v -47.070084 0.682373 -6.146235
v -46.921150 0.723440 -6.112075
v -46.537907 0.445689 -6.036585
v -46.537907 0.411972 -6.036585
v -46.690224 0.445689 -6.071520
v -46.649052 0.682373 -6.049668
v -47.365799 0.682373 -6.214059
v -46.272999 1.613948 -5.963418
v -46.700291 1.613945 -6.061420
v -47.297581 1.613945 -6.198413
v -46.700291 0.445689 -6.061420
v -46.899387 0.445689 -6.107084
v -47.297581 0.445689 -6.198413
v -46.690224 0.411972 -6.071520
v -46.553978 0.263948 -5.829680
v -46.767937 0.263948 -5.878753
v -46.439613 1.613945 -6.001633
v -46.142818 1.450740 -5.933560
v -46.383709 0.445689 -5.988810
v -46.353336 0.597188 -5.981843
v -46.290676 0.597188 -5.967472
v -46.290676 1.373783 -5.967472
v -47.279518 0.723440 -6.194271
v -47.007423 0.682373 -6.131864
v -46.439613 1.334658 -6.001633
v -46.711712 1.288594 -6.064040
v -47.007423 1.288594 -6.131864
v -46.921150 1.247527 -6.112075
v -47.070084 1.288594 -6.146235
v -46.184914 1.558212 -5.943215
v -47.279518 1.247527 -6.194271
v -47.365799 1.288594 -6.214059
v -47.156364 1.247527 -6.166024
v -46.797989 1.247527 -6.083828
v -46.562775 1.247527 -6.029880
v -46.649052 1.288597 -6.049668
v -46.353336 1.373783 -5.981843
v -46.562775 0.723440 -6.029880
v -46.797989 0.723440 -6.083828
v -46.711712 0.682373 -6.064040
v -47.156364 0.723440 -6.166024
v -46.204399 1.334655 -5.947684
v -46.204399 0.636312 -5.947684
v -46.234261 0.481414 -5.954534
v -46.142818 0.585559 -5.933560
v -46.899387 1.613945 -6.107084
v -47.098484 1.613945 -6.152749
v -47.098484 0.445689 -6.152749
v -46.628117 1.334658 -6.044867
v -46.710094 1.334658 -6.063669
v -46.992126 1.334658 -6.128355
v -47.074104 1.334658 -6.147157
v -47.356140 1.334658 -6.211844
v -46.702396 1.553877 -6.061903
v -46.919334 1.553877 -6.111659
v -47.093239 1.553877 -6.151546
v -47.310177 1.553877 -6.201302
v -46.480156 1.553877 -6.010931
v -46.439613 1.553877 -6.001633
v -48.272404 0.445688 -6.514783
v -48.333984 0.636312 -6.528906
v -47.703514 0.682373 -6.384304
v -47.852448 0.723440 -6.418463
v -48.235691 0.445689 -6.493953
v -48.235691 0.411972 -6.493953
v -48.083374 0.445689 -6.459019
v -48.124546 0.682373 -6.480871
v -47.407799 0.682373 -6.316480
v -48.500599 1.613948 -6.567121
v -48.073307 1.613945 -6.469119
v -47.476017 1.613945 -6.332126
v -48.073307 0.445689 -6.469119
v -47.874210 0.445689 -6.423454
v -47.476017 0.445689 -6.332126
v -48.083374 0.411972 -6.459019
v -48.219620 0.263947 -6.700859
v -48.005661 0.263947 -6.651786
v -48.333984 1.613945 -6.528906
v -48.630779 1.450740 -6.596978
v -48.389889 0.445688 -6.541729
v -48.420261 0.597188 -6.548695
v -48.482922 0.597188 -6.563066
v -48.482922 1.373783 -6.563066
v -47.494080 0.723440 -6.336268
v -47.766174 0.682373 -6.398675
v -48.333984 1.334658 -6.528906
v -48.061886 1.288594 -6.466499
v -47.766174 1.288594 -6.398675
v -47.852448 1.247527 -6.418463
v -47.703514 1.288594 -6.384304
v -48.588684 1.558212 -6.587323
v -47.494080 1.247527 -6.336268
v -47.407799 1.288594 -6.316480
v -47.617233 1.247527 -6.364515
v -47.975609 1.247527 -6.446711
v -48.210823 1.247527 -6.500659
v -48.124546 1.288597 -6.480871
v -48.420261 1.373783 -6.548695
v -48.210823 0.723440 -6.500659
v -47.975609 0.723440 -6.446711
v -48.061886 0.682373 -6.466499
v -47.617233 0.723440 -6.364515
v -48.569199 1.334655 -6.582855
v -48.569199 0.636312 -6.582855
v -48.539337 0.481413 -6.576005
v -48.630779 0.585559 -6.596978
v -47.874210 1.613945 -6.423454
v -47.675114 1.613945 -6.377790
v -47.675114 0.445689 -6.377790
v -48.145481 1.334658 -6.485672
v -48.063503 1.334658 -6.466870
v -47.781471 1.334658 -6.402184
v -47.699493 1.334658 -6.383381
v -47.417458 1.334658 -6.318695
v -48.071201 1.553877 -6.468635
v -47.854263 1.553877 -6.418880
v -47.680359 1.553877 -6.378993
v -47.463421 1.553877 -6.329237
v -48.293442 1.553877 -6.519608
v -48.333984 1.553877 -6.528906
v -46.480976 0.445689 -6.103906
v -46.419395 0.636312 -6.089782
v -47.049866 0.682373 -6.234385
v -46.900932 0.723440 -6.200226
v -46.523098 0.445689 -6.101159
v -46.523098 0.411972 -6.101159
v -46.675415 0.445689 -6.136093
v -46.628834 0.682373 -6.137818
v -47.345581 0.682373 -6.302209
v -46.252781 1.613948 -6.051569
v -46.680073 1.613945 -6.149570
v -47.277363 1.613945 -6.286563
v -46.680073 0.445689 -6.149570
v -46.879169 0.445689 -6.195235
v -47.277363 0.445689 -6.286563
v -46.675415 0.411972 -6.136093
v -46.447392 0.263948 -6.294386
v -46.661354 0.263948 -6.343459
v -46.419395 1.613945 -6.089783
v -46.122601 1.450740 -6.021711
v -46.363491 0.445689 -6.076960
v -46.333118 0.597188 -6.069994
v -46.270458 0.597188 -6.055623
v -46.270458 1.373783 -6.055623
v -47.259300 0.723440 -6.282421
v -46.987206 0.682373 -6.220014
v -46.419395 1.334658 -6.089783
v -46.691494 1.288594 -6.152190
v -46.987206 1.288594 -6.220014
v -46.900932 1.247527 -6.200226
v -47.049866 1.288594 -6.234385
v -46.164696 1.558212 -6.031366
v -47.259300 1.247527 -6.282421
v -47.345581 1.288594 -6.302209
v -47.136147 1.247527 -6.254174
v -46.777771 1.247527 -6.171978
v -46.542557 1.247527 -6.118030
v -46.628834 1.288597 -6.137818
v -46.333118 1.373783 -6.069994
v -46.542557 0.723440 -6.118030
v -46.777771 0.723440 -6.171978
v -46.691494 0.682373 -6.152190
v -47.136147 0.723440 -6.254174
v -46.184181 1.334655 -6.035834
v -46.184181 0.636312 -6.035834
v -46.214043 0.481414 -6.042684
v -46.122601 0.585559 -6.021710
v -46.879169 1.613945 -6.195235
v -47.078266 1.613945 -6.240899
v -47.078266 0.445689 -6.240899
v -46.607899 1.334658 -6.133017
v -46.689877 1.334658 -6.151819
v -46.971909 1.334658 -6.216506
v -47.053886 1.334658 -6.235308
v -47.335922 1.334658 -6.299994
v -46.682178 1.553877 -6.150054
v -46.899117 1.553877 -6.199810
v -47.073021 1.553877 -6.239697
v -47.289959 1.553877 -6.289452
v -46.459938 1.553877 -6.099082
v -46.419395 1.553877 -6.089783
vn -0.5117 0.8511 -0.1174
vn -0.1308 0.8111 0.5701
vn -0.2235 -0.0000 0.9747
vn -0.2236 -0.0000 0.9747
vn -0.0000 1.0000 -0.0000
vn -0.2212 -0.9739 -0.0507
vn -0.7242 -0.6693 -0.1661
vn -0.0000 -1.0000 -0.0000
vn -0.9747 -0.0000 -0.2236
vn -0.9044 0.3729 -0.2074
vn -0.9545 0.2024 -0.2189
vn -0.9747 -0.0000 -0.2235
vn 0.4102 0.9071 0.0941
vn 0.2236 -0.0000 -0.9747
vn 0.4102 -0.9071 0.0941
vn -0.4102 -0.9071 -0.0941
vn 0.9747 -0.0000 0.2235
vn 0.9747 -0.0000 0.2236
vn -0.4102 0.9071 -0.0941
vn 0.5116 0.8511 0.1173
vn 0.2212 -0.9739 0.0507
vn 0.7242 -0.6693 0.1661
vn 0.9044 0.3729 0.2074
vn 0.9545 0.2024 0.2189
vn 0.3940 -0.9146 0.0904
vn -0.3941 -0.9146 -0.0904
vn -0.3940 0.9146 -0.0904
vn 0.3940 0.9146 0.0904
vn -0.9518 0.2154 -0.2183
vn -0.3940 -0.9146 -0.0904
vn 0.3941 -0.9146 0.0904
vn 0.9518 0.2154 0.2183
vn 0.1308 0.8111 -0.5701
vn 0.2235 -0.0000 -0.9747
vt 0.563424 0.076340
vt 0.553130 0.073518
vt 0.930572 0.423953
vt 0.921307 0.379121
vt 0.987792 0.379121
vt 0.977903 0.423953
vt 0.607372 0.029178
vt 0.597289 0.031257
vt 0.582896 0.026846
vt 0.590093 0.017196
vt 0.572813 0.024865
vt 0.576362 0.017196
vt 0.613360 0.017196
vt 0.614695 0.029178
vt 0.558897 0.019004
vt 0.565490 0.024865
vt 0.555407 0.026846
vt 0.548211 0.024277
vt 0.555407 0.062200
vt 0.548211 0.068077
vt 0.639171 0.057790
vt 0.624778 0.057790
vt 0.624778 0.031257
vt 0.639171 0.031257
vt 0.597289 0.057790
vt 0.582896 0.062201
vt 0.649254 0.029178
vt 0.691136 0.029178
vt 0.681053 0.031257
vt 0.666660 0.031257
vt 0.656577 0.029178
vt 0.565490 0.064181
vt 0.572813 0.064181
vt 0.666660 0.057790
vt 0.681053 0.057790
vt 0.691136 0.059869
vt 0.656577 0.059869
vt 0.649254 0.059869
vt 0.614695 0.059869
vt 0.706379 0.076340
vt 0.683164 0.076340
vt 0.613360 0.076340
vt 0.582896 0.076340
vt 0.659896 0.017196
vt 0.683164 0.017196
vt 0.659896 0.076340
vt 0.636628 0.076340
vt 0.636628 0.017196
vt 0.614506 0.062201
vt 0.604926 0.062201
vt 0.607372 0.059869
vt 0.613607 0.073299
vt 0.638959 0.073299
vt 0.657047 0.062201
vt 0.647466 0.062201
vt 0.659283 0.073299
vt 0.684635 0.073299
vt 0.688839 0.081258
vt 0.699816 0.081258
vt 0.706005 0.126709
vt 0.682651 0.126709
vt 0.698407 0.059869
vt 0.699536 0.062201
vt 0.690007 0.062201
vt 0.612500 0.017196
vt 0.594699 0.017196
vt 0.977903 0.434165
vt 0.930572 0.434165
vt 0.704907 0.073299
vt 0.706379 0.017196
vt 0.698407 0.029178
vt 0.653445 0.126709
vt 0.630032 0.126709
vt 0.639832 0.081258
vt 0.650869 0.081258
vt 0.600826 0.126709
vt 0.570905 0.126710
vt 0.590825 0.081258
vt 0.601862 0.081258
vt 0.587634 0.073299
vt 0.806647 0.062201
vt 0.806647 0.026846
vt 0.565447 0.081258
vt 0.565447 0.126710
vt 0.582896 0.073299
vt 0.836413 0.073518
vt 0.826118 0.076340
vt 0.729647 0.076340
vt 0.978547 0.423953
vt 0.931216 0.423953
vt 0.921327 0.379121
vt 0.987812 0.379121
vt 0.782171 0.029178
vt 0.799450 0.017196
vt 0.792254 0.031257
vt 0.813181 0.017196
vt 0.816730 0.024865
vt 0.774848 0.029178
vt 0.776183 0.017196
vt 0.830646 0.019004
vt 0.841332 0.024277
vt 0.834136 0.026846
vt 0.824053 0.024865
vt 0.841332 0.068077
vt 0.834136 0.062200
vt 0.750372 0.057790
vt 0.750372 0.031257
vt 0.764765 0.031257
vt 0.764765 0.057790
vt 0.792254 0.057790
vt 0.740289 0.029178
vt 0.732966 0.029178
vt 0.722883 0.031257
vt 0.708490 0.031257
vt 0.816730 0.064181
vt 0.824053 0.064181
vt 0.722883 0.057790
vt 0.732966 0.059869
vt 0.708490 0.057790
vt 0.740289 0.059869
vt 0.774848 0.059869
vt 0.806647 0.076340
vt 0.776183 0.076340
vt 0.729647 0.017196
vt 0.752915 0.076340
vt 0.752915 0.017196
vt 0.775037 0.062201
vt 0.782171 0.059869
vt 0.784617 0.062201
vt 0.775936 0.073299
vt 0.750584 0.073299
vt 0.732496 0.062201
vt 0.742077 0.062201
vt 0.730260 0.073299
vt 0.777043 0.017196
vt 0.794844 0.017196
vt 0.978547 0.434165
vt 0.931216 0.434165
vt 0.735211 0.126709
vt 0.737787 0.081258
vt 0.748824 0.081258
vt 0.758624 0.126709
vt 0.787830 0.126709
vt 0.786794 0.081258
vt 0.797831 0.081258
vt 0.817751 0.126710
vt 0.801909 0.073299
vt 0.823209 0.081258
vt 0.823209 0.126710
vt 0.806647 0.073299
s 1
usemtl initialShadingGroup.004
f 10/1/1 132/1/1 154/2/1 32/2/1
f 6/3/2 17/4/2 18/5/2 16/6/2
f 8/7/3 40/8/3 2/9/4 1/10/4
f 1/10/4 2/9/4 22/11/3 21/12/4
f 1/10/4 13/13/4 42/14/4 8/7/3
f 46/15/3 23/16/3 45/17/3 47/18/3
f 45/17/3 44/19/3 20/20/4 47/18/3
f 30/21/4 36/22/4 41/23/4 4/24/4
f 40/8/3 37/25/4 27/26/4 2/9/4
f 23/16/3 46/15/3 21/12/4 22/11/3
f 4/24/4 41/23/4 42/14/4 26/27/3
f 9/28/4 25/29/3 43/30/3 3/31/3
f 10/1/4 32/2/4 24/32/4 39/33/4
f 35/34/3 33/35/3 34/36/4 31/37/3
f 29/38/3 28/39/4 36/22/4 30/21/4
f 43/30/3 25/29/3 33/35/3 35/34/3
f 73/40/5 195/40/5 134/41/5 12/41/5
f 46/15/6 168/15/6 143/12/6 21/12/6
f 11/42/5 133/42/5 141/43/5 19/43/5
f 47/18/7 169/18/7 168/15/7 46/15/7
f 50/44/8 172/44/8 137/45/8 15/45/8
f 19/43/5 141/43/5 132/1/5 10/1/5
f 20/20/4 44/19/3 24/32/4 32/2/4
f 49/46/5 171/46/5 170/47/5 48/47/5
f 26/27/3 42/14/4 13/13/4 14/48/4
f 14/48/4 50/44/3 3/31/3 26/27/3
f 9/28/4 3/31/3 50/44/3 15/45/4
f 52/49/4 51/50/4 38/51/4 28/39/4
f 56/52/4 57/53/4 48/47/4 11/42/4
f 54/54/3 53/55/4 29/38/3 31/37/3
f 58/56/4 59/57/4 12/41/4 49/46/4
f 55/58/4 116/59/4 120/60/4 59/61/4
f 13/13/8 135/13/8 136/48/8 14/48/8
f 20/20/9 142/20/9 169/18/9 47/18/9
f 34/36/4 95/62/4 116/63/4 55/64/4
f 48/47/5 170/47/5 133/42/5 11/42/5
f 32/2/10 154/2/10 142/20/10 20/20/10
f 14/48/8 136/48/8 172/44/8 50/44/8
f 7/65/8 13/13/8 1/10/8 5/66/8
f 6/3/4 16/6/4 7/67/4 5/68/4
f 139/4/11 17/4/11 6/3/11 128/3/11
f 5/68/12 127/68/12 128/3/12 6/3/12
f 7/65/8 129/65/8 135/13/8 13/13/8
f 1/10/8 123/10/8 127/66/8 5/66/8
f 3/31/5 125/31/5 148/27/5 26/27/5
f 26/27/13 148/27/13 126/24/13 4/24/13
f 134/41/14 195/40/14 242/69/14 181/57/14
f 156/36/8 217/62/8 95/62/8 34/36/8
f 33/35/15 155/35/15 156/36/15 34/36/15
f 37/25/15 159/25/15 160/51/15 38/51/15
f 31/37/16 153/37/16 157/34/16 35/34/16
f 25/29/17 147/29/17 155/35/17 33/35/17
f 9/28/13 131/28/13 147/29/13 25/29/13
f 4/24/18 126/24/18 152/21/18 30/21/18
f 8/7/13 130/7/13 162/8/13 40/8/13
f 40/8/18 162/8/18 159/25/18 37/25/18
f 43/30/19 165/30/19 125/31/19 3/31/19
f 38/51/8 160/51/8 150/39/8 28/39/8
f 76/70/4 70/71/4 9/28/4 15/45/4
f 36/22/9 158/22/9 163/23/9 41/23/9
f 35/34/9 157/34/9 165/30/9 43/30/9
f 42/14/5 164/14/5 130/7/5 8/7/5
f 28/39/16 150/39/16 158/22/16 36/22/16
f 31/37/3 34/36/4 55/64/4 54/54/3
f 58/72/4 57/73/4 53/74/4 54/75/3
f 28/39/4 29/38/3 53/55/4 52/49/4
f 56/76/4 60/77/4 51/78/4 52/79/4
f 37/25/4 38/51/4 51/50/4 27/26/4
f 11/42/4 19/43/4 60/80/4 56/52/4
f 49/46/4 48/47/4 57/53/4 58/56/4
f 210/81/18 88/81/18 63/82/18 185/82/18
f 54/75/3 55/58/4 59/61/4 58/72/4
f 52/79/4 53/74/4 57/73/4 56/76/4
f 27/83/4 51/78/4 60/77/4 61/84/4
f 27/26/4 61/85/4 10/1/4 39/33/4
f 10/1/4 61/85/4 60/80/4 19/43/4
f 12/41/5 134/41/5 171/46/5 49/46/5
f 41/23/19 163/23/19 164/14/19 42/14/19
f 15/45/8 137/45/8 198/70/8 76/70/8
f 93/86/20 215/86/20 193/87/20 71/87/20
f 110/88/5 232/88/5 195/40/5 73/40/5
f 67/89/2 77/90/2 79/91/2 78/92/2
f 69/93/4 62/94/4 63/82/3 101/95/3
f 62/94/4 82/96/4 83/97/4 63/82/3
f 62/94/4 69/93/4 103/98/4 74/99/4
f 107/100/4 108/101/4 106/102/3 84/103/3
f 106/102/3 108/101/4 81/104/3 105/105/3
f 91/106/3 65/107/3 102/108/3 97/109/3
f 101/95/3 63/82/3 88/81/3 98/110/3
f 84/103/3 83/97/4 82/96/4 107/100/4
f 65/107/3 87/111/4 103/98/4 102/108/3
f 70/71/4 64/112/4 104/113/4 86/114/4
f 71/87/4 100/115/4 85/116/4 93/86/4
f 96/117/4 92/118/4 95/62/4 94/119/4
f 90/120/3 91/106/3 97/109/3 89/121/4
f 104/113/4 96/117/4 94/119/4 86/114/4
f 198/70/14 137/45/14 131/28/14 192/71/14
f 82/96/21 204/96/21 229/100/21 107/100/21
f 80/122/5 202/122/5 194/123/5 72/123/5
f 107/100/22 229/100/22 230/101/22 108/101/22
f 76/70/8 198/70/8 233/124/8 111/124/8
f 71/87/5 193/87/5 202/122/5 80/122/5
f 81/104/3 93/86/4 85/116/4 105/105/3
f 109/125/5 231/125/5 232/88/5 110/88/5
f 87/111/4 75/126/4 74/99/4 103/98/4
f 75/126/4 87/111/4 64/112/4 111/124/4
f 70/71/4 76/70/4 111/124/4 64/112/4
f 113/127/4 89/121/4 99/128/4 112/129/3
f 117/130/4 72/123/4 109/125/4 118/131/4
f 115/132/4 92/118/4 90/120/3 114/133/4
f 119/134/4 110/88/4 73/40/4 120/69/4
f 75/126/8 197/126/8 196/99/8 74/99/8
f 108/101/18 230/101/18 203/104/18 81/104/18
f 72/123/5 194/123/5 231/125/5 109/125/5
f 103/98/13 225/98/13 224/108/13 102/108/13
f 81/104/23 203/104/23 215/86/23 93/86/23
f 111/124/8 233/124/8 197/126/8 75/126/8
f 68/135/8 66/136/8 62/94/8 74/99/8
f 67/89/4 66/137/4 68/138/4 77/90/4
f 200/92/24 189/89/24 67/89/24 78/92/24
f 67/89/17 189/89/17 188/137/17 66/137/17
f 74/99/8 196/99/8 190/135/8 68/135/8
f 66/136/8 188/136/8 184/94/8 62/94/8
f 87/111/5 209/111/5 186/112/5 64/112/5
f 65/107/19 187/107/19 209/111/19 87/111/19
f 97/109/15 219/109/15 211/121/15 89/121/15
f 95/62/16 217/62/16 216/119/16 94/119/16
f 99/128/16 221/128/16 220/110/16 98/110/16
f 96/117/15 218/117/15 214/118/15 92/118/15
f 94/119/9 216/119/9 208/114/9 86/114/9
f 86/114/19 208/114/19 192/71/19 70/71/19
f 91/106/9 213/106/9 187/107/9 65/107/9
f 101/95/19 223/95/19 191/93/19 69/93/19
f 98/110/9 220/110/9 223/95/9 101/95/9
f 64/112/13 186/112/13 226/113/13 104/113/13
f 89/121/8 211/121/8 221/128/8 99/128/8
f 102/108/18 224/108/18 219/109/18 97/109/18
f 104/113/18 226/113/18 218/117/18 96/117/18
f 69/93/5 191/93/5 225/98/5 103/98/5
f 92/118/4 115/132/4 116/63/4 95/62/4
f 119/139/4 115/140/4 114/141/4 118/142/4
f 89/121/4 113/127/4 114/133/4 90/120/3
f 117/143/4 113/144/4 112/145/3 121/146/3
f 98/110/3 88/81/3 112/129/3 99/128/4
f 72/123/4 117/130/4 121/147/3 80/122/3
f 110/88/4 119/134/4 118/131/4 109/125/4
f 115/140/4 119/139/4 120/60/4 116/59/4
f 113/144/4 117/143/4 118/142/4 114/141/4
f 88/148/3 122/149/4 121/146/3 112/145/3
f 88/81/3 100/115/4 71/87/4 122/150/4
f 71/87/4 80/122/3 121/147/3 122/150/4
f 17/4/8 139/4/8 140/5/8 18/5/8
f 149/26/9 124/9/9 2/9/9 27/26/9
f 222/115/25 100/115/25 88/81/25 210/81/25
f 222/115/8 207/116/8 85/116/8 100/115/8
f 207/116/26 227/105/26 105/105/26 85/116/26
f 227/105/9 228/102/9 106/102/9 105/105/9
f 206/103/27 84/103/27 106/102/27 228/102/27
f 206/103/5 205/97/5 83/97/5 84/103/5
f 185/82/28 63/82/28 83/97/28 205/97/28
f 213/106/16 91/106/16 90/120/16 212/120/16
f 199/90/12 77/90/12 68/138/12 190/138/12
f 199/90/29 201/91/29 79/91/29 77/90/29
f 62/94/8 184/94/8 204/96/8 82/96/8
f 92/118/8 214/118/8 212/120/8 90/120/8
f 161/33/30 149/26/30 27/26/30 39/33/30
f 161/33/8 39/33/8 24/32/8 146/32/8
f 146/32/31 24/32/31 44/19/31 166/19/31
f 166/19/18 44/19/18 45/17/18 167/17/18
f 145/16/28 167/17/28 45/17/28 23/16/28
f 145/16/5 23/16/5 22/11/5 144/11/5
f 124/9/27 144/11/27 22/11/27 2/9/27
f 152/21/15 151/38/15 29/38/15 30/21/15
f 138/6/17 129/67/17 7/67/17 16/6/17
f 138/6/32 16/6/32 18/5/32 140/5/32
f 21/12/8 143/12/8 123/10/8 1/10/8
f 29/38/8 151/38/8 153/37/8 31/37/8
f 128/3/33 138/6/33 140/5/33 139/4/33
f 130/7/14 123/10/14 124/9/34 162/8/34
f 123/10/14 143/12/14 144/11/34 124/9/34
f 123/10/14 130/7/14 164/14/14 135/13/14
f 168/15/34 169/18/34 167/17/34 145/16/34
f 167/17/34 169/18/34 142/20/14 166/19/34
f 152/21/14 126/24/14 163/23/14 158/22/14
f 162/8/34 124/9/34 149/26/14 159/25/34
f 145/16/34 144/11/34 143/12/14 168/15/34
f 126/24/14 148/27/14 164/14/14 163/23/14
f 131/28/14 125/31/14 165/30/14 147/29/14
f 132/1/14 161/33/14 146/32/34 154/2/34
f 157/34/14 153/37/14 156/36/14 155/35/14
f 151/38/14 152/21/14 158/22/14 150/39/14
f 165/30/14 157/34/14 155/35/14 147/29/14
f 142/20/14 154/2/34 146/32/34 166/19/34
f 148/27/14 136/48/14 135/13/14 164/14/14
f 136/48/14 148/27/14 125/31/14 172/44/34
f 131/28/14 137/45/14 172/44/34 125/31/14
f 174/49/34 150/39/14 160/51/34 173/50/34
f 178/52/14 133/42/14 170/47/14 179/53/14
f 176/54/14 153/37/14 151/38/14 175/55/14
f 180/56/14 171/46/14 134/41/14 181/57/14
f 181/61/14 242/60/14 238/59/14 177/58/14
f 177/64/14 238/63/14 217/62/14 156/36/14
f 129/65/8 127/66/8 123/10/8 135/13/8
f 128/3/34 127/68/34 129/67/34 138/6/34
f 153/37/14 176/54/14 177/64/14 156/36/14
f 180/72/14 176/75/14 175/74/14 179/73/14
f 150/39/14 174/49/34 175/55/14 151/38/14
f 178/76/14 174/79/34 173/78/34 182/77/14
f 159/25/34 149/26/14 173/50/34 160/51/34
f 133/42/14 178/52/14 182/80/14 141/43/14
f 171/46/14 180/56/14 179/53/14 170/47/14
f 176/75/14 180/72/14 181/61/14 177/58/14
f 174/79/34 178/76/14 179/73/14 175/74/14
f 149/83/14 183/84/14 182/77/14 173/78/34
f 149/26/14 161/33/14 132/1/14 183/85/14
f 132/1/14 141/43/14 182/80/14 183/85/14
f 131/28/5 9/28/5 70/71/5 192/71/5
f 189/89/33 200/92/33 201/91/33 199/90/33
f 191/93/14 223/95/34 185/82/14 184/94/14
f 184/94/14 185/82/14 205/97/34 204/96/34
f 184/94/14 196/99/14 225/98/14 191/93/14
f 229/100/14 206/103/34 228/102/14 230/101/14
f 228/102/14 227/105/34 203/104/14 230/101/14
f 213/106/14 219/109/14 224/108/14 187/107/14
f 223/95/34 220/110/34 210/81/14 185/82/14
f 206/103/34 229/100/14 204/96/34 205/97/34
f 187/107/14 224/108/14 225/98/14 209/111/14
f 192/71/14 208/114/14 226/113/14 186/112/14
f 193/87/14 215/86/14 207/116/14 222/115/14
f 218/117/14 216/119/14 217/62/14 214/118/34
f 212/120/14 211/121/14 219/109/14 213/106/14
f 226/113/14 208/114/14 216/119/14 218/117/14
f 203/104/14 227/105/34 207/116/14 215/86/14
f 209/111/14 225/98/14 196/99/14 197/126/14
f 197/126/14 233/124/14 186/112/14 209/111/14
f 192/71/14 186/112/14 233/124/14 198/70/14
f 235/127/14 234/129/34 221/128/34 211/121/14
f 239/130/14 240/131/14 231/125/14 194/123/14
f 237/132/34 236/133/14 212/120/14 214/118/34
f 241/134/14 242/69/14 195/40/14 232/88/14
f 190/135/8 196/99/8 184/94/8 188/136/8
f 189/89/34 199/90/34 190/138/34 188/137/34
f 214/118/34 217/62/14 238/63/14 237/132/34
f 241/139/14 240/142/14 236/141/14 237/140/34
f 211/121/14 212/120/14 236/133/14 235/127/14
f 239/143/14 243/146/14 234/145/34 235/144/14
f 220/110/34 221/128/34 234/129/34 210/81/14
f 194/123/14 202/122/14 243/147/14 239/130/14
f 232/88/14 231/125/14 240/131/14 241/134/14
f 237/140/34 238/59/14 242/60/14 241/139/14
f 235/144/14 236/141/14 240/142/14 239/143/14
f 210/148/14 234/145/34 243/146/14 244/149/14
f 210/81/14 244/150/14 193/87/14 222/115/14
f 193/87/14 244/150/14 243/147/14 202/122/14
f 59/57/4 120/69/4 73/40/4 12/41/4
f 79/91/8 201/91/8 200/92/8 78/92/8
