# Blender 5.1.0
# www.blender.org
mtllib barriere55_096.mtl
o barriere55.096
v 50.682095 0.406543 14.421621
v 50.680828 0.597167 14.484786
v 50.693798 0.643227 13.838075
v 50.690735 0.684294 13.990848
v 50.670815 0.406543 14.380943
v 50.670815 0.372826 14.380943
v 50.673946 0.406543 14.224705
v 50.685139 0.643227 14.269955
v 50.699883 0.643227 13.534744
v 50.677402 1.574803 14.655692
v 50.686192 1.574800 14.217396
v 50.698479 1.574800 13.604718
v 50.686192 0.406543 14.217396
v 50.690289 0.406543 14.013170
v 50.698479 0.406543 13.604718
v 50.673946 0.372826 14.224705
v 50.875420 0.224802 14.415646
v 50.879822 0.224802 14.196175
v 50.680828 1.574800 14.484785
v 50.674725 1.411594 14.789227
v 50.679680 0.406543 14.542132
v 50.679054 0.558042 14.573287
v 50.677765 0.558042 14.637561
v 50.677765 1.334637 14.637561
v 50.698109 0.684294 13.623244
v 50.692509 0.643227 13.902349
v 50.680828 1.295512 14.484785
v 50.686428 1.249448 14.205681
v 50.692509 1.249448 13.902349
v 50.690735 1.208382 13.990848
v 50.693798 1.249448 13.838075
v 50.675591 1.519066 14.746046
v 50.698109 1.208382 13.623244
v 50.699883 1.249448 13.534744
v 50.695572 1.208382 13.749573
v 50.688202 1.208382 14.117181
v 50.683361 1.208382 14.358455
v 50.685139 1.249451 14.269955
v 50.679054 1.334637 14.573287
v 50.683361 0.684294 14.358455
v 50.688202 0.684294 14.117181
v 50.686428 0.643227 14.205681
v 50.695572 0.684294 13.749573
v 50.675991 1.295509 14.726061
v 50.675991 0.597167 14.726061
v 50.676605 0.442268 14.695427
v 50.674725 0.546413 14.789227
v 50.690289 1.574800 14.013170
v 50.694382 1.574800 13.808944
v 50.694382 0.406543 13.808944
v 50.684708 1.295512 14.291427
v 50.686394 1.295512 14.207339
v 50.692196 1.295512 13.918039
v 50.693882 1.295512 13.833951
v 50.699684 1.295512 13.544651
v 50.686234 1.514731 14.215233
v 50.690697 1.514731 13.992709
v 50.694275 1.514731 13.814322
v 50.698738 1.514731 13.591800
v 50.681664 1.514732 14.443198
v 50.680828 1.514732 14.484785
v 50.718948 0.406543 12.584045
v 50.720215 0.597167 12.520880
v 50.707245 0.643227 13.167591
v 50.710308 0.684294 13.014819
v 50.706047 0.406543 12.624237
v 50.706047 0.372826 12.624237
v 50.702911 0.406543 12.780477
v 50.715908 0.643227 12.735711
v 50.701160 0.643227 13.470922
v 50.723644 1.574803 12.349975
v 50.714851 1.574800 12.788271
v 50.702564 1.574800 13.400948
v 50.714851 0.406543 12.788271
v 50.710758 0.406543 12.992496
v 50.702564 0.406543 13.400948
v 50.702911 0.372826 12.780477
v 50.911880 0.224802 12.597767
v 50.907478 0.224802 12.817238
v 50.720215 1.574800 12.520882
v 50.726322 1.411594 12.216440
v 50.721367 0.406543 12.463533
v 50.721989 0.558042 12.432379
v 50.723278 0.558042 12.368106
v 50.723278 1.334637 12.368106
v 50.702938 0.684294 13.382421
v 50.708534 0.643227 13.103316
v 50.720215 1.295512 12.520882
v 50.714619 1.249448 12.799986
v 50.708534 1.249448 13.103316
v 50.710308 1.208382 13.014819
v 50.707245 1.249448 13.167591
v 50.725456 1.519066 12.259621
v 50.702938 1.208382 13.382421
v 50.701160 1.249448 13.470922
v 50.705471 1.208382 13.256093
v 50.712841 1.208382 12.888485
v 50.717682 1.208382 12.647212
v 50.715908 1.249451 12.735711
v 50.721989 1.334637 12.432379
v 50.717682 0.684294 12.647212
v 50.712841 0.684294 12.888485
v 50.714619 0.643227 12.799986
v 50.705471 0.684294 13.256093
v 50.725056 1.295509 12.279605
v 50.725056 0.597167 12.279605
v 50.724442 0.442268 12.310239
v 50.726322 0.546413 12.216440
v 50.710758 1.574800 12.992496
v 50.706661 1.574800 13.196722
v 50.706661 0.406543 13.196722
v 50.716339 1.295512 12.714239
v 50.714649 1.295512 12.798327
v 50.708851 1.295512 13.087626
v 50.707161 1.295512 13.171716
v 50.701359 1.295512 13.461016
v 50.714809 1.514731 12.790434
v 50.710346 1.514731 13.012957
v 50.706768 1.514731 13.191343
v 50.702305 1.514731 13.413867
v 50.719379 1.514732 12.562469
v 50.720215 1.514732 12.520882
v 50.591675 0.406543 14.419807
v 50.590408 0.597167 14.482973
v 50.603378 0.643227 13.836262
v 50.600315 0.684294 13.989034
v 50.604576 0.406543 14.379616
v 50.604576 0.372826 14.379616
v 50.607712 0.406543 14.223376
v 50.594715 0.643227 14.268142
v 50.609463 0.643227 13.532930
v 50.586979 1.574803 14.653878
v 50.595772 1.574800 14.215582
v 50.608059 1.574800 13.602905
v 50.595772 0.406543 14.215582
v 50.599865 0.406543 14.011356
v 50.608059 0.406543 13.602905
v 50.607712 0.372826 14.223376
v 50.398743 0.224802 14.406086
v 50.403145 0.224802 14.186615
v 50.590408 1.574800 14.482971
v 50.584301 1.411594 14.787413
v 50.589256 0.406543 14.540319
v 50.588634 0.558042 14.571474
v 50.587345 0.558042 14.635747
v 50.587345 1.334637 14.635747
v 50.607685 0.684294 13.621431
v 50.602089 0.643227 13.900537
v 50.590408 1.295512 14.482971
v 50.596004 1.249448 14.203867
v 50.602089 1.249448 13.900537
v 50.600315 1.208382 13.989034
v 50.603378 1.249448 13.836262
v 50.585167 1.519066 14.744232
v 50.607685 1.208382 13.621431
v 50.609463 1.249448 13.532930
v 50.605152 1.208382 13.747760
v 50.597778 1.208382 14.115368
v 50.592941 1.208382 14.356641
v 50.594715 1.249451 14.268142
v 50.588634 1.334637 14.571474
v 50.592941 0.684294 14.356641
v 50.597782 0.684294 14.115368
v 50.596004 0.643227 14.203867
v 50.605152 0.684294 13.747760
v 50.585567 1.295509 14.724248
v 50.585567 0.597167 14.724248
v 50.586182 0.442268 14.693614
v 50.584301 0.546413 14.787413
v 50.599865 1.574800 14.011356
v 50.603962 1.574800 13.807131
v 50.603962 0.406543 13.807131
v 50.594284 1.295512 14.289614
v 50.595970 1.295512 14.205525
v 50.601772 1.295512 13.916226
v 50.603462 1.295512 13.832137
v 50.609261 1.295512 13.542837
v 50.595814 1.514731 14.213419
v 50.600277 1.514731 13.990896
v 50.603855 1.514731 13.812510
v 50.608318 1.514731 13.589986
v 50.591240 1.514732 14.441384
v 50.590408 1.514732 14.482971
v 50.628529 0.406543 12.582232
v 50.629795 0.597167 12.519067
v 50.616825 0.643227 13.165778
v 50.619888 0.684294 13.013005
v 50.639809 0.406543 12.622910
v 50.639809 0.372826 12.622910
v 50.636677 0.406543 12.779148
v 50.625484 0.643227 12.733898
v 50.610741 0.643227 13.469109
v 50.633221 1.574803 12.348161
v 50.624432 1.574800 12.786457
v 50.612144 1.574800 13.399135
v 50.624432 0.406543 12.786457
v 50.620335 0.406543 12.990683
v 50.612144 0.406543 13.399135
v 50.636677 0.372826 12.779148
v 50.435204 0.224802 12.588207
v 50.430801 0.224802 12.807678
v 50.629795 1.574800 12.519068
v 50.635899 1.411594 12.214626
v 50.630943 0.406543 12.461720
v 50.631569 0.558042 12.430566
v 50.632858 0.558042 12.366292
v 50.632858 1.334637 12.366292
v 50.612514 0.684294 13.380609
v 50.618114 0.643227 13.101503
v 50.629795 1.295512 12.519068
v 50.624195 1.249448 12.798172
v 50.618114 1.249448 13.101503
v 50.619888 1.208382 13.013005
v 50.616825 1.249448 13.165778
v 50.635033 1.519066 12.257807
v 50.612514 1.208382 13.380609
v 50.610741 1.249448 13.469109
v 50.615051 1.208382 13.254280
v 50.622421 1.208382 12.886672
v 50.627262 1.208382 12.645398
v 50.625484 1.249451 12.733898
v 50.631569 1.334637 12.430566
v 50.627262 0.684294 12.645398
v 50.622421 0.684294 12.886672
v 50.624195 0.643227 12.798172
v 50.615051 0.684294 13.254280
v 50.634632 1.295509 12.277792
v 50.634632 0.597167 12.277792
v 50.634018 0.442268 12.308426
v 50.635899 0.546413 12.214626
v 50.620335 1.574800 12.990683
v 50.616241 1.574800 13.194909
v 50.616241 0.406543 13.194909
v 50.625916 1.295512 12.712426
v 50.624229 1.295512 12.796514
v 50.618427 1.295512 13.085814
v 50.616741 1.295512 13.169902
v 50.610939 1.295512 13.459202
v 50.624390 1.514731 12.788620
v 50.619926 1.514731 13.011144
v 50.616348 1.514731 13.189530
v 50.611885 1.514731 13.412053
v 50.628960 1.514732 12.560655
v 50.629795 1.514732 12.519068
vn -0.0105 0.8511 0.5248
vn 0.5848 0.8111 0.0117
vn 0.9998 -0.0000 0.0201
vn 0.9998 -0.0000 0.0200
vn 0.9998 -0.0001 0.0201
vn 0.9998 -0.0001 0.0200
vn -0.0000 1.0000 -0.0000
vn -0.0046 -0.9739 0.2269
vn -0.0149 -0.6693 0.7428
vn -0.0000 -1.0000 -0.0000
vn -0.0201 -0.0000 0.9998
vn -0.0186 0.3729 0.9277
vn -0.0196 0.2024 0.9791
vn -0.0200 -0.0000 0.9998
vn 0.0084 0.9071 -0.4208
vn -0.9998 -0.0000 -0.0201
vn -0.9998 -0.0000 -0.0200
vn 0.0084 -0.9071 -0.4207
vn 0.0084 -0.9071 -0.4208
vn -0.0084 -0.9071 0.4207
vn 0.0200 -0.0000 -0.9998
vn 0.0201 -0.0000 -0.9998
vn -0.0084 0.9071 0.4207
vn -0.0084 -0.9071 0.4208
vn 0.0105 0.8511 -0.5248
vn 0.9998 -0.0002 0.0202
vn 0.9998 0.0001 0.0200
vn 0.9998 0.0002 0.0202
vn 0.9998 0.0001 0.0201
vn 0.0046 -0.9739 -0.2269
vn 0.0149 -0.6693 -0.7428
vn 0.0186 0.3729 -0.9277
vn 0.0196 0.2024 -0.9791
vn -0.0084 0.9071 0.4208
vn 0.0084 0.9071 -0.4207
vn 0.0081 -0.9146 -0.4042
vn -0.0081 -0.9146 0.4042
vn -0.0081 0.9146 0.4042
vn 0.0081 0.9146 -0.4042
vn -0.0196 0.2154 0.9763
vn 0.0196 0.2154 -0.9763
vn -0.5848 0.8111 -0.0117
vn -0.9998 0.0001 -0.0201
vn -0.9998 -0.0001 -0.0201
vn -0.9998 -0.0001 -0.0200
vt 0.563424 0.076340
vt 0.553130 0.073518
vt 0.930572 0.423953
vt 0.921307 0.379121
vt 0.987792 0.379121
vt 0.977903 0.423953
vt 0.607372 0.029178
vt 0.597289 0.031257
vt 0.582896 0.026846
vt 0.590093 0.017196
vt 0.572813 0.024865
vt 0.576362 0.017196
vt 0.613360 0.017196
vt 0.614695 0.029178
vt 0.558897 0.019004
vt 0.565490 0.024865
vt 0.555407 0.026846
vt 0.548211 0.024277
vt 0.555407 0.062200
vt 0.548211 0.068077
vt 0.639171 0.057790
vt 0.624778 0.057790
vt 0.624778 0.031257
vt 0.639171 0.031257
vt 0.597289 0.057790
vt 0.582896 0.062201
vt 0.649254 0.029178
vt 0.691136 0.029178
vt 0.681053 0.031257
vt 0.666660 0.031257
vt 0.656577 0.029178
vt 0.565490 0.064181
vt 0.572813 0.064181
vt 0.666660 0.057790
vt 0.681053 0.057790
vt 0.691136 0.059869
vt 0.656577 0.059869
vt 0.649254 0.059869
vt 0.614695 0.059869
vt 0.706379 0.076340
vt 0.683164 0.076340
vt 0.613360 0.076340
vt 0.582896 0.076340
vt 0.659896 0.017196
vt 0.683164 0.017196
vt 0.659896 0.076340
vt 0.636628 0.076340
vt 0.636628 0.017196
vt 0.614506 0.062201
vt 0.604926 0.062201
vt 0.607372 0.059869
vt 0.613607 0.073299
vt 0.638959 0.073299
vt 0.657047 0.062201
vt 0.647466 0.062201
vt 0.659283 0.073299
vt 0.684635 0.073299
vt 0.688839 0.081258
vt 0.699816 0.081258
vt 0.706005 0.126709
vt 0.682651 0.126709
vt 0.698407 0.059869
vt 0.699536 0.062201
vt 0.690007 0.062201
vt 0.612500 0.017196
vt 0.594699 0.017196
vt 0.977903 0.434165
vt 0.930572 0.434165
vt 0.704907 0.073299
vt 0.706379 0.017196
vt 0.698407 0.029178
vt 0.653445 0.126709
vt 0.630032 0.126709
vt 0.639832 0.081258
vt 0.650869 0.081258
vt 0.600826 0.126709
vt 0.570905 0.126710
vt 0.590825 0.081258
vt 0.601862 0.081258
vt 0.587634 0.073299
vt 0.806647 0.062201
vt 0.806647 0.026846
vt 0.565447 0.081258
vt 0.565447 0.126710
vt 0.582896 0.073299
vt 0.836413 0.073518
vt 0.826118 0.076340
vt 0.729647 0.076340
vt 0.978547 0.423953
vt 0.931216 0.423953
vt 0.921327 0.379121
vt 0.987812 0.379121
vt 0.782171 0.029178
vt 0.799450 0.017196
vt 0.792254 0.031257
vt 0.813181 0.017196
vt 0.816730 0.024865
vt 0.774848 0.029178
vt 0.776183 0.017196
vt 0.830646 0.019004
vt 0.841332 0.024277
vt 0.834136 0.026846
vt 0.824053 0.024865
vt 0.841332 0.068077
vt 0.834136 0.062200
vt 0.750372 0.057790
vt 0.750372 0.031257
vt 0.764765 0.031257
vt 0.764765 0.057790
vt 0.792254 0.057790
vt 0.740289 0.029178
vt 0.732966 0.029178
vt 0.722883 0.031257
vt 0.708490 0.031257
vt 0.816730 0.064181
vt 0.824053 0.064181
vt 0.722883 0.057790
vt 0.732966 0.059869
vt 0.708490 0.057790
vt 0.740289 0.059869
vt 0.774848 0.059869
vt 0.806647 0.076340
vt 0.776183 0.076340
vt 0.729647 0.017196
vt 0.752915 0.076340
vt 0.752915 0.017196
vt 0.775037 0.062201
vt 0.782171 0.059869
vt 0.784617 0.062201
vt 0.775936 0.073299
vt 0.750584 0.073299
vt 0.732496 0.062201
vt 0.742077 0.062201
vt 0.730260 0.073299
vt 0.777043 0.017196
vt 0.794844 0.017196
vt 0.978547 0.434165
vt 0.931216 0.434165
vt 0.735211 0.126709
vt 0.737787 0.081258
vt 0.748824 0.081258
vt 0.758624 0.126709
vt 0.787830 0.126709
vt 0.786794 0.081258
vt 0.797831 0.081258
vt 0.817751 0.126710
vt 0.801909 0.073299
vt 0.823209 0.081258
vt 0.823209 0.126710
vt 0.806647 0.073299
s 1
usemtl initialShadingGroup.004
f 10/1/1 132/1/1 154/2/1 32/2/1
f 6/3/2 17/4/2 18/5/2 16/6/2
f 8/7/3 40/8/3 2/9/4 1/10/3
f 1/10/3 2/9/4 22/11/4 21/12/4
f 1/10/3 13/13/3 42/14/3 8/7/3
f 46/15/4 23/16/4 45/17/4 47/18/4
f 45/17/4 44/19/4 20/20/4 47/18/4
f 30/21/4 36/22/4 41/23/4 4/24/4
f 40/8/3 37/25/3 27/26/3 2/9/4
f 23/16/4 46/15/4 21/12/4 22/11/4
f 4/24/4 41/23/4 42/14/3 26/27/4
f 9/28/4 25/29/3 43/30/3 3/31/3
f 10/1/4 32/2/4 24/32/4 39/33/4
f 35/34/3 33/35/3 34/36/4 31/37/5
f 29/38/6 28/39/4 36/22/4 30/21/4
f 43/30/3 25/29/3 33/35/3 35/34/3
f 73/40/7 195/40/7 134/41/7 12/41/7
f 46/15/8 168/15/8 143/12/8 21/12/8
f 11/42/7 133/42/7 141/43/7 19/43/7
f 47/18/9 169/18/9 168/15/9 46/15/9
f 50/44/10 172/44/10 137/45/10 15/45/10
f 19/43/7 141/43/7 132/1/7 10/1/7
f 20/20/4 44/19/4 24/32/4 32/2/4
f 49/46/7 171/46/7 170/47/7 48/47/7
f 26/27/4 42/14/3 13/13/3 14/48/4
f 14/48/4 50/44/4 3/31/3 26/27/4
f 9/28/4 3/31/3 50/44/4 15/45/4
f 52/49/4 51/50/3 38/51/3 28/39/4
f 56/52/3 57/53/3 48/47/3 11/42/3
f 54/54/5 53/55/3 29/38/6 31/37/5
f 58/56/3 59/57/4 12/41/3 49/46/3
f 55/58/4 116/59/4 120/60/4 59/61/4
f 13/13/10 135/13/10 136/48/10 14/48/10
f 20/20/11 142/20/11 169/18/11 47/18/11
f 34/36/4 95/62/4 116/63/4 55/64/4
f 48/47/7 170/47/7 133/42/7 11/42/7
f 32/2/12 154/2/12 142/20/12 20/20/12
f 14/48/10 136/48/10 172/44/10 50/44/10
f 7/65/10 13/13/10 1/10/10 5/66/10
f 6/3/4 16/6/4 7/67/4 5/68/4
f 139/4/13 17/4/13 6/3/13 128/3/13
f 5/68/14 127/68/14 128/3/14 6/3/14
f 7/65/10 129/65/10 135/13/10 13/13/10
f 1/10/10 123/10/10 127/66/10 5/66/10
f 3/31/7 125/31/7 148/27/7 26/27/7
f 26/27/15 148/27/15 126/24/15 4/24/15
f 134/41/16 195/40/16 242/69/17 181/57/17
f 156/36/10 217/62/10 95/62/10 34/36/10
f 33/35/18 155/35/18 156/36/18 34/36/18
f 37/25/19 159/25/19 160/51/19 38/51/19
f 31/37/20 153/37/20 157/34/20 35/34/20
f 25/29/21 147/29/21 155/35/21 33/35/21
f 9/28/15 131/28/15 147/29/15 25/29/15
f 4/24/22 126/24/22 152/21/22 30/21/22
f 8/7/15 130/7/15 162/8/15 40/8/15
f 40/8/22 162/8/22 159/25/22 37/25/22
f 43/30/23 165/30/23 125/31/23 3/31/23
f 38/51/10 160/51/10 150/39/10 28/39/10
f 76/70/4 70/71/4 9/28/4 15/45/4
f 36/22/14 158/22/14 163/23/14 41/23/14
f 35/34/11 157/34/11 165/30/11 43/30/11
f 42/14/7 164/14/7 130/7/7 8/7/7
f 28/39/24 150/39/24 158/22/24 36/22/24
f 31/37/5 34/36/4 55/64/4 54/54/5
f 58/72/3 57/73/3 53/74/3 54/75/5
f 28/39/4 29/38/6 53/55/3 52/49/4
f 56/76/3 60/77/3 51/78/3 52/79/4
f 37/25/3 38/51/3 51/50/3 27/26/3
f 11/42/3 19/43/4 60/80/3 56/52/3
f 49/46/3 48/47/3 57/53/3 58/56/3
f 210/81/22 88/81/22 63/82/22 185/82/22
f 54/75/5 55/58/4 59/61/4 58/72/3
f 52/79/4 53/74/3 57/73/3 56/76/3
f 27/83/3 51/78/3 60/77/3 61/84/4
f 27/26/3 61/85/4 10/1/4 39/33/4
f 10/1/4 61/85/4 60/80/3 19/43/4
f 12/41/7 134/41/7 171/46/7 49/46/7
f 41/23/23 163/23/23 164/14/23 42/14/23
f 15/45/10 137/45/10 198/70/10 76/70/10
f 93/86/25 215/86/25 193/87/25 71/87/25
f 110/88/7 232/88/7 195/40/7 73/40/7
f 67/89/2 77/90/2 79/91/2 78/92/2
f 69/93/3 62/94/3 63/82/4 101/95/4
f 62/94/3 82/96/3 83/97/3 63/82/4
f 62/94/3 69/93/3 103/98/3 74/99/3
f 107/100/3 108/101/3 106/102/3 84/103/3
f 106/102/3 108/101/3 81/104/3 105/105/3
f 91/106/4 65/107/26 102/108/27 97/109/4
f 101/95/4 63/82/4 88/81/4 98/110/4
f 84/103/3 83/97/3 82/96/3 107/100/3
f 65/107/26 87/111/3 103/98/3 102/108/27
f 70/71/4 64/112/3 104/113/28 86/114/5
f 71/87/3 100/115/3 85/116/3 93/86/3
f 96/117/29 92/118/5 95/62/4 94/119/26
f 90/120/3 91/106/4 97/109/4 89/121/3
f 104/113/28 96/117/29 94/119/26 86/114/5
f 198/70/17 137/45/17 131/28/17 192/71/17
f 82/96/30 204/96/30 229/100/30 107/100/30
f 80/122/7 202/122/7 194/123/7 72/123/7
f 107/100/31 229/100/31 230/101/31 108/101/31
f 76/70/10 198/70/10 233/124/10 111/124/10
f 71/87/7 193/87/7 202/122/7 80/122/7
f 81/104/3 93/86/3 85/116/3 105/105/3
f 109/125/7 231/125/7 232/88/7 110/88/7
f 87/111/3 75/126/3 74/99/3 103/98/3
f 75/126/3 87/111/3 64/112/3 111/124/3
f 70/71/4 76/70/4 111/124/3 64/112/3
f 113/127/3 89/121/3 99/128/3 112/129/3
f 117/130/4 72/123/4 109/125/4 118/131/3
f 115/132/3 92/118/5 90/120/3 114/133/3
f 119/134/3 110/88/3 73/40/3 120/69/4
f 75/126/10 197/126/10 196/99/10 74/99/10
f 108/101/21 230/101/21 203/104/21 81/104/21
f 72/123/7 194/123/7 231/125/7 109/125/7
f 103/98/15 225/98/15 224/108/15 102/108/15
f 81/104/32 203/104/32 215/86/32 93/86/32
f 111/124/10 233/124/10 197/126/10 75/126/10
f 68/135/10 66/136/10 62/94/10 74/99/10
f 67/89/3 66/137/3 68/138/3 77/90/3
f 200/92/33 189/89/33 67/89/33 78/92/33
f 67/89/21 189/89/21 188/137/21 66/137/21
f 74/99/10 196/99/10 190/135/10 68/135/10
f 66/136/10 188/136/10 184/94/10 62/94/10
f 87/111/7 209/111/7 186/112/7 64/112/7
f 65/107/34 187/107/34 209/111/34 87/111/34
f 97/109/18 219/109/18 211/121/18 89/121/18
f 95/62/20 217/62/20 216/119/20 94/119/20
f 99/128/24 221/128/24 220/110/24 98/110/24
f 96/117/18 218/117/18 214/118/18 92/118/18
f 94/119/14 216/119/14 208/114/14 86/114/14
f 86/114/34 208/114/34 192/71/34 70/71/34
f 91/106/11 213/106/11 187/107/11 65/107/11
f 101/95/34 223/95/34 191/93/34 69/93/34
f 98/110/11 220/110/11 223/95/11 101/95/11
f 64/112/35 186/112/35 226/113/35 104/113/35
f 89/121/10 211/121/10 221/128/10 99/128/10
f 102/108/22 224/108/22 219/109/22 97/109/22
f 104/113/22 226/113/22 218/117/22 96/117/22
f 69/93/7 191/93/7 225/98/7 103/98/7
f 92/118/5 115/132/3 116/63/4 95/62/4
f 119/139/3 115/140/3 114/141/3 118/142/3
f 89/121/3 113/127/3 114/133/3 90/120/3
f 117/143/4 113/144/3 112/145/3 121/146/3
f 98/110/4 88/81/4 112/129/3 99/128/3
f 72/123/4 117/130/4 121/147/3 80/122/3
f 110/88/3 119/134/3 118/131/3 109/125/4
f 115/140/3 119/139/3 120/60/4 116/59/4
f 113/144/3 117/143/4 118/142/3 114/141/3
f 88/148/4 122/149/3 121/146/3 112/145/3
f 88/81/4 100/115/3 71/87/3 122/150/3
f 71/87/3 80/122/3 121/147/3 122/150/3
f 17/4/10 139/4/10 140/5/10 18/5/10
f 149/26/11 124/9/11 2/9/11 27/26/11
f 222/115/36 100/115/36 88/81/36 210/81/36
f 222/115/10 207/116/10 85/116/10 100/115/10
f 207/116/37 227/105/37 105/105/37 85/116/37
f 227/105/14 228/102/14 106/102/14 105/105/14
f 206/103/38 84/103/38 106/102/38 228/102/38
f 206/103/7 205/97/7 83/97/7 84/103/7
f 185/82/39 63/82/39 83/97/39 205/97/39
f 213/106/24 91/106/24 90/120/24 212/120/24
f 199/90/11 77/90/11 68/138/11 190/138/11
f 199/90/40 201/91/40 79/91/40 77/90/40
f 62/94/10 184/94/10 204/96/10 82/96/10
f 92/118/10 214/118/10 212/120/10 90/120/10
f 161/33/37 149/26/37 27/26/37 39/33/37
f 161/33/10 39/33/10 24/32/10 146/32/10
f 146/32/36 24/32/36 44/19/36 166/19/36
f 166/19/21 44/19/21 45/17/21 167/17/21
f 145/16/39 167/17/39 45/17/39 23/16/39
f 145/16/7 23/16/7 22/11/7 144/11/7
f 124/9/38 144/11/38 22/11/38 2/9/38
f 152/21/19 151/38/19 29/38/19 30/21/19
f 138/6/22 129/67/22 7/67/22 16/6/22
f 138/6/41 16/6/41 18/5/41 140/5/41
f 21/12/10 143/12/10 123/10/10 1/10/10
f 29/38/10 151/38/10 153/37/10 31/37/10
f 128/3/42 138/6/42 140/5/42 139/4/42
f 130/7/16 123/10/16 124/9/17 162/8/17
f 123/10/16 143/12/16 144/11/16 124/9/17
f 123/10/16 130/7/16 164/14/16 135/13/16
f 168/15/16 169/18/16 167/17/16 145/16/16
f 167/17/16 169/18/16 142/20/16 166/19/16
f 152/21/16 126/24/43 163/23/43 158/22/16
f 162/8/17 124/9/17 149/26/17 159/25/17
f 145/16/16 144/11/16 143/12/16 168/15/16
f 126/24/43 148/27/16 164/14/16 163/23/43
f 131/28/17 125/31/16 165/30/44 147/29/44
f 132/1/16 161/33/16 146/32/16 154/2/16
f 157/34/43 153/37/16 156/36/17 155/35/43
f 151/38/44 152/21/16 158/22/16 150/39/16
f 165/30/44 157/34/43 155/35/43 147/29/44
f 142/20/16 154/2/16 146/32/16 166/19/16
f 148/27/16 136/48/16 135/13/16 164/14/16
f 136/48/16 148/27/16 125/31/16 172/44/16
f 131/28/17 137/45/17 172/44/16 125/31/16
f 174/49/16 150/39/16 160/51/45 173/50/17
f 178/52/16 133/42/16 170/47/16 179/53/16
f 176/54/16 153/37/16 151/38/44 175/55/16
f 180/56/16 171/46/16 134/41/16 181/57/17
f 181/61/17 242/60/17 238/59/16 177/58/17
f 177/64/17 238/63/16 217/62/16 156/36/17
f 129/65/10 127/66/10 123/10/10 135/13/10
f 128/3/16 127/68/16 129/67/16 138/6/16
f 153/37/16 176/54/16 177/64/17 156/36/17
f 180/72/16 176/75/16 175/74/16 179/73/16
f 150/39/16 174/49/16 175/55/16 151/38/44
f 178/76/16 174/79/16 173/78/17 182/77/17
f 159/25/17 149/26/17 173/50/17 160/51/45
f 133/42/16 178/52/16 182/80/17 141/43/16
f 171/46/16 180/56/16 179/53/16 170/47/16
f 176/75/16 180/72/16 181/61/17 177/58/17
f 174/79/16 178/76/16 179/73/16 175/74/16
f 149/83/17 183/84/17 182/77/17 173/78/17
f 149/26/17 161/33/16 132/1/16 183/85/17
f 132/1/16 141/43/16 182/80/17 183/85/17
f 131/28/7 9/28/7 70/71/7 192/71/7
f 189/89/42 200/92/42 201/91/42 199/90/42
f 191/93/16 223/95/16 185/82/17 184/94/16
f 184/94/16 185/82/17 205/97/17 204/96/17
f 184/94/16 196/99/16 225/98/16 191/93/16
f 229/100/17 206/103/17 228/102/17 230/101/17
f 228/102/17 227/105/17 203/104/17 230/101/17
f 213/106/17 219/109/17 224/108/17 187/107/17
f 223/95/16 220/110/16 210/81/16 185/82/17
f 206/103/17 229/100/17 204/96/17 205/97/17
f 187/107/17 224/108/17 225/98/16 209/111/17
f 192/71/17 208/114/16 226/113/16 186/112/16
f 193/87/17 215/86/17 207/116/17 222/115/17
f 218/117/43 216/119/43 217/62/16 214/118/16
f 212/120/17 211/121/17 219/109/17 213/106/17
f 226/113/16 208/114/16 216/119/43 218/117/43
f 203/104/17 227/105/17 207/116/17 215/86/17
f 209/111/17 225/98/16 196/99/16 197/126/17
f 197/126/17 233/124/17 186/112/16 209/111/17
f 192/71/17 186/112/16 233/124/17 198/70/17
f 235/127/17 234/129/16 221/128/16 211/121/17
f 239/130/16 240/131/16 231/125/16 194/123/16
f 237/132/16 236/133/16 212/120/17 214/118/16
f 241/134/16 242/69/17 195/40/16 232/88/16
f 190/135/10 196/99/10 184/94/10 188/136/10
f 189/89/17 199/90/17 190/138/17 188/137/17
f 214/118/16 217/62/16 238/63/16 237/132/16
f 241/139/16 240/142/16 236/141/16 237/140/16
f 211/121/17 212/120/17 236/133/16 235/127/17
f 239/143/16 243/146/16 234/145/16 235/144/17
f 220/110/16 221/128/16 234/129/16 210/81/16
f 194/123/16 202/122/17 243/147/16 239/130/16
f 232/88/16 231/125/16 240/131/16 241/134/16
f 237/140/16 238/59/16 242/60/17 241/139/16
f 235/144/17 236/141/16 240/142/16 239/143/16
f 210/148/16 234/145/16 243/146/16 244/149/17
f 210/81/16 244/150/17 193/87/17 222/115/17
f 193/87/17 244/150/17 243/147/16 202/122/17
f 59/57/4 120/69/4 73/40/3 12/41/3
f 79/91/10 201/91/10 200/92/10 78/92/10
