# Blender 5.1.0
# www.blender.org
mtllib barriere55_083.mtl
o barriere55.083
v 69.638786 0.406541 -13.957796
v 69.630386 0.597165 -13.895180
v 69.716408 0.643225 -14.536276
v 69.696083 0.684292 -14.384830
v 69.632179 0.406541 -13.999489
v 69.632179 0.372824 -13.999489
v 69.652962 0.406541 -14.154371
v 69.658958 0.643225 -14.108146
v 69.756752 0.643225 -14.836973
v 69.607651 1.574801 -13.725758
v 69.665955 1.574798 -14.160249
v 69.747444 1.574798 -14.767606
v 69.665955 0.406541 -14.160249
v 69.693115 0.406541 -14.362701
v 69.747444 0.406541 -14.767606
v 69.652962 0.372824 -14.154371
v 69.831551 0.224800 -13.941871
v 69.860741 0.224800 -14.159436
v 69.630386 1.574798 -13.895181
v 69.589890 1.411592 -13.593383
v 69.622757 0.406541 -13.838331
v 69.618614 0.558040 -13.807447
v 69.610062 0.558040 -13.743731
v 69.610062 1.334635 -13.743731
v 69.744980 0.684292 -14.749241
v 69.707855 0.643225 -14.472559
v 69.630386 1.295510 -13.895181
v 69.667511 1.249446 -14.171863
v 69.707855 1.249446 -14.472559
v 69.696083 1.208380 -14.384830
v 69.716408 1.249446 -14.536276
v 69.595634 1.519064 -13.636189
v 69.744980 1.208380 -14.749241
v 69.756752 1.249446 -14.836973
v 69.728180 1.208380 -14.624009
v 69.679283 1.208380 -14.259593
v 69.647186 1.208380 -14.020414
v 69.658958 1.249449 -14.108146
v 69.618614 1.334635 -13.807447
v 69.647186 0.684292 -14.020414
v 69.679283 0.684292 -14.259593
v 69.667511 0.643225 -14.171863
v 69.728180 0.684292 -14.624009
v 69.598297 1.295507 -13.656000
v 69.598297 0.597165 -13.656000
v 69.602371 0.442266 -13.686368
v 69.589890 0.546411 -13.593383
v 69.693115 1.574798 -14.362701
v 69.720284 1.574798 -14.565154
v 69.720284 0.406541 -14.565154
v 69.656105 1.295510 -14.086860
v 69.667290 1.295510 -14.170218
v 69.705772 1.295510 -14.457006
v 69.716957 1.295510 -14.540364
v 69.755432 1.295510 -14.827152
v 69.666237 1.514729 -14.162393
v 69.695839 1.514729 -14.382984
v 69.719566 1.514729 -14.559822
v 69.749161 1.514729 -14.780413
v 69.635918 1.514730 -13.936407
v 69.630386 1.514730 -13.895181
v 69.883209 0.406541 -15.779417
v 69.891609 0.597165 -15.842034
v 69.805588 0.643225 -15.200938
v 69.825905 0.684292 -15.352385
v 69.865837 0.406541 -15.740942
v 69.865837 0.372824 -15.740942
v 69.845062 0.406541 -15.586060
v 69.863029 0.643225 -15.629068
v 69.765244 0.643225 -14.900241
v 69.914337 1.574801 -16.011456
v 69.856041 1.574798 -15.576965
v 69.774551 1.574798 -14.969607
v 69.856041 0.406541 -15.576965
v 69.828880 0.406541 -15.374513
v 69.774551 0.406541 -14.969607
v 69.845062 0.372824 -15.586060
v 70.073349 0.224800 -15.743966
v 70.044159 0.224800 -15.526401
v 69.891609 1.574798 -15.842033
v 69.932098 1.411592 -16.143831
v 69.899239 0.406541 -15.898882
v 69.903381 0.558040 -15.929767
v 69.911926 0.558040 -15.993483
v 69.911926 1.334635 -15.993483
v 69.777016 0.684292 -14.987973
v 69.814140 0.643225 -15.264654
v 69.891609 1.295510 -15.842033
v 69.854485 1.249446 -15.565351
v 69.814140 1.249446 -15.264654
v 69.825905 1.208380 -15.352385
v 69.805588 1.249446 -15.200938
v 69.926361 1.519064 -16.101025
v 69.777016 1.208380 -14.987973
v 69.765244 1.249446 -14.900241
v 69.793816 1.208380 -15.113205
v 69.842712 1.208380 -15.477620
v 69.874802 1.208380 -15.716799
v 69.863029 1.249449 -15.629068
v 69.903381 1.334635 -15.929767
v 69.874802 0.684292 -15.716799
v 69.842712 0.684292 -15.477620
v 69.854485 0.643225 -15.565351
v 69.793816 0.684292 -15.113205
v 69.923698 1.295507 -16.081215
v 69.923698 0.597165 -16.081215
v 69.919624 0.442266 -16.050846
v 69.932098 0.546411 -16.143831
v 69.828880 1.574798 -15.374513
v 69.801712 1.574798 -15.172060
v 69.801712 0.406541 -15.172060
v 69.865891 1.295510 -15.650353
v 69.854706 1.295510 -15.566996
v 69.816223 1.295510 -15.280209
v 69.805038 1.295510 -15.196850
v 69.766556 1.295510 -14.910062
v 69.855751 1.514729 -15.574821
v 69.826157 1.514729 -15.354230
v 69.802429 1.514729 -15.177392
v 69.772827 1.514729 -14.956800
v 69.886078 1.514730 -15.800807
v 69.891609 1.514730 -15.842033
v 69.549149 0.406541 -13.969824
v 69.540749 0.597165 -13.907207
v 69.626770 0.643225 -14.548303
v 69.606453 0.684292 -14.396856
v 69.566521 0.406541 -14.008299
v 69.566521 0.372824 -14.008299
v 69.587296 0.406541 -14.163181
v 69.569328 0.643225 -14.120173
v 69.667114 0.643225 -14.849000
v 69.518021 1.574801 -13.737785
v 69.576317 1.574798 -14.172276
v 69.657806 1.574798 -14.779634
v 69.576317 0.406541 -14.172276
v 69.603477 0.406541 -14.374728
v 69.657806 0.406541 -14.779634
v 69.587296 0.372824 -14.163181
v 69.359009 0.224800 -14.005275
v 69.388199 0.224800 -14.222840
v 69.540749 1.574798 -13.907207
v 69.500259 1.411592 -13.605410
v 69.533119 0.406541 -13.850359
v 69.528976 0.558040 -13.819474
v 69.520432 0.558040 -13.755758
v 69.520432 1.334635 -13.755758
v 69.655342 0.684292 -14.761268
v 69.618217 0.643225 -14.484587
v 69.540749 1.295510 -13.907207
v 69.577873 1.249446 -14.183889
v 69.618217 1.249446 -14.484587
v 69.606453 1.208380 -14.396856
v 69.626770 1.249446 -14.548303
v 69.505997 1.519064 -13.648215
v 69.655342 1.208380 -14.761268
v 69.667114 1.249446 -14.849000
v 69.638542 1.208380 -14.636036
v 69.589645 1.208380 -14.271621
v 69.557556 1.208380 -14.032442
v 69.569328 1.249449 -14.120173
v 69.528976 1.334635 -13.819474
v 69.557556 0.684292 -14.032442
v 69.589645 0.684292 -14.271621
v 69.577873 0.643225 -14.183889
v 69.638542 0.684292 -14.636036
v 69.508659 1.295507 -13.668027
v 69.508659 0.597165 -13.668027
v 69.512733 0.442266 -13.698395
v 69.500259 0.546411 -13.605410
v 69.603477 1.574798 -14.374728
v 69.630646 1.574798 -14.577181
v 69.630646 0.406541 -14.577181
v 69.566467 1.295510 -14.098887
v 69.577652 1.295510 -14.182245
v 69.616135 1.295510 -14.469032
v 69.627319 1.295510 -14.552391
v 69.665802 1.295510 -14.839179
v 69.576607 1.514729 -14.174420
v 69.606201 1.514729 -14.395011
v 69.629929 1.514729 -14.571849
v 69.659531 1.514729 -14.792440
v 69.546280 1.514730 -13.948434
v 69.540749 1.514730 -13.907207
v 69.793571 0.406541 -15.791445
v 69.801971 0.597165 -15.854061
v 69.715950 0.643225 -15.212965
v 69.736275 0.684292 -15.364411
v 69.800179 0.406541 -15.749752
v 69.800179 0.372824 -15.749752
v 69.779396 0.406541 -15.594870
v 69.773399 0.643225 -15.641095
v 69.675606 0.643225 -14.912268
v 69.824707 1.574801 -16.023483
v 69.766403 1.574798 -15.588992
v 69.684914 1.574798 -14.981635
v 69.766403 0.406541 -15.588992
v 69.739243 0.406541 -15.386539
v 69.684914 0.406541 -14.981635
v 69.779396 0.372824 -15.594870
v 69.600807 0.224800 -15.807370
v 69.571617 0.224800 -15.589805
v 69.801971 1.574798 -15.854060
v 69.842468 1.411592 -16.155857
v 69.809601 0.406541 -15.910910
v 69.813744 0.558040 -15.941793
v 69.822296 0.558040 -16.005508
v 69.822296 1.334635 -16.005508
v 69.687378 0.684292 -15.000000
v 69.724503 0.643225 -15.276682
v 69.801971 1.295510 -15.854060
v 69.764847 1.249446 -15.577378
v 69.724503 1.249446 -15.276682
v 69.736275 1.208380 -15.364411
v 69.715950 1.249446 -15.212965
v 69.836723 1.519064 -16.113052
v 69.687378 1.208380 -15.000000
v 69.675606 1.249446 -14.912268
v 69.704178 1.208380 -15.125232
v 69.753075 1.208380 -15.489648
v 69.785172 1.208380 -15.728827
v 69.773399 1.249449 -15.641095
v 69.813744 1.334635 -15.941793
v 69.785172 0.684292 -15.728827
v 69.753075 0.684292 -15.489648
v 69.764847 0.643225 -15.577378
v 69.704178 0.684292 -15.125232
v 69.834061 1.295507 -16.093241
v 69.834061 0.597165 -16.093241
v 69.829987 0.442266 -16.062874
v 69.842468 0.546411 -16.155857
v 69.739243 1.574798 -15.386539
v 69.712074 1.574798 -15.184087
v 69.712074 0.406541 -15.184087
v 69.776253 1.295510 -15.662381
v 69.765068 1.295510 -15.579023
v 69.726585 1.295510 -15.292235
v 69.715401 1.295510 -15.208877
v 69.676926 1.295510 -14.922089
v 69.766121 1.514729 -15.586848
v 69.736519 1.514729 -15.366257
v 69.712791 1.514729 -15.189419
v 69.683197 1.514729 -14.968828
v 69.796440 1.514730 -15.812834
v 69.801971 1.514730 -15.854060
vn -0.0698 0.8511 0.5203
vn 0.5797 0.8111 0.0778
vn 0.9911 -0.0000 0.1330
vn 0.9911 -0.0001 0.1330
vn 0.9911 0.0001 0.1330
vn -0.0000 1.0000 -0.0000
vn -0.0302 -0.9739 0.2249
vn -0.0988 -0.6693 0.7364
vn -0.0000 -1.0000 -0.0000
vn -0.1330 -0.0000 0.9911
vn -0.1234 0.3729 0.9196
vn -0.1302 0.2024 0.9706
vn 0.0560 0.9071 -0.4171
vn -0.9911 -0.0001 -0.1330
vn -0.9911 -0.0002 -0.1330
vn 0.0560 -0.9072 -0.4171
vn 0.0560 -0.9071 -0.4171
vn -0.0560 -0.9071 0.4171
vn 0.1330 -0.0000 -0.9911
vn -0.0560 0.9071 0.4171
vn 0.0698 0.8511 -0.5203
vn -0.9911 -0.0000 -0.1330
vn 0.0302 -0.9739 -0.2249
vn 0.0988 -0.6693 -0.7364
vn 0.1234 0.3729 -0.9196
vn 0.9911 -0.0000 0.1329
vn 0.1302 0.2024 -0.9706
vn 0.0538 -0.9146 -0.4007
vn -0.0538 -0.9146 0.4007
vn -0.0537 0.9146 0.4007
vn 0.0538 0.9146 -0.4007
vn -0.1299 0.2154 0.9679
vn -0.0538 0.9146 0.4007
vn 0.1299 0.2154 -0.9679
vn -0.5797 0.8111 -0.0778
vn -0.9911 0.0001 -0.1330
vn -0.9911 -0.0000 -0.1329
vt 0.563424 0.076340
vt 0.553130 0.073518
vt 0.930572 0.423953
vt 0.921307 0.379121
vt 0.987792 0.379121
vt 0.977903 0.423953
vt 0.607372 0.029178
vt 0.597289 0.031257
vt 0.582896 0.026846
vt 0.590093 0.017196
vt 0.572813 0.024865
vt 0.576362 0.017196
vt 0.613360 0.017196
vt 0.614695 0.029178
vt 0.558897 0.019004
vt 0.565490 0.024865
vt 0.555407 0.026846
vt 0.548211 0.024277
vt 0.555407 0.062200
vt 0.548211 0.068077
vt 0.639171 0.057790
vt 0.624778 0.057790
vt 0.624778 0.031257
vt 0.639171 0.031257
vt 0.597289 0.057790
vt 0.582896 0.062201
vt 0.649254 0.029178
vt 0.691136 0.029178
vt 0.681053 0.031257
vt 0.666660 0.031257
vt 0.656577 0.029178
vt 0.565490 0.064181
vt 0.572813 0.064181
vt 0.666660 0.057790
vt 0.681053 0.057790
vt 0.691136 0.059869
vt 0.656577 0.059869
vt 0.649254 0.059869
vt 0.614695 0.059869
vt 0.706379 0.076340
vt 0.683164 0.076340
vt 0.613360 0.076340
vt 0.582896 0.076340
vt 0.659896 0.017196
vt 0.683164 0.017196
vt 0.659896 0.076340
vt 0.636628 0.076340
vt 0.636628 0.017196
vt 0.614506 0.062201
vt 0.604926 0.062201
vt 0.607372 0.059869
vt 0.613607 0.073299
vt 0.638959 0.073299
vt 0.657047 0.062201
vt 0.647466 0.062201
vt 0.659283 0.073299
vt 0.684635 0.073299
vt 0.688839 0.081258
vt 0.699816 0.081258
vt 0.706005 0.126709
vt 0.682651 0.126709
vt 0.698407 0.059869
vt 0.699536 0.062201
vt 0.690007 0.062201
vt 0.612500 0.017196
vt 0.594699 0.017196
vt 0.977903 0.434165
vt 0.930572 0.434165
vt 0.704907 0.073299
vt 0.706379 0.017196
vt 0.698407 0.029178
vt 0.653445 0.126709
vt 0.630032 0.126709
vt 0.639832 0.081258
vt 0.650869 0.081258
vt 0.600826 0.126709
vt 0.570905 0.126710
vt 0.590825 0.081258
vt 0.601862 0.081258
vt 0.587634 0.073299
vt 0.806647 0.062201
vt 0.806647 0.026846
vt 0.565447 0.081258
vt 0.565447 0.126710
vt 0.582896 0.073299
vt 0.836413 0.073518
vt 0.826118 0.076340
vt 0.729647 0.076340
vt 0.978547 0.423953
vt 0.931216 0.423953
vt 0.921327 0.379121
vt 0.987812 0.379121
vt 0.782171 0.029178
vt 0.799450 0.017196
vt 0.792254 0.031257
vt 0.813181 0.017196
vt 0.816730 0.024865
vt 0.774848 0.029178
vt 0.776183 0.017196
vt 0.830646 0.019004
vt 0.841332 0.024277
vt 0.834136 0.026846
vt 0.824053 0.024865
vt 0.841332 0.068077
vt 0.834136 0.062200
vt 0.750372 0.057790
vt 0.750372 0.031257
vt 0.764765 0.031257
vt 0.764765 0.057790
vt 0.792254 0.057790
vt 0.740289 0.029178
vt 0.732966 0.029178
vt 0.722883 0.031257
vt 0.708490 0.031257
vt 0.816730 0.064181
vt 0.824053 0.064181
vt 0.722883 0.057790
vt 0.732966 0.059869
vt 0.708490 0.057790
vt 0.740289 0.059869
vt 0.774848 0.059869
vt 0.806647 0.076340
vt 0.776183 0.076340
vt 0.729647 0.017196
vt 0.752915 0.076340
vt 0.752915 0.017196
vt 0.775037 0.062201
vt 0.782171 0.059869
vt 0.784617 0.062201
vt 0.775936 0.073299
vt 0.750584 0.073299
vt 0.732496 0.062201
vt 0.742077 0.062201
vt 0.730260 0.073299
vt 0.777043 0.017196
vt 0.794844 0.017196
vt 0.978547 0.434165
vt 0.931216 0.434165
vt 0.735211 0.126709
vt 0.737787 0.081258
vt 0.748824 0.081258
vt 0.758624 0.126709
vt 0.787830 0.126709
vt 0.786794 0.081258
vt 0.797831 0.081258
vt 0.817751 0.126710
vt 0.801909 0.073299
vt 0.823209 0.081258
vt 0.823209 0.126710
vt 0.806647 0.073299
s 1
usemtl initialShadingGroup.004
f 10/1/1 132/1/1 154/2/1 32/2/1
f 6/3/2 17/4/2 18/5/2 16/6/2
f 8/7/3 40/8/3 2/9/3 1/10/3
f 1/10/3 2/9/3 22/11/3 21/12/3
f 1/10/3 13/13/3 42/14/3 8/7/3
f 46/15/3 23/16/3 45/17/3 47/18/3
f 45/17/3 44/19/3 20/20/3 47/18/3
f 30/21/3 36/22/3 41/23/3 4/24/3
f 40/8/3 37/25/3 27/26/3 2/9/3
f 23/16/3 46/15/3 21/12/3 22/11/3
f 4/24/3 41/23/3 42/14/3 26/27/3
f 9/28/3 25/29/4 43/30/4 3/31/3
f 10/1/3 32/2/3 24/32/3 39/33/3
f 35/34/3 33/35/3 34/36/5 31/37/4
f 29/38/4 28/39/5 36/22/3 30/21/3
f 43/30/4 25/29/4 33/35/3 35/34/3
f 73/40/6 195/40/6 134/41/6 12/41/6
f 46/15/7 168/15/7 143/12/7 21/12/7
f 11/42/6 133/42/6 141/43/6 19/43/6
f 47/18/8 169/18/8 168/15/8 46/15/8
f 50/44/9 172/44/9 137/45/9 15/45/9
f 19/43/6 141/43/6 132/1/6 10/1/6
f 20/20/3 44/19/3 24/32/3 32/2/3
f 49/46/6 171/46/6 170/47/6 48/47/6
f 26/27/3 42/14/3 13/13/3 14/48/3
f 14/48/3 50/44/3 3/31/3 26/27/3
f 9/28/3 3/31/3 50/44/3 15/45/3
f 52/49/3 51/50/3 38/51/3 28/39/5
f 56/52/3 57/53/3 48/47/3 11/42/4
f 54/54/3 53/55/3 29/38/4 31/37/4
f 58/56/3 59/57/4 12/41/4 49/46/3
f 55/58/3 116/59/3 120/60/3 59/61/4
f 13/13/9 135/13/9 136/48/9 14/48/9
f 20/20/10 142/20/10 169/18/10 47/18/10
f 34/36/5 95/62/3 116/63/3 55/64/3
f 48/47/6 170/47/6 133/42/6 11/42/6
f 32/2/11 154/2/11 142/20/11 20/20/11
f 14/48/9 136/48/9 172/44/9 50/44/9
f 7/65/9 13/13/9 1/10/9 5/66/9
f 6/3/3 16/6/3 7/67/3 5/68/3
f 139/4/12 17/4/12 6/3/12 128/3/12
f 5/68/10 127/68/10 128/3/10 6/3/10
f 7/65/9 129/65/9 135/13/9 13/13/9
f 1/10/9 123/10/9 127/66/9 5/66/9
f 3/31/6 125/31/6 148/27/6 26/27/6
f 26/27/13 148/27/13 126/24/13 4/24/13
f 134/41/14 195/40/15 242/69/14 181/57/14
f 156/36/9 217/62/9 95/62/9 34/36/9
f 33/35/16 155/35/16 156/36/16 34/36/16
f 37/25/17 159/25/17 160/51/17 38/51/17
f 31/37/18 153/37/18 157/34/18 35/34/18
f 25/29/19 147/29/19 155/35/19 33/35/19
f 9/28/13 131/28/13 147/29/13 25/29/13
f 4/24/19 126/24/19 152/21/19 30/21/19
f 8/7/13 130/7/13 162/8/13 40/8/13
f 40/8/19 162/8/19 159/25/19 37/25/19
f 43/30/20 165/30/20 125/31/20 3/31/20
f 38/51/9 160/51/9 150/39/9 28/39/9
f 76/70/3 70/71/3 9/28/3 15/45/3
f 36/22/10 158/22/10 163/23/10 41/23/10
f 35/34/10 157/34/10 165/30/10 43/30/10
f 42/14/6 164/14/6 130/7/6 8/7/6
f 28/39/18 150/39/18 158/22/18 36/22/18
f 31/37/4 34/36/5 55/64/3 54/54/3
f 58/72/3 57/73/3 53/74/3 54/75/3
f 28/39/5 29/38/4 53/55/3 52/49/3
f 56/76/3 60/77/3 51/78/3 52/79/3
f 37/25/3 38/51/3 51/50/3 27/26/3
f 11/42/4 19/43/4 60/80/3 56/52/3
f 49/46/3 48/47/3 57/53/3 58/56/3
f 210/81/19 88/81/19 63/82/19 185/82/19
f 54/75/3 55/58/3 59/61/4 58/72/3
f 52/79/3 53/74/3 57/73/3 56/76/3
f 27/83/3 51/78/3 60/77/3 61/84/3
f 27/26/3 61/85/3 10/1/3 39/33/3
f 10/1/3 61/85/3 60/80/3 19/43/4
f 12/41/6 134/41/6 171/46/6 49/46/6
f 41/23/20 163/23/20 164/14/20 42/14/20
f 15/45/9 137/45/9 198/70/9 76/70/9
f 93/86/21 215/86/21 193/87/21 71/87/21
f 110/88/6 232/88/6 195/40/6 73/40/6
f 67/89/2 77/90/2 79/91/2 78/92/2
f 69/93/3 62/94/3 63/82/3 101/95/3
f 62/94/3 82/96/3 83/97/3 63/82/3
f 62/94/3 69/93/3 103/98/3 74/99/3
f 107/100/4 108/101/4 106/102/4 84/103/4
f 106/102/4 108/101/4 81/104/3 105/105/3
f 91/106/3 65/107/5 102/108/5 97/109/3
f 101/95/3 63/82/3 88/81/3 98/110/4
f 84/103/4 83/97/3 82/96/3 107/100/4
f 65/107/5 87/111/3 103/98/3 102/108/5
f 70/71/3 64/112/3 104/113/4 86/114/4
f 71/87/3 100/115/3 85/116/3 93/86/3
f 96/117/3 92/118/3 95/62/3 94/119/3
f 90/120/3 91/106/3 97/109/3 89/121/3
f 104/113/4 96/117/3 94/119/3 86/114/4
f 198/70/22 137/45/22 131/28/22 192/71/22
f 82/96/23 204/96/23 229/100/23 107/100/23
f 80/122/6 202/122/6 194/123/6 72/123/6
f 107/100/24 229/100/24 230/101/24 108/101/24
f 76/70/9 198/70/9 233/124/9 111/124/9
f 71/87/6 193/87/6 202/122/6 80/122/6
f 81/104/3 93/86/3 85/116/3 105/105/3
f 109/125/6 231/125/6 232/88/6 110/88/6
f 87/111/3 75/126/3 74/99/3 103/98/3
f 75/126/3 87/111/3 64/112/3 111/124/3
f 70/71/3 76/70/3 111/124/3 64/112/3
f 113/127/3 89/121/3 99/128/4 112/129/3
f 117/130/3 72/123/3 109/125/3 118/131/3
f 115/132/3 92/118/3 90/120/3 114/133/3
f 119/134/3 110/88/3 73/40/4 120/69/3
f 75/126/9 197/126/9 196/99/9 74/99/9
f 108/101/19 230/101/19 203/104/19 81/104/19
f 72/123/6 194/123/6 231/125/6 109/125/6
f 103/98/13 225/98/13 224/108/13 102/108/13
f 81/104/25 203/104/25 215/86/25 93/86/25
f 111/124/9 233/124/9 197/126/9 75/126/9
f 68/135/9 66/136/9 62/94/9 74/99/9
f 67/89/26 66/137/26 68/138/26 77/90/26
f 200/92/27 189/89/27 67/89/27 78/92/27
f 67/89/19 189/89/19 188/137/19 66/137/19
f 74/99/9 196/99/9 190/135/9 68/135/9
f 66/136/9 188/136/9 184/94/9 62/94/9
f 87/111/6 209/111/6 186/112/6 64/112/6
f 65/107/20 187/107/20 209/111/20 87/111/20
f 97/109/17 219/109/17 211/121/17 89/121/17
f 95/62/18 217/62/18 216/119/18 94/119/18
f 99/128/18 221/128/18 220/110/18 98/110/18
f 96/117/17 218/117/17 214/118/17 92/118/17
f 94/119/10 216/119/10 208/114/10 86/114/10
f 86/114/20 208/114/20 192/71/20 70/71/20
f 91/106/10 213/106/10 187/107/10 65/107/10
f 101/95/20 223/95/20 191/93/20 69/93/20
f 98/110/10 220/110/10 223/95/10 101/95/10
f 64/112/13 186/112/13 226/113/13 104/113/13
f 89/121/9 211/121/9 221/128/9 99/128/9
f 102/108/19 224/108/19 219/109/19 97/109/19
f 104/113/19 226/113/19 218/117/19 96/117/19
f 69/93/6 191/93/6 225/98/6 103/98/6
f 92/118/3 115/132/3 116/63/3 95/62/3
f 119/139/3 115/140/3 114/141/3 118/142/3
f 89/121/3 113/127/3 114/133/3 90/120/3
f 117/143/3 113/144/3 112/145/3 121/146/3
f 98/110/4 88/81/3 112/129/3 99/128/4
f 72/123/3 117/130/3 121/147/3 80/122/3
f 110/88/3 119/134/3 118/131/3 109/125/3
f 115/140/3 119/139/3 120/60/3 116/59/3
f 113/144/3 117/143/3 118/142/3 114/141/3
f 88/148/3 122/149/3 121/146/3 112/145/3
f 88/81/3 100/115/3 71/87/3 122/150/3
f 71/87/3 80/122/3 121/147/3 122/150/3
f 17/4/9 139/4/9 140/5/9 18/5/9
f 149/26/10 124/9/10 2/9/10 27/26/10
f 222/115/28 100/115/28 88/81/28 210/81/28
f 222/115/9 207/116/9 85/116/9 100/115/9
f 207/116/29 227/105/29 105/105/29 85/116/29
f 227/105/10 228/102/10 106/102/10 105/105/10
f 206/103/30 84/103/30 106/102/30 228/102/30
f 206/103/6 205/97/6 83/97/6 84/103/6
f 185/82/31 63/82/31 83/97/31 205/97/31
f 213/106/18 91/106/18 90/120/18 212/120/18
f 199/90/10 77/90/10 68/138/10 190/138/10
f 199/90/32 201/91/32 79/91/32 77/90/32
f 62/94/9 184/94/9 204/96/9 82/96/9
f 92/118/9 214/118/9 212/120/9 90/120/9
f 161/33/29 149/26/29 27/26/29 39/33/29
f 161/33/9 39/33/9 24/32/9 146/32/9
f 146/32/28 24/32/28 44/19/28 166/19/28
f 166/19/19 44/19/19 45/17/19 167/17/19
f 145/16/31 167/17/31 45/17/31 23/16/31
f 145/16/6 23/16/6 22/11/6 144/11/6
f 124/9/33 144/11/33 22/11/33 2/9/33
f 152/21/17 151/38/17 29/38/17 30/21/17
f 138/6/19 129/67/19 7/67/19 16/6/19
f 138/6/34 16/6/34 18/5/34 140/5/34
f 21/12/9 143/12/9 123/10/9 1/10/9
f 29/38/9 151/38/9 153/37/9 31/37/9
f 128/3/35 138/6/35 140/5/35 139/4/35
f 130/7/22 123/10/22 124/9/22 162/8/22
f 123/10/22 143/12/22 144/11/22 124/9/22
f 123/10/22 130/7/22 164/14/22 135/13/22
f 168/15/22 169/18/14 167/17/14 145/16/22
f 167/17/14 169/18/14 142/20/22 166/19/22
f 152/21/14 126/24/15 163/23/36 158/22/14
f 162/8/22 124/9/22 149/26/22 159/25/14
f 145/16/22 144/11/22 143/12/22 168/15/22
f 126/24/15 148/27/22 164/14/22 163/23/36
f 131/28/22 125/31/22 165/30/14 147/29/14
f 132/1/22 161/33/22 146/32/22 154/2/22
f 157/34/36 153/37/36 156/36/15 155/35/36
f 151/38/22 152/21/14 158/22/14 150/39/14
f 165/30/14 157/34/36 155/35/36 147/29/14
f 142/20/22 154/2/22 146/32/22 166/19/22
f 148/27/22 136/48/22 135/13/22 164/14/22
f 136/48/22 148/27/22 125/31/22 172/44/22
f 131/28/22 137/45/22 172/44/22 125/31/22
f 174/49/22 150/39/14 160/51/15 173/50/22
f 178/52/22 133/42/22 170/47/22 179/53/22
f 176/54/22 153/37/36 151/38/22 175/55/22
f 180/56/22 171/46/22 134/41/14 181/57/14
f 181/61/14 242/60/14 238/59/36 177/58/36
f 177/64/36 238/63/36 217/62/36 156/36/15
f 129/65/9 127/66/9 123/10/9 135/13/9
f 128/3/37 127/68/37 129/67/37 138/6/37
f 153/37/36 176/54/22 177/64/36 156/36/15
f 180/72/22 176/75/22 175/74/22 179/73/22
f 150/39/14 174/49/22 175/55/22 151/38/22
f 178/76/22 174/79/22 173/78/22 182/77/22
f 159/25/14 149/26/22 173/50/22 160/51/15
f 133/42/22 178/52/22 182/80/22 141/43/22
f 171/46/22 180/56/22 179/53/22 170/47/22
f 176/75/22 180/72/22 181/61/14 177/58/36
f 174/79/22 178/76/22 179/73/22 175/74/22
f 149/83/22 183/84/22 182/77/22 173/78/22
f 149/26/22 161/33/22 132/1/22 183/85/22
f 132/1/22 141/43/22 182/80/22 183/85/22
f 131/28/6 9/28/6 70/71/6 192/71/6
f 189/89/35 200/92/35 201/91/35 199/90/35
f 191/93/22 223/95/22 185/82/22 184/94/22
f 184/94/22 185/82/22 205/97/22 204/96/22
f 184/94/22 196/99/22 225/98/22 191/93/22
f 229/100/22 206/103/22 228/102/22 230/101/22
f 228/102/22 227/105/22 203/104/22 230/101/22
f 213/106/36 219/109/36 224/108/22 187/107/22
f 223/95/22 220/110/22 210/81/22 185/82/22
f 206/103/22 229/100/22 204/96/22 205/97/22
f 187/107/22 224/108/22 225/98/22 209/111/22
f 192/71/22 208/114/22 226/113/22 186/112/22
f 193/87/22 215/86/22 207/116/22 222/115/22
f 218/117/36 216/119/36 217/62/36 214/118/22
f 212/120/14 211/121/22 219/109/36 213/106/36
f 226/113/22 208/114/22 216/119/36 218/117/36
f 203/104/22 227/105/22 207/116/22 215/86/22
f 209/111/22 225/98/22 196/99/22 197/126/22
f 197/126/22 233/124/22 186/112/22 209/111/22
f 192/71/22 186/112/22 233/124/22 198/70/22
f 235/127/22 234/129/22 221/128/22 211/121/22
f 239/130/22 240/131/22 231/125/22 194/123/14
f 237/132/22 236/133/22 212/120/14 214/118/22
f 241/134/22 242/69/14 195/40/15 232/88/22
f 190/135/9 196/99/9 184/94/9 188/136/9
f 189/89/22 199/90/22 190/138/22 188/137/22
f 214/118/22 217/62/36 238/63/36 237/132/22
f 241/139/22 240/142/22 236/141/22 237/140/22
f 211/121/22 212/120/14 236/133/22 235/127/22
f 239/143/22 243/146/22 234/145/22 235/144/22
f 220/110/22 221/128/22 234/129/22 210/81/22
f 194/123/14 202/122/22 243/147/22 239/130/22
f 232/88/22 231/125/22 240/131/22 241/134/22
f 237/140/22 238/59/36 242/60/14 241/139/22
f 235/144/22 236/141/22 240/142/22 239/143/22
f 210/148/22 234/145/22 243/146/22 244/149/22
f 210/81/22 244/150/22 193/87/22 222/115/22
f 193/87/22 244/150/22 243/147/22 202/122/22
f 59/57/4 120/69/3 73/40/4 12/41/4
f 79/91/9 201/91/9 200/92/9 78/92/9
