# Blender 5.1.0
# www.blender.org
mtllib barriere55_026.mtl
o barriere55.026
v 35.715797 0.406541 -14.448086
v 35.652622 0.597165 -14.447557
v 36.299442 0.643225 -14.452966
v 36.146645 0.684292 -14.451688
v 35.756138 0.406541 -14.460518
v 35.756138 0.372824 -14.460518
v 35.912403 0.406541 -14.461824
v 35.867489 0.643225 -14.449354
v 36.602821 0.643225 -14.455503
v 35.481689 1.574801 -14.446128
v 35.920059 1.574798 -14.449794
v 36.532837 1.574798 -14.454917
v 35.920059 0.406541 -14.449794
v 36.124317 0.406541 -14.451502
v 36.532837 0.406541 -14.454917
v 35.912403 0.372824 -14.461824
v 35.727264 0.224800 -14.255008
v 35.946770 0.224800 -14.256844
v 35.652626 1.574798 -14.447557
v 35.348133 1.411592 -14.445011
v 35.595268 0.406541 -14.447078
v 35.564106 0.558040 -14.446817
v 35.499825 0.558040 -14.446280
v 35.499825 1.334635 -14.446280
v 36.514309 0.684292 -14.454762
v 36.235157 0.643225 -14.452428
v 35.652626 1.295510 -14.447557
v 35.931774 1.249446 -14.449891
v 36.235157 1.249446 -14.452428
v 36.146645 1.208380 -14.451688
v 36.299442 1.249446 -14.452966
v 35.391319 1.519064 -14.445373
v 36.514309 1.208380 -14.454762
v 36.602821 1.249446 -14.455503
v 36.387959 1.208380 -14.453706
v 36.020290 1.208380 -14.450631
v 35.778976 1.208380 -14.448614
v 35.867489 1.249449 -14.449354
v 35.564106 1.334635 -14.446817
v 35.778976 0.684292 -14.448614
v 36.020290 0.684292 -14.450631
v 35.931774 0.643225 -14.449891
v 36.387959 0.684292 -14.453706
v 35.411308 1.295507 -14.445539
v 35.411308 0.597165 -14.445539
v 35.441948 0.442266 -14.445796
v 35.348133 0.546411 -14.445011
v 36.124317 1.574798 -14.451502
v 36.328579 1.574798 -14.453209
v 36.328579 0.406541 -14.453209
v 35.846016 1.295510 -14.449175
v 35.930115 1.295510 -14.449878
v 36.219463 1.295510 -14.452297
v 36.303566 1.295510 -14.453000
v 36.592915 1.295510 -14.455420
v 35.922222 1.514729 -14.449812
v 36.144783 1.514729 -14.451673
v 36.323196 1.514729 -14.453164
v 36.545757 1.514729 -14.455025
v 35.694218 1.514730 -14.447906
v 35.652626 1.514730 -14.447557
v 37.553680 0.406541 -14.463452
v 37.616856 0.597165 -14.463981
v 36.970036 0.643225 -14.458572
v 37.122833 0.684292 -14.459850
v 37.513138 0.406541 -14.475208
v 37.513138 0.372824 -14.475208
v 37.356873 0.406541 -14.473902
v 37.401989 0.643225 -14.462184
v 36.666656 0.643225 -14.456036
v 37.787788 1.574801 -14.465410
v 37.349419 1.574798 -14.461744
v 36.736641 1.574798 -14.456621
v 37.349419 0.406541 -14.461744
v 37.145161 0.406541 -14.460037
v 36.736641 0.406541 -14.456621
v 37.356873 0.372824 -14.473902
v 37.545444 0.224800 -14.270210
v 37.325939 0.224800 -14.268374
v 37.616856 1.574798 -14.463981
v 37.921345 1.411592 -14.466527
v 37.674210 0.406541 -14.464460
v 37.705372 0.558040 -14.464721
v 37.769657 0.558040 -14.465259
v 37.769657 1.334635 -14.465259
v 36.755173 0.684292 -14.456776
v 37.034321 0.643225 -14.459110
v 37.616856 1.295510 -14.463981
v 37.337704 1.249446 -14.461647
v 37.034321 1.249446 -14.459110
v 37.122833 1.208380 -14.459850
v 36.970036 1.249446 -14.458572
v 37.878159 1.519064 -14.466166
v 36.755173 1.208380 -14.456776
v 36.666656 1.249446 -14.456036
v 36.881519 1.208380 -14.457832
v 37.249187 1.208380 -14.460907
v 37.490501 1.208380 -14.462924
v 37.401989 1.249449 -14.462184
v 37.705372 1.334635 -14.464721
v 37.490501 0.684292 -14.462924
v 37.249187 0.684292 -14.460907
v 37.337704 0.643225 -14.461647
v 36.881519 0.684292 -14.457832
v 37.858170 1.295507 -14.465999
v 37.858170 0.597165 -14.465999
v 37.827530 0.442266 -14.465742
v 37.921345 0.546411 -14.466527
v 37.145161 1.574798 -14.460037
v 36.940903 1.574798 -14.458329
v 36.940903 0.406541 -14.458329
v 37.423466 1.295510 -14.462364
v 37.339363 1.295510 -14.461660
v 37.050014 1.295510 -14.459241
v 36.965912 1.295510 -14.458538
v 36.676563 1.295510 -14.456119
v 37.347256 1.514729 -14.461727
v 37.124699 1.514729 -14.459866
v 36.946281 1.514729 -14.458374
v 36.723721 1.514729 -14.456513
v 37.575260 1.514730 -14.463633
v 37.616856 1.514730 -14.463981
v 35.715042 0.406541 -14.538522
v 35.651867 0.597165 -14.537993
v 36.298687 0.643225 -14.543402
v 36.145889 0.684292 -14.542124
v 35.755585 0.406541 -14.526766
v 35.755585 0.372824 -14.526766
v 35.911850 0.406541 -14.528072
v 35.866734 0.643225 -14.539790
v 36.602066 0.643225 -14.545938
v 35.480934 1.574801 -14.536564
v 35.919304 1.574798 -14.540230
v 36.532082 1.574798 -14.545353
v 35.919304 0.406541 -14.540230
v 36.123562 0.406541 -14.541937
v 36.532082 0.406541 -14.545353
v 35.911850 0.372824 -14.528072
v 35.723278 0.224800 -14.731764
v 35.942783 0.224800 -14.733600
v 35.651867 1.574798 -14.537993
v 35.347378 1.411592 -14.535447
v 35.594513 0.406541 -14.537514
v 35.563351 0.558040 -14.537253
v 35.499065 0.558040 -14.536716
v 35.499065 1.334635 -14.536716
v 36.513550 0.684292 -14.545198
v 36.234402 0.643225 -14.542864
v 35.651867 1.295510 -14.537993
v 35.931019 1.249446 -14.540327
v 36.234402 1.249446 -14.542864
v 36.145889 1.208380 -14.542124
v 36.298687 1.249446 -14.543402
v 35.390564 1.519064 -14.535809
v 36.513550 1.208380 -14.545198
v 36.602066 1.249446 -14.545938
v 36.387203 1.208380 -14.544142
v 36.019535 1.208380 -14.541067
v 35.778221 1.208380 -14.539050
v 35.866734 1.249449 -14.539790
v 35.563351 1.334635 -14.537253
v 35.778221 0.684292 -14.539050
v 36.019535 0.684292 -14.541067
v 35.931019 0.643225 -14.540327
v 36.387203 0.684292 -14.544142
v 35.410553 1.295507 -14.535975
v 35.410553 0.597165 -14.535975
v 35.441193 0.442266 -14.536232
v 35.347378 0.546411 -14.535447
v 36.123562 1.574798 -14.541938
v 36.327820 1.574798 -14.543645
v 36.327820 0.406541 -14.543645
v 35.845257 1.295510 -14.539611
v 35.929359 1.295510 -14.540314
v 36.218708 1.295510 -14.542733
v 36.302811 1.295510 -14.543436
v 36.592159 1.295510 -14.545856
v 35.921467 1.514729 -14.540248
v 36.144024 1.514729 -14.542109
v 36.322441 1.514729 -14.543600
v 36.545002 1.514729 -14.545462
v 35.693462 1.514730 -14.538342
v 35.651867 1.514730 -14.537993
v 37.552925 0.406541 -14.553888
v 37.616100 0.597165 -14.554417
v 36.969280 0.643225 -14.549008
v 37.122078 0.684292 -14.550286
v 37.512585 0.406541 -14.541456
v 37.512585 0.372824 -14.541456
v 37.356319 0.406541 -14.540150
v 37.401234 0.643225 -14.552620
v 36.665901 0.643225 -14.546472
v 37.787033 1.574801 -14.555846
v 37.348663 1.574798 -14.552181
v 36.735886 1.574798 -14.547057
v 37.348663 0.406541 -14.552180
v 37.144405 0.406541 -14.550473
v 36.735886 0.406541 -14.547057
v 37.356319 0.372824 -14.540150
v 37.541458 0.224800 -14.746966
v 37.321953 0.224800 -14.745131
v 37.616096 1.574798 -14.554417
v 37.920589 1.411592 -14.556963
v 37.673454 0.406541 -14.554896
v 37.704617 0.558040 -14.555157
v 37.768898 0.558040 -14.555695
v 37.768898 1.334635 -14.555695
v 36.754414 0.684292 -14.547212
v 37.033566 0.643225 -14.549546
v 37.616096 1.295510 -14.554417
v 37.336948 1.249446 -14.552083
v 37.033566 1.249446 -14.549546
v 37.122078 1.208380 -14.550286
v 36.969280 1.249446 -14.549008
v 37.877403 1.519064 -14.556602
v 36.754414 1.208380 -14.547212
v 36.665901 1.249446 -14.546472
v 36.880764 1.208380 -14.548268
v 37.248432 1.208380 -14.551343
v 37.489746 1.208380 -14.553360
v 37.401234 1.249449 -14.552620
v 37.704617 1.334635 -14.555157
v 37.489746 0.684292 -14.553360
v 37.248432 0.684292 -14.551343
v 37.336948 0.643225 -14.552083
v 36.880764 0.684292 -14.548268
v 37.857414 1.295507 -14.556435
v 37.857414 0.597165 -14.556435
v 37.826775 0.442266 -14.556178
v 37.920589 0.546411 -14.556963
v 37.144405 1.574798 -14.550473
v 36.940144 1.574798 -14.548765
v 36.940144 0.406541 -14.548765
v 37.422707 1.295510 -14.552800
v 37.338608 1.295510 -14.552096
v 37.049259 1.295510 -14.549677
v 36.965157 1.295510 -14.548974
v 36.675808 1.295510 -14.546555
v 37.346500 1.514729 -14.552163
v 37.123940 1.514729 -14.550302
v 36.945526 1.514729 -14.548810
v 36.722965 1.514729 -14.546949
v 37.574505 1.514730 -14.554070
v 37.616096 1.514730 -14.554417
vn -0.5249 0.8511 0.0044
vn 0.0049 0.8111 0.5849
vn 0.0084 -0.0000 1.0000
vn 0.0083 -0.0000 1.0000
vn -0.0000 1.0000 -0.0000
vn -0.2269 -0.9739 0.0019
vn -0.7430 -0.6693 0.0062
vn -0.0000 -1.0000 -0.0000
vn -1.0000 -0.0000 0.0084
vn -0.9278 0.3729 0.0077
vn -0.9793 0.2024 0.0082
vn -1.0000 -0.0000 0.0083
vn 0.4208 0.9071 -0.0035
vn -0.0084 -0.0000 -1.0000
vn 0.4208 -0.9071 -0.0035
vn 0.4209 -0.9071 -0.0035
vn -0.4208 -0.9071 0.0035
vn 1.0000 -0.0000 -0.0084
vn 0.4209 0.9071 -0.0035
vn -0.4208 0.9071 0.0035
vn 0.5249 0.8511 -0.0044
vn 0.2269 -0.9739 -0.0019
vn 0.7429 -0.6693 -0.0062
vn 0.9278 0.3729 -0.0077
vn 0.9793 0.2024 -0.0082
vn 1.0000 -0.0000 -0.0083
vn -0.4209 0.9071 0.0035
vn -0.4209 -0.9071 0.0035
vn 0.4042 -0.9146 -0.0034
vn -0.4043 -0.9146 0.0034
vn -0.4043 0.9146 0.0034
vn 0.4043 0.9146 -0.0034
vn -0.9765 0.2154 0.0082
vn -0.4042 -0.9146 0.0034
vn 0.4043 -0.9146 -0.0034
vn -0.4042 0.9146 0.0034
vn 0.9765 0.2155 -0.0082
vn -0.0049 0.8111 -0.5849
vt 0.563424 0.076340
vt 0.553130 0.073518
vt 0.930572 0.423953
vt 0.921307 0.379121
vt 0.987792 0.379121
vt 0.977903 0.423953
vt 0.607372 0.029178
vt 0.597289 0.031257
vt 0.582896 0.026846
vt 0.590093 0.017196
vt 0.572813 0.024865
vt 0.576362 0.017196
vt 0.613360 0.017196
vt 0.614695 0.029178
vt 0.558897 0.019004
vt 0.565490 0.024865
vt 0.555407 0.026846
vt 0.548211 0.024277
vt 0.555407 0.062200
vt 0.548211 0.068077
vt 0.639171 0.057790
vt 0.624778 0.057790
vt 0.624778 0.031257
vt 0.639171 0.031257
vt 0.597289 0.057790
vt 0.582896 0.062201
vt 0.649254 0.029178
vt 0.691136 0.029178
vt 0.681053 0.031257
vt 0.666660 0.031257
vt 0.656577 0.029178
vt 0.565490 0.064181
vt 0.572813 0.064181
vt 0.666660 0.057790
vt 0.681053 0.057790
vt 0.691136 0.059869
vt 0.656577 0.059869
vt 0.649254 0.059869
vt 0.614695 0.059869
vt 0.706379 0.076340
vt 0.683164 0.076340
vt 0.613360 0.076340
vt 0.582896 0.076340
vt 0.659896 0.017196
vt 0.683164 0.017196
vt 0.659896 0.076340
vt 0.636628 0.076340
vt 0.636628 0.017196
vt 0.614506 0.062201
vt 0.604926 0.062201
vt 0.607372 0.059869
vt 0.613607 0.073299
vt 0.638959 0.073299
vt 0.657047 0.062201
vt 0.647466 0.062201
vt 0.659283 0.073299
vt 0.684635 0.073299
vt 0.688839 0.081258
vt 0.699816 0.081258
vt 0.706005 0.126709
vt 0.682651 0.126709
vt 0.698407 0.059869
vt 0.699536 0.062201
vt 0.690007 0.062201
vt 0.612500 0.017196
vt 0.594699 0.017196
vt 0.977903 0.434165
vt 0.930572 0.434165
vt 0.704907 0.073299
vt 0.706379 0.017196
vt 0.698407 0.029178
vt 0.653445 0.126709
vt 0.630032 0.126709
vt 0.639832 0.081258
vt 0.650869 0.081258
vt 0.600826 0.126709
vt 0.570905 0.126710
vt 0.590825 0.081258
vt 0.601862 0.081258
vt 0.587634 0.073299
vt 0.806647 0.062201
vt 0.806647 0.026846
vt 0.565447 0.081258
vt 0.565447 0.126710
vt 0.582896 0.073299
vt 0.836413 0.073518
vt 0.826118 0.076340
vt 0.729647 0.076340
vt 0.978547 0.423953
vt 0.931216 0.423953
vt 0.921327 0.379121
vt 0.987812 0.379121
vt 0.782171 0.029178
vt 0.799450 0.017196
vt 0.792254 0.031257
vt 0.813181 0.017196
vt 0.816730 0.024865
vt 0.774848 0.029178
vt 0.776183 0.017196
vt 0.830646 0.019004
vt 0.841332 0.024277
vt 0.834136 0.026846
vt 0.824053 0.024865
vt 0.841332 0.068077
vt 0.834136 0.062200
vt 0.750372 0.057790
vt 0.750372 0.031257
vt 0.764765 0.031257
vt 0.764765 0.057790
vt 0.792254 0.057790
vt 0.740289 0.029178
vt 0.732966 0.029178
vt 0.722883 0.031257
vt 0.708490 0.031257
vt 0.816730 0.064181
vt 0.824053 0.064181
vt 0.722883 0.057790
vt 0.732966 0.059869
vt 0.708490 0.057790
vt 0.740289 0.059869
vt 0.774848 0.059869
vt 0.806647 0.076340
vt 0.776183 0.076340
vt 0.729647 0.017196
vt 0.752915 0.076340
vt 0.752915 0.017196
vt 0.775037 0.062201
vt 0.782171 0.059869
vt 0.784617 0.062201
vt 0.775936 0.073299
vt 0.750584 0.073299
vt 0.732496 0.062201
vt 0.742077 0.062201
vt 0.730260 0.073299
vt 0.777043 0.017196
vt 0.794844 0.017196
vt 0.978547 0.434165
vt 0.931216 0.434165
vt 0.735211 0.126709
vt 0.737787 0.081258
vt 0.748824 0.081258
vt 0.758624 0.126709
vt 0.787830 0.126709
vt 0.786794 0.081258
vt 0.797831 0.081258
vt 0.817751 0.126710
vt 0.801909 0.073299
vt 0.823209 0.081258
vt 0.823209 0.126710
vt 0.806647 0.073299
s 1
usemtl initialShadingGroup.004
f 10/1/1 132/1/1 154/2/1 32/2/1
f 6/3/2 17/4/2 18/5/2 16/6/2
f 8/7/3 40/8/3 2/9/3 1/10/3
f 1/10/3 2/9/3 22/11/3 21/12/3
f 1/10/3 13/13/3 42/14/3 8/7/3
f 46/15/3 23/16/3 45/17/4 47/18/3
f 45/17/4 44/19/4 20/20/4 47/18/3
f 30/21/3 36/22/3 41/23/3 4/24/3
f 40/8/3 37/25/3 27/26/3 2/9/3
f 23/16/3 46/15/3 21/12/3 22/11/3
f 4/24/3 41/23/3 42/14/3 26/27/3
f 9/28/3 25/29/3 43/30/3 3/31/3
f 10/1/3 32/2/3 24/32/3 39/33/3
f 35/34/3 33/35/3 34/36/3 31/37/3
f 29/38/3 28/39/3 36/22/3 30/21/3
f 43/30/3 25/29/3 33/35/3 35/34/3
f 73/40/5 195/40/5 134/41/5 12/41/5
f 46/15/6 168/15/6 143/12/6 21/12/6
f 11/42/5 133/42/5 141/43/5 19/43/5
f 47/18/7 169/18/7 168/15/7 46/15/7
f 50/44/8 172/44/8 137/45/8 15/45/8
f 19/43/5 141/43/5 132/1/5 10/1/5
f 20/20/4 44/19/4 24/32/3 32/2/3
f 49/46/5 171/46/5 170/47/5 48/47/5
f 26/27/3 42/14/3 13/13/3 14/48/3
f 14/48/3 50/44/3 3/31/3 26/27/3
f 9/28/3 3/31/3 50/44/3 15/45/3
f 52/49/3 51/50/3 38/51/3 28/39/3
f 56/52/3 57/53/3 48/47/3 11/42/3
f 54/54/3 53/55/3 29/38/3 31/37/3
f 58/56/3 59/57/3 12/41/3 49/46/3
f 55/58/3 116/59/3 120/60/3 59/61/3
f 13/13/8 135/13/8 136/48/8 14/48/8
f 20/20/9 142/20/9 169/18/9 47/18/9
f 34/36/3 95/62/3 116/63/3 55/64/3
f 48/47/5 170/47/5 133/42/5 11/42/5
f 32/2/10 154/2/10 142/20/10 20/20/10
f 14/48/8 136/48/8 172/44/8 50/44/8
f 7/65/8 13/13/8 1/10/8 5/66/8
f 6/3/3 16/6/3 7/67/3 5/68/3
f 139/4/11 17/4/11 6/3/11 128/3/11
f 5/68/12 127/68/12 128/3/12 6/3/12
f 7/65/8 129/65/8 135/13/8 13/13/8
f 1/10/8 123/10/8 127/66/8 5/66/8
f 3/31/5 125/31/5 148/27/5 26/27/5
f 26/27/13 148/27/13 126/24/13 4/24/13
f 134/41/14 195/40/14 242/69/14 181/57/14
f 156/36/8 217/62/8 95/62/8 34/36/8
f 33/35/15 155/35/15 156/36/15 34/36/15
f 37/25/16 159/25/16 160/51/16 38/51/16
f 31/37/17 153/37/17 157/34/17 35/34/17
f 25/29/18 147/29/18 155/35/18 33/35/18
f 9/28/13 131/28/13 147/29/13 25/29/13
f 4/24/18 126/24/18 152/21/18 30/21/18
f 8/7/19 130/7/19 162/8/19 40/8/19
f 40/8/18 162/8/18 159/25/18 37/25/18
f 43/30/20 165/30/20 125/31/20 3/31/20
f 38/51/8 160/51/8 150/39/8 28/39/8
f 76/70/3 70/71/3 9/28/3 15/45/3
f 36/22/9 158/22/9 163/23/9 41/23/9
f 35/34/9 157/34/9 165/30/9 43/30/9
f 42/14/5 164/14/5 130/7/5 8/7/5
f 28/39/17 150/39/17 158/22/17 36/22/17
f 31/37/3 34/36/3 55/64/3 54/54/3
f 58/72/3 57/73/3 53/74/3 54/75/3
f 28/39/3 29/38/3 53/55/3 52/49/3
f 56/76/3 60/77/3 51/78/3 52/79/3
f 37/25/3 38/51/3 51/50/3 27/26/3
f 11/42/3 19/43/3 60/80/3 56/52/3
f 49/46/3 48/47/3 57/53/3 58/56/3
f 210/81/18 88/81/18 63/82/18 185/82/18
f 54/75/3 55/58/3 59/61/3 58/72/3
f 52/79/3 53/74/3 57/73/3 56/76/3
f 27/83/3 51/78/3 60/77/3 61/84/3
f 27/26/3 61/85/3 10/1/3 39/33/3
f 10/1/3 61/85/3 60/80/3 19/43/3
f 12/41/5 134/41/5 171/46/5 49/46/5
f 41/23/20 163/23/20 164/14/20 42/14/20
f 15/45/8 137/45/8 198/70/8 76/70/8
f 93/86/21 215/86/21 193/87/21 71/87/21
f 110/88/5 232/88/5 195/40/5 73/40/5
f 67/89/2 77/90/2 79/91/2 78/92/2
f 69/93/3 62/94/3 63/82/3 101/95/3
f 62/94/3 82/96/3 83/97/3 63/82/3
f 62/94/3 69/93/3 103/98/3 74/99/3
f 107/100/3 108/101/3 106/102/3 84/103/3
f 106/102/3 108/101/3 81/104/3 105/105/3
f 91/106/3 65/107/3 102/108/3 97/109/3
f 101/95/3 63/82/3 88/81/3 98/110/3
f 84/103/3 83/97/3 82/96/3 107/100/3
f 65/107/3 87/111/3 103/98/3 102/108/3
f 70/71/3 64/112/3 104/113/3 86/114/3
f 71/87/3 100/115/3 85/116/3 93/86/3
f 96/117/3 92/118/3 95/62/3 94/119/3
f 90/120/3 91/106/3 97/109/3 89/121/3
f 104/113/3 96/117/3 94/119/3 86/114/3
f 198/70/14 137/45/14 131/28/14 192/71/14
f 82/96/22 204/96/22 229/100/22 107/100/22
f 80/122/5 202/122/5 194/123/5 72/123/5
f 107/100/23 229/100/23 230/101/23 108/101/23
f 76/70/8 198/70/8 233/124/8 111/124/8
f 71/87/5 193/87/5 202/122/5 80/122/5
f 81/104/3 93/86/3 85/116/3 105/105/3
f 109/125/5 231/125/5 232/88/5 110/88/5
f 87/111/3 75/126/3 74/99/3 103/98/3
f 75/126/3 87/111/3 64/112/3 111/124/3
f 70/71/3 76/70/3 111/124/3 64/112/3
f 113/127/3 89/121/3 99/128/3 112/129/3
f 117/130/3 72/123/3 109/125/3 118/131/3
f 115/132/3 92/118/3 90/120/3 114/133/3
f 119/134/3 110/88/3 73/40/3 120/69/3
f 75/126/8 197/126/8 196/99/8 74/99/8
f 108/101/18 230/101/18 203/104/18 81/104/18
f 72/123/5 194/123/5 231/125/5 109/125/5
f 103/98/13 225/98/13 224/108/13 102/108/13
f 81/104/24 203/104/24 215/86/24 93/86/24
f 111/124/8 233/124/8 197/126/8 75/126/8
f 68/135/8 66/136/8 62/94/8 74/99/8
f 67/89/3 66/137/3 68/138/3 77/90/3
f 200/92/25 189/89/25 67/89/25 78/92/25
f 67/89/26 189/89/26 188/137/26 66/137/26
f 74/99/8 196/99/8 190/135/8 68/135/8
f 66/136/8 188/136/8 184/94/8 62/94/8
f 87/111/5 209/111/5 186/112/5 64/112/5
f 65/107/27 187/107/27 209/111/27 87/111/27
f 97/109/15 219/109/15 211/121/15 89/121/15
f 95/62/17 217/62/17 216/119/17 94/119/17
f 99/128/28 221/128/28 220/110/28 98/110/28
f 96/117/15 218/117/15 214/118/15 92/118/15
f 94/119/9 216/119/9 208/114/9 86/114/9
f 86/114/20 208/114/20 192/71/20 70/71/20
f 91/106/9 213/106/9 187/107/9 65/107/9
f 101/95/27 223/95/27 191/93/27 69/93/27
f 98/110/9 220/110/9 223/95/9 101/95/9
f 64/112/13 186/112/13 226/113/13 104/113/13
f 89/121/8 211/121/8 221/128/8 99/128/8
f 102/108/18 224/108/18 219/109/18 97/109/18
f 104/113/18 226/113/18 218/117/18 96/117/18
f 69/93/5 191/93/5 225/98/5 103/98/5
f 92/118/3 115/132/3 116/63/3 95/62/3
f 119/139/3 115/140/3 114/141/3 118/142/3
f 89/121/3 113/127/3 114/133/3 90/120/3
f 117/143/3 113/144/3 112/145/3 121/146/3
f 98/110/3 88/81/3 112/129/3 99/128/3
f 72/123/3 117/130/3 121/147/3 80/122/3
f 110/88/3 119/134/3 118/131/3 109/125/3
f 115/140/3 119/139/3 120/60/3 116/59/3
f 113/144/3 117/143/3 118/142/3 114/141/3
f 88/148/3 122/149/3 121/146/3 112/145/3
f 88/81/3 100/115/3 71/87/3 122/150/3
f 71/87/3 80/122/3 121/147/3 122/150/3
f 17/4/8 139/4/8 140/5/8 18/5/8
f 149/26/9 124/9/9 2/9/9 27/26/9
f 222/115/29 100/115/29 88/81/29 210/81/29
f 222/115/8 207/116/8 85/116/8 100/115/8
f 207/116/30 227/105/30 105/105/30 85/116/30
f 227/105/9 228/102/9 106/102/9 105/105/9
f 206/103/31 84/103/31 106/102/31 228/102/31
f 206/103/5 205/97/5 83/97/5 84/103/5
f 185/82/32 63/82/32 83/97/32 205/97/32
f 213/106/17 91/106/17 90/120/17 212/120/17
f 199/90/12 77/90/12 68/138/12 190/138/12
f 199/90/33 201/91/33 79/91/33 77/90/33
f 62/94/8 184/94/8 204/96/8 82/96/8
f 92/118/8 214/118/8 212/120/8 90/120/8
f 161/33/34 149/26/34 27/26/34 39/33/34
f 161/33/8 39/33/8 24/32/8 146/32/8
f 146/32/35 24/32/35 44/19/35 166/19/35
f 166/19/18 44/19/18 45/17/18 167/17/18
f 145/16/32 167/17/32 45/17/32 23/16/32
f 145/16/5 23/16/5 22/11/5 144/11/5
f 124/9/36 144/11/36 22/11/36 2/9/36
f 152/21/15 151/38/15 29/38/15 30/21/15
f 138/6/26 129/67/26 7/67/26 16/6/26
f 138/6/37 16/6/37 18/5/37 140/5/37
f 21/12/8 143/12/8 123/10/8 1/10/8
f 29/38/8 151/38/8 153/37/8 31/37/8
f 128/3/38 138/6/38 140/5/38 139/4/38
f 130/7/14 123/10/14 124/9/14 162/8/14
f 123/10/14 143/12/14 144/11/14 124/9/14
f 123/10/14 130/7/14 164/14/14 135/13/14
f 168/15/14 169/18/14 167/17/14 145/16/14
f 167/17/14 169/18/14 142/20/14 166/19/14
f 152/21/14 126/24/14 163/23/14 158/22/14
f 162/8/14 124/9/14 149/26/14 159/25/14
f 145/16/14 144/11/14 143/12/14 168/15/14
f 126/24/14 148/27/14 164/14/14 163/23/14
f 131/28/14 125/31/14 165/30/14 147/29/14
f 132/1/14 161/33/14 146/32/14 154/2/14
f 157/34/14 153/37/14 156/36/14 155/35/14
f 151/38/14 152/21/14 158/22/14 150/39/14
f 165/30/14 157/34/14 155/35/14 147/29/14
f 142/20/14 154/2/14 146/32/14 166/19/14
f 148/27/14 136/48/14 135/13/14 164/14/14
f 136/48/14 148/27/14 125/31/14 172/44/14
f 131/28/14 137/45/14 172/44/14 125/31/14
f 174/49/14 150/39/14 160/51/14 173/50/14
f 178/52/14 133/42/14 170/47/14 179/53/14
f 176/54/14 153/37/14 151/38/14 175/55/14
f 180/56/14 171/46/14 134/41/14 181/57/14
f 181/61/14 242/60/14 238/59/14 177/58/14
f 177/64/14 238/63/14 217/62/14 156/36/14
f 129/65/8 127/66/8 123/10/8 135/13/8
f 128/3/14 127/68/14 129/67/14 138/6/14
f 153/37/14 176/54/14 177/64/14 156/36/14
f 180/72/14 176/75/14 175/74/14 179/73/14
f 150/39/14 174/49/14 175/55/14 151/38/14
f 178/76/14 174/79/14 173/78/14 182/77/14
f 159/25/14 149/26/14 173/50/14 160/51/14
f 133/42/14 178/52/14 182/80/14 141/43/14
f 171/46/14 180/56/14 179/53/14 170/47/14
f 176/75/14 180/72/14 181/61/14 177/58/14
f 174/79/14 178/76/14 179/73/14 175/74/14
f 149/83/14 183/84/14 182/77/14 173/78/14
f 149/26/14 161/33/14 132/1/14 183/85/14
f 132/1/14 141/43/14 182/80/14 183/85/14
f 131/28/5 9/28/5 70/71/5 192/71/5
f 189/89/38 200/92/38 201/91/38 199/90/38
f 191/93/14 223/95/14 185/82/14 184/94/14
f 184/94/14 185/82/14 205/97/14 204/96/14
f 184/94/14 196/99/14 225/98/14 191/93/14
f 229/100/14 206/103/14 228/102/14 230/101/14
f 228/102/14 227/105/14 203/104/14 230/101/14
f 213/106/14 219/109/14 224/108/14 187/107/14
f 223/95/14 220/110/14 210/81/14 185/82/14
f 206/103/14 229/100/14 204/96/14 205/97/14
f 187/107/14 224/108/14 225/98/14 209/111/14
f 192/71/14 208/114/14 226/113/14 186/112/14
f 193/87/14 215/86/14 207/116/14 222/115/14
f 218/117/14 216/119/14 217/62/14 214/118/14
f 212/120/14 211/121/14 219/109/14 213/106/14
f 226/113/14 208/114/14 216/119/14 218/117/14
f 203/104/14 227/105/14 207/116/14 215/86/14
f 209/111/14 225/98/14 196/99/14 197/126/14
f 197/126/14 233/124/14 186/112/14 209/111/14
f 192/71/14 186/112/14 233/124/14 198/70/14
f 235/127/14 234/129/14 221/128/14 211/121/14
f 239/130/14 240/131/14 231/125/14 194/123/14
f 237/132/14 236/133/14 212/120/14 214/118/14
f 241/134/14 242/69/14 195/40/14 232/88/14
f 190/135/8 196/99/8 184/94/8 188/136/8
f 189/89/14 199/90/14 190/138/14 188/137/14
f 214/118/14 217/62/14 238/63/14 237/132/14
f 241/139/14 240/142/14 236/141/14 237/140/14
f 211/121/14 212/120/14 236/133/14 235/127/14
f 239/143/14 243/146/14 234/145/14 235/144/14
f 220/110/14 221/128/14 234/129/14 210/81/14
f 194/123/14 202/122/14 243/147/14 239/130/14
f 232/88/14 231/125/14 240/131/14 241/134/14
f 237/140/14 238/59/14 242/60/14 241/139/14
f 235/144/14 236/141/14 240/142/14 239/143/14
f 210/148/14 234/145/14 243/146/14 244/149/14
f 210/81/14 244/150/14 193/87/14 222/115/14
f 193/87/14 244/150/14 243/147/14 202/122/14
f 59/57/3 120/69/3 73/40/3 12/41/3
f 79/91/8 201/91/8 200/92/8 78/92/8
