# Blender 5.1.0
# www.blender.org
mtllib barriere55_068.mtl
o barriere55.068
v 44.067860 0.406543 13.100903
v 44.098171 0.597167 13.045471
v 43.787804 0.643227 13.612989
v 43.861122 0.684294 13.478925
v 44.059063 0.406543 13.142188
v 44.059063 0.372826 13.142188
v 43.984081 0.406543 13.279295
v 43.995071 0.643227 13.233995
v 43.642231 0.643227 13.879175
v 44.180191 1.574803 12.895494
v 43.969849 1.574800 13.280119
v 43.675816 1.574800 13.817770
v 43.969849 0.406543 13.280119
v 43.871838 0.406543 13.459336
v 43.675816 0.406543 13.817770
v 43.984081 0.372826 13.279295
v 43.893654 0.224802 13.016859
v 43.788326 0.224802 13.209455
v 44.098171 1.574800 13.045473
v 44.244278 1.411594 12.778313
v 44.125694 0.406543 12.995148
v 44.140644 0.558042 12.967809
v 44.171490 0.558042 12.911406
v 44.171490 1.334637 12.911406
v 43.684704 0.684294 13.801513
v 43.818653 0.643227 13.556585
v 44.098171 1.295512 13.045473
v 43.964226 1.249448 13.290400
v 43.818653 1.249448 13.556585
v 43.861122 1.208382 13.478925
v 43.787804 1.249448 13.612989
v 44.223553 1.519066 12.816205
v 43.684704 1.208382 13.801513
v 43.642231 1.249448 13.879175
v 43.745331 1.208382 13.690654
v 43.921753 1.208382 13.368062
v 44.037544 1.208382 13.156334
v 43.995071 1.249451 13.233995
v 44.140644 1.334637 12.967809
v 44.037544 0.684294 13.156334
v 43.921753 0.684294 13.368062
v 43.964226 0.643227 13.290400
v 43.745331 0.684294 13.690654
v 44.213963 1.295509 12.833742
v 44.213963 0.597167 12.833742
v 44.199261 0.442268 12.860625
v 44.244278 0.546413 12.778313
v 43.871838 1.574800 13.459336
v 43.773827 1.574800 13.638553
v 43.773827 0.406543 13.638553
v 44.005375 1.295512 13.215153
v 43.965019 1.295512 13.288944
v 43.826183 1.295512 13.542817
v 43.785828 1.295512 13.616609
v 43.646988 1.295512 13.870481
v 43.968807 1.514731 13.282017
v 43.862019 1.514731 13.477291
v 43.776405 1.514731 13.633833
v 43.669613 1.514731 13.829107
v 44.078213 1.514732 13.081967
v 44.098171 1.514732 13.045473
v 43.185978 0.406543 14.713455
v 43.155663 0.597167 14.768886
v 43.466030 0.643227 14.201368
v 43.392712 0.684294 14.335433
v 43.215992 0.406543 14.683775
v 43.215992 0.372826 14.683775
v 43.290974 0.406543 14.546669
v 43.258762 0.643227 14.580362
v 43.611603 0.643227 13.935182
v 43.073643 1.574803 14.918863
v 43.283989 1.574800 14.534239
v 43.578022 1.574800 13.996588
v 43.283989 0.406543 14.534239
v 43.382000 0.406543 14.355021
v 43.578022 0.406543 13.996588
v 43.290974 0.372826 14.546669
v 43.021225 0.224802 14.612128
v 43.126553 0.224802 14.419533
v 43.155663 1.574800 14.768885
v 43.009556 1.411594 15.036045
v 43.128143 0.406543 14.819210
v 43.113190 0.558042 14.846549
v 43.082344 0.558042 14.902952
v 43.082344 1.334637 14.902952
v 43.569130 0.684294 14.012845
v 43.435184 0.643227 14.257771
v 43.155663 1.295512 14.768885
v 43.289612 1.249448 14.523958
v 43.435184 1.249448 14.257771
v 43.392712 1.208382 14.335433
v 43.466030 1.249448 14.201368
v 43.030281 1.519066 14.998152
v 43.569130 1.208382 14.012845
v 43.611603 1.249448 13.935182
v 43.508503 1.208382 14.123704
v 43.332081 1.208382 14.446296
v 43.216293 1.208382 14.658024
v 43.258762 1.249451 14.580362
v 43.113190 1.334637 14.846549
v 43.216293 0.684294 14.658024
v 43.332081 0.684294 14.446296
v 43.289612 0.643227 14.523958
v 43.508503 0.684294 14.123704
v 43.039871 1.295509 14.980615
v 43.039871 0.597167 14.980615
v 43.054573 0.442268 14.953732
v 43.009556 0.546413 15.036045
v 43.382000 1.574800 14.355021
v 43.480011 1.574800 14.175805
v 43.480011 0.406543 14.175805
v 43.248459 1.295512 14.599204
v 43.288815 1.295512 14.525414
v 43.427654 1.295512 14.271541
v 43.468010 1.295512 14.197749
v 43.606850 1.295512 13.943875
v 43.285027 1.514731 14.532340
v 43.391819 1.514731 14.337067
v 43.477428 1.514731 14.180525
v 43.584221 1.514731 13.985250
v 43.175621 1.514732 14.732390
v 43.155663 1.514732 14.768885
v 44.147205 0.406543 13.144297
v 44.177521 0.597167 13.088866
v 43.867153 0.643227 13.656384
v 43.940472 0.684294 13.522319
v 44.117191 0.406543 13.173977
v 44.117191 0.372826 13.173977
v 44.042210 0.406543 13.311083
v 44.074421 0.643227 13.277390
v 43.721581 0.643227 13.922570
v 44.259541 1.574803 12.938889
v 44.049194 1.574800 13.323513
v 43.755161 1.574800 13.861164
v 44.049194 0.406543 13.323513
v 43.951183 0.406543 13.502730
v 43.755161 0.406543 13.861164
v 44.042210 0.372826 13.311083
v 44.311958 0.224802 13.245624
v 44.206631 0.224802 13.438219
v 44.177521 1.574800 13.088867
v 44.323627 1.411594 12.821707
v 44.205040 0.406543 13.038542
v 44.219994 0.558042 13.011203
v 44.250839 0.558042 12.954800
v 44.250839 1.334637 12.954800
v 43.764053 0.684294 13.844907
v 43.897999 0.643227 13.599980
v 44.177521 1.295512 13.088867
v 44.043571 1.249448 13.333794
v 43.897999 1.249448 13.599980
v 43.940472 1.208382 13.522319
v 43.867153 1.249448 13.656384
v 44.302902 1.519066 12.859600
v 43.764053 1.208382 13.844907
v 43.721581 1.249448 13.922570
v 43.824680 1.208382 13.734048
v 44.001102 1.208382 13.411456
v 44.116890 1.208382 13.199728
v 44.074421 1.249451 13.277390
v 44.219994 1.334637 13.011203
v 44.116890 0.684294 13.199728
v 44.001102 0.684294 13.411456
v 44.043571 0.643227 13.333794
v 43.824680 0.684294 13.734048
v 44.293312 1.295509 12.877137
v 44.293312 0.597167 12.877137
v 44.278610 0.442268 12.904019
v 44.323627 0.546413 12.821707
v 43.951183 1.574800 13.502730
v 43.853172 1.574800 13.681948
v 43.853172 0.406543 13.681947
v 44.084724 1.295512 13.258548
v 44.044369 1.295512 13.332338
v 43.905529 1.295512 13.586211
v 43.865173 1.295512 13.660003
v 43.726334 1.295512 13.913877
v 44.048157 1.514731 13.325412
v 43.941364 1.514731 13.520685
v 43.855755 1.514731 13.677228
v 43.748962 1.514731 13.872501
v 44.157562 1.514732 13.125361
v 44.177521 1.514732 13.088867
v 43.265324 0.406543 14.756849
v 43.235012 0.597167 14.812281
v 43.545380 0.643227 14.244762
v 43.472061 0.684294 14.378827
v 43.274120 0.406543 14.715564
v 43.274120 0.372826 14.715564
v 43.349102 0.406543 14.578457
v 43.338112 0.643227 14.623756
v 43.690952 0.643227 13.978577
v 43.152992 1.574803 14.962257
v 43.363335 1.574800 14.577633
v 43.657368 1.574800 14.039982
v 43.363335 0.406543 14.577633
v 43.461346 0.406543 14.398416
v 43.657368 0.406543 14.039982
v 43.349102 0.372826 14.578457
v 43.439529 0.224802 14.840893
v 43.544857 0.224802 14.648297
v 43.235012 1.574800 14.812279
v 43.088905 1.411594 15.079439
v 43.207489 0.406543 14.862604
v 43.192539 0.558042 14.889943
v 43.161694 0.558042 14.946346
v 43.161694 1.334637 14.946346
v 43.648479 0.684294 14.056239
v 43.514530 0.643227 14.301167
v 43.235012 1.295512 14.812279
v 43.368958 1.249448 14.567352
v 43.514530 1.249448 14.301167
v 43.472061 1.208382 14.378827
v 43.545380 1.249448 14.244762
v 43.109631 1.519066 15.041547
v 43.648479 1.208382 14.056240
v 43.690952 1.249448 13.978577
v 43.587852 1.208382 14.167098
v 43.411430 1.208382 14.489691
v 43.295639 1.208382 14.701418
v 43.338112 1.249451 14.623756
v 43.192539 1.334637 14.889944
v 43.295639 0.684294 14.701418
v 43.411430 0.684294 14.489690
v 43.368958 0.643227 14.567352
v 43.587852 0.684294 14.167098
v 43.119221 1.295509 15.024010
v 43.119221 0.597167 15.024010
v 43.133923 0.442268 14.997127
v 43.088905 0.546413 15.079439
v 43.461346 1.574800 14.398417
v 43.559357 1.574800 14.219199
v 43.559357 0.406543 14.219199
v 43.327808 1.295512 14.642599
v 43.368164 1.295512 14.568808
v 43.507004 1.295512 14.314935
v 43.547356 1.295512 14.241143
v 43.686195 1.295512 13.987270
v 43.364376 1.514731 14.575735
v 43.471169 1.514731 14.380461
v 43.556778 1.514731 14.223919
v 43.663570 1.514731 14.028646
v 43.254971 1.514732 14.775784
v 43.235012 1.514732 14.812279
vn 0.2519 0.8511 -0.4606
vn -0.5132 0.8111 -0.2807
vn -0.8774 -0.0000 -0.4798
vn -0.8774 0.0001 -0.4798
vn -0.8774 -0.0001 -0.4798
vn -0.0000 1.0000 -0.0000
vn 0.1089 -0.9739 -0.1991
vn 0.3565 -0.6693 -0.6519
vn -0.0000 -1.0000 -0.0000
vn 0.4798 -0.0000 -0.8774
vn 0.4452 0.3729 -0.8141
vn 0.4699 0.2024 -0.8592
vn -0.2019 0.9071 0.3693
vn 0.8774 0.0001 0.4798
vn 0.8774 -0.0000 0.4798
vn -0.2019 -0.9071 0.3692
vn -0.2019 -0.9071 0.3693
vn 0.2019 -0.9071 -0.3692
vn -0.4798 -0.0000 0.8774
vn -0.2019 0.9071 0.3692
vn 0.2019 0.9071 -0.3692
vn -0.2519 0.8511 0.4606
vn -0.1089 -0.9739 0.1991
vn -0.3565 -0.6693 0.6519
vn -0.4452 0.3729 0.8141
vn -0.4699 0.2024 0.8592
vn 0.2019 -0.9071 -0.3693
vn 0.2019 0.9071 -0.3693
vn -0.1940 -0.9146 0.3547
vn 0.1940 -0.9146 -0.3547
vn 0.1940 0.9146 -0.3547
vn -0.1940 0.9146 0.3547
vn 0.4685 0.2154 -0.8568
vn -0.4686 0.2154 0.8568
vn 0.5132 0.8111 0.2807
vn 0.8774 -0.0001 0.4798
vt 0.563424 0.076340
vt 0.553130 0.073518
vt 0.930572 0.423953
vt 0.921307 0.379121
vt 0.987792 0.379121
vt 0.977903 0.423953
vt 0.607372 0.029178
vt 0.597289 0.031257
vt 0.582896 0.026846
vt 0.590093 0.017196
vt 0.572813 0.024865
vt 0.576362 0.017196
vt 0.613360 0.017196
vt 0.614695 0.029178
vt 0.558897 0.019004
vt 0.565490 0.024865
vt 0.555407 0.026846
vt 0.548211 0.024277
vt 0.555407 0.062200
vt 0.548211 0.068077
vt 0.639171 0.057790
vt 0.624778 0.057790
vt 0.624778 0.031257
vt 0.639171 0.031257
vt 0.597289 0.057790
vt 0.582896 0.062201
vt 0.649254 0.029178
vt 0.691136 0.029178
vt 0.681053 0.031257
vt 0.666660 0.031257
vt 0.656577 0.029178
vt 0.565490 0.064181
vt 0.572813 0.064181
vt 0.666660 0.057790
vt 0.681053 0.057790
vt 0.691136 0.059869
vt 0.656577 0.059869
vt 0.649254 0.059869
vt 0.614695 0.059869
vt 0.706379 0.076340
vt 0.683164 0.076340
vt 0.613360 0.076340
vt 0.582896 0.076340
vt 0.659896 0.017196
vt 0.683164 0.017196
vt 0.659896 0.076340
vt 0.636628 0.076340
vt 0.636628 0.017196
vt 0.614506 0.062201
vt 0.604926 0.062201
vt 0.607372 0.059869
vt 0.613607 0.073299
vt 0.638959 0.073299
vt 0.657047 0.062201
vt 0.647466 0.062201
vt 0.659283 0.073299
vt 0.684635 0.073299
vt 0.688839 0.081258
vt 0.699816 0.081258
vt 0.706005 0.126709
vt 0.682651 0.126709
vt 0.698407 0.059869
vt 0.699536 0.062201
vt 0.690007 0.062201
vt 0.612500 0.017196
vt 0.594699 0.017196
vt 0.977903 0.434165
vt 0.930572 0.434165
vt 0.704907 0.073299
vt 0.706379 0.017196
vt 0.698407 0.029178
vt 0.653445 0.126709
vt 0.630032 0.126709
vt 0.639832 0.081258
vt 0.650869 0.081258
vt 0.600826 0.126709
vt 0.570905 0.126710
vt 0.590825 0.081258
vt 0.601862 0.081258
vt 0.587634 0.073299
vt 0.806647 0.062201
vt 0.806647 0.026846
vt 0.565447 0.081258
vt 0.565447 0.126710
vt 0.582896 0.073299
vt 0.836413 0.073518
vt 0.826118 0.076340
vt 0.729647 0.076340
vt 0.978547 0.423953
vt 0.931216 0.423953
vt 0.921327 0.379121
vt 0.987812 0.379121
vt 0.782171 0.029178
vt 0.799450 0.017196
vt 0.792254 0.031257
vt 0.813181 0.017196
vt 0.816730 0.024865
vt 0.774848 0.029178
vt 0.776183 0.017196
vt 0.830646 0.019004
vt 0.841332 0.024277
vt 0.834136 0.026846
vt 0.824053 0.024865
vt 0.841332 0.068077
vt 0.834136 0.062200
vt 0.750372 0.057790
vt 0.750372 0.031257
vt 0.764765 0.031257
vt 0.764765 0.057790
vt 0.792254 0.057790
vt 0.740289 0.029178
vt 0.732966 0.029178
vt 0.722883 0.031257
vt 0.708490 0.031257
vt 0.816730 0.064181
vt 0.824053 0.064181
vt 0.722883 0.057790
vt 0.732966 0.059869
vt 0.708490 0.057790
vt 0.740289 0.059869
vt 0.774848 0.059869
vt 0.806647 0.076340
vt 0.776183 0.076340
vt 0.729647 0.017196
vt 0.752915 0.076340
vt 0.752915 0.017196
vt 0.775037 0.062201
vt 0.782171 0.059869
vt 0.784617 0.062201
vt 0.775936 0.073299
vt 0.750584 0.073299
vt 0.732496 0.062201
vt 0.742077 0.062201
vt 0.730260 0.073299
vt 0.777043 0.017196
vt 0.794844 0.017196
vt 0.978547 0.434165
vt 0.931216 0.434165
vt 0.735211 0.126709
vt 0.737787 0.081258
vt 0.748824 0.081258
vt 0.758624 0.126709
vt 0.787830 0.126709
vt 0.786794 0.081258
vt 0.797831 0.081258
vt 0.817751 0.126710
vt 0.801909 0.073299
vt 0.823209 0.081258
vt 0.823209 0.126710
vt 0.806647 0.073299
s 1
usemtl initialShadingGroup.004
f 10/1/1 132/1/1 154/2/1 32/2/1
f 6/3/2 17/4/2 18/5/2 16/6/2
f 8/7/3 40/8/3 2/9/3 1/10/3
f 1/10/3 2/9/3 22/11/3 21/12/3
f 1/10/3 13/13/3 42/14/3 8/7/3
f 46/15/3 23/16/3 45/17/3 47/18/3
f 45/17/3 44/19/3 20/20/3 47/18/3
f 30/21/4 36/22/4 41/23/5 4/24/5
f 40/8/3 37/25/3 27/26/3 2/9/3
f 23/16/3 46/15/3 21/12/3 22/11/3
f 4/24/5 41/23/5 42/14/3 26/27/3
f 9/28/3 25/29/3 43/30/3 3/31/3
f 10/1/3 32/2/3 24/32/3 39/33/3
f 35/34/4 33/35/4 34/36/4 31/37/4
f 29/38/3 28/39/3 36/22/4 30/21/4
f 43/30/3 25/29/3 33/35/4 35/34/4
f 73/40/6 195/40/6 134/41/6 12/41/6
f 46/15/7 168/15/7 143/12/7 21/12/7
f 11/42/6 133/42/6 141/43/6 19/43/6
f 47/18/8 169/18/8 168/15/8 46/15/8
f 50/44/9 172/44/9 137/45/9 15/45/9
f 19/43/6 141/43/6 132/1/6 10/1/6
f 20/20/3 44/19/3 24/32/3 32/2/3
f 49/46/6 171/46/6 170/47/6 48/47/6
f 26/27/3 42/14/3 13/13/3 14/48/3
f 14/48/3 50/44/3 3/31/3 26/27/3
f 9/28/3 3/31/3 50/44/3 15/45/3
f 52/49/3 51/50/3 38/51/3 28/39/3
f 56/52/3 57/53/3 48/47/3 11/42/3
f 54/54/3 53/55/3 29/38/3 31/37/4
f 58/56/3 59/57/3 12/41/4 49/46/3
f 55/58/3 116/59/3 120/60/3 59/61/3
f 13/13/9 135/13/9 136/48/9 14/48/9
f 20/20/10 142/20/10 169/18/10 47/18/10
f 34/36/4 95/62/4 116/63/3 55/64/3
f 48/47/6 170/47/6 133/42/6 11/42/6
f 32/2/11 154/2/11 142/20/11 20/20/11
f 14/48/9 136/48/9 172/44/9 50/44/9
f 7/65/9 13/13/9 1/10/9 5/66/9
f 6/3/3 16/6/3 7/67/3 5/68/3
f 139/4/12 17/4/12 6/3/12 128/3/12
f 5/68/10 127/68/10 128/3/10 6/3/10
f 7/65/9 129/65/9 135/13/9 13/13/9
f 1/10/9 123/10/9 127/66/9 5/66/9
f 3/31/6 125/31/6 148/27/6 26/27/6
f 26/27/13 148/27/13 126/24/13 4/24/13
f 134/41/14 195/40/14 242/69/15 181/57/15
f 156/36/9 217/62/9 95/62/9 34/36/9
f 33/35/16 155/35/16 156/36/16 34/36/16
f 37/25/17 159/25/17 160/51/17 38/51/17
f 31/37/18 153/37/18 157/34/18 35/34/18
f 25/29/19 147/29/19 155/35/19 33/35/19
f 9/28/13 131/28/13 147/29/13 25/29/13
f 4/24/19 126/24/19 152/21/19 30/21/19
f 8/7/20 130/7/20 162/8/20 40/8/20
f 40/8/19 162/8/19 159/25/19 37/25/19
f 43/30/21 165/30/21 125/31/21 3/31/21
f 38/51/9 160/51/9 150/39/9 28/39/9
f 76/70/3 70/71/3 9/28/3 15/45/3
f 36/22/10 158/22/10 163/23/10 41/23/10
f 35/34/10 157/34/10 165/30/10 43/30/10
f 42/14/6 164/14/6 130/7/6 8/7/6
f 28/39/18 150/39/18 158/22/18 36/22/18
f 31/37/4 34/36/4 55/64/3 54/54/3
f 58/72/3 57/73/3 53/74/3 54/75/3
f 28/39/3 29/38/3 53/55/3 52/49/3
f 56/76/3 60/77/3 51/78/3 52/79/3
f 37/25/3 38/51/3 51/50/3 27/26/3
f 11/42/3 19/43/3 60/80/3 56/52/3
f 49/46/3 48/47/3 57/53/3 58/56/3
f 210/81/19 88/81/19 63/82/19 185/82/19
f 54/75/3 55/58/3 59/61/3 58/72/3
f 52/79/3 53/74/3 57/73/3 56/76/3
f 27/83/3 51/78/3 60/77/3 61/84/3
f 27/26/3 61/85/3 10/1/3 39/33/3
f 10/1/3 61/85/3 60/80/3 19/43/3
f 12/41/6 134/41/6 171/46/6 49/46/6
f 41/23/21 163/23/21 164/14/21 42/14/21
f 15/45/9 137/45/9 198/70/9 76/70/9
f 93/86/22 215/86/22 193/87/22 71/87/22
f 110/88/6 232/88/6 195/40/6 73/40/6
f 67/89/2 77/90/2 79/91/2 78/92/2
f 69/93/3 62/94/3 63/82/3 101/95/3
f 62/94/3 82/96/3 83/97/3 63/82/3
f 62/94/3 69/93/3 103/98/3 74/99/3
f 107/100/3 108/101/3 106/102/3 84/103/3
f 106/102/3 108/101/3 81/104/3 105/105/3
f 91/106/3 65/107/3 102/108/3 97/109/3
f 101/95/3 63/82/3 88/81/3 98/110/3
f 84/103/3 83/97/3 82/96/3 107/100/3
f 65/107/3 87/111/3 103/98/3 102/108/3
f 70/71/3 64/112/3 104/113/3 86/114/3
f 71/87/3 100/115/3 85/116/3 93/86/3
f 96/117/3 92/118/3 95/62/4 94/119/3
f 90/120/3 91/106/3 97/109/3 89/121/4
f 104/113/3 96/117/3 94/119/3 86/114/3
f 198/70/15 137/45/15 131/28/15 192/71/15
f 82/96/23 204/96/23 229/100/23 107/100/23
f 80/122/6 202/122/6 194/123/6 72/123/6
f 107/100/24 229/100/24 230/101/24 108/101/24
f 76/70/9 198/70/9 233/124/9 111/124/9
f 71/87/6 193/87/6 202/122/6 80/122/6
f 81/104/3 93/86/3 85/116/3 105/105/3
f 109/125/6 231/125/6 232/88/6 110/88/6
f 87/111/3 75/126/3 74/99/3 103/98/3
f 75/126/3 87/111/3 64/112/3 111/124/3
f 70/71/3 76/70/3 111/124/3 64/112/3
f 113/127/3 89/121/4 99/128/4 112/129/3
f 117/130/3 72/123/3 109/125/4 118/131/3
f 115/132/3 92/118/3 90/120/3 114/133/3
f 119/134/3 110/88/4 73/40/4 120/69/3
f 75/126/9 197/126/9 196/99/9 74/99/9
f 108/101/19 230/101/19 203/104/19 81/104/19
f 72/123/6 194/123/6 231/125/6 109/125/6
f 103/98/20 225/98/20 224/108/20 102/108/20
f 81/104/25 203/104/25 215/86/25 93/86/25
f 111/124/9 233/124/9 197/126/9 75/126/9
f 68/135/9 66/136/9 62/94/9 74/99/9
f 67/89/3 66/137/3 68/138/3 77/90/3
f 200/92/26 189/89/26 67/89/26 78/92/26
f 67/89/19 189/89/19 188/137/19 66/137/19
f 74/99/9 196/99/9 190/135/9 68/135/9
f 66/136/9 188/136/9 184/94/9 62/94/9
f 87/111/6 209/111/6 186/112/6 64/112/6
f 65/107/21 187/107/21 209/111/21 87/111/21
f 97/109/16 219/109/16 211/121/16 89/121/16
f 95/62/18 217/62/18 216/119/18 94/119/18
f 99/128/27 221/128/27 220/110/27 98/110/27
f 96/117/16 218/117/16 214/118/16 92/118/16
f 94/119/10 216/119/10 208/114/10 86/114/10
f 86/114/28 208/114/28 192/71/28 70/71/28
f 91/106/10 213/106/10 187/107/10 65/107/10
f 101/95/21 223/95/21 191/93/21 69/93/21
f 98/110/10 220/110/10 223/95/10 101/95/10
f 64/112/20 186/112/20 226/113/20 104/113/20
f 89/121/9 211/121/9 221/128/9 99/128/9
f 102/108/19 224/108/19 219/109/19 97/109/19
f 104/113/19 226/113/19 218/117/19 96/117/19
f 69/93/6 191/93/6 225/98/6 103/98/6
f 92/118/3 115/132/3 116/63/3 95/62/4
f 119/139/3 115/140/3 114/141/3 118/142/3
f 89/121/4 113/127/3 114/133/3 90/120/3
f 117/143/3 113/144/3 112/145/3 121/146/3
f 98/110/3 88/81/3 112/129/3 99/128/4
f 72/123/3 117/130/3 121/147/3 80/122/3
f 110/88/4 119/134/3 118/131/3 109/125/4
f 115/140/3 119/139/3 120/60/3 116/59/3
f 113/144/3 117/143/3 118/142/3 114/141/3
f 88/148/3 122/149/3 121/146/3 112/145/3
f 88/81/3 100/115/3 71/87/3 122/150/3
f 71/87/3 80/122/3 121/147/3 122/150/3
f 17/4/9 139/4/9 140/5/9 18/5/9
f 149/26/10 124/9/10 2/9/10 27/26/10
f 222/115/29 100/115/29 88/81/29 210/81/29
f 222/115/9 207/116/9 85/116/9 100/115/9
f 207/116/30 227/105/30 105/105/30 85/116/30
f 227/105/10 228/102/10 106/102/10 105/105/10
f 206/103/31 84/103/31 106/102/31 228/102/31
f 206/103/6 205/97/6 83/97/6 84/103/6
f 185/82/32 63/82/32 83/97/32 205/97/32
f 213/106/18 91/106/18 90/120/18 212/120/18
f 199/90/10 77/90/10 68/138/10 190/138/10
f 199/90/33 201/91/33 79/91/33 77/90/33
f 62/94/9 184/94/9 204/96/9 82/96/9
f 92/118/9 214/118/9 212/120/9 90/120/9
f 161/33/30 149/26/30 27/26/30 39/33/30
f 161/33/9 39/33/9 24/32/9 146/32/9
f 146/32/29 24/32/29 44/19/29 166/19/29
f 166/19/19 44/19/19 45/17/19 167/17/19
f 145/16/32 167/17/32 45/17/32 23/16/32
f 145/16/6 23/16/6 22/11/6 144/11/6
f 124/9/31 144/11/31 22/11/31 2/9/31
f 152/21/17 151/38/17 29/38/17 30/21/17
f 138/6/19 129/67/19 7/67/19 16/6/19
f 138/6/34 16/6/34 18/5/34 140/5/34
f 21/12/9 143/12/9 123/10/9 1/10/9
f 29/38/9 151/38/9 153/37/9 31/37/9
f 128/3/35 138/6/35 140/5/35 139/4/35
f 130/7/15 123/10/15 124/9/15 162/8/15
f 123/10/15 143/12/15 144/11/15 124/9/15
f 123/10/15 130/7/15 164/14/15 135/13/15
f 168/15/15 169/18/15 167/17/15 145/16/15
f 167/17/15 169/18/15 142/20/15 166/19/15
f 152/21/15 126/24/15 163/23/15 158/22/15
f 162/8/15 124/9/15 149/26/15 159/25/15
f 145/16/15 144/11/15 143/12/15 168/15/15
f 126/24/15 148/27/15 164/14/15 163/23/15
f 131/28/15 125/31/15 165/30/15 147/29/15
f 132/1/15 161/33/15 146/32/15 154/2/15
f 157/34/15 153/37/15 156/36/15 155/35/15
f 151/38/15 152/21/15 158/22/15 150/39/14
f 165/30/15 157/34/15 155/35/15 147/29/15
f 142/20/15 154/2/15 146/32/15 166/19/15
f 148/27/15 136/48/15 135/13/15 164/14/15
f 136/48/15 148/27/15 125/31/15 172/44/15
f 131/28/15 137/45/15 172/44/15 125/31/15
f 174/49/15 150/39/14 160/51/14 173/50/15
f 178/52/15 133/42/15 170/47/15 179/53/15
f 176/54/15 153/37/15 151/38/15 175/55/15
f 180/56/15 171/46/15 134/41/14 181/57/15
f 181/61/15 242/60/15 238/59/15 177/58/15
f 177/64/15 238/63/15 217/62/15 156/36/15
f 129/65/9 127/66/9 123/10/9 135/13/9
f 128/3/15 127/68/15 129/67/15 138/6/15
f 153/37/15 176/54/15 177/64/15 156/36/15
f 180/72/15 176/75/15 175/74/15 179/73/15
f 150/39/14 174/49/15 175/55/15 151/38/15
f 178/76/15 174/79/15 173/78/15 182/77/15
f 159/25/15 149/26/15 173/50/15 160/51/14
f 133/42/15 178/52/15 182/80/15 141/43/15
f 171/46/15 180/56/15 179/53/15 170/47/15
f 176/75/15 180/72/15 181/61/15 177/58/15
f 174/79/15 178/76/15 179/73/15 175/74/15
f 149/83/15 183/84/15 182/77/15 173/78/15
f 149/26/15 161/33/15 132/1/15 183/85/15
f 132/1/15 141/43/15 182/80/15 183/85/15
f 131/28/6 9/28/6 70/71/6 192/71/6
f 189/89/35 200/92/35 201/91/35 199/90/35
f 191/93/15 223/95/15 185/82/15 184/94/15
f 184/94/15 185/82/15 205/97/15 204/96/15
f 184/94/15 196/99/15 225/98/15 191/93/15
f 229/100/15 206/103/15 228/102/15 230/101/15
f 228/102/15 227/105/15 203/104/15 230/101/15
f 213/106/15 219/109/15 224/108/36 187/107/36
f 223/95/15 220/110/15 210/81/15 185/82/15
f 206/103/15 229/100/15 204/96/15 205/97/15
f 187/107/36 224/108/36 225/98/15 209/111/15
f 192/71/15 208/114/15 226/113/15 186/112/15
f 193/87/15 215/86/15 207/116/15 222/115/15
f 218/117/15 216/119/15 217/62/15 214/118/15
f 212/120/15 211/121/36 219/109/15 213/106/15
f 226/113/15 208/114/15 216/119/15 218/117/15
f 203/104/15 227/105/15 207/116/15 215/86/15
f 209/111/15 225/98/15 196/99/15 197/126/15
f 197/126/15 233/124/15 186/112/15 209/111/15
f 192/71/15 186/112/15 233/124/15 198/70/15
f 235/127/15 234/129/15 221/128/15 211/121/36
f 239/130/15 240/131/15 231/125/15 194/123/14
f 237/132/15 236/133/15 212/120/15 214/118/15
f 241/134/15 242/69/15 195/40/14 232/88/15
f 190/135/9 196/99/9 184/94/9 188/136/9
f 189/89/15 199/90/15 190/138/15 188/137/15
f 214/118/15 217/62/15 238/63/15 237/132/15
f 241/139/15 240/142/15 236/141/15 237/140/15
f 211/121/36 212/120/15 236/133/15 235/127/15
f 239/143/15 243/146/15 234/145/15 235/144/15
f 220/110/15 221/128/15 234/129/15 210/81/15
f 194/123/14 202/122/15 243/147/15 239/130/15
f 232/88/15 231/125/15 240/131/15 241/134/15
f 237/140/15 238/59/15 242/60/15 241/139/15
f 235/144/15 236/141/15 240/142/15 239/143/15
f 210/148/15 234/145/15 243/146/15 244/149/15
f 210/81/15 244/150/15 193/87/15 222/115/15
f 193/87/15 244/150/15 243/147/15 202/122/15
f 59/57/3 120/69/3 73/40/4 12/41/4
f 79/91/9 201/91/9 200/92/9 78/92/9
