# Blender 5.1.0
# www.blender.org
mtllib barriere55_142.mtl
o barriere55.142
v 64.866455 0.406544 30.591082
v 64.877068 0.597168 30.653362
v 64.768456 0.643228 30.015705
v 64.794106 0.684295 30.166338
v 64.847740 0.406544 30.553244
v 64.847740 0.372827 30.553244
v 64.821503 0.406544 30.399193
v 64.840981 0.643228 30.441538
v 64.717506 0.643228 29.716619
v 64.905769 1.574804 30.821875
v 64.832153 1.574801 30.389715
v 64.729263 1.574801 29.785616
v 64.832153 0.406544 30.389715
v 64.797859 0.406544 30.188349
v 64.729263 0.406544 29.785616
v 64.821503 0.372827 30.399193
v 65.055229 0.224803 30.548935
v 65.018364 0.224803 30.332537
v 64.877060 1.574801 30.653360
v 64.928192 1.411595 30.953541
v 64.886696 0.406544 30.709906
v 64.891930 0.558043 30.740623
v 64.902725 0.558043 30.803997
v 64.902725 1.334638 30.803997
v 64.732368 0.684295 29.803883
v 64.779243 0.643228 30.079079
v 64.877060 1.295513 30.653360
v 64.830193 1.249449 30.378164
v 64.779243 1.249449 30.079079
v 64.794106 1.208383 30.166338
v 64.768456 1.249449 30.015705
v 64.920944 1.519067 30.910965
v 64.732368 1.208383 29.803883
v 64.717506 1.249449 29.716619
v 64.753586 1.208383 29.928442
v 64.815323 1.208383 30.290903
v 64.855850 1.208383 30.528799
v 64.840981 1.249452 30.441538
v 64.891930 1.334638 30.740623
v 64.855850 0.684295 30.528799
v 64.815323 0.684295 30.290903
v 64.830193 0.643228 30.378164
v 64.753586 0.684295 29.928442
v 64.917587 1.295510 30.891258
v 64.917587 0.597168 30.891258
v 64.912437 0.442269 30.861053
v 64.928192 0.546414 30.953541
v 64.797859 1.574801 30.188349
v 64.763557 1.574801 29.986982
v 64.763557 0.406544 29.986982
v 64.844589 1.295513 30.462709
v 64.830467 1.295513 30.379799
v 64.781883 1.295513 30.094549
v 64.767761 1.295513 30.011639
v 64.719170 1.295513 29.726389
v 64.831795 1.514732 30.387583
v 64.794418 1.514732 30.168175
v 64.764465 1.514732 29.992285
v 64.727089 1.514732 29.772877
v 64.870079 1.514733 30.612356
v 64.877060 1.514733 30.653360
v 64.557846 0.406544 28.779232
v 64.547234 0.597168 28.716949
v 64.655846 0.643228 29.354607
v 64.630188 0.684295 29.203974
v 64.552711 0.406544 28.821131
v 64.552711 0.372827 28.821131
v 64.578949 0.406544 28.975182
v 64.583313 0.643228 28.928774
v 64.706787 0.643228 29.653692
v 64.518532 1.574804 28.548437
v 64.592140 1.574801 28.980598
v 64.695038 1.574801 29.584698
v 64.592140 0.406544 28.980598
v 64.626442 0.406544 29.181965
v 64.695038 0.406544 29.584698
v 64.578949 0.372827 28.975182
v 64.749924 0.224803 28.756506
v 64.786781 0.224803 28.972904
v 64.547234 1.574801 28.716951
v 64.496109 1.411595 28.416773
v 64.537605 0.406544 28.660406
v 64.532372 0.558043 28.629688
v 64.521576 0.558043 28.566315
v 64.521576 1.334638 28.566315
v 64.691925 0.684295 29.566431
v 64.645050 0.643228 29.291233
v 64.547234 1.295513 28.716951
v 64.594109 1.249449 28.992149
v 64.645050 1.249449 29.291233
v 64.630188 1.208383 29.203974
v 64.655846 1.249449 29.354607
v 64.503357 1.519067 28.459349
v 64.691925 1.208383 29.566431
v 64.706787 1.249449 29.653692
v 64.670708 1.208383 29.441870
v 64.608971 1.208383 29.079409
v 64.568451 1.208383 28.841513
v 64.583313 1.249452 28.928774
v 64.532372 1.334638 28.629688
v 64.568451 0.684295 28.841513
v 64.608971 0.684295 29.079409
v 64.594109 0.643228 28.992149
v 64.670708 0.684295 29.441870
v 64.506714 1.295510 28.479053
v 64.506714 0.597168 28.479053
v 64.511856 0.442269 28.509258
v 64.496109 0.546414 28.416773
v 64.626442 1.574801 29.181965
v 64.660736 1.574801 29.383331
v 64.660736 0.406544 29.383331
v 64.579712 1.295513 28.907602
v 64.593834 1.295513 28.990513
v 64.642418 1.295513 29.275763
v 64.656540 1.295513 29.358675
v 64.705124 1.295513 29.643923
v 64.592506 1.514732 28.982731
v 64.629875 1.514732 29.202137
v 64.659836 1.514732 29.378027
v 64.697205 1.514732 29.597435
v 64.554222 1.514733 28.757956
v 64.547234 1.514733 28.716951
v 64.777298 0.406544 30.606266
v 64.787910 0.597168 30.668549
v 64.679298 0.643228 30.030891
v 64.704956 0.684295 30.181524
v 64.782433 0.406544 30.564367
v 64.782433 0.372827 30.564367
v 64.756195 0.406544 30.410316
v 64.751831 0.643228 30.456724
v 64.628357 0.643228 29.731806
v 64.816612 1.574804 30.837061
v 64.743004 1.574801 30.404900
v 64.640106 1.574801 29.800800
v 64.743004 0.406544 30.404900
v 64.708702 0.406544 30.203533
v 64.640106 0.406544 29.800800
v 64.756195 0.372827 30.410316
v 64.585220 0.224803 30.628992
v 64.548363 0.224803 30.412594
v 64.787910 1.574801 30.668547
v 64.839035 1.411595 30.968725
v 64.797539 0.406544 30.725092
v 64.802773 0.558043 30.755810
v 64.813568 0.558043 30.819183
v 64.813568 1.334638 30.819183
v 64.643219 0.684295 29.819067
v 64.690094 0.643228 30.094265
v 64.787910 1.295513 30.668547
v 64.741035 1.249449 30.393349
v 64.690094 1.249449 30.094265
v 64.704956 1.208383 30.181524
v 64.679298 1.249449 30.030891
v 64.831787 1.519067 30.926149
v 64.643219 1.208383 29.819067
v 64.628357 1.249449 29.731806
v 64.664436 1.208383 29.943628
v 64.726173 1.208383 30.306089
v 64.766693 1.208383 30.543985
v 64.751831 1.249452 30.456724
v 64.802773 1.334638 30.755810
v 64.766693 0.684295 30.543985
v 64.726173 0.684295 30.306089
v 64.741035 0.643228 30.393349
v 64.664436 0.684295 29.943628
v 64.828430 1.295510 30.906445
v 64.828430 0.597168 30.906445
v 64.823288 0.442269 30.876240
v 64.839035 0.546414 30.968725
v 64.708702 1.574801 30.203533
v 64.674408 1.574801 30.002167
v 64.674408 0.406544 30.002167
v 64.755432 1.295513 30.477896
v 64.741310 1.295513 30.394985
v 64.692726 1.295513 30.109735
v 64.678604 1.295513 30.026823
v 64.630020 1.295513 29.741575
v 64.742638 1.514732 30.402767
v 64.705269 1.514732 30.183361
v 64.675308 1.514732 30.007471
v 64.637939 1.514732 29.788063
v 64.780922 1.514733 30.627542
v 64.787910 1.514733 30.668547
v 64.468689 0.406544 28.794416
v 64.458076 0.597168 28.732136
v 64.566689 0.643228 29.369793
v 64.541039 0.684295 29.219160
v 64.487404 0.406544 28.832254
v 64.487404 0.372827 28.832254
v 64.513641 0.406544 28.986305
v 64.494164 0.643228 28.943960
v 64.617638 0.643228 29.668879
v 64.429375 1.574804 28.563623
v 64.502991 1.574801 28.995783
v 64.605881 1.574801 29.599882
v 64.502991 0.406544 28.995783
v 64.537285 0.406544 29.197149
v 64.605881 0.406544 29.599882
v 64.513641 0.372827 28.986305
v 64.279915 0.224803 28.836563
v 64.316780 0.224803 29.052961
v 64.458076 1.574801 28.732138
v 64.406952 1.411595 28.431957
v 64.448448 0.406544 28.675592
v 64.443214 0.558043 28.644875
v 64.432419 0.558043 28.581501
v 64.432419 1.334638 28.581501
v 64.602776 0.684295 29.581615
v 64.555901 0.643228 29.306419
v 64.458076 1.295513 28.732138
v 64.504951 1.249449 29.007334
v 64.555901 1.249449 29.306419
v 64.541031 1.208383 29.219160
v 64.566689 1.249449 29.369793
v 64.414200 1.519067 28.474533
v 64.602776 1.208383 29.581615
v 64.617638 1.249449 29.668879
v 64.581558 1.208383 29.457056
v 64.519821 1.208383 29.094595
v 64.479294 1.208383 28.856699
v 64.494164 1.249452 28.943960
v 64.443214 1.334638 28.644875
v 64.479294 0.684295 28.856699
v 64.519821 0.684295 29.094595
v 64.504951 0.643228 29.007334
v 64.581558 0.684295 29.457056
v 64.417557 1.295510 28.494240
v 64.417557 0.597168 28.494240
v 64.422707 0.442269 28.524445
v 64.406952 0.546414 28.431957
v 64.537285 1.574801 29.197149
v 64.571587 1.574801 29.398516
v 64.571587 0.406544 29.398516
v 64.490555 1.295513 28.922789
v 64.504677 1.295513 29.005699
v 64.553261 1.295513 29.290949
v 64.567383 1.295513 29.373859
v 64.615974 1.295513 29.659109
v 64.503349 1.514732 28.997915
v 64.540726 1.514732 29.217323
v 64.570679 1.514732 29.393213
v 64.608055 1.514732 29.612621
v 64.465065 1.514733 28.773142
v 64.458076 1.514733 28.732138
vn 0.0881 0.8511 0.5175
vn 0.5766 0.8111 -0.0982
vn 0.9858 -0.0000 -0.1679
vn 0.9858 0.0001 -0.1679
vn 0.9858 -0.0001 -0.1679
vn 0.9858 -0.0002 -0.1679
vn -0.0000 1.0000 -0.0000
vn 0.0381 -0.9739 0.2237
vn 0.1247 -0.6693 0.7324
vn -0.0000 -1.0000 -0.0000
vn 0.9858 0.0002 -0.1679
vn 0.1679 -0.0000 0.9858
vn 0.1558 0.3729 0.9147
vn 0.1644 0.2024 0.9654
vn -0.0707 0.9071 -0.4149
vn -0.9858 -0.0000 0.1679
vn -0.9858 -0.0001 0.1679
vn -0.0707 -0.9071 -0.4149
vn 0.0707 -0.9071 0.4149
vn -0.1679 -0.0000 -0.9858
vn 0.0707 0.9071 0.4149
vn -0.0881 0.8511 -0.5175
vn -0.0381 -0.9739 -0.2237
vn -0.1248 -0.6693 -0.7324
vn -0.1558 0.3729 -0.9147
vn -0.1644 0.2024 -0.9654
vn -0.0679 -0.9146 -0.3985
vn 0.0679 -0.9146 0.3986
vn 0.0679 0.9146 0.3985
vn -0.0679 0.9146 -0.3985
vn 0.0707 -0.9071 0.4148
vn 0.1640 0.2154 0.9627
vn -0.1640 0.2154 -0.9627
vn -0.5766 0.8111 0.0982
vn -0.9858 0.0001 0.1679
vt 0.563424 0.076340
vt 0.553130 0.073518
vt 0.930572 0.423953
vt 0.921307 0.379121
vt 0.987792 0.379121
vt 0.977903 0.423953
vt 0.607372 0.029178
vt 0.597289 0.031257
vt 0.582896 0.026846
vt 0.590093 0.017196
vt 0.572813 0.024865
vt 0.576362 0.017196
vt 0.613360 0.017196
vt 0.614695 0.029178
vt 0.558897 0.019004
vt 0.565490 0.024865
vt 0.555407 0.026846
vt 0.548211 0.024277
vt 0.555407 0.062200
vt 0.548211 0.068077
vt 0.639171 0.057790
vt 0.624778 0.057790
vt 0.624778 0.031257
vt 0.639171 0.031257
vt 0.597289 0.057790
vt 0.582896 0.062201
vt 0.649254 0.029178
vt 0.691136 0.029178
vt 0.681053 0.031257
vt 0.666660 0.031257
vt 0.656577 0.029178
vt 0.565490 0.064181
vt 0.572813 0.064181
vt 0.666660 0.057790
vt 0.681053 0.057790
vt 0.691136 0.059869
vt 0.656577 0.059869
vt 0.649254 0.059869
vt 0.614695 0.059869
vt 0.706379 0.076340
vt 0.683164 0.076340
vt 0.613360 0.076340
vt 0.582896 0.076340
vt 0.659896 0.017196
vt 0.683164 0.017196
vt 0.659896 0.076340
vt 0.636628 0.076340
vt 0.636628 0.017196
vt 0.614506 0.062201
vt 0.604926 0.062201
vt 0.607372 0.059869
vt 0.613607 0.073299
vt 0.638959 0.073299
vt 0.657047 0.062201
vt 0.647466 0.062201
vt 0.659283 0.073299
vt 0.684635 0.073299
vt 0.688839 0.081258
vt 0.699816 0.081258
vt 0.706005 0.126709
vt 0.682651 0.126709
vt 0.698407 0.059869
vt 0.699536 0.062201
vt 0.690007 0.062201
vt 0.612500 0.017196
vt 0.594699 0.017196
vt 0.977903 0.434165
vt 0.930572 0.434165
vt 0.704907 0.073299
vt 0.706379 0.017196
vt 0.698407 0.029178
vt 0.653445 0.126709
vt 0.630032 0.126709
vt 0.639832 0.081258
vt 0.650869 0.081258
vt 0.600826 0.126709
vt 0.570905 0.126710
vt 0.590825 0.081258
vt 0.601862 0.081258
vt 0.587634 0.073299
vt 0.806647 0.062201
vt 0.806647 0.026846
vt 0.565447 0.081258
vt 0.565447 0.126710
vt 0.582896 0.073299
vt 0.836413 0.073518
vt 0.826118 0.076340
vt 0.729647 0.076340
vt 0.978547 0.423953
vt 0.931216 0.423953
vt 0.921327 0.379121
vt 0.987812 0.379121
vt 0.782171 0.029178
vt 0.799450 0.017196
vt 0.792254 0.031257
vt 0.813181 0.017196
vt 0.816730 0.024865
vt 0.774848 0.029178
vt 0.776183 0.017196
vt 0.830646 0.019004
vt 0.841332 0.024277
vt 0.834136 0.026846
vt 0.824053 0.024865
vt 0.841332 0.068077
vt 0.834136 0.062200
vt 0.750372 0.057790
vt 0.750372 0.031257
vt 0.764765 0.031257
vt 0.764765 0.057790
vt 0.792254 0.057790
vt 0.740289 0.029178
vt 0.732966 0.029178
vt 0.722883 0.031257
vt 0.708490 0.031257
vt 0.816730 0.064181
vt 0.824053 0.064181
vt 0.722883 0.057790
vt 0.732966 0.059869
vt 0.708490 0.057790
vt 0.740289 0.059869
vt 0.774848 0.059869
vt 0.806647 0.076340
vt 0.776183 0.076340
vt 0.729647 0.017196
vt 0.752915 0.076340
vt 0.752915 0.017196
vt 0.775037 0.062201
vt 0.782171 0.059869
vt 0.784617 0.062201
vt 0.775936 0.073299
vt 0.750584 0.073299
vt 0.732496 0.062201
vt 0.742077 0.062201
vt 0.730260 0.073299
vt 0.777043 0.017196
vt 0.794844 0.017196
vt 0.978547 0.434165
vt 0.931216 0.434165
vt 0.735211 0.126709
vt 0.737787 0.081258
vt 0.748824 0.081258
vt 0.758624 0.126709
vt 0.787830 0.126709
vt 0.786794 0.081258
vt 0.797831 0.081258
vt 0.817751 0.126710
vt 0.801909 0.073299
vt 0.823209 0.081258
vt 0.823209 0.126710
vt 0.806647 0.073299
s 1
usemtl initialShadingGroup.004
f 10/1/1 132/1/1 154/2/1 32/2/1
f 6/3/2 17/4/2 18/5/2 16/6/2
f 8/7/3 40/8/3 2/9/3 1/10/3
f 1/10/3 2/9/3 22/11/3 21/12/3
f 1/10/3 13/13/3 42/14/3 8/7/3
f 46/15/3 23/16/3 45/17/3 47/18/3
f 45/17/3 44/19/3 20/20/3 47/18/3
f 30/21/3 36/22/3 41/23/3 4/24/3
f 40/8/3 37/25/3 27/26/3 2/9/3
f 23/16/3 46/15/3 21/12/3 22/11/3
f 4/24/3 41/23/3 42/14/3 26/27/3
f 9/28/3 25/29/4 43/30/4 3/31/3
f 10/1/3 32/2/3 24/32/3 39/33/3
f 35/34/5 33/35/5 34/36/3 31/37/6
f 29/38/5 28/39/4 36/22/3 30/21/3
f 43/30/4 25/29/4 33/35/5 35/34/5
f 73/40/7 195/40/7 134/41/7 12/41/7
f 46/15/8 168/15/8 143/12/8 21/12/8
f 11/42/7 133/42/7 141/43/7 19/43/7
f 47/18/9 169/18/9 168/15/9 46/15/9
f 50/44/10 172/44/10 137/45/10 15/45/10
f 19/43/7 141/43/7 132/1/7 10/1/7
f 20/20/3 44/19/3 24/32/3 32/2/3
f 49/46/7 171/46/7 170/47/7 48/47/7
f 26/27/3 42/14/3 13/13/3 14/48/3
f 14/48/3 50/44/3 3/31/3 26/27/3
f 9/28/3 3/31/3 50/44/3 15/45/3
f 52/49/4 51/50/4 38/51/11 28/39/4
f 56/52/3 57/53/3 48/47/4 11/42/4
f 54/54/5 53/55/3 29/38/5 31/37/6
f 58/56/3 59/57/5 12/41/5 49/46/3
f 55/58/3 116/59/3 120/60/3 59/61/5
f 13/13/10 135/13/10 136/48/10 14/48/10
f 20/20/12 142/20/12 169/18/12 47/18/12
f 34/36/3 95/62/3 116/63/3 55/64/3
f 48/47/7 170/47/7 133/42/7 11/42/7
f 32/2/13 154/2/13 142/20/13 20/20/13
f 14/48/10 136/48/10 172/44/10 50/44/10
f 7/65/10 13/13/10 1/10/10 5/66/10
f 6/3/3 16/6/3 7/67/3 5/68/3
f 139/4/14 17/4/14 6/3/14 128/3/14
f 5/68/12 127/68/12 128/3/12 6/3/12
f 7/65/10 129/65/10 135/13/10 13/13/10
f 1/10/10 123/10/10 127/66/10 5/66/10
f 3/31/7 125/31/7 148/27/7 26/27/7
f 26/27/15 148/27/15 126/24/15 4/24/15
f 134/41/16 195/40/17 242/69/17 181/57/16
f 156/36/10 217/62/10 95/62/10 34/36/10
f 33/35/18 155/35/18 156/36/18 34/36/18
f 37/25/18 159/25/18 160/51/18 38/51/18
f 31/37/19 153/37/19 157/34/19 35/34/19
f 25/29/20 147/29/20 155/35/20 33/35/20
f 9/28/15 131/28/15 147/29/15 25/29/15
f 4/24/20 126/24/20 152/21/20 30/21/20
f 8/7/15 130/7/15 162/8/15 40/8/15
f 40/8/20 162/8/20 159/25/20 37/25/20
f 43/30/21 165/30/21 125/31/21 3/31/21
f 38/51/10 160/51/10 150/39/10 28/39/10
f 76/70/3 70/71/3 9/28/3 15/45/3
f 36/22/12 158/22/12 163/23/12 41/23/12
f 35/34/12 157/34/12 165/30/12 43/30/12
f 42/14/7 164/14/7 130/7/7 8/7/7
f 28/39/19 150/39/19 158/22/19 36/22/19
f 31/37/6 34/36/3 55/64/3 54/54/5
f 58/72/3 57/73/3 53/74/3 54/75/5
f 28/39/4 29/38/5 53/55/3 52/49/4
f 56/76/3 60/77/3 51/78/4 52/79/4
f 37/25/3 38/51/11 51/50/4 27/26/3
f 11/42/4 19/43/3 60/80/3 56/52/3
f 49/46/3 48/47/4 57/53/3 58/56/3
f 210/81/20 88/81/20 63/82/20 185/82/20
f 54/75/5 55/58/3 59/61/5 58/72/3
f 52/79/4 53/74/3 57/73/3 56/76/3
f 27/83/3 51/78/4 60/77/3 61/84/3
f 27/26/3 61/85/3 10/1/3 39/33/3
f 10/1/3 61/85/3 60/80/3 19/43/3
f 12/41/7 134/41/7 171/46/7 49/46/7
f 41/23/21 163/23/21 164/14/21 42/14/21
f 15/45/10 137/45/10 198/70/10 76/70/10
f 93/86/22 215/86/22 193/87/22 71/87/22
f 110/88/7 232/88/7 195/40/7 73/40/7
f 67/89/2 77/90/2 79/91/2 78/92/2
f 69/93/3 62/94/3 63/82/3 101/95/3
f 62/94/3 82/96/4 83/97/4 63/82/3
f 62/94/3 69/93/3 103/98/3 74/99/3
f 107/100/3 108/101/3 106/102/3 84/103/3
f 106/102/3 108/101/3 81/104/3 105/105/3
f 91/106/3 65/107/3 102/108/3 97/109/3
f 101/95/3 63/82/3 88/81/3 98/110/5
f 84/103/3 83/97/4 82/96/4 107/100/3
f 65/107/3 87/111/3 103/98/3 102/108/3
f 70/71/3 64/112/3 104/113/4 86/114/4
f 71/87/3 100/115/3 85/116/3 93/86/3
f 96/117/5 92/118/4 95/62/3 94/119/5
f 90/120/4 91/106/3 97/109/3 89/121/5
f 104/113/4 96/117/5 94/119/5 86/114/4
f 198/70/16 137/45/16 131/28/16 192/71/16
f 82/96/23 204/96/23 229/100/23 107/100/23
f 80/122/7 202/122/7 194/123/7 72/123/7
f 107/100/24 229/100/24 230/101/24 108/101/24
f 76/70/10 198/70/10 233/124/10 111/124/10
f 71/87/7 193/87/7 202/122/7 80/122/7
f 81/104/3 93/86/3 85/116/3 105/105/3
f 109/125/7 231/125/7 232/88/7 110/88/7
f 87/111/3 75/126/3 74/99/3 103/98/3
f 75/126/3 87/111/3 64/112/3 111/124/3
f 70/71/3 76/70/3 111/124/3 64/112/3
f 113/127/3 89/121/5 99/128/5 112/129/5
f 117/130/3 72/123/3 109/125/3 118/131/3
f 115/132/4 92/118/4 90/120/4 114/133/3
f 119/134/3 110/88/3 73/40/3 120/69/3
f 75/126/10 197/126/10 196/99/10 74/99/10
f 108/101/20 230/101/20 203/104/20 81/104/20
f 72/123/7 194/123/7 231/125/7 109/125/7
f 103/98/15 225/98/15 224/108/15 102/108/15
f 81/104/25 203/104/25 215/86/25 93/86/25
f 111/124/10 233/124/10 197/126/10 75/126/10
f 68/135/10 66/136/10 62/94/10 74/99/10
f 67/89/3 66/137/3 68/138/3 77/90/3
f 200/92/26 189/89/26 67/89/26 78/92/26
f 67/89/20 189/89/20 188/137/20 66/137/20
f 74/99/10 196/99/10 190/135/10 68/135/10
f 66/136/10 188/136/10 184/94/10 62/94/10
f 87/111/7 209/111/7 186/112/7 64/112/7
f 65/107/21 187/107/21 209/111/21 87/111/21
f 97/109/18 219/109/18 211/121/18 89/121/18
f 95/62/19 217/62/19 216/119/19 94/119/19
f 99/128/19 221/128/19 220/110/19 98/110/19
f 96/117/18 218/117/18 214/118/18 92/118/18
f 94/119/12 216/119/12 208/114/12 86/114/12
f 86/114/21 208/114/21 192/71/21 70/71/21
f 91/106/12 213/106/12 187/107/12 65/107/12
f 101/95/21 223/95/21 191/93/21 69/93/21
f 98/110/12 220/110/12 223/95/12 101/95/12
f 64/112/15 186/112/15 226/113/15 104/113/15
f 89/121/10 211/121/10 221/128/10 99/128/10
f 102/108/20 224/108/20 219/109/20 97/109/20
f 104/113/20 226/113/20 218/117/20 96/117/20
f 69/93/7 191/93/7 225/98/7 103/98/7
f 92/118/4 115/132/4 116/63/3 95/62/3
f 119/139/3 115/140/4 114/141/3 118/142/3
f 89/121/5 113/127/3 114/133/3 90/120/4
f 117/143/3 113/144/3 112/145/5 121/146/3
f 98/110/5 88/81/3 112/129/5 99/128/5
f 72/123/3 117/130/3 121/147/3 80/122/3
f 110/88/3 119/134/3 118/131/3 109/125/3
f 115/140/4 119/139/3 120/60/3 116/59/3
f 113/144/3 117/143/3 118/142/3 114/141/3
f 88/148/3 122/149/3 121/146/3 112/145/5
f 88/81/3 100/115/3 71/87/3 122/150/3
f 71/87/3 80/122/3 121/147/3 122/150/3
f 17/4/10 139/4/10 140/5/10 18/5/10
f 149/26/12 124/9/12 2/9/12 27/26/12
f 222/115/27 100/115/27 88/81/27 210/81/27
f 222/115/10 207/116/10 85/116/10 100/115/10
f 207/116/28 227/105/28 105/105/28 85/116/28
f 227/105/12 228/102/12 106/102/12 105/105/12
f 206/103/29 84/103/29 106/102/29 228/102/29
f 206/103/7 205/97/7 83/97/7 84/103/7
f 185/82/30 63/82/30 83/97/30 205/97/30
f 213/106/31 91/106/31 90/120/31 212/120/31
f 199/90/12 77/90/12 68/138/12 190/138/12
f 199/90/32 201/91/32 79/91/32 77/90/32
f 62/94/10 184/94/10 204/96/10 82/96/10
f 92/118/10 214/118/10 212/120/10 90/120/10
f 161/33/28 149/26/28 27/26/28 39/33/28
f 161/33/10 39/33/10 24/32/10 146/32/10
f 146/32/27 24/32/27 44/19/27 166/19/27
f 166/19/20 44/19/20 45/17/20 167/17/20
f 145/16/30 167/17/30 45/17/30 23/16/30
f 145/16/7 23/16/7 22/11/7 144/11/7
f 124/9/29 144/11/29 22/11/29 2/9/29
f 152/21/18 151/38/18 29/38/18 30/21/18
f 138/6/20 129/67/20 7/67/20 16/6/20
f 138/6/33 16/6/33 18/5/33 140/5/33
f 21/12/10 143/12/10 123/10/10 1/10/10
f 29/38/10 151/38/10 153/37/10 31/37/10
f 128/3/34 138/6/34 140/5/34 139/4/34
f 130/7/16 123/10/16 124/9/16 162/8/16
f 123/10/16 143/12/16 144/11/16 124/9/16
f 123/10/16 130/7/16 164/14/16 135/13/16
f 168/15/16 169/18/17 167/17/16 145/16/16
f 167/17/16 169/18/17 142/20/16 166/19/16
f 152/21/17 126/24/35 163/23/35 158/22/17
f 162/8/16 124/9/16 149/26/16 159/25/16
f 145/16/16 144/11/16 143/12/16 168/15/16
f 126/24/35 148/27/16 164/14/16 163/23/35
f 131/28/16 125/31/16 165/30/16 147/29/16
f 132/1/16 161/33/16 146/32/16 154/2/16
f 157/34/16 153/37/35 156/36/16 155/35/16
f 151/38/35 152/21/17 158/22/17 150/39/16
f 165/30/16 157/34/16 155/35/16 147/29/16
f 142/20/16 154/2/16 146/32/16 166/19/16
f 148/27/16 136/48/16 135/13/16 164/14/16
f 136/48/16 148/27/16 125/31/16 172/44/16
f 131/28/16 137/45/16 172/44/16 125/31/16
f 174/49/16 150/39/16 160/51/16 173/50/16
f 178/52/16 133/42/16 170/47/16 179/53/16
f 176/54/35 153/37/35 151/38/35 175/55/16
f 180/56/16 171/46/16 134/41/16 181/57/16
f 181/61/16 242/60/17 238/59/16 177/58/16
f 177/64/16 238/63/16 217/62/16 156/36/16
f 129/65/10 127/66/10 123/10/10 135/13/10
f 128/3/16 127/68/16 129/67/16 138/6/16
f 153/37/35 176/54/35 177/64/16 156/36/16
f 180/72/16 176/75/35 175/74/16 179/73/16
f 150/39/16 174/49/16 175/55/16 151/38/35
f 178/76/16 174/79/16 173/78/16 182/77/16
f 159/25/16 149/26/16 173/50/16 160/51/16
f 133/42/16 178/52/16 182/80/16 141/43/16
f 171/46/16 180/56/16 179/53/16 170/47/16
f 176/75/35 180/72/16 181/61/16 177/58/16
f 174/79/16 178/76/16 179/73/16 175/74/16
f 149/83/16 183/84/16 182/77/16 173/78/16
f 149/26/16 161/33/16 132/1/16 183/85/16
f 132/1/16 141/43/16 182/80/16 183/85/16
f 131/28/7 9/28/7 70/71/7 192/71/7
f 189/89/34 200/92/34 201/91/34 199/90/34
f 191/93/16 223/95/16 185/82/16 184/94/16
f 184/94/16 185/82/16 205/97/16 204/96/16
f 184/94/16 196/99/16 225/98/16 191/93/16
f 229/100/16 206/103/16 228/102/16 230/101/16
f 228/102/16 227/105/16 203/104/16 230/101/16
f 213/106/35 219/109/35 224/108/16 187/107/16
f 223/95/16 220/110/16 210/81/16 185/82/16
f 206/103/16 229/100/16 204/96/16 205/97/16
f 187/107/16 224/108/16 225/98/16 209/111/16
f 192/71/16 208/114/35 226/113/35 186/112/16
f 193/87/16 215/86/16 207/116/16 222/115/16
f 218/117/17 216/119/17 217/62/16 214/118/17
f 212/120/17 211/121/16 219/109/35 213/106/35
f 226/113/35 208/114/35 216/119/17 218/117/17
f 203/104/16 227/105/16 207/116/16 215/86/16
f 209/111/16 225/98/16 196/99/16 197/126/16
f 197/126/16 233/124/16 186/112/16 209/111/16
f 192/71/16 186/112/16 233/124/16 198/70/16
f 235/127/16 234/129/16 221/128/35 211/121/16
f 239/130/16 240/131/16 231/125/35 194/123/35
f 237/132/16 236/133/17 212/120/17 214/118/17
f 241/134/16 242/69/17 195/40/17 232/88/16
f 190/135/10 196/99/10 184/94/10 188/136/10
f 189/89/16 199/90/16 190/138/16 188/137/16
f 214/118/17 217/62/16 238/63/16 237/132/16
f 241/139/16 240/142/16 236/141/17 237/140/16
f 211/121/16 212/120/17 236/133/17 235/127/16
f 239/143/16 243/146/16 234/145/16 235/144/16
f 220/110/16 221/128/35 234/129/16 210/81/16
f 194/123/35 202/122/16 243/147/16 239/130/16
f 232/88/16 231/125/35 240/131/16 241/134/16
f 237/140/16 238/59/16 242/60/17 241/139/16
f 235/144/16 236/141/17 240/142/16 239/143/16
f 210/148/16 234/145/16 243/146/16 244/149/16
f 210/81/16 244/150/16 193/87/16 222/115/16
f 193/87/16 244/150/16 243/147/16 202/122/16
f 59/57/5 120/69/3 73/40/3 12/41/5
f 79/91/10 201/91/10 200/92/10 78/92/10
