# Blender 5.1.0
# www.blender.org
mtllib barriere55_092.mtl
o barriere55.092
v 29.225998 0.406543 9.345071
v 29.183645 0.597167 9.391951
v 29.617277 0.643227 8.911984
v 29.514841 0.684294 9.025367
v 29.244137 0.406543 9.306953
v 29.244137 0.372826 9.306953
v 29.348898 0.406543 9.190999
v 29.327694 0.643227 9.232511
v 29.820667 0.643227 8.686863
v 29.069050 1.574803 9.518790
v 29.362936 1.574800 9.193502
v 29.773746 1.574800 8.738796
v 29.362936 0.406543 9.193502
v 29.499872 0.406543 9.041933
v 29.773746 0.406543 8.738796
v 29.348898 0.372826 9.190999
v 29.375935 0.224802 9.467258
v 29.523094 0.224802 9.304375
v 29.183645 1.574800 9.391949
v 28.979513 1.411594 9.617894
v 29.145193 0.406543 9.434510
v 29.124304 0.558042 9.457632
v 29.081207 0.558042 9.505334
v 29.081207 1.334637 9.505334
v 29.761326 0.684294 8.752545
v 29.574181 0.643227 8.959686
v 29.183645 1.295512 9.391949
v 29.370790 1.249448 9.184808
v 29.574181 1.249448 8.959686
v 29.514841 1.208382 9.025367
v 29.617277 1.249448 8.911984
v 29.008465 1.519066 9.585847
v 29.761326 1.208382 8.752545
v 29.820667 1.249448 8.686863
v 29.676619 1.208382 8.846302
v 29.430132 1.208382 9.119126
v 29.268353 1.208382 9.298191
v 29.327694 1.249451 9.232511
v 29.124304 1.334637 9.457632
v 29.268353 0.684294 9.298191
v 29.430132 0.684294 9.119126
v 29.370790 0.643227 9.184808
v 29.676619 0.684294 8.846302
v 29.021866 1.295509 9.571015
v 29.021866 0.597167 9.571015
v 29.042406 0.442268 9.548280
v 28.979513 0.546413 9.617894
v 29.499872 1.574800 9.041933
v 29.636810 1.574800 8.890365
v 29.636810 0.406543 8.890365
v 29.313295 1.295512 9.248446
v 29.369678 1.295512 9.186039
v 29.563660 1.295512 8.971332
v 29.620043 1.295512 8.908924
v 29.814024 1.295512 8.694216
v 29.364386 1.514731 9.191897
v 29.513592 1.514731 9.026749
v 29.633204 1.514731 8.894357
v 29.782410 1.514731 8.729208
v 29.211531 1.514732 9.361085
v 29.183645 1.514732 9.391949
v 30.458128 0.406543 7.981290
v 30.500483 0.597167 7.934411
v 30.066849 0.643227 8.414376
v 30.169287 0.684294 8.300994
v 30.422041 0.406543 8.003191
v 30.422041 0.372826 8.003191
v 30.317280 0.406543 8.119145
v 30.356434 0.643227 8.093850
v 29.863461 0.643227 8.639498
v 30.615078 1.574803 7.807570
v 30.321192 1.574800 8.132858
v 29.910379 1.574800 8.587564
v 30.321192 0.406543 8.132858
v 30.184254 0.406543 8.284428
v 29.910379 0.406543 8.587564
v 30.317280 0.372826 8.119145
v 30.594856 0.224802 8.118094
v 30.447697 0.224802 8.280978
v 30.500481 1.574800 7.934412
v 30.704615 1.411594 7.708467
v 30.538933 0.406543 7.891850
v 30.559824 0.558042 7.868729
v 30.602921 0.558042 7.821027
v 30.602921 1.334637 7.821027
v 29.922802 0.684294 8.573815
v 30.109947 0.643227 8.366674
v 30.500481 1.295512 7.934412
v 30.313335 1.249448 8.141553
v 30.109947 1.249448 8.366674
v 30.169287 1.208382 8.300994
v 30.066849 1.249448 8.414376
v 30.675661 1.519066 7.740513
v 29.922802 1.208382 8.573815
v 29.863461 1.249448 8.639498
v 30.007507 1.208382 8.480059
v 30.253996 1.208382 8.207234
v 30.415773 1.208382 8.028170
v 30.356434 1.249451 8.093850
v 30.559824 1.334637 7.868729
v 30.415773 0.684294 8.028170
v 30.253996 0.684294 8.207234
v 30.313335 0.643227 8.141553
v 30.007507 0.684294 8.480059
v 30.662260 1.295509 7.755345
v 30.662260 0.597167 7.755345
v 30.641720 0.442268 7.778081
v 30.704615 0.546413 7.708467
v 30.184254 1.574800 8.284428
v 30.047318 1.574800 8.435996
v 30.047318 0.406543 8.435996
v 30.370831 1.295512 8.077915
v 30.314447 1.295512 8.140322
v 30.120466 1.295512 8.355029
v 30.064083 1.295512 8.417437
v 29.870104 1.295512 8.632145
v 30.319740 1.514731 8.134463
v 30.170534 1.514731 8.299612
v 30.050922 1.514731 8.432004
v 29.901716 1.514731 8.597153
v 30.472595 1.514732 7.965276
v 30.500481 1.514732 7.934412
v 29.158892 0.406543 9.284442
v 29.116537 0.597167 9.331322
v 29.550171 0.643227 8.851356
v 29.447733 0.684294 8.964738
v 29.194979 0.406543 9.262541
v 29.194979 0.372826 9.262541
v 29.299740 0.406543 9.146586
v 29.260586 0.643227 9.171882
v 29.753559 0.643227 8.626234
v 29.001942 1.574803 9.458161
v 29.295828 1.574800 9.132874
v 29.706640 1.574800 8.678167
v 29.295828 0.406543 9.132874
v 29.432766 0.406543 8.981304
v 29.706640 0.406543 8.678167
v 29.299740 0.372826 9.146586
v 29.022163 0.224802 9.147637
v 29.169323 0.224802 8.984754
v 29.116539 1.574800 9.331320
v 28.912405 1.411594 9.557265
v 29.078087 0.406543 9.373881
v 29.057196 0.558042 9.397003
v 29.014099 0.558042 9.444705
v 29.014099 1.334637 9.444705
v 29.694218 0.684294 8.691916
v 29.507072 0.643227 8.899057
v 29.116539 1.295512 9.331320
v 29.303684 1.249448 9.124179
v 29.507072 1.249448 8.899057
v 29.447733 1.208382 8.964738
v 29.550171 1.249448 8.851356
v 28.941359 1.519066 9.525218
v 29.694218 1.208382 8.691916
v 29.753559 1.249448 8.626234
v 29.609512 1.208382 8.785673
v 29.363024 1.208382 9.058497
v 29.201246 1.208382 9.237562
v 29.260586 1.249451 9.171881
v 29.057196 1.334637 9.397003
v 29.201246 0.684294 9.237562
v 29.363024 0.684294 9.058497
v 29.303684 0.643227 9.124179
v 29.609512 0.684294 8.785673
v 28.954758 1.295509 9.510386
v 28.954760 0.597167 9.510386
v 28.975300 0.442268 9.487651
v 28.912405 0.546413 9.557265
v 29.432766 1.574800 8.981304
v 29.569702 1.574800 8.829736
v 29.569702 0.406543 8.829736
v 29.246189 1.295512 9.187817
v 29.302572 1.295512 9.125410
v 29.496553 1.295512 8.910702
v 29.552935 1.295512 8.848294
v 29.746916 1.295512 8.633587
v 29.297279 1.514731 9.131268
v 29.446486 1.514731 8.966120
v 29.566097 1.514731 8.833727
v 29.715303 1.514731 8.668579
v 29.144424 1.514732 9.300456
v 29.116539 1.514732 9.331320
v 30.391022 0.406543 7.920661
v 30.433374 0.597167 7.873782
v 29.999743 0.643227 8.353747
v 30.102179 0.684294 8.240365
v 30.372883 0.406543 7.958778
v 30.372883 0.372826 7.958778
v 30.268122 0.406543 8.074733
v 30.289326 0.643227 8.033221
v 29.796352 0.643227 8.578868
v 30.547970 1.574803 7.746942
v 30.254084 1.574800 8.072229
v 29.843273 1.574800 8.526936
v 30.254084 0.406543 8.072229
v 30.117147 0.406543 8.223799
v 29.843273 0.406543 8.526936
v 30.268122 0.372826 8.074733
v 30.241085 0.224802 7.798474
v 30.093925 0.224802 7.961357
v 30.433374 1.574800 7.873783
v 30.637506 1.411594 7.647838
v 30.471827 0.406543 7.831222
v 30.492716 0.558042 7.808100
v 30.535812 0.558042 7.760398
v 30.535812 1.334637 7.760398
v 29.855694 0.684294 8.513186
v 30.042839 0.643227 8.306045
v 30.433374 1.295512 7.873783
v 30.246229 1.249448 8.080924
v 30.042839 1.249448 8.306045
v 30.102179 1.208382 8.240365
v 29.999743 1.249448 8.353747
v 30.608555 1.519066 7.679884
v 29.855694 1.208382 8.513186
v 29.796352 1.249448 8.578868
v 29.940399 1.208382 8.419430
v 30.186888 1.208382 8.146605
v 30.348667 1.208382 7.967541
v 30.289326 1.249451 8.033221
v 30.492716 1.334637 7.808100
v 30.348667 0.684294 7.967541
v 30.186888 0.684294 8.146605
v 30.246229 0.643227 8.080924
v 29.940399 0.684294 8.419430
v 30.595154 1.295509 7.694716
v 30.595154 0.597167 7.694716
v 30.574614 0.442268 7.717452
v 30.637506 0.546413 7.647838
v 30.117147 1.574800 8.223798
v 29.980209 1.574800 8.375367
v 29.980209 0.406543 8.375367
v 30.303724 1.295512 8.017286
v 30.247341 1.295512 8.079693
v 30.053360 1.295512 8.294400
v 29.996977 1.295512 8.356808
v 29.802996 1.295512 8.571516
v 30.252634 1.514731 8.073834
v 30.103428 1.514731 8.238983
v 29.983816 1.514731 8.371375
v 29.834610 1.514731 8.536524
v 30.405489 1.514732 7.904647
v 30.433374 1.514732 7.873783
vn -0.3519 0.8511 0.3895
vn 0.4340 0.8111 0.3921
vn 0.7420 -0.0000 0.6704
vn -0.0000 1.0000 -0.0000
vn -0.1521 -0.9739 0.1684
vn -0.4981 -0.6693 0.5513
vn -0.0000 -1.0000 -0.0000
vn -0.6704 -0.0000 0.7420
vn -0.6220 0.3729 0.6885
vn -0.6565 0.2024 0.7267
vn 0.2821 0.9071 -0.3123
vn -0.7420 -0.0000 -0.6704
vn 0.2821 -0.9071 -0.3123
vn -0.2821 -0.9071 0.3123
vn 0.6704 -0.0000 -0.7420
vn -0.2821 0.9071 0.3123
vn 0.3519 0.8511 -0.3895
vn 0.1521 -0.9739 -0.1684
vn 0.4981 -0.6693 -0.5513
vn 0.6220 0.3729 -0.6885
vn 0.6565 0.2024 -0.7267
vn 0.2710 -0.9146 -0.3000
vn -0.2710 -0.9146 0.3000
vn -0.2710 0.9146 0.3000
vn 0.2710 0.9146 -0.3000
vn -0.6546 0.2154 0.7246
vn 0.6546 0.2154 -0.7246
vn -0.4340 0.8111 -0.3921
vn -0.7420 0.0001 -0.6704
vt 0.563424 0.076340
vt 0.553130 0.073518
vt 0.930572 0.423953
vt 0.921307 0.379121
vt 0.987792 0.379121
vt 0.977903 0.423953
vt 0.607372 0.029178
vt 0.597289 0.031257
vt 0.582896 0.026846
vt 0.590093 0.017196
vt 0.572813 0.024865
vt 0.576362 0.017196
vt 0.613360 0.017196
vt 0.614695 0.029178
vt 0.558897 0.019004
vt 0.565490 0.024865
vt 0.555407 0.026846
vt 0.548211 0.024277
vt 0.555407 0.062200
vt 0.548211 0.068077
vt 0.639171 0.057790
vt 0.624778 0.057790
vt 0.624778 0.031257
vt 0.639171 0.031257
vt 0.597289 0.057790
vt 0.582896 0.062201
vt 0.649254 0.029178
vt 0.691136 0.029178
vt 0.681053 0.031257
vt 0.666660 0.031257
vt 0.656577 0.029178
vt 0.565490 0.064181
vt 0.572813 0.064181
vt 0.666660 0.057790
vt 0.681053 0.057790
vt 0.691136 0.059869
vt 0.656577 0.059869
vt 0.649254 0.059869
vt 0.614695 0.059869
vt 0.706379 0.076340
vt 0.683164 0.076340
vt 0.613360 0.076340
vt 0.582896 0.076340
vt 0.659896 0.017196
vt 0.683164 0.017196
vt 0.659896 0.076340
vt 0.636628 0.076340
vt 0.636628 0.017196
vt 0.614506 0.062201
vt 0.604926 0.062201
vt 0.607372 0.059869
vt 0.613607 0.073299
vt 0.638959 0.073299
vt 0.657047 0.062201
vt 0.647466 0.062201
vt 0.659283 0.073299
vt 0.684635 0.073299
vt 0.688839 0.081258
vt 0.699816 0.081258
vt 0.706005 0.126709
vt 0.682651 0.126709
vt 0.698407 0.059869
vt 0.699536 0.062201
vt 0.690007 0.062201
vt 0.612500 0.017196
vt 0.594699 0.017196
vt 0.977903 0.434165
vt 0.930572 0.434165
vt 0.704907 0.073299
vt 0.706379 0.017196
vt 0.698407 0.029178
vt 0.653445 0.126709
vt 0.630032 0.126709
vt 0.639832 0.081258
vt 0.650869 0.081258
vt 0.600826 0.126709
vt 0.570905 0.126710
vt 0.590825 0.081258
vt 0.601862 0.081258
vt 0.587634 0.073299
vt 0.806647 0.062201
vt 0.806647 0.026846
vt 0.565447 0.081258
vt 0.565447 0.126710
vt 0.582896 0.073299
vt 0.836413 0.073518
vt 0.826118 0.076340
vt 0.729647 0.076340
vt 0.978547 0.423953
vt 0.931216 0.423953
vt 0.921327 0.379121
vt 0.987812 0.379121
vt 0.782171 0.029178
vt 0.799450 0.017196
vt 0.792254 0.031257
vt 0.813181 0.017196
vt 0.816730 0.024865
vt 0.774848 0.029178
vt 0.776183 0.017196
vt 0.830646 0.019004
vt 0.841332 0.024277
vt 0.834136 0.026846
vt 0.824053 0.024865
vt 0.841332 0.068077
vt 0.834136 0.062200
vt 0.750372 0.057790
vt 0.750372 0.031257
vt 0.764765 0.031257
vt 0.764765 0.057790
vt 0.792254 0.057790
vt 0.740289 0.029178
vt 0.732966 0.029178
vt 0.722883 0.031257
vt 0.708490 0.031257
vt 0.816730 0.064181
vt 0.824053 0.064181
vt 0.722883 0.057790
vt 0.732966 0.059869
vt 0.708490 0.057790
vt 0.740289 0.059869
vt 0.774848 0.059869
vt 0.806647 0.076340
vt 0.776183 0.076340
vt 0.729647 0.017196
vt 0.752915 0.076340
vt 0.752915 0.017196
vt 0.775037 0.062201
vt 0.782171 0.059869
vt 0.784617 0.062201
vt 0.775936 0.073299
vt 0.750584 0.073299
vt 0.732496 0.062201
vt 0.742077 0.062201
vt 0.730260 0.073299
vt 0.777043 0.017196
vt 0.794844 0.017196
vt 0.978547 0.434165
vt 0.931216 0.434165
vt 0.735211 0.126709
vt 0.737787 0.081258
vt 0.748824 0.081258
vt 0.758624 0.126709
vt 0.787830 0.126709
vt 0.786794 0.081258
vt 0.797831 0.081258
vt 0.817751 0.126710
vt 0.801909 0.073299
vt 0.823209 0.081258
vt 0.823209 0.126710
vt 0.806647 0.073299
s 1
usemtl initialShadingGroup.004
f 10/1/1 132/1/1 154/2/1 32/2/1
f 6/3/2 17/4/2 18/5/2 16/6/2
f 8/7/3 40/8/3 2/9/3 1/10/3
f 1/10/3 2/9/3 22/11/3 21/12/3
f 1/10/3 13/13/3 42/14/3 8/7/3
f 46/15/3 23/16/3 45/17/3 47/18/3
f 45/17/3 44/19/3 20/20/3 47/18/3
f 30/21/3 36/22/3 41/23/3 4/24/3
f 40/8/3 37/25/3 27/26/3 2/9/3
f 23/16/3 46/15/3 21/12/3 22/11/3
f 4/24/3 41/23/3 42/14/3 26/27/3
f 9/28/3 25/29/3 43/30/3 3/31/3
f 10/1/3 32/2/3 24/32/3 39/33/3
f 35/34/3 33/35/3 34/36/3 31/37/3
f 29/38/3 28/39/3 36/22/3 30/21/3
f 43/30/3 25/29/3 33/35/3 35/34/3
f 73/40/4 195/40/4 134/41/4 12/41/4
f 46/15/5 168/15/5 143/12/5 21/12/5
f 11/42/4 133/42/4 141/43/4 19/43/4
f 47/18/6 169/18/6 168/15/6 46/15/6
f 50/44/7 172/44/7 137/45/7 15/45/7
f 19/43/4 141/43/4 132/1/4 10/1/4
f 20/20/3 44/19/3 24/32/3 32/2/3
f 49/46/4 171/46/4 170/47/4 48/47/4
f 26/27/3 42/14/3 13/13/3 14/48/3
f 14/48/3 50/44/3 3/31/3 26/27/3
f 9/28/3 3/31/3 50/44/3 15/45/3
f 52/49/3 51/50/3 38/51/3 28/39/3
f 56/52/3 57/53/3 48/47/3 11/42/3
f 54/54/3 53/55/3 29/38/3 31/37/3
f 58/56/3 59/57/3 12/41/3 49/46/3
f 55/58/3 116/59/3 120/60/3 59/61/3
f 13/13/7 135/13/7 136/48/7 14/48/7
f 20/20/8 142/20/8 169/18/8 47/18/8
f 34/36/3 95/62/3 116/63/3 55/64/3
f 48/47/4 170/47/4 133/42/4 11/42/4
f 32/2/9 154/2/9 142/20/9 20/20/9
f 14/48/7 136/48/7 172/44/7 50/44/7
f 7/65/7 13/13/7 1/10/7 5/66/7
f 6/3/3 16/6/3 7/67/3 5/68/3
f 139/4/10 17/4/10 6/3/10 128/3/10
f 5/68/8 127/68/8 128/3/8 6/3/8
f 7/65/7 129/65/7 135/13/7 13/13/7
f 1/10/7 123/10/7 127/66/7 5/66/7
f 3/31/4 125/31/4 148/27/4 26/27/4
f 26/27/11 148/27/11 126/24/11 4/24/11
f 134/41/12 195/40/12 242/69/12 181/57/12
f 156/36/7 217/62/7 95/62/7 34/36/7
f 33/35/13 155/35/13 156/36/13 34/36/13
f 37/25/13 159/25/13 160/51/13 38/51/13
f 31/37/14 153/37/14 157/34/14 35/34/14
f 25/29/15 147/29/15 155/35/15 33/35/15
f 9/28/11 131/28/11 147/29/11 25/29/11
f 4/24/15 126/24/15 152/21/15 30/21/15
f 8/7/11 130/7/11 162/8/11 40/8/11
f 40/8/15 162/8/15 159/25/15 37/25/15
f 43/30/16 165/30/16 125/31/16 3/31/16
f 38/51/7 160/51/7 150/39/7 28/39/7
f 76/70/3 70/71/3 9/28/3 15/45/3
f 36/22/8 158/22/8 163/23/8 41/23/8
f 35/34/8 157/34/8 165/30/8 43/30/8
f 42/14/4 164/14/4 130/7/4 8/7/4
f 28/39/14 150/39/14 158/22/14 36/22/14
f 31/37/3 34/36/3 55/64/3 54/54/3
f 58/72/3 57/73/3 53/74/3 54/75/3
f 28/39/3 29/38/3 53/55/3 52/49/3
f 56/76/3 60/77/3 51/78/3 52/79/3
f 37/25/3 38/51/3 51/50/3 27/26/3
f 11/42/3 19/43/3 60/80/3 56/52/3
f 49/46/3 48/47/3 57/53/3 58/56/3
f 210/81/15 88/81/15 63/82/15 185/82/15
f 54/75/3 55/58/3 59/61/3 58/72/3
f 52/79/3 53/74/3 57/73/3 56/76/3
f 27/83/3 51/78/3 60/77/3 61/84/3
f 27/26/3 61/85/3 10/1/3 39/33/3
f 10/1/3 61/85/3 60/80/3 19/43/3
f 12/41/4 134/41/4 171/46/4 49/46/4
f 41/23/16 163/23/16 164/14/16 42/14/16
f 15/45/7 137/45/7 198/70/7 76/70/7
f 93/86/17 215/86/17 193/87/17 71/87/17
f 110/88/4 232/88/4 195/40/4 73/40/4
f 67/89/2 77/90/2 79/91/2 78/92/2
f 69/93/3 62/94/3 63/82/3 101/95/3
f 62/94/3 82/96/3 83/97/3 63/82/3
f 62/94/3 69/93/3 103/98/3 74/99/3
f 107/100/3 108/101/3 106/102/3 84/103/3
f 106/102/3 108/101/3 81/104/3 105/105/3
f 91/106/3 65/107/3 102/108/3 97/109/3
f 101/95/3 63/82/3 88/81/3 98/110/3
f 84/103/3 83/97/3 82/96/3 107/100/3
f 65/107/3 87/111/3 103/98/3 102/108/3
f 70/71/3 64/112/3 104/113/3 86/114/3
f 71/87/3 100/115/3 85/116/3 93/86/3
f 96/117/3 92/118/3 95/62/3 94/119/3
f 90/120/3 91/106/3 97/109/3 89/121/3
f 104/113/3 96/117/3 94/119/3 86/114/3
f 198/70/12 137/45/12 131/28/12 192/71/12
f 82/96/18 204/96/18 229/100/18 107/100/18
f 80/122/4 202/122/4 194/123/4 72/123/4
f 107/100/19 229/100/19 230/101/19 108/101/19
f 76/70/7 198/70/7 233/124/7 111/124/7
f 71/87/4 193/87/4 202/122/4 80/122/4
f 81/104/3 93/86/3 85/116/3 105/105/3
f 109/125/4 231/125/4 232/88/4 110/88/4
f 87/111/3 75/126/3 74/99/3 103/98/3
f 75/126/3 87/111/3 64/112/3 111/124/3
f 70/71/3 76/70/3 111/124/3 64/112/3
f 113/127/3 89/121/3 99/128/3 112/129/3
f 117/130/3 72/123/3 109/125/3 118/131/3
f 115/132/3 92/118/3 90/120/3 114/133/3
f 119/134/3 110/88/3 73/40/3 120/69/3
f 75/126/7 197/126/7 196/99/7 74/99/7
f 108/101/15 230/101/15 203/104/15 81/104/15
f 72/123/4 194/123/4 231/125/4 109/125/4
f 103/98/11 225/98/11 224/108/11 102/108/11
f 81/104/20 203/104/20 215/86/20 93/86/20
f 111/124/7 233/124/7 197/126/7 75/126/7
f 68/135/7 66/136/7 62/94/7 74/99/7
f 67/89/3 66/137/3 68/138/3 77/90/3
f 200/92/21 189/89/21 67/89/21 78/92/21
f 67/89/15 189/89/15 188/137/15 66/137/15
f 74/99/7 196/99/7 190/135/7 68/135/7
f 66/136/7 188/136/7 184/94/7 62/94/7
f 87/111/4 209/111/4 186/112/4 64/112/4
f 65/107/16 187/107/16 209/111/16 87/111/16
f 97/109/13 219/109/13 211/121/13 89/121/13
f 95/62/14 217/62/14 216/119/14 94/119/14
f 99/128/14 221/128/14 220/110/14 98/110/14
f 96/117/13 218/117/13 214/118/13 92/118/13
f 94/119/8 216/119/8 208/114/8 86/114/8
f 86/114/16 208/114/16 192/71/16 70/71/16
f 91/106/8 213/106/8 187/107/8 65/107/8
f 101/95/16 223/95/16 191/93/16 69/93/16
f 98/110/8 220/110/8 223/95/8 101/95/8
f 64/112/11 186/112/11 226/113/11 104/113/11
f 89/121/7 211/121/7 221/128/7 99/128/7
f 102/108/15 224/108/15 219/109/15 97/109/15
f 104/113/15 226/113/15 218/117/15 96/117/15
f 69/93/4 191/93/4 225/98/4 103/98/4
f 92/118/3 115/132/3 116/63/3 95/62/3
f 119/139/3 115/140/3 114/141/3 118/142/3
f 89/121/3 113/127/3 114/133/3 90/120/3
f 117/143/3 113/144/3 112/145/3 121/146/3
f 98/110/3 88/81/3 112/129/3 99/128/3
f 72/123/3 117/130/3 121/147/3 80/122/3
f 110/88/3 119/134/3 118/131/3 109/125/3
f 115/140/3 119/139/3 120/60/3 116/59/3
f 113/144/3 117/143/3 118/142/3 114/141/3
f 88/148/3 122/149/3 121/146/3 112/145/3
f 88/81/3 100/115/3 71/87/3 122/150/3
f 71/87/3 80/122/3 121/147/3 122/150/3
f 17/4/7 139/4/7 140/5/7 18/5/7
f 149/26/8 124/9/8 2/9/8 27/26/8
f 222/115/22 100/115/22 88/81/22 210/81/22
f 222/115/7 207/116/7 85/116/7 100/115/7
f 207/116/23 227/105/23 105/105/23 85/116/23
f 227/105/8 228/102/8 106/102/8 105/105/8
f 206/103/24 84/103/24 106/102/24 228/102/24
f 206/103/4 205/97/4 83/97/4 84/103/4
f 185/82/25 63/82/25 83/97/25 205/97/25
f 213/106/14 91/106/14 90/120/14 212/120/14
f 199/90/8 77/90/8 68/138/8 190/138/8
f 199/90/26 201/91/26 79/91/26 77/90/26
f 62/94/7 184/94/7 204/96/7 82/96/7
f 92/118/7 214/118/7 212/120/7 90/120/7
f 161/33/23 149/26/23 27/26/23 39/33/23
f 161/33/7 39/33/7 24/32/7 146/32/7
f 146/32/22 24/32/22 44/19/22 166/19/22
f 166/19/15 44/19/15 45/17/15 167/17/15
f 145/16/25 167/17/25 45/17/25 23/16/25
f 145/16/4 23/16/4 22/11/4 144/11/4
f 124/9/24 144/11/24 22/11/24 2/9/24
f 152/21/13 151/38/13 29/38/13 30/21/13
f 138/6/15 129/67/15 7/67/15 16/6/15
f 138/6/27 16/6/27 18/5/27 140/5/27
f 21/12/7 143/12/7 123/10/7 1/10/7
f 29/38/7 151/38/7 153/37/7 31/37/7
f 128/3/28 138/6/28 140/5/28 139/4/28
f 130/7/12 123/10/12 124/9/12 162/8/12
f 123/10/12 143/12/12 144/11/12 124/9/12
f 123/10/12 130/7/12 164/14/12 135/13/12
f 168/15/12 169/18/12 167/17/12 145/16/12
f 167/17/12 169/18/12 142/20/12 166/19/12
f 152/21/12 126/24/12 163/23/12 158/22/12
f 162/8/12 124/9/12 149/26/12 159/25/12
f 145/16/12 144/11/12 143/12/12 168/15/12
f 126/24/12 148/27/12 164/14/12 163/23/12
f 131/28/12 125/31/12 165/30/12 147/29/12
f 132/1/12 161/33/12 146/32/12 154/2/12
f 157/34/12 153/37/12 156/36/12 155/35/12
f 151/38/12 152/21/12 158/22/12 150/39/12
f 165/30/12 157/34/12 155/35/12 147/29/12
f 142/20/12 154/2/12 146/32/12 166/19/12
f 148/27/12 136/48/12 135/13/12 164/14/12
f 136/48/12 148/27/12 125/31/12 172/44/12
f 131/28/12 137/45/12 172/44/12 125/31/12
f 174/49/12 150/39/12 160/51/12 173/50/12
f 178/52/12 133/42/12 170/47/12 179/53/12
f 176/54/12 153/37/12 151/38/12 175/55/12
f 180/56/12 171/46/12 134/41/12 181/57/12
f 181/61/12 242/60/12 238/59/12 177/58/12
f 177/64/12 238/63/12 217/62/12 156/36/12
f 129/65/7 127/66/7 123/10/7 135/13/7
f 128/3/12 127/68/12 129/67/12 138/6/12
f 153/37/12 176/54/12 177/64/12 156/36/12
f 180/72/12 176/75/12 175/74/12 179/73/12
f 150/39/12 174/49/12 175/55/12 151/38/12
f 178/76/12 174/79/12 173/78/12 182/77/12
f 159/25/12 149/26/12 173/50/12 160/51/12
f 133/42/12 178/52/12 182/80/12 141/43/12
f 171/46/12 180/56/12 179/53/12 170/47/12
f 176/75/12 180/72/12 181/61/12 177/58/12
f 174/79/12 178/76/12 179/73/12 175/74/12
f 149/83/12 183/84/12 182/77/12 173/78/12
f 149/26/12 161/33/12 132/1/12 183/85/12
f 132/1/12 141/43/12 182/80/12 183/85/12
f 131/28/4 9/28/4 70/71/4 192/71/4
f 189/89/28 200/92/28 201/91/28 199/90/28
f 191/93/12 223/95/12 185/82/12 184/94/12
f 184/94/12 185/82/12 205/97/12 204/96/12
f 184/94/12 196/99/12 225/98/12 191/93/12
f 229/100/12 206/103/12 228/102/12 230/101/12
f 228/102/12 227/105/12 203/104/12 230/101/12
f 213/106/29 219/109/29 224/108/12 187/107/12
f 223/95/12 220/110/12 210/81/12 185/82/12
f 206/103/12 229/100/12 204/96/12 205/97/12
f 187/107/12 224/108/12 225/98/12 209/111/12
f 192/71/12 208/114/12 226/113/12 186/112/12
f 193/87/12 215/86/12 207/116/12 222/115/12
f 218/117/12 216/119/12 217/62/12 214/118/12
f 212/120/12 211/121/12 219/109/29 213/106/29
f 226/113/12 208/114/12 216/119/12 218/117/12
f 203/104/12 227/105/12 207/116/12 215/86/12
f 209/111/12 225/98/12 196/99/12 197/126/12
f 197/126/12 233/124/12 186/112/12 209/111/12
f 192/71/12 186/112/12 233/124/12 198/70/12
f 235/127/12 234/129/12 221/128/12 211/121/12
f 239/130/12 240/131/12 231/125/12 194/123/12
f 237/132/12 236/133/12 212/120/12 214/118/12
f 241/134/12 242/69/12 195/40/12 232/88/12
f 190/135/7 196/99/7 184/94/7 188/136/7
f 189/89/12 199/90/12 190/138/12 188/137/12
f 214/118/12 217/62/12 238/63/12 237/132/12
f 241/139/12 240/142/12 236/141/12 237/140/12
f 211/121/12 212/120/12 236/133/12 235/127/12
f 239/143/12 243/146/12 234/145/12 235/144/12
f 220/110/12 221/128/12 234/129/12 210/81/12
f 194/123/12 202/122/12 243/147/12 239/130/12
f 232/88/12 231/125/12 240/131/12 241/134/12
f 237/140/12 238/59/12 242/60/12 241/139/12
f 235/144/12 236/141/12 240/142/12 239/143/12
f 210/148/12 234/145/12 243/146/12 244/149/12
f 210/81/12 244/150/12 193/87/12 222/115/12
f 193/87/12 244/150/12 243/147/12 202/122/12
f 59/57/3 120/69/3 73/40/3 12/41/3
f 79/91/7 201/91/7 200/92/7 78/92/7
