# Blender 5.1.0
# www.blender.org
mtllib barriere55_129.mtl
o barriere55.129
v -29.160969 0.444969 -27.936621
v -29.130253 0.635592 -27.991829
v -29.444725 0.681653 -27.426577
v -29.370438 0.722720 -27.560106
v -29.170061 0.444969 -27.895399
v -29.170061 0.411252 -27.895399
v -29.246035 0.444969 -27.758839
v -29.234718 0.681653 -27.804058
v -29.592222 0.681653 -27.161451
v -29.047148 1.613228 -28.141209
v -29.260275 1.613226 -27.758118
v -29.558197 1.613226 -27.222612
v -29.260275 0.444969 -27.758118
v -29.359583 0.444969 -27.579617
v -29.558197 0.444969 -27.222612
v -29.246035 0.411252 -27.758839
v -29.334558 0.263228 -28.021923
v -29.441280 0.263228 -27.830097
v -29.130253 1.613226 -27.991829
v -28.982216 1.450020 -28.257923
v -29.102367 0.444969 -28.041952
v -29.087219 0.596467 -28.069183
v -29.055965 0.596467 -28.125360
v -29.055965 1.373063 -28.125360
v -29.549189 0.722720 -27.238806
v -29.413469 0.681653 -27.482754
v -29.130253 1.333937 -27.991829
v -29.265972 1.287874 -27.747879
v -29.413469 1.287874 -27.482756
v -29.370438 1.246808 -27.560106
v -29.444725 1.287874 -27.426577
v -29.003212 1.557492 -28.220182
v -29.549189 1.246808 -27.238806
v -29.592222 1.287874 -27.161451
v -29.487759 1.246808 -27.349222
v -29.309006 1.246808 -27.670527
v -29.191683 1.246808 -27.881411
v -29.234718 1.287877 -27.804058
v -29.087219 1.373063 -28.069183
v -29.191683 0.722720 -27.881411
v -29.309006 0.722720 -27.670527
v -29.265972 0.681653 -27.747879
v -29.487759 0.722720 -27.349222
v -29.012930 1.333935 -28.202715
v -29.012930 0.635592 -28.202715
v -29.027826 0.480694 -28.175940
v -28.982216 0.584839 -28.257923
v -29.359583 1.613226 -27.579617
v -29.458889 1.613226 -27.401115
v -29.458889 0.444969 -27.401115
v -29.224276 1.333937 -27.822824
v -29.265165 1.333937 -27.749329
v -29.405840 1.333937 -27.496468
v -29.446730 1.333937 -27.422972
v -29.587406 1.333937 -27.170111
v -29.261328 1.553157 -27.756227
v -29.369532 1.553157 -27.561733
v -29.456274 1.553157 -27.405815
v -29.564478 1.553157 -27.211321
v -29.150476 1.553158 -27.955481
v -29.130253 1.553158 -27.991829
v -30.054512 0.444969 -26.330500
v -30.085226 0.635592 -26.275291
v -29.770756 0.681653 -26.840544
v -29.845043 0.722720 -26.707014
v -30.024281 0.444969 -26.359962
v -30.024281 0.411252 -26.359962
v -29.948307 0.444969 -26.496521
v -29.980762 0.681653 -26.463062
v -29.623257 0.681653 -27.105669
v -30.168331 1.613228 -26.125912
v -29.955204 1.613226 -26.509003
v -29.657284 1.613226 -27.044508
v -29.955204 0.444969 -26.509003
v -29.855898 0.444969 -26.687504
v -29.657284 0.444969 -27.044508
v -29.948307 0.411252 -26.496521
v -30.218525 0.263228 -26.433018
v -30.111805 0.263228 -26.624846
v -30.085226 1.613226 -26.275291
v -30.233265 1.450020 -26.009197
v -30.113111 0.444969 -26.225168
v -30.128262 0.596467 -26.197937
v -30.159515 0.596467 -26.141760
v -30.159515 1.373063 -26.141760
v -29.666292 0.722720 -27.028315
v -29.802010 0.681653 -26.784367
v -30.085226 1.333937 -26.275291
v -29.949509 1.287874 -26.519241
v -29.802010 1.287874 -26.784367
v -29.845043 1.246808 -26.707014
v -29.770756 1.287874 -26.840544
v -30.212267 1.557492 -26.046940
v -29.666292 1.246808 -27.028315
v -29.623257 1.287874 -27.105669
v -29.727720 1.246808 -26.917898
v -29.906473 1.246808 -26.596594
v -30.023796 1.246808 -26.385710
v -29.980762 1.287877 -26.463062
v -30.128262 1.373063 -26.197937
v -30.023796 0.722720 -26.385710
v -29.906473 0.722720 -26.596594
v -29.949509 0.681653 -26.519241
v -29.727720 0.722720 -26.917898
v -30.202549 1.333935 -26.064405
v -30.202549 0.635592 -26.064405
v -30.187653 0.480694 -26.091181
v -30.233265 0.584839 -26.009197
v -29.855898 1.613226 -26.687504
v -29.756590 1.613226 -26.866005
v -29.756590 0.444969 -26.866007
v -29.991203 1.333937 -26.444296
v -29.950314 1.333937 -26.517792
v -29.809639 1.333937 -26.770653
v -29.768749 1.333937 -26.844149
v -29.628075 1.333937 -27.097010
v -29.954153 1.553157 -26.510893
v -29.845947 1.553157 -26.705387
v -29.759205 1.553157 -26.861305
v -29.651001 1.553157 -27.055799
v -30.065004 1.553158 -26.311640
v -30.085226 1.553158 -26.275291
v -29.081936 0.444969 -27.892653
v -29.051222 0.635592 -27.947861
v -29.365692 0.681653 -27.382608
v -29.291405 0.722720 -27.516138
v -29.112167 0.444969 -27.863190
v -29.112167 0.411252 -27.863190
v -29.188141 0.444969 -27.726631
v -29.155685 0.681653 -27.760090
v -29.513191 0.681653 -27.117483
v -28.968117 1.613228 -28.097240
v -29.181244 1.613226 -27.714149
v -29.479164 1.613226 -27.178644
v -29.181244 0.444969 -27.714149
v -29.280550 0.444969 -27.535648
v -29.479164 0.444969 -27.178644
v -29.188141 0.411252 -27.726631
v -28.917923 0.263228 -27.790134
v -29.024643 0.263228 -27.598307
v -29.051222 1.613226 -27.947861
v -28.903183 1.450020 -28.213955
v -29.023336 0.444969 -27.997984
v -29.008186 0.596467 -28.025215
v -28.976933 0.596467 -28.081392
v -28.976933 1.373063 -28.081392
v -29.470156 0.722720 -27.194838
v -29.334438 0.681653 -27.438786
v -29.051222 1.333937 -27.947861
v -29.186939 1.287874 -27.703911
v -29.334438 1.287874 -27.438786
v -29.291405 1.246808 -27.516138
v -29.365692 1.287874 -27.382608
v -28.924181 1.557492 -28.176212
v -29.470156 1.246808 -27.194838
v -29.513191 1.287874 -27.117483
v -29.408728 1.246808 -27.305254
v -29.229975 1.246808 -27.626558
v -29.112652 1.246808 -27.837442
v -29.155685 1.287877 -27.760090
v -29.008186 1.373063 -28.025215
v -29.112652 0.722720 -27.837442
v -29.229975 0.722720 -27.626558
v -29.186939 0.681653 -27.703911
v -29.408728 0.722720 -27.305254
v -28.933899 1.333935 -28.158747
v -28.933899 0.635592 -28.158747
v -28.948795 0.480694 -28.131971
v -28.903183 0.584839 -28.213955
v -29.280550 1.613226 -27.535648
v -29.379858 1.613226 -27.357145
v -29.379858 0.444969 -27.357145
v -29.145245 1.333937 -27.778856
v -29.186134 1.333937 -27.705360
v -29.326809 1.333937 -27.452499
v -29.367699 1.333937 -27.379004
v -29.508373 1.333937 -27.126143
v -29.182295 1.553157 -27.712259
v -29.290499 1.553157 -27.517765
v -29.377243 1.553157 -27.361847
v -29.485447 1.553157 -27.167353
v -29.071444 1.553158 -27.911512
v -29.051222 1.553158 -27.947861
v -29.975479 0.444969 -26.286531
v -30.006195 0.635592 -26.231323
v -29.691723 0.681653 -26.796576
v -29.766010 0.722720 -26.663046
v -29.966387 0.444969 -26.327753
v -29.966387 0.411252 -26.327753
v -29.890413 0.444969 -26.464314
v -29.901730 0.681653 -26.419094
v -29.544226 0.681653 -27.061701
v -30.089300 1.613228 -26.081944
v -29.876173 1.613226 -26.465034
v -29.578251 1.613226 -27.000540
v -29.876173 0.444969 -26.465034
v -29.776865 0.444969 -26.643536
v -29.578251 0.444969 -27.000540
v -29.890413 0.411252 -26.464314
v -29.801889 0.263228 -26.201229
v -29.695168 0.263228 -26.393055
v -30.006193 1.613226 -26.231323
v -30.154232 1.450020 -25.965229
v -30.034081 0.444969 -26.181200
v -30.049229 0.596467 -26.153969
v -30.080482 0.596467 -26.097792
v -30.080482 1.373063 -26.097792
v -29.587259 0.722720 -26.984346
v -29.722979 0.681653 -26.740396
v -30.006193 1.333937 -26.231323
v -29.870476 1.287874 -26.475273
v -29.722979 1.287874 -26.740396
v -29.766010 1.246808 -26.663046
v -29.691723 1.287874 -26.796576
v -30.133236 1.557492 -26.002970
v -29.587259 1.246808 -26.984346
v -29.544226 1.287874 -27.061701
v -29.648687 1.246808 -26.873930
v -29.827442 1.246808 -26.552626
v -29.944765 1.246808 -26.341742
v -29.901730 1.287877 -26.419094
v -30.049229 1.373063 -26.153969
v -29.944765 0.722720 -26.341742
v -29.827442 0.722720 -26.552626
v -29.870476 0.681653 -26.475273
v -29.648689 0.722720 -26.873930
v -30.123518 1.333935 -26.020437
v -30.123518 0.635592 -26.020437
v -30.108622 0.480694 -26.047213
v -30.154232 0.584839 -25.965229
v -29.776865 1.613226 -26.643536
v -29.677559 1.613226 -26.822037
v -29.677559 0.444969 -26.822037
v -29.912170 1.333937 -26.400328
v -29.871283 1.333937 -26.473824
v -29.730608 1.333937 -26.726685
v -29.689718 1.333937 -26.800180
v -29.549042 1.333937 -27.053041
v -29.875120 1.553157 -26.466925
v -29.766916 1.553157 -26.661419
v -29.680174 1.553157 -26.817337
v -29.571968 1.553157 -27.011831
v -29.985971 1.553158 -26.267672
v -30.006193 1.553158 -26.231323
vn 0.2552 0.8512 -0.4587
vn -0.5111 0.8111 -0.2844
vn -0.8739 -0.0000 -0.4862
vn -0.0000 1.0000 -0.0000
vn 0.1103 -0.9739 -0.1983
vn 0.3612 -0.6693 -0.6493
vn -0.0000 -1.0000 -0.0000
vn 0.4862 -0.0000 -0.8739
vn 0.4511 0.3729 -0.8108
vn 0.4761 0.2024 -0.8558
vn -0.2046 0.9071 0.3678
vn 0.8739 -0.0000 0.4862
vn -0.2046 -0.9071 0.3678
vn 0.2046 -0.9071 -0.3678
vn -0.4862 -0.0000 0.8739
vn 0.2046 0.9071 -0.3678
vn -0.2552 0.8511 0.4587
vn -0.1103 -0.9739 0.1983
vn -0.3612 -0.6693 0.6493
vn -0.4511 0.3729 0.8108
vn -0.4761 0.2024 0.8558
vn -0.1965 -0.9146 0.3533
vn 0.1966 -0.9146 -0.3533
vn 0.1965 0.9146 -0.3533
vn -0.1965 0.9146 0.3533
vn 0.4748 0.2154 -0.8534
vn 0.1965 -0.9146 -0.3533
vn -0.1966 -0.9146 0.3533
vn -0.4748 0.2154 0.8534
vn 0.5111 0.8111 0.2844
vt 0.563424 0.076340
vt 0.553130 0.073518
vt 0.930572 0.423953
vt 0.921307 0.379121
vt 0.987792 0.379121
vt 0.977903 0.423953
vt 0.607372 0.029178
vt 0.597289 0.031257
vt 0.582896 0.026846
vt 0.590093 0.017196
vt 0.572813 0.024865
vt 0.576362 0.017196
vt 0.613360 0.017196
vt 0.614695 0.029178
vt 0.558897 0.019004
vt 0.565490 0.024865
vt 0.555407 0.026846
vt 0.548211 0.024277
vt 0.555407 0.062200
vt 0.548211 0.068077
vt 0.639171 0.057790
vt 0.624778 0.057790
vt 0.624778 0.031257
vt 0.639171 0.031257
vt 0.597289 0.057790
vt 0.582896 0.062201
vt 0.649254 0.029178
vt 0.691136 0.029178
vt 0.681053 0.031257
vt 0.666660 0.031257
vt 0.656577 0.029178
vt 0.565490 0.064181
vt 0.572813 0.064181
vt 0.666660 0.057790
vt 0.681053 0.057790
vt 0.691136 0.059869
vt 0.656577 0.059869
vt 0.649254 0.059869
vt 0.614695 0.059869
vt 0.706379 0.076340
vt 0.683164 0.076340
vt 0.613360 0.076340
vt 0.582896 0.076340
vt 0.659896 0.017196
vt 0.683164 0.017196
vt 0.659896 0.076340
vt 0.636628 0.076340
vt 0.636628 0.017196
vt 0.614506 0.062201
vt 0.604926 0.062201
vt 0.607372 0.059869
vt 0.613607 0.073299
vt 0.638959 0.073299
vt 0.657047 0.062201
vt 0.647466 0.062201
vt 0.659283 0.073299
vt 0.684635 0.073299
vt 0.688839 0.081258
vt 0.699816 0.081258
vt 0.706005 0.126709
vt 0.682651 0.126709
vt 0.698407 0.059869
vt 0.699536 0.062201
vt 0.690007 0.062201
vt 0.612500 0.017196
vt 0.594699 0.017196
vt 0.977903 0.434165
vt 0.930572 0.434165
vt 0.704907 0.073299
vt 0.706379 0.017196
vt 0.698407 0.029178
vt 0.653445 0.126709
vt 0.630032 0.126709
vt 0.639832 0.081258
vt 0.650869 0.081258
vt 0.600826 0.126709
vt 0.570905 0.126710
vt 0.590825 0.081258
vt 0.601862 0.081258
vt 0.587634 0.073299
vt 0.806647 0.062201
vt 0.806647 0.026846
vt 0.565447 0.081258
vt 0.565447 0.126710
vt 0.582896 0.073299
vt 0.836413 0.073518
vt 0.826118 0.076340
vt 0.729647 0.076340
vt 0.978547 0.423953
vt 0.931216 0.423953
vt 0.921327 0.379121
vt 0.987812 0.379121
vt 0.782171 0.029178
vt 0.799450 0.017196
vt 0.792254 0.031257
vt 0.813181 0.017196
vt 0.816730 0.024865
vt 0.774848 0.029178
vt 0.776183 0.017196
vt 0.830646 0.019004
vt 0.841332 0.024277
vt 0.834136 0.026846
vt 0.824053 0.024865
vt 0.841332 0.068077
vt 0.834136 0.062200
vt 0.750372 0.057790
vt 0.750372 0.031257
vt 0.764765 0.031257
vt 0.764765 0.057790
vt 0.792254 0.057790
vt 0.740289 0.029178
vt 0.732966 0.029178
vt 0.722883 0.031257
vt 0.708490 0.031257
vt 0.816730 0.064181
vt 0.824053 0.064181
vt 0.722883 0.057790
vt 0.732966 0.059869
vt 0.708490 0.057790
vt 0.740289 0.059869
vt 0.774848 0.059869
vt 0.806647 0.076340
vt 0.776183 0.076340
vt 0.729647 0.017196
vt 0.752915 0.076340
vt 0.752915 0.017196
vt 0.775037 0.062201
vt 0.782171 0.059869
vt 0.784617 0.062201
vt 0.775936 0.073299
vt 0.750584 0.073299
vt 0.732496 0.062201
vt 0.742077 0.062201
vt 0.730260 0.073299
vt 0.777043 0.017196
vt 0.794844 0.017196
vt 0.978547 0.434165
vt 0.931216 0.434165
vt 0.735211 0.126709
vt 0.737787 0.081258
vt 0.748824 0.081258
vt 0.758624 0.126709
vt 0.787830 0.126709
vt 0.786794 0.081258
vt 0.797831 0.081258
vt 0.817751 0.126710
vt 0.801909 0.073299
vt 0.823209 0.081258
vt 0.823209 0.126710
vt 0.806647 0.073299
s 1
usemtl initialShadingGroup.004
f 10/1/1 132/1/1 154/2/1 32/2/1
f 6/3/2 17/4/2 18/5/2 16/6/2
f 8/7/3 40/8/3 2/9/3 1/10/3
f 1/10/3 2/9/3 22/11/3 21/12/3
f 1/10/3 13/13/3 42/14/3 8/7/3
f 46/15/3 23/16/3 45/17/3 47/18/3
f 45/17/3 44/19/3 20/20/3 47/18/3
f 30/21/3 36/22/3 41/23/3 4/24/3
f 40/8/3 37/25/3 27/26/3 2/9/3
f 23/16/3 46/15/3 21/12/3 22/11/3
f 4/24/3 41/23/3 42/14/3 26/27/3
f 9/28/3 25/29/3 43/30/3 3/31/3
f 10/1/3 32/2/3 24/32/3 39/33/3
f 35/34/3 33/35/3 34/36/3 31/37/3
f 29/38/3 28/39/3 36/22/3 30/21/3
f 43/30/3 25/29/3 33/35/3 35/34/3
f 73/40/4 195/40/4 134/41/4 12/41/4
f 46/15/5 168/15/5 143/12/5 21/12/5
f 11/42/4 133/42/4 141/43/4 19/43/4
f 47/18/6 169/18/6 168/15/6 46/15/6
f 50/44/7 172/44/7 137/45/7 15/45/7
f 19/43/4 141/43/4 132/1/4 10/1/4
f 20/20/3 44/19/3 24/32/3 32/2/3
f 49/46/4 171/46/4 170/47/4 48/47/4
f 26/27/3 42/14/3 13/13/3 14/48/3
f 14/48/3 50/44/3 3/31/3 26/27/3
f 9/28/3 3/31/3 50/44/3 15/45/3
f 52/49/3 51/50/3 38/51/3 28/39/3
f 56/52/3 57/53/3 48/47/3 11/42/3
f 54/54/3 53/55/3 29/38/3 31/37/3
f 58/56/3 59/57/3 12/41/3 49/46/3
f 55/58/3 116/59/3 120/60/3 59/61/3
f 13/13/7 135/13/7 136/48/7 14/48/7
f 20/20/8 142/20/8 169/18/8 47/18/8
f 34/36/3 95/62/3 116/63/3 55/64/3
f 48/47/4 170/47/4 133/42/4 11/42/4
f 32/2/9 154/2/9 142/20/9 20/20/9
f 14/48/7 136/48/7 172/44/7 50/44/7
f 7/65/7 13/13/7 1/10/7 5/66/7
f 6/3/3 16/6/3 7/67/3 5/68/3
f 139/4/10 17/4/10 6/3/10 128/3/10
f 5/68/8 127/68/8 128/3/8 6/3/8
f 7/65/7 129/65/7 135/13/7 13/13/7
f 1/10/7 123/10/7 127/66/7 5/66/7
f 3/31/4 125/31/4 148/27/4 26/27/4
f 26/27/11 148/27/11 126/24/11 4/24/11
f 134/41/12 195/40/12 242/69/12 181/57/12
f 156/36/7 217/62/7 95/62/7 34/36/7
f 33/35/13 155/35/13 156/36/13 34/36/13
f 37/25/13 159/25/13 160/51/13 38/51/13
f 31/37/14 153/37/14 157/34/14 35/34/14
f 25/29/15 147/29/15 155/35/15 33/35/15
f 9/28/11 131/28/11 147/29/11 25/29/11
f 4/24/15 126/24/15 152/21/15 30/21/15
f 8/7/11 130/7/11 162/8/11 40/8/11
f 40/8/15 162/8/15 159/25/15 37/25/15
f 43/30/16 165/30/16 125/31/16 3/31/16
f 38/51/7 160/51/7 150/39/7 28/39/7
f 76/70/3 70/71/3 9/28/3 15/45/3
f 36/22/8 158/22/8 163/23/8 41/23/8
f 35/34/8 157/34/8 165/30/8 43/30/8
f 42/14/4 164/14/4 130/7/4 8/7/4
f 28/39/14 150/39/14 158/22/14 36/22/14
f 31/37/3 34/36/3 55/64/3 54/54/3
f 58/72/3 57/73/3 53/74/3 54/75/3
f 28/39/3 29/38/3 53/55/3 52/49/3
f 56/76/3 60/77/3 51/78/3 52/79/3
f 37/25/3 38/51/3 51/50/3 27/26/3
f 11/42/3 19/43/3 60/80/3 56/52/3
f 49/46/3 48/47/3 57/53/3 58/56/3
f 210/81/15 88/81/15 63/82/15 185/82/15
f 54/75/3 55/58/3 59/61/3 58/72/3
f 52/79/3 53/74/3 57/73/3 56/76/3
f 27/83/3 51/78/3 60/77/3 61/84/3
f 27/26/3 61/85/3 10/1/3 39/33/3
f 10/1/3 61/85/3 60/80/3 19/43/3
f 12/41/4 134/41/4 171/46/4 49/46/4
f 41/23/16 163/23/16 164/14/16 42/14/16
f 15/45/7 137/45/7 198/70/7 76/70/7
f 93/86/17 215/86/17 193/87/17 71/87/17
f 110/88/4 232/88/4 195/40/4 73/40/4
f 67/89/2 77/90/2 79/91/2 78/92/2
f 69/93/3 62/94/3 63/82/3 101/95/3
f 62/94/3 82/96/3 83/97/3 63/82/3
f 62/94/3 69/93/3 103/98/3 74/99/3
f 107/100/3 108/101/3 106/102/3 84/103/3
f 106/102/3 108/101/3 81/104/3 105/105/3
f 91/106/3 65/107/3 102/108/3 97/109/3
f 101/95/3 63/82/3 88/81/3 98/110/3
f 84/103/3 83/97/3 82/96/3 107/100/3
f 65/107/3 87/111/3 103/98/3 102/108/3
f 70/71/3 64/112/3 104/113/3 86/114/3
f 71/87/3 100/115/3 85/116/3 93/86/3
f 96/117/3 92/118/3 95/62/3 94/119/3
f 90/120/3 91/106/3 97/109/3 89/121/3
f 104/113/3 96/117/3 94/119/3 86/114/3
f 198/70/12 137/45/12 131/28/12 192/71/12
f 82/96/18 204/96/18 229/100/18 107/100/18
f 80/122/4 202/122/4 194/123/4 72/123/4
f 107/100/19 229/100/19 230/101/19 108/101/19
f 76/70/7 198/70/7 233/124/7 111/124/7
f 71/87/4 193/87/4 202/122/4 80/122/4
f 81/104/3 93/86/3 85/116/3 105/105/3
f 109/125/4 231/125/4 232/88/4 110/88/4
f 87/111/3 75/126/3 74/99/3 103/98/3
f 75/126/3 87/111/3 64/112/3 111/124/3
f 70/71/3 76/70/3 111/124/3 64/112/3
f 113/127/3 89/121/3 99/128/3 112/129/3
f 117/130/3 72/123/3 109/125/3 118/131/3
f 115/132/3 92/118/3 90/120/3 114/133/3
f 119/134/3 110/88/3 73/40/3 120/69/3
f 75/126/7 197/126/7 196/99/7 74/99/7
f 108/101/15 230/101/15 203/104/15 81/104/15
f 72/123/4 194/123/4 231/125/4 109/125/4
f 103/98/11 225/98/11 224/108/11 102/108/11
f 81/104/20 203/104/20 215/86/20 93/86/20
f 111/124/7 233/124/7 197/126/7 75/126/7
f 68/135/7 66/136/7 62/94/7 74/99/7
f 67/89/3 66/137/3 68/138/3 77/90/3
f 200/92/21 189/89/21 67/89/21 78/92/21
f 67/89/15 189/89/15 188/137/15 66/137/15
f 74/99/7 196/99/7 190/135/7 68/135/7
f 66/136/7 188/136/7 184/94/7 62/94/7
f 87/111/4 209/111/4 186/112/4 64/112/4
f 65/107/16 187/107/16 209/111/16 87/111/16
f 97/109/13 219/109/13 211/121/13 89/121/13
f 95/62/14 217/62/14 216/119/14 94/119/14
f 99/128/14 221/128/14 220/110/14 98/110/14
f 96/117/13 218/117/13 214/118/13 92/118/13
f 94/119/8 216/119/8 208/114/8 86/114/8
f 86/114/16 208/114/16 192/71/16 70/71/16
f 91/106/8 213/106/8 187/107/8 65/107/8
f 101/95/16 223/95/16 191/93/16 69/93/16
f 98/110/8 220/110/8 223/95/8 101/95/8
f 64/112/11 186/112/11 226/113/11 104/113/11
f 89/121/7 211/121/7 221/128/7 99/128/7
f 102/108/15 224/108/15 219/109/15 97/109/15
f 104/113/15 226/113/15 218/117/15 96/117/15
f 69/93/4 191/93/4 225/98/4 103/98/4
f 92/118/3 115/132/3 116/63/3 95/62/3
f 119/139/3 115/140/3 114/141/3 118/142/3
f 89/121/3 113/127/3 114/133/3 90/120/3
f 117/143/3 113/144/3 112/145/3 121/146/3
f 98/110/3 88/81/3 112/129/3 99/128/3
f 72/123/3 117/130/3 121/147/3 80/122/3
f 110/88/3 119/134/3 118/131/3 109/125/3
f 115/140/3 119/139/3 120/60/3 116/59/3
f 113/144/3 117/143/3 118/142/3 114/141/3
f 88/148/3 122/149/3 121/146/3 112/145/3
f 88/81/3 100/115/3 71/87/3 122/150/3
f 71/87/3 80/122/3 121/147/3 122/150/3
f 17/4/7 139/4/7 140/5/7 18/5/7
f 149/26/8 124/9/8 2/9/8 27/26/8
f 222/115/22 100/115/22 88/81/22 210/81/22
f 222/115/7 207/116/7 85/116/7 100/115/7
f 207/116/23 227/105/23 105/105/23 85/116/23
f 227/105/8 228/102/8 106/102/8 105/105/8
f 206/103/24 84/103/24 106/102/24 228/102/24
f 206/103/4 205/97/4 83/97/4 84/103/4
f 185/82/25 63/82/25 83/97/25 205/97/25
f 213/106/14 91/106/14 90/120/14 212/120/14
f 199/90/8 77/90/8 68/138/8 190/138/8
f 199/90/26 201/91/26 79/91/26 77/90/26
f 62/94/7 184/94/7 204/96/7 82/96/7
f 92/118/7 214/118/7 212/120/7 90/120/7
f 161/33/27 149/26/27 27/26/27 39/33/27
f 161/33/7 39/33/7 24/32/7 146/32/7
f 146/32/28 24/32/28 44/19/28 166/19/28
f 166/19/15 44/19/15 45/17/15 167/17/15
f 145/16/25 167/17/25 45/17/25 23/16/25
f 145/16/4 23/16/4 22/11/4 144/11/4
f 124/9/24 144/11/24 22/11/24 2/9/24
f 152/21/13 151/38/13 29/38/13 30/21/13
f 138/6/15 129/67/15 7/67/15 16/6/15
f 138/6/29 16/6/29 18/5/29 140/5/29
f 21/12/7 143/12/7 123/10/7 1/10/7
f 29/38/7 151/38/7 153/37/7 31/37/7
f 128/3/30 138/6/30 140/5/30 139/4/30
f 130/7/12 123/10/12 124/9/12 162/8/12
f 123/10/12 143/12/12 144/11/12 124/9/12
f 123/10/12 130/7/12 164/14/12 135/13/12
f 168/15/12 169/18/12 167/17/12 145/16/12
f 167/17/12 169/18/12 142/20/12 166/19/12
f 152/21/12 126/24/12 163/23/12 158/22/12
f 162/8/12 124/9/12 149/26/12 159/25/12
f 145/16/12 144/11/12 143/12/12 168/15/12
f 126/24/12 148/27/12 164/14/12 163/23/12
f 131/28/12 125/31/12 165/30/12 147/29/12
f 132/1/12 161/33/12 146/32/12 154/2/12
f 157/34/12 153/37/12 156/36/12 155/35/12
f 151/38/12 152/21/12 158/22/12 150/39/12
f 165/30/12 157/34/12 155/35/12 147/29/12
f 142/20/12 154/2/12 146/32/12 166/19/12
f 148/27/12 136/48/12 135/13/12 164/14/12
f 136/48/12 148/27/12 125/31/12 172/44/12
f 131/28/12 137/45/12 172/44/12 125/31/12
f 174/49/12 150/39/12 160/51/12 173/50/12
f 178/52/12 133/42/12 170/47/12 179/53/12
f 176/54/12 153/37/12 151/38/12 175/55/12
f 180/56/12 171/46/12 134/41/12 181/57/12
f 181/61/12 242/60/12 238/59/12 177/58/12
f 177/64/12 238/63/12 217/62/12 156/36/12
f 129/65/7 127/66/7 123/10/7 135/13/7
f 128/3/12 127/68/12 129/67/12 138/6/12
f 153/37/12 176/54/12 177/64/12 156/36/12
f 180/72/12 176/75/12 175/74/12 179/73/12
f 150/39/12 174/49/12 175/55/12 151/38/12
f 178/76/12 174/79/12 173/78/12 182/77/12
f 159/25/12 149/26/12 173/50/12 160/51/12
f 133/42/12 178/52/12 182/80/12 141/43/12
f 171/46/12 180/56/12 179/53/12 170/47/12
f 176/75/12 180/72/12 181/61/12 177/58/12
f 174/79/12 178/76/12 179/73/12 175/74/12
f 149/83/12 183/84/12 182/77/12 173/78/12
f 149/26/12 161/33/12 132/1/12 183/85/12
f 132/1/12 141/43/12 182/80/12 183/85/12
f 131/28/4 9/28/4 70/71/4 192/71/4
f 189/89/30 200/92/30 201/91/30 199/90/30
f 191/93/12 223/95/12 185/82/12 184/94/12
f 184/94/12 185/82/12 205/97/12 204/96/12
f 184/94/12 196/99/12 225/98/12 191/93/12
f 229/100/12 206/103/12 228/102/12 230/101/12
f 228/102/12 227/105/12 203/104/12 230/101/12
f 213/106/12 219/109/12 224/108/12 187/107/12
f 223/95/12 220/110/12 210/81/12 185/82/12
f 206/103/12 229/100/12 204/96/12 205/97/12
f 187/107/12 224/108/12 225/98/12 209/111/12
f 192/71/12 208/114/12 226/113/12 186/112/12
f 193/87/12 215/86/12 207/116/12 222/115/12
f 218/117/12 216/119/12 217/62/12 214/118/12
f 212/120/12 211/121/12 219/109/12 213/106/12
f 226/113/12 208/114/12 216/119/12 218/117/12
f 203/104/12 227/105/12 207/116/12 215/86/12
f 209/111/12 225/98/12 196/99/12 197/126/12
f 197/126/12 233/124/12 186/112/12 209/111/12
f 192/71/12 186/112/12 233/124/12 198/70/12
f 235/127/12 234/129/12 221/128/12 211/121/12
f 239/130/12 240/131/12 231/125/12 194/123/12
f 237/132/12 236/133/12 212/120/12 214/118/12
f 241/134/12 242/69/12 195/40/12 232/88/12
f 190/135/7 196/99/7 184/94/7 188/136/7
f 189/89/12 199/90/12 190/138/12 188/137/12
f 214/118/12 217/62/12 238/63/12 237/132/12
f 241/139/12 240/142/12 236/141/12 237/140/12
f 211/121/12 212/120/12 236/133/12 235/127/12
f 239/143/12 243/146/12 234/145/12 235/144/12
f 220/110/12 221/128/12 234/129/12 210/81/12
f 194/123/12 202/122/12 243/147/12 239/130/12
f 232/88/12 231/125/12 240/131/12 241/134/12
f 237/140/12 238/59/12 242/60/12 241/139/12
f 235/144/12 236/141/12 240/142/12 239/143/12
f 210/148/12 234/145/12 243/146/12 244/149/12
f 210/81/12 244/150/12 193/87/12 222/115/12
f 193/87/12 244/150/12 243/147/12 202/122/12
f 59/57/3 120/69/3 73/40/3 12/41/3
f 79/91/7 201/91/7 200/92/7 78/92/7
