# Blender 5.1.0
# www.blender.org
mtllib barriere55_015.mtl
o barriere55.015
v 36.205200 0.406541 -7.780494
v 36.145729 0.597165 -7.759170
v 36.754612 0.643225 -7.977492
v 36.610775 0.684292 -7.925919
v 36.239185 0.406541 -7.805529
v 36.239185 0.372824 -7.805529
v 36.386288 0.406541 -7.858273
v 36.347992 0.643225 -7.831695
v 37.040199 0.643225 -8.079894
v 35.984821 1.574802 -7.701473
v 36.397480 1.574798 -7.849438
v 36.974319 1.574798 -8.056272
v 36.397480 0.406541 -7.849438
v 36.589760 0.406541 -7.918383
v 36.974319 0.406541 -8.056272
v 36.386288 0.372824 -7.858273
v 36.279671 0.224800 -7.601986
v 36.486301 0.224800 -7.676077
v 36.145729 1.574798 -7.759170
v 35.859097 1.411592 -7.656393
v 36.091736 0.406541 -7.739810
v 36.062405 0.558040 -7.729291
v 36.001892 0.558040 -7.707593
v 36.001892 1.334635 -7.707593
v 36.956875 0.684292 -8.050017
v 36.694096 0.643225 -7.955794
v 36.145729 1.295511 -7.759170
v 36.408508 1.249446 -7.853393
v 36.694096 1.249446 -7.955794
v 36.610775 1.208380 -7.925919
v 36.754612 1.249446 -7.977492
v 35.899750 1.519065 -7.670969
v 36.956875 1.208380 -8.050017
v 37.040199 1.249446 -8.079894
v 36.837936 1.208380 -8.007370
v 36.491833 1.208380 -7.883269
v 36.264671 1.208381 -7.801817
v 36.347992 1.249449 -7.831695
v 36.062405 1.334635 -7.729291
v 36.264671 0.684292 -7.801817
v 36.491833 0.684292 -7.883269
v 36.408508 0.643225 -7.853393
v 36.837936 0.684292 -8.007370
v 35.918568 1.295508 -7.677717
v 35.918568 0.597165 -7.677717
v 35.947411 0.442266 -7.688058
v 35.859097 0.546411 -7.656393
v 36.589760 1.574798 -7.918383
v 36.782040 1.574798 -7.987328
v 36.782040 0.406541 -7.987328
v 36.327778 1.295510 -7.824446
v 36.406948 1.295510 -7.852832
v 36.679325 1.295510 -7.950498
v 36.758495 1.295510 -7.978886
v 37.030872 1.295510 -8.076550
v 36.399517 1.514729 -7.850168
v 36.609024 1.514729 -7.925290
v 36.776974 1.514729 -7.985512
v 36.986481 1.514729 -8.060634
v 36.184883 1.514731 -7.773209
v 36.145729 1.514731 -7.759170
v 37.935287 0.406541 -8.400843
v 37.994759 0.597165 -8.422166
v 37.385876 0.643225 -8.203842
v 37.529713 0.684292 -8.255416
v 37.893135 0.406541 -8.398577
v 37.893135 0.372824 -8.398577
v 37.746037 0.406541 -8.345831
v 37.792496 0.643225 -8.349641
v 37.100288 0.643225 -8.101440
v 38.155666 1.574801 -8.479862
v 37.743008 1.574798 -8.331898
v 37.166168 1.574798 -8.125063
v 37.743008 0.406541 -8.331898
v 37.550728 0.406541 -8.262952
v 37.166168 0.406541 -8.125063
v 37.746037 0.372824 -8.345831
v 37.991215 0.224800 -8.215686
v 37.784580 0.224800 -8.141594
v 37.994759 1.574798 -8.422165
v 38.281391 1.411592 -8.524942
v 38.048752 0.406541 -8.441525
v 38.078083 0.558040 -8.452044
v 38.138596 0.558040 -8.473742
v 38.138596 1.334635 -8.473742
v 37.183613 0.684292 -8.131317
v 37.446392 0.643225 -8.225540
v 37.994759 1.295510 -8.422165
v 37.731979 1.249446 -8.327942
v 37.446392 1.249446 -8.225540
v 37.529713 1.208380 -8.255416
v 37.385876 1.249446 -8.203842
v 38.240738 1.519064 -8.510365
v 37.183613 1.208380 -8.131317
v 37.100288 1.249446 -8.101440
v 37.302551 1.208380 -8.173965
v 37.648655 1.208380 -8.298066
v 37.875816 1.208380 -8.379518
v 37.792496 1.249449 -8.349641
v 38.078083 1.334635 -8.452044
v 37.875816 0.684292 -8.379518
v 37.648655 0.684292 -8.298066
v 37.731979 0.643225 -8.327942
v 37.302551 0.684292 -8.173965
v 38.221920 1.295507 -8.503618
v 38.221920 0.597165 -8.503618
v 38.193077 0.442266 -8.493277
v 38.281391 0.546411 -8.524942
v 37.550728 1.574798 -8.262952
v 37.358448 1.574798 -8.194007
v 37.358448 0.406541 -8.194007
v 37.812710 1.295510 -8.356890
v 37.733540 1.295510 -8.328503
v 37.461163 1.295510 -8.230837
v 37.381992 1.295510 -8.202449
v 37.109615 1.295510 -8.104784
v 37.740971 1.514729 -8.331167
v 37.531467 1.514729 -8.256045
v 37.363514 1.514729 -8.195824
v 37.154007 1.514729 -8.120701
v 37.955605 1.514730 -8.408126
v 37.994759 1.514730 -8.422165
v 36.174675 0.406541 -7.865624
v 36.115204 0.597165 -7.844301
v 36.724087 0.643225 -8.062624
v 36.580250 0.684292 -8.011050
v 36.216827 0.406541 -7.867890
v 36.216827 0.372824 -7.867890
v 36.363926 0.406541 -7.920636
v 36.317467 0.643225 -7.916826
v 37.009674 0.643225 -8.165027
v 35.954296 1.574802 -7.786604
v 36.366955 1.574798 -7.934569
v 36.943794 1.574798 -8.141404
v 36.366955 0.406541 -7.934569
v 36.559235 0.406541 -8.003514
v 36.943794 0.406541 -8.141403
v 36.363926 0.372824 -7.920636
v 36.118748 0.224800 -8.050780
v 36.325382 0.224800 -8.124872
v 36.115204 1.574798 -7.844302
v 35.828571 1.411592 -7.741525
v 36.061211 0.406541 -7.824942
v 36.031879 0.558040 -7.814424
v 35.971367 0.558040 -7.792726
v 35.971367 1.334635 -7.792726
v 36.926350 0.684292 -8.135149
v 36.663570 0.643225 -8.040926
v 36.115204 1.295510 -7.844302
v 36.377983 1.249446 -7.938525
v 36.663570 1.249446 -8.040926
v 36.580250 1.208380 -8.011050
v 36.724087 1.249446 -8.062624
v 35.869225 1.519065 -7.756103
v 36.926350 1.208380 -8.135149
v 37.009674 1.249446 -8.165027
v 36.807411 1.208380 -8.092503
v 36.461308 1.208380 -7.968401
v 36.234146 1.208380 -7.886950
v 36.317467 1.249449 -7.916827
v 36.031879 1.334635 -7.814424
v 36.234146 0.684292 -7.886950
v 36.461308 0.684292 -7.968401
v 36.377983 0.643225 -7.938525
v 36.807411 0.684292 -8.092503
v 35.888042 1.295508 -7.762848
v 35.888042 0.597165 -7.762848
v 35.916885 0.442266 -7.773190
v 35.828571 0.546411 -7.741525
v 36.559235 1.574798 -8.003514
v 36.751514 1.574798 -8.072459
v 36.751514 0.406541 -8.072459
v 36.297253 1.295510 -7.909577
v 36.376423 1.295510 -7.937964
v 36.648800 1.295510 -8.035629
v 36.727970 1.295510 -8.064017
v 37.000347 1.295510 -8.161682
v 36.368988 1.514729 -7.935299
v 36.578495 1.514729 -8.010422
v 36.746449 1.514729 -8.070643
v 36.955956 1.514729 -8.145765
v 36.154358 1.514730 -7.858341
v 36.115204 1.514730 -7.844302
v 37.904762 0.406541 -8.485973
v 37.964233 0.597165 -8.507298
v 37.355350 0.643225 -8.288975
v 37.499187 0.684292 -8.340549
v 37.870777 0.406541 -8.460938
v 37.870777 0.372824 -8.460938
v 37.723675 0.406541 -8.408195
v 37.761971 0.643225 -8.434772
v 37.069763 0.643225 -8.186572
v 38.125141 1.574801 -8.564994
v 37.712482 1.574798 -8.417029
v 37.135643 1.574798 -8.210196
v 37.712482 0.406541 -8.417029
v 37.520203 0.406541 -8.348084
v 37.135643 0.406541 -8.210196
v 37.723675 0.372824 -8.408195
v 37.830292 0.224800 -8.664480
v 37.623661 0.224800 -8.590389
v 37.964233 1.574798 -8.507298
v 38.250866 1.411592 -8.610074
v 38.018227 0.406541 -8.526657
v 38.047558 0.558040 -8.537175
v 38.108070 0.558040 -8.558873
v 38.108070 1.334635 -8.558873
v 37.153088 0.684292 -8.216450
v 37.415867 0.643225 -8.310673
v 37.964233 1.295510 -8.507298
v 37.701454 1.249446 -8.413074
v 37.415867 1.249446 -8.310673
v 37.499187 1.208380 -8.340549
v 37.355350 1.249446 -8.288975
v 38.210213 1.519064 -8.595497
v 37.153088 1.208380 -8.216450
v 37.069763 1.249446 -8.186572
v 37.272026 1.208380 -8.259096
v 37.618130 1.208380 -8.383198
v 37.845291 1.208380 -8.464649
v 37.761971 1.249449 -8.434772
v 38.047558 1.334635 -8.537175
v 37.845291 0.684292 -8.464649
v 37.618130 0.684292 -8.383198
v 37.701454 0.643225 -8.413074
v 37.272026 0.684292 -8.259096
v 38.191395 1.295507 -8.588750
v 38.191395 0.597165 -8.588750
v 38.162552 0.442266 -8.578408
v 38.250866 0.546411 -8.610074
v 37.520203 1.574798 -8.348084
v 37.327923 1.574798 -8.279140
v 37.327923 0.406541 -8.279140
v 37.782185 1.295510 -8.442021
v 37.703014 1.295510 -8.413634
v 37.430637 1.295510 -8.315969
v 37.351467 1.295510 -8.287581
v 37.079090 1.295510 -8.189918
v 37.710445 1.514729 -8.416299
v 37.500938 1.514729 -8.341177
v 37.332989 1.514729 -8.280955
v 37.123482 1.514729 -8.205833
v 37.925079 1.514730 -8.493258
v 37.964233 1.514730 -8.507298
vn -0.4941 0.8511 0.1772
vn 0.1974 0.8111 0.5506
vn 0.3375 -0.0000 0.9413
vn -0.0000 1.0000 -0.0000
vn -0.2136 -0.9739 0.0766
vn -0.6994 -0.6693 0.2508
vn -0.0000 -1.0000 -0.0000
vn -0.9413 -0.0000 0.3375
vn -0.8734 0.3729 0.3132
vn -0.9218 0.2024 0.3305
vn 0.3962 0.9071 -0.1421
vn -0.3375 -0.0000 -0.9413
vn 0.3962 -0.9071 -0.1420
vn 0.3962 -0.9071 -0.1421
vn -0.3961 -0.9071 0.1420
vn 0.9413 -0.0000 -0.3375
vn 0.3961 0.9071 -0.1420
vn -0.3961 0.9071 0.1420
vn -0.3962 -0.9071 0.1420
vn -0.3962 0.9071 0.1420
vn 0.4941 0.8511 -0.1772
vn 0.2136 -0.9739 -0.0766
vn 0.6994 -0.6693 -0.2508
vn 0.3962 0.9071 -0.1420
vn 0.8734 0.3729 -0.3132
vn 0.9218 0.2024 -0.3305
vn -0.3962 0.9071 0.1421
vn -0.3962 -0.9071 0.1421
vn 0.3805 -0.9146 -0.1364
vn -0.3806 -0.9146 0.1365
vn -0.3805 0.9146 0.1364
vn 0.3805 0.9146 -0.1364
vn -0.9192 0.2154 0.3296
vn -0.3805 -0.9146 0.1364
vn 0.3806 -0.9146 -0.1365
vn 0.3805 0.9146 -0.1365
vn 0.9192 0.2154 -0.3296
vn -0.1974 0.8111 -0.5506
vt 0.563424 0.076340
vt 0.553130 0.073518
vt 0.930572 0.423953
vt 0.921307 0.379121
vt 0.987792 0.379121
vt 0.977903 0.423953
vt 0.607372 0.029178
vt 0.597289 0.031257
vt 0.582896 0.026846
vt 0.590093 0.017196
vt 0.572813 0.024865
vt 0.576362 0.017196
vt 0.613360 0.017196
vt 0.614695 0.029178
vt 0.558897 0.019004
vt 0.565490 0.024865
vt 0.555407 0.026846
vt 0.548211 0.024277
vt 0.555407 0.062200
vt 0.548211 0.068077
vt 0.639171 0.057790
vt 0.624778 0.057790
vt 0.624778 0.031257
vt 0.639171 0.031257
vt 0.597289 0.057790
vt 0.582896 0.062201
vt 0.649254 0.029178
vt 0.691136 0.029178
vt 0.681053 0.031257
vt 0.666660 0.031257
vt 0.656577 0.029178
vt 0.565490 0.064181
vt 0.572813 0.064181
vt 0.666660 0.057790
vt 0.681053 0.057790
vt 0.691136 0.059869
vt 0.656577 0.059869
vt 0.649254 0.059869
vt 0.614695 0.059869
vt 0.706379 0.076340
vt 0.683164 0.076340
vt 0.613360 0.076340
vt 0.582896 0.076340
vt 0.659896 0.017196
vt 0.683164 0.017196
vt 0.659896 0.076340
vt 0.636628 0.076340
vt 0.636628 0.017196
vt 0.614506 0.062201
vt 0.604926 0.062201
vt 0.607372 0.059869
vt 0.613607 0.073299
vt 0.638959 0.073299
vt 0.657047 0.062201
vt 0.647466 0.062201
vt 0.659283 0.073299
vt 0.684635 0.073299
vt 0.688839 0.081258
vt 0.699816 0.081258
vt 0.706005 0.126709
vt 0.682651 0.126709
vt 0.698407 0.059869
vt 0.699536 0.062201
vt 0.690007 0.062201
vt 0.612500 0.017196
vt 0.594699 0.017196
vt 0.977903 0.434165
vt 0.930572 0.434165
vt 0.704907 0.073299
vt 0.706379 0.017196
vt 0.698407 0.029178
vt 0.653445 0.126709
vt 0.630032 0.126709
vt 0.639832 0.081258
vt 0.650869 0.081258
vt 0.600826 0.126709
vt 0.570905 0.126710
vt 0.590825 0.081258
vt 0.601862 0.081258
vt 0.587634 0.073299
vt 0.806647 0.062201
vt 0.806647 0.026846
vt 0.565447 0.081258
vt 0.565447 0.126710
vt 0.582896 0.073299
vt 0.836413 0.073518
vt 0.826118 0.076340
vt 0.729647 0.076340
vt 0.978547 0.423953
vt 0.931216 0.423953
vt 0.921327 0.379121
vt 0.987812 0.379121
vt 0.782171 0.029178
vt 0.799450 0.017196
vt 0.792254 0.031257
vt 0.813181 0.017196
vt 0.816730 0.024865
vt 0.774848 0.029178
vt 0.776183 0.017196
vt 0.830646 0.019004
vt 0.841332 0.024277
vt 0.834136 0.026846
vt 0.824053 0.024865
vt 0.841332 0.068077
vt 0.834136 0.062200
vt 0.750372 0.057790
vt 0.750372 0.031257
vt 0.764765 0.031257
vt 0.764765 0.057790
vt 0.792254 0.057790
vt 0.740289 0.029178
vt 0.732966 0.029178
vt 0.722883 0.031257
vt 0.708490 0.031257
vt 0.816730 0.064181
vt 0.824053 0.064181
vt 0.722883 0.057790
vt 0.732966 0.059869
vt 0.708490 0.057790
vt 0.740289 0.059869
vt 0.774848 0.059869
vt 0.806647 0.076340
vt 0.776183 0.076340
vt 0.729647 0.017196
vt 0.752915 0.076340
vt 0.752915 0.017196
vt 0.775037 0.062201
vt 0.782171 0.059869
vt 0.784617 0.062201
vt 0.775936 0.073299
vt 0.750584 0.073299
vt 0.732496 0.062201
vt 0.742077 0.062201
vt 0.730260 0.073299
vt 0.777043 0.017196
vt 0.794844 0.017196
vt 0.978547 0.434165
vt 0.931216 0.434165
vt 0.735211 0.126709
vt 0.737787 0.081258
vt 0.748824 0.081258
vt 0.758624 0.126709
vt 0.787830 0.126709
vt 0.786794 0.081258
vt 0.797831 0.081258
vt 0.817751 0.126710
vt 0.801909 0.073299
vt 0.823209 0.081258
vt 0.823209 0.126710
vt 0.806647 0.073299
s 1
usemtl initialShadingGroup.004
f 10/1/1 132/1/1 154/2/1 32/2/1
f 6/3/2 17/4/2 18/5/2 16/6/2
f 8/7/3 40/8/3 2/9/3 1/10/3
f 1/10/3 2/9/3 22/11/3 21/12/3
f 1/10/3 13/13/3 42/14/3 8/7/3
f 46/15/3 23/16/3 45/17/3 47/18/3
f 45/17/3 44/19/3 20/20/3 47/18/3
f 30/21/3 36/22/3 41/23/3 4/24/3
f 40/8/3 37/25/3 27/26/3 2/9/3
f 23/16/3 46/15/3 21/12/3 22/11/3
f 4/24/3 41/23/3 42/14/3 26/27/3
f 9/28/3 25/29/3 43/30/3 3/31/3
f 10/1/3 32/2/3 24/32/3 39/33/3
f 35/34/3 33/35/3 34/36/3 31/37/3
f 29/38/3 28/39/3 36/22/3 30/21/3
f 43/30/3 25/29/3 33/35/3 35/34/3
f 73/40/4 195/40/4 134/41/4 12/41/4
f 46/15/5 168/15/5 143/12/5 21/12/5
f 11/42/4 133/42/4 141/43/4 19/43/4
f 47/18/6 169/18/6 168/15/6 46/15/6
f 50/44/7 172/44/7 137/45/7 15/45/7
f 19/43/4 141/43/4 132/1/4 10/1/4
f 20/20/3 44/19/3 24/32/3 32/2/3
f 49/46/4 171/46/4 170/47/4 48/47/4
f 26/27/3 42/14/3 13/13/3 14/48/3
f 14/48/3 50/44/3 3/31/3 26/27/3
f 9/28/3 3/31/3 50/44/3 15/45/3
f 52/49/3 51/50/3 38/51/3 28/39/3
f 56/52/3 57/53/3 48/47/3 11/42/3
f 54/54/3 53/55/3 29/38/3 31/37/3
f 58/56/3 59/57/3 12/41/3 49/46/3
f 55/58/3 116/59/3 120/60/3 59/61/3
f 13/13/7 135/13/7 136/48/7 14/48/7
f 20/20/8 142/20/8 169/18/8 47/18/8
f 34/36/3 95/62/3 116/63/3 55/64/3
f 48/47/4 170/47/4 133/42/4 11/42/4
f 32/2/9 154/2/9 142/20/9 20/20/9
f 14/48/7 136/48/7 172/44/7 50/44/7
f 7/65/7 13/13/7 1/10/7 5/66/7
f 6/3/3 16/6/3 7/67/3 5/68/3
f 139/4/10 17/4/10 6/3/10 128/3/10
f 5/68/8 127/68/8 128/3/8 6/3/8
f 7/65/7 129/65/7 135/13/7 13/13/7
f 1/10/7 123/10/7 127/66/7 5/66/7
f 3/31/4 125/31/4 148/27/4 26/27/4
f 26/27/11 148/27/11 126/24/11 4/24/11
f 134/41/12 195/40/12 242/69/12 181/57/12
f 156/36/7 217/62/7 95/62/7 34/36/7
f 33/35/13 155/35/13 156/36/13 34/36/13
f 37/25/14 159/25/14 160/51/14 38/51/14
f 31/37/15 153/37/15 157/34/15 35/34/15
f 25/29/16 147/29/16 155/35/16 33/35/16
f 9/28/17 131/28/17 147/29/17 25/29/17
f 4/24/16 126/24/16 152/21/16 30/21/16
f 8/7/11 130/7/11 162/8/11 40/8/11
f 40/8/16 162/8/16 159/25/16 37/25/16
f 43/30/18 165/30/18 125/31/18 3/31/18
f 38/51/7 160/51/7 150/39/7 28/39/7
f 76/70/3 70/71/3 9/28/3 15/45/3
f 36/22/8 158/22/8 163/23/8 41/23/8
f 35/34/8 157/34/8 165/30/8 43/30/8
f 42/14/4 164/14/4 130/7/4 8/7/4
f 28/39/19 150/39/19 158/22/19 36/22/19
f 31/37/3 34/36/3 55/64/3 54/54/3
f 58/72/3 57/73/3 53/74/3 54/75/3
f 28/39/3 29/38/3 53/55/3 52/49/3
f 56/76/3 60/77/3 51/78/3 52/79/3
f 37/25/3 38/51/3 51/50/3 27/26/3
f 11/42/3 19/43/3 60/80/3 56/52/3
f 49/46/3 48/47/3 57/53/3 58/56/3
f 210/81/16 88/81/16 63/82/16 185/82/16
f 54/75/3 55/58/3 59/61/3 58/72/3
f 52/79/3 53/74/3 57/73/3 56/76/3
f 27/83/3 51/78/3 60/77/3 61/84/3
f 27/26/3 61/85/3 10/1/3 39/33/3
f 10/1/3 61/85/3 60/80/3 19/43/3
f 12/41/4 134/41/4 171/46/4 49/46/4
f 41/23/20 163/23/20 164/14/20 42/14/20
f 15/45/7 137/45/7 198/70/7 76/70/7
f 93/86/21 215/86/21 193/87/21 71/87/21
f 110/88/4 232/88/4 195/40/4 73/40/4
f 67/89/2 77/90/2 79/91/2 78/92/2
f 69/93/3 62/94/3 63/82/3 101/95/3
f 62/94/3 82/96/3 83/97/3 63/82/3
f 62/94/3 69/93/3 103/98/3 74/99/3
f 107/100/3 108/101/3 106/102/3 84/103/3
f 106/102/3 108/101/3 81/104/3 105/105/3
f 91/106/3 65/107/3 102/108/3 97/109/3
f 101/95/3 63/82/3 88/81/3 98/110/3
f 84/103/3 83/97/3 82/96/3 107/100/3
f 65/107/3 87/111/3 103/98/3 102/108/3
f 70/71/3 64/112/3 104/113/3 86/114/3
f 71/87/3 100/115/3 85/116/3 93/86/3
f 96/117/3 92/118/3 95/62/3 94/119/3
f 90/120/3 91/106/3 97/109/3 89/121/3
f 104/113/3 96/117/3 94/119/3 86/114/3
f 198/70/12 137/45/12 131/28/12 192/71/12
f 82/96/22 204/96/22 229/100/22 107/100/22
f 80/122/4 202/122/4 194/123/4 72/123/4
f 107/100/23 229/100/23 230/101/23 108/101/23
f 76/70/7 198/70/7 233/124/7 111/124/7
f 71/87/4 193/87/4 202/122/4 80/122/4
f 81/104/3 93/86/3 85/116/3 105/105/3
f 109/125/4 231/125/4 232/88/4 110/88/4
f 87/111/3 75/126/3 74/99/3 103/98/3
f 75/126/3 87/111/3 64/112/3 111/124/3
f 70/71/3 76/70/3 111/124/3 64/112/3
f 113/127/3 89/121/3 99/128/3 112/129/3
f 117/130/3 72/123/3 109/125/3 118/131/3
f 115/132/3 92/118/3 90/120/3 114/133/3
f 119/134/3 110/88/3 73/40/3 120/69/3
f 75/126/7 197/126/7 196/99/7 74/99/7
f 108/101/16 230/101/16 203/104/16 81/104/16
f 72/123/4 194/123/4 231/125/4 109/125/4
f 103/98/24 225/98/24 224/108/24 102/108/24
f 81/104/25 203/104/25 215/86/25 93/86/25
f 111/124/7 233/124/7 197/126/7 75/126/7
f 68/135/7 66/136/7 62/94/7 74/99/7
f 67/89/3 66/137/3 68/138/3 77/90/3
f 200/92/26 189/89/26 67/89/26 78/92/26
f 67/89/16 189/89/16 188/137/16 66/137/16
f 74/99/7 196/99/7 190/135/7 68/135/7
f 66/136/7 188/136/7 184/94/7 62/94/7
f 87/111/4 209/111/4 186/112/4 64/112/4
f 65/107/27 187/107/27 209/111/27 87/111/27
f 97/109/14 219/109/14 211/121/14 89/121/14
f 95/62/15 217/62/15 216/119/15 94/119/15
f 99/128/28 221/128/28 220/110/28 98/110/28
f 96/117/13 218/117/13 214/118/13 92/118/13
f 94/119/8 216/119/8 208/114/8 86/114/8
f 86/114/20 208/114/20 192/71/20 70/71/20
f 91/106/8 213/106/8 187/107/8 65/107/8
f 101/95/27 223/95/27 191/93/27 69/93/27
f 98/110/8 220/110/8 223/95/8 101/95/8
f 64/112/24 186/112/24 226/113/24 104/113/24
f 89/121/7 211/121/7 221/128/7 99/128/7
f 102/108/16 224/108/16 219/109/16 97/109/16
f 104/113/16 226/113/16 218/117/16 96/117/16
f 69/93/4 191/93/4 225/98/4 103/98/4
f 92/118/3 115/132/3 116/63/3 95/62/3
f 119/139/3 115/140/3 114/141/3 118/142/3
f 89/121/3 113/127/3 114/133/3 90/120/3
f 117/143/3 113/144/3 112/145/3 121/146/3
f 98/110/3 88/81/3 112/129/3 99/128/3
f 72/123/3 117/130/3 121/147/3 80/122/3
f 110/88/3 119/134/3 118/131/3 109/125/3
f 115/140/3 119/139/3 120/60/3 116/59/3
f 113/144/3 117/143/3 118/142/3 114/141/3
f 88/148/3 122/149/3 121/146/3 112/145/3
f 88/81/3 100/115/3 71/87/3 122/150/3
f 71/87/3 80/122/3 121/147/3 122/150/3
f 17/4/7 139/4/7 140/5/7 18/5/7
f 149/26/8 124/9/8 2/9/8 27/26/8
f 222/115/29 100/115/29 88/81/29 210/81/29
f 222/115/7 207/116/7 85/116/7 100/115/7
f 207/116/30 227/105/30 105/105/30 85/116/30
f 227/105/8 228/102/8 106/102/8 105/105/8
f 206/103/31 84/103/31 106/102/31 228/102/31
f 206/103/4 205/97/4 83/97/4 84/103/4
f 185/82/32 63/82/32 83/97/32 205/97/32
f 213/106/19 91/106/19 90/120/19 212/120/19
f 199/90/8 77/90/8 68/138/8 190/138/8
f 199/90/33 201/91/33 79/91/33 77/90/33
f 62/94/7 184/94/7 204/96/7 82/96/7
f 92/118/7 214/118/7 212/120/7 90/120/7
f 161/33/34 149/26/34 27/26/34 39/33/34
f 161/33/7 39/33/7 24/32/7 146/32/7
f 146/32/35 24/32/35 44/19/35 166/19/35
f 166/19/16 44/19/16 45/17/16 167/17/16
f 145/16/36 167/17/36 45/17/36 23/16/36
f 145/16/4 23/16/4 22/11/4 144/11/4
f 124/9/31 144/11/31 22/11/31 2/9/31
f 152/21/13 151/38/13 29/38/13 30/21/13
f 138/6/16 129/67/16 7/67/16 16/6/16
f 138/6/37 16/6/37 18/5/37 140/5/37
f 21/12/7 143/12/7 123/10/7 1/10/7
f 29/38/7 151/38/7 153/37/7 31/37/7
f 128/3/38 138/6/38 140/5/38 139/4/38
f 130/7/12 123/10/12 124/9/12 162/8/12
f 123/10/12 143/12/12 144/11/12 124/9/12
f 123/10/12 130/7/12 164/14/12 135/13/12
f 168/15/12 169/18/12 167/17/12 145/16/12
f 167/17/12 169/18/12 142/20/12 166/19/12
f 152/21/12 126/24/12 163/23/12 158/22/12
f 162/8/12 124/9/12 149/26/12 159/25/12
f 145/16/12 144/11/12 143/12/12 168/15/12
f 126/24/12 148/27/12 164/14/12 163/23/12
f 131/28/12 125/31/12 165/30/12 147/29/12
f 132/1/12 161/33/12 146/32/12 154/2/12
f 157/34/12 153/37/12 156/36/12 155/35/12
f 151/38/12 152/21/12 158/22/12 150/39/12
f 165/30/12 157/34/12 155/35/12 147/29/12
f 142/20/12 154/2/12 146/32/12 166/19/12
f 148/27/12 136/48/12 135/13/12 164/14/12
f 136/48/12 148/27/12 125/31/12 172/44/12
f 131/28/12 137/45/12 172/44/12 125/31/12
f 174/49/12 150/39/12 160/51/12 173/50/12
f 178/52/12 133/42/12 170/47/12 179/53/12
f 176/54/12 153/37/12 151/38/12 175/55/12
f 180/56/12 171/46/12 134/41/12 181/57/12
f 181/61/12 242/60/12 238/59/12 177/58/12
f 177/64/12 238/63/12 217/62/12 156/36/12
f 129/65/7 127/66/7 123/10/7 135/13/7
f 128/3/12 127/68/12 129/67/12 138/6/12
f 153/37/12 176/54/12 177/64/12 156/36/12
f 180/72/12 176/75/12 175/74/12 179/73/12
f 150/39/12 174/49/12 175/55/12 151/38/12
f 178/76/12 174/79/12 173/78/12 182/77/12
f 159/25/12 149/26/12 173/50/12 160/51/12
f 133/42/12 178/52/12 182/80/12 141/43/12
f 171/46/12 180/56/12 179/53/12 170/47/12
f 176/75/12 180/72/12 181/61/12 177/58/12
f 174/79/12 178/76/12 179/73/12 175/74/12
f 149/83/12 183/84/12 182/77/12 173/78/12
f 149/26/12 161/33/12 132/1/12 183/85/12
f 132/1/12 141/43/12 182/80/12 183/85/12
f 131/28/4 9/28/4 70/71/4 192/71/4
f 189/89/38 200/92/38 201/91/38 199/90/38
f 191/93/12 223/95/12 185/82/12 184/94/12
f 184/94/12 185/82/12 205/97/12 204/96/12
f 184/94/12 196/99/12 225/98/12 191/93/12
f 229/100/12 206/103/12 228/102/12 230/101/12
f 228/102/12 227/105/12 203/104/12 230/101/12
f 213/106/12 219/109/12 224/108/12 187/107/12
f 223/95/12 220/110/12 210/81/12 185/82/12
f 206/103/12 229/100/12 204/96/12 205/97/12
f 187/107/12 224/108/12 225/98/12 209/111/12
f 192/71/12 208/114/12 226/113/12 186/112/12
f 193/87/12 215/86/12 207/116/12 222/115/12
f 218/117/12 216/119/12 217/62/12 214/118/12
f 212/120/12 211/121/12 219/109/12 213/106/12
f 226/113/12 208/114/12 216/119/12 218/117/12
f 203/104/12 227/105/12 207/116/12 215/86/12
f 209/111/12 225/98/12 196/99/12 197/126/12
f 197/126/12 233/124/12 186/112/12 209/111/12
f 192/71/12 186/112/12 233/124/12 198/70/12
f 235/127/12 234/129/12 221/128/12 211/121/12
f 239/130/12 240/131/12 231/125/12 194/123/12
f 237/132/12 236/133/12 212/120/12 214/118/12
f 241/134/12 242/69/12 195/40/12 232/88/12
f 190/135/7 196/99/7 184/94/7 188/136/7
f 189/89/12 199/90/12 190/138/12 188/137/12
f 214/118/12 217/62/12 238/63/12 237/132/12
f 241/139/12 240/142/12 236/141/12 237/140/12
f 211/121/12 212/120/12 236/133/12 235/127/12
f 239/143/12 243/146/12 234/145/12 235/144/12
f 220/110/12 221/128/12 234/129/12 210/81/12
f 194/123/12 202/122/12 243/147/12 239/130/12
f 232/88/12 231/125/12 240/131/12 241/134/12
f 237/140/12 238/59/12 242/60/12 241/139/12
f 235/144/12 236/141/12 240/142/12 239/143/12
f 210/148/12 234/145/12 243/146/12 244/149/12
f 210/81/12 244/150/12 193/87/12 222/115/12
f 193/87/12 244/150/12 243/147/12 202/122/12
f 59/57/3 120/69/3 73/40/3 12/41/3
f 79/91/7 201/91/7 200/92/7 78/92/7
