# Blender 5.1.0
# www.blender.org
mtllib barriere55_017.mtl
o barriere55.017
v -3.962212 0.406542 -0.506697
v -3.965287 0.597166 -0.569801
v -3.933798 0.643226 0.076274
v -3.941236 0.684293 -0.076348
v -3.948163 0.406542 -0.466891
v -3.948163 0.372825 -0.466891
v -3.940555 0.406542 -0.310806
v -3.954827 0.643226 -0.355181
v -3.919028 0.643226 0.379306
v -3.973609 1.574802 -0.740538
v -3.952267 1.574799 -0.302673
v -3.922435 1.574799 0.309401
v -3.952267 0.406542 -0.302673
v -3.942323 0.406542 -0.098648
v -3.922435 0.406542 0.309401
v -3.940555 0.372825 -0.310806
v -4.154670 0.224801 -0.487455
v -4.143983 0.224801 -0.268200
v -3.965287 1.574799 -0.569799
v -3.980111 1.411593 -0.873940
v -3.968080 0.406542 -0.627090
v -3.969596 0.558041 -0.658214
v -3.972726 0.558041 -0.722424
v -3.972726 1.334636 -0.722424
v -3.923337 0.684293 0.290893
v -3.936927 0.643226 0.012063
v -3.965287 1.295511 -0.569799
v -3.951697 1.249447 -0.290969
v -3.936927 1.249447 0.012063
v -3.941236 1.208381 -0.076348
v -3.933798 1.249447 0.076274
v -3.978009 1.519065 -0.830802
v -3.923337 1.208381 0.290893
v -3.919028 1.249447 0.379306
v -3.929488 1.208381 0.164689
v -3.947388 1.208381 -0.202557
v -3.959136 1.208381 -0.443593
v -3.954827 1.249450 -0.355181
v -3.969596 1.334636 -0.658214
v -3.959136 0.684293 -0.443593
v -3.947388 0.684293 -0.202557
v -3.951697 0.643226 -0.290969
v -3.929488 0.684293 0.164689
v -3.977035 1.295508 -0.810837
v -3.977035 0.597166 -0.810837
v -3.975544 0.442267 -0.780234
v -3.980111 0.546412 -0.873940
v -3.942323 1.574799 -0.098648
v -3.932379 1.574799 0.105376
v -3.932379 0.406542 0.105376
v -3.955872 1.295511 -0.376631
v -3.951778 1.295511 -0.292626
v -3.937691 1.295511 -0.003612
v -3.933597 1.295511 0.080394
v -3.919510 1.295511 0.369409
v -3.952162 1.514730 -0.300512
v -3.941327 1.514730 -0.078208
v -3.932641 1.514730 0.100003
v -3.921806 1.514730 0.322307
v -3.963262 1.514731 -0.528253
v -3.965287 1.514731 -0.569799
v -3.872736 0.406542 1.329069
v -3.869661 0.597166 1.392172
v -3.901150 0.643226 0.746098
v -3.893712 0.684293 0.898720
v -3.862625 0.406542 1.288085
v -3.862625 0.372825 1.288085
v -3.870233 0.406542 1.132000
v -3.880121 0.643226 1.177552
v -3.915920 0.643226 0.443065
v -3.861339 1.574802 1.562909
v -3.882680 1.574799 1.125044
v -3.912513 1.574799 0.512971
v -3.882680 0.406542 1.125044
v -3.892625 0.406542 0.921020
v -3.912513 0.406542 0.512971
v -3.870233 0.372825 1.132000
v -4.066154 0.224801 1.328634
v -4.076840 0.224801 1.109379
v -3.869661 1.574799 1.392171
v -3.854837 1.411593 1.696312
v -3.866868 0.406542 1.449462
v -3.865351 0.558041 1.480586
v -3.862222 0.558041 1.544796
v -3.862222 1.334636 1.544796
v -3.911611 0.684293 0.531479
v -3.898021 0.643226 0.810309
v -3.869661 1.295511 1.392171
v -3.883251 1.249447 1.113341
v -3.898021 1.249447 0.810309
v -3.893712 1.208381 0.898720
v -3.901150 1.249447 0.746098
v -3.856939 1.519065 1.653174
v -3.911611 1.208381 0.531479
v -3.915920 1.249447 0.443065
v -3.905460 1.208381 0.657683
v -3.887560 1.208381 1.024929
v -3.875812 1.208381 1.265964
v -3.880121 1.249450 1.177552
v -3.865351 1.334636 1.480586
v -3.875812 0.684293 1.265964
v -3.887560 0.684293 1.024929
v -3.883251 0.643226 1.113341
v -3.905460 0.684293 0.657683
v -3.857913 1.295508 1.633209
v -3.857913 0.597166 1.633209
v -3.859404 0.442267 1.602605
v -3.854837 0.546412 1.696312
v -3.892625 1.574799 0.921020
v -3.902569 1.574799 0.716995
v -3.902569 0.406542 0.716995
v -3.879076 1.295511 1.199003
v -3.883170 1.295511 1.114998
v -3.897257 1.295511 0.825983
v -3.901351 1.295511 0.741977
v -3.915438 1.295511 0.452962
v -3.882786 1.514730 1.122884
v -3.893621 1.514730 0.900580
v -3.902307 1.514730 0.722368
v -3.913142 1.514730 0.500065
v -3.871686 1.514731 1.350625
v -3.869661 1.514731 1.392171
v -3.871880 0.406542 -0.511100
v -3.874955 0.597166 -0.574203
v -3.843466 0.643226 0.071871
v -3.850904 0.684293 -0.080751
v -3.881991 0.406542 -0.470116
v -3.881991 0.372825 -0.470116
v -3.874383 0.406542 -0.314031
v -3.864495 0.643226 -0.359583
v -3.828696 0.643226 0.374904
v -3.883277 1.574802 -0.744941
v -3.861935 1.574799 -0.307076
v -3.832103 1.574799 0.304998
v -3.861936 0.406542 -0.307076
v -3.851991 0.406542 -0.103051
v -3.832103 0.406542 0.304998
v -3.874383 0.372825 -0.314031
v -3.678463 0.224801 -0.510665
v -3.667776 0.224801 -0.291410
v -3.874955 1.574799 -0.574202
v -3.889779 1.411593 -0.878343
v -3.877748 0.406542 -0.631493
v -3.879265 0.558041 -0.662617
v -3.882394 0.558041 -0.726827
v -3.882394 1.334636 -0.726827
v -3.833005 0.684293 0.286490
v -3.846595 0.643226 0.007660
v -3.874955 1.295511 -0.574202
v -3.861365 1.249447 -0.295372
v -3.846595 1.249447 0.007660
v -3.850904 1.208381 -0.080751
v -3.843466 1.249447 0.071871
v -3.887676 1.519065 -0.835205
v -3.833005 1.208381 0.286490
v -3.828696 1.249447 0.374904
v -3.839156 1.208381 0.160286
v -3.857056 1.208381 -0.206960
v -3.868804 1.208381 -0.447996
v -3.864495 1.249450 -0.359583
v -3.879265 1.334636 -0.662617
v -3.868804 0.684293 -0.447996
v -3.857056 0.684293 -0.206960
v -3.861365 0.643226 -0.295372
v -3.839156 0.684293 0.160286
v -3.886703 1.295508 -0.815240
v -3.886703 0.597166 -0.815240
v -3.885212 0.442267 -0.784636
v -3.889779 0.546412 -0.878343
v -3.851991 1.574799 -0.103051
v -3.842047 1.574799 0.100973
v -3.842047 0.406542 0.100973
v -3.865540 1.295511 -0.381034
v -3.861446 1.295511 -0.297029
v -3.847359 1.295511 -0.008014
v -3.843265 1.295511 0.075992
v -3.829178 1.295511 0.365006
v -3.861830 1.514730 -0.304915
v -3.850995 1.514730 -0.082611
v -3.842309 1.514730 0.095600
v -3.831474 1.514730 0.317904
v -3.872930 1.514731 -0.532656
v -3.874955 1.514731 -0.574202
v -3.782404 0.406542 1.324666
v -3.779329 0.597166 1.387769
v -3.810818 0.643226 0.741695
v -3.803380 0.684293 0.894317
v -3.796453 0.406542 1.284860
v -3.796453 0.372825 1.284860
v -3.804061 0.406542 1.128775
v -3.789789 0.643226 1.173150
v -3.825588 0.643226 0.438662
v -3.771007 1.574802 1.558507
v -3.792348 1.574799 1.120642
v -3.822181 1.574799 0.508568
v -3.792349 0.406542 1.120642
v -3.802293 0.406542 0.916617
v -3.822181 0.406542 0.508568
v -3.804061 0.372825 1.128775
v -3.589946 0.224801 1.305424
v -3.600633 0.224801 1.086169
v -3.779329 1.574799 1.387768
v -3.764505 1.411593 1.691909
v -3.776536 0.406542 1.445059
v -3.775019 0.558041 1.476183
v -3.771890 0.558041 1.540393
v -3.771890 1.334636 1.540393
v -3.821279 0.684293 0.527076
v -3.807689 0.643226 0.805906
v -3.779329 1.295511 1.387768
v -3.792919 1.249447 1.108938
v -3.807689 1.249447 0.805906
v -3.803380 1.208381 0.894317
v -3.810818 1.249447 0.741695
v -3.766607 1.519065 1.648771
v -3.821279 1.208381 0.527076
v -3.825588 1.249447 0.438662
v -3.815128 1.208381 0.653280
v -3.797228 1.208381 1.020526
v -3.785480 1.208381 1.261562
v -3.789789 1.249450 1.173150
v -3.775019 1.334636 1.476183
v -3.785480 0.684293 1.261562
v -3.797228 0.684293 1.020526
v -3.792919 0.643226 1.108938
v -3.815128 0.684293 0.653280
v -3.767581 1.295508 1.628806
v -3.767581 0.597166 1.628806
v -3.769072 0.442267 1.598202
v -3.764505 0.546412 1.691909
v -3.802293 1.574799 0.916617
v -3.812237 1.574799 0.712593
v -3.812237 0.406542 0.712593
v -3.788744 1.295511 1.194600
v -3.792838 1.295511 1.110595
v -3.806925 1.295511 0.821580
v -3.811019 1.295511 0.737575
v -3.825106 1.295511 0.448560
v -3.792454 1.514730 1.118481
v -3.803289 1.514730 0.896177
v -3.811975 1.514730 0.717966
v -3.822810 1.514730 0.495662
v -3.781354 1.514731 1.346222
v -3.779329 1.514731 1.387768
vn -0.0256 0.8511 -0.5243
vn -0.5842 0.8111 0.0285
vn -0.9988 -0.0000 0.0487
vn -0.0000 1.0000 -0.0000
vn -0.0110 -0.9739 -0.2267
vn -0.0362 -0.6693 -0.7421
vn -0.0000 -1.0000 -0.0000
vn -0.0487 -0.0000 -0.9988
vn -0.0452 0.3729 -0.9268
vn -0.0477 0.2024 -0.9781
vn 0.0205 0.9071 0.4204
vn 0.9988 -0.0000 -0.0487
vn 0.0205 -0.9071 0.4203
vn 0.0205 -0.9071 0.4204
vn -0.0205 -0.9071 -0.4203
vn 0.0487 -0.0000 0.9988
vn -0.0205 0.9071 -0.4203
vn -0.0205 0.9071 -0.4204
vn 0.0256 0.8511 0.5243
vn 0.0110 -0.9739 0.2267
vn 0.0362 -0.6693 0.7421
vn 0.0452 0.3729 0.9268
vn 0.0477 0.2024 0.9781
vn -0.0205 -0.9071 -0.4204
vn 0.0205 0.9071 0.4203
vn 0.0197 -0.9146 0.4038
vn -0.0197 -0.9146 -0.4038
vn -0.0197 0.9146 -0.4038
vn 0.0197 0.9146 0.4038
vn -0.0475 0.2154 -0.9754
vn 0.0475 0.2154 0.9754
vn 0.5842 0.8111 -0.0285
vt 0.563424 0.076340
vt 0.553130 0.073518
vt 0.930572 0.423953
vt 0.921307 0.379121
vt 0.987792 0.379121
vt 0.977903 0.423953
vt 0.607372 0.029178
vt 0.597289 0.031257
vt 0.582896 0.026846
vt 0.590093 0.017196
vt 0.572813 0.024865
vt 0.576362 0.017196
vt 0.613360 0.017196
vt 0.614695 0.029178
vt 0.558897 0.019004
vt 0.565490 0.024865
vt 0.555407 0.026846
vt 0.548211 0.024277
vt 0.555407 0.062200
vt 0.548211 0.068077
vt 0.639171 0.057790
vt 0.624778 0.057790
vt 0.624778 0.031257
vt 0.639171 0.031257
vt 0.597289 0.057790
vt 0.582896 0.062201
vt 0.649254 0.029178
vt 0.691136 0.029178
vt 0.681053 0.031257
vt 0.666660 0.031257
vt 0.656577 0.029178
vt 0.565490 0.064181
vt 0.572813 0.064181
vt 0.666660 0.057790
vt 0.681053 0.057790
vt 0.691136 0.059869
vt 0.656577 0.059869
vt 0.649254 0.059869
vt 0.614695 0.059869
vt 0.706379 0.076340
vt 0.683164 0.076340
vt 0.613360 0.076340
vt 0.582896 0.076340
vt 0.659896 0.017196
vt 0.683164 0.017196
vt 0.659896 0.076340
vt 0.636628 0.076340
vt 0.636628 0.017196
vt 0.614506 0.062201
vt 0.604926 0.062201
vt 0.607372 0.059869
vt 0.613607 0.073299
vt 0.638959 0.073299
vt 0.657047 0.062201
vt 0.647466 0.062201
vt 0.659283 0.073299
vt 0.684635 0.073299
vt 0.688839 0.081258
vt 0.699816 0.081258
vt 0.706005 0.126709
vt 0.682651 0.126709
vt 0.698407 0.059869
vt 0.699536 0.062201
vt 0.690007 0.062201
vt 0.612500 0.017196
vt 0.594699 0.017196
vt 0.977903 0.434165
vt 0.930572 0.434165
vt 0.704907 0.073299
vt 0.706379 0.017196
vt 0.698407 0.029178
vt 0.653445 0.126709
vt 0.630032 0.126709
vt 0.639832 0.081258
vt 0.650869 0.081258
vt 0.600826 0.126709
vt 0.570905 0.126710
vt 0.590825 0.081258
vt 0.601862 0.081258
vt 0.587634 0.073299
vt 0.806647 0.062201
vt 0.806647 0.026846
vt 0.565447 0.081258
vt 0.565447 0.126710
vt 0.582896 0.073299
vt 0.836413 0.073518
vt 0.826118 0.076340
vt 0.729647 0.076340
vt 0.978547 0.423953
vt 0.931216 0.423953
vt 0.921327 0.379121
vt 0.987812 0.379121
vt 0.782171 0.029178
vt 0.799450 0.017196
vt 0.792254 0.031257
vt 0.813181 0.017196
vt 0.816730 0.024865
vt 0.774848 0.029178
vt 0.776183 0.017196
vt 0.830646 0.019004
vt 0.841332 0.024277
vt 0.834136 0.026846
vt 0.824053 0.024865
vt 0.841332 0.068077
vt 0.834136 0.062200
vt 0.750372 0.057790
vt 0.750372 0.031257
vt 0.764765 0.031257
vt 0.764765 0.057790
vt 0.792254 0.057790
vt 0.740289 0.029178
vt 0.732966 0.029178
vt 0.722883 0.031257
vt 0.708490 0.031257
vt 0.816730 0.064181
vt 0.824053 0.064181
vt 0.722883 0.057790
vt 0.732966 0.059869
vt 0.708490 0.057790
vt 0.740289 0.059869
vt 0.774848 0.059869
vt 0.806647 0.076340
vt 0.776183 0.076340
vt 0.729647 0.017196
vt 0.752915 0.076340
vt 0.752915 0.017196
vt 0.775037 0.062201
vt 0.782171 0.059869
vt 0.784617 0.062201
vt 0.775936 0.073299
vt 0.750584 0.073299
vt 0.732496 0.062201
vt 0.742077 0.062201
vt 0.730260 0.073299
vt 0.777043 0.017196
vt 0.794844 0.017196
vt 0.978547 0.434165
vt 0.931216 0.434165
vt 0.735211 0.126709
vt 0.737787 0.081258
vt 0.748824 0.081258
vt 0.758624 0.126709
vt 0.787830 0.126709
vt 0.786794 0.081258
vt 0.797831 0.081258
vt 0.817751 0.126710
vt 0.801909 0.073299
vt 0.823209 0.081258
vt 0.823209 0.126710
vt 0.806647 0.073299
s 1
usemtl initialShadingGroup.004
f 10/1/1 132/1/1 154/2/1 32/2/1
f 6/3/2 17/4/2 18/5/2 16/6/2
f 8/7/3 40/8/3 2/9/3 1/10/3
f 1/10/3 2/9/3 22/11/3 21/12/3
f 1/10/3 13/13/3 42/14/3 8/7/3
f 46/15/3 23/16/3 45/17/3 47/18/3
f 45/17/3 44/19/3 20/20/3 47/18/3
f 30/21/3 36/22/3 41/23/3 4/24/3
f 40/8/3 37/25/3 27/26/3 2/9/3
f 23/16/3 46/15/3 21/12/3 22/11/3
f 4/24/3 41/23/3 42/14/3 26/27/3
f 9/28/3 25/29/3 43/30/3 3/31/3
f 10/1/3 32/2/3 24/32/3 39/33/3
f 35/34/3 33/35/3 34/36/3 31/37/3
f 29/38/3 28/39/3 36/22/3 30/21/3
f 43/30/3 25/29/3 33/35/3 35/34/3
f 73/40/4 195/40/4 134/41/4 12/41/4
f 46/15/5 168/15/5 143/12/5 21/12/5
f 11/42/4 133/42/4 141/43/4 19/43/4
f 47/18/6 169/18/6 168/15/6 46/15/6
f 50/44/7 172/44/7 137/45/7 15/45/7
f 19/43/4 141/43/4 132/1/4 10/1/4
f 20/20/3 44/19/3 24/32/3 32/2/3
f 49/46/4 171/46/4 170/47/4 48/47/4
f 26/27/3 42/14/3 13/13/3 14/48/3
f 14/48/3 50/44/3 3/31/3 26/27/3
f 9/28/3 3/31/3 50/44/3 15/45/3
f 52/49/3 51/50/3 38/51/3 28/39/3
f 56/52/3 57/53/3 48/47/3 11/42/3
f 54/54/3 53/55/3 29/38/3 31/37/3
f 58/56/3 59/57/3 12/41/3 49/46/3
f 55/58/3 116/59/3 120/60/3 59/61/3
f 13/13/7 135/13/7 136/48/7 14/48/7
f 20/20/8 142/20/8 169/18/8 47/18/8
f 34/36/3 95/62/3 116/63/3 55/64/3
f 48/47/4 170/47/4 133/42/4 11/42/4
f 32/2/9 154/2/9 142/20/9 20/20/9
f 14/48/7 136/48/7 172/44/7 50/44/7
f 7/65/7 13/13/7 1/10/7 5/66/7
f 6/3/3 16/6/3 7/67/3 5/68/3
f 139/4/10 17/4/10 6/3/10 128/3/10
f 5/68/8 127/68/8 128/3/8 6/3/8
f 7/65/7 129/65/7 135/13/7 13/13/7
f 1/10/7 123/10/7 127/66/7 5/66/7
f 3/31/4 125/31/4 148/27/4 26/27/4
f 26/27/11 148/27/11 126/24/11 4/24/11
f 134/41/12 195/40/12 242/69/12 181/57/12
f 156/36/7 217/62/7 95/62/7 34/36/7
f 33/35/13 155/35/13 156/36/13 34/36/13
f 37/25/14 159/25/14 160/51/14 38/51/14
f 31/37/15 153/37/15 157/34/15 35/34/15
f 25/29/16 147/29/16 155/35/16 33/35/16
f 9/28/11 131/28/11 147/29/11 25/29/11
f 4/24/16 126/24/16 152/21/16 30/21/16
f 8/7/11 130/7/11 162/8/11 40/8/11
f 40/8/16 162/8/16 159/25/16 37/25/16
f 43/30/17 165/30/17 125/31/17 3/31/17
f 38/51/7 160/51/7 150/39/7 28/39/7
f 76/70/3 70/71/3 9/28/3 15/45/3
f 36/22/8 158/22/8 163/23/8 41/23/8
f 35/34/8 157/34/8 165/30/8 43/30/8
f 42/14/4 164/14/4 130/7/4 8/7/4
f 28/39/15 150/39/15 158/22/15 36/22/15
f 31/37/3 34/36/3 55/64/3 54/54/3
f 58/72/3 57/73/3 53/74/3 54/75/3
f 28/39/3 29/38/3 53/55/3 52/49/3
f 56/76/3 60/77/3 51/78/3 52/79/3
f 37/25/3 38/51/3 51/50/3 27/26/3
f 11/42/3 19/43/3 60/80/3 56/52/3
f 49/46/3 48/47/3 57/53/3 58/56/3
f 210/81/16 88/81/16 63/82/16 185/82/16
f 54/75/3 55/58/3 59/61/3 58/72/3
f 52/79/3 53/74/3 57/73/3 56/76/3
f 27/83/3 51/78/3 60/77/3 61/84/3
f 27/26/3 61/85/3 10/1/3 39/33/3
f 10/1/3 61/85/3 60/80/3 19/43/3
f 12/41/4 134/41/4 171/46/4 49/46/4
f 41/23/18 163/23/18 164/14/18 42/14/18
f 15/45/7 137/45/7 198/70/7 76/70/7
f 93/86/19 215/86/19 193/87/19 71/87/19
f 110/88/4 232/88/4 195/40/4 73/40/4
f 67/89/2 77/90/2 79/91/2 78/92/2
f 69/93/3 62/94/3 63/82/3 101/95/3
f 62/94/3 82/96/3 83/97/3 63/82/3
f 62/94/3 69/93/3 103/98/3 74/99/3
f 107/100/3 108/101/3 106/102/3 84/103/3
f 106/102/3 108/101/3 81/104/3 105/105/3
f 91/106/3 65/107/3 102/108/3 97/109/3
f 101/95/3 63/82/3 88/81/3 98/110/3
f 84/103/3 83/97/3 82/96/3 107/100/3
f 65/107/3 87/111/3 103/98/3 102/108/3
f 70/71/3 64/112/3 104/113/3 86/114/3
f 71/87/3 100/115/3 85/116/3 93/86/3
f 96/117/3 92/118/3 95/62/3 94/119/3
f 90/120/3 91/106/3 97/109/3 89/121/3
f 104/113/3 96/117/3 94/119/3 86/114/3
f 198/70/12 137/45/12 131/28/12 192/71/12
f 82/96/20 204/96/20 229/100/20 107/100/20
f 80/122/4 202/122/4 194/123/4 72/123/4
f 107/100/21 229/100/21 230/101/21 108/101/21
f 76/70/7 198/70/7 233/124/7 111/124/7
f 71/87/4 193/87/4 202/122/4 80/122/4
f 81/104/3 93/86/3 85/116/3 105/105/3
f 109/125/4 231/125/4 232/88/4 110/88/4
f 87/111/3 75/126/3 74/99/3 103/98/3
f 75/126/3 87/111/3 64/112/3 111/124/3
f 70/71/3 76/70/3 111/124/3 64/112/3
f 113/127/3 89/121/3 99/128/3 112/129/3
f 117/130/3 72/123/3 109/125/3 118/131/3
f 115/132/3 92/118/3 90/120/3 114/133/3
f 119/134/3 110/88/3 73/40/3 120/69/3
f 75/126/7 197/126/7 196/99/7 74/99/7
f 108/101/16 230/101/16 203/104/16 81/104/16
f 72/123/4 194/123/4 231/125/4 109/125/4
f 103/98/11 225/98/11 224/108/11 102/108/11
f 81/104/22 203/104/22 215/86/22 93/86/22
f 111/124/7 233/124/7 197/126/7 75/126/7
f 68/135/7 66/136/7 62/94/7 74/99/7
f 67/89/3 66/137/3 68/138/3 77/90/3
f 200/92/23 189/89/23 67/89/23 78/92/23
f 67/89/16 189/89/16 188/137/16 66/137/16
f 74/99/7 196/99/7 190/135/7 68/135/7
f 66/136/7 188/136/7 184/94/7 62/94/7
f 87/111/4 209/111/4 186/112/4 64/112/4
f 65/107/18 187/107/18 209/111/18 87/111/18
f 97/109/13 219/109/13 211/121/13 89/121/13
f 95/62/15 217/62/15 216/119/15 94/119/15
f 99/128/24 221/128/24 220/110/24 98/110/24
f 96/117/13 218/117/13 214/118/13 92/118/13
f 94/119/8 216/119/8 208/114/8 86/114/8
f 86/114/18 208/114/18 192/71/18 70/71/18
f 91/106/8 213/106/8 187/107/8 65/107/8
f 101/95/18 223/95/18 191/93/18 69/93/18
f 98/110/8 220/110/8 223/95/8 101/95/8
f 64/112/25 186/112/25 226/113/25 104/113/25
f 89/121/7 211/121/7 221/128/7 99/128/7
f 102/108/16 224/108/16 219/109/16 97/109/16
f 104/113/16 226/113/16 218/117/16 96/117/16
f 69/93/4 191/93/4 225/98/4 103/98/4
f 92/118/3 115/132/3 116/63/3 95/62/3
f 119/139/3 115/140/3 114/141/3 118/142/3
f 89/121/3 113/127/3 114/133/3 90/120/3
f 117/143/3 113/144/3 112/145/3 121/146/3
f 98/110/3 88/81/3 112/129/3 99/128/3
f 72/123/3 117/130/3 121/147/3 80/122/3
f 110/88/3 119/134/3 118/131/3 109/125/3
f 115/140/3 119/139/3 120/60/3 116/59/3
f 113/144/3 117/143/3 118/142/3 114/141/3
f 88/148/3 122/149/3 121/146/3 112/145/3
f 88/81/3 100/115/3 71/87/3 122/150/3
f 71/87/3 80/122/3 121/147/3 122/150/3
f 17/4/7 139/4/7 140/5/7 18/5/7
f 149/26/8 124/9/8 2/9/8 27/26/8
f 222/115/26 100/115/26 88/81/26 210/81/26
f 222/115/7 207/116/7 85/116/7 100/115/7
f 207/116/27 227/105/27 105/105/27 85/116/27
f 227/105/8 228/102/8 106/102/8 105/105/8
f 206/103/28 84/103/28 106/102/28 228/102/28
f 206/103/4 205/97/4 83/97/4 84/103/4
f 185/82/29 63/82/29 83/97/29 205/97/29
f 213/106/24 91/106/24 90/120/24 212/120/24
f 199/90/8 77/90/8 68/138/8 190/138/8
f 199/90/30 201/91/30 79/91/30 77/90/30
f 62/94/7 184/94/7 204/96/7 82/96/7
f 92/118/7 214/118/7 212/120/7 90/120/7
f 161/33/27 149/26/27 27/26/27 39/33/27
f 161/33/7 39/33/7 24/32/7 146/32/7
f 146/32/26 24/32/26 44/19/26 166/19/26
f 166/19/16 44/19/16 45/17/16 167/17/16
f 145/16/29 167/17/29 45/17/29 23/16/29
f 145/16/4 23/16/4 22/11/4 144/11/4
f 124/9/28 144/11/28 22/11/28 2/9/28
f 152/21/14 151/38/14 29/38/14 30/21/14
f 138/6/16 129/67/16 7/67/16 16/6/16
f 138/6/31 16/6/31 18/5/31 140/5/31
f 21/12/7 143/12/7 123/10/7 1/10/7
f 29/38/7 151/38/7 153/37/7 31/37/7
f 128/3/32 138/6/32 140/5/32 139/4/32
f 130/7/12 123/10/12 124/9/12 162/8/12
f 123/10/12 143/12/12 144/11/12 124/9/12
f 123/10/12 130/7/12 164/14/12 135/13/12
f 168/15/12 169/18/12 167/17/12 145/16/12
f 167/17/12 169/18/12 142/20/12 166/19/12
f 152/21/12 126/24/12 163/23/12 158/22/12
f 162/8/12 124/9/12 149/26/12 159/25/12
f 145/16/12 144/11/12 143/12/12 168/15/12
f 126/24/12 148/27/12 164/14/12 163/23/12
f 131/28/12 125/31/12 165/30/12 147/29/12
f 132/1/12 161/33/12 146/32/12 154/2/12
f 157/34/12 153/37/12 156/36/12 155/35/12
f 151/38/12 152/21/12 158/22/12 150/39/12
f 165/30/12 157/34/12 155/35/12 147/29/12
f 142/20/12 154/2/12 146/32/12 166/19/12
f 148/27/12 136/48/12 135/13/12 164/14/12
f 136/48/12 148/27/12 125/31/12 172/44/12
f 131/28/12 137/45/12 172/44/12 125/31/12
f 174/49/12 150/39/12 160/51/12 173/50/12
f 178/52/12 133/42/12 170/47/12 179/53/12
f 176/54/12 153/37/12 151/38/12 175/55/12
f 180/56/12 171/46/12 134/41/12 181/57/12
f 181/61/12 242/60/12 238/59/12 177/58/12
f 177/64/12 238/63/12 217/62/12 156/36/12
f 129/65/7 127/66/7 123/10/7 135/13/7
f 128/3/12 127/68/12 129/67/12 138/6/12
f 153/37/12 176/54/12 177/64/12 156/36/12
f 180/72/12 176/75/12 175/74/12 179/73/12
f 150/39/12 174/49/12 175/55/12 151/38/12
f 178/76/12 174/79/12 173/78/12 182/77/12
f 159/25/12 149/26/12 173/50/12 160/51/12
f 133/42/12 178/52/12 182/80/12 141/43/12
f 171/46/12 180/56/12 179/53/12 170/47/12
f 176/75/12 180/72/12 181/61/12 177/58/12
f 174/79/12 178/76/12 179/73/12 175/74/12
f 149/83/12 183/84/12 182/77/12 173/78/12
f 149/26/12 161/33/12 132/1/12 183/85/12
f 132/1/12 141/43/12 182/80/12 183/85/12
f 131/28/4 9/28/4 70/71/4 192/71/4
f 189/89/32 200/92/32 201/91/32 199/90/32
f 191/93/12 223/95/12 185/82/12 184/94/12
f 184/94/12 185/82/12 205/97/12 204/96/12
f 184/94/12 196/99/12 225/98/12 191/93/12
f 229/100/12 206/103/12 228/102/12 230/101/12
f 228/102/12 227/105/12 203/104/12 230/101/12
f 213/106/12 219/109/12 224/108/12 187/107/12
f 223/95/12 220/110/12 210/81/12 185/82/12
f 206/103/12 229/100/12 204/96/12 205/97/12
f 187/107/12 224/108/12 225/98/12 209/111/12
f 192/71/12 208/114/12 226/113/12 186/112/12
f 193/87/12 215/86/12 207/116/12 222/115/12
f 218/117/12 216/119/12 217/62/12 214/118/12
f 212/120/12 211/121/12 219/109/12 213/106/12
f 226/113/12 208/114/12 216/119/12 218/117/12
f 203/104/12 227/105/12 207/116/12 215/86/12
f 209/111/12 225/98/12 196/99/12 197/126/12
f 197/126/12 233/124/12 186/112/12 209/111/12
f 192/71/12 186/112/12 233/124/12 198/70/12
f 235/127/12 234/129/12 221/128/12 211/121/12
f 239/130/12 240/131/12 231/125/12 194/123/12
f 237/132/12 236/133/12 212/120/12 214/118/12
f 241/134/12 242/69/12 195/40/12 232/88/12
f 190/135/7 196/99/7 184/94/7 188/136/7
f 189/89/12 199/90/12 190/138/12 188/137/12
f 214/118/12 217/62/12 238/63/12 237/132/12
f 241/139/12 240/142/12 236/141/12 237/140/12
f 211/121/12 212/120/12 236/133/12 235/127/12
f 239/143/12 243/146/12 234/145/12 235/144/12
f 220/110/12 221/128/12 234/129/12 210/81/12
f 194/123/12 202/122/12 243/147/12 239/130/12
f 232/88/12 231/125/12 240/131/12 241/134/12
f 237/140/12 238/59/12 242/60/12 241/139/12
f 235/144/12 236/141/12 240/142/12 239/143/12
f 210/148/12 234/145/12 243/146/12 244/149/12
f 210/81/12 244/150/12 193/87/12 222/115/12
f 193/87/12 244/150/12 243/147/12 202/122/12
f 59/57/3 120/69/3 73/40/3 12/41/3
f 79/91/7 201/91/7 200/92/7 78/92/7
