# Blender 5.1.0
# www.blender.org
mtllib barriere55_143.mtl
o barriere55.143
v 61.924393 0.406544 31.668163
v 61.978153 0.597168 31.701349
v 61.427731 0.643228 31.361586
v 61.557755 0.684295 31.441849
v 61.883625 0.406544 31.657211
v 61.883625 0.372827 31.657211
v 61.750648 0.406544 31.575129
v 61.795307 0.643228 31.588484
v 61.169559 0.643228 31.202227
v 62.123611 1.574804 31.791138
v 61.750572 1.574801 31.560869
v 61.229118 1.574801 31.238989
v 61.750572 0.406544 31.560869
v 61.576756 0.406544 31.453575
v 61.229118 0.406544 31.238989
v 61.750648 0.372827 31.575129
v 62.017471 0.224803 31.498615
v 61.830677 0.224803 31.383312
v 61.978149 1.574801 31.701347
v 62.237263 1.411595 31.861292
v 62.026958 0.406544 31.731476
v 62.053474 0.558043 31.747845
v 62.108181 0.558043 31.781612
v 62.108181 1.334638 31.781612
v 61.244884 0.684295 31.248722
v 61.482433 0.643228 31.395355
v 61.978149 1.295513 31.701347
v 61.740601 1.249449 31.554714
v 61.482433 1.249449 31.395355
v 61.557755 1.208383 31.441849
v 61.427731 1.249449 31.361586
v 62.200512 1.519067 31.838606
v 61.244884 1.208383 31.248722
v 61.169559 1.249449 31.202227
v 61.352406 1.208383 31.315090
v 61.665279 1.208383 31.508221
v 61.870628 1.208383 31.634977
v 61.795307 1.249452 31.588484
v 62.053474 1.334638 31.747845
v 61.870628 0.684295 31.634977
v 61.665279 0.684295 31.508221
v 61.740601 0.643228 31.554714
v 61.352406 0.684295 31.315090
v 62.183502 1.295510 31.828106
v 62.183502 0.597168 31.828106
v 62.157429 0.442269 31.812012
v 62.237263 0.546414 31.861292
v 61.576756 1.574801 31.453575
v 61.402935 1.574801 31.346283
v 61.402935 0.406544 31.346283
v 61.813580 1.295513 31.599764
v 61.742012 1.295513 31.555586
v 61.495789 1.295513 31.403597
v 61.424217 1.295513 31.359419
v 61.177994 1.295513 31.207430
v 61.748730 1.514732 31.559732
v 61.559341 1.514732 31.442827
v 61.407513 1.514732 31.349108
v 61.218121 1.514732 31.232201
v 61.942757 1.514733 31.679499
v 61.978149 1.514733 31.701347
v 60.360409 0.406544 30.702759
v 60.306648 0.597168 30.669573
v 60.857071 0.643228 31.009335
v 60.727047 0.684295 30.929073
v 60.388474 0.406544 30.734293
v 60.388474 0.372827 30.734293
v 60.521450 0.406544 30.816376
v 60.489494 0.643228 30.782438
v 61.115242 0.643228 31.168695
v 60.161190 1.574804 30.579784
v 60.534229 1.574801 30.810053
v 61.055683 1.574801 31.131933
v 60.534229 0.406544 30.810053
v 60.708046 0.406544 30.917345
v 61.055683 0.406544 31.131933
v 60.521450 0.372827 30.816376
v 60.470257 0.224803 30.543558
v 60.657051 0.224803 30.658863
v 60.306652 1.574801 30.669575
v 60.047539 1.411595 30.509630
v 60.257843 0.406544 30.639444
v 60.231327 0.558043 30.623077
v 60.176620 0.558043 30.589310
v 60.176620 1.334638 30.589310
v 61.039917 0.684295 31.122200
v 60.802368 0.643228 30.975567
v 60.306652 1.295513 30.669575
v 60.544201 1.249449 30.816206
v 60.802368 1.249449 30.975567
v 60.727047 1.208383 30.929073
v 60.857071 1.249449 31.009335
v 60.084290 1.519067 30.532316
v 61.039917 1.208383 31.122200
v 61.115242 1.249449 31.168695
v 60.932396 1.208383 31.055832
v 60.619522 1.208383 30.862701
v 60.414173 1.208383 30.735945
v 60.489494 1.249452 30.782438
v 60.231327 1.334638 30.623077
v 60.414173 0.684295 30.735945
v 60.619522 0.684295 30.862701
v 60.544201 0.643228 30.816206
v 60.932396 0.684295 31.055832
v 60.101299 1.295510 30.542814
v 60.101299 0.597168 30.542814
v 60.127373 0.442269 30.558908
v 60.047539 0.546414 30.509630
v 60.708046 1.574801 30.917345
v 60.881866 1.574801 31.024639
v 60.881866 0.406544 31.024639
v 60.471218 1.295513 30.771158
v 60.542789 1.295513 30.815334
v 60.789013 1.295513 30.967325
v 60.860584 1.295513 31.011501
v 61.106808 1.295513 31.163490
v 60.536072 1.514732 30.811188
v 60.725460 1.514732 30.928095
v 60.877289 1.514732 31.021814
v 61.066681 1.514732 31.138721
v 60.342045 1.514733 30.691422
v 60.306652 1.514733 30.669575
v 61.876888 0.406544 31.745121
v 61.930649 0.597168 31.778307
v 61.380226 0.643228 31.438545
v 61.510250 0.684295 31.518806
v 61.848824 0.406544 31.713587
v 61.848824 0.372827 31.713587
v 61.715847 0.406544 31.631504
v 61.747803 0.643228 31.665442
v 61.122055 0.643228 31.279184
v 62.076107 1.574804 31.868095
v 61.703068 1.574801 31.637829
v 61.181614 1.574801 31.315947
v 61.703068 0.406544 31.637827
v 61.529251 0.406544 31.530535
v 61.181614 0.406544 31.315947
v 61.715847 0.372827 31.631504
v 61.767040 0.224803 31.904322
v 61.580246 0.224803 31.789017
v 61.930645 1.574801 31.778307
v 62.189758 1.411595 31.938250
v 61.979454 0.406544 31.808435
v 62.005970 0.558043 31.824802
v 62.060677 0.558043 31.858570
v 62.060677 1.334638 31.858570
v 61.197380 0.684295 31.325680
v 61.434929 0.643228 31.472313
v 61.930645 1.295513 31.778307
v 61.693096 1.249449 31.631674
v 61.434929 1.249449 31.472313
v 61.510250 1.208383 31.518806
v 61.380226 1.249449 31.438545
v 62.153008 1.519067 31.915564
v 61.197380 1.208383 31.325680
v 61.122055 1.249449 31.279184
v 61.304901 1.208383 31.392048
v 61.617775 1.208383 31.585178
v 61.823124 1.208383 31.711935
v 61.747803 1.249452 31.665442
v 62.005970 1.334638 31.824802
v 61.823124 0.684295 31.711935
v 61.617775 0.684295 31.585178
v 61.693096 0.643228 31.631674
v 61.304901 0.684295 31.392048
v 62.135998 1.295510 31.905066
v 62.135998 0.597168 31.905066
v 62.109924 0.442269 31.888971
v 62.189758 0.546414 31.938250
v 61.529251 1.574801 31.530535
v 61.355431 1.574801 31.423241
v 61.355431 0.406544 31.423241
v 61.766075 1.295513 31.676722
v 61.694508 1.295513 31.632545
v 61.448284 1.295513 31.480556
v 61.376713 1.295513 31.436378
v 61.130489 1.295513 31.284389
v 61.701225 1.514732 31.636692
v 61.511837 1.514732 31.519785
v 61.360008 1.514732 31.426065
v 61.170616 1.514732 31.309158
v 61.895252 1.514733 31.756458
v 61.930645 1.514733 31.778307
v 60.312904 0.406544 30.779716
v 60.259144 0.597168 30.746531
v 60.809566 0.643228 31.086294
v 60.679543 0.684295 31.006031
v 60.353672 0.406544 30.790668
v 60.353672 0.372827 30.790668
v 60.486649 0.406544 30.872751
v 60.441990 0.643228 30.859396
v 61.067738 0.643228 31.245653
v 60.113686 1.574804 30.656742
v 60.486725 1.574801 30.887011
v 61.008179 1.574801 31.208891
v 60.486725 0.406544 30.887011
v 60.660542 0.406544 30.994305
v 61.008179 0.406544 31.208891
v 60.486649 0.372827 30.872751
v 60.219826 0.224803 30.949265
v 60.406620 0.224803 31.064568
v 60.259148 1.574801 30.746532
v 60.000034 1.411595 30.586588
v 60.210339 0.406544 30.716404
v 60.183823 0.558043 30.700035
v 60.129116 0.558043 30.666267
v 60.129116 1.334638 30.666269
v 60.992413 0.684295 31.199158
v 60.754864 0.643228 31.052525
v 60.259148 1.295513 30.746532
v 60.496696 1.249449 30.893166
v 60.754864 1.249449 31.052526
v 60.679543 1.208383 31.006031
v 60.809566 1.249449 31.086294
v 60.036785 1.519067 30.609274
v 60.992413 1.208383 31.199158
v 61.067738 1.249449 31.245655
v 60.884892 1.208383 31.132790
v 60.572018 1.208383 30.939659
v 60.366669 1.208383 30.812902
v 60.441990 1.249452 30.859398
v 60.183823 1.334638 30.700035
v 60.366669 0.684295 30.812902
v 60.572018 0.684295 30.939659
v 60.496696 0.643228 30.893166
v 60.884892 0.684295 31.132790
v 60.053795 1.295510 30.619774
v 60.053795 0.597168 30.619774
v 60.079868 0.442269 30.635868
v 60.000034 0.546414 30.586588
v 60.660542 1.574801 30.994305
v 60.834362 1.574801 31.101599
v 60.834362 0.406544 31.101597
v 60.423714 1.295513 30.848116
v 60.495285 1.295513 30.892294
v 60.741508 1.295513 31.044283
v 60.813080 1.295513 31.088461
v 61.059303 1.295513 31.240450
v 60.488564 1.514732 30.888147
v 60.677956 1.514732 31.005053
v 60.829784 1.514732 31.098772
v 61.019176 1.514732 31.215679
v 60.294540 1.514733 30.768381
v 60.259148 1.514733 30.746532
vn 0.4467 0.8511 0.2757
vn 0.3072 0.8111 -0.4977
vn 0.5253 -0.0000 -0.8509
vn 0.5252 -0.0000 -0.8509
vn 0.5253 0.0001 -0.8509
vn -0.0000 1.0000 -0.0000
vn 0.1931 -0.9739 0.1192
vn 0.6322 -0.6693 0.3903
vn -0.0000 -1.0000 -0.0000
vn 0.8509 -0.0000 0.5253
vn 0.7896 0.3729 0.4874
vn 0.8333 0.2024 0.5144
vn -0.3581 0.9071 -0.2210
vn -0.5253 -0.0000 0.8509
vn -0.3581 -0.9071 -0.2210
vn -0.3581 -0.9071 -0.2211
vn 0.3581 -0.9071 0.2211
vn -0.8509 -0.0000 -0.5253
vn -0.3581 0.9071 -0.2211
vn 0.3581 0.9071 0.2211
vn -0.4467 0.8511 -0.2757
vn 0.5253 -0.0001 -0.8509
vn -0.1931 -0.9739 -0.1192
vn -0.6322 -0.6693 -0.3903
vn 0.5252 -0.0000 -0.8510
vn -0.7896 0.3729 -0.4874
vn -0.8333 0.2024 -0.5144
vn -0.3440 -0.9146 -0.2123
vn 0.3440 -0.9146 0.2123
vn 0.8509 -0.0000 0.5252
vn 0.3440 0.9147 0.2123
vn -0.3440 0.9146 -0.2123
vn 0.8310 0.2154 0.5129
vn -0.3440 -0.9146 -0.2124
vn 0.3440 0.9146 0.2123
vn -0.8310 0.2155 -0.5129
vn -0.3072 0.8111 0.4977
vn -0.5253 0.0001 0.8509
vn -0.5253 -0.0001 0.8509
vt 0.563424 0.076340
vt 0.553130 0.073518
vt 0.930572 0.423953
vt 0.921307 0.379121
vt 0.987792 0.379121
vt 0.977903 0.423953
vt 0.607372 0.029178
vt 0.597289 0.031257
vt 0.582896 0.026846
vt 0.590093 0.017196
vt 0.572813 0.024865
vt 0.576362 0.017196
vt 0.613360 0.017196
vt 0.614695 0.029178
vt 0.558897 0.019004
vt 0.565490 0.024865
vt 0.555407 0.026846
vt 0.548211 0.024277
vt 0.555407 0.062200
vt 0.548211 0.068077
vt 0.639171 0.057790
vt 0.624778 0.057790
vt 0.624778 0.031257
vt 0.639171 0.031257
vt 0.597289 0.057790
vt 0.582896 0.062201
vt 0.649254 0.029178
vt 0.691136 0.029178
vt 0.681053 0.031257
vt 0.666660 0.031257
vt 0.656577 0.029178
vt 0.565490 0.064181
vt 0.572813 0.064181
vt 0.666660 0.057790
vt 0.681053 0.057790
vt 0.691136 0.059869
vt 0.656577 0.059869
vt 0.649254 0.059869
vt 0.614695 0.059869
vt 0.706379 0.076340
vt 0.683164 0.076340
vt 0.613360 0.076340
vt 0.582896 0.076340
vt 0.659896 0.017196
vt 0.683164 0.017196
vt 0.659896 0.076340
vt 0.636628 0.076340
vt 0.636628 0.017196
vt 0.614506 0.062201
vt 0.604926 0.062201
vt 0.607372 0.059869
vt 0.613607 0.073299
vt 0.638959 0.073299
vt 0.657047 0.062201
vt 0.647466 0.062201
vt 0.659283 0.073299
vt 0.684635 0.073299
vt 0.688839 0.081258
vt 0.699816 0.081258
vt 0.706005 0.126709
vt 0.682651 0.126709
vt 0.698407 0.059869
vt 0.699536 0.062201
vt 0.690007 0.062201
vt 0.612500 0.017196
vt 0.594699 0.017196
vt 0.977903 0.434165
vt 0.930572 0.434165
vt 0.704907 0.073299
vt 0.706379 0.017196
vt 0.698407 0.029178
vt 0.653445 0.126709
vt 0.630032 0.126709
vt 0.639832 0.081258
vt 0.650869 0.081258
vt 0.600826 0.126709
vt 0.570905 0.126710
vt 0.590825 0.081258
vt 0.601862 0.081258
vt 0.587634 0.073299
vt 0.806647 0.062201
vt 0.806647 0.026846
vt 0.565447 0.081258
vt 0.565447 0.126710
vt 0.582896 0.073299
vt 0.836413 0.073518
vt 0.826118 0.076340
vt 0.729647 0.076340
vt 0.978547 0.423953
vt 0.931216 0.423953
vt 0.921327 0.379121
vt 0.987812 0.379121
vt 0.782171 0.029178
vt 0.799450 0.017196
vt 0.792254 0.031257
vt 0.813181 0.017196
vt 0.816730 0.024865
vt 0.774848 0.029178
vt 0.776183 0.017196
vt 0.830646 0.019004
vt 0.841332 0.024277
vt 0.834136 0.026846
vt 0.824053 0.024865
vt 0.841332 0.068077
vt 0.834136 0.062200
vt 0.750372 0.057790
vt 0.750372 0.031257
vt 0.764765 0.031257
vt 0.764765 0.057790
vt 0.792254 0.057790
vt 0.740289 0.029178
vt 0.732966 0.029178
vt 0.722883 0.031257
vt 0.708490 0.031257
vt 0.816730 0.064181
vt 0.824053 0.064181
vt 0.722883 0.057790
vt 0.732966 0.059869
vt 0.708490 0.057790
vt 0.740289 0.059869
vt 0.774848 0.059869
vt 0.806647 0.076340
vt 0.776183 0.076340
vt 0.729647 0.017196
vt 0.752915 0.076340
vt 0.752915 0.017196
vt 0.775037 0.062201
vt 0.782171 0.059869
vt 0.784617 0.062201
vt 0.775936 0.073299
vt 0.750584 0.073299
vt 0.732496 0.062201
vt 0.742077 0.062201
vt 0.730260 0.073299
vt 0.777043 0.017196
vt 0.794844 0.017196
vt 0.978547 0.434165
vt 0.931216 0.434165
vt 0.735211 0.126709
vt 0.737787 0.081258
vt 0.748824 0.081258
vt 0.758624 0.126709
vt 0.787830 0.126709
vt 0.786794 0.081258
vt 0.797831 0.081258
vt 0.817751 0.126710
vt 0.801909 0.073299
vt 0.823209 0.081258
vt 0.823209 0.126710
vt 0.806647 0.073299
s 1
usemtl initialShadingGroup.004
f 10/1/1 132/1/1 154/2/1 32/2/1
f 6/3/2 17/4/2 18/5/2 16/6/2
f 8/7/3 40/8/3 2/9/3 1/10/3
f 1/10/3 2/9/3 22/11/3 21/12/3
f 1/10/3 13/13/3 42/14/3 8/7/3
f 46/15/3 23/16/3 45/17/3 47/18/3
f 45/17/3 44/19/3 20/20/3 47/18/3
f 30/21/3 36/22/3 41/23/3 4/24/3
f 40/8/3 37/25/3 27/26/3 2/9/3
f 23/16/3 46/15/3 21/12/3 22/11/3
f 4/24/3 41/23/3 42/14/3 26/27/3
f 9/28/3 25/29/4 43/30/4 3/31/3
f 10/1/3 32/2/3 24/32/3 39/33/3
f 35/34/4 33/35/4 34/36/3 31/37/3
f 29/38/3 28/39/5 36/22/3 30/21/3
f 43/30/4 25/29/4 33/35/4 35/34/4
f 73/40/6 195/40/6 134/41/6 12/41/6
f 46/15/7 168/15/7 143/12/7 21/12/7
f 11/42/6 133/42/6 141/43/6 19/43/6
f 47/18/8 169/18/8 168/15/8 46/15/8
f 50/44/9 172/44/9 137/45/9 15/45/9
f 19/43/6 141/43/6 132/1/6 10/1/6
f 20/20/3 44/19/3 24/32/3 32/2/3
f 49/46/6 171/46/6 170/47/6 48/47/6
f 26/27/3 42/14/3 13/13/3 14/48/3
f 14/48/3 50/44/3 3/31/3 26/27/3
f 9/28/3 3/31/3 50/44/3 15/45/3
f 52/49/3 51/50/3 38/51/3 28/39/5
f 56/52/3 57/53/3 48/47/3 11/42/3
f 54/54/3 53/55/3 29/38/3 31/37/3
f 58/56/3 59/57/3 12/41/3 49/46/3
f 55/58/3 116/59/3 120/60/3 59/61/3
f 13/13/9 135/13/9 136/48/9 14/48/9
f 20/20/10 142/20/10 169/18/10 47/18/10
f 34/36/3 95/62/3 116/63/3 55/64/3
f 48/47/6 170/47/6 133/42/6 11/42/6
f 32/2/11 154/2/11 142/20/11 20/20/11
f 14/48/9 136/48/9 172/44/9 50/44/9
f 7/65/9 13/13/9 1/10/9 5/66/9
f 6/3/3 16/6/3 7/67/3 5/68/3
f 139/4/12 17/4/12 6/3/12 128/3/12
f 5/68/10 127/68/10 128/3/10 6/3/10
f 7/65/9 129/65/9 135/13/9 13/13/9
f 1/10/9 123/10/9 127/66/9 5/66/9
f 3/31/6 125/31/6 148/27/6 26/27/6
f 26/27/13 148/27/13 126/24/13 4/24/13
f 134/41/14 195/40/14 242/69/14 181/57/14
f 156/36/9 217/62/9 95/62/9 34/36/9
f 33/35/15 155/35/15 156/36/15 34/36/15
f 37/25/16 159/25/16 160/51/16 38/51/16
f 31/37/17 153/37/17 157/34/17 35/34/17
f 25/29/18 147/29/18 155/35/18 33/35/18
f 9/28/19 131/28/19 147/29/19 25/29/19
f 4/24/18 126/24/18 152/21/18 30/21/18
f 8/7/19 130/7/19 162/8/19 40/8/19
f 40/8/18 162/8/18 159/25/18 37/25/18
f 43/30/20 165/30/20 125/31/20 3/31/20
f 38/51/9 160/51/9 150/39/9 28/39/9
f 76/70/3 70/71/3 9/28/3 15/45/3
f 36/22/10 158/22/10 163/23/10 41/23/10
f 35/34/10 157/34/10 165/30/10 43/30/10
f 42/14/6 164/14/6 130/7/6 8/7/6
f 28/39/17 150/39/17 158/22/17 36/22/17
f 31/37/3 34/36/3 55/64/3 54/54/3
f 58/72/3 57/73/3 53/74/3 54/75/3
f 28/39/5 29/38/3 53/55/3 52/49/3
f 56/76/3 60/77/3 51/78/3 52/79/3
f 37/25/3 38/51/3 51/50/3 27/26/3
f 11/42/3 19/43/3 60/80/3 56/52/3
f 49/46/3 48/47/3 57/53/3 58/56/3
f 210/81/18 88/81/18 63/82/18 185/82/18
f 54/75/3 55/58/3 59/61/3 58/72/3
f 52/79/3 53/74/3 57/73/3 56/76/3
f 27/83/3 51/78/3 60/77/3 61/84/3
f 27/26/3 61/85/3 10/1/3 39/33/3
f 10/1/3 61/85/3 60/80/3 19/43/3
f 12/41/6 134/41/6 171/46/6 49/46/6
f 41/23/20 163/23/20 164/14/20 42/14/20
f 15/45/9 137/45/9 198/70/9 76/70/9
f 93/86/21 215/86/21 193/87/21 71/87/21
f 110/88/6 232/88/6 195/40/6 73/40/6
f 67/89/2 77/90/2 79/91/2 78/92/2
f 69/93/3 62/94/3 63/82/3 101/95/3
f 62/94/3 82/96/3 83/97/3 63/82/3
f 62/94/3 69/93/3 103/98/3 74/99/3
f 107/100/3 108/101/3 106/102/3 84/103/3
f 106/102/3 108/101/3 81/104/3 105/105/3
f 91/106/22 65/107/5 102/108/5 97/109/22
f 101/95/3 63/82/3 88/81/3 98/110/3
f 84/103/3 83/97/3 82/96/3 107/100/3
f 65/107/5 87/111/3 103/98/3 102/108/5
f 70/71/3 64/112/3 104/113/5 86/114/5
f 71/87/3 100/115/3 85/116/3 93/86/3
f 96/117/22 92/118/3 95/62/3 94/119/22
f 90/120/3 91/106/22 97/109/22 89/121/3
f 104/113/5 96/117/22 94/119/22 86/114/5
f 198/70/14 137/45/14 131/28/14 192/71/14
f 82/96/23 204/96/23 229/100/23 107/100/23
f 80/122/6 202/122/6 194/123/6 72/123/6
f 107/100/24 229/100/24 230/101/24 108/101/24
f 76/70/9 198/70/9 233/124/9 111/124/9
f 71/87/6 193/87/6 202/122/6 80/122/6
f 81/104/3 93/86/3 85/116/3 105/105/3
f 109/125/6 231/125/6 232/88/6 110/88/6
f 87/111/3 75/126/3 74/99/3 103/98/3
f 75/126/3 87/111/3 64/112/3 111/124/3
f 70/71/3 76/70/3 111/124/3 64/112/3
f 113/127/3 89/121/3 99/128/25 112/129/3
f 117/130/3 72/123/3 109/125/3 118/131/3
f 115/132/3 92/118/3 90/120/3 114/133/3
f 119/134/3 110/88/3 73/40/3 120/69/3
f 75/126/9 197/126/9 196/99/9 74/99/9
f 108/101/18 230/101/18 203/104/18 81/104/18
f 72/123/6 194/123/6 231/125/6 109/125/6
f 103/98/19 225/98/19 224/108/19 102/108/19
f 81/104/26 203/104/26 215/86/26 93/86/26
f 111/124/9 233/124/9 197/126/9 75/126/9
f 68/135/9 66/136/9 62/94/9 74/99/9
f 67/89/3 66/137/3 68/138/3 77/90/3
f 200/92/27 189/89/27 67/89/27 78/92/27
f 67/89/18 189/89/18 188/137/18 66/137/18
f 74/99/9 196/99/9 190/135/9 68/135/9
f 66/136/9 188/136/9 184/94/9 62/94/9
f 87/111/6 209/111/6 186/112/6 64/112/6
f 65/107/20 187/107/20 209/111/20 87/111/20
f 97/109/15 219/109/15 211/121/15 89/121/15
f 95/62/17 217/62/17 216/119/17 94/119/17
f 99/128/17 221/128/17 220/110/17 98/110/17
f 96/117/15 218/117/15 214/118/15 92/118/15
f 94/119/10 216/119/10 208/114/10 86/114/10
f 86/114/20 208/114/20 192/71/20 70/71/20
f 91/106/10 213/106/10 187/107/10 65/107/10
f 101/95/20 223/95/20 191/93/20 69/93/20
f 98/110/10 220/110/10 223/95/10 101/95/10
f 64/112/19 186/112/19 226/113/19 104/113/19
f 89/121/9 211/121/9 221/128/9 99/128/9
f 102/108/18 224/108/18 219/109/18 97/109/18
f 104/113/18 226/113/18 218/117/18 96/117/18
f 69/93/6 191/93/6 225/98/6 103/98/6
f 92/118/3 115/132/3 116/63/3 95/62/3
f 119/139/3 115/140/3 114/141/3 118/142/3
f 89/121/3 113/127/3 114/133/3 90/120/3
f 117/143/3 113/144/3 112/145/3 121/146/3
f 98/110/3 88/81/3 112/129/3 99/128/25
f 72/123/3 117/130/3 121/147/3 80/122/3
f 110/88/3 119/134/3 118/131/3 109/125/3
f 115/140/3 119/139/3 120/60/3 116/59/3
f 113/144/3 117/143/3 118/142/3 114/141/3
f 88/148/3 122/149/3 121/146/3 112/145/3
f 88/81/3 100/115/3 71/87/3 122/150/3
f 71/87/3 80/122/3 121/147/3 122/150/3
f 17/4/9 139/4/9 140/5/9 18/5/9
f 149/26/10 124/9/10 2/9/10 27/26/10
f 222/115/28 100/115/28 88/81/28 210/81/28
f 222/115/9 207/116/9 85/116/9 100/115/9
f 207/116/29 227/105/29 105/105/29 85/116/29
f 227/105/30 228/102/30 106/102/30 105/105/30
f 206/103/31 84/103/31 106/102/31 228/102/31
f 206/103/6 205/97/6 83/97/6 84/103/6
f 185/82/32 63/82/32 83/97/32 205/97/32
f 213/106/17 91/106/17 90/120/17 212/120/17
f 199/90/10 77/90/10 68/138/10 190/138/10
f 199/90/33 201/91/33 79/91/33 77/90/33
f 62/94/9 184/94/9 204/96/9 82/96/9
f 92/118/9 214/118/9 212/120/9 90/120/9
f 161/33/29 149/26/29 27/26/29 39/33/29
f 161/33/9 39/33/9 24/32/9 146/32/9
f 146/32/34 24/32/34 44/19/34 166/19/34
f 166/19/18 44/19/18 45/17/18 167/17/18
f 145/16/32 167/17/32 45/17/32 23/16/32
f 145/16/6 23/16/6 22/11/6 144/11/6
f 124/9/35 144/11/35 22/11/35 2/9/35
f 152/21/15 151/38/15 29/38/15 30/21/15
f 138/6/18 129/67/18 7/67/18 16/6/18
f 138/6/36 16/6/36 18/5/36 140/5/36
f 21/12/9 143/12/9 123/10/9 1/10/9
f 29/38/9 151/38/9 153/37/9 31/37/9
f 128/3/37 138/6/37 140/5/37 139/4/37
f 130/7/14 123/10/14 124/9/14 162/8/14
f 123/10/14 143/12/14 144/11/14 124/9/14
f 123/10/14 130/7/14 164/14/14 135/13/14
f 168/15/14 169/18/14 167/17/14 145/16/14
f 167/17/14 169/18/14 142/20/14 166/19/14
f 152/21/14 126/24/14 163/23/14 158/22/14
f 162/8/14 124/9/14 149/26/14 159/25/14
f 145/16/14 144/11/14 143/12/14 168/15/14
f 126/24/14 148/27/14 164/14/14 163/23/14
f 131/28/14 125/31/14 165/30/14 147/29/14
f 132/1/14 161/33/14 146/32/14 154/2/14
f 157/34/14 153/37/14 156/36/14 155/35/14
f 151/38/14 152/21/14 158/22/14 150/39/38
f 165/30/14 157/34/14 155/35/14 147/29/14
f 142/20/14 154/2/14 146/32/14 166/19/14
f 148/27/14 136/48/14 135/13/14 164/14/14
f 136/48/14 148/27/14 125/31/14 172/44/14
f 131/28/14 137/45/14 172/44/14 125/31/14
f 174/49/14 150/39/38 160/51/14 173/50/14
f 178/52/14 133/42/14 170/47/14 179/53/14
f 176/54/14 153/37/14 151/38/14 175/55/14
f 180/56/14 171/46/14 134/41/14 181/57/14
f 181/61/14 242/60/14 238/59/14 177/58/14
f 177/64/14 238/63/14 217/62/14 156/36/14
f 129/65/9 127/66/9 123/10/9 135/13/9
f 128/3/14 127/68/14 129/67/14 138/6/14
f 153/37/14 176/54/14 177/64/14 156/36/14
f 180/72/14 176/75/14 175/74/14 179/73/14
f 150/39/38 174/49/14 175/55/14 151/38/14
f 178/76/14 174/79/14 173/78/14 182/77/14
f 159/25/14 149/26/14 173/50/14 160/51/14
f 133/42/14 178/52/14 182/80/14 141/43/14
f 171/46/14 180/56/14 179/53/14 170/47/14
f 176/75/14 180/72/14 181/61/14 177/58/14
f 174/79/14 178/76/14 179/73/14 175/74/14
f 149/83/14 183/84/14 182/77/14 173/78/14
f 149/26/14 161/33/14 132/1/14 183/85/14
f 132/1/14 141/43/14 182/80/14 183/85/14
f 131/28/6 9/28/6 70/71/6 192/71/6
f 189/89/37 200/92/37 201/91/37 199/90/37
f 191/93/14 223/95/14 185/82/14 184/94/14
f 184/94/14 185/82/14 205/97/14 204/96/14
f 184/94/14 196/99/14 225/98/14 191/93/14
f 229/100/14 206/103/14 228/102/14 230/101/14
f 228/102/14 227/105/14 203/104/14 230/101/14
f 213/106/14 219/109/14 224/108/14 187/107/14
f 223/95/14 220/110/14 210/81/14 185/82/14
f 206/103/14 229/100/14 204/96/14 205/97/14
f 187/107/14 224/108/14 225/98/14 209/111/14
f 192/71/14 208/114/39 226/113/39 186/112/14
f 193/87/14 215/86/14 207/116/14 222/115/14
f 218/117/38 216/119/38 217/62/14 214/118/14
f 212/120/14 211/121/14 219/109/14 213/106/14
f 226/113/39 208/114/39 216/119/38 218/117/38
f 203/104/14 227/105/14 207/116/14 215/86/14
f 209/111/14 225/98/14 196/99/14 197/126/14
f 197/126/14 233/124/14 186/112/14 209/111/14
f 192/71/14 186/112/14 233/124/14 198/70/14
f 235/127/14 234/129/14 221/128/14 211/121/14
f 239/130/14 240/131/14 231/125/14 194/123/14
f 237/132/14 236/133/14 212/120/14 214/118/14
f 241/134/14 242/69/14 195/40/14 232/88/14
f 190/135/9 196/99/9 184/94/9 188/136/9
f 189/89/14 199/90/14 190/138/14 188/137/14
f 214/118/14 217/62/14 238/63/14 237/132/14
f 241/139/14 240/142/14 236/141/14 237/140/14
f 211/121/14 212/120/14 236/133/14 235/127/14
f 239/143/14 243/146/14 234/145/14 235/144/14
f 220/110/14 221/128/14 234/129/14 210/81/14
f 194/123/14 202/122/14 243/147/14 239/130/14
f 232/88/14 231/125/14 240/131/14 241/134/14
f 237/140/14 238/59/14 242/60/14 241/139/14
f 235/144/14 236/141/14 240/142/14 239/143/14
f 210/148/14 234/145/14 243/146/14 244/149/14
f 210/81/14 244/150/14 193/87/14 222/115/14
f 193/87/14 244/150/14 243/147/14 202/122/14
f 59/57/3 120/69/3 73/40/3 12/41/3
f 79/91/9 201/91/9 200/92/9 78/92/9
