# Blender 5.1.0
# www.blender.org
mtllib barriere55_097.mtl
o barriere55.097
v 50.763950 0.406543 17.305511
v 50.765247 0.597167 17.368677
v 50.751965 0.643227 16.721972
v 50.755104 0.684294 16.874743
v 50.751026 0.406543 17.265326
v 50.751026 0.372826 17.265326
v 50.747818 0.406543 17.109089
v 50.760834 0.643227 17.153847
v 50.745735 0.643227 16.418644
v 50.768757 1.574803 17.539581
v 50.759754 1.574800 17.101288
v 50.747173 1.574800 16.488617
v 50.759754 0.406543 17.101288
v 50.755562 0.406543 16.897064
v 50.747173 0.406543 16.488617
v 50.747818 0.372826 17.109089
v 50.956871 0.224802 17.291697
v 50.952366 0.224802 17.072229
v 50.765247 1.574800 17.368675
v 50.771496 1.411594 17.673113
v 50.766422 0.406543 17.426022
v 50.767063 0.558042 17.457176
v 50.768383 0.558042 17.521450
v 50.768383 1.334637 17.521450
v 50.747555 0.684294 16.507143
v 50.753284 0.643227 16.786245
v 50.765247 1.295512 17.368675
v 50.759514 1.249448 17.089573
v 50.753284 1.249448 16.786245
v 50.755104 1.208382 16.874743
v 50.751965 1.249448 16.721972
v 50.770611 1.519066 17.629932
v 50.747555 1.208382 16.507143
v 50.745735 1.249448 16.418644
v 50.750149 1.208382 16.633471
v 50.757698 1.208382 17.001074
v 50.762653 1.208382 17.242346
v 50.760834 1.249451 17.153847
v 50.767063 1.334637 17.457176
v 50.762653 0.684294 17.242346
v 50.757698 0.684294 17.001074
v 50.759514 0.643227 17.089573
v 50.750149 0.684294 16.633471
v 50.770199 1.295509 17.609949
v 50.770199 0.597167 17.609949
v 50.769569 0.442268 17.579315
v 50.771496 0.546413 17.673113
v 50.755562 1.574800 16.897064
v 50.751366 1.574800 16.692841
v 50.751366 0.406543 16.692841
v 50.761276 1.295512 17.175320
v 50.759548 1.295512 17.091232
v 50.753609 1.295512 16.801935
v 50.751881 1.295512 16.717848
v 50.745941 1.295512 16.428551
v 50.759712 1.514731 17.099125
v 50.755142 1.514731 16.876604
v 50.751476 1.514731 16.698219
v 50.746906 1.514731 16.475698
v 50.764393 1.514732 17.327089
v 50.765247 1.514732 17.368675
v 50.726215 0.406543 15.467954
v 50.724915 0.597167 15.404789
v 50.738197 0.643227 16.051495
v 50.735058 0.684294 15.898723
v 50.714951 0.406543 15.508636
v 50.714951 0.372826 15.508636
v 50.718159 0.406543 15.664873
v 50.729328 0.643227 15.619618
v 50.744427 0.643227 16.354822
v 50.721405 1.574803 15.233885
v 50.730408 1.574800 15.672177
v 50.742989 1.574800 16.284847
v 50.730408 0.406543 15.672177
v 50.734600 0.406543 15.876401
v 50.742989 0.406543 16.284847
v 50.718159 0.372826 15.664873
v 50.919540 0.224802 15.473836
v 50.924049 0.224802 15.693305
v 50.724915 1.574800 15.404790
v 50.718666 1.411594 15.100352
v 50.723740 0.406543 15.347444
v 50.723099 0.558042 15.316289
v 50.721779 0.558042 15.252016
v 50.721779 1.334637 15.252016
v 50.742607 0.684294 16.266323
v 50.736877 0.643227 15.987220
v 50.724915 1.295512 15.404790
v 50.730648 1.249448 15.683892
v 50.736877 1.249448 15.987220
v 50.735058 1.208382 15.898723
v 50.738197 1.249448 16.051495
v 50.719551 1.519066 15.143532
v 50.742607 1.208382 16.266323
v 50.744427 1.249448 16.354822
v 50.740013 1.208382 16.139996
v 50.732464 1.208382 15.772390
v 50.727512 1.208382 15.531119
v 50.729328 1.249451 15.619618
v 50.723099 1.334637 15.316289
v 50.727512 0.684294 15.531119
v 50.732464 0.684294 15.772390
v 50.730648 0.643227 15.683892
v 50.740013 0.684294 16.139996
v 50.719963 1.295509 15.163517
v 50.719963 0.597167 15.163517
v 50.720592 0.442268 15.194150
v 50.718666 0.546413 15.100352
v 50.734600 1.574800 15.876401
v 50.738796 1.574800 16.080624
v 50.738796 0.406543 16.080624
v 50.728886 1.295512 15.598146
v 50.730614 1.295512 15.682234
v 50.736553 1.295512 15.971530
v 50.738281 1.295512 16.055618
v 50.744221 1.295512 16.344915
v 50.730453 1.514731 15.674340
v 50.735020 1.514731 15.896861
v 50.738686 1.514731 16.075247
v 50.743256 1.514731 16.297768
v 50.725769 1.514732 15.446377
v 50.724915 1.514732 15.404790
v 50.673527 0.406543 17.307369
v 50.674828 0.597167 17.370533
v 50.661545 0.643227 16.723827
v 50.664684 0.684294 16.876598
v 50.684792 0.406543 17.266685
v 50.684792 0.372826 17.266685
v 50.681583 0.406543 17.110449
v 50.670414 0.643227 17.155704
v 50.655315 0.643227 16.420500
v 50.678333 1.574803 17.541437
v 50.669334 1.574800 17.103146
v 50.656754 1.574800 16.490475
v 50.669334 0.406543 17.103146
v 50.665142 0.406543 16.898922
v 50.656754 0.406543 16.490475
v 50.681583 0.372826 17.110449
v 50.480202 0.224802 17.301487
v 50.475693 0.224802 17.082018
v 50.674824 1.574800 17.370531
v 50.681076 1.411594 17.674971
v 50.676003 0.406543 17.427879
v 50.676643 0.558042 17.459034
v 50.677963 0.558042 17.523306
v 50.677963 1.334637 17.523306
v 50.657135 0.684294 16.508999
v 50.662865 0.643227 16.788101
v 50.674824 1.295512 17.370531
v 50.669094 1.249448 17.091431
v 50.662865 1.249448 16.788101
v 50.664684 1.208382 16.876598
v 50.661545 1.249448 16.723827
v 50.680191 1.519066 17.631790
v 50.657135 1.208382 16.508999
v 50.655315 1.249448 16.420500
v 50.659729 1.208382 16.635326
v 50.667278 1.208382 17.002932
v 50.672230 1.208382 17.244202
v 50.670414 1.249451 17.155704
v 50.676643 1.334637 17.459034
v 50.672230 0.684294 17.244202
v 50.667278 0.684294 17.002932
v 50.669094 0.643227 17.091431
v 50.659729 0.684294 16.635326
v 50.679779 1.295509 17.611805
v 50.679779 0.597167 17.611805
v 50.679150 0.442268 17.581171
v 50.681076 0.546413 17.674971
v 50.665142 1.574800 16.898922
v 50.660946 1.574800 16.694698
v 50.660946 0.406543 16.694698
v 50.670856 1.295512 17.177176
v 50.669128 1.295512 17.093088
v 50.663189 1.295512 16.803791
v 50.661461 1.295512 16.719704
v 50.655521 1.295512 16.430407
v 50.669289 1.514731 17.100983
v 50.664722 1.514731 16.878462
v 50.661057 1.514731 16.700075
v 50.656487 1.514731 16.477554
v 50.673973 1.514732 17.328945
v 50.674824 1.514732 17.370531
v 50.635792 0.406543 15.469810
v 50.634495 0.597167 15.406646
v 50.647778 0.643227 16.053350
v 50.644638 0.684294 15.900579
v 50.648716 0.406543 15.509996
v 50.648716 0.372826 15.509996
v 50.651924 0.406543 15.666234
v 50.638908 0.643227 15.621475
v 50.654007 0.643227 16.356678
v 50.630985 1.574803 15.235742
v 50.639988 1.574800 15.674034
v 50.652569 1.574800 16.286705
v 50.639988 0.406543 15.674034
v 50.644180 0.406543 15.878258
v 50.652569 0.406543 16.286705
v 50.651924 0.372826 15.666234
v 50.442871 0.224802 15.483624
v 50.447376 0.224802 15.703094
v 50.634495 1.574800 15.406647
v 50.628246 1.411594 15.102209
v 50.633320 0.406543 15.349300
v 50.632679 0.558042 15.318146
v 50.631359 0.558042 15.253873
v 50.631359 1.334637 15.253873
v 50.652187 0.684294 16.268179
v 50.646458 0.643227 15.989077
v 50.634495 1.295512 15.406647
v 50.640228 1.249448 15.685749
v 50.646458 1.249448 15.989077
v 50.644638 1.208382 15.900579
v 50.647778 1.249448 16.053350
v 50.629131 1.519066 15.145389
v 50.652187 1.208382 16.268179
v 50.654007 1.249448 16.356678
v 50.649593 1.208382 16.141851
v 50.642044 1.208382 15.774247
v 50.637089 1.208382 15.532976
v 50.638908 1.249451 15.621475
v 50.632679 1.334637 15.318146
v 50.637089 0.684294 15.532976
v 50.642044 0.684294 15.774247
v 50.640228 0.643227 15.685749
v 50.649593 0.684294 16.141851
v 50.629543 1.295509 15.165373
v 50.629543 0.597167 15.165373
v 50.630169 0.442268 15.196007
v 50.628246 0.546413 15.102209
v 50.644180 1.574800 15.878258
v 50.648376 1.574800 16.082481
v 50.648376 0.406543 16.082481
v 50.638466 1.295512 15.600003
v 50.640194 1.295512 15.684091
v 50.646133 1.295512 15.973387
v 50.647861 1.295512 16.057474
v 50.653801 1.295512 16.346771
v 50.640030 1.514731 15.676197
v 50.644600 1.514731 15.898718
v 50.648266 1.514731 16.077103
v 50.652836 1.514731 16.299623
v 50.635349 1.514732 15.448234
v 50.634495 1.514732 15.406647
vn 0.0108 0.8511 0.5248
vn 0.5848 0.8111 -0.0120
vn 0.9998 -0.0000 -0.0205
vn 0.9998 -0.0001 -0.0205
vn 0.9998 0.0001 -0.0205
vn -0.0000 1.0000 -0.0000
vn 0.0047 -0.9739 0.2269
vn 0.0153 -0.6693 0.7428
vn -0.0000 -1.0000 -0.0000
vn 0.0205 -0.0000 0.9998
vn 0.0191 0.3729 0.9277
vn 0.0201 0.2024 0.9791
vn -0.0086 0.9071 -0.4208
vn -0.9998 0.0001 0.0205
vn -0.9998 -0.0000 0.0205
vn -0.0086 -0.9071 -0.4208
vn 0.0086 -0.9071 0.4207
vn -0.0205 -0.0000 -0.9998
vn 0.0086 0.9071 0.4208
vn 0.0086 -0.9071 0.4208
vn -0.0108 0.8511 -0.5248
vn 0.9998 -0.0000 -0.0206
vn -0.0047 -0.9739 -0.2269
vn -0.0153 -0.6693 -0.7428
vn -0.0190 0.3729 -0.9277
vn -0.0201 0.2024 -0.9791
vn -0.0083 -0.9146 -0.4042
vn 0.0083 -0.9146 0.4042
vn 0.0083 0.9146 0.4042
vn -0.0083 0.9146 -0.4042
vn 0.0200 0.2154 0.9763
vn -0.0086 -0.9071 -0.4207
vn -0.0200 0.2154 -0.9763
vn -0.5848 0.8111 0.0120
vn -0.9998 -0.0001 0.0205
vt 0.563424 0.076340
vt 0.553130 0.073518
vt 0.930572 0.423953
vt 0.921307 0.379121
vt 0.987792 0.379121
vt 0.977903 0.423953
vt 0.607372 0.029178
vt 0.597289 0.031257
vt 0.582896 0.026846
vt 0.590093 0.017196
vt 0.572813 0.024865
vt 0.576362 0.017196
vt 0.613360 0.017196
vt 0.614695 0.029178
vt 0.558897 0.019004
vt 0.565490 0.024865
vt 0.555407 0.026846
vt 0.548211 0.024277
vt 0.555407 0.062200
vt 0.548211 0.068077
vt 0.639171 0.057790
vt 0.624778 0.057790
vt 0.624778 0.031257
vt 0.639171 0.031257
vt 0.597289 0.057790
vt 0.582896 0.062201
vt 0.649254 0.029178
vt 0.691136 0.029178
vt 0.681053 0.031257
vt 0.666660 0.031257
vt 0.656577 0.029178
vt 0.565490 0.064181
vt 0.572813 0.064181
vt 0.666660 0.057790
vt 0.681053 0.057790
vt 0.691136 0.059869
vt 0.656577 0.059869
vt 0.649254 0.059869
vt 0.614695 0.059869
vt 0.706379 0.076340
vt 0.683164 0.076340
vt 0.613360 0.076340
vt 0.582896 0.076340
vt 0.659896 0.017196
vt 0.683164 0.017196
vt 0.659896 0.076340
vt 0.636628 0.076340
vt 0.636628 0.017196
vt 0.614506 0.062201
vt 0.604926 0.062201
vt 0.607372 0.059869
vt 0.613607 0.073299
vt 0.638959 0.073299
vt 0.657047 0.062201
vt 0.647466 0.062201
vt 0.659283 0.073299
vt 0.684635 0.073299
vt 0.688839 0.081258
vt 0.699816 0.081258
vt 0.706005 0.126709
vt 0.682651 0.126709
vt 0.698407 0.059869
vt 0.699536 0.062201
vt 0.690007 0.062201
vt 0.612500 0.017196
vt 0.594699 0.017196
vt 0.977903 0.434165
vt 0.930572 0.434165
vt 0.704907 0.073299
vt 0.706379 0.017196
vt 0.698407 0.029178
vt 0.653445 0.126709
vt 0.630032 0.126709
vt 0.639832 0.081258
vt 0.650869 0.081258
vt 0.600826 0.126709
vt 0.570905 0.126710
vt 0.590825 0.081258
vt 0.601862 0.081258
vt 0.587634 0.073299
vt 0.806647 0.062201
vt 0.806647 0.026846
vt 0.565447 0.081258
vt 0.565447 0.126710
vt 0.582896 0.073299
vt 0.836413 0.073518
vt 0.826118 0.076340
vt 0.729647 0.076340
vt 0.978547 0.423953
vt 0.931216 0.423953
vt 0.921327 0.379121
vt 0.987812 0.379121
vt 0.782171 0.029178
vt 0.799450 0.017196
vt 0.792254 0.031257
vt 0.813181 0.017196
vt 0.816730 0.024865
vt 0.774848 0.029178
vt 0.776183 0.017196
vt 0.830646 0.019004
vt 0.841332 0.024277
vt 0.834136 0.026846
vt 0.824053 0.024865
vt 0.841332 0.068077
vt 0.834136 0.062200
vt 0.750372 0.057790
vt 0.750372 0.031257
vt 0.764765 0.031257
vt 0.764765 0.057790
vt 0.792254 0.057790
vt 0.740289 0.029178
vt 0.732966 0.029178
vt 0.722883 0.031257
vt 0.708490 0.031257
vt 0.816730 0.064181
vt 0.824053 0.064181
vt 0.722883 0.057790
vt 0.732966 0.059869
vt 0.708490 0.057790
vt 0.740289 0.059869
vt 0.774848 0.059869
vt 0.806647 0.076340
vt 0.776183 0.076340
vt 0.729647 0.017196
vt 0.752915 0.076340
vt 0.752915 0.017196
vt 0.775037 0.062201
vt 0.782171 0.059869
vt 0.784617 0.062201
vt 0.775936 0.073299
vt 0.750584 0.073299
vt 0.732496 0.062201
vt 0.742077 0.062201
vt 0.730260 0.073299
vt 0.777043 0.017196
vt 0.794844 0.017196
vt 0.978547 0.434165
vt 0.931216 0.434165
vt 0.735211 0.126709
vt 0.737787 0.081258
vt 0.748824 0.081258
vt 0.758624 0.126709
vt 0.787830 0.126709
vt 0.786794 0.081258
vt 0.797831 0.081258
vt 0.817751 0.126710
vt 0.801909 0.073299
vt 0.823209 0.081258
vt 0.823209 0.126710
vt 0.806647 0.073299
s 1
usemtl initialShadingGroup.004
f 10/1/1 132/1/1 154/2/1 32/2/1
f 6/3/2 17/4/2 18/5/2 16/6/2
f 8/7/3 40/8/3 2/9/3 1/10/3
f 1/10/3 2/9/3 22/11/3 21/12/3
f 1/10/3 13/13/3 42/14/3 8/7/3
f 46/15/3 23/16/3 45/17/3 47/18/3
f 45/17/3 44/19/3 20/20/3 47/18/3
f 30/21/3 36/22/3 41/23/4 4/24/4
f 40/8/3 37/25/3 27/26/3 2/9/3
f 23/16/3 46/15/3 21/12/3 22/11/3
f 4/24/4 41/23/4 42/14/3 26/27/3
f 9/28/3 25/29/4 43/30/4 3/31/3
f 10/1/3 32/2/3 24/32/3 39/33/3
f 35/34/5 33/35/5 34/36/3 31/37/3
f 29/38/5 28/39/5 36/22/3 30/21/3
f 43/30/4 25/29/4 33/35/5 35/34/5
f 73/40/6 195/40/6 134/41/6 12/41/6
f 46/15/7 168/15/7 143/12/7 21/12/7
f 11/42/6 133/42/6 141/43/6 19/43/6
f 47/18/8 169/18/8 168/15/8 46/15/8
f 50/44/9 172/44/9 137/45/9 15/45/9
f 19/43/6 141/43/6 132/1/6 10/1/6
f 20/20/3 44/19/3 24/32/3 32/2/3
f 49/46/6 171/46/6 170/47/6 48/47/6
f 26/27/3 42/14/3 13/13/3 14/48/3
f 14/48/3 50/44/3 3/31/3 26/27/3
f 9/28/3 3/31/3 50/44/3 15/45/3
f 52/49/3 51/50/3 38/51/5 28/39/5
f 56/52/3 57/53/3 48/47/3 11/42/3
f 54/54/3 53/55/3 29/38/5 31/37/3
f 58/56/3 59/57/3 12/41/3 49/46/3
f 55/58/3 116/59/3 120/60/3 59/61/3
f 13/13/9 135/13/9 136/48/9 14/48/9
f 20/20/10 142/20/10 169/18/10 47/18/10
f 34/36/3 95/62/3 116/63/3 55/64/3
f 48/47/6 170/47/6 133/42/6 11/42/6
f 32/2/11 154/2/11 142/20/11 20/20/11
f 14/48/9 136/48/9 172/44/9 50/44/9
f 7/65/9 13/13/9 1/10/9 5/66/9
f 6/3/3 16/6/3 7/67/3 5/68/3
f 139/4/12 17/4/12 6/3/12 128/3/12
f 5/68/10 127/68/10 128/3/10 6/3/10
f 7/65/9 129/65/9 135/13/9 13/13/9
f 1/10/9 123/10/9 127/66/9 5/66/9
f 3/31/6 125/31/6 148/27/6 26/27/6
f 26/27/13 148/27/13 126/24/13 4/24/13
f 134/41/14 195/40/14 242/69/15 181/57/15
f 156/36/9 217/62/9 95/62/9 34/36/9
f 33/35/16 155/35/16 156/36/16 34/36/16
f 37/25/16 159/25/16 160/51/16 38/51/16
f 31/37/17 153/37/17 157/34/17 35/34/17
f 25/29/18 147/29/18 155/35/18 33/35/18
f 9/28/13 131/28/13 147/29/13 25/29/13
f 4/24/18 126/24/18 152/21/18 30/21/18
f 8/7/13 130/7/13 162/8/13 40/8/13
f 40/8/18 162/8/18 159/25/18 37/25/18
f 43/30/19 165/30/19 125/31/19 3/31/19
f 38/51/9 160/51/9 150/39/9 28/39/9
f 76/70/3 70/71/3 9/28/3 15/45/3
f 36/22/10 158/22/10 163/23/10 41/23/10
f 35/34/10 157/34/10 165/30/10 43/30/10
f 42/14/6 164/14/6 130/7/6 8/7/6
f 28/39/20 150/39/20 158/22/20 36/22/20
f 31/37/3 34/36/3 55/64/3 54/54/3
f 58/72/3 57/73/3 53/74/3 54/75/3
f 28/39/5 29/38/5 53/55/3 52/49/3
f 56/76/3 60/77/3 51/78/3 52/79/3
f 37/25/3 38/51/5 51/50/3 27/26/3
f 11/42/3 19/43/3 60/80/3 56/52/3
f 49/46/3 48/47/3 57/53/3 58/56/3
f 210/81/18 88/81/18 63/82/18 185/82/18
f 54/75/3 55/58/3 59/61/3 58/72/3
f 52/79/3 53/74/3 57/73/3 56/76/3
f 27/83/3 51/78/3 60/77/3 61/84/3
f 27/26/3 61/85/3 10/1/3 39/33/3
f 10/1/3 61/85/3 60/80/3 19/43/3
f 12/41/6 134/41/6 171/46/6 49/46/6
f 41/23/19 163/23/19 164/14/19 42/14/19
f 15/45/9 137/45/9 198/70/9 76/70/9
f 93/86/21 215/86/21 193/87/21 71/87/21
f 110/88/6 232/88/6 195/40/6 73/40/6
f 67/89/2 77/90/2 79/91/2 78/92/2
f 69/93/3 62/94/3 63/82/3 101/95/22
f 62/94/3 82/96/3 83/97/3 63/82/3
f 62/94/3 69/93/3 103/98/3 74/99/3
f 107/100/3 108/101/3 106/102/3 84/103/3
f 106/102/3 108/101/3 81/104/3 105/105/3
f 91/106/4 65/107/5 102/108/5 97/109/4
f 101/95/22 63/82/3 88/81/3 98/110/3
f 84/103/3 83/97/3 82/96/3 107/100/3
f 65/107/5 87/111/3 103/98/3 102/108/5
f 70/71/3 64/112/3 104/113/3 86/114/3
f 71/87/3 100/115/3 85/116/3 93/86/3
f 96/117/3 92/118/3 95/62/3 94/119/3
f 90/120/3 91/106/4 97/109/4 89/121/5
f 104/113/3 96/117/3 94/119/3 86/114/3
f 198/70/15 137/45/15 131/28/15 192/71/15
f 82/96/23 204/96/23 229/100/23 107/100/23
f 80/122/6 202/122/6 194/123/6 72/123/6
f 107/100/24 229/100/24 230/101/24 108/101/24
f 76/70/9 198/70/9 233/124/9 111/124/9
f 71/87/6 193/87/6 202/122/6 80/122/6
f 81/104/3 93/86/3 85/116/3 105/105/3
f 109/125/6 231/125/6 232/88/6 110/88/6
f 87/111/3 75/126/3 74/99/3 103/98/3
f 75/126/3 87/111/3 64/112/3 111/124/3
f 70/71/3 76/70/3 111/124/3 64/112/3
f 113/127/3 89/121/5 99/128/3 112/129/3
f 117/130/3 72/123/3 109/125/3 118/131/3
f 115/132/3 92/118/3 90/120/3 114/133/3
f 119/134/3 110/88/3 73/40/3 120/69/3
f 75/126/9 197/126/9 196/99/9 74/99/9
f 108/101/18 230/101/18 203/104/18 81/104/18
f 72/123/6 194/123/6 231/125/6 109/125/6
f 103/98/13 225/98/13 224/108/13 102/108/13
f 81/104/25 203/104/25 215/86/25 93/86/25
f 111/124/9 233/124/9 197/126/9 75/126/9
f 68/135/9 66/136/9 62/94/9 74/99/9
f 67/89/3 66/137/3 68/138/3 77/90/3
f 200/92/26 189/89/26 67/89/26 78/92/26
f 67/89/18 189/89/18 188/137/18 66/137/18
f 74/99/9 196/99/9 190/135/9 68/135/9
f 66/136/9 188/136/9 184/94/9 62/94/9
f 87/111/6 209/111/6 186/112/6 64/112/6
f 65/107/19 187/107/19 209/111/19 87/111/19
f 97/109/16 219/109/16 211/121/16 89/121/16
f 95/62/20 217/62/20 216/119/20 94/119/20
f 99/128/20 221/128/20 220/110/20 98/110/20
f 96/117/16 218/117/16 214/118/16 92/118/16
f 94/119/10 216/119/10 208/114/10 86/114/10
f 86/114/19 208/114/19 192/71/19 70/71/19
f 91/106/10 213/106/10 187/107/10 65/107/10
f 101/95/19 223/95/19 191/93/19 69/93/19
f 98/110/10 220/110/10 223/95/10 101/95/10
f 64/112/13 186/112/13 226/113/13 104/113/13
f 89/121/9 211/121/9 221/128/9 99/128/9
f 102/108/18 224/108/18 219/109/18 97/109/18
f 104/113/18 226/113/18 218/117/18 96/117/18
f 69/93/6 191/93/6 225/98/6 103/98/6
f 92/118/3 115/132/3 116/63/3 95/62/3
f 119/139/3 115/140/3 114/141/3 118/142/3
f 89/121/5 113/127/3 114/133/3 90/120/3
f 117/143/3 113/144/3 112/145/3 121/146/3
f 98/110/3 88/81/3 112/129/3 99/128/3
f 72/123/3 117/130/3 121/147/3 80/122/3
f 110/88/3 119/134/3 118/131/3 109/125/3
f 115/140/3 119/139/3 120/60/3 116/59/3
f 113/144/3 117/143/3 118/142/3 114/141/3
f 88/148/3 122/149/3 121/146/3 112/145/3
f 88/81/3 100/115/3 71/87/3 122/150/3
f 71/87/3 80/122/3 121/147/3 122/150/3
f 17/4/9 139/4/9 140/5/9 18/5/9
f 149/26/10 124/9/10 2/9/10 27/26/10
f 222/115/27 100/115/27 88/81/27 210/81/27
f 222/115/9 207/116/9 85/116/9 100/115/9
f 207/116/28 227/105/28 105/105/28 85/116/28
f 227/105/10 228/102/10 106/102/10 105/105/10
f 206/103/29 84/103/29 106/102/29 228/102/29
f 206/103/6 205/97/6 83/97/6 84/103/6
f 185/82/30 63/82/30 83/97/30 205/97/30
f 213/106/17 91/106/17 90/120/17 212/120/17
f 199/90/10 77/90/10 68/138/10 190/138/10
f 199/90/31 201/91/31 79/91/31 77/90/31
f 62/94/9 184/94/9 204/96/9 82/96/9
f 92/118/9 214/118/9 212/120/9 90/120/9
f 161/33/28 149/26/28 27/26/28 39/33/28
f 161/33/9 39/33/9 24/32/9 146/32/9
f 146/32/27 24/32/27 44/19/27 166/19/27
f 166/19/18 44/19/18 45/17/18 167/17/18
f 145/16/30 167/17/30 45/17/30 23/16/30
f 145/16/6 23/16/6 22/11/6 144/11/6
f 124/9/29 144/11/29 22/11/29 2/9/29
f 152/21/32 151/38/32 29/38/32 30/21/32
f 138/6/18 129/67/18 7/67/18 16/6/18
f 138/6/33 16/6/33 18/5/33 140/5/33
f 21/12/9 143/12/9 123/10/9 1/10/9
f 29/38/9 151/38/9 153/37/9 31/37/9
f 128/3/34 138/6/34 140/5/34 139/4/34
f 130/7/15 123/10/15 124/9/15 162/8/15
f 123/10/15 143/12/15 144/11/15 124/9/15
f 123/10/15 130/7/15 164/14/15 135/13/15
f 168/15/15 169/18/15 167/17/15 145/16/15
f 167/17/15 169/18/15 142/20/15 166/19/15
f 152/21/35 126/24/14 163/23/14 158/22/35
f 162/8/15 124/9/15 149/26/15 159/25/15
f 145/16/15 144/11/15 143/12/15 168/15/15
f 126/24/14 148/27/15 164/14/15 163/23/14
f 131/28/15 125/31/15 165/30/15 147/29/15
f 132/1/15 161/33/15 146/32/15 154/2/15
f 157/34/15 153/37/15 156/36/15 155/35/15
f 151/38/15 152/21/35 158/22/35 150/39/14
f 165/30/15 157/34/15 155/35/15 147/29/15
f 142/20/15 154/2/15 146/32/15 166/19/15
f 148/27/15 136/48/15 135/13/15 164/14/15
f 136/48/15 148/27/15 125/31/15 172/44/15
f 131/28/15 137/45/15 172/44/15 125/31/15
f 174/49/15 150/39/14 160/51/15 173/50/15
f 178/52/15 133/42/15 170/47/15 179/53/15
f 176/54/15 153/37/15 151/38/15 175/55/15
f 180/56/15 171/46/14 134/41/14 181/57/15
f 181/61/15 242/60/15 238/59/15 177/58/15
f 177/64/15 238/63/15 217/62/15 156/36/15
f 129/65/9 127/66/9 123/10/9 135/13/9
f 128/3/15 127/68/15 129/67/15 138/6/15
f 153/37/15 176/54/15 177/64/15 156/36/15
f 180/72/15 176/75/15 175/74/15 179/73/15
f 150/39/14 174/49/15 175/55/15 151/38/15
f 178/76/15 174/79/15 173/78/15 182/77/15
f 159/25/15 149/26/15 173/50/15 160/51/15
f 133/42/15 178/52/15 182/80/15 141/43/15
f 171/46/14 180/56/15 179/53/15 170/47/15
f 176/75/15 180/72/15 181/61/15 177/58/15
f 174/79/15 178/76/15 179/73/15 175/74/15
f 149/83/15 183/84/15 182/77/15 173/78/15
f 149/26/15 161/33/15 132/1/15 183/85/15
f 132/1/15 141/43/15 182/80/15 183/85/15
f 131/28/6 9/28/6 70/71/6 192/71/6
f 189/89/34 200/92/34 201/91/34 199/90/34
f 191/93/15 223/95/15 185/82/15 184/94/15
f 184/94/15 185/82/15 205/97/15 204/96/15
f 184/94/15 196/99/15 225/98/15 191/93/15
f 229/100/15 206/103/15 228/102/15 230/101/15
f 228/102/15 227/105/15 203/104/15 230/101/15
f 213/106/15 219/109/15 224/108/15 187/107/15
f 223/95/15 220/110/15 210/81/15 185/82/15
f 206/103/15 229/100/15 204/96/15 205/97/15
f 187/107/15 224/108/15 225/98/15 209/111/15
f 192/71/15 208/114/15 226/113/15 186/112/15
f 193/87/15 215/86/15 207/116/15 222/115/15
f 218/117/14 216/119/14 217/62/15 214/118/15
f 212/120/15 211/121/14 219/109/15 213/106/15
f 226/113/15 208/114/15 216/119/14 218/117/14
f 203/104/15 227/105/15 207/116/15 215/86/15
f 209/111/15 225/98/15 196/99/15 197/126/15
f 197/126/15 233/124/15 186/112/15 209/111/15
f 192/71/15 186/112/15 233/124/15 198/70/15
f 235/127/15 234/129/15 221/128/15 211/121/14
f 239/130/15 240/131/15 231/125/15 194/123/15
f 237/132/15 236/133/15 212/120/15 214/118/15
f 241/134/15 242/69/15 195/40/14 232/88/15
f 190/135/9 196/99/9 184/94/9 188/136/9
f 189/89/15 199/90/15 190/138/15 188/137/15
f 214/118/15 217/62/15 238/63/15 237/132/15
f 241/139/15 240/142/15 236/141/15 237/140/15
f 211/121/14 212/120/15 236/133/15 235/127/15
f 239/143/15 243/146/15 234/145/15 235/144/15
f 220/110/15 221/128/15 234/129/15 210/81/15
f 194/123/15 202/122/15 243/147/15 239/130/15
f 232/88/15 231/125/15 240/131/15 241/134/15
f 237/140/15 238/59/15 242/60/15 241/139/15
f 235/144/15 236/141/15 240/142/15 239/143/15
f 210/148/15 234/145/15 243/146/15 244/149/15
f 210/81/15 244/150/15 193/87/15 222/115/15
f 193/87/15 244/150/15 243/147/15 202/122/15
f 59/57/3 120/69/3 73/40/3 12/41/3
f 79/91/9 201/91/9 200/92/9 78/92/9
