# Blender 5.1.0
# www.blender.org
mtllib barriere55_016.mtl
o barriere55.016
v 40.370796 0.406541 -9.331238
v 40.421394 0.597165 -9.369069
v 39.903339 0.643225 -8.981739
v 40.025719 0.684292 -9.073238
v 40.345646 0.406541 -9.297334
v 40.345646 0.372824 -9.297334
v 40.220490 0.406541 -9.203759
v 40.249302 0.643225 -9.240401
v 39.660355 0.643225 -8.800068
v 40.558300 1.574801 -9.471428
v 40.207199 1.574798 -9.208922
v 39.716408 1.574798 -8.841977
v 40.207199 0.406541 -9.208922
v 40.043602 0.406541 -9.086607
v 39.716408 0.406541 -8.841977
v 40.220490 0.372824 -9.203759
v 40.247238 0.224800 -9.480046
v 40.071426 0.224800 -9.348600
v 40.421394 1.574798 -9.369068
v 40.665268 1.411592 -9.551404
v 40.467331 0.406541 -9.403415
v 40.492287 0.558040 -9.422073
v 40.543774 0.558040 -9.460568
v 40.543774 1.334635 -9.460568
v 39.731247 0.684292 -8.853073
v 39.954826 0.643225 -9.020235
v 40.421394 1.295510 -9.369068
v 40.197815 1.249446 -9.201906
v 39.954826 1.249446 -9.020235
v 40.025719 1.208380 -9.073238
v 39.903339 1.249446 -8.981739
v 40.630676 1.519064 -9.525542
v 39.731247 1.208380 -8.853073
v 39.660355 1.249446 -8.800068
v 39.832443 1.208380 -8.928734
v 40.126919 1.208380 -9.148902
v 40.320194 1.208380 -9.293406
v 40.249302 1.249449 -9.240401
v 40.492287 1.334635 -9.422073
v 40.320194 0.684292 -9.293406
v 40.126919 0.684292 -9.148902
v 40.197815 0.643225 -9.201906
v 39.832443 0.684292 -8.928734
v 40.614670 1.295507 -9.513573
v 40.614670 0.597165 -9.513573
v 40.590130 0.442266 -9.495226
v 40.665268 0.546411 -9.551404
v 40.043602 1.574798 -9.086607
v 39.880005 1.574798 -8.964293
v 39.880005 0.406541 -8.964293
v 40.266502 1.295510 -9.253262
v 40.199142 1.295510 -9.202899
v 39.967396 1.295510 -9.029632
v 39.900036 1.295510 -8.979269
v 39.668289 1.295510 -8.806002
v 40.205467 1.514729 -9.207627
v 40.027210 1.514729 -9.074353
v 39.884312 1.514729 -8.967513
v 39.706059 1.514729 -8.834240
v 40.388081 1.514730 -9.344160
v 40.421394 1.514730 -9.369068
v 38.898788 0.406541 -8.230674
v 38.848190 0.597165 -8.192842
v 39.366241 0.643225 -8.580173
v 39.243862 0.684292 -8.488673
v 38.938419 0.406541 -8.245205
v 38.938419 0.372824 -8.245205
v 39.063580 0.406541 -8.338779
v 39.020283 0.643225 -8.321510
v 39.609230 0.643225 -8.761844
v 38.711285 1.574801 -8.090484
v 39.062386 1.574798 -8.352989
v 39.553177 1.574798 -8.719934
v 39.062386 0.406541 -8.352989
v 39.225983 0.406541 -8.475305
v 39.553177 0.406541 -8.719934
v 39.063580 0.372824 -8.338779
v 38.791008 0.224800 -8.391279
v 38.966820 0.224800 -8.522725
v 38.848190 1.574798 -8.192843
v 38.604317 1.411592 -8.010508
v 38.802250 0.406541 -8.158497
v 38.777294 0.558040 -8.139838
v 38.725807 0.558040 -8.101343
v 38.725807 1.334635 -8.101343
v 39.538334 0.684292 -8.708838
v 39.314754 0.643225 -8.541677
v 38.848190 1.295510 -8.192843
v 39.071770 1.249446 -8.360005
v 39.314754 1.249446 -8.541677
v 39.243862 1.208380 -8.488673
v 39.366241 1.249446 -8.580173
v 38.638905 1.519064 -8.036369
v 39.538334 1.208380 -8.708838
v 39.609230 1.249446 -8.761844
v 39.437138 1.208380 -8.633178
v 39.142662 1.208380 -8.413010
v 38.949390 1.208380 -8.268506
v 39.020283 1.249449 -8.321510
v 38.777294 1.334635 -8.139838
v 38.949390 0.684292 -8.268506
v 39.142662 0.684292 -8.413010
v 39.071770 0.643225 -8.360005
v 39.437138 0.684292 -8.633178
v 38.654915 1.295507 -8.048338
v 38.654915 0.597165 -8.048338
v 38.679455 0.442266 -8.066686
v 38.604317 0.546411 -8.010508
v 39.225983 1.574798 -8.475305
v 39.389580 1.574798 -8.597619
v 39.389580 0.406541 -8.597619
v 39.003082 1.295510 -8.308650
v 39.070442 1.295510 -8.359012
v 39.302185 1.295510 -8.532280
v 39.369545 1.295510 -8.582643
v 39.601292 1.295510 -8.755910
v 39.064117 1.514729 -8.354284
v 39.242371 1.514729 -8.487558
v 39.385269 1.514729 -8.594398
v 39.563526 1.514729 -8.727672
v 38.881504 1.514730 -8.217751
v 38.848190 1.514730 -8.192843
v 40.424950 0.406541 -9.258805
v 40.475548 0.597165 -9.296637
v 39.957497 0.643225 -8.909307
v 40.079876 0.684292 -9.000806
v 40.385319 0.406541 -9.244274
v 40.385319 0.372824 -9.244274
v 40.260159 0.406541 -9.150700
v 40.303455 0.643225 -9.167969
v 39.714508 0.643225 -8.727635
v 40.612453 1.574801 -9.398995
v 40.261353 1.574798 -9.136490
v 39.770561 1.574798 -8.769545
v 40.261353 0.406541 -9.136490
v 40.097755 0.406541 -9.014174
v 39.770561 0.406541 -8.769545
v 40.260159 0.372824 -9.150700
v 40.532730 0.224800 -9.098200
v 40.356918 0.224800 -8.966754
v 40.475548 1.574798 -9.296636
v 40.719421 1.411592 -9.478971
v 40.521488 0.406541 -9.330982
v 40.546444 0.558040 -9.349641
v 40.597931 0.558040 -9.388136
v 40.597931 1.334635 -9.388136
v 39.785404 0.684292 -8.780641
v 40.008984 0.643225 -8.947803
v 40.475548 1.295510 -9.296636
v 40.251968 1.249446 -9.129474
v 40.008984 1.249446 -8.947803
v 40.079876 1.208380 -9.000806
v 39.957497 1.249446 -8.909307
v 40.684834 1.519064 -9.453110
v 39.785404 1.208380 -8.780641
v 39.714508 1.249446 -8.727635
v 39.886600 1.208380 -8.856301
v 40.181076 1.208380 -9.076469
v 40.374352 1.208380 -9.220973
v 40.303455 1.249449 -9.167969
v 40.546444 1.334635 -9.349641
v 40.374348 0.684292 -9.220973
v 40.181076 0.684292 -9.076469
v 40.251968 0.643225 -9.129474
v 39.886600 0.684292 -8.856301
v 40.668823 1.295507 -9.441141
v 40.668823 0.597165 -9.441141
v 40.644283 0.442266 -9.422793
v 40.719421 0.546411 -9.478971
v 40.097755 1.574798 -9.014174
v 39.934158 1.574798 -8.891860
v 39.934158 0.406541 -8.891860
v 40.320656 1.295510 -9.180829
v 40.253296 1.295510 -9.130466
v 40.021553 1.295510 -8.957199
v 39.954193 1.295510 -8.906837
v 39.722446 1.295510 -8.733569
v 40.259621 1.514729 -9.135195
v 40.081367 1.514729 -9.001921
v 39.938469 1.514729 -8.895081
v 39.760216 1.514729 -8.761807
v 40.442234 1.514730 -9.271729
v 40.475548 1.514730 -9.296636
v 38.952942 0.406541 -8.158241
v 38.902344 0.597165 -8.120410
v 39.420399 0.643225 -8.507740
v 39.298019 0.684292 -8.416241
v 38.978092 0.406541 -8.192145
v 38.978092 0.372824 -8.192145
v 39.103249 0.406541 -8.285720
v 39.074436 0.643225 -8.249078
v 39.663383 0.643225 -8.689411
v 38.765438 1.574801 -8.018051
v 39.116539 1.574798 -8.280557
v 39.607330 1.574798 -8.647502
v 39.116539 0.406541 -8.280557
v 39.280136 0.406541 -8.402872
v 39.607330 0.406541 -8.647502
v 39.103249 0.372824 -8.285720
v 39.076500 0.224800 -8.009433
v 39.252312 0.224800 -8.140879
v 38.902344 1.574798 -8.120411
v 38.658470 1.411592 -7.938075
v 38.856407 0.406541 -8.086064
v 38.831451 0.558040 -8.067406
v 38.779964 0.558040 -8.028911
v 38.779964 1.334635 -8.028911
v 39.592491 0.684292 -8.636406
v 39.368912 0.643225 -8.469244
v 38.902344 1.295510 -8.120411
v 39.125923 1.249446 -8.287573
v 39.368912 1.249446 -8.469244
v 39.298019 1.208380 -8.416241
v 39.420399 1.249446 -8.507740
v 38.693062 1.519064 -7.963937
v 39.592491 1.208380 -8.636406
v 39.663383 1.249446 -8.689411
v 39.491295 1.208380 -8.560745
v 39.196819 1.208380 -8.340577
v 39.003544 1.208380 -8.196074
v 39.074436 1.249449 -8.249078
v 38.831451 1.334635 -8.067406
v 39.003544 0.684292 -8.196074
v 39.196819 0.684292 -8.340577
v 39.125923 0.643225 -8.287573
v 39.491295 0.684292 -8.560745
v 38.709068 1.295507 -7.975906
v 38.709068 0.597165 -7.975906
v 38.733608 0.442266 -7.994253
v 38.658470 0.546411 -7.938075
v 39.280136 1.574798 -8.402871
v 39.443733 1.574798 -8.525187
v 39.443733 0.406541 -8.525187
v 39.057236 1.295510 -8.236217
v 39.124596 1.295510 -8.286579
v 39.356342 1.295510 -8.459847
v 39.423702 1.295510 -8.510210
v 39.655449 1.295510 -8.683477
v 39.118271 1.514729 -8.281852
v 39.296528 1.514729 -8.415126
v 39.439426 1.514729 -8.521965
v 39.617680 1.514729 -8.655239
v 38.935658 1.514730 -8.145318
v 38.902344 1.514730 -8.120411
vn 0.4204 0.8511 -0.3143
vn -0.3502 0.8111 -0.4685
vn -0.5988 -0.0000 -0.8009
vn -0.5988 0.0001 -0.8009
vn -0.5988 -0.0001 -0.8009
vn -0.0000 1.0000 -0.0000
vn 0.1817 -0.9739 -0.1359
vn 0.5951 -0.6693 -0.4449
vn -0.0000 -1.0000 -0.0000
vn 0.8009 -0.0000 -0.5988
vn 0.7431 0.3729 -0.5556
vn 0.7843 0.2024 -0.5864
vn -0.3371 0.9071 0.2520
vn 0.5988 -0.0000 0.8009
vn -0.3370 -0.9071 0.2520
vn -0.3371 -0.9071 0.2520
vn 0.3370 -0.9071 -0.2520
vn -0.8009 -0.0000 0.5988
vn 0.3370 0.9071 -0.2520
vn 0.3371 -0.9071 -0.2520
vn 0.3371 0.9071 -0.2520
vn -0.4204 0.8511 0.3143
vn -0.1817 -0.9739 0.1359
vn -0.5951 -0.6693 0.4449
vn -0.7431 0.3729 0.5556
vn -0.7843 0.2024 0.5864
vn -0.3370 0.9071 0.2520
vn -0.3238 -0.9146 0.2421
vn 0.3238 -0.9146 -0.2421
vn 0.3238 0.9146 -0.2421
vn -0.3238 0.9146 0.2421
vn 0.7821 0.2154 -0.5847
vn -0.7821 0.2154 0.5847
vn 0.3502 0.8111 0.4685
vn 0.3503 0.8111 0.4685
vt 0.563424 0.076340
vt 0.553130 0.073518
vt 0.930572 0.423953
vt 0.921307 0.379121
vt 0.987792 0.379121
vt 0.977903 0.423953
vt 0.607372 0.029178
vt 0.597289 0.031257
vt 0.582896 0.026846
vt 0.590093 0.017196
vt 0.572813 0.024865
vt 0.576362 0.017196
vt 0.613360 0.017196
vt 0.614695 0.029178
vt 0.558897 0.019004
vt 0.565490 0.024865
vt 0.555407 0.026846
vt 0.548211 0.024277
vt 0.555407 0.062200
vt 0.548211 0.068077
vt 0.639171 0.057790
vt 0.624778 0.057790
vt 0.624778 0.031257
vt 0.639171 0.031257
vt 0.597289 0.057790
vt 0.582896 0.062201
vt 0.649254 0.029178
vt 0.691136 0.029178
vt 0.681053 0.031257
vt 0.666660 0.031257
vt 0.656577 0.029178
vt 0.565490 0.064181
vt 0.572813 0.064181
vt 0.666660 0.057790
vt 0.681053 0.057790
vt 0.691136 0.059869
vt 0.656577 0.059869
vt 0.649254 0.059869
vt 0.614695 0.059869
vt 0.706379 0.076340
vt 0.683164 0.076340
vt 0.613360 0.076340
vt 0.582896 0.076340
vt 0.659896 0.017196
vt 0.683164 0.017196
vt 0.659896 0.076340
vt 0.636628 0.076340
vt 0.636628 0.017196
vt 0.614506 0.062201
vt 0.604926 0.062201
vt 0.607372 0.059869
vt 0.613607 0.073299
vt 0.638959 0.073299
vt 0.657047 0.062201
vt 0.647466 0.062201
vt 0.659283 0.073299
vt 0.684635 0.073299
vt 0.688839 0.081258
vt 0.699816 0.081258
vt 0.706005 0.126709
vt 0.682651 0.126709
vt 0.698407 0.059869
vt 0.699536 0.062201
vt 0.690007 0.062201
vt 0.612500 0.017196
vt 0.594699 0.017196
vt 0.977903 0.434165
vt 0.930572 0.434165
vt 0.704907 0.073299
vt 0.706379 0.017196
vt 0.698407 0.029178
vt 0.653445 0.126709
vt 0.630032 0.126709
vt 0.639832 0.081258
vt 0.650869 0.081258
vt 0.600826 0.126709
vt 0.570905 0.126710
vt 0.590825 0.081258
vt 0.601862 0.081258
vt 0.587634 0.073299
vt 0.806647 0.062201
vt 0.806647 0.026846
vt 0.565447 0.081258
vt 0.565447 0.126710
vt 0.582896 0.073299
vt 0.836413 0.073518
vt 0.826118 0.076340
vt 0.729647 0.076340
vt 0.978547 0.423953
vt 0.931216 0.423953
vt 0.921327 0.379121
vt 0.987812 0.379121
vt 0.782171 0.029178
vt 0.799450 0.017196
vt 0.792254 0.031257
vt 0.813181 0.017196
vt 0.816730 0.024865
vt 0.774848 0.029178
vt 0.776183 0.017196
vt 0.830646 0.019004
vt 0.841332 0.024277
vt 0.834136 0.026846
vt 0.824053 0.024865
vt 0.841332 0.068077
vt 0.834136 0.062200
vt 0.750372 0.057790
vt 0.750372 0.031257
vt 0.764765 0.031257
vt 0.764765 0.057790
vt 0.792254 0.057790
vt 0.740289 0.029178
vt 0.732966 0.029178
vt 0.722883 0.031257
vt 0.708490 0.031257
vt 0.816730 0.064181
vt 0.824053 0.064181
vt 0.722883 0.057790
vt 0.732966 0.059869
vt 0.708490 0.057790
vt 0.740289 0.059869
vt 0.774848 0.059869
vt 0.806647 0.076340
vt 0.776183 0.076340
vt 0.729647 0.017196
vt 0.752915 0.076340
vt 0.752915 0.017196
vt 0.775037 0.062201
vt 0.782171 0.059869
vt 0.784617 0.062201
vt 0.775936 0.073299
vt 0.750584 0.073299
vt 0.732496 0.062201
vt 0.742077 0.062201
vt 0.730260 0.073299
vt 0.777043 0.017196
vt 0.794844 0.017196
vt 0.978547 0.434165
vt 0.931216 0.434165
vt 0.735211 0.126709
vt 0.737787 0.081258
vt 0.748824 0.081258
vt 0.758624 0.126709
vt 0.787830 0.126709
vt 0.786794 0.081258
vt 0.797831 0.081258
vt 0.817751 0.126710
vt 0.801909 0.073299
vt 0.823209 0.081258
vt 0.823209 0.126710
vt 0.806647 0.073299
s 1
usemtl initialShadingGroup.004
f 10/1/1 132/1/1 154/2/1 32/2/1
f 6/3/2 17/4/2 18/5/2 16/6/2
f 8/7/3 40/8/3 2/9/3 1/10/3
f 1/10/3 2/9/3 22/11/3 21/12/3
f 1/10/3 13/13/3 42/14/3 8/7/3
f 46/15/3 23/16/3 45/17/3 47/18/3
f 45/17/3 44/19/3 20/20/3 47/18/3
f 30/21/4 36/22/4 41/23/5 4/24/5
f 40/8/3 37/25/3 27/26/3 2/9/3
f 23/16/3 46/15/3 21/12/3 22/11/3
f 4/24/5 41/23/5 42/14/3 26/27/3
f 9/28/3 25/29/3 43/30/3 3/31/3
f 10/1/3 32/2/3 24/32/3 39/33/3
f 35/34/3 33/35/3 34/36/3 31/37/3
f 29/38/3 28/39/3 36/22/4 30/21/4
f 43/30/3 25/29/3 33/35/3 35/34/3
f 73/40/6 195/40/6 134/41/6 12/41/6
f 46/15/7 168/15/7 143/12/7 21/12/7
f 11/42/6 133/42/6 141/43/6 19/43/6
f 47/18/8 169/18/8 168/15/8 46/15/8
f 50/44/9 172/44/9 137/45/9 15/45/9
f 19/43/6 141/43/6 132/1/6 10/1/6
f 20/20/3 44/19/3 24/32/3 32/2/3
f 49/46/6 171/46/6 170/47/6 48/47/6
f 26/27/3 42/14/3 13/13/3 14/48/3
f 14/48/3 50/44/3 3/31/3 26/27/3
f 9/28/3 3/31/3 50/44/3 15/45/3
f 52/49/3 51/50/3 38/51/3 28/39/3
f 56/52/3 57/53/3 48/47/3 11/42/3
f 54/54/3 53/55/3 29/38/3 31/37/3
f 58/56/3 59/57/3 12/41/3 49/46/3
f 55/58/3 116/59/3 120/60/3 59/61/3
f 13/13/9 135/13/9 136/48/9 14/48/9
f 20/20/10 142/20/10 169/18/10 47/18/10
f 34/36/3 95/62/3 116/63/3 55/64/3
f 48/47/6 170/47/6 133/42/6 11/42/6
f 32/2/11 154/2/11 142/20/11 20/20/11
f 14/48/9 136/48/9 172/44/9 50/44/9
f 7/65/9 13/13/9 1/10/9 5/66/9
f 6/3/3 16/6/3 7/67/3 5/68/3
f 139/4/12 17/4/12 6/3/12 128/3/12
f 5/68/10 127/68/10 128/3/10 6/3/10
f 7/65/9 129/65/9 135/13/9 13/13/9
f 1/10/9 123/10/9 127/66/9 5/66/9
f 3/31/6 125/31/6 148/27/6 26/27/6
f 26/27/13 148/27/13 126/24/13 4/24/13
f 134/41/14 195/40/14 242/69/14 181/57/14
f 156/36/9 217/62/9 95/62/9 34/36/9
f 33/35/15 155/35/15 156/36/15 34/36/15
f 37/25/16 159/25/16 160/51/16 38/51/16
f 31/37/17 153/37/17 157/34/17 35/34/17
f 25/29/18 147/29/18 155/35/18 33/35/18
f 9/28/13 131/28/13 147/29/13 25/29/13
f 4/24/18 126/24/18 152/21/18 30/21/18
f 8/7/13 130/7/13 162/8/13 40/8/13
f 40/8/18 162/8/18 159/25/18 37/25/18
f 43/30/19 165/30/19 125/31/19 3/31/19
f 38/51/9 160/51/9 150/39/9 28/39/9
f 76/70/3 70/71/3 9/28/3 15/45/3
f 36/22/10 158/22/10 163/23/10 41/23/10
f 35/34/10 157/34/10 165/30/10 43/30/10
f 42/14/6 164/14/6 130/7/6 8/7/6
f 28/39/20 150/39/20 158/22/20 36/22/20
f 31/37/3 34/36/3 55/64/3 54/54/3
f 58/72/3 57/73/3 53/74/3 54/75/3
f 28/39/3 29/38/3 53/55/3 52/49/3
f 56/76/3 60/77/3 51/78/3 52/79/3
f 37/25/3 38/51/3 51/50/3 27/26/3
f 11/42/3 19/43/3 60/80/3 56/52/3
f 49/46/3 48/47/3 57/53/3 58/56/3
f 210/81/18 88/81/18 63/82/18 185/82/18
f 54/75/3 55/58/3 59/61/3 58/72/3
f 52/79/3 53/74/3 57/73/3 56/76/3
f 27/83/3 51/78/3 60/77/3 61/84/3
f 27/26/3 61/85/3 10/1/3 39/33/3
f 10/1/3 61/85/3 60/80/3 19/43/3
f 12/41/6 134/41/6 171/46/6 49/46/6
f 41/23/21 163/23/21 164/14/21 42/14/21
f 15/45/9 137/45/9 198/70/9 76/70/9
f 93/86/22 215/86/22 193/87/22 71/87/22
f 110/88/6 232/88/6 195/40/6 73/40/6
f 67/89/2 77/90/2 79/91/2 78/92/2
f 69/93/3 62/94/3 63/82/3 101/95/3
f 62/94/3 82/96/3 83/97/3 63/82/3
f 62/94/3 69/93/3 103/98/3 74/99/3
f 107/100/3 108/101/3 106/102/3 84/103/3
f 106/102/3 108/101/3 81/104/3 105/105/3
f 91/106/3 65/107/3 102/108/3 97/109/3
f 101/95/3 63/82/3 88/81/3 98/110/3
f 84/103/3 83/97/3 82/96/3 107/100/3
f 65/107/3 87/111/3 103/98/3 102/108/3
f 70/71/3 64/112/3 104/113/3 86/114/3
f 71/87/3 100/115/3 85/116/3 93/86/3
f 96/117/3 92/118/3 95/62/3 94/119/3
f 90/120/3 91/106/3 97/109/3 89/121/3
f 104/113/3 96/117/3 94/119/3 86/114/3
f 198/70/14 137/45/14 131/28/14 192/71/14
f 82/96/23 204/96/23 229/100/23 107/100/23
f 80/122/6 202/122/6 194/123/6 72/123/6
f 107/100/24 229/100/24 230/101/24 108/101/24
f 76/70/9 198/70/9 233/124/9 111/124/9
f 71/87/6 193/87/6 202/122/6 80/122/6
f 81/104/3 93/86/3 85/116/3 105/105/3
f 109/125/6 231/125/6 232/88/6 110/88/6
f 87/111/3 75/126/3 74/99/3 103/98/3
f 75/126/3 87/111/3 64/112/3 111/124/3
f 70/71/3 76/70/3 111/124/3 64/112/3
f 113/127/3 89/121/3 99/128/3 112/129/3
f 117/130/3 72/123/3 109/125/3 118/131/3
f 115/132/3 92/118/3 90/120/3 114/133/3
f 119/134/3 110/88/3 73/40/3 120/69/3
f 75/126/9 197/126/9 196/99/9 74/99/9
f 108/101/18 230/101/18 203/104/18 81/104/18
f 72/123/6 194/123/6 231/125/6 109/125/6
f 103/98/13 225/98/13 224/108/13 102/108/13
f 81/104/25 203/104/25 215/86/25 93/86/25
f 111/124/9 233/124/9 197/126/9 75/126/9
f 68/135/9 66/136/9 62/94/9 74/99/9
f 67/89/3 66/137/3 68/138/3 77/90/3
f 200/92/26 189/89/26 67/89/26 78/92/26
f 67/89/18 189/89/18 188/137/18 66/137/18
f 74/99/9 196/99/9 190/135/9 68/135/9
f 66/136/9 188/136/9 184/94/9 62/94/9
f 87/111/6 209/111/6 186/112/6 64/112/6
f 65/107/21 187/107/21 209/111/21 87/111/21
f 97/109/16 219/109/16 211/121/16 89/121/16
f 95/62/20 217/62/20 216/119/20 94/119/20
f 99/128/20 221/128/20 220/110/20 98/110/20
f 96/117/15 218/117/15 214/118/15 92/118/15
f 94/119/10 216/119/10 208/114/10 86/114/10
f 86/114/21 208/114/21 192/71/21 70/71/21
f 91/106/10 213/106/10 187/107/10 65/107/10
f 101/95/21 223/95/21 191/93/21 69/93/21
f 98/110/10 220/110/10 223/95/10 101/95/10
f 64/112/27 186/112/27 226/113/27 104/113/27
f 89/121/9 211/121/9 221/128/9 99/128/9
f 102/108/18 224/108/18 219/109/18 97/109/18
f 104/113/18 226/113/18 218/117/18 96/117/18
f 69/93/6 191/93/6 225/98/6 103/98/6
f 92/118/3 115/132/3 116/63/3 95/62/3
f 119/139/3 115/140/3 114/141/3 118/142/3
f 89/121/3 113/127/3 114/133/3 90/120/3
f 117/143/3 113/144/3 112/145/3 121/146/3
f 98/110/3 88/81/3 112/129/3 99/128/3
f 72/123/3 117/130/3 121/147/3 80/122/3
f 110/88/3 119/134/3 118/131/3 109/125/3
f 115/140/3 119/139/3 120/60/3 116/59/3
f 113/144/3 117/143/3 118/142/3 114/141/3
f 88/148/3 122/149/3 121/146/3 112/145/3
f 88/81/3 100/115/3 71/87/3 122/150/3
f 71/87/3 80/122/3 121/147/3 122/150/3
f 17/4/9 139/4/9 140/5/9 18/5/9
f 149/26/10 124/9/10 2/9/10 27/26/10
f 222/115/28 100/115/28 88/81/28 210/81/28
f 222/115/9 207/116/9 85/116/9 100/115/9
f 207/116/29 227/105/29 105/105/29 85/116/29
f 227/105/10 228/102/10 106/102/10 105/105/10
f 206/103/30 84/103/30 106/102/30 228/102/30
f 206/103/6 205/97/6 83/97/6 84/103/6
f 185/82/31 63/82/31 83/97/31 205/97/31
f 213/106/20 91/106/20 90/120/20 212/120/20
f 199/90/10 77/90/10 68/138/10 190/138/10
f 199/90/32 201/91/32 79/91/32 77/90/32
f 62/94/9 184/94/9 204/96/9 82/96/9
f 92/118/9 214/118/9 212/120/9 90/120/9
f 161/33/29 149/26/29 27/26/29 39/33/29
f 161/33/9 39/33/9 24/32/9 146/32/9
f 146/32/28 24/32/28 44/19/28 166/19/28
f 166/19/18 44/19/18 45/17/18 167/17/18
f 145/16/31 167/17/31 45/17/31 23/16/31
f 145/16/6 23/16/6 22/11/6 144/11/6
f 124/9/30 144/11/30 22/11/30 2/9/30
f 152/21/16 151/38/16 29/38/16 30/21/16
f 138/6/18 129/67/18 7/67/18 16/6/18
f 138/6/33 16/6/33 18/5/33 140/5/33
f 21/12/9 143/12/9 123/10/9 1/10/9
f 29/38/9 151/38/9 153/37/9 31/37/9
f 128/3/34 138/6/34 140/5/34 139/4/34
f 130/7/14 123/10/14 124/9/14 162/8/14
f 123/10/14 143/12/14 144/11/14 124/9/14
f 123/10/14 130/7/14 164/14/14 135/13/14
f 168/15/14 169/18/14 167/17/14 145/16/14
f 167/17/14 169/18/14 142/20/14 166/19/14
f 152/21/14 126/24/14 163/23/14 158/22/14
f 162/8/14 124/9/14 149/26/14 159/25/14
f 145/16/14 144/11/14 143/12/14 168/15/14
f 126/24/14 148/27/14 164/14/14 163/23/14
f 131/28/14 125/31/14 165/30/14 147/29/14
f 132/1/14 161/33/14 146/32/14 154/2/14
f 157/34/14 153/37/14 156/36/14 155/35/14
f 151/38/14 152/21/14 158/22/14 150/39/14
f 165/30/14 157/34/14 155/35/14 147/29/14
f 142/20/14 154/2/14 146/32/14 166/19/14
f 148/27/14 136/48/14 135/13/14 164/14/14
f 136/48/14 148/27/14 125/31/14 172/44/14
f 131/28/14 137/45/14 172/44/14 125/31/14
f 174/49/14 150/39/14 160/51/14 173/50/14
f 178/52/14 133/42/14 170/47/14 179/53/14
f 176/54/14 153/37/14 151/38/14 175/55/14
f 180/56/14 171/46/14 134/41/14 181/57/14
f 181/61/14 242/60/14 238/59/14 177/58/14
f 177/64/14 238/63/14 217/62/14 156/36/14
f 129/65/9 127/66/9 123/10/9 135/13/9
f 128/3/14 127/68/14 129/67/14 138/6/14
f 153/37/14 176/54/14 177/64/14 156/36/14
f 180/72/14 176/75/14 175/74/14 179/73/14
f 150/39/14 174/49/14 175/55/14 151/38/14
f 178/76/14 174/79/14 173/78/14 182/77/14
f 159/25/14 149/26/14 173/50/14 160/51/14
f 133/42/14 178/52/14 182/80/14 141/43/14
f 171/46/14 180/56/14 179/53/14 170/47/14
f 176/75/14 180/72/14 181/61/14 177/58/14
f 174/79/14 178/76/14 179/73/14 175/74/14
f 149/83/14 183/84/14 182/77/14 173/78/14
f 149/26/14 161/33/14 132/1/14 183/85/14
f 132/1/14 141/43/14 182/80/14 183/85/14
f 131/28/6 9/28/6 70/71/6 192/71/6
f 189/89/35 200/92/35 201/91/35 199/90/35
f 191/93/14 223/95/14 185/82/14 184/94/14
f 184/94/14 185/82/14 205/97/14 204/96/14
f 184/94/14 196/99/14 225/98/14 191/93/14
f 229/100/14 206/103/14 228/102/14 230/101/14
f 228/102/14 227/105/14 203/104/14 230/101/14
f 213/106/14 219/109/14 224/108/14 187/107/14
f 223/95/14 220/110/14 210/81/14 185/82/14
f 206/103/14 229/100/14 204/96/14 205/97/14
f 187/107/14 224/108/14 225/98/14 209/111/14
f 192/71/14 208/114/14 226/113/14 186/112/14
f 193/87/14 215/86/14 207/116/14 222/115/14
f 218/117/14 216/119/14 217/62/14 214/118/14
f 212/120/14 211/121/14 219/109/14 213/106/14
f 226/113/14 208/114/14 216/119/14 218/117/14
f 203/104/14 227/105/14 207/116/14 215/86/14
f 209/111/14 225/98/14 196/99/14 197/126/14
f 197/126/14 233/124/14 186/112/14 209/111/14
f 192/71/14 186/112/14 233/124/14 198/70/14
f 235/127/14 234/129/14 221/128/14 211/121/14
f 239/130/14 240/131/14 231/125/14 194/123/14
f 237/132/14 236/133/14 212/120/14 214/118/14
f 241/134/14 242/69/14 195/40/14 232/88/14
f 190/135/9 196/99/9 184/94/9 188/136/9
f 189/89/14 199/90/14 190/138/14 188/137/14
f 214/118/14 217/62/14 238/63/14 237/132/14
f 241/139/14 240/142/14 236/141/14 237/140/14
f 211/121/14 212/120/14 236/133/14 235/127/14
f 239/143/14 243/146/14 234/145/14 235/144/14
f 220/110/14 221/128/14 234/129/14 210/81/14
f 194/123/14 202/122/14 243/147/14 239/130/14
f 232/88/14 231/125/14 240/131/14 241/134/14
f 237/140/14 238/59/14 242/60/14 241/139/14
f 235/144/14 236/141/14 240/142/14 239/143/14
f 210/148/14 234/145/14 243/146/14 244/149/14
f 210/81/14 244/150/14 193/87/14 222/115/14
f 193/87/14 244/150/14 243/147/14 202/122/14
f 59/57/3 120/69/3 73/40/3 12/41/3
f 79/91/9 201/91/9 200/92/9 78/92/9
