# Blender 5.1.0
# www.blender.org
mtllib barriere55_107.mtl
o barriere55.107
v 69.462830 0.406542 -4.100234
v 69.453033 0.597166 -4.162648
v 69.553352 0.643226 -3.523633
v 69.529648 0.684293 -3.674587
v 69.481049 0.406542 -4.062157
v 69.481049 0.372825 -4.062157
v 69.505287 0.406542 -3.907777
v 69.486359 0.643226 -3.950373
v 69.600403 0.643226 -3.223912
v 69.426521 1.574802 -4.331520
v 69.494507 1.574799 -3.898439
v 69.589546 1.574799 -3.293054
v 69.494507 0.406542 -3.898439
v 69.526192 0.406542 -3.696644
v 69.589546 0.406542 -3.293054
v 69.505287 0.372825 -3.907777
v 69.273529 0.224801 -4.060545
v 69.307571 0.224801 -3.843686
v 69.453033 1.574799 -4.162647
v 69.405807 1.411593 -4.463465
v 69.444138 0.406542 -4.219312
v 69.439301 0.558041 -4.250095
v 69.429329 0.558041 -4.313604
v 69.429329 1.334636 -4.313604
v 69.586670 0.684293 -3.311359
v 69.543381 0.643226 -3.587143
v 69.453033 1.295511 -4.162647
v 69.496323 1.249447 -3.886864
v 69.543381 1.249447 -3.587143
v 69.529648 1.208381 -3.674587
v 69.553352 1.249447 -3.523633
v 69.412506 1.519065 -4.420798
v 69.586670 1.208381 -3.311359
v 69.600403 1.249447 -3.223912
v 69.567078 1.208381 -3.436184
v 69.510056 1.208381 -3.799417
v 69.472626 1.208381 -4.037819
v 69.486359 1.249450 -3.950373
v 69.439301 1.334636 -4.250095
v 69.472626 0.684293 -4.037819
v 69.510056 0.684293 -3.799417
v 69.496323 0.643226 -3.886864
v 69.567078 0.684293 -3.436184
v 69.415604 1.295508 -4.401052
v 69.415604 0.597166 -4.401052
v 69.420357 0.442267 -4.370782
v 69.405807 0.546412 -4.463465
v 69.526192 1.574799 -3.696644
v 69.557869 1.574799 -3.494849
v 69.557869 0.406542 -3.494849
v 69.483025 1.295511 -3.971590
v 69.496071 1.295511 -3.888503
v 69.540947 1.295511 -3.602646
v 69.553986 1.295511 -3.519558
v 69.598862 1.295511 -3.233701
v 69.494843 1.514730 -3.896302
v 69.529366 1.514730 -3.676427
v 69.557030 1.514730 -3.500163
v 69.591553 1.514730 -3.280288
v 69.459480 1.514731 -4.121555
v 69.453033 1.514731 -4.162647
v 69.747879 0.406542 -2.284528
v 69.757675 0.597166 -2.222114
v 69.657356 0.643226 -2.861129
v 69.681053 0.684293 -2.710174
v 69.753548 0.406542 -2.326357
v 69.753548 0.372825 -2.326357
v 69.729317 0.406542 -2.480736
v 69.724350 0.643226 -2.434388
v 69.610306 0.643226 -3.160850
v 69.784187 1.574802 -2.053242
v 69.716194 1.574799 -2.486323
v 69.621155 1.574799 -3.091708
v 69.716194 0.406542 -2.486323
v 69.684517 0.406542 -2.688118
v 69.621155 0.406542 -3.091708
v 69.729317 0.372825 -2.480736
v 69.555519 0.224801 -2.264300
v 69.521477 0.224801 -2.481159
v 69.757675 1.574799 -2.222115
v 69.804901 1.411593 -1.921297
v 69.766571 0.406542 -2.165450
v 69.771400 0.558041 -2.134666
v 69.781372 0.558041 -2.071157
v 69.781372 1.334636 -2.071157
v 69.624031 0.684293 -3.073402
v 69.667328 0.643226 -2.797619
v 69.757675 1.295511 -2.222115
v 69.714378 1.249447 -2.497898
v 69.667328 1.249447 -2.797619
v 69.681053 1.208381 -2.710174
v 69.657356 1.249447 -2.861129
v 69.798203 1.519065 -1.963964
v 69.624031 1.208381 -3.073402
v 69.610306 1.249447 -3.160850
v 69.643623 1.208381 -2.948577
v 69.700653 1.208381 -2.585345
v 69.738075 1.208381 -2.346942
v 69.724350 1.249450 -2.434388
v 69.771400 1.334636 -2.134666
v 69.738075 0.684293 -2.346942
v 69.700653 0.684293 -2.585345
v 69.714378 0.643226 -2.497898
v 69.643623 0.684293 -2.948577
v 69.795097 1.295508 -1.983711
v 69.795097 0.597166 -1.983711
v 69.790352 0.442267 -2.013980
v 69.804901 0.546412 -1.921297
v 69.684517 1.574799 -2.688118
v 69.652840 1.574799 -2.889913
v 69.652840 0.406542 -2.889913
v 69.727676 1.295511 -2.413172
v 69.714638 1.295511 -2.496259
v 69.669762 1.295511 -2.782116
v 69.656715 1.295511 -2.865204
v 69.611839 1.295511 -3.151061
v 69.715858 1.514730 -2.488460
v 69.681343 1.514730 -2.708334
v 69.653671 1.514730 -2.884598
v 69.619156 1.514730 -3.104473
v 69.751221 1.514731 -2.263207
v 69.757675 1.514731 -2.222115
v 69.552170 0.406542 -4.114261
v 69.542374 0.597166 -4.176674
v 69.642693 0.643226 -3.537659
v 69.618996 0.684293 -3.688614
v 69.546501 0.406542 -4.072431
v 69.546501 0.372825 -4.072431
v 69.570732 0.406542 -3.918052
v 69.575699 0.643226 -3.964400
v 69.689743 0.643226 -3.237938
v 69.515862 1.574802 -4.345546
v 69.583855 1.574799 -3.912465
v 69.678894 1.574799 -3.307080
v 69.583855 0.406542 -3.912465
v 69.615532 0.406542 -3.710670
v 69.678894 0.406542 -3.307080
v 69.570732 0.372825 -3.918052
v 69.744530 0.224801 -4.134488
v 69.778572 0.224801 -3.917629
v 69.542374 1.574799 -4.176673
v 69.495148 1.411593 -4.477491
v 69.533478 0.406542 -4.233338
v 69.528648 0.558041 -4.264122
v 69.518677 0.558041 -4.327631
v 69.518677 1.334636 -4.327631
v 69.676018 0.684293 -3.325386
v 69.632721 0.643226 -3.601169
v 69.542374 1.295511 -4.176673
v 69.585670 1.249447 -3.900890
v 69.632721 1.249447 -3.601169
v 69.618996 1.208381 -3.688614
v 69.642693 1.249447 -3.537659
v 69.501846 1.519065 -4.434824
v 69.676018 1.208381 -3.325386
v 69.689751 1.249447 -3.237938
v 69.656425 1.208381 -3.450211
v 69.599396 1.208381 -3.813443
v 69.561974 1.208381 -4.051846
v 69.575699 1.249450 -3.964400
v 69.528648 1.334636 -4.264122
v 69.561974 0.684293 -4.051846
v 69.599396 0.684293 -3.813443
v 69.585670 0.643226 -3.900890
v 69.656425 0.684293 -3.450211
v 69.504951 1.295508 -4.415077
v 69.504951 0.597166 -4.415077
v 69.509697 0.442267 -4.384808
v 69.495148 0.546412 -4.477491
v 69.615532 1.574799 -3.710670
v 69.647209 1.574799 -3.508875
v 69.647209 0.406542 -3.508875
v 69.572372 1.295511 -3.985616
v 69.585411 1.295511 -3.902529
v 69.630287 1.295511 -3.616672
v 69.643333 1.295511 -3.533584
v 69.688210 1.295511 -3.247727
v 69.584190 1.514730 -3.910328
v 69.618706 1.514730 -3.690454
v 69.646378 1.514730 -3.514189
v 69.680893 1.514730 -3.294315
v 69.548828 1.514731 -4.135581
v 69.542374 1.514731 -4.176673
v 69.837219 0.406542 -2.298554
v 69.847015 0.597166 -2.236140
v 69.746696 0.643226 -2.875155
v 69.770401 0.684293 -2.724200
v 69.819000 0.406542 -2.336632
v 69.819000 0.372825 -2.336632
v 69.794762 0.406542 -2.491011
v 69.813690 0.643226 -2.448415
v 69.699646 0.643226 -3.174876
v 69.873528 1.574802 -2.067268
v 69.805542 1.574799 -2.500349
v 69.710503 1.574799 -3.105734
v 69.805542 0.406542 -2.500349
v 69.773857 0.406542 -2.702144
v 69.710503 0.406542 -3.105734
v 69.794762 0.372825 -2.491011
v 70.026520 0.224801 -2.338243
v 69.992477 0.224801 -2.555102
v 69.847015 1.574799 -2.236141
v 69.894241 1.411593 -1.935323
v 69.855911 0.406542 -2.179476
v 69.860748 0.558041 -2.148692
v 69.870720 0.558041 -2.085184
v 69.870720 1.334636 -2.085184
v 69.713379 0.684293 -3.087429
v 69.756668 0.643226 -2.811645
v 69.847015 1.295511 -2.236141
v 69.803726 1.249447 -2.511924
v 69.756668 1.249447 -2.811645
v 69.770401 1.208381 -2.724200
v 69.746696 1.249447 -2.875155
v 69.887543 1.519065 -1.977990
v 69.713379 1.208381 -3.087429
v 69.699646 1.249447 -3.174876
v 69.732971 1.208381 -2.962604
v 69.789993 1.208381 -2.599371
v 69.827423 1.208381 -2.360969
v 69.813690 1.249450 -2.448415
v 69.860748 1.334636 -2.148692
v 69.827423 0.684293 -2.360969
v 69.789993 0.684293 -2.599371
v 69.803726 0.643226 -2.511924
v 69.732971 0.684293 -2.962604
v 69.884445 1.295508 -1.997737
v 69.884445 0.597166 -1.997737
v 69.879692 0.442267 -2.028006
v 69.894241 0.546412 -1.935323
v 69.773865 1.574799 -2.702144
v 69.742180 1.574799 -2.903939
v 69.742180 0.406542 -2.903939
v 69.817024 1.295511 -2.427198
v 69.803978 1.295511 -2.510285
v 69.759102 1.295511 -2.796142
v 69.746063 1.295511 -2.879230
v 69.701187 1.295511 -3.165087
v 69.805206 1.514730 -2.502486
v 69.770691 1.514730 -2.722361
v 69.743019 1.514730 -2.898625
v 69.708496 1.514730 -3.118500
v 69.840569 1.514731 -2.277233
v 69.847015 1.514731 -2.236141
vn -0.0814 0.8511 -0.5186
vn -0.5778 0.8111 0.0907
vn -0.9879 -0.0000 0.1551
vn -0.9879 -0.0001 0.1551
vn -0.9879 -0.0002 0.1551
vn -0.9879 0.0001 0.1551
vn -0.0000 1.0000 -0.0000
vn -0.0352 -0.9739 -0.2242
vn -0.1152 -0.6693 -0.7340
vn -0.0000 -1.0000 -0.0000
vn -0.1551 -0.0000 -0.9879
vn -0.1439 0.3729 -0.9166
vn -0.1519 0.2024 -0.9675
vn 0.0653 0.9071 0.4158
vn 0.9879 -0.0001 -0.1551
vn 0.9879 -0.0000 -0.1551
vn 0.0653 -0.9071 0.4157
vn 0.0653 -0.9071 0.4158
vn -0.0653 -0.9071 -0.4157
vn 0.1551 -0.0000 0.9879
vn -0.0653 0.9071 -0.4157
vn -0.0653 -0.9071 -0.4158
vn -0.0653 0.9071 -0.4158
vn 0.0814 0.8511 0.5186
vn -0.5779 0.8111 0.0907
vn -0.9879 0.0002 0.1551
vn 0.0352 -0.9739 0.2242
vn 0.1152 -0.6693 0.7340
vn 0.1439 0.3729 0.9167
vn 0.1519 0.2024 0.9675
vn 0.0653 0.9071 0.4157
vn 0.0627 -0.9146 0.3994
vn -0.0627 -0.9146 -0.3995
vn -0.0627 0.9146 -0.3994
vn 0.0627 0.9146 0.3994
vn -0.1515 0.2154 -0.9647
vn -0.0627 -0.9146 -0.3994
vn 0.1515 0.2154 0.9647
vn 0.5778 0.8111 -0.0907
vn 0.9879 0.0001 -0.1551
vt 0.563424 0.076340
vt 0.553130 0.073518
vt 0.930572 0.423953
vt 0.921307 0.379121
vt 0.987792 0.379121
vt 0.977903 0.423953
vt 0.607372 0.029178
vt 0.597289 0.031257
vt 0.582896 0.026846
vt 0.590093 0.017196
vt 0.572813 0.024865
vt 0.576362 0.017196
vt 0.613360 0.017196
vt 0.614695 0.029178
vt 0.558897 0.019004
vt 0.565490 0.024865
vt 0.555407 0.026846
vt 0.548211 0.024277
vt 0.555407 0.062200
vt 0.548211 0.068077
vt 0.639171 0.057790
vt 0.624778 0.057790
vt 0.624778 0.031257
vt 0.639171 0.031257
vt 0.597289 0.057790
vt 0.582896 0.062201
vt 0.649254 0.029178
vt 0.691136 0.029178
vt 0.681053 0.031257
vt 0.666660 0.031257
vt 0.656577 0.029178
vt 0.565490 0.064181
vt 0.572813 0.064181
vt 0.666660 0.057790
vt 0.681053 0.057790
vt 0.691136 0.059869
vt 0.656577 0.059869
vt 0.649254 0.059869
vt 0.614695 0.059869
vt 0.706379 0.076340
vt 0.683164 0.076340
vt 0.613360 0.076340
vt 0.582896 0.076340
vt 0.659896 0.017196
vt 0.683164 0.017196
vt 0.659896 0.076340
vt 0.636628 0.076340
vt 0.636628 0.017196
vt 0.614506 0.062201
vt 0.604926 0.062201
vt 0.607372 0.059869
vt 0.613607 0.073299
vt 0.638959 0.073299
vt 0.657047 0.062201
vt 0.647466 0.062201
vt 0.659283 0.073299
vt 0.684635 0.073299
vt 0.688839 0.081258
vt 0.699816 0.081258
vt 0.706005 0.126709
vt 0.682651 0.126709
vt 0.698407 0.059869
vt 0.699536 0.062201
vt 0.690007 0.062201
vt 0.612500 0.017196
vt 0.594699 0.017196
vt 0.977903 0.434165
vt 0.930572 0.434165
vt 0.704907 0.073299
vt 0.706379 0.017196
vt 0.698407 0.029178
vt 0.653445 0.126709
vt 0.630032 0.126709
vt 0.639832 0.081258
vt 0.650869 0.081258
vt 0.600826 0.126709
vt 0.570905 0.126710
vt 0.590825 0.081258
vt 0.601862 0.081258
vt 0.587634 0.073299
vt 0.806647 0.062201
vt 0.806647 0.026846
vt 0.565447 0.081258
vt 0.565447 0.126710
vt 0.582896 0.073299
vt 0.836413 0.073518
vt 0.826118 0.076340
vt 0.729647 0.076340
vt 0.978547 0.423953
vt 0.931216 0.423953
vt 0.921327 0.379121
vt 0.987812 0.379121
vt 0.782171 0.029178
vt 0.799450 0.017196
vt 0.792254 0.031257
vt 0.813181 0.017196
vt 0.816730 0.024865
vt 0.774848 0.029178
vt 0.776183 0.017196
vt 0.830646 0.019004
vt 0.841332 0.024277
vt 0.834136 0.026846
vt 0.824053 0.024865
vt 0.841332 0.068077
vt 0.834136 0.062200
vt 0.750372 0.057790
vt 0.750372 0.031257
vt 0.764765 0.031257
vt 0.764765 0.057790
vt 0.792254 0.057790
vt 0.740289 0.029178
vt 0.732966 0.029178
vt 0.722883 0.031257
vt 0.708490 0.031257
vt 0.816730 0.064181
vt 0.824053 0.064181
vt 0.722883 0.057790
vt 0.732966 0.059869
vt 0.708490 0.057790
vt 0.740289 0.059869
vt 0.774848 0.059869
vt 0.806647 0.076340
vt 0.776183 0.076340
vt 0.729647 0.017196
vt 0.752915 0.076340
vt 0.752915 0.017196
vt 0.775037 0.062201
vt 0.782171 0.059869
vt 0.784617 0.062201
vt 0.775936 0.073299
vt 0.750584 0.073299
vt 0.732496 0.062201
vt 0.742077 0.062201
vt 0.730260 0.073299
vt 0.777043 0.017196
vt 0.794844 0.017196
vt 0.978547 0.434165
vt 0.931216 0.434165
vt 0.735211 0.126709
vt 0.737787 0.081258
vt 0.748824 0.081258
vt 0.758624 0.126709
vt 0.787830 0.126709
vt 0.786794 0.081258
vt 0.797831 0.081258
vt 0.817751 0.126710
vt 0.801909 0.073299
vt 0.823209 0.081258
vt 0.823209 0.126710
vt 0.806647 0.073299
s 1
usemtl initialShadingGroup.004
f 10/1/1 132/1/1 154/2/1 32/2/1
f 6/3/2 17/4/2 18/5/2 16/6/2
f 8/7/3 40/8/3 2/9/3 1/10/3
f 1/10/3 2/9/3 22/11/3 21/12/3
f 1/10/3 13/13/3 42/14/3 8/7/3
f 46/15/4 23/16/4 45/17/3 47/18/3
f 45/17/3 44/19/3 20/20/3 47/18/3
f 30/21/3 36/22/3 41/23/3 4/24/3
f 40/8/3 37/25/3 27/26/3 2/9/3
f 23/16/4 46/15/4 21/12/3 22/11/3
f 4/24/3 41/23/3 42/14/3 26/27/3
f 9/28/3 25/29/3 43/30/3 3/31/3
f 10/1/3 32/2/3 24/32/3 39/33/3
f 35/34/3 33/35/3 34/36/5 31/37/4
f 29/38/3 28/39/6 36/22/3 30/21/3
f 43/30/3 25/29/3 33/35/3 35/34/3
f 73/40/7 195/40/7 134/41/7 12/41/7
f 46/15/8 168/15/8 143/12/8 21/12/8
f 11/42/7 133/42/7 141/43/7 19/43/7
f 47/18/9 169/18/9 168/15/9 46/15/9
f 50/44/10 172/44/10 137/45/10 15/45/10
f 19/43/7 141/43/7 132/1/7 10/1/7
f 20/20/3 44/19/3 24/32/3 32/2/3
f 49/46/7 171/46/7 170/47/7 48/47/7
f 26/27/3 42/14/3 13/13/3 14/48/3
f 14/48/3 50/44/3 3/31/3 26/27/3
f 9/28/3 3/31/3 50/44/3 15/45/3
f 52/49/3 51/50/3 38/51/3 28/39/6
f 56/52/3 57/53/3 48/47/3 11/42/6
f 54/54/4 53/55/3 29/38/3 31/37/4
f 58/56/3 59/57/3 12/41/3 49/46/3
f 55/58/4 116/59/4 120/60/3 59/61/3
f 13/13/10 135/13/10 136/48/10 14/48/10
f 20/20/11 142/20/11 169/18/11 47/18/11
f 34/36/5 95/62/5 116/63/4 55/64/4
f 48/47/7 170/47/7 133/42/7 11/42/7
f 32/2/12 154/2/12 142/20/12 20/20/12
f 14/48/10 136/48/10 172/44/10 50/44/10
f 7/65/10 13/13/10 1/10/10 5/66/10
f 6/3/3 16/6/3 7/67/3 5/68/3
f 139/4/13 17/4/13 6/3/13 128/3/13
f 5/68/11 127/68/11 128/3/11 6/3/11
f 7/65/10 129/65/10 135/13/10 13/13/10
f 1/10/10 123/10/10 127/66/10 5/66/10
f 3/31/7 125/31/7 148/27/7 26/27/7
f 26/27/14 148/27/14 126/24/14 4/24/14
f 134/41/15 195/40/15 242/69/16 181/57/15
f 156/36/10 217/62/10 95/62/10 34/36/10
f 33/35/17 155/35/17 156/36/17 34/36/17
f 37/25/18 159/25/18 160/51/18 38/51/18
f 31/37/19 153/37/19 157/34/19 35/34/19
f 25/29/20 147/29/20 155/35/20 33/35/20
f 9/28/14 131/28/14 147/29/14 25/29/14
f 4/24/20 126/24/20 152/21/20 30/21/20
f 8/7/14 130/7/14 162/8/14 40/8/14
f 40/8/20 162/8/20 159/25/20 37/25/20
f 43/30/21 165/30/21 125/31/21 3/31/21
f 38/51/10 160/51/10 150/39/10 28/39/10
f 76/70/6 70/71/3 9/28/3 15/45/3
f 36/22/11 158/22/11 163/23/11 41/23/11
f 35/34/11 157/34/11 165/30/11 43/30/11
f 42/14/7 164/14/7 130/7/7 8/7/7
f 28/39/22 150/39/22 158/22/22 36/22/22
f 31/37/4 34/36/5 55/64/4 54/54/4
f 58/72/3 57/73/3 53/74/3 54/75/4
f 28/39/6 29/38/3 53/55/3 52/49/3
f 56/76/3 60/77/3 51/78/3 52/79/3
f 37/25/3 38/51/3 51/50/3 27/26/3
f 11/42/6 19/43/3 60/80/3 56/52/3
f 49/46/3 48/47/3 57/53/3 58/56/3
f 210/81/20 88/81/20 63/82/20 185/82/20
f 54/75/4 55/58/4 59/61/3 58/72/3
f 52/79/3 53/74/3 57/73/3 56/76/3
f 27/83/3 51/78/3 60/77/3 61/84/3
f 27/26/3 61/85/3 10/1/3 39/33/3
f 10/1/3 61/85/3 60/80/3 19/43/3
f 12/41/7 134/41/7 171/46/7 49/46/7
f 41/23/23 163/23/23 164/14/23 42/14/23
f 15/45/10 137/45/10 198/70/10 76/70/10
f 93/86/24 215/86/24 193/87/24 71/87/24
f 110/88/7 232/88/7 195/40/7 73/40/7
f 67/89/25 77/90/25 79/91/25 78/92/25
f 69/93/3 62/94/3 63/82/3 101/95/3
f 62/94/3 82/96/3 83/97/3 63/82/3
f 62/94/3 69/93/3 103/98/3 74/99/3
f 107/100/3 108/101/6 106/102/3 84/103/3
f 106/102/3 108/101/6 81/104/3 105/105/3
f 91/106/3 65/107/3 102/108/3 97/109/3
f 101/95/3 63/82/3 88/81/3 98/110/4
f 84/103/3 83/97/3 82/96/3 107/100/3
f 65/107/3 87/111/3 103/98/3 102/108/3
f 70/71/3 64/112/3 104/113/6 86/114/5
f 71/87/3 100/115/6 85/116/3 93/86/3
f 96/117/26 92/118/3 95/62/5 94/119/26
f 90/120/3 91/106/3 97/109/3 89/121/6
f 104/113/6 96/117/26 94/119/26 86/114/5
f 198/70/16 137/45/16 131/28/16 192/71/16
f 82/96/27 204/96/27 229/100/27 107/100/27
f 80/122/7 202/122/7 194/123/7 72/123/7
f 107/100/28 229/100/28 230/101/28 108/101/28
f 76/70/10 198/70/10 233/124/10 111/124/10
f 71/87/7 193/87/7 202/122/7 80/122/7
f 81/104/3 93/86/3 85/116/3 105/105/3
f 109/125/7 231/125/7 232/88/7 110/88/7
f 87/111/3 75/126/3 74/99/3 103/98/3
f 75/126/3 87/111/3 64/112/3 111/124/3
f 70/71/3 76/70/6 111/124/3 64/112/3
f 113/127/3 89/121/6 99/128/6 112/129/3
f 117/130/3 72/123/6 109/125/3 118/131/3
f 115/132/3 92/118/3 90/120/3 114/133/3
f 119/134/3 110/88/4 73/40/4 120/69/3
f 75/126/10 197/126/10 196/99/10 74/99/10
f 108/101/20 230/101/20 203/104/20 81/104/20
f 72/123/7 194/123/7 231/125/7 109/125/7
f 103/98/14 225/98/14 224/108/14 102/108/14
f 81/104/29 203/104/29 215/86/29 93/86/29
f 111/124/10 233/124/10 197/126/10 75/126/10
f 68/135/10 66/136/10 62/94/10 74/99/10
f 67/89/3 66/137/3 68/138/3 77/90/3
f 200/92/30 189/89/30 67/89/30 78/92/30
f 67/89/20 189/89/20 188/137/20 66/137/20
f 74/99/10 196/99/10 190/135/10 68/135/10
f 66/136/10 188/136/10 184/94/10 62/94/10
f 87/111/7 209/111/7 186/112/7 64/112/7
f 65/107/23 187/107/23 209/111/23 87/111/23
f 97/109/18 219/109/18 211/121/18 89/121/18
f 95/62/22 217/62/22 216/119/22 94/119/22
f 99/128/22 221/128/22 220/110/22 98/110/22
f 96/117/17 218/117/17 214/118/17 92/118/17
f 94/119/11 216/119/11 208/114/11 86/114/11
f 86/114/23 208/114/23 192/71/23 70/71/23
f 91/106/11 213/106/11 187/107/11 65/107/11
f 101/95/23 223/95/23 191/93/23 69/93/23
f 98/110/11 220/110/11 223/95/11 101/95/11
f 64/112/31 186/112/31 226/113/31 104/113/31
f 89/121/10 211/121/10 221/128/10 99/128/10
f 102/108/20 224/108/20 219/109/20 97/109/20
f 104/113/20 226/113/20 218/117/20 96/117/20
f 69/93/7 191/93/7 225/98/7 103/98/7
f 92/118/3 115/132/3 116/63/4 95/62/5
f 119/139/3 115/140/3 114/141/3 118/142/3
f 89/121/6 113/127/3 114/133/3 90/120/3
f 117/143/3 113/144/3 112/145/3 121/146/3
f 98/110/4 88/81/3 112/129/3 99/128/6
f 72/123/6 117/130/3 121/147/3 80/122/3
f 110/88/4 119/134/3 118/131/3 109/125/3
f 115/140/3 119/139/3 120/60/3 116/59/4
f 113/144/3 117/143/3 118/142/3 114/141/3
f 88/148/3 122/149/3 121/146/3 112/145/3
f 88/81/3 100/115/6 71/87/3 122/150/3
f 71/87/3 80/122/3 121/147/3 122/150/3
f 17/4/10 139/4/10 140/5/10 18/5/10
f 149/26/11 124/9/11 2/9/11 27/26/11
f 222/115/32 100/115/32 88/81/32 210/81/32
f 222/115/10 207/116/10 85/116/10 100/115/10
f 207/116/33 227/105/33 105/105/33 85/116/33
f 227/105/11 228/102/11 106/102/11 105/105/11
f 206/103/34 84/103/34 106/102/34 228/102/34
f 206/103/7 205/97/7 83/97/7 84/103/7
f 185/82/35 63/82/35 83/97/35 205/97/35
f 213/106/22 91/106/22 90/120/22 212/120/22
f 199/90/11 77/90/11 68/138/11 190/138/11
f 199/90/36 201/91/36 79/91/36 77/90/36
f 62/94/10 184/94/10 204/96/10 82/96/10
f 92/118/10 214/118/10 212/120/10 90/120/10
f 161/33/37 149/26/37 27/26/37 39/33/37
f 161/33/10 39/33/10 24/32/10 146/32/10
f 146/32/32 24/32/32 44/19/32 166/19/32
f 166/19/20 44/19/20 45/17/20 167/17/20
f 145/16/35 167/17/35 45/17/35 23/16/35
f 145/16/7 23/16/7 22/11/7 144/11/7
f 124/9/34 144/11/34 22/11/34 2/9/34
f 152/21/18 151/38/18 29/38/18 30/21/18
f 138/6/20 129/67/20 7/67/20 16/6/20
f 138/6/38 16/6/38 18/5/38 140/5/38
f 21/12/10 143/12/10 123/10/10 1/10/10
f 29/38/10 151/38/10 153/37/10 31/37/10
f 128/3/39 138/6/39 140/5/39 139/4/39
f 130/7/16 123/10/16 124/9/16 162/8/16
f 123/10/16 143/12/16 144/11/16 124/9/16
f 123/10/16 130/7/16 164/14/16 135/13/16
f 168/15/16 169/18/40 167/17/16 145/16/16
f 167/17/16 169/18/40 142/20/16 166/19/16
f 152/21/16 126/24/15 163/23/15 158/22/16
f 162/8/16 124/9/16 149/26/16 159/25/15
f 145/16/16 144/11/16 143/12/16 168/15/16
f 126/24/15 148/27/16 164/14/16 163/23/15
f 131/28/16 125/31/16 165/30/15 147/29/15
f 132/1/16 161/33/16 146/32/16 154/2/16
f 157/34/16 153/37/15 156/36/16 155/35/16
f 151/38/15 152/21/16 158/22/16 150/39/16
f 165/30/15 157/34/16 155/35/16 147/29/15
f 142/20/16 154/2/16 146/32/16 166/19/16
f 148/27/16 136/48/16 135/13/16 164/14/16
f 136/48/16 148/27/16 125/31/16 172/44/16
f 131/28/16 137/45/16 172/44/16 125/31/16
f 174/49/16 150/39/16 160/51/40 173/50/16
f 178/52/16 133/42/40 170/47/16 179/53/16
f 176/54/16 153/37/15 151/38/15 175/55/16
f 180/56/16 171/46/15 134/41/15 181/57/15
f 181/61/15 242/60/16 238/59/16 177/58/16
f 177/64/16 238/63/16 217/62/15 156/36/16
f 129/65/10 127/66/10 123/10/10 135/13/10
f 128/3/16 127/68/16 129/67/16 138/6/16
f 153/37/15 176/54/16 177/64/16 156/36/16
f 180/72/16 176/75/16 175/74/16 179/73/16
f 150/39/16 174/49/16 175/55/16 151/38/15
f 178/76/16 174/79/16 173/78/16 182/77/16
f 159/25/15 149/26/16 173/50/16 160/51/40
f 133/42/40 178/52/16 182/80/16 141/43/16
f 171/46/15 180/56/16 179/53/16 170/47/16
f 176/75/16 180/72/16 181/61/15 177/58/16
f 174/79/16 178/76/16 179/73/16 175/74/16
f 149/83/16 183/84/16 182/77/16 173/78/16
f 149/26/16 161/33/16 132/1/16 183/85/16
f 132/1/16 141/43/16 182/80/16 183/85/16
f 131/28/7 9/28/7 70/71/7 192/71/7
f 189/89/39 200/92/39 201/91/39 199/90/39
f 191/93/16 223/95/16 185/82/16 184/94/16
f 184/94/16 185/82/16 205/97/16 204/96/16
f 184/94/16 196/99/16 225/98/16 191/93/16
f 229/100/16 206/103/16 228/102/16 230/101/16
f 228/102/16 227/105/16 203/104/16 230/101/16
f 213/106/16 219/109/16 224/108/16 187/107/16
f 223/95/16 220/110/16 210/81/16 185/82/16
f 206/103/16 229/100/16 204/96/16 205/97/16
f 187/107/16 224/108/16 225/98/16 209/111/16
f 192/71/16 208/114/15 226/113/15 186/112/16
f 193/87/16 215/86/16 207/116/16 222/115/16
f 218/117/16 216/119/16 217/62/15 214/118/15
f 212/120/16 211/121/16 219/109/16 213/106/16
f 226/113/15 208/114/15 216/119/16 218/117/16
f 203/104/16 227/105/16 207/116/16 215/86/16
f 209/111/16 225/98/16 196/99/16 197/126/16
f 197/126/16 233/124/16 186/112/16 209/111/16
f 192/71/16 186/112/16 233/124/16 198/70/16
f 235/127/16 234/129/16 221/128/16 211/121/16
f 239/130/16 240/131/16 231/125/16 194/123/40
f 237/132/16 236/133/16 212/120/16 214/118/15
f 241/134/16 242/69/16 195/40/15 232/88/16
f 190/135/10 196/99/10 184/94/10 188/136/10
f 189/89/16 199/90/16 190/138/16 188/137/16
f 214/118/15 217/62/15 238/63/16 237/132/16
f 241/139/16 240/142/16 236/141/16 237/140/16
f 211/121/16 212/120/16 236/133/16 235/127/16
f 239/143/16 243/146/16 234/145/16 235/144/16
f 220/110/16 221/128/16 234/129/16 210/81/16
f 194/123/40 202/122/16 243/147/16 239/130/16
f 232/88/16 231/125/16 240/131/16 241/134/16
f 237/140/16 238/59/16 242/60/16 241/139/16
f 235/144/16 236/141/16 240/142/16 239/143/16
f 210/148/16 234/145/16 243/146/16 244/149/16
f 210/81/16 244/150/16 193/87/16 222/115/16
f 193/87/16 244/150/16 243/147/16 202/122/16
f 59/57/3 120/69/3 73/40/4 12/41/3
f 79/91/10 201/91/10 200/92/10 78/92/10
