# Blender 5.1.0
# www.blender.org
mtllib barriere55_121.mtl
o barriere55.121
v -60.329258 0.405359 24.928806
v -60.369045 0.595982 24.879728
v -59.961689 0.642042 25.382191
v -60.057919 0.683110 25.263494
v -60.294395 0.405359 24.952604
v -60.294395 0.371642 24.952604
v -60.195980 0.405359 25.073994
v -60.233727 0.642042 25.046642
v -59.770626 0.642042 25.617863
v -60.476696 1.573618 24.746944
v -60.200619 1.573616 25.087479
v -59.814701 1.573616 25.563496
v -60.200619 0.405359 25.087479
v -60.071980 0.405359 25.246151
v -59.814701 0.405359 25.563496
v -60.195980 0.371642 25.073994
v -60.473106 0.223618 25.058105
v -60.334862 0.223618 25.228622
v -60.369045 1.573616 24.879730
v -60.560806 1.410410 24.643196
v -60.405167 0.405359 24.835175
v -60.424789 0.556857 24.810968
v -60.465275 0.556857 24.761032
v -60.465275 1.333453 24.761032
v -59.826374 0.683110 25.549101
v -60.002174 0.642042 25.332253
v -60.369045 1.294327 24.879730
v -60.193241 1.248264 25.096581
v -60.002174 1.248264 25.332253
v -60.057919 1.207198 25.263494
v -59.961689 1.248264 25.382191
v -60.533607 1.517882 24.676744
v -59.826374 1.207198 25.549101
v -59.770626 1.248264 25.617863
v -59.905945 1.207198 25.450951
v -60.137497 1.207198 25.165339
v -60.289471 1.207198 24.977882
v -60.233727 1.248267 25.046642
v -60.424789 1.333453 24.810968
v -60.289471 0.683110 24.977882
v -60.137497 0.683110 25.165339
v -60.193241 0.642042 25.096581
v -59.905945 0.683110 25.450951
v -60.521019 1.294325 24.692272
v -60.521019 0.595982 24.692272
v -60.501724 0.441084 24.716072
v -60.560806 0.545229 24.643196
v -60.071980 1.573616 25.246151
v -59.943340 1.573616 25.404823
v -59.943340 0.405359 25.404823
v -60.247250 1.294327 25.029959
v -60.194286 1.294327 25.095291
v -60.012058 1.294327 25.320063
v -59.959091 1.294327 25.385395
v -59.776867 1.294327 25.610165
v -60.199257 1.513547 25.089159
v -60.059093 1.513547 25.262047
v -59.946728 1.513547 25.400644
v -59.806564 1.513547 25.573532
v -60.342850 1.513548 24.912041
v -60.369045 1.513548 24.879730
v -59.171795 0.405359 26.356504
v -59.132008 0.595982 26.405581
v -59.539364 0.642042 25.903120
v -59.443134 0.683110 26.021816
v -59.187870 0.405359 26.317472
v -59.187870 0.371642 26.317472
v -59.286282 0.405359 26.196083
v -59.267326 0.642042 26.238668
v -59.730427 0.642042 25.667448
v -59.024357 1.573618 26.538366
v -59.300434 1.573616 26.197832
v -59.686352 1.573616 25.721815
v -59.300434 0.405359 26.197832
v -59.429073 0.405359 26.039160
v -59.686352 0.405359 25.721815
v -59.286282 0.371642 26.196083
v -59.328049 0.223618 26.470501
v -59.466290 0.223618 26.299984
v -59.132011 1.573616 26.405581
v -58.940247 1.410410 26.642115
v -59.095886 0.405359 26.450136
v -59.076263 0.556857 26.474340
v -59.035778 0.556857 26.524279
v -59.035778 1.333453 26.524279
v -59.674683 0.683110 25.736208
v -59.498878 0.642042 25.953058
v -59.132011 1.294327 26.405581
v -59.307816 1.248264 26.188730
v -59.498878 1.248264 25.953058
v -59.443134 1.207198 26.021816
v -59.539364 1.248264 25.903120
v -58.967445 1.517882 26.608566
v -59.674683 1.207198 25.736208
v -59.730427 1.248264 25.667448
v -59.595108 1.207198 25.834358
v -59.363560 1.207198 26.119970
v -59.211582 1.207198 26.307428
v -59.267326 1.248267 26.238668
v -59.076263 1.333453 26.474340
v -59.211582 0.683110 26.307428
v -59.363560 0.683110 26.119970
v -59.307816 0.642042 26.188730
v -59.595108 0.683110 25.834358
v -58.980034 1.294325 26.593039
v -58.980034 0.595982 26.593039
v -58.999329 0.441084 26.569237
v -58.940247 0.545229 26.642115
v -59.429073 1.573616 26.039160
v -59.557713 1.573616 25.880487
v -59.557713 0.405359 25.880487
v -59.253803 1.294327 26.255350
v -59.306770 1.294327 26.190020
v -59.488995 1.294327 25.965248
v -59.541962 1.294327 25.899916
v -59.724186 1.294327 25.675146
v -59.301796 1.513547 26.196152
v -59.441959 1.513547 26.023264
v -59.554325 1.513547 25.884666
v -59.694489 1.513547 25.711777
v -59.158203 1.513548 26.373268
v -59.132011 1.513548 26.405581
v -60.259007 0.405359 24.871851
v -60.298794 0.595982 24.822775
v -59.891438 0.642042 25.325235
v -59.987667 0.683110 25.206539
v -60.242931 0.405359 24.910883
v -60.242931 0.371642 24.910883
v -60.144520 0.405359 25.032272
v -60.163475 0.642042 24.989687
v -59.700375 0.642042 25.560907
v -60.406445 1.573618 24.689989
v -60.130367 1.573616 25.030523
v -59.744450 1.573616 25.506540
v -60.130367 0.405359 25.030523
v -60.001728 0.405359 25.189196
v -59.744450 0.405359 25.506540
v -60.144520 0.371642 25.032272
v -60.102753 0.223618 24.757854
v -59.964512 0.223618 24.928371
v -60.298790 1.573616 24.822775
v -60.490555 1.410410 24.586241
v -60.334915 0.405359 24.778219
v -60.354538 0.556857 24.754015
v -60.395023 0.556857 24.704077
v -60.395023 1.333453 24.704077
v -59.756119 0.683110 25.492147
v -59.931923 0.642042 25.275297
v -60.298790 1.294327 24.822775
v -60.122986 1.248264 25.039625
v -59.931923 1.248264 25.275297
v -59.987667 1.207198 25.206539
v -59.891438 1.248264 25.325235
v -60.463356 1.517882 24.619789
v -59.756119 1.207198 25.492147
v -59.700375 1.248264 25.560907
v -59.835693 1.207198 25.393997
v -60.067242 1.207198 25.108385
v -60.219219 1.207198 24.920927
v -60.163475 1.248267 24.989687
v -60.354538 1.333453 24.754013
v -60.219219 0.683110 24.920927
v -60.067242 0.683110 25.108385
v -60.122986 0.642042 25.039625
v -59.835693 0.683110 25.393997
v -60.450768 1.294325 24.635317
v -60.450768 0.595982 24.635317
v -60.431473 0.441084 24.659119
v -60.490555 0.545229 24.586241
v -60.001728 1.573616 25.189196
v -59.873089 1.573616 25.347868
v -59.873089 0.405359 25.347868
v -60.176998 1.294327 24.973005
v -60.124031 1.294327 25.038336
v -59.941807 1.294327 25.263107
v -59.888840 1.294327 25.328440
v -59.706615 1.294327 25.553209
v -60.129005 1.513547 25.032204
v -59.988842 1.513547 25.205091
v -59.876476 1.513547 25.343689
v -59.736313 1.513547 25.516579
v -60.272598 1.513548 24.855087
v -60.298790 1.513548 24.822775
v -59.101543 0.405359 26.299549
v -59.061756 0.595982 26.348627
v -59.469112 0.642042 25.846165
v -59.372883 0.683110 25.964861
v -59.136406 0.405359 26.275751
v -59.136406 0.371642 26.275751
v -59.234821 0.405359 26.154362
v -59.197075 0.642042 26.181713
v -59.660175 0.642042 25.610493
v -58.954105 1.573618 26.481411
v -59.230183 1.573616 26.140877
v -59.616096 1.573616 25.664860
v -59.230183 0.405359 26.140877
v -59.358822 0.405359 25.982204
v -59.616100 0.405359 25.664860
v -59.234821 0.371642 26.154362
v -58.957695 0.223618 26.170250
v -59.095940 0.223618 25.999733
v -59.061756 1.573616 26.348625
v -58.869995 1.410410 26.585159
v -59.025635 0.405359 26.393181
v -59.006012 0.556857 26.417387
v -58.965527 0.556857 26.467323
v -58.965527 1.333453 26.467323
v -59.604427 0.683110 25.679255
v -59.428627 0.642042 25.896103
v -59.061756 1.294327 26.348625
v -59.237560 1.248264 26.131775
v -59.428623 1.248264 25.896103
v -59.372883 1.207198 25.964861
v -59.469112 1.248264 25.846165
v -58.897194 1.517882 26.551611
v -59.604427 1.207198 25.679255
v -59.660175 1.248264 25.610493
v -59.524857 1.207198 25.777405
v -59.293304 1.207198 26.063015
v -59.141331 1.207198 26.250473
v -59.197075 1.248267 26.181713
v -59.006012 1.333453 26.417387
v -59.141331 0.683110 26.250473
v -59.293304 0.683110 26.063017
v -59.237560 0.642042 26.131775
v -59.524857 0.683110 25.777405
v -58.909782 1.294325 26.536083
v -58.909782 0.595982 26.536083
v -58.929077 0.441084 26.512283
v -58.869995 0.545229 26.585159
v -59.358822 1.573616 25.982204
v -59.487461 1.573616 25.823532
v -59.487461 0.405359 25.823532
v -59.183552 1.294327 26.198397
v -59.236515 1.294327 26.133064
v -59.418743 1.294327 25.908293
v -59.471710 1.294327 25.842960
v -59.653934 1.294327 25.618191
v -59.231544 1.513547 26.139196
v -59.371708 1.513547 25.966309
v -59.484074 1.513547 25.827711
v -59.624237 1.513547 25.654823
v -59.087952 1.513548 26.316315
v -59.061756 1.513548 26.348625
vn -0.3306 0.8511 -0.4078
vn -0.4543 0.8111 0.3684
vn -0.7768 -0.0000 0.6298
vn -0.7768 -0.0001 0.6298
vn -0.7768 0.0001 0.6298
vn -0.0000 1.0000 -0.0000
vn -0.1429 -0.9739 -0.1763
vn -0.4679 -0.6693 -0.5771
vn -0.0000 -1.0000 -0.0000
vn -0.7768 -0.0000 0.6297
vn -0.6298 -0.0000 -0.7768
vn -0.5843 0.3729 -0.7208
vn -0.6167 0.2024 -0.7607
vn -0.6297 -0.0000 -0.7768
vn 0.2651 0.9071 0.3269
vn 0.7768 -0.0001 -0.6298
vn 0.7768 -0.0000 -0.6298
vn 0.2650 -0.9071 0.3269
vn 0.2651 -0.9071 0.3269
vn -0.2650 -0.9071 -0.3269
vn 0.6297 -0.0000 0.7768
vn 0.2650 0.9071 0.3269
vn 0.6298 -0.0000 0.7768
vn -0.2650 0.9071 -0.3269
vn -0.2651 0.9071 -0.3270
vn 0.3306 0.8511 0.4078
vn -0.4543 0.8111 0.3683
vn 0.1429 -0.9739 0.1763
vn 0.4679 -0.6693 0.5772
vn 0.2650 0.9071 0.3270
vn 0.5843 0.3729 0.7208
vn 0.6167 0.2024 0.7607
vn -0.2651 0.9071 -0.3269
vn 0.2546 -0.9146 0.3140
vn -0.2546 -0.9146 -0.3141
vn -0.2546 0.9146 -0.3140
vn 0.2546 0.9146 0.3140
vn -0.6150 0.2154 -0.7586
vn -0.2546 -0.9146 -0.3140
vn -0.2546 0.9147 -0.3140
vn 0.6150 0.2154 0.7586
vn 0.4544 0.8111 -0.3684
vn 0.7768 -0.0000 -0.6297
vn 0.4543 0.8111 -0.3684
vn 0.7768 0.0001 -0.6298
vt 0.563424 0.076340
vt 0.553130 0.073518
vt 0.930572 0.423953
vt 0.921307 0.379121
vt 0.987792 0.379121
vt 0.977903 0.423953
vt 0.607372 0.029178
vt 0.597289 0.031257
vt 0.582896 0.026846
vt 0.590093 0.017196
vt 0.572813 0.024865
vt 0.576362 0.017196
vt 0.613360 0.017196
vt 0.614695 0.029178
vt 0.558897 0.019004
vt 0.565490 0.024865
vt 0.555407 0.026846
vt 0.548211 0.024277
vt 0.555407 0.062200
vt 0.548211 0.068077
vt 0.639171 0.057790
vt 0.624778 0.057790
vt 0.624778 0.031257
vt 0.639171 0.031257
vt 0.597289 0.057790
vt 0.582896 0.062201
vt 0.649254 0.029178
vt 0.691136 0.029178
vt 0.681053 0.031257
vt 0.666660 0.031257
vt 0.656577 0.029178
vt 0.565490 0.064181
vt 0.572813 0.064181
vt 0.666660 0.057790
vt 0.681053 0.057790
vt 0.691136 0.059869
vt 0.656577 0.059869
vt 0.649254 0.059869
vt 0.614695 0.059869
vt 0.706379 0.076340
vt 0.683164 0.076340
vt 0.613360 0.076340
vt 0.582896 0.076340
vt 0.659896 0.017196
vt 0.683164 0.017196
vt 0.659896 0.076340
vt 0.636628 0.076340
vt 0.636628 0.017196
vt 0.614506 0.062201
vt 0.604926 0.062201
vt 0.607372 0.059869
vt 0.613607 0.073299
vt 0.638959 0.073299
vt 0.657047 0.062201
vt 0.647466 0.062201
vt 0.659283 0.073299
vt 0.684635 0.073299
vt 0.688839 0.081258
vt 0.699816 0.081258
vt 0.706005 0.126709
vt 0.682651 0.126709
vt 0.698407 0.059869
vt 0.699536 0.062201
vt 0.690007 0.062201
vt 0.612500 0.017196
vt 0.594699 0.017196
vt 0.977903 0.434165
vt 0.930572 0.434165
vt 0.704907 0.073299
vt 0.706379 0.017196
vt 0.698407 0.029178
vt 0.653445 0.126709
vt 0.630032 0.126709
vt 0.639832 0.081258
vt 0.650869 0.081258
vt 0.600826 0.126709
vt 0.570905 0.126710
vt 0.590825 0.081258
vt 0.601862 0.081258
vt 0.587634 0.073299
vt 0.806647 0.062201
vt 0.806647 0.026846
vt 0.565447 0.081258
vt 0.565447 0.126710
vt 0.582896 0.073299
vt 0.836413 0.073518
vt 0.826118 0.076340
vt 0.729647 0.076340
vt 0.978547 0.423953
vt 0.931216 0.423953
vt 0.921327 0.379121
vt 0.987812 0.379121
vt 0.782171 0.029178
vt 0.799450 0.017196
vt 0.792254 0.031257
vt 0.813181 0.017196
vt 0.816730 0.024865
vt 0.774848 0.029178
vt 0.776183 0.017196
vt 0.830646 0.019004
vt 0.841332 0.024277
vt 0.834136 0.026846
vt 0.824053 0.024865
vt 0.841332 0.068077
vt 0.834136 0.062200
vt 0.750372 0.057790
vt 0.750372 0.031257
vt 0.764765 0.031257
vt 0.764765 0.057790
vt 0.792254 0.057790
vt 0.740289 0.029178
vt 0.732966 0.029178
vt 0.722883 0.031257
vt 0.708490 0.031257
vt 0.816730 0.064181
vt 0.824053 0.064181
vt 0.722883 0.057790
vt 0.732966 0.059869
vt 0.708490 0.057790
vt 0.740289 0.059869
vt 0.774848 0.059869
vt 0.806647 0.076340
vt 0.776183 0.076340
vt 0.729647 0.017196
vt 0.752915 0.076340
vt 0.752915 0.017196
vt 0.775037 0.062201
vt 0.782171 0.059869
vt 0.784617 0.062201
vt 0.775936 0.073299
vt 0.750584 0.073299
vt 0.732496 0.062201
vt 0.742077 0.062201
vt 0.730260 0.073299
vt 0.777043 0.017196
vt 0.794844 0.017196
vt 0.978547 0.434165
vt 0.931216 0.434165
vt 0.735211 0.126709
vt 0.737787 0.081258
vt 0.748824 0.081258
vt 0.758624 0.126709
vt 0.787830 0.126709
vt 0.786794 0.081258
vt 0.797831 0.081258
vt 0.817751 0.126710
vt 0.801909 0.073299
vt 0.823209 0.081258
vt 0.823209 0.126710
vt 0.806647 0.073299
s 1
usemtl initialShadingGroup.004
f 10/1/1 132/1/1 154/2/1 32/2/1
f 6/3/2 17/4/2 18/5/2 16/6/2
f 8/7/3 40/8/3 2/9/3 1/10/3
f 1/10/3 2/9/3 22/11/3 21/12/3
f 1/10/3 13/13/3 42/14/3 8/7/3
f 46/15/3 23/16/3 45/17/3 47/18/3
f 45/17/3 44/19/3 20/20/3 47/18/3
f 30/21/4 36/22/4 41/23/5 4/24/5
f 40/8/3 37/25/3 27/26/3 2/9/3
f 23/16/3 46/15/3 21/12/3 22/11/3
f 4/24/5 41/23/5 42/14/3 26/27/3
f 9/28/3 25/29/5 43/30/5 3/31/3
f 10/1/3 32/2/3 24/32/3 39/33/3
f 35/34/4 33/35/4 34/36/3 31/37/3
f 29/38/3 28/39/3 36/22/4 30/21/4
f 43/30/5 25/29/5 33/35/4 35/34/4
f 73/40/6 195/40/6 134/41/6 12/41/6
f 46/15/7 168/15/7 143/12/7 21/12/7
f 11/42/6 133/42/6 141/43/6 19/43/6
f 47/18/8 169/18/8 168/15/8 46/15/8
f 50/44/9 172/44/9 137/45/9 15/45/9
f 19/43/6 141/43/6 132/1/6 10/1/6
f 20/20/3 44/19/3 24/32/3 32/2/3
f 49/46/6 171/46/6 170/47/6 48/47/6
f 26/27/3 42/14/3 13/13/3 14/48/3
f 14/48/3 50/44/3 3/31/3 26/27/3
f 9/28/3 3/31/3 50/44/3 15/45/3
f 52/49/3 51/50/3 38/51/10 28/39/3
f 56/52/3 57/53/3 48/47/3 11/42/3
f 54/54/3 53/55/3 29/38/3 31/37/3
f 58/56/3 59/57/3 12/41/3 49/46/3
f 55/58/3 116/59/3 120/60/3 59/61/3
f 13/13/9 135/13/9 136/48/9 14/48/9
f 20/20/11 142/20/11 169/18/11 47/18/11
f 34/36/3 95/62/3 116/63/3 55/64/3
f 48/47/6 170/47/6 133/42/6 11/42/6
f 32/2/12 154/2/12 142/20/12 20/20/12
f 14/48/9 136/48/9 172/44/9 50/44/9
f 7/65/9 13/13/9 1/10/9 5/66/9
f 6/3/3 16/6/3 7/67/3 5/68/3
f 139/4/13 17/4/13 6/3/13 128/3/13
f 5/68/14 127/68/14 128/3/14 6/3/14
f 7/65/9 129/65/9 135/13/9 13/13/9
f 1/10/9 123/10/9 127/66/9 5/66/9
f 3/31/6 125/31/6 148/27/6 26/27/6
f 26/27/15 148/27/15 126/24/15 4/24/15
f 134/41/16 195/40/17 242/69/17 181/57/17
f 156/36/9 217/62/9 95/62/9 34/36/9
f 33/35/18 155/35/18 156/36/18 34/36/18
f 37/25/19 159/25/19 160/51/19 38/51/19
f 31/37/20 153/37/20 157/34/20 35/34/20
f 25/29/21 147/29/21 155/35/21 33/35/21
f 9/28/22 131/28/22 147/29/22 25/29/22
f 4/24/23 126/24/23 152/21/23 30/21/23
f 8/7/22 130/7/22 162/8/22 40/8/22
f 40/8/23 162/8/23 159/25/23 37/25/23
f 43/30/24 165/30/24 125/31/24 3/31/24
f 38/51/9 160/51/9 150/39/9 28/39/9
f 76/70/3 70/71/3 9/28/3 15/45/3
f 36/22/14 158/22/14 163/23/14 41/23/14
f 35/34/14 157/34/14 165/30/14 43/30/14
f 42/14/6 164/14/6 130/7/6 8/7/6
f 28/39/20 150/39/20 158/22/20 36/22/20
f 31/37/3 34/36/3 55/64/3 54/54/3
f 58/72/3 57/73/3 53/74/3 54/75/3
f 28/39/3 29/38/3 53/55/3 52/49/3
f 56/76/3 60/77/3 51/78/3 52/79/3
f 37/25/3 38/51/10 51/50/3 27/26/3
f 11/42/3 19/43/3 60/80/3 56/52/3
f 49/46/3 48/47/3 57/53/3 58/56/3
f 210/81/23 88/81/23 63/82/23 185/82/23
f 54/75/3 55/58/3 59/61/3 58/72/3
f 52/79/3 53/74/3 57/73/3 56/76/3
f 27/83/3 51/78/3 60/77/3 61/84/3
f 27/26/3 61/85/3 10/1/3 39/33/3
f 10/1/3 61/85/3 60/80/3 19/43/3
f 12/41/6 134/41/6 171/46/6 49/46/6
f 41/23/25 163/23/25 164/14/25 42/14/25
f 15/45/9 137/45/9 198/70/9 76/70/9
f 93/86/26 215/86/26 193/87/26 71/87/26
f 110/88/6 232/88/6 195/40/6 73/40/6
f 67/89/27 77/90/27 79/91/27 78/92/27
f 69/93/3 62/94/3 63/82/3 101/95/3
f 62/94/3 82/96/3 83/97/3 63/82/3
f 62/94/3 69/93/3 103/98/3 74/99/3
f 107/100/3 108/101/3 106/102/3 84/103/3
f 106/102/3 108/101/3 81/104/3 105/105/3
f 91/106/3 65/107/3 102/108/3 97/109/3
f 101/95/3 63/82/3 88/81/3 98/110/3
f 84/103/3 83/97/3 82/96/3 107/100/3
f 65/107/3 87/111/3 103/98/3 102/108/3
f 70/71/3 64/112/3 104/113/3 86/114/3
f 71/87/3 100/115/3 85/116/3 93/86/3
f 96/117/3 92/118/3 95/62/3 94/119/3
f 90/120/3 91/106/3 97/109/3 89/121/3
f 104/113/3 96/117/3 94/119/3 86/114/3
f 198/70/17 137/45/17 131/28/17 192/71/17
f 82/96/28 204/96/28 229/100/28 107/100/28
f 80/122/6 202/122/6 194/123/6 72/123/6
f 107/100/29 229/100/29 230/101/29 108/101/29
f 76/70/9 198/70/9 233/124/9 111/124/9
f 71/87/6 193/87/6 202/122/6 80/122/6
f 81/104/3 93/86/3 85/116/3 105/105/3
f 109/125/6 231/125/6 232/88/6 110/88/6
f 87/111/3 75/126/3 74/99/3 103/98/3
f 75/126/3 87/111/3 64/112/3 111/124/3
f 70/71/3 76/70/3 111/124/3 64/112/3
f 113/127/3 89/121/3 99/128/4 112/129/3
f 117/130/3 72/123/3 109/125/3 118/131/3
f 115/132/3 92/118/3 90/120/3 114/133/3
f 119/134/3 110/88/3 73/40/4 120/69/3
f 75/126/9 197/126/9 196/99/9 74/99/9
f 108/101/23 230/101/23 203/104/23 81/104/23
f 72/123/6 194/123/6 231/125/6 109/125/6
f 103/98/30 225/98/30 224/108/30 102/108/30
f 81/104/31 203/104/31 215/86/31 93/86/31
f 111/124/9 233/124/9 197/126/9 75/126/9
f 68/135/9 66/136/9 62/94/9 74/99/9
f 67/89/3 66/137/3 68/138/3 77/90/3
f 200/92/32 189/89/32 67/89/32 78/92/32
f 67/89/21 189/89/21 188/137/21 66/137/21
f 74/99/9 196/99/9 190/135/9 68/135/9
f 66/136/9 188/136/9 184/94/9 62/94/9
f 87/111/6 209/111/6 186/112/6 64/112/6
f 65/107/33 187/107/33 209/111/33 87/111/33
f 97/109/18 219/109/18 211/121/18 89/121/18
f 95/62/20 217/62/20 216/119/20 94/119/20
f 99/128/20 221/128/20 220/110/20 98/110/20
f 96/117/18 218/117/18 214/118/18 92/118/18
f 94/119/14 216/119/14 208/114/14 86/114/14
f 86/114/24 208/114/24 192/71/24 70/71/24
f 91/106/11 213/106/11 187/107/11 65/107/11
f 101/95/24 223/95/24 191/93/24 69/93/24
f 98/110/11 220/110/11 223/95/11 101/95/11
f 64/112/22 186/112/22 226/113/22 104/113/22
f 89/121/9 211/121/9 221/128/9 99/128/9
f 102/108/21 224/108/21 219/109/21 97/109/21
f 104/113/21 226/113/21 218/117/21 96/117/21
f 69/93/6 191/93/6 225/98/6 103/98/6
f 92/118/3 115/132/3 116/63/3 95/62/3
f 119/139/3 115/140/3 114/141/3 118/142/3
f 89/121/3 113/127/3 114/133/3 90/120/3
f 117/143/3 113/144/3 112/145/3 121/146/3
f 98/110/3 88/81/3 112/129/3 99/128/4
f 72/123/3 117/130/3 121/147/3 80/122/3
f 110/88/3 119/134/3 118/131/3 109/125/3
f 115/140/3 119/139/3 120/60/3 116/59/3
f 113/144/3 117/143/3 118/142/3 114/141/3
f 88/148/3 122/149/3 121/146/3 112/145/3
f 88/81/3 100/115/3 71/87/3 122/150/3
f 71/87/3 80/122/3 121/147/3 122/150/3
f 17/4/9 139/4/9 140/5/9 18/5/9
f 149/26/11 124/9/11 2/9/11 27/26/11
f 222/115/34 100/115/34 88/81/34 210/81/34
f 222/115/9 207/116/9 85/116/9 100/115/9
f 207/116/35 227/105/35 105/105/35 85/116/35
f 227/105/11 228/102/11 106/102/11 105/105/11
f 206/103/36 84/103/36 106/102/36 228/102/36
f 206/103/6 205/97/6 83/97/6 84/103/6
f 185/82/37 63/82/37 83/97/37 205/97/37
f 213/106/20 91/106/20 90/120/20 212/120/20
f 199/90/11 77/90/11 68/138/11 190/138/11
f 199/90/38 201/91/38 79/91/38 77/90/38
f 62/94/9 184/94/9 204/96/9 82/96/9
f 92/118/9 214/118/9 212/120/9 90/120/9
f 161/33/39 149/26/39 27/26/39 39/33/39
f 161/33/9 39/33/9 24/32/9 146/32/9
f 146/32/34 24/32/34 44/19/34 166/19/34
f 166/19/23 44/19/23 45/17/23 167/17/23
f 145/16/37 167/17/37 45/17/37 23/16/37
f 145/16/6 23/16/6 22/11/6 144/11/6
f 124/9/40 144/11/40 22/11/40 2/9/40
f 152/21/19 151/38/19 29/38/19 30/21/19
f 138/6/23 129/67/23 7/67/23 16/6/23
f 138/6/41 16/6/41 18/5/41 140/5/41
f 21/12/9 143/12/9 123/10/9 1/10/9
f 29/38/9 151/38/9 153/37/9 31/37/9
f 128/3/42 138/6/42 140/5/42 139/4/42
f 130/7/17 123/10/17 124/9/17 162/8/17
f 123/10/17 143/12/17 144/11/17 124/9/17
f 123/10/17 130/7/17 164/14/17 135/13/17
f 168/15/17 169/18/17 167/17/17 145/16/17
f 167/17/17 169/18/17 142/20/17 166/19/17
f 152/21/17 126/24/16 163/23/16 158/22/17
f 162/8/17 124/9/17 149/26/43 159/25/17
f 145/16/17 144/11/17 143/12/17 168/15/17
f 126/24/16 148/27/17 164/14/17 163/23/16
f 131/28/17 125/31/17 165/30/17 147/29/17
f 132/1/17 161/33/17 146/32/17 154/2/17
f 157/34/17 153/37/17 156/36/17 155/35/17
f 151/38/17 152/21/17 158/22/17 150/39/17
f 165/30/17 157/34/17 155/35/17 147/29/17
f 142/20/17 154/2/17 146/32/17 166/19/17
f 148/27/17 136/48/17 135/13/17 164/14/17
f 136/48/17 148/27/17 125/31/17 172/44/17
f 131/28/17 137/45/17 172/44/17 125/31/17
f 174/49/17 150/39/17 160/51/17 173/50/17
f 178/52/17 133/42/17 170/47/17 179/53/17
f 176/54/17 153/37/17 151/38/17 175/55/17
f 180/56/17 171/46/17 134/41/16 181/57/17
f 181/61/17 242/60/17 238/59/17 177/58/17
f 177/64/17 238/63/17 217/62/17 156/36/17
f 129/65/9 127/66/9 123/10/9 135/13/9
f 128/3/17 127/68/17 129/67/17 138/6/17
f 153/37/17 176/54/17 177/64/17 156/36/17
f 180/72/17 176/75/17 175/74/17 179/73/17
f 150/39/17 174/49/17 175/55/17 151/38/17
f 178/76/17 174/79/17 173/78/17 182/77/43
f 159/25/17 149/26/43 173/50/17 160/51/17
f 133/42/17 178/52/17 182/80/43 141/43/17
f 171/46/17 180/56/17 179/53/17 170/47/17
f 176/75/17 180/72/17 181/61/17 177/58/17
f 174/79/17 178/76/17 179/73/17 175/74/17
f 149/83/43 183/84/43 182/77/43 173/78/17
f 149/26/43 161/33/17 132/1/17 183/85/43
f 132/1/17 141/43/17 182/80/43 183/85/43
f 131/28/6 9/28/6 70/71/6 192/71/6
f 189/89/44 200/92/44 201/91/44 199/90/44
f 191/93/17 223/95/17 185/82/17 184/94/17
f 184/94/17 185/82/17 205/97/17 204/96/17
f 184/94/17 196/99/17 225/98/17 191/93/17
f 229/100/17 206/103/17 228/102/17 230/101/17
f 228/102/17 227/105/17 203/104/17 230/101/17
f 213/106/17 219/109/17 224/108/17 187/107/17
f 223/95/17 220/110/17 210/81/17 185/82/17
f 206/103/17 229/100/17 204/96/17 205/97/17
f 187/107/17 224/108/17 225/98/17 209/111/17
f 192/71/17 208/114/17 226/113/17 186/112/17
f 193/87/43 215/86/17 207/116/17 222/115/43
f 218/117/45 216/119/45 217/62/17 214/118/17
f 212/120/45 211/121/43 219/109/17 213/106/17
f 226/113/17 208/114/17 216/119/45 218/117/45
f 203/104/17 227/105/17 207/116/17 215/86/17
f 209/111/17 225/98/17 196/99/17 197/126/17
f 197/126/17 233/124/17 186/112/17 209/111/17
f 192/71/17 186/112/17 233/124/17 198/70/17
f 235/127/43 234/129/17 221/128/43 211/121/43
f 239/130/17 240/131/17 231/125/17 194/123/17
f 237/132/17 236/133/17 212/120/45 214/118/17
f 241/134/17 242/69/17 195/40/17 232/88/17
f 190/135/9 196/99/9 184/94/9 188/136/9
f 189/89/17 199/90/17 190/138/17 188/137/17
f 214/118/17 217/62/17 238/63/17 237/132/17
f 241/139/17 240/142/17 236/141/17 237/140/17
f 211/121/43 212/120/45 236/133/17 235/127/43
f 239/143/17 243/146/17 234/145/17 235/144/43
f 220/110/17 221/128/43 234/129/17 210/81/17
f 194/123/17 202/122/17 243/147/17 239/130/17
f 232/88/17 231/125/17 240/131/17 241/134/17
f 237/140/17 238/59/17 242/60/17 241/139/17
f 235/144/43 236/141/17 240/142/17 239/143/17
f 210/148/17 234/145/17 243/146/17 244/149/17
f 210/81/17 244/150/17 193/87/43 222/115/43
f 193/87/43 244/150/17 243/147/17 202/122/17
f 59/57/3 120/69/3 73/40/4 12/41/3
f 79/91/9 201/91/9 200/92/9 78/92/9
