# Blender 5.1.0
# www.blender.org
mtllib barriere55_065.mtl
o barriere55.065
v 45.548729 0.406544 24.287628
v 45.611908 0.597168 24.287762
v 44.965065 0.643228 24.286392
v 45.117870 0.684295 24.286715
v 45.508259 0.406544 24.299637
v 45.508259 0.372827 24.299637
v 45.351990 0.406544 24.299307
v 45.397034 0.643228 24.287308
v 44.661674 0.643228 24.285748
v 45.782845 1.574804 24.288124
v 45.344463 1.574801 24.287195
v 44.731663 1.574801 24.285896
v 45.344463 0.406544 24.287195
v 45.140194 0.406544 24.286762
v 44.731663 0.406544 24.285896
v 45.351990 0.372827 24.299307
v 45.539288 0.224803 24.094440
v 45.319771 0.224803 24.093975
v 45.611904 1.574801 24.287762
v 45.916405 1.411595 24.288408
v 45.669262 0.406544 24.287884
v 45.700424 0.558043 24.287951
v 45.764709 0.558043 24.288086
v 45.764709 1.334638 24.288086
v 44.750195 0.684295 24.285936
v 45.029354 0.643228 24.286528
v 45.611904 1.295513 24.287762
v 45.332745 1.249449 24.287170
v 45.029354 1.249449 24.286528
v 45.117870 1.208383 24.286715
v 44.965065 1.249449 24.286392
v 45.873219 1.519067 24.288317
v 44.750195 1.208383 24.285936
v 44.661674 1.249449 24.285748
v 44.876545 1.208383 24.286203
v 45.244228 1.208383 24.286983
v 45.485550 1.208383 24.287495
v 45.397034 1.249452 24.287308
v 45.700424 1.334638 24.287951
v 45.485550 0.684295 24.287495
v 45.244228 0.684295 24.286983
v 45.332745 0.643228 24.287170
v 44.876545 0.684295 24.286203
v 45.853230 1.295510 24.288273
v 45.853230 0.597168 24.288273
v 45.822590 0.442269 24.288208
v 45.916405 0.546414 24.288408
v 45.140194 1.574801 24.286762
v 44.935928 1.574801 24.286329
v 44.935928 0.406544 24.286329
v 45.418507 1.295513 24.287352
v 45.334404 1.295513 24.287174
v 45.045048 1.295513 24.286560
v 44.960941 1.295513 24.286383
v 44.671585 1.295513 24.285769
v 45.342297 1.514732 24.287191
v 45.119732 1.514732 24.286718
v 44.941307 1.514732 24.286341
v 44.718742 1.514732 24.285870
v 45.570309 1.514733 24.287674
v 45.611904 1.514733 24.287762
v 43.710789 0.406544 24.283733
v 43.647610 0.597168 24.283600
v 44.294449 0.643228 24.284969
v 44.141647 0.684295 24.284647
v 43.751205 0.406544 24.295914
v 43.751205 0.372827 24.295914
v 43.907475 0.406544 24.296244
v 43.862484 0.643228 24.284054
v 44.597839 0.643228 24.285614
v 43.476669 1.574804 24.283237
v 43.915054 1.574801 24.284166
v 44.527851 1.574801 24.285465
v 43.915054 0.406544 24.284166
v 44.119320 0.406544 24.284599
v 44.527851 0.406544 24.285465
v 43.907475 0.372827 24.296244
v 43.721046 0.224803 24.090588
v 43.940559 0.224803 24.091053
v 43.647610 1.574801 24.283600
v 43.343109 1.411595 24.282953
v 43.590252 0.406544 24.283478
v 43.559090 0.558043 24.283411
v 43.494804 0.558043 24.283276
v 43.494804 1.334638 24.283276
v 44.509323 0.684295 24.285425
v 44.230160 0.643228 24.284834
v 43.647610 1.295513 24.283600
v 43.926769 1.249449 24.284191
v 44.230160 1.249449 24.284834
v 44.141647 1.208383 24.284647
v 44.294449 1.249449 24.284969
v 43.386299 1.519067 24.283045
v 44.509323 1.208383 24.285425
v 44.597839 1.249449 24.285614
v 44.382969 1.208383 24.285158
v 44.015289 1.208383 24.284378
v 43.773968 1.208383 24.283867
v 43.862484 1.249452 24.284054
v 43.559090 1.334638 24.283411
v 43.773968 0.684295 24.283867
v 44.015289 0.684295 24.284378
v 43.926769 0.643228 24.284191
v 44.382969 0.684295 24.285158
v 43.406288 1.295510 24.283089
v 43.406288 0.597168 24.283089
v 43.436928 0.442269 24.283154
v 43.343109 0.546414 24.282953
v 44.119320 1.574801 24.284599
v 44.323586 1.574801 24.285032
v 44.323586 0.406544 24.285032
v 43.841007 1.295513 24.284010
v 43.925110 1.295513 24.284187
v 44.214470 1.295513 24.284801
v 44.298573 1.295513 24.284979
v 44.587933 1.295513 24.285593
v 43.917217 1.514732 24.284170
v 44.139782 1.514732 24.284643
v 44.318207 1.514732 24.285021
v 44.540771 1.514732 24.285492
v 43.689205 1.514733 24.283688
v 43.647610 1.514733 24.283600
v 45.548534 0.406544 24.378067
v 45.611713 0.597168 24.378201
v 44.964874 0.643228 24.376831
v 45.117676 0.684295 24.377153
v 45.508118 0.406544 24.365887
v 45.508118 0.372827 24.365887
v 45.351849 0.406544 24.365557
v 45.396839 0.643228 24.377747
v 44.661484 0.643228 24.376186
v 45.782654 1.574804 24.378563
v 45.344269 1.574801 24.377634
v 44.731472 1.574801 24.376335
v 45.344269 0.406544 24.377634
v 45.140003 0.406544 24.377201
v 44.731472 0.406544 24.376335
v 45.351849 0.372827 24.365557
v 45.538277 0.224803 24.571213
v 45.318764 0.224803 24.570747
v 45.611713 1.574801 24.378201
v 45.916214 1.411595 24.378847
v 45.669071 0.406544 24.378323
v 45.700233 0.558043 24.378389
v 45.764519 0.558043 24.378525
v 45.764519 1.334638 24.378525
v 44.750000 0.684295 24.376375
v 45.029163 0.643228 24.376966
v 45.611713 1.295513 24.378201
v 45.332554 1.249449 24.377609
v 45.029163 1.249449 24.376966
v 45.117676 1.208383 24.377153
v 44.964874 1.249449 24.376831
v 45.873024 1.519067 24.378756
v 44.750000 1.208383 24.376375
v 44.661484 1.249449 24.376188
v 44.876354 1.208383 24.376642
v 45.244034 1.208383 24.377422
v 45.485355 1.208383 24.377934
v 45.396839 1.249452 24.377747
v 45.700233 1.334638 24.378389
v 45.485355 0.684295 24.377934
v 45.244034 0.684295 24.377422
v 45.332554 0.643228 24.377609
v 44.876354 0.684295 24.376642
v 45.853035 1.295510 24.378714
v 45.853035 0.597168 24.378714
v 45.822395 0.442269 24.378647
v 45.916214 0.546414 24.378847
v 45.140003 1.574801 24.377201
v 44.935738 1.574801 24.376768
v 44.935738 0.406544 24.376768
v 45.418316 1.295513 24.377792
v 45.334213 1.295513 24.377613
v 45.044853 1.295513 24.377001
v 44.960751 1.295513 24.376822
v 44.671391 1.295513 24.376209
v 45.342106 1.514732 24.377630
v 45.119541 1.514732 24.377159
v 44.941116 1.514732 24.376780
v 44.718552 1.514732 24.376308
v 45.570118 1.514733 24.378113
v 45.611713 1.514733 24.378201
v 43.710594 0.406544 24.374172
v 43.647415 0.597168 24.374039
v 44.294258 0.643228 24.375408
v 44.141453 0.684295 24.375086
v 43.751064 0.406544 24.362164
v 43.751064 0.372827 24.362164
v 43.907333 0.406544 24.362494
v 43.862289 0.643228 24.374493
v 44.597649 0.643228 24.376053
v 43.476479 1.574804 24.373676
v 43.914860 1.574801 24.374605
v 44.527660 1.574801 24.375904
v 43.914860 0.406544 24.374605
v 44.119129 0.406544 24.375038
v 44.527660 0.406544 24.375904
v 43.907333 0.372827 24.362494
v 43.720036 0.224803 24.567360
v 43.939552 0.224803 24.567825
v 43.647419 1.574801 24.374039
v 43.342918 1.411595 24.373392
v 43.590061 0.406544 24.373917
v 43.558899 0.558043 24.373850
v 43.494614 0.558043 24.373714
v 43.494614 1.334638 24.373714
v 44.509129 0.684295 24.375864
v 44.229969 0.643228 24.375273
v 43.647419 1.295513 24.374039
v 43.926579 1.249449 24.374630
v 44.229969 1.249449 24.375273
v 44.141453 1.208383 24.375086
v 44.294258 1.249449 24.375408
v 43.386105 1.519067 24.373484
v 44.509129 1.208383 24.375864
v 44.597649 1.249449 24.376053
v 44.382778 1.208383 24.375597
v 44.015095 1.208383 24.374817
v 43.773773 1.208383 24.374306
v 43.862289 1.249452 24.374493
v 43.558899 1.334638 24.373850
v 43.773773 0.684295 24.374306
v 44.015095 0.684295 24.374817
v 43.926579 0.643228 24.374630
v 44.382778 0.684295 24.375597
v 43.406094 1.295510 24.373528
v 43.406094 0.597168 24.373528
v 43.436733 0.442269 24.373592
v 43.342918 0.546414 24.373392
v 44.119129 1.574801 24.375038
v 44.323395 1.574801 24.375471
v 44.323395 0.406544 24.375471
v 43.840816 1.295513 24.374449
v 43.924919 1.295513 24.374626
v 44.214275 1.295513 24.375240
v 44.298382 1.295513 24.375418
v 44.587738 1.295513 24.376032
v 43.917027 1.514732 24.374609
v 44.139591 1.514732 24.375082
v 44.318016 1.514732 24.375460
v 44.540581 1.514732 24.375931
v 43.689014 1.514733 24.374126
v 43.647419 1.514733 24.374039
vn 0.5249 0.8512 0.0011
vn 0.0012 0.8111 -0.5849
vn 0.0021 -0.0000 -1.0000
vn -0.0000 1.0000 -0.0000
vn 0.2269 -0.9739 0.0005
vn 0.7430 -0.6693 0.0016
vn -0.0000 -1.0000 -0.0000
vn 1.0000 -0.0000 0.0021
vn 0.9279 0.3729 0.0020
vn 0.9793 0.2024 0.0021
vn -0.4208 0.9071 -0.0009
vn -0.0021 -0.0000 1.0000
vn -0.4208 -0.9071 -0.0009
vn -0.4209 -0.9071 -0.0009
vn 0.4208 -0.9071 0.0009
vn -1.0000 -0.0000 -0.0022
vn 0.4208 0.9071 0.0009
vn 1.0000 -0.0000 0.0022
vn -1.0000 -0.0000 -0.0021
vn -0.5249 0.8512 -0.0011
vn -0.2269 -0.9739 -0.0005
vn -0.7430 -0.6693 -0.0016
vn -0.4209 0.9071 -0.0009
vn -0.9279 0.3728 -0.0020
vn -0.9793 0.2024 -0.0021
vn 0.4209 0.9071 0.0009
vn 0.4209 -0.9071 0.0009
vn -0.4043 -0.9146 -0.0009
vn 0.4043 -0.9146 0.0009
vn 0.4043 0.9146 0.0009
vn -0.4043 0.9146 -0.0009
vn 0.9765 0.2154 0.0021
vn -0.9765 0.2154 -0.0021
vn -0.0012 0.8111 0.5849
vt 0.563424 0.076340
vt 0.553130 0.073518
vt 0.930572 0.423953
vt 0.921307 0.379121
vt 0.987792 0.379121
vt 0.977903 0.423953
vt 0.607372 0.029178
vt 0.597289 0.031257
vt 0.582896 0.026846
vt 0.590093 0.017196
vt 0.572813 0.024865
vt 0.576362 0.017196
vt 0.613360 0.017196
vt 0.614695 0.029178
vt 0.558897 0.019004
vt 0.565490 0.024865
vt 0.555407 0.026846
vt 0.548211 0.024277
vt 0.555407 0.062200
vt 0.548211 0.068077
vt 0.639171 0.057790
vt 0.624778 0.057790
vt 0.624778 0.031257
vt 0.639171 0.031257
vt 0.597289 0.057790
vt 0.582896 0.062201
vt 0.649254 0.029178
vt 0.691136 0.029178
vt 0.681053 0.031257
vt 0.666660 0.031257
vt 0.656577 0.029178
vt 0.565490 0.064181
vt 0.572813 0.064181
vt 0.666660 0.057790
vt 0.681053 0.057790
vt 0.691136 0.059869
vt 0.656577 0.059869
vt 0.649254 0.059869
vt 0.614695 0.059869
vt 0.706379 0.076340
vt 0.683164 0.076340
vt 0.613360 0.076340
vt 0.582896 0.076340
vt 0.659896 0.017196
vt 0.683164 0.017196
vt 0.659896 0.076340
vt 0.636628 0.076340
vt 0.636628 0.017196
vt 0.614506 0.062201
vt 0.604926 0.062201
vt 0.607372 0.059869
vt 0.613607 0.073299
vt 0.638959 0.073299
vt 0.657047 0.062201
vt 0.647466 0.062201
vt 0.659283 0.073299
vt 0.684635 0.073299
vt 0.688839 0.081258
vt 0.699816 0.081258
vt 0.706005 0.126709
vt 0.682651 0.126709
vt 0.698407 0.059869
vt 0.699536 0.062201
vt 0.690007 0.062201
vt 0.612500 0.017196
vt 0.594699 0.017196
vt 0.977903 0.434165
vt 0.930572 0.434165
vt 0.704907 0.073299
vt 0.706379 0.017196
vt 0.698407 0.029178
vt 0.653445 0.126709
vt 0.630032 0.126709
vt 0.639832 0.081258
vt 0.650869 0.081258
vt 0.600826 0.126709
vt 0.570905 0.126710
vt 0.590825 0.081258
vt 0.601862 0.081258
vt 0.587634 0.073299
vt 0.806647 0.062201
vt 0.806647 0.026846
vt 0.565447 0.081258
vt 0.565447 0.126710
vt 0.582896 0.073299
vt 0.836413 0.073518
vt 0.826118 0.076340
vt 0.729647 0.076340
vt 0.978547 0.423953
vt 0.931216 0.423953
vt 0.921327 0.379121
vt 0.987812 0.379121
vt 0.782171 0.029178
vt 0.799450 0.017196
vt 0.792254 0.031257
vt 0.813181 0.017196
vt 0.816730 0.024865
vt 0.774848 0.029178
vt 0.776183 0.017196
vt 0.830646 0.019004
vt 0.841332 0.024277
vt 0.834136 0.026846
vt 0.824053 0.024865
vt 0.841332 0.068077
vt 0.834136 0.062200
vt 0.750372 0.057790
vt 0.750372 0.031257
vt 0.764765 0.031257
vt 0.764765 0.057790
vt 0.792254 0.057790
vt 0.740289 0.029178
vt 0.732966 0.029178
vt 0.722883 0.031257
vt 0.708490 0.031257
vt 0.816730 0.064181
vt 0.824053 0.064181
vt 0.722883 0.057790
vt 0.732966 0.059869
vt 0.708490 0.057790
vt 0.740289 0.059869
vt 0.774848 0.059869
vt 0.806647 0.076340
vt 0.776183 0.076340
vt 0.729647 0.017196
vt 0.752915 0.076340
vt 0.752915 0.017196
vt 0.775037 0.062201
vt 0.782171 0.059869
vt 0.784617 0.062201
vt 0.775936 0.073299
vt 0.750584 0.073299
vt 0.732496 0.062201
vt 0.742077 0.062201
vt 0.730260 0.073299
vt 0.777043 0.017196
vt 0.794844 0.017196
vt 0.978547 0.434165
vt 0.931216 0.434165
vt 0.735211 0.126709
vt 0.737787 0.081258
vt 0.748824 0.081258
vt 0.758624 0.126709
vt 0.787830 0.126709
vt 0.786794 0.081258
vt 0.797831 0.081258
vt 0.817751 0.126710
vt 0.801909 0.073299
vt 0.823209 0.081258
vt 0.823209 0.126710
vt 0.806647 0.073299
s 1
usemtl initialShadingGroup.004
f 10/1/1 132/1/1 154/2/1 32/2/1
f 6/3/2 17/4/2 18/5/2 16/6/2
f 8/7/3 40/8/3 2/9/3 1/10/3
f 1/10/3 2/9/3 22/11/3 21/12/3
f 1/10/3 13/13/3 42/14/3 8/7/3
f 46/15/3 23/16/3 45/17/3 47/18/3
f 45/17/3 44/19/3 20/20/3 47/18/3
f 30/21/3 36/22/3 41/23/3 4/24/3
f 40/8/3 37/25/3 27/26/3 2/9/3
f 23/16/3 46/15/3 21/12/3 22/11/3
f 4/24/3 41/23/3 42/14/3 26/27/3
f 9/28/3 25/29/3 43/30/3 3/31/3
f 10/1/3 32/2/3 24/32/3 39/33/3
f 35/34/3 33/35/3 34/36/3 31/37/3
f 29/38/3 28/39/3 36/22/3 30/21/3
f 43/30/3 25/29/3 33/35/3 35/34/3
f 73/40/4 195/40/4 134/41/4 12/41/4
f 46/15/5 168/15/5 143/12/5 21/12/5
f 11/42/4 133/42/4 141/43/4 19/43/4
f 47/18/6 169/18/6 168/15/6 46/15/6
f 50/44/7 172/44/7 137/45/7 15/45/7
f 19/43/4 141/43/4 132/1/4 10/1/4
f 20/20/3 44/19/3 24/32/3 32/2/3
f 49/46/4 171/46/4 170/47/4 48/47/4
f 26/27/3 42/14/3 13/13/3 14/48/3
f 14/48/3 50/44/3 3/31/3 26/27/3
f 9/28/3 3/31/3 50/44/3 15/45/3
f 52/49/3 51/50/3 38/51/3 28/39/3
f 56/52/3 57/53/3 48/47/3 11/42/3
f 54/54/3 53/55/3 29/38/3 31/37/3
f 58/56/3 59/57/3 12/41/3 49/46/3
f 55/58/3 116/59/3 120/60/3 59/61/3
f 13/13/7 135/13/7 136/48/7 14/48/7
f 20/20/8 142/20/8 169/18/8 47/18/8
f 34/36/3 95/62/3 116/63/3 55/64/3
f 48/47/4 170/47/4 133/42/4 11/42/4
f 32/2/9 154/2/9 142/20/9 20/20/9
f 14/48/7 136/48/7 172/44/7 50/44/7
f 7/65/7 13/13/7 1/10/7 5/66/7
f 6/3/3 16/6/3 7/67/3 5/68/3
f 139/4/10 17/4/10 6/3/10 128/3/10
f 5/68/8 127/68/8 128/3/8 6/3/8
f 7/65/7 129/65/7 135/13/7 13/13/7
f 1/10/7 123/10/7 127/66/7 5/66/7
f 3/31/4 125/31/4 148/27/4 26/27/4
f 26/27/11 148/27/11 126/24/11 4/24/11
f 134/41/12 195/40/12 242/69/12 181/57/12
f 156/36/7 217/62/7 95/62/7 34/36/7
f 33/35/13 155/35/13 156/36/13 34/36/13
f 37/25/14 159/25/14 160/51/14 38/51/14
f 31/37/15 153/37/15 157/34/15 35/34/15
f 25/29/16 147/29/16 155/35/16 33/35/16
f 9/28/11 131/28/11 147/29/11 25/29/11
f 4/24/16 126/24/16 152/21/16 30/21/16
f 8/7/11 130/7/11 162/8/11 40/8/11
f 40/8/16 162/8/16 159/25/16 37/25/16
f 43/30/17 165/30/17 125/31/17 3/31/17
f 38/51/7 160/51/7 150/39/7 28/39/7
f 76/70/3 70/71/3 9/28/3 15/45/3
f 36/22/18 158/22/18 163/23/18 41/23/18
f 35/34/8 157/34/8 165/30/8 43/30/8
f 42/14/4 164/14/4 130/7/4 8/7/4
f 28/39/15 150/39/15 158/22/15 36/22/15
f 31/37/3 34/36/3 55/64/3 54/54/3
f 58/72/3 57/73/3 53/74/3 54/75/3
f 28/39/3 29/38/3 53/55/3 52/49/3
f 56/76/3 60/77/3 51/78/3 52/79/3
f 37/25/3 38/51/3 51/50/3 27/26/3
f 11/42/3 19/43/3 60/80/3 56/52/3
f 49/46/3 48/47/3 57/53/3 58/56/3
f 210/81/19 88/81/19 63/82/19 185/82/19
f 54/75/3 55/58/3 59/61/3 58/72/3
f 52/79/3 53/74/3 57/73/3 56/76/3
f 27/83/3 51/78/3 60/77/3 61/84/3
f 27/26/3 61/85/3 10/1/3 39/33/3
f 10/1/3 61/85/3 60/80/3 19/43/3
f 12/41/4 134/41/4 171/46/4 49/46/4
f 41/23/17 163/23/17 164/14/17 42/14/17
f 15/45/7 137/45/7 198/70/7 76/70/7
f 93/86/20 215/86/20 193/87/20 71/87/20
f 110/88/4 232/88/4 195/40/4 73/40/4
f 67/89/2 77/90/2 79/91/2 78/92/2
f 69/93/3 62/94/3 63/82/3 101/95/3
f 62/94/3 82/96/3 83/97/3 63/82/3
f 62/94/3 69/93/3 103/98/3 74/99/3
f 107/100/3 108/101/3 106/102/3 84/103/3
f 106/102/3 108/101/3 81/104/3 105/105/3
f 91/106/3 65/107/3 102/108/3 97/109/3
f 101/95/3 63/82/3 88/81/3 98/110/3
f 84/103/3 83/97/3 82/96/3 107/100/3
f 65/107/3 87/111/3 103/98/3 102/108/3
f 70/71/3 64/112/3 104/113/3 86/114/3
f 71/87/3 100/115/3 85/116/3 93/86/3
f 96/117/3 92/118/3 95/62/3 94/119/3
f 90/120/3 91/106/3 97/109/3 89/121/3
f 104/113/3 96/117/3 94/119/3 86/114/3
f 198/70/12 137/45/12 131/28/12 192/71/12
f 82/96/21 204/96/21 229/100/21 107/100/21
f 80/122/4 202/122/4 194/123/4 72/123/4
f 107/100/22 229/100/22 230/101/22 108/101/22
f 76/70/7 198/70/7 233/124/7 111/124/7
f 71/87/4 193/87/4 202/122/4 80/122/4
f 81/104/3 93/86/3 85/116/3 105/105/3
f 109/125/4 231/125/4 232/88/4 110/88/4
f 87/111/3 75/126/3 74/99/3 103/98/3
f 75/126/3 87/111/3 64/112/3 111/124/3
f 70/71/3 76/70/3 111/124/3 64/112/3
f 113/127/3 89/121/3 99/128/3 112/129/3
f 117/130/3 72/123/3 109/125/3 118/131/3
f 115/132/3 92/118/3 90/120/3 114/133/3
f 119/134/3 110/88/3 73/40/3 120/69/3
f 75/126/7 197/126/7 196/99/7 74/99/7
f 108/101/19 230/101/19 203/104/19 81/104/19
f 72/123/4 194/123/4 231/125/4 109/125/4
f 103/98/23 225/98/23 224/108/23 102/108/23
f 81/104/24 203/104/24 215/86/24 93/86/24
f 111/124/7 233/124/7 197/126/7 75/126/7
f 68/135/7 66/136/7 62/94/7 74/99/7
f 67/89/3 66/137/3 68/138/3 77/90/3
f 200/92/25 189/89/25 67/89/25 78/92/25
f 67/89/19 189/89/19 188/137/19 66/137/19
f 74/99/7 196/99/7 190/135/7 68/135/7
f 66/136/7 188/136/7 184/94/7 62/94/7
f 87/111/4 209/111/4 186/112/4 64/112/4
f 65/107/26 187/107/26 209/111/26 87/111/26
f 97/109/13 219/109/13 211/121/13 89/121/13
f 95/62/15 217/62/15 216/119/15 94/119/15
f 99/128/27 221/128/27 220/110/27 98/110/27
f 96/117/13 218/117/13 214/118/13 92/118/13
f 94/119/18 216/119/18 208/114/18 86/114/18
f 86/114/17 208/114/17 192/71/17 70/71/17
f 91/106/18 213/106/18 187/107/18 65/107/18
f 101/95/17 223/95/17 191/93/17 69/93/17
f 98/110/18 220/110/18 223/95/18 101/95/18
f 64/112/11 186/112/11 226/113/11 104/113/11
f 89/121/7 211/121/7 221/128/7 99/128/7
f 102/108/16 224/108/16 219/109/16 97/109/16
f 104/113/19 226/113/19 218/117/19 96/117/19
f 69/93/4 191/93/4 225/98/4 103/98/4
f 92/118/3 115/132/3 116/63/3 95/62/3
f 119/139/3 115/140/3 114/141/3 118/142/3
f 89/121/3 113/127/3 114/133/3 90/120/3
f 117/143/3 113/144/3 112/145/3 121/146/3
f 98/110/3 88/81/3 112/129/3 99/128/3
f 72/123/3 117/130/3 121/147/3 80/122/3
f 110/88/3 119/134/3 118/131/3 109/125/3
f 115/140/3 119/139/3 120/60/3 116/59/3
f 113/144/3 117/143/3 118/142/3 114/141/3
f 88/148/3 122/149/3 121/146/3 112/145/3
f 88/81/3 100/115/3 71/87/3 122/150/3
f 71/87/3 80/122/3 121/147/3 122/150/3
f 17/4/7 139/4/7 140/5/7 18/5/7
f 149/26/8 124/9/8 2/9/8 27/26/8
f 222/115/28 100/115/28 88/81/28 210/81/28
f 222/115/7 207/116/7 85/116/7 100/115/7
f 207/116/29 227/105/29 105/105/29 85/116/29
f 227/105/18 228/102/18 106/102/18 105/105/18
f 206/103/30 84/103/30 106/102/30 228/102/30
f 206/103/4 205/97/4 83/97/4 84/103/4
f 185/82/31 63/82/31 83/97/31 205/97/31
f 213/106/15 91/106/15 90/120/15 212/120/15
f 199/90/8 77/90/8 68/138/8 190/138/8
f 199/90/32 201/91/32 79/91/32 77/90/32
f 62/94/7 184/94/7 204/96/7 82/96/7
f 92/118/7 214/118/7 212/120/7 90/120/7
f 161/33/29 149/26/29 27/26/29 39/33/29
f 161/33/7 39/33/7 24/32/7 146/32/7
f 146/32/28 24/32/28 44/19/28 166/19/28
f 166/19/16 44/19/16 45/17/16 167/17/16
f 145/16/31 167/17/31 45/17/31 23/16/31
f 145/16/4 23/16/4 22/11/4 144/11/4
f 124/9/30 144/11/30 22/11/30 2/9/30
f 152/21/13 151/38/13 29/38/13 30/21/13
f 138/6/19 129/67/19 7/67/19 16/6/19
f 138/6/33 16/6/33 18/5/33 140/5/33
f 21/12/7 143/12/7 123/10/7 1/10/7
f 29/38/7 151/38/7 153/37/7 31/37/7
f 128/3/34 138/6/34 140/5/34 139/4/34
f 130/7/12 123/10/12 124/9/12 162/8/12
f 123/10/12 143/12/12 144/11/12 124/9/12
f 123/10/12 130/7/12 164/14/12 135/13/12
f 168/15/12 169/18/12 167/17/12 145/16/12
f 167/17/12 169/18/12 142/20/12 166/19/12
f 152/21/12 126/24/12 163/23/12 158/22/12
f 162/8/12 124/9/12 149/26/12 159/25/12
f 145/16/12 144/11/12 143/12/12 168/15/12
f 126/24/12 148/27/12 164/14/12 163/23/12
f 131/28/12 125/31/12 165/30/12 147/29/12
f 132/1/12 161/33/12 146/32/12 154/2/12
f 157/34/12 153/37/12 156/36/12 155/35/12
f 151/38/12 152/21/12 158/22/12 150/39/12
f 165/30/12 157/34/12 155/35/12 147/29/12
f 142/20/12 154/2/12 146/32/12 166/19/12
f 148/27/12 136/48/12 135/13/12 164/14/12
f 136/48/12 148/27/12 125/31/12 172/44/12
f 131/28/12 137/45/12 172/44/12 125/31/12
f 174/49/12 150/39/12 160/51/12 173/50/12
f 178/52/12 133/42/12 170/47/12 179/53/12
f 176/54/12 153/37/12 151/38/12 175/55/12
f 180/56/12 171/46/12 134/41/12 181/57/12
f 181/61/12 242/60/12 238/59/12 177/58/12
f 177/64/12 238/63/12 217/62/12 156/36/12
f 129/65/7 127/66/7 123/10/7 135/13/7
f 128/3/12 127/68/12 129/67/12 138/6/12
f 153/37/12 176/54/12 177/64/12 156/36/12
f 180/72/12 176/75/12 175/74/12 179/73/12
f 150/39/12 174/49/12 175/55/12 151/38/12
f 178/76/12 174/79/12 173/78/12 182/77/12
f 159/25/12 149/26/12 173/50/12 160/51/12
f 133/42/12 178/52/12 182/80/12 141/43/12
f 171/46/12 180/56/12 179/53/12 170/47/12
f 176/75/12 180/72/12 181/61/12 177/58/12
f 174/79/12 178/76/12 179/73/12 175/74/12
f 149/83/12 183/84/12 182/77/12 173/78/12
f 149/26/12 161/33/12 132/1/12 183/85/12
f 132/1/12 141/43/12 182/80/12 183/85/12
f 131/28/4 9/28/4 70/71/4 192/71/4
f 189/89/34 200/92/34 201/91/34 199/90/34
f 191/93/12 223/95/12 185/82/12 184/94/12
f 184/94/12 185/82/12 205/97/12 204/96/12
f 184/94/12 196/99/12 225/98/12 191/93/12
f 229/100/12 206/103/12 228/102/12 230/101/12
f 228/102/12 227/105/12 203/104/12 230/101/12
f 213/106/12 219/109/12 224/108/12 187/107/12
f 223/95/12 220/110/12 210/81/12 185/82/12
f 206/103/12 229/100/12 204/96/12 205/97/12
f 187/107/12 224/108/12 225/98/12 209/111/12
f 192/71/12 208/114/12 226/113/12 186/112/12
f 193/87/12 215/86/12 207/116/12 222/115/12
f 218/117/12 216/119/12 217/62/12 214/118/12
f 212/120/12 211/121/12 219/109/12 213/106/12
f 226/113/12 208/114/12 216/119/12 218/117/12
f 203/104/12 227/105/12 207/116/12 215/86/12
f 209/111/12 225/98/12 196/99/12 197/126/12
f 197/126/12 233/124/12 186/112/12 209/111/12
f 192/71/12 186/112/12 233/124/12 198/70/12
f 235/127/12 234/129/12 221/128/12 211/121/12
f 239/130/12 240/131/12 231/125/12 194/123/12
f 237/132/12 236/133/12 212/120/12 214/118/12
f 241/134/12 242/69/12 195/40/12 232/88/12
f 190/135/7 196/99/7 184/94/7 188/136/7
f 189/89/12 199/90/12 190/138/12 188/137/12
f 214/118/12 217/62/12 238/63/12 237/132/12
f 241/139/12 240/142/12 236/141/12 237/140/12
f 211/121/12 212/120/12 236/133/12 235/127/12
f 239/143/12 243/146/12 234/145/12 235/144/12
f 220/110/12 221/128/12 234/129/12 210/81/12
f 194/123/12 202/122/12 243/147/12 239/130/12
f 232/88/12 231/125/12 240/131/12 241/134/12
f 237/140/12 238/59/12 242/60/12 241/139/12
f 235/144/12 236/141/12 240/142/12 239/143/12
f 210/148/12 234/145/12 243/146/12 244/149/12
f 210/81/12 244/150/12 193/87/12 222/115/12
f 193/87/12 244/150/12 243/147/12 202/122/12
f 59/57/3 120/69/3 73/40/3 12/41/3
f 79/91/7 201/91/7 200/92/7 78/92/7
