# Blender 5.1.0
# www.blender.org
mtllib barriere55_070.mtl
o barriere55.070
v 47.982510 0.406543 9.378593
v 48.038425 0.597167 9.349187
v 47.465923 0.643227 9.650265
v 47.601166 0.684294 9.579141
v 47.952343 0.406543 9.408122
v 47.952343 0.372826 9.408122
v 47.814034 0.406543 9.480860
v 47.848248 0.643227 9.449202
v 47.197403 0.643227 9.791481
v 48.189720 1.574803 9.269621
v 47.801716 1.574800 9.473671
v 47.259346 1.574800 9.758904
v 47.801716 0.406543 9.473671
v 47.620926 0.406543 9.568748
v 47.259346 0.406543 9.758904
v 47.814034 0.372826 9.480860
v 47.883877 0.224802 9.212212
v 47.689594 0.224802 9.314387
v 48.038425 1.574800 9.349187
v 48.307930 1.411594 9.207454
v 48.089191 0.406543 9.322489
v 48.116772 0.558042 9.307984
v 48.173668 0.558042 9.278062
v 48.173668 1.334637 9.278062
v 47.275745 0.684294 9.750279
v 47.522823 0.643227 9.620341
v 48.038425 1.295512 9.349187
v 47.791348 1.249448 9.479125
v 47.522823 1.249448 9.620341
v 47.601166 1.208382 9.579141
v 47.465923 1.249448 9.650265
v 48.269703 1.519066 9.227556
v 47.275745 1.208382 9.750279
v 47.197403 1.249448 9.791481
v 47.387581 1.208382 9.691466
v 47.713001 1.208382 9.520326
v 47.926590 1.208382 9.408001
v 47.848248 1.249451 9.449202
v 48.116772 1.334637 9.307984
v 47.926590 0.684294 9.408001
v 47.713001 0.684294 9.520326
v 47.791348 0.643227 9.479125
v 47.387581 0.684294 9.691466
v 48.252014 1.295509 9.236860
v 48.252014 0.597167 9.236860
v 48.224895 0.442268 9.251122
v 48.307930 0.546413 9.207454
v 47.620926 1.574800 9.568748
v 47.440136 1.574800 9.663826
v 47.440136 0.406543 9.663826
v 47.867252 1.295512 9.439205
v 47.792816 1.295512 9.478353
v 47.536713 1.295512 9.613037
v 47.462273 1.295512 9.652184
v 47.206173 1.295512 9.786868
v 47.799805 1.514731 9.474678
v 47.602814 1.514731 9.578274
v 47.444897 1.514731 9.661323
v 47.247910 1.514731 9.764918
v 48.001610 1.514732 9.368548
v 48.038425 1.514732 9.349187
v 46.355797 0.406543 10.234080
v 46.299881 0.597167 10.263487
v 46.872379 0.643227 9.962409
v 46.737141 0.684294 10.033533
v 46.397221 0.406543 10.225961
v 46.397221 0.372826 10.225961
v 46.535534 0.406543 10.153223
v 46.490059 0.643227 10.163472
v 47.140903 0.643227 9.821193
v 46.148586 1.574803 10.343053
v 46.536587 1.574800 10.139003
v 47.078960 1.574800 9.853770
v 46.536587 0.406543 10.139003
v 46.717377 0.406543 10.043925
v 47.078960 0.406543 9.853770
v 46.535534 0.372826 10.153223
v 46.274605 0.224802 10.058529
v 46.468891 0.224802 9.956354
v 46.299881 1.574800 10.263487
v 46.030376 1.411594 10.405220
v 46.249115 0.406543 10.290185
v 46.221535 0.558042 10.304688
v 46.164639 0.558042 10.334612
v 46.164639 1.334637 10.334612
v 47.062557 0.684294 9.862394
v 46.815483 0.643227 9.992332
v 46.299881 1.295512 10.263487
v 46.546959 1.249448 10.133549
v 46.815483 1.249448 9.992332
v 46.737141 1.208382 10.033533
v 46.872379 1.249448 9.962409
v 46.068604 1.519066 10.385117
v 47.062557 1.208382 9.862394
v 47.140903 1.249448 9.821193
v 46.950726 1.208382 9.921207
v 46.625301 1.208382 10.092348
v 46.411716 1.208382 10.204673
v 46.490059 1.249451 10.163472
v 46.221535 1.334637 10.304688
v 46.411716 0.684294 10.204673
v 46.625301 0.684294 10.092348
v 46.546959 0.643227 10.133549
v 46.950726 0.684294 9.921207
v 46.086292 1.295509 10.375813
v 46.086292 0.597167 10.375813
v 46.113411 0.442268 10.361551
v 46.030376 0.546413 10.405220
v 46.717377 1.574800 10.043925
v 46.898170 1.574800 9.948848
v 46.898170 0.406543 9.948848
v 46.471050 1.295512 10.173469
v 46.545490 1.295512 10.134321
v 46.801594 1.295512 9.999637
v 46.876034 1.295512 9.960489
v 47.132133 1.295512 9.825806
v 46.538502 1.514731 10.137996
v 46.735493 1.514731 10.034400
v 46.893406 1.514731 9.951351
v 47.090397 1.514731 9.847755
v 46.336697 1.514732 10.244125
v 46.299881 1.514732 10.263487
v 48.024605 0.406543 9.458638
v 48.080521 0.597167 9.429232
v 47.508022 0.643227 9.730309
v 47.643261 0.684294 9.659185
v 47.983181 0.406543 9.466758
v 47.983181 0.372826 9.466758
v 47.844868 0.406543 9.539495
v 47.890343 0.643227 9.529246
v 47.239498 0.643227 9.871526
v 48.231815 1.574803 9.349667
v 47.843815 1.574800 9.553716
v 47.301441 1.574800 9.838949
v 47.843815 0.406543 9.553716
v 47.663025 0.406543 9.648793
v 47.301441 0.406543 9.838948
v 47.844868 0.372826 9.539495
v 48.105797 0.224802 9.634190
v 47.911510 0.224802 9.736364
v 48.080521 1.574800 9.429233
v 48.350025 1.411594 9.287498
v 48.131287 0.406543 9.402534
v 48.158867 0.558042 9.388030
v 48.215763 0.558042 9.358107
v 48.215763 1.334637 9.358107
v 47.317844 0.684294 9.830324
v 47.564919 0.643227 9.700386
v 48.080521 1.295512 9.429233
v 47.833443 1.249448 9.559170
v 47.564919 1.249448 9.700386
v 47.643261 1.208382 9.659185
v 47.508022 1.249448 9.730309
v 48.311798 1.519066 9.307602
v 47.317844 1.208382 9.830324
v 47.239498 1.249448 9.871526
v 47.429676 1.208382 9.771511
v 47.755100 1.208382 9.600371
v 47.968685 1.208382 9.488046
v 47.890343 1.249451 9.529246
v 48.158867 1.334637 9.388030
v 47.968685 0.684294 9.488046
v 47.755100 0.684294 9.600371
v 47.833443 0.643227 9.559170
v 47.429676 0.684294 9.771511
v 48.294109 1.295509 9.316906
v 48.294109 0.597167 9.316906
v 48.266991 0.442268 9.331167
v 48.350025 0.546413 9.287498
v 47.663025 1.574800 9.648793
v 47.482231 1.574800 9.743872
v 47.482231 0.406543 9.743871
v 47.909351 1.295512 9.519250
v 47.834911 1.295512 9.558397
v 47.578808 1.295512 9.693082
v 47.504372 1.295512 9.732229
v 47.248268 1.295512 9.866914
v 47.841900 1.514731 9.554723
v 47.644909 1.514731 9.658319
v 47.486996 1.514731 9.741367
v 47.290005 1.514731 9.844963
v 48.043705 1.514732 9.448593
v 48.080521 1.514732 9.429233
v 46.397892 0.406543 10.314125
v 46.341976 0.597167 10.343533
v 46.914478 0.643227 10.042455
v 46.779236 0.684294 10.113578
v 46.428059 0.406543 10.284596
v 46.428059 0.372826 10.284596
v 46.566368 0.406543 10.211859
v 46.532154 0.643227 10.243517
v 47.182999 0.643227 9.901237
v 46.190681 1.574803 10.423098
v 46.578686 1.574800 10.219048
v 47.121056 1.574800 9.933815
v 46.578686 0.406543 10.219048
v 46.759476 0.406543 10.123970
v 47.121056 0.406543 9.933815
v 46.566368 0.372826 10.211859
v 46.496525 0.224802 10.480507
v 46.690807 0.224802 10.378331
v 46.341976 1.574800 10.343532
v 46.072472 1.411594 10.485265
v 46.291210 0.406543 10.370230
v 46.263630 0.558042 10.384734
v 46.206734 0.558042 10.414657
v 46.206734 1.334637 10.414657
v 47.104656 0.684294 9.942440
v 46.857578 0.643227 10.072377
v 46.341976 1.295512 10.343532
v 46.589054 1.249448 10.213593
v 46.857578 1.249448 10.072377
v 46.779236 1.208382 10.113578
v 46.914478 1.249448 10.042455
v 46.110699 1.519066 10.465162
v 47.104656 1.208382 9.942440
v 47.182999 1.249448 9.901237
v 46.992821 1.208382 10.001252
v 46.667400 1.208382 10.172393
v 46.453812 1.208382 10.284718
v 46.532154 1.249451 10.243517
v 46.263630 1.334637 10.384734
v 46.453812 0.684294 10.284718
v 46.667400 0.684294 10.172393
v 46.589054 0.643227 10.213593
v 46.992821 0.684294 10.001252
v 46.128387 1.295509 10.455858
v 46.128387 0.597167 10.455858
v 46.155506 0.442268 10.441596
v 46.072472 0.546413 10.485265
v 46.759476 1.574800 10.123970
v 46.940266 1.574800 10.028893
v 46.940266 0.406543 10.028893
v 46.513149 1.295512 10.253513
v 46.587585 1.295512 10.214366
v 46.843689 1.295512 10.079682
v 46.918129 1.295512 10.040534
v 47.174229 1.295512 9.905850
v 46.580597 1.514731 10.218040
v 46.777588 1.514731 10.114445
v 46.935505 1.514731 10.031396
v 47.132492 1.514731 9.927800
v 46.378792 1.514732 10.324171
v 46.341976 1.514732 10.343532
vn 0.4646 0.8511 -0.2443
vn -0.2723 0.8111 -0.5177
vn -0.4655 -0.0000 -0.8851
vn -0.4654 -0.0000 -0.8851
vn -0.0000 1.0000 -0.0000
vn 0.2008 -0.9739 -0.1056
vn 0.6576 -0.6693 -0.3458
vn -0.0000 -1.0000 -0.0000
vn 0.8851 -0.0000 -0.4655
vn 0.8212 0.3729 -0.4319
vn 0.8668 0.2024 -0.4558
vn -0.3725 0.9071 0.1959
vn 0.4655 -0.0000 0.8851
vn -0.3725 -0.9071 0.1959
vn 0.3725 -0.9071 -0.1959
vn -0.8851 -0.0000 0.4655
vn 0.3725 0.9071 -0.1959
vn -0.4646 0.8511 0.2444
vn -0.2008 -0.9739 0.1056
vn -0.6576 -0.6693 0.3458
vn -0.8212 0.3729 0.4319
vn -0.8668 0.2024 0.4558
vn -0.3578 -0.9146 0.1882
vn 0.3578 -0.9146 -0.1882
vn 0.8851 -0.0000 -0.4654
vn 0.3578 0.9146 -0.1882
vn -0.3578 0.9146 0.1882
vn 0.8643 0.2154 -0.4545
vn -0.8851 -0.0000 0.4654
vn -0.8643 0.2154 0.4545
vn 0.2723 0.8111 0.5177
vn 0.4654 -0.0000 0.8851
vt 0.563424 0.076340
vt 0.553130 0.073518
vt 0.930572 0.423953
vt 0.921307 0.379121
vt 0.987792 0.379121
vt 0.977903 0.423953
vt 0.607372 0.029178
vt 0.597289 0.031257
vt 0.582896 0.026846
vt 0.590093 0.017196
vt 0.572813 0.024865
vt 0.576362 0.017196
vt 0.613360 0.017196
vt 0.614695 0.029178
vt 0.558897 0.019004
vt 0.565490 0.024865
vt 0.555407 0.026846
vt 0.548211 0.024277
vt 0.555407 0.062200
vt 0.548211 0.068077
vt 0.639171 0.057790
vt 0.624778 0.057790
vt 0.624778 0.031257
vt 0.639171 0.031257
vt 0.597289 0.057790
vt 0.582896 0.062201
vt 0.649254 0.029178
vt 0.691136 0.029178
vt 0.681053 0.031257
vt 0.666660 0.031257
vt 0.656577 0.029178
vt 0.565490 0.064181
vt 0.572813 0.064181
vt 0.666660 0.057790
vt 0.681053 0.057790
vt 0.691136 0.059869
vt 0.656577 0.059869
vt 0.649254 0.059869
vt 0.614695 0.059869
vt 0.706379 0.076340
vt 0.683164 0.076340
vt 0.613360 0.076340
vt 0.582896 0.076340
vt 0.659896 0.017196
vt 0.683164 0.017196
vt 0.659896 0.076340
vt 0.636628 0.076340
vt 0.636628 0.017196
vt 0.614506 0.062201
vt 0.604926 0.062201
vt 0.607372 0.059869
vt 0.613607 0.073299
vt 0.638959 0.073299
vt 0.657047 0.062201
vt 0.647466 0.062201
vt 0.659283 0.073299
vt 0.684635 0.073299
vt 0.688839 0.081258
vt 0.699816 0.081258
vt 0.706005 0.126709
vt 0.682651 0.126709
vt 0.698407 0.059869
vt 0.699536 0.062201
vt 0.690007 0.062201
vt 0.612500 0.017196
vt 0.594699 0.017196
vt 0.977903 0.434165
vt 0.930572 0.434165
vt 0.704907 0.073299
vt 0.706379 0.017196
vt 0.698407 0.029178
vt 0.653445 0.126709
vt 0.630032 0.126709
vt 0.639832 0.081258
vt 0.650869 0.081258
vt 0.600826 0.126709
vt 0.570905 0.126710
vt 0.590825 0.081258
vt 0.601862 0.081258
vt 0.587634 0.073299
vt 0.806647 0.062201
vt 0.806647 0.026846
vt 0.565447 0.081258
vt 0.565447 0.126710
vt 0.582896 0.073299
vt 0.836413 0.073518
vt 0.826118 0.076340
vt 0.729647 0.076340
vt 0.978547 0.423953
vt 0.931216 0.423953
vt 0.921327 0.379121
vt 0.987812 0.379121
vt 0.782171 0.029178
vt 0.799450 0.017196
vt 0.792254 0.031257
vt 0.813181 0.017196
vt 0.816730 0.024865
vt 0.774848 0.029178
vt 0.776183 0.017196
vt 0.830646 0.019004
vt 0.841332 0.024277
vt 0.834136 0.026846
vt 0.824053 0.024865
vt 0.841332 0.068077
vt 0.834136 0.062200
vt 0.750372 0.057790
vt 0.750372 0.031257
vt 0.764765 0.031257
vt 0.764765 0.057790
vt 0.792254 0.057790
vt 0.740289 0.029178
vt 0.732966 0.029178
vt 0.722883 0.031257
vt 0.708490 0.031257
vt 0.816730 0.064181
vt 0.824053 0.064181
vt 0.722883 0.057790
vt 0.732966 0.059869
vt 0.708490 0.057790
vt 0.740289 0.059869
vt 0.774848 0.059869
vt 0.806647 0.076340
vt 0.776183 0.076340
vt 0.729647 0.017196
vt 0.752915 0.076340
vt 0.752915 0.017196
vt 0.775037 0.062201
vt 0.782171 0.059869
vt 0.784617 0.062201
vt 0.775936 0.073299
vt 0.750584 0.073299
vt 0.732496 0.062201
vt 0.742077 0.062201
vt 0.730260 0.073299
vt 0.777043 0.017196
vt 0.794844 0.017196
vt 0.978547 0.434165
vt 0.931216 0.434165
vt 0.735211 0.126709
vt 0.737787 0.081258
vt 0.748824 0.081258
vt 0.758624 0.126709
vt 0.787830 0.126709
vt 0.786794 0.081258
vt 0.797831 0.081258
vt 0.817751 0.126710
vt 0.801909 0.073299
vt 0.823209 0.081258
vt 0.823209 0.126710
vt 0.806647 0.073299
s 1
usemtl initialShadingGroup.004
f 10/1/1 132/1/1 154/2/1 32/2/1
f 6/3/2 17/4/2 18/5/2 16/6/2
f 8/7/3 40/8/3 2/9/3 1/10/3
f 1/10/3 2/9/3 22/11/3 21/12/3
f 1/10/3 13/13/3 42/14/3 8/7/3
f 46/15/3 23/16/3 45/17/3 47/18/3
f 45/17/3 44/19/3 20/20/3 47/18/3
f 30/21/3 36/22/3 41/23/3 4/24/3
f 40/8/3 37/25/3 27/26/3 2/9/3
f 23/16/3 46/15/3 21/12/3 22/11/3
f 4/24/3 41/23/3 42/14/3 26/27/3
f 9/28/3 25/29/3 43/30/3 3/31/3
f 10/1/3 32/2/3 24/32/3 39/33/3
f 35/34/3 33/35/3 34/36/3 31/37/3
f 29/38/4 28/39/3 36/22/3 30/21/3
f 43/30/3 25/29/3 33/35/3 35/34/3
f 73/40/5 195/40/5 134/41/5 12/41/5
f 46/15/6 168/15/6 143/12/6 21/12/6
f 11/42/5 133/42/5 141/43/5 19/43/5
f 47/18/7 169/18/7 168/15/7 46/15/7
f 50/44/8 172/44/8 137/45/8 15/45/8
f 19/43/5 141/43/5 132/1/5 10/1/5
f 20/20/3 44/19/3 24/32/3 32/2/3
f 49/46/5 171/46/5 170/47/5 48/47/5
f 26/27/3 42/14/3 13/13/3 14/48/3
f 14/48/3 50/44/3 3/31/3 26/27/3
f 9/28/3 3/31/3 50/44/3 15/45/3
f 52/49/3 51/50/3 38/51/3 28/39/3
f 56/52/3 57/53/3 48/47/3 11/42/3
f 54/54/3 53/55/3 29/38/4 31/37/3
f 58/56/3 59/57/3 12/41/3 49/46/3
f 55/58/3 116/59/3 120/60/3 59/61/3
f 13/13/8 135/13/8 136/48/8 14/48/8
f 20/20/9 142/20/9 169/18/9 47/18/9
f 34/36/3 95/62/3 116/63/3 55/64/3
f 48/47/5 170/47/5 133/42/5 11/42/5
f 32/2/10 154/2/10 142/20/10 20/20/10
f 14/48/8 136/48/8 172/44/8 50/44/8
f 7/65/8 13/13/8 1/10/8 5/66/8
f 6/3/3 16/6/3 7/67/3 5/68/3
f 139/4/11 17/4/11 6/3/11 128/3/11
f 5/68/9 127/68/9 128/3/9 6/3/9
f 7/65/8 129/65/8 135/13/8 13/13/8
f 1/10/8 123/10/8 127/66/8 5/66/8
f 3/31/5 125/31/5 148/27/5 26/27/5
f 26/27/12 148/27/12 126/24/12 4/24/12
f 134/41/13 195/40/13 242/69/13 181/57/13
f 156/36/8 217/62/8 95/62/8 34/36/8
f 33/35/14 155/35/14 156/36/14 34/36/14
f 37/25/14 159/25/14 160/51/14 38/51/14
f 31/37/15 153/37/15 157/34/15 35/34/15
f 25/29/16 147/29/16 155/35/16 33/35/16
f 9/28/12 131/28/12 147/29/12 25/29/12
f 4/24/16 126/24/16 152/21/16 30/21/16
f 8/7/12 130/7/12 162/8/12 40/8/12
f 40/8/16 162/8/16 159/25/16 37/25/16
f 43/30/17 165/30/17 125/31/17 3/31/17
f 38/51/8 160/51/8 150/39/8 28/39/8
f 76/70/3 70/71/3 9/28/3 15/45/3
f 36/22/9 158/22/9 163/23/9 41/23/9
f 35/34/9 157/34/9 165/30/9 43/30/9
f 42/14/5 164/14/5 130/7/5 8/7/5
f 28/39/15 150/39/15 158/22/15 36/22/15
f 31/37/3 34/36/3 55/64/3 54/54/3
f 58/72/3 57/73/3 53/74/3 54/75/3
f 28/39/3 29/38/4 53/55/3 52/49/3
f 56/76/3 60/77/3 51/78/3 52/79/3
f 37/25/3 38/51/3 51/50/3 27/26/3
f 11/42/3 19/43/3 60/80/3 56/52/3
f 49/46/3 48/47/3 57/53/3 58/56/3
f 210/81/16 88/81/16 63/82/16 185/82/16
f 54/75/3 55/58/3 59/61/3 58/72/3
f 52/79/3 53/74/3 57/73/3 56/76/3
f 27/83/3 51/78/3 60/77/3 61/84/3
f 27/26/3 61/85/3 10/1/3 39/33/3
f 10/1/3 61/85/3 60/80/3 19/43/3
f 12/41/5 134/41/5 171/46/5 49/46/5
f 41/23/17 163/23/17 164/14/17 42/14/17
f 15/45/8 137/45/8 198/70/8 76/70/8
f 93/86/18 215/86/18 193/87/18 71/87/18
f 110/88/5 232/88/5 195/40/5 73/40/5
f 67/89/2 77/90/2 79/91/2 78/92/2
f 69/93/3 62/94/3 63/82/3 101/95/3
f 62/94/3 82/96/3 83/97/3 63/82/3
f 62/94/3 69/93/3 103/98/3 74/99/3
f 107/100/3 108/101/3 106/102/3 84/103/3
f 106/102/3 108/101/3 81/104/3 105/105/3
f 91/106/3 65/107/3 102/108/3 97/109/3
f 101/95/3 63/82/3 88/81/3 98/110/3
f 84/103/3 83/97/3 82/96/3 107/100/3
f 65/107/3 87/111/3 103/98/3 102/108/3
f 70/71/3 64/112/3 104/113/3 86/114/3
f 71/87/3 100/115/3 85/116/3 93/86/3
f 96/117/3 92/118/3 95/62/3 94/119/3
f 90/120/3 91/106/3 97/109/3 89/121/3
f 104/113/3 96/117/3 94/119/3 86/114/3
f 198/70/13 137/45/13 131/28/13 192/71/13
f 82/96/19 204/96/19 229/100/19 107/100/19
f 80/122/5 202/122/5 194/123/5 72/123/5
f 107/100/20 229/100/20 230/101/20 108/101/20
f 76/70/8 198/70/8 233/124/8 111/124/8
f 71/87/5 193/87/5 202/122/5 80/122/5
f 81/104/3 93/86/3 85/116/3 105/105/3
f 109/125/5 231/125/5 232/88/5 110/88/5
f 87/111/3 75/126/3 74/99/3 103/98/3
f 75/126/3 87/111/3 64/112/3 111/124/3
f 70/71/3 76/70/3 111/124/3 64/112/3
f 113/127/3 89/121/3 99/128/3 112/129/3
f 117/130/3 72/123/3 109/125/3 118/131/3
f 115/132/3 92/118/3 90/120/3 114/133/3
f 119/134/3 110/88/3 73/40/3 120/69/3
f 75/126/8 197/126/8 196/99/8 74/99/8
f 108/101/16 230/101/16 203/104/16 81/104/16
f 72/123/5 194/123/5 231/125/5 109/125/5
f 103/98/12 225/98/12 224/108/12 102/108/12
f 81/104/21 203/104/21 215/86/21 93/86/21
f 111/124/8 233/124/8 197/126/8 75/126/8
f 68/135/8 66/136/8 62/94/8 74/99/8
f 67/89/3 66/137/3 68/138/3 77/90/3
f 200/92/22 189/89/22 67/89/22 78/92/22
f 67/89/16 189/89/16 188/137/16 66/137/16
f 74/99/8 196/99/8 190/135/8 68/135/8
f 66/136/8 188/136/8 184/94/8 62/94/8
f 87/111/5 209/111/5 186/112/5 64/112/5
f 65/107/17 187/107/17 209/111/17 87/111/17
f 97/109/14 219/109/14 211/121/14 89/121/14
f 95/62/15 217/62/15 216/119/15 94/119/15
f 99/128/15 221/128/15 220/110/15 98/110/15
f 96/117/14 218/117/14 214/118/14 92/118/14
f 94/119/9 216/119/9 208/114/9 86/114/9
f 86/114/17 208/114/17 192/71/17 70/71/17
f 91/106/9 213/106/9 187/107/9 65/107/9
f 101/95/17 223/95/17 191/93/17 69/93/17
f 98/110/9 220/110/9 223/95/9 101/95/9
f 64/112/12 186/112/12 226/113/12 104/113/12
f 89/121/8 211/121/8 221/128/8 99/128/8
f 102/108/16 224/108/16 219/109/16 97/109/16
f 104/113/16 226/113/16 218/117/16 96/117/16
f 69/93/5 191/93/5 225/98/5 103/98/5
f 92/118/3 115/132/3 116/63/3 95/62/3
f 119/139/3 115/140/3 114/141/3 118/142/3
f 89/121/3 113/127/3 114/133/3 90/120/3
f 117/143/3 113/144/3 112/145/3 121/146/3
f 98/110/3 88/81/3 112/129/3 99/128/3
f 72/123/3 117/130/3 121/147/3 80/122/3
f 110/88/3 119/134/3 118/131/3 109/125/3
f 115/140/3 119/139/3 120/60/3 116/59/3
f 113/144/3 117/143/3 118/142/3 114/141/3
f 88/148/3 122/149/3 121/146/3 112/145/3
f 88/81/3 100/115/3 71/87/3 122/150/3
f 71/87/3 80/122/3 121/147/3 122/150/3
f 17/4/8 139/4/8 140/5/8 18/5/8
f 149/26/9 124/9/9 2/9/9 27/26/9
f 222/115/23 100/115/23 88/81/23 210/81/23
f 222/115/8 207/116/8 85/116/8 100/115/8
f 207/116/24 227/105/24 105/105/24 85/116/24
f 227/105/25 228/102/25 106/102/25 105/105/25
f 206/103/26 84/103/26 106/102/26 228/102/26
f 206/103/5 205/97/5 83/97/5 84/103/5
f 185/82/27 63/82/27 83/97/27 205/97/27
f 213/106/15 91/106/15 90/120/15 212/120/15
f 199/90/25 77/90/25 68/138/25 190/138/25
f 199/90/28 201/91/28 79/91/28 77/90/28
f 62/94/8 184/94/8 204/96/8 82/96/8
f 92/118/8 214/118/8 212/120/8 90/120/8
f 161/33/24 149/26/24 27/26/24 39/33/24
f 161/33/8 39/33/8 24/32/8 146/32/8
f 146/32/23 24/32/23 44/19/23 166/19/23
f 166/19/16 44/19/16 45/17/16 167/17/16
f 145/16/27 167/17/27 45/17/27 23/16/27
f 145/16/5 23/16/5 22/11/5 144/11/5
f 124/9/26 144/11/26 22/11/26 2/9/26
f 152/21/14 151/38/14 29/38/14 30/21/14
f 138/6/29 129/67/29 7/67/29 16/6/29
f 138/6/30 16/6/30 18/5/30 140/5/30
f 21/12/8 143/12/8 123/10/8 1/10/8
f 29/38/8 151/38/8 153/37/8 31/37/8
f 128/3/31 138/6/31 140/5/31 139/4/31
f 130/7/13 123/10/13 124/9/13 162/8/13
f 123/10/13 143/12/13 144/11/13 124/9/13
f 123/10/13 130/7/13 164/14/13 135/13/13
f 168/15/13 169/18/13 167/17/13 145/16/13
f 167/17/13 169/18/13 142/20/13 166/19/13
f 152/21/32 126/24/32 163/23/32 158/22/32
f 162/8/13 124/9/13 149/26/13 159/25/13
f 145/16/13 144/11/13 143/12/13 168/15/13
f 126/24/32 148/27/13 164/14/13 163/23/32
f 131/28/13 125/31/13 165/30/13 147/29/13
f 132/1/13 161/33/13 146/32/13 154/2/13
f 157/34/13 153/37/13 156/36/13 155/35/13
f 151/38/13 152/21/32 158/22/32 150/39/13
f 165/30/13 157/34/13 155/35/13 147/29/13
f 142/20/13 154/2/13 146/32/13 166/19/13
f 148/27/13 136/48/13 135/13/13 164/14/13
f 136/48/13 148/27/13 125/31/13 172/44/13
f 131/28/13 137/45/13 172/44/13 125/31/13
f 174/49/13 150/39/13 160/51/13 173/50/13
f 178/52/13 133/42/13 170/47/13 179/53/13
f 176/54/13 153/37/13 151/38/13 175/55/13
f 180/56/13 171/46/13 134/41/13 181/57/13
f 181/61/13 242/60/13 238/59/13 177/58/13
f 177/64/13 238/63/13 217/62/13 156/36/13
f 129/65/8 127/66/8 123/10/8 135/13/8
f 128/3/13 127/68/13 129/67/13 138/6/13
f 153/37/13 176/54/13 177/64/13 156/36/13
f 180/72/13 176/75/13 175/74/13 179/73/13
f 150/39/13 174/49/13 175/55/13 151/38/13
f 178/76/13 174/79/13 173/78/13 182/77/13
f 159/25/13 149/26/13 173/50/13 160/51/13
f 133/42/13 178/52/13 182/80/13 141/43/13
f 171/46/13 180/56/13 179/53/13 170/47/13
f 176/75/13 180/72/13 181/61/13 177/58/13
f 174/79/13 178/76/13 179/73/13 175/74/13
f 149/83/13 183/84/13 182/77/13 173/78/13
f 149/26/13 161/33/13 132/1/13 183/85/13
f 132/1/13 141/43/13 182/80/13 183/85/13
f 131/28/5 9/28/5 70/71/5 192/71/5
f 189/89/31 200/92/31 201/91/31 199/90/31
f 191/93/13 223/95/13 185/82/13 184/94/13
f 184/94/13 185/82/13 205/97/13 204/96/13
f 184/94/13 196/99/13 225/98/13 191/93/13
f 229/100/13 206/103/13 228/102/13 230/101/13
f 228/102/13 227/105/13 203/104/13 230/101/13
f 213/106/13 219/109/13 224/108/13 187/107/13
f 223/95/13 220/110/13 210/81/13 185/82/13
f 206/103/13 229/100/13 204/96/13 205/97/13
f 187/107/13 224/108/13 225/98/13 209/111/13
f 192/71/13 208/114/13 226/113/13 186/112/13
f 193/87/13 215/86/13 207/116/13 222/115/13
f 218/117/13 216/119/13 217/62/13 214/118/13
f 212/120/13 211/121/13 219/109/13 213/106/13
f 226/113/13 208/114/13 216/119/13 218/117/13
f 203/104/13 227/105/13 207/116/13 215/86/13
f 209/111/13 225/98/13 196/99/13 197/126/13
f 197/126/13 233/124/13 186/112/13 209/111/13
f 192/71/13 186/112/13 233/124/13 198/70/13
f 235/127/13 234/129/13 221/128/13 211/121/13
f 239/130/13 240/131/13 231/125/13 194/123/13
f 237/132/13 236/133/13 212/120/13 214/118/13
f 241/134/13 242/69/13 195/40/13 232/88/13
f 190/135/8 196/99/8 184/94/8 188/136/8
f 189/89/13 199/90/13 190/138/13 188/137/13
f 214/118/13 217/62/13 238/63/13 237/132/13
f 241/139/13 240/142/13 236/141/13 237/140/13
f 211/121/13 212/120/13 236/133/13 235/127/13
f 239/143/13 243/146/13 234/145/13 235/144/13
f 220/110/13 221/128/13 234/129/13 210/81/13
f 194/123/13 202/122/13 243/147/13 239/130/13
f 232/88/13 231/125/13 240/131/13 241/134/13
f 237/140/13 238/59/13 242/60/13 241/139/13
f 235/144/13 236/141/13 240/142/13 239/143/13
f 210/148/13 234/145/13 243/146/13 244/149/13
f 210/81/13 244/150/13 193/87/13 222/115/13
f 193/87/13 244/150/13 243/147/13 202/122/13
f 59/57/3 120/69/3 73/40/3 12/41/3
f 79/91/8 201/91/8 200/92/8 78/92/8
