# Blender 5.1.0
# www.blender.org
mtllib barriere55_093.mtl
o barriere55.093
v 31.131626 0.406543 7.153597
v 31.089273 0.597167 7.200476
v 31.522905 0.643227 6.720510
v 31.420469 0.684294 6.833893
v 31.149765 0.406543 7.115480
v 31.149765 0.372826 7.115480
v 31.254526 0.406543 6.999525
v 31.233322 0.643227 7.041036
v 31.726295 0.643227 6.495389
v 30.974678 1.574803 7.327316
v 31.268564 1.574799 7.002028
v 31.679375 1.574799 6.547322
v 31.268564 0.406543 7.002028
v 31.405500 0.406543 6.850460
v 31.679375 0.406543 6.547322
v 31.254526 0.372826 6.999525
v 31.281563 0.224802 7.275784
v 31.428722 0.224802 7.112901
v 31.089273 1.574800 7.200475
v 30.885141 1.411594 7.426420
v 31.050821 0.406543 7.243036
v 31.029932 0.558042 7.266158
v 30.986835 0.558042 7.313859
v 30.986835 1.334637 7.313859
v 31.666954 0.684293 6.561071
v 31.479809 0.643227 6.768213
v 31.089273 1.295512 7.200475
v 31.276419 1.249447 6.993334
v 31.479809 1.249447 6.768213
v 31.420469 1.208382 6.833893
v 31.522905 1.249447 6.720510
v 30.914093 1.519066 7.394373
v 31.666954 1.208382 6.561071
v 31.726295 1.249447 6.495389
v 31.582247 1.208382 6.654828
v 31.335760 1.208382 6.927653
v 31.173981 1.208382 7.106717
v 31.233322 1.249450 7.041036
v 31.029932 1.334637 7.266158
v 31.173981 0.684294 7.106717
v 31.335760 0.684294 6.927653
v 31.276419 0.643227 6.993334
v 31.582247 0.684293 6.654828
v 30.927494 1.295509 7.379541
v 30.927494 0.597167 7.379541
v 30.948034 0.442268 7.356806
v 30.885141 0.546413 7.426420
v 31.405500 1.574799 6.850460
v 31.542439 1.574799 6.698891
v 31.542439 0.406543 6.698891
v 31.218924 1.295511 7.056972
v 31.275307 1.295511 6.994565
v 31.469288 1.295511 6.779857
v 31.525671 1.295511 6.717450
v 31.719652 1.295511 6.502742
v 31.270014 1.514730 7.000423
v 31.419220 1.514730 6.835275
v 31.538832 1.514730 6.702882
v 31.688038 1.514730 6.537734
v 31.117159 1.514732 7.169611
v 31.089273 1.514732 7.200475
v 32.363758 0.406542 5.789816
v 32.406109 0.597166 5.742937
v 31.972477 0.643227 6.222902
v 32.074913 0.684293 6.109520
v 32.327671 0.406542 5.811717
v 32.327671 0.372825 5.811717
v 32.222908 0.406542 5.927671
v 32.262062 0.643226 5.902377
v 31.769089 0.643227 6.448023
v 32.520706 1.574803 5.616096
v 32.226818 1.574799 5.941384
v 31.816008 1.574799 6.396091
v 32.226818 0.406542 5.941384
v 32.089882 0.406542 6.092953
v 31.816008 0.406542 6.396091
v 32.222908 0.372825 5.927671
v 32.500484 0.224801 5.926620
v 32.353325 0.224801 6.089504
v 32.406109 1.574799 5.742938
v 32.610241 1.411593 5.516993
v 32.444561 0.406542 5.700377
v 32.465450 0.558041 5.677255
v 32.508549 0.558041 5.629553
v 32.508549 1.334636 5.629553
v 31.828430 0.684293 6.382341
v 32.015575 0.643227 6.175200
v 32.406109 1.295511 5.742938
v 32.218964 1.249447 5.950079
v 32.015575 1.249447 6.175200
v 32.074913 1.208382 6.109520
v 31.972477 1.249447 6.222902
v 32.581291 1.519065 5.549039
v 31.828430 1.208382 6.382341
v 31.769089 1.249447 6.448023
v 31.913136 1.208382 6.288585
v 32.159622 1.208382 6.015760
v 32.321404 1.208382 5.836696
v 32.262062 1.249450 5.902377
v 32.465450 1.334636 5.677255
v 32.321404 0.684293 5.836696
v 32.159622 0.684293 6.015760
v 32.218964 0.643227 5.950079
v 31.913136 0.684293 6.288585
v 32.567890 1.295509 5.563871
v 32.567890 0.597166 5.563871
v 32.547348 0.442267 5.586607
v 32.610241 0.546412 5.516993
v 32.089882 1.574799 6.092953
v 31.952946 1.574799 6.244522
v 31.952946 0.406542 6.244522
v 32.276459 1.295511 5.886441
v 32.220078 1.295511 5.948848
v 32.026096 1.295511 6.163556
v 31.969711 1.295511 6.225963
v 31.775732 1.295511 6.440670
v 32.225368 1.514730 5.942990
v 32.076164 1.514730 6.108138
v 31.956551 1.514730 6.240530
v 31.807344 1.514730 6.405679
v 32.378223 1.514732 5.773802
v 32.406109 1.514732 5.742938
v 31.064520 0.406543 7.092968
v 31.022165 0.597167 7.139847
v 31.455799 0.643227 6.659882
v 31.353361 0.684294 6.773264
v 31.100607 0.406543 7.071067
v 31.100607 0.372826 7.071067
v 31.205368 0.406543 6.955112
v 31.166214 0.643227 6.980407
v 31.659187 0.643227 6.434761
v 30.907570 1.574803 7.266687
v 31.201456 1.574799 6.941399
v 31.612268 1.574799 6.486693
v 31.201456 0.406543 6.941400
v 31.338394 0.406543 6.789831
v 31.612268 0.406542 6.486693
v 31.205368 0.372826 6.955112
v 30.927792 0.224802 6.956163
v 31.074951 0.224802 6.793280
v 31.022167 1.574800 7.139846
v 30.818033 1.411594 7.365791
v 30.983715 0.406543 7.182407
v 30.962824 0.558042 7.205529
v 30.919727 0.558042 7.253231
v 30.919727 1.334637 7.253231
v 31.599846 0.684293 6.500443
v 31.412701 0.643227 6.707584
v 31.022167 1.295512 7.139846
v 31.209312 1.249447 6.932705
v 31.412701 1.249447 6.707584
v 31.353361 1.208382 6.773264
v 31.455799 1.249447 6.659882
v 30.846987 1.519066 7.333744
v 31.599846 1.208382 6.500443
v 31.659187 1.249447 6.434761
v 31.515141 1.208382 6.594199
v 31.268652 1.208382 6.867024
v 31.106874 1.208382 7.046088
v 31.166214 1.249450 6.980407
v 30.962824 1.334637 7.205529
v 31.106874 0.684294 7.046088
v 31.268652 0.684294 6.867024
v 31.209312 0.643227 6.932705
v 31.515141 0.684293 6.594199
v 30.860386 1.295509 7.318913
v 30.860388 0.597167 7.318913
v 30.880928 0.442268 7.296177
v 30.818033 0.546413 7.365791
v 31.338394 1.574799 6.789831
v 31.475330 1.574799 6.638262
v 31.475330 0.406543 6.638262
v 31.151817 1.295511 6.996343
v 31.208200 1.295511 6.933936
v 31.402182 1.295511 6.719228
v 31.458563 1.295511 6.656821
v 31.652544 1.295511 6.442113
v 31.202908 1.514730 6.939794
v 31.352114 1.514730 6.774646
v 31.471725 1.514730 6.642253
v 31.620932 1.514730 6.477105
v 31.050053 1.514732 7.108982
v 31.022167 1.514732 7.139846
v 32.296650 0.406542 5.729187
v 32.339005 0.597166 5.682308
v 31.905371 0.643227 6.162273
v 32.007809 0.684293 6.048891
v 32.278511 0.406542 5.767304
v 32.278511 0.372825 5.767304
v 32.173752 0.406542 5.883259
v 32.194954 0.643226 5.841748
v 31.701981 0.643227 6.387394
v 32.453598 1.574803 5.555468
v 32.159714 1.574799 5.880755
v 31.748901 1.574799 6.335462
v 32.159714 0.406542 5.880755
v 32.022774 0.406542 6.032324
v 31.748901 0.406542 6.335462
v 32.173752 0.372825 5.883259
v 32.146713 0.224801 5.607000
v 31.999554 0.224801 5.769883
v 32.339001 1.574799 5.682309
v 32.543137 1.411593 5.456364
v 32.377453 0.406542 5.639748
v 32.398346 0.558041 5.616626
v 32.441441 0.558041 5.568924
v 32.441441 1.334636 5.568924
v 31.761322 0.684293 6.321712
v 31.948467 0.643227 6.114571
v 32.339001 1.295511 5.682309
v 32.151855 1.249447 5.889450
v 31.948467 1.249447 6.114571
v 32.007809 1.208382 6.048891
v 31.905371 1.249447 6.162273
v 32.514183 1.519065 5.488410
v 31.761322 1.208382 6.321712
v 31.701981 1.249447 6.387394
v 31.846027 1.208382 6.227956
v 32.092518 1.208382 5.955131
v 32.254295 1.208382 5.776067
v 32.194954 1.249450 5.841747
v 32.398346 1.334636 5.616626
v 32.254295 0.684293 5.776067
v 32.092518 0.684293 5.955131
v 32.151855 0.643226 5.889450
v 31.846027 0.684293 6.227956
v 32.500782 1.295508 5.503242
v 32.500782 0.597166 5.503242
v 32.480240 0.442267 5.525978
v 32.543137 0.546412 5.456364
v 32.022774 1.574799 6.032324
v 31.885838 1.574799 6.183893
v 31.885838 0.406542 6.183893
v 32.209351 1.295511 5.825812
v 32.152969 1.295511 5.888219
v 31.958988 1.295511 6.102926
v 31.902605 1.295511 6.165334
v 31.708624 1.295511 6.380042
v 32.158260 1.514730 5.882360
v 32.009056 1.514730 6.047509
v 31.889444 1.514730 6.179901
v 31.740238 1.514730 6.345050
v 32.311115 1.514732 5.713173
v 32.339001 1.514732 5.682309
vn -0.3519 0.8511 0.3895
vn 0.4340 0.8111 0.3921
vn 0.7420 -0.0000 0.6704
vn -0.0000 1.0000 -0.0000
vn -0.1521 -0.9739 0.1684
vn -0.4981 -0.6693 0.5513
vn -0.0000 -1.0000 -0.0000
vn -0.6704 -0.0000 0.7420
vn -0.6220 0.3729 0.6885
vn -0.6565 0.2024 0.7267
vn 0.2821 0.9071 -0.3123
vn -0.7420 -0.0000 -0.6704
vn 0.2821 -0.9071 -0.3123
vn -0.2821 -0.9071 0.3123
vn 0.6704 -0.0000 -0.7420
vn -0.2821 0.9071 0.3123
vn 0.3519 0.8511 -0.3895
vn 0.7420 -0.0001 0.6704
vn 0.1521 -0.9739 -0.1684
vn 0.4981 -0.6693 -0.5513
vn 0.6220 0.3729 -0.6885
vn 0.6565 0.2024 -0.7267
vn -0.2822 0.9071 0.3123
vn 0.2710 -0.9146 -0.3000
vn -0.2710 -0.9146 0.3000
vn -0.2710 0.9146 0.3000
vn 0.2710 0.9146 -0.3000
vn -0.6546 0.2154 0.7246
vn 0.6546 0.2154 -0.7246
vn -0.4340 0.8111 -0.3921
vt 0.563424 0.076340
vt 0.553130 0.073518
vt 0.930572 0.423953
vt 0.921307 0.379121
vt 0.987792 0.379121
vt 0.977903 0.423953
vt 0.607372 0.029178
vt 0.597289 0.031257
vt 0.582896 0.026846
vt 0.590093 0.017196
vt 0.572813 0.024865
vt 0.576362 0.017196
vt 0.613360 0.017196
vt 0.614695 0.029178
vt 0.558897 0.019004
vt 0.565490 0.024865
vt 0.555407 0.026846
vt 0.548211 0.024277
vt 0.555407 0.062200
vt 0.548211 0.068077
vt 0.639171 0.057790
vt 0.624778 0.057790
vt 0.624778 0.031257
vt 0.639171 0.031257
vt 0.597289 0.057790
vt 0.582896 0.062201
vt 0.649254 0.029178
vt 0.691136 0.029178
vt 0.681053 0.031257
vt 0.666660 0.031257
vt 0.656577 0.029178
vt 0.565490 0.064181
vt 0.572813 0.064181
vt 0.666660 0.057790
vt 0.681053 0.057790
vt 0.691136 0.059869
vt 0.656577 0.059869
vt 0.649254 0.059869
vt 0.614695 0.059869
vt 0.706379 0.076340
vt 0.683164 0.076340
vt 0.613360 0.076340
vt 0.582896 0.076340
vt 0.659896 0.017196
vt 0.683164 0.017196
vt 0.659896 0.076340
vt 0.636628 0.076340
vt 0.636628 0.017196
vt 0.614506 0.062201
vt 0.604926 0.062201
vt 0.607372 0.059869
vt 0.613607 0.073299
vt 0.638959 0.073299
vt 0.657047 0.062201
vt 0.647466 0.062201
vt 0.659283 0.073299
vt 0.684635 0.073299
vt 0.688839 0.081258
vt 0.699816 0.081258
vt 0.706005 0.126709
vt 0.682651 0.126709
vt 0.698407 0.059869
vt 0.699536 0.062201
vt 0.690007 0.062201
vt 0.612500 0.017196
vt 0.594699 0.017196
vt 0.977903 0.434165
vt 0.930572 0.434165
vt 0.704907 0.073299
vt 0.706379 0.017196
vt 0.698407 0.029178
vt 0.653445 0.126709
vt 0.630032 0.126709
vt 0.639832 0.081258
vt 0.650869 0.081258
vt 0.600826 0.126709
vt 0.570905 0.126710
vt 0.590825 0.081258
vt 0.601862 0.081258
vt 0.587634 0.073299
vt 0.806647 0.062201
vt 0.806647 0.026846
vt 0.565447 0.081258
vt 0.565447 0.126710
vt 0.582896 0.073299
vt 0.836413 0.073518
vt 0.826118 0.076340
vt 0.729647 0.076340
vt 0.978547 0.423953
vt 0.931216 0.423953
vt 0.921327 0.379121
vt 0.987812 0.379121
vt 0.782171 0.029178
vt 0.799450 0.017196
vt 0.792254 0.031257
vt 0.813181 0.017196
vt 0.816730 0.024865
vt 0.774848 0.029178
vt 0.776183 0.017196
vt 0.830646 0.019004
vt 0.841332 0.024277
vt 0.834136 0.026846
vt 0.824053 0.024865
vt 0.841332 0.068077
vt 0.834136 0.062200
vt 0.750372 0.057790
vt 0.750372 0.031257
vt 0.764765 0.031257
vt 0.764765 0.057790
vt 0.792254 0.057790
vt 0.740289 0.029178
vt 0.732966 0.029178
vt 0.722883 0.031257
vt 0.708490 0.031257
vt 0.816730 0.064181
vt 0.824053 0.064181
vt 0.722883 0.057790
vt 0.732966 0.059869
vt 0.708490 0.057790
vt 0.740289 0.059869
vt 0.774848 0.059869
vt 0.806647 0.076340
vt 0.776183 0.076340
vt 0.729647 0.017196
vt 0.752915 0.076340
vt 0.752915 0.017196
vt 0.775037 0.062201
vt 0.782171 0.059869
vt 0.784617 0.062201
vt 0.775936 0.073299
vt 0.750584 0.073299
vt 0.732496 0.062201
vt 0.742077 0.062201
vt 0.730260 0.073299
vt 0.777043 0.017196
vt 0.794844 0.017196
vt 0.978547 0.434165
vt 0.931216 0.434165
vt 0.735211 0.126709
vt 0.737787 0.081258
vt 0.748824 0.081258
vt 0.758624 0.126709
vt 0.787830 0.126709
vt 0.786794 0.081258
vt 0.797831 0.081258
vt 0.817751 0.126710
vt 0.801909 0.073299
vt 0.823209 0.081258
vt 0.823209 0.126710
vt 0.806647 0.073299
s 1
usemtl initialShadingGroup.004
f 10/1/1 132/1/1 154/2/1 32/2/1
f 6/3/2 17/4/2 18/5/2 16/6/2
f 8/7/3 40/8/3 2/9/3 1/10/3
f 1/10/3 2/9/3 22/11/3 21/12/3
f 1/10/3 13/13/3 42/14/3 8/7/3
f 46/15/3 23/16/3 45/17/3 47/18/3
f 45/17/3 44/19/3 20/20/3 47/18/3
f 30/21/3 36/22/3 41/23/3 4/24/3
f 40/8/3 37/25/3 27/26/3 2/9/3
f 23/16/3 46/15/3 21/12/3 22/11/3
f 4/24/3 41/23/3 42/14/3 26/27/3
f 9/28/3 25/29/3 43/30/3 3/31/3
f 10/1/3 32/2/3 24/32/3 39/33/3
f 35/34/3 33/35/3 34/36/3 31/37/3
f 29/38/3 28/39/3 36/22/3 30/21/3
f 43/30/3 25/29/3 33/35/3 35/34/3
f 73/40/4 195/40/4 134/41/4 12/41/4
f 46/15/5 168/15/5 143/12/5 21/12/5
f 11/42/4 133/42/4 141/43/4 19/43/4
f 47/18/6 169/18/6 168/15/6 46/15/6
f 50/44/7 172/44/7 137/45/7 15/45/7
f 19/43/4 141/43/4 132/1/4 10/1/4
f 20/20/3 44/19/3 24/32/3 32/2/3
f 49/46/4 171/46/4 170/47/4 48/47/4
f 26/27/3 42/14/3 13/13/3 14/48/3
f 14/48/3 50/44/3 3/31/3 26/27/3
f 9/28/3 3/31/3 50/44/3 15/45/3
f 52/49/3 51/50/3 38/51/3 28/39/3
f 56/52/3 57/53/3 48/47/3 11/42/3
f 54/54/3 53/55/3 29/38/3 31/37/3
f 58/56/3 59/57/3 12/41/3 49/46/3
f 55/58/3 116/59/3 120/60/3 59/61/3
f 13/13/7 135/13/7 136/48/7 14/48/7
f 20/20/8 142/20/8 169/18/8 47/18/8
f 34/36/3 95/62/3 116/63/3 55/64/3
f 48/47/4 170/47/4 133/42/4 11/42/4
f 32/2/9 154/2/9 142/20/9 20/20/9
f 14/48/7 136/48/7 172/44/7 50/44/7
f 7/65/7 13/13/7 1/10/7 5/66/7
f 6/3/3 16/6/3 7/67/3 5/68/3
f 139/4/10 17/4/10 6/3/10 128/3/10
f 5/68/8 127/68/8 128/3/8 6/3/8
f 7/65/7 129/65/7 135/13/7 13/13/7
f 1/10/7 123/10/7 127/66/7 5/66/7
f 3/31/4 125/31/4 148/27/4 26/27/4
f 26/27/11 148/27/11 126/24/11 4/24/11
f 134/41/12 195/40/12 242/69/12 181/57/12
f 156/36/7 217/62/7 95/62/7 34/36/7
f 33/35/13 155/35/13 156/36/13 34/36/13
f 37/25/13 159/25/13 160/51/13 38/51/13
f 31/37/14 153/37/14 157/34/14 35/34/14
f 25/29/15 147/29/15 155/35/15 33/35/15
f 9/28/11 131/28/11 147/29/11 25/29/11
f 4/24/15 126/24/15 152/21/15 30/21/15
f 8/7/11 130/7/11 162/8/11 40/8/11
f 40/8/15 162/8/15 159/25/15 37/25/15
f 43/30/16 165/30/16 125/31/16 3/31/16
f 38/51/7 160/51/7 150/39/7 28/39/7
f 76/70/3 70/71/3 9/28/3 15/45/3
f 36/22/8 158/22/8 163/23/8 41/23/8
f 35/34/8 157/34/8 165/30/8 43/30/8
f 42/14/4 164/14/4 130/7/4 8/7/4
f 28/39/14 150/39/14 158/22/14 36/22/14
f 31/37/3 34/36/3 55/64/3 54/54/3
f 58/72/3 57/73/3 53/74/3 54/75/3
f 28/39/3 29/38/3 53/55/3 52/49/3
f 56/76/3 60/77/3 51/78/3 52/79/3
f 37/25/3 38/51/3 51/50/3 27/26/3
f 11/42/3 19/43/3 60/80/3 56/52/3
f 49/46/3 48/47/3 57/53/3 58/56/3
f 210/81/15 88/81/15 63/82/15 185/82/15
f 54/75/3 55/58/3 59/61/3 58/72/3
f 52/79/3 53/74/3 57/73/3 56/76/3
f 27/83/3 51/78/3 60/77/3 61/84/3
f 27/26/3 61/85/3 10/1/3 39/33/3
f 10/1/3 61/85/3 60/80/3 19/43/3
f 12/41/4 134/41/4 171/46/4 49/46/4
f 41/23/16 163/23/16 164/14/16 42/14/16
f 15/45/7 137/45/7 198/70/7 76/70/7
f 93/86/17 215/86/17 193/87/17 71/87/17
f 110/88/4 232/88/4 195/40/4 73/40/4
f 67/89/2 77/90/2 79/91/2 78/92/2
f 69/93/3 62/94/3 63/82/3 101/95/3
f 62/94/3 82/96/3 83/97/3 63/82/3
f 62/94/3 69/93/3 103/98/3 74/99/3
f 107/100/3 108/101/3 106/102/3 84/103/3
f 106/102/3 108/101/3 81/104/3 105/105/3
f 91/106/18 65/107/3 102/108/3 97/109/18
f 101/95/3 63/82/3 88/81/3 98/110/3
f 84/103/3 83/97/3 82/96/3 107/100/3
f 65/107/3 87/111/3 103/98/3 102/108/3
f 70/71/3 64/112/3 104/113/3 86/114/3
f 71/87/3 100/115/3 85/116/3 93/86/3
f 96/117/3 92/118/3 95/62/3 94/119/3
f 90/120/3 91/106/18 97/109/18 89/121/3
f 104/113/3 96/117/3 94/119/3 86/114/3
f 198/70/12 137/45/12 131/28/12 192/71/12
f 82/96/19 204/96/19 229/100/19 107/100/19
f 80/122/4 202/122/4 194/123/4 72/123/4
f 107/100/20 229/100/20 230/101/20 108/101/20
f 76/70/7 198/70/7 233/124/7 111/124/7
f 71/87/4 193/87/4 202/122/4 80/122/4
f 81/104/3 93/86/3 85/116/3 105/105/3
f 109/125/4 231/125/4 232/88/4 110/88/4
f 87/111/3 75/126/3 74/99/3 103/98/3
f 75/126/3 87/111/3 64/112/3 111/124/3
f 70/71/3 76/70/3 111/124/3 64/112/3
f 113/127/3 89/121/3 99/128/3 112/129/3
f 117/130/3 72/123/3 109/125/3 118/131/3
f 115/132/3 92/118/3 90/120/3 114/133/3
f 119/134/3 110/88/3 73/40/3 120/69/3
f 75/126/7 197/126/7 196/99/7 74/99/7
f 108/101/15 230/101/15 203/104/15 81/104/15
f 72/123/4 194/123/4 231/125/4 109/125/4
f 103/98/11 225/98/11 224/108/11 102/108/11
f 81/104/21 203/104/21 215/86/21 93/86/21
f 111/124/7 233/124/7 197/126/7 75/126/7
f 68/135/7 66/136/7 62/94/7 74/99/7
f 67/89/3 66/137/3 68/138/3 77/90/3
f 200/92/22 189/89/22 67/89/22 78/92/22
f 67/89/15 189/89/15 188/137/15 66/137/15
f 74/99/7 196/99/7 190/135/7 68/135/7
f 66/136/7 188/136/7 184/94/7 62/94/7
f 87/111/4 209/111/4 186/112/4 64/112/4
f 65/107/23 187/107/23 209/111/23 87/111/23
f 97/109/13 219/109/13 211/121/13 89/121/13
f 95/62/14 217/62/14 216/119/14 94/119/14
f 99/128/14 221/128/14 220/110/14 98/110/14
f 96/117/13 218/117/13 214/118/13 92/118/13
f 94/119/8 216/119/8 208/114/8 86/114/8
f 86/114/16 208/114/16 192/71/16 70/71/16
f 91/106/8 213/106/8 187/107/8 65/107/8
f 101/95/16 223/95/16 191/93/16 69/93/16
f 98/110/8 220/110/8 223/95/8 101/95/8
f 64/112/11 186/112/11 226/113/11 104/113/11
f 89/121/7 211/121/7 221/128/7 99/128/7
f 102/108/15 224/108/15 219/109/15 97/109/15
f 104/113/15 226/113/15 218/117/15 96/117/15
f 69/93/4 191/93/4 225/98/4 103/98/4
f 92/118/3 115/132/3 116/63/3 95/62/3
f 119/139/3 115/140/3 114/141/3 118/142/3
f 89/121/3 113/127/3 114/133/3 90/120/3
f 117/143/3 113/144/3 112/145/3 121/146/3
f 98/110/3 88/81/3 112/129/3 99/128/3
f 72/123/3 117/130/3 121/147/3 80/122/3
f 110/88/3 119/134/3 118/131/3 109/125/3
f 115/140/3 119/139/3 120/60/3 116/59/3
f 113/144/3 117/143/3 118/142/3 114/141/3
f 88/148/3 122/149/3 121/146/3 112/145/3
f 88/81/3 100/115/3 71/87/3 122/150/3
f 71/87/3 80/122/3 121/147/3 122/150/3
f 17/4/7 139/4/7 140/5/7 18/5/7
f 149/26/8 124/9/8 2/9/8 27/26/8
f 222/115/24 100/115/24 88/81/24 210/81/24
f 222/115/7 207/116/7 85/116/7 100/115/7
f 207/116/25 227/105/25 105/105/25 85/116/25
f 227/105/8 228/102/8 106/102/8 105/105/8
f 206/103/26 84/103/26 106/102/26 228/102/26
f 206/103/4 205/97/4 83/97/4 84/103/4
f 185/82/27 63/82/27 83/97/27 205/97/27
f 213/106/14 91/106/14 90/120/14 212/120/14
f 199/90/8 77/90/8 68/138/8 190/138/8
f 199/90/28 201/91/28 79/91/28 77/90/28
f 62/94/7 184/94/7 204/96/7 82/96/7
f 92/118/7 214/118/7 212/120/7 90/120/7
f 161/33/25 149/26/25 27/26/25 39/33/25
f 161/33/7 39/33/7 24/32/7 146/32/7
f 146/32/24 24/32/24 44/19/24 166/19/24
f 166/19/15 44/19/15 45/17/15 167/17/15
f 145/16/27 167/17/27 45/17/27 23/16/27
f 145/16/4 23/16/4 22/11/4 144/11/4
f 124/9/26 144/11/26 22/11/26 2/9/26
f 152/21/13 151/38/13 29/38/13 30/21/13
f 138/6/15 129/67/15 7/67/15 16/6/15
f 138/6/29 16/6/29 18/5/29 140/5/29
f 21/12/7 143/12/7 123/10/7 1/10/7
f 29/38/7 151/38/7 153/37/7 31/37/7
f 128/3/30 138/6/30 140/5/30 139/4/30
f 130/7/12 123/10/12 124/9/12 162/8/12
f 123/10/12 143/12/12 144/11/12 124/9/12
f 123/10/12 130/7/12 164/14/12 135/13/12
f 168/15/12 169/18/12 167/17/12 145/16/12
f 167/17/12 169/18/12 142/20/12 166/19/12
f 152/21/12 126/24/12 163/23/12 158/22/12
f 162/8/12 124/9/12 149/26/12 159/25/12
f 145/16/12 144/11/12 143/12/12 168/15/12
f 126/24/12 148/27/12 164/14/12 163/23/12
f 131/28/12 125/31/12 165/30/12 147/29/12
f 132/1/12 161/33/12 146/32/12 154/2/12
f 157/34/12 153/37/12 156/36/12 155/35/12
f 151/38/12 152/21/12 158/22/12 150/39/12
f 165/30/12 157/34/12 155/35/12 147/29/12
f 142/20/12 154/2/12 146/32/12 166/19/12
f 148/27/12 136/48/12 135/13/12 164/14/12
f 136/48/12 148/27/12 125/31/12 172/44/12
f 131/28/12 137/45/12 172/44/12 125/31/12
f 174/49/12 150/39/12 160/51/12 173/50/12
f 178/52/12 133/42/12 170/47/12 179/53/12
f 176/54/12 153/37/12 151/38/12 175/55/12
f 180/56/12 171/46/12 134/41/12 181/57/12
f 181/61/12 242/60/12 238/59/12 177/58/12
f 177/64/12 238/63/12 217/62/12 156/36/12
f 129/65/7 127/66/7 123/10/7 135/13/7
f 128/3/12 127/68/12 129/67/12 138/6/12
f 153/37/12 176/54/12 177/64/12 156/36/12
f 180/72/12 176/75/12 175/74/12 179/73/12
f 150/39/12 174/49/12 175/55/12 151/38/12
f 178/76/12 174/79/12 173/78/12 182/77/12
f 159/25/12 149/26/12 173/50/12 160/51/12
f 133/42/12 178/52/12 182/80/12 141/43/12
f 171/46/12 180/56/12 179/53/12 170/47/12
f 176/75/12 180/72/12 181/61/12 177/58/12
f 174/79/12 178/76/12 179/73/12 175/74/12
f 149/83/12 183/84/12 182/77/12 173/78/12
f 149/26/12 161/33/12 132/1/12 183/85/12
f 132/1/12 141/43/12 182/80/12 183/85/12
f 131/28/4 9/28/4 70/71/4 192/71/4
f 189/89/30 200/92/30 201/91/30 199/90/30
f 191/93/12 223/95/12 185/82/12 184/94/12
f 184/94/12 185/82/12 205/97/12 204/96/12
f 184/94/12 196/99/12 225/98/12 191/93/12
f 229/100/12 206/103/12 228/102/12 230/101/12
f 228/102/12 227/105/12 203/104/12 230/101/12
f 213/106/12 219/109/12 224/108/12 187/107/12
f 223/95/12 220/110/12 210/81/12 185/82/12
f 206/103/12 229/100/12 204/96/12 205/97/12
f 187/107/12 224/108/12 225/98/12 209/111/12
f 192/71/12 208/114/12 226/113/12 186/112/12
f 193/87/12 215/86/12 207/116/12 222/115/12
f 218/117/12 216/119/12 217/62/12 214/118/12
f 212/120/12 211/121/12 219/109/12 213/106/12
f 226/113/12 208/114/12 216/119/12 218/117/12
f 203/104/12 227/105/12 207/116/12 215/86/12
f 209/111/12 225/98/12 196/99/12 197/126/12
f 197/126/12 233/124/12 186/112/12 209/111/12
f 192/71/12 186/112/12 233/124/12 198/70/12
f 235/127/12 234/129/12 221/128/12 211/121/12
f 239/130/12 240/131/12 231/125/12 194/123/12
f 237/132/12 236/133/12 212/120/12 214/118/12
f 241/134/12 242/69/12 195/40/12 232/88/12
f 190/135/7 196/99/7 184/94/7 188/136/7
f 189/89/12 199/90/12 190/138/12 188/137/12
f 214/118/12 217/62/12 238/63/12 237/132/12
f 241/139/12 240/142/12 236/141/12 237/140/12
f 211/121/12 212/120/12 236/133/12 235/127/12
f 239/143/12 243/146/12 234/145/12 235/144/12
f 220/110/12 221/128/12 234/129/12 210/81/12
f 194/123/12 202/122/12 243/147/12 239/130/12
f 232/88/12 231/125/12 240/131/12 241/134/12
f 237/140/12 238/59/12 242/60/12 241/139/12
f 235/144/12 236/141/12 240/142/12 239/143/12
f 210/148/12 234/145/12 243/146/12 244/149/12
f 210/81/12 244/150/12 193/87/12 222/115/12
f 193/87/12 244/150/12 243/147/12 202/122/12
f 59/57/3 120/69/3 73/40/3 12/41/3
f 79/91/7 201/91/7 200/92/7 78/92/7
