# Blender 5.1.0
# www.blender.org
mtllib barriere55_113.mtl
o barriere55.113
v -27.810928 0.406541 -9.954670
v -27.759342 0.597165 -9.991141
v -28.287514 0.643225 -9.617729
v -28.162745 0.684292 -9.705940
v -27.836969 0.406541 -9.921447
v -27.836969 0.372824 -9.921447
v -27.964571 0.406541 -9.831234
v -27.934795 0.643225 -9.867098
v -28.535246 0.643225 -9.442585
v -27.619762 1.574801 -10.089823
v -27.977722 1.574798 -9.836749
v -28.478098 1.574798 -9.482988
v -27.977722 0.406541 -9.836749
v -28.144514 0.406541 -9.718829
v -28.478098 0.406541 -9.482988
v -27.964571 0.372824 -9.831234
v -27.930485 0.224800 -10.106712
v -28.109728 0.224800 -9.979989
v -27.759342 1.574798 -9.991140
v -27.510704 1.411592 -10.166925
v -27.712507 0.406541 -10.024253
v -27.687061 0.558040 -10.042242
v -27.634569 0.558040 -10.079353
v -27.634569 1.334635 -10.079353
v -28.462967 0.684292 -9.493685
v -28.235022 0.643225 -9.654841
v -27.759342 1.295510 -9.991140
v -27.987289 1.249446 -9.829985
v -28.235022 1.249446 -9.654841
v -28.162745 1.208380 -9.705940
v -28.287514 1.249446 -9.617729
v -27.545969 1.519064 -10.141994
v -28.462967 1.208380 -9.493685
v -28.535246 1.249446 -9.442585
v -28.359795 1.208380 -9.566628
v -28.059566 1.208380 -9.778885
v -27.862518 1.208380 -9.918197
v -27.934795 1.249449 -9.867098
v -27.687061 1.334635 -10.042242
v -27.862518 0.684292 -9.918197
v -28.059566 0.684292 -9.778885
v -27.987289 0.643225 -9.829985
v -28.359795 0.684292 -9.566628
v -27.562290 1.295507 -10.130454
v -27.562290 0.597165 -10.130454
v -27.587311 0.442266 -10.112766
v -27.510704 0.546411 -10.166925
v -28.144514 1.574798 -9.718829
v -28.311306 1.574798 -9.600908
v -28.311306 0.406541 -9.600908
v -27.917259 1.295510 -9.879496
v -27.985935 1.295510 -9.830943
v -28.222206 1.295510 -9.663900
v -28.290882 1.295510 -9.615347
v -28.527155 1.295510 -9.448305
v -27.979488 1.514729 -9.835501
v -28.161224 1.514729 -9.707015
v -28.306913 1.514729 -9.604014
v -28.488649 1.514729 -9.475529
v -27.793306 1.514730 -9.967129
v -27.759342 1.514730 -9.991140
v -29.311687 0.406541 -8.893649
v -29.363276 0.597165 -8.857177
v -28.835102 0.643225 -9.230590
v -28.959873 0.684292 -9.142379
v -29.271683 0.406541 -8.907121
v -29.271683 0.372824 -8.907121
v -29.144081 0.406541 -8.997334
v -29.187822 0.643225 -8.981221
v -28.587370 0.643225 -9.405734
v -29.502855 1.574801 -8.758495
v -29.144896 1.574798 -9.011569
v -28.644520 1.574798 -9.365331
v -29.144896 0.406541 -9.011569
v -28.978104 0.406541 -9.129490
v -28.644520 0.406541 -9.365331
v -29.144081 0.372824 -8.997334
v -29.415157 0.224800 -9.057064
v -29.235914 0.224800 -9.183787
v -29.363274 1.574798 -8.857178
v -29.611914 1.411592 -8.681393
v -29.410110 0.406541 -8.824065
v -29.435555 0.558040 -8.806076
v -29.488047 0.558040 -8.768965
v -29.488047 1.334635 -8.768965
v -28.659649 0.684292 -9.354633
v -28.887596 0.643225 -9.193478
v -29.363274 1.295510 -8.857178
v -29.135328 1.249446 -9.018333
v -28.887596 1.249446 -9.193478
v -28.959873 1.208380 -9.142379
v -28.835102 1.249446 -9.230590
v -29.576649 1.519064 -8.706326
v -28.659649 1.208380 -9.354633
v -28.587370 1.249446 -9.405734
v -28.762823 1.208380 -9.281691
v -29.063049 1.208380 -9.069433
v -29.260099 1.208380 -8.930121
v -29.187822 1.249449 -8.981221
v -29.435555 1.334635 -8.806076
v -29.260099 0.684292 -8.930121
v -29.063049 0.684292 -9.069433
v -29.135328 0.643225 -9.018333
v -28.762823 0.684292 -9.281691
v -29.560326 1.295507 -8.717864
v -29.560326 0.597165 -8.717864
v -29.535307 0.442266 -8.735553
v -29.611914 0.546411 -8.681393
v -28.978104 1.574798 -9.129490
v -28.811312 1.574798 -9.247410
v -28.811312 0.406541 -9.247410
v -29.205359 1.295510 -8.968823
v -29.136683 1.295510 -9.017376
v -28.900410 1.295510 -9.184418
v -28.831734 1.295510 -9.232971
v -28.595461 1.295510 -9.400014
v -29.143129 1.514729 -9.012818
v -28.961393 1.514729 -9.141303
v -28.815704 1.514729 -9.244305
v -28.633968 1.514729 -9.372790
v -29.329309 1.514730 -8.881190
v -29.363274 1.514730 -8.857178
v -27.758720 0.406541 -9.880822
v -27.707132 0.597165 -9.917295
v -28.235306 0.643225 -9.543881
v -28.110535 0.684292 -9.632092
v -27.798725 0.406541 -9.867351
v -27.798725 0.372824 -9.867351
v -27.926327 0.406541 -9.777138
v -27.882586 0.643225 -9.793250
v -28.483038 0.643225 -9.368737
v -27.567553 1.574801 -10.015976
v -27.925512 1.574798 -9.762902
v -28.425888 1.574798 -9.409141
v -27.925512 0.406541 -9.762902
v -28.092304 0.406541 -9.644981
v -28.425888 0.406541 -9.409141
v -27.926327 0.372824 -9.777138
v -27.655251 0.224800 -9.717407
v -27.834494 0.224800 -9.590684
v -27.707132 1.574798 -9.917294
v -27.458494 1.411592 -10.093079
v -27.660297 0.406541 -9.950406
v -27.634853 0.558040 -9.968395
v -27.582361 0.558040 -10.005507
v -27.582361 1.334635 -10.005507
v -28.410759 0.684292 -9.419838
v -28.182812 0.643225 -9.580994
v -27.707132 1.295510 -9.917294
v -27.935080 1.249446 -9.756138
v -28.182812 1.249446 -9.580994
v -28.110535 1.208380 -9.632092
v -28.235306 1.249446 -9.543881
v -27.493759 1.519064 -10.068146
v -28.410759 1.208380 -9.419838
v -28.483038 1.249446 -9.368737
v -28.307585 1.208380 -9.492780
v -28.007359 1.208380 -9.705038
v -27.810308 1.208380 -9.844350
v -27.882586 1.249449 -9.793250
v -27.634853 1.334635 -9.968394
v -27.810308 0.684292 -9.844350
v -28.007359 0.684292 -9.705038
v -27.935080 0.643225 -9.756138
v -28.307585 0.684292 -9.492781
v -27.510082 1.295507 -10.056606
v -27.510082 0.597165 -10.056607
v -27.535101 0.442266 -10.038918
v -27.458494 0.546411 -10.093079
v -28.092304 1.574798 -9.644981
v -28.259096 1.574798 -9.527061
v -28.259096 0.406541 -9.527061
v -27.865049 1.295510 -9.805648
v -27.933725 1.295510 -9.757095
v -28.169998 1.295510 -9.590053
v -28.238674 1.295510 -9.541500
v -28.474947 1.295510 -9.374457
v -27.927279 1.514729 -9.761653
v -28.109015 1.514729 -9.633167
v -28.254704 1.514729 -9.530167
v -28.436440 1.514729 -9.401681
v -27.741096 1.514730 -9.893281
v -27.707132 1.514730 -9.917294
v -29.259480 0.406541 -8.819801
v -29.311066 0.597165 -8.783330
v -28.782894 0.643225 -9.156742
v -28.907663 0.684292 -9.068531
v -29.233438 0.406541 -8.853024
v -29.233438 0.372824 -8.853024
v -29.105837 0.406541 -8.943237
v -29.135612 0.643225 -8.907373
v -28.535162 0.643225 -9.331886
v -29.450645 1.574801 -8.684649
v -29.092686 1.574798 -8.937722
v -28.592310 1.574798 -9.291483
v -29.092686 0.406541 -8.937722
v -28.925894 0.406541 -9.055642
v -28.592310 0.406541 -9.291483
v -29.105837 0.372824 -8.943237
v -29.139923 0.224800 -8.667759
v -28.960680 0.224800 -8.794482
v -29.311066 1.574798 -8.783331
v -29.559704 1.411592 -8.607545
v -29.357901 0.406541 -8.750218
v -29.383347 0.558040 -8.732229
v -29.435839 0.558040 -8.695118
v -29.435839 1.334635 -8.695117
v -28.607441 0.684292 -9.280787
v -28.835386 0.643225 -9.119630
v -29.311066 1.295510 -8.783331
v -29.083118 1.249446 -8.944487
v -28.835386 1.249446 -9.119630
v -28.907663 1.208380 -9.068531
v -28.782894 1.249446 -9.156742
v -29.524439 1.519064 -8.632478
v -28.607441 1.208380 -9.280786
v -28.535160 1.249446 -9.331886
v -28.710613 1.208380 -9.207844
v -29.010841 1.208380 -8.995586
v -29.207890 1.208380 -8.856274
v -29.135612 1.249449 -8.907373
v -29.383345 1.334635 -8.732229
v -29.207890 0.684292 -8.856275
v -29.010841 0.684292 -8.995586
v -29.083118 0.643225 -8.944487
v -28.710613 0.684292 -9.207844
v -29.508118 1.295507 -8.644017
v -29.508118 0.597165 -8.644017
v -29.483097 0.442266 -8.661705
v -29.559704 0.546411 -8.607546
v -28.925894 1.574798 -9.055642
v -28.759102 1.574798 -9.173563
v -28.759102 0.406541 -9.173563
v -29.153149 1.295510 -8.894976
v -29.084473 1.295510 -8.943528
v -28.848200 1.295510 -9.110571
v -28.779526 1.295510 -9.159123
v -28.543253 1.295510 -9.326166
v -29.090919 1.514729 -8.938971
v -28.909184 1.514729 -9.067456
v -28.763494 1.514729 -9.170457
v -28.581758 1.514729 -9.298943
v -29.277102 1.514730 -8.807343
v -29.311066 1.514730 -8.783331
vn 0.4286 0.8511 -0.3030
vn -0.3377 0.8111 -0.4776
vn -0.5773 -0.0000 -0.8165
vn -0.0000 1.0000 -0.0000
vn 0.1853 -0.9739 -0.1310
vn 0.6067 -0.6693 -0.4289
vn -0.0000 -1.0000 -0.0000
vn 0.8165 -0.0000 -0.5773
vn 0.7577 0.3729 -0.5357
vn 0.7996 0.2024 -0.5653
vn 0.8166 -0.0000 -0.5773
vn -0.3436 0.9071 0.2430
vn 0.5773 -0.0000 0.8165
vn -0.3436 -0.9071 0.2429
vn -0.3437 -0.9071 0.2430
vn 0.3436 -0.9071 -0.2429
vn -0.8165 -0.0000 0.5773
vn -0.3437 0.9071 0.2429
vn -0.3437 0.9071 0.2430
vn 0.3436 0.9071 -0.2430
vn -0.4286 0.8511 0.3030
vn -0.1853 -0.9739 0.1310
vn -0.6067 -0.6693 0.4289
vn -0.7577 0.3729 0.5357
vn -0.7996 0.2024 0.5653
vn -0.8166 -0.0000 0.5773
vn 0.3437 0.9071 -0.2430
vn 0.3437 -0.9071 -0.2430
vn 0.3436 0.9071 -0.2429
vn -0.3436 0.9071 0.2429
vn -0.3301 -0.9146 0.2334
vn 0.3301 -0.9146 -0.2334
vn 0.3301 0.9146 -0.2334
vn -0.3301 0.9146 0.2334
vn 0.3436 -0.9071 -0.2430
vn 0.7974 0.2154 -0.5637
vn -0.7974 0.2154 0.5637
vn 0.3377 0.8111 0.4776
vt 0.563424 0.076340
vt 0.553130 0.073518
vt 0.930572 0.423953
vt 0.921307 0.379121
vt 0.987792 0.379121
vt 0.977903 0.423953
vt 0.607372 0.029178
vt 0.597289 0.031257
vt 0.582896 0.026846
vt 0.590093 0.017196
vt 0.572813 0.024865
vt 0.576362 0.017196
vt 0.613360 0.017196
vt 0.614695 0.029178
vt 0.558897 0.019004
vt 0.565490 0.024865
vt 0.555407 0.026846
vt 0.548211 0.024277
vt 0.555407 0.062200
vt 0.548211 0.068077
vt 0.639171 0.057790
vt 0.624778 0.057790
vt 0.624778 0.031257
vt 0.639171 0.031257
vt 0.597289 0.057790
vt 0.582896 0.062201
vt 0.649254 0.029178
vt 0.691136 0.029178
vt 0.681053 0.031257
vt 0.666660 0.031257
vt 0.656577 0.029178
vt 0.565490 0.064181
vt 0.572813 0.064181
vt 0.666660 0.057790
vt 0.681053 0.057790
vt 0.691136 0.059869
vt 0.656577 0.059869
vt 0.649254 0.059869
vt 0.614695 0.059869
vt 0.706379 0.076340
vt 0.683164 0.076340
vt 0.613360 0.076340
vt 0.582896 0.076340
vt 0.659896 0.017196
vt 0.683164 0.017196
vt 0.659896 0.076340
vt 0.636628 0.076340
vt 0.636628 0.017196
vt 0.614506 0.062201
vt 0.604926 0.062201
vt 0.607372 0.059869
vt 0.613607 0.073299
vt 0.638959 0.073299
vt 0.657047 0.062201
vt 0.647466 0.062201
vt 0.659283 0.073299
vt 0.684635 0.073299
vt 0.688839 0.081258
vt 0.699816 0.081258
vt 0.706005 0.126709
vt 0.682651 0.126709
vt 0.698407 0.059869
vt 0.699536 0.062201
vt 0.690007 0.062201
vt 0.612500 0.017196
vt 0.594699 0.017196
vt 0.977903 0.434165
vt 0.930572 0.434165
vt 0.704907 0.073299
vt 0.706379 0.017196
vt 0.698407 0.029178
vt 0.653445 0.126709
vt 0.630032 0.126709
vt 0.639832 0.081258
vt 0.650869 0.081258
vt 0.600826 0.126709
vt 0.570905 0.126710
vt 0.590825 0.081258
vt 0.601862 0.081258
vt 0.587634 0.073299
vt 0.806647 0.062201
vt 0.806647 0.026846
vt 0.565447 0.081258
vt 0.565447 0.126710
vt 0.582896 0.073299
vt 0.836413 0.073518
vt 0.826118 0.076340
vt 0.729647 0.076340
vt 0.978547 0.423953
vt 0.931216 0.423953
vt 0.921327 0.379121
vt 0.987812 0.379121
vt 0.782171 0.029178
vt 0.799450 0.017196
vt 0.792254 0.031257
vt 0.813181 0.017196
vt 0.816730 0.024865
vt 0.774848 0.029178
vt 0.776183 0.017196
vt 0.830646 0.019004
vt 0.841332 0.024277
vt 0.834136 0.026846
vt 0.824053 0.024865
vt 0.841332 0.068077
vt 0.834136 0.062200
vt 0.750372 0.057790
vt 0.750372 0.031257
vt 0.764765 0.031257
vt 0.764765 0.057790
vt 0.792254 0.057790
vt 0.740289 0.029178
vt 0.732966 0.029178
vt 0.722883 0.031257
vt 0.708490 0.031257
vt 0.816730 0.064181
vt 0.824053 0.064181
vt 0.722883 0.057790
vt 0.732966 0.059869
vt 0.708490 0.057790
vt 0.740289 0.059869
vt 0.774848 0.059869
vt 0.806647 0.076340
vt 0.776183 0.076340
vt 0.729647 0.017196
vt 0.752915 0.076340
vt 0.752915 0.017196
vt 0.775037 0.062201
vt 0.782171 0.059869
vt 0.784617 0.062201
vt 0.775936 0.073299
vt 0.750584 0.073299
vt 0.732496 0.062201
vt 0.742077 0.062201
vt 0.730260 0.073299
vt 0.777043 0.017196
vt 0.794844 0.017196
vt 0.978547 0.434165
vt 0.931216 0.434165
vt 0.735211 0.126709
vt 0.737787 0.081258
vt 0.748824 0.081258
vt 0.758624 0.126709
vt 0.787830 0.126709
vt 0.786794 0.081258
vt 0.797831 0.081258
vt 0.817751 0.126710
vt 0.801909 0.073299
vt 0.823209 0.081258
vt 0.823209 0.126710
vt 0.806647 0.073299
s 1
usemtl initialShadingGroup.004
f 10/1/1 132/1/1 154/2/1 32/2/1
f 6/3/2 17/4/2 18/5/2 16/6/2
f 8/7/3 40/8/3 2/9/3 1/10/3
f 1/10/3 2/9/3 22/11/3 21/12/3
f 1/10/3 13/13/3 42/14/3 8/7/3
f 46/15/3 23/16/3 45/17/3 47/18/3
f 45/17/3 44/19/3 20/20/3 47/18/3
f 30/21/3 36/22/3 41/23/3 4/24/3
f 40/8/3 37/25/3 27/26/3 2/9/3
f 23/16/3 46/15/3 21/12/3 22/11/3
f 4/24/3 41/23/3 42/14/3 26/27/3
f 9/28/3 25/29/3 43/30/3 3/31/3
f 10/1/3 32/2/3 24/32/3 39/33/3
f 35/34/3 33/35/3 34/36/3 31/37/3
f 29/38/3 28/39/3 36/22/3 30/21/3
f 43/30/3 25/29/3 33/35/3 35/34/3
f 73/40/4 195/40/4 134/41/4 12/41/4
f 46/15/5 168/15/5 143/12/5 21/12/5
f 11/42/4 133/42/4 141/43/4 19/43/4
f 47/18/6 169/18/6 168/15/6 46/15/6
f 50/44/7 172/44/7 137/45/7 15/45/7
f 19/43/4 141/43/4 132/1/4 10/1/4
f 20/20/3 44/19/3 24/32/3 32/2/3
f 49/46/4 171/46/4 170/47/4 48/47/4
f 26/27/3 42/14/3 13/13/3 14/48/3
f 14/48/3 50/44/3 3/31/3 26/27/3
f 9/28/3 3/31/3 50/44/3 15/45/3
f 52/49/3 51/50/3 38/51/3 28/39/3
f 56/52/3 57/53/3 48/47/3 11/42/3
f 54/54/3 53/55/3 29/38/3 31/37/3
f 58/56/3 59/57/3 12/41/3 49/46/3
f 55/58/3 116/59/3 120/60/3 59/61/3
f 13/13/7 135/13/7 136/48/7 14/48/7
f 20/20/8 142/20/8 169/18/8 47/18/8
f 34/36/3 95/62/3 116/63/3 55/64/3
f 48/47/4 170/47/4 133/42/4 11/42/4
f 32/2/9 154/2/9 142/20/9 20/20/9
f 14/48/7 136/48/7 172/44/7 50/44/7
f 7/65/7 13/13/7 1/10/7 5/66/7
f 6/3/3 16/6/3 7/67/3 5/68/3
f 139/4/10 17/4/10 6/3/10 128/3/10
f 5/68/11 127/68/11 128/3/11 6/3/11
f 7/65/7 129/65/7 135/13/7 13/13/7
f 1/10/7 123/10/7 127/66/7 5/66/7
f 3/31/4 125/31/4 148/27/4 26/27/4
f 26/27/12 148/27/12 126/24/12 4/24/12
f 134/41/13 195/40/13 242/69/13 181/57/13
f 156/36/7 217/62/7 95/62/7 34/36/7
f 33/35/14 155/35/14 156/36/14 34/36/14
f 37/25/15 159/25/15 160/51/15 38/51/15
f 31/37/16 153/37/16 157/34/16 35/34/16
f 25/29/17 147/29/17 155/35/17 33/35/17
f 9/28/18 131/28/18 147/29/18 25/29/18
f 4/24/17 126/24/17 152/21/17 30/21/17
f 8/7/19 130/7/19 162/8/19 40/8/19
f 40/8/17 162/8/17 159/25/17 37/25/17
f 43/30/20 165/30/20 125/31/20 3/31/20
f 38/51/7 160/51/7 150/39/7 28/39/7
f 76/70/3 70/71/3 9/28/3 15/45/3
f 36/22/8 158/22/8 163/23/8 41/23/8
f 35/34/8 157/34/8 165/30/8 43/30/8
f 42/14/4 164/14/4 130/7/4 8/7/4
f 28/39/16 150/39/16 158/22/16 36/22/16
f 31/37/3 34/36/3 55/64/3 54/54/3
f 58/72/3 57/73/3 53/74/3 54/75/3
f 28/39/3 29/38/3 53/55/3 52/49/3
f 56/76/3 60/77/3 51/78/3 52/79/3
f 37/25/3 38/51/3 51/50/3 27/26/3
f 11/42/3 19/43/3 60/80/3 56/52/3
f 49/46/3 48/47/3 57/53/3 58/56/3
f 210/81/17 88/81/17 63/82/17 185/82/17
f 54/75/3 55/58/3 59/61/3 58/72/3
f 52/79/3 53/74/3 57/73/3 56/76/3
f 27/83/3 51/78/3 60/77/3 61/84/3
f 27/26/3 61/85/3 10/1/3 39/33/3
f 10/1/3 61/85/3 60/80/3 19/43/3
f 12/41/4 134/41/4 171/46/4 49/46/4
f 41/23/20 163/23/20 164/14/20 42/14/20
f 15/45/7 137/45/7 198/70/7 76/70/7
f 93/86/21 215/86/21 193/87/21 71/87/21
f 110/88/4 232/88/4 195/40/4 73/40/4
f 67/89/2 77/90/2 79/91/2 78/92/2
f 69/93/3 62/94/3 63/82/3 101/95/3
f 62/94/3 82/96/3 83/97/3 63/82/3
f 62/94/3 69/93/3 103/98/3 74/99/3
f 107/100/3 108/101/3 106/102/3 84/103/3
f 106/102/3 108/101/3 81/104/3 105/105/3
f 91/106/3 65/107/3 102/108/3 97/109/3
f 101/95/3 63/82/3 88/81/3 98/110/3
f 84/103/3 83/97/3 82/96/3 107/100/3
f 65/107/3 87/111/3 103/98/3 102/108/3
f 70/71/3 64/112/3 104/113/3 86/114/3
f 71/87/3 100/115/3 85/116/3 93/86/3
f 96/117/3 92/118/3 95/62/3 94/119/3
f 90/120/3 91/106/3 97/109/3 89/121/3
f 104/113/3 96/117/3 94/119/3 86/114/3
f 198/70/13 137/45/13 131/28/13 192/71/13
f 82/96/22 204/96/22 229/100/22 107/100/22
f 80/122/4 202/122/4 194/123/4 72/123/4
f 107/100/23 229/100/23 230/101/23 108/101/23
f 76/70/7 198/70/7 233/124/7 111/124/7
f 71/87/4 193/87/4 202/122/4 80/122/4
f 81/104/3 93/86/3 85/116/3 105/105/3
f 109/125/4 231/125/4 232/88/4 110/88/4
f 87/111/3 75/126/3 74/99/3 103/98/3
f 75/126/3 87/111/3 64/112/3 111/124/3
f 70/71/3 76/70/3 111/124/3 64/112/3
f 113/127/3 89/121/3 99/128/3 112/129/3
f 117/130/3 72/123/3 109/125/3 118/131/3
f 115/132/3 92/118/3 90/120/3 114/133/3
f 119/134/3 110/88/3 73/40/3 120/69/3
f 75/126/7 197/126/7 196/99/7 74/99/7
f 108/101/17 230/101/17 203/104/17 81/104/17
f 72/123/4 194/123/4 231/125/4 109/125/4
f 103/98/12 225/98/12 224/108/12 102/108/12
f 81/104/24 203/104/24 215/86/24 93/86/24
f 111/124/7 233/124/7 197/126/7 75/126/7
f 68/135/7 66/136/7 62/94/7 74/99/7
f 67/89/3 66/137/3 68/138/3 77/90/3
f 200/92/25 189/89/25 67/89/25 78/92/25
f 67/89/26 189/89/26 188/137/26 66/137/26
f 74/99/7 196/99/7 190/135/7 68/135/7
f 66/136/7 188/136/7 184/94/7 62/94/7
f 87/111/4 209/111/4 186/112/4 64/112/4
f 65/107/27 187/107/27 209/111/27 87/111/27
f 97/109/14 219/109/14 211/121/14 89/121/14
f 95/62/16 217/62/16 216/119/16 94/119/16
f 99/128/28 221/128/28 220/110/28 98/110/28
f 96/117/14 218/117/14 214/118/14 92/118/14
f 94/119/8 216/119/8 208/114/8 86/114/8
f 86/114/29 208/114/29 192/71/29 70/71/29
f 91/106/8 213/106/8 187/107/8 65/107/8
f 101/95/27 223/95/27 191/93/27 69/93/27
f 98/110/8 220/110/8 223/95/8 101/95/8
f 64/112/30 186/112/30 226/113/30 104/113/30
f 89/121/7 211/121/7 221/128/7 99/128/7
f 102/108/17 224/108/17 219/109/17 97/109/17
f 104/113/17 226/113/17 218/117/17 96/117/17
f 69/93/4 191/93/4 225/98/4 103/98/4
f 92/118/3 115/132/3 116/63/3 95/62/3
f 119/139/3 115/140/3 114/141/3 118/142/3
f 89/121/3 113/127/3 114/133/3 90/120/3
f 117/143/3 113/144/3 112/145/3 121/146/3
f 98/110/3 88/81/3 112/129/3 99/128/3
f 72/123/3 117/130/3 121/147/3 80/122/3
f 110/88/3 119/134/3 118/131/3 109/125/3
f 115/140/3 119/139/3 120/60/3 116/59/3
f 113/144/3 117/143/3 118/142/3 114/141/3
f 88/148/3 122/149/3 121/146/3 112/145/3
f 88/81/3 100/115/3 71/87/3 122/150/3
f 71/87/3 80/122/3 121/147/3 122/150/3
f 17/4/7 139/4/7 140/5/7 18/5/7
f 149/26/8 124/9/8 2/9/8 27/26/8
f 222/115/31 100/115/31 88/81/31 210/81/31
f 222/115/7 207/116/7 85/116/7 100/115/7
f 207/116/32 227/105/32 105/105/32 85/116/32
f 227/105/8 228/102/8 106/102/8 105/105/8
f 206/103/33 84/103/33 106/102/33 228/102/33
f 206/103/4 205/97/4 83/97/4 84/103/4
f 185/82/34 63/82/34 83/97/34 205/97/34
f 213/106/35 91/106/35 90/120/35 212/120/35
f 199/90/11 77/90/11 68/138/11 190/138/11
f 199/90/36 201/91/36 79/91/36 77/90/36
f 62/94/7 184/94/7 204/96/7 82/96/7
f 92/118/7 214/118/7 212/120/7 90/120/7
f 161/33/32 149/26/32 27/26/32 39/33/32
f 161/33/7 39/33/7 24/32/7 146/32/7
f 146/32/31 24/32/31 44/19/31 166/19/31
f 166/19/26 44/19/26 45/17/26 167/17/26
f 145/16/34 167/17/34 45/17/34 23/16/34
f 145/16/4 23/16/4 22/11/4 144/11/4
f 124/9/33 144/11/33 22/11/33 2/9/33
f 152/21/14 151/38/14 29/38/14 30/21/14
f 138/6/26 129/67/26 7/67/26 16/6/26
f 138/6/37 16/6/37 18/5/37 140/5/37
f 21/12/7 143/12/7 123/10/7 1/10/7
f 29/38/7 151/38/7 153/37/7 31/37/7
f 128/3/38 138/6/38 140/5/38 139/4/38
f 130/7/13 123/10/13 124/9/13 162/8/13
f 123/10/13 143/12/13 144/11/13 124/9/13
f 123/10/13 130/7/13 164/14/13 135/13/13
f 168/15/13 169/18/13 167/17/13 145/16/13
f 167/17/13 169/18/13 142/20/13 166/19/13
f 152/21/13 126/24/13 163/23/13 158/22/13
f 162/8/13 124/9/13 149/26/13 159/25/13
f 145/16/13 144/11/13 143/12/13 168/15/13
f 126/24/13 148/27/13 164/14/13 163/23/13
f 131/28/13 125/31/13 165/30/13 147/29/13
f 132/1/13 161/33/13 146/32/13 154/2/13
f 157/34/13 153/37/13 156/36/13 155/35/13
f 151/38/13 152/21/13 158/22/13 150/39/13
f 165/30/13 157/34/13 155/35/13 147/29/13
f 142/20/13 154/2/13 146/32/13 166/19/13
f 148/27/13 136/48/13 135/13/13 164/14/13
f 136/48/13 148/27/13 125/31/13 172/44/13
f 131/28/13 137/45/13 172/44/13 125/31/13
f 174/49/13 150/39/13 160/51/13 173/50/13
f 178/52/13 133/42/13 170/47/13 179/53/13
f 176/54/13 153/37/13 151/38/13 175/55/13
f 180/56/13 171/46/13 134/41/13 181/57/13
f 181/61/13 242/60/13 238/59/13 177/58/13
f 177/64/13 238/63/13 217/62/13 156/36/13
f 129/65/7 127/66/7 123/10/7 135/13/7
f 128/3/13 127/68/13 129/67/13 138/6/13
f 153/37/13 176/54/13 177/64/13 156/36/13
f 180/72/13 176/75/13 175/74/13 179/73/13
f 150/39/13 174/49/13 175/55/13 151/38/13
f 178/76/13 174/79/13 173/78/13 182/77/13
f 159/25/13 149/26/13 173/50/13 160/51/13
f 133/42/13 178/52/13 182/80/13 141/43/13
f 171/46/13 180/56/13 179/53/13 170/47/13
f 176/75/13 180/72/13 181/61/13 177/58/13
f 174/79/13 178/76/13 179/73/13 175/74/13
f 149/83/13 183/84/13 182/77/13 173/78/13
f 149/26/13 161/33/13 132/1/13 183/85/13
f 132/1/13 141/43/13 182/80/13 183/85/13
f 131/28/4 9/28/4 70/71/4 192/71/4
f 189/89/38 200/92/38 201/91/38 199/90/38
f 191/93/13 223/95/13 185/82/13 184/94/13
f 184/94/13 185/82/13 205/97/13 204/96/13
f 184/94/13 196/99/13 225/98/13 191/93/13
f 229/100/13 206/103/13 228/102/13 230/101/13
f 228/102/13 227/105/13 203/104/13 230/101/13
f 213/106/13 219/109/13 224/108/13 187/107/13
f 223/95/13 220/110/13 210/81/13 185/82/13
f 206/103/13 229/100/13 204/96/13 205/97/13
f 187/107/13 224/108/13 225/98/13 209/111/13
f 192/71/13 208/114/13 226/113/13 186/112/13
f 193/87/13 215/86/13 207/116/13 222/115/13
f 218/117/13 216/119/13 217/62/13 214/118/13
f 212/120/13 211/121/13 219/109/13 213/106/13
f 226/113/13 208/114/13 216/119/13 218/117/13
f 203/104/13 227/105/13 207/116/13 215/86/13
f 209/111/13 225/98/13 196/99/13 197/126/13
f 197/126/13 233/124/13 186/112/13 209/111/13
f 192/71/13 186/112/13 233/124/13 198/70/13
f 235/127/13 234/129/13 221/128/13 211/121/13
f 239/130/13 240/131/13 231/125/13 194/123/13
f 237/132/13 236/133/13 212/120/13 214/118/13
f 241/134/13 242/69/13 195/40/13 232/88/13
f 190/135/7 196/99/7 184/94/7 188/136/7
f 189/89/13 199/90/13 190/138/13 188/137/13
f 214/118/13 217/62/13 238/63/13 237/132/13
f 241/139/13 240/142/13 236/141/13 237/140/13
f 211/121/13 212/120/13 236/133/13 235/127/13
f 239/143/13 243/146/13 234/145/13 235/144/13
f 220/110/13 221/128/13 234/129/13 210/81/13
f 194/123/13 202/122/13 243/147/13 239/130/13
f 232/88/13 231/125/13 240/131/13 241/134/13
f 237/140/13 238/59/13 242/60/13 241/139/13
f 235/144/13 236/141/13 240/142/13 239/143/13
f 210/148/13 234/145/13 243/146/13 244/149/13
f 210/81/13 244/150/13 193/87/13 222/115/13
f 193/87/13 244/150/13 243/147/13 202/122/13
f 59/57/3 120/69/3 73/40/3 12/41/3
f 79/91/7 201/91/7 200/92/7 78/92/7
