# Blender 5.1.0
# www.blender.org
mtllib barriere55_117.mtl
o barriere55.117
v -45.894489 0.445688 -8.858276
v -45.934277 0.636311 -8.907352
v -45.526920 0.682372 -8.404892
v -45.623150 0.723439 -8.523588
v -45.859627 0.445688 -8.834477
v -45.859627 0.411971 -8.834477
v -45.761211 0.445688 -8.713088
v -45.798958 0.682372 -8.740440
v -45.335857 0.682372 -8.169220
v -46.041927 1.613947 -9.040137
v -45.765850 1.613945 -8.699604
v -45.379932 1.613945 -8.223586
v -45.765850 0.445688 -8.699604
v -45.637211 0.445688 -8.540932
v -45.379932 0.445688 -8.223586
v -45.761211 0.411971 -8.713088
v -46.038338 0.263947 -8.728976
v -45.900093 0.263947 -8.558458
v -45.934277 1.613945 -8.907351
v -46.126038 1.450739 -9.143887
v -45.970398 0.445688 -8.951907
v -45.990021 0.597187 -8.976112
v -46.030506 0.597187 -9.026050
v -46.030506 1.373782 -9.026050
v -45.391605 0.723439 -8.237980
v -45.567406 0.682372 -8.454830
v -45.934277 1.334657 -8.907351
v -45.758472 1.288593 -8.690502
v -45.567406 1.288593 -8.454830
v -45.623150 1.247527 -8.523588
v -45.526920 1.288593 -8.404892
v -46.098839 1.558211 -9.110337
v -45.391605 1.247527 -8.237980
v -45.335857 1.288593 -8.169220
v -45.471176 1.247527 -8.336130
v -45.702728 1.247527 -8.621742
v -45.854702 1.247527 -8.809199
v -45.798958 1.288596 -8.740440
v -45.990021 1.373782 -8.976112
v -45.854702 0.723439 -8.809199
v -45.702728 0.723439 -8.621742
v -45.758472 0.682372 -8.690502
v -45.471176 0.723439 -8.336130
v -46.086250 1.334654 -9.094810
v -46.086250 0.636311 -9.094810
v -46.066956 0.481413 -9.071009
v -46.126038 0.585558 -9.143887
v -45.637211 1.613945 -8.540932
v -45.508572 1.613945 -8.382258
v -45.508572 0.445688 -8.382258
v -45.812481 1.334657 -8.757122
v -45.759518 1.334657 -8.691791
v -45.577290 1.334657 -8.467020
v -45.524323 1.334657 -8.401688
v -45.342098 1.334657 -8.176917
v -45.764488 1.553876 -8.697924
v -45.624325 1.553876 -8.525035
v -45.511959 1.553876 -8.386437
v -45.371796 1.553876 -8.213549
v -45.908081 1.553877 -8.875040
v -45.934277 1.553877 -8.907351
v -44.737026 0.445688 -7.430577
v -44.697239 0.636311 -7.381501
v -45.104595 0.682372 -7.883961
v -45.008366 0.723439 -7.765265
v -44.753101 0.445688 -7.469609
v -44.753101 0.411971 -7.469609
v -44.851513 0.445688 -7.590999
v -44.832558 0.682372 -7.548413
v -45.295658 0.682372 -8.119634
v -44.589588 1.613947 -7.248716
v -44.865665 1.613945 -7.589250
v -45.251583 1.613945 -8.065267
v -44.865665 0.445688 -7.589250
v -44.994305 0.445688 -7.747922
v -45.251583 0.445688 -8.065267
v -44.851513 0.411971 -7.590999
v -44.893280 0.263947 -7.316580
v -45.031521 0.263947 -7.487098
v -44.697243 1.613945 -7.381502
v -44.505478 1.450739 -7.144967
v -44.661118 0.445688 -7.336946
v -44.641495 0.597187 -7.312740
v -44.601009 0.597187 -7.262803
v -44.601009 1.373782 -7.262803
v -45.239914 0.723439 -8.050873
v -45.064110 0.682372 -7.834023
v -44.697243 1.334657 -7.381502
v -44.873047 1.288593 -7.598351
v -45.064110 1.288593 -7.834023
v -45.008366 1.247527 -7.765265
v -45.104595 1.288593 -7.883961
v -44.532677 1.558211 -7.178516
v -45.239914 1.247527 -8.050873
v -45.295658 1.288593 -8.119634
v -45.160339 1.247527 -7.952723
v -44.928791 1.247527 -7.667111
v -44.776814 1.247527 -7.479654
v -44.832558 1.288596 -7.548413
v -44.641495 1.373782 -7.312740
v -44.776814 0.723439 -7.479654
v -44.928791 0.723439 -7.667111
v -44.873047 0.682372 -7.598351
v -45.160339 0.723439 -7.952723
v -44.545265 1.334654 -7.194043
v -44.545265 0.636311 -7.194043
v -44.564560 0.481413 -7.217844
v -44.505478 0.585558 -7.144967
v -44.994305 1.613945 -7.747922
v -45.122944 1.613945 -7.906594
v -45.122944 0.445688 -7.906595
v -44.819035 1.334657 -7.531731
v -44.872002 1.334657 -7.597063
v -45.054226 1.334657 -7.821833
v -45.107193 1.334657 -7.887166
v -45.289417 1.334657 -8.111937
v -44.867027 1.553876 -7.590930
v -45.007191 1.553876 -7.763819
v -45.119556 1.553876 -7.902416
v -45.259720 1.553876 -8.075304
v -44.723434 1.553877 -7.413813
v -44.697243 1.553877 -7.381502
v -45.824238 0.445688 -8.915231
v -45.864025 0.636311 -8.964307
v -45.456669 0.682372 -8.461846
v -45.552898 0.723439 -8.580543
v -45.808163 0.445688 -8.876199
v -45.808163 0.411971 -8.876199
v -45.709751 0.445688 -8.754809
v -45.728706 0.682372 -8.797395
v -45.265606 0.682372 -8.226174
v -45.971676 1.613947 -9.097092
v -45.695599 1.613945 -8.756558
v -45.309681 1.613945 -8.280541
v -45.695599 0.445688 -8.756558
v -45.566959 0.445688 -8.597886
v -45.309681 0.445688 -8.280541
v -45.709751 0.411971 -8.754809
v -45.667984 0.263947 -9.029228
v -45.529743 0.263947 -8.858710
v -45.864021 1.613945 -8.964306
v -46.055786 1.450739 -9.200841
v -45.900146 0.445688 -9.008862
v -45.919769 0.597187 -9.033068
v -45.960255 0.597187 -9.083005
v -45.960255 1.373782 -9.083005
v -45.321350 0.723439 -8.294935
v -45.497154 0.682372 -8.511785
v -45.864021 1.334657 -8.964306
v -45.688217 1.288593 -8.747457
v -45.497154 1.288593 -8.511785
v -45.552898 1.247527 -8.580543
v -45.456669 1.288593 -8.461846
v -46.028587 1.558211 -9.167292
v -45.321350 1.247527 -8.294935
v -45.265606 1.288593 -8.226174
v -45.400925 1.247527 -8.393085
v -45.632473 1.247527 -8.678698
v -45.784451 1.247527 -8.866154
v -45.728706 1.288596 -8.797395
v -45.919769 1.373782 -9.033068
v -45.784451 0.723439 -8.866154
v -45.632473 0.723439 -8.678698
v -45.688217 0.682372 -8.747457
v -45.400925 0.723439 -8.393085
v -46.015999 1.334654 -9.151765
v -46.015999 0.636311 -9.151765
v -45.996704 0.481413 -9.127964
v -46.055786 0.585558 -9.200841
v -45.566959 1.613945 -8.597886
v -45.438320 1.613945 -8.439214
v -45.438320 0.445688 -8.439214
v -45.742229 1.334657 -8.814077
v -45.689262 1.334657 -8.748745
v -45.507038 1.334657 -8.523974
v -45.454071 1.334657 -8.458642
v -45.271847 1.334657 -8.233871
v -45.694237 1.553876 -8.754878
v -45.554073 1.553876 -8.581989
v -45.441708 1.553876 -8.443392
v -45.301544 1.553876 -8.270504
v -45.837830 1.553877 -8.931995
v -45.864021 1.553877 -8.964306
v -44.666775 0.445688 -7.487532
v -44.626987 0.636311 -7.438456
v -45.034344 0.682372 -7.940916
v -44.938114 0.723439 -7.822220
v -44.701637 0.445688 -7.511331
v -44.701637 0.411971 -7.511331
v -44.800053 0.445688 -7.632720
v -44.762306 0.682372 -7.605368
v -45.225407 0.682372 -8.176588
v -44.519337 1.613947 -7.305671
v -44.795414 1.613945 -7.646204
v -45.181328 1.613945 -8.122222
v -44.795414 0.445688 -7.646204
v -44.924053 0.445688 -7.804877
v -45.181332 0.445688 -8.122222
v -44.800053 0.411971 -7.632720
v -44.522926 0.263947 -7.616832
v -44.661171 0.263947 -7.787349
v -44.626987 1.613945 -7.438457
v -44.435226 1.450739 -7.201922
v -44.590866 0.445688 -7.393901
v -44.571243 0.597187 -7.369695
v -44.530758 0.597187 -7.319758
v -44.530758 1.373782 -7.319758
v -45.169659 0.723439 -8.107828
v -44.993858 0.682372 -7.890978
v -44.626987 1.334657 -7.438457
v -44.802792 1.288593 -7.655306
v -44.993855 1.288593 -7.890978
v -44.938114 1.247527 -7.822220
v -45.034344 1.288593 -7.940916
v -44.462425 1.558211 -7.235471
v -45.169659 1.247527 -8.107828
v -45.225407 1.288593 -8.176588
v -45.090088 1.247527 -8.009678
v -44.858536 1.247527 -7.724066
v -44.706562 1.247527 -7.536609
v -44.762306 1.288596 -7.605368
v -44.571243 1.373782 -7.369695
v -44.706562 0.723439 -7.536609
v -44.858536 0.723439 -7.724066
v -44.802792 0.682372 -7.655306
v -45.090088 0.723439 -8.009678
v -44.475014 1.334654 -7.250998
v -44.475014 0.636311 -7.250998
v -44.494308 0.481413 -7.274799
v -44.435226 0.585558 -7.201922
v -44.924053 1.613945 -7.804877
v -45.052692 1.613945 -7.963550
v -45.052692 0.445688 -7.963549
v -44.748783 1.334657 -7.588686
v -44.801746 1.334657 -7.654017
v -44.983974 1.334657 -7.878788
v -45.036942 1.334657 -7.944120
v -45.219166 1.334657 -8.168891
v -44.796776 1.553876 -7.647885
v -44.936939 1.553876 -7.820774
v -45.049305 1.553876 -7.959371
v -45.189468 1.553876 -8.132259
v -44.653183 1.553877 -7.470767
v -44.626987 1.553877 -7.438457
vn -0.3306 0.8511 -0.4078
vn -0.4544 0.8111 0.3684
vn -0.7768 -0.0000 0.6298
vn -0.7768 -0.0001 0.6298
vn -0.7768 0.0001 0.6298
vn -0.7768 -0.0000 0.6297
vn -0.0000 1.0000 -0.0000
vn -0.1429 -0.9739 -0.1763
vn -0.4679 -0.6693 -0.5772
vn -0.0000 -1.0000 -0.0000
vn -0.6298 -0.0000 -0.7768
vn -0.5843 0.3729 -0.7208
vn -0.6167 0.2024 -0.7607
vn -0.6297 -0.0000 -0.7768
vn 0.2650 0.9071 0.3269
vn 0.7768 -0.0000 -0.6298
vn 0.2650 -0.9071 0.3269
vn -0.2650 -0.9071 -0.3269
vn 0.6297 -0.0000 0.7768
vn 0.6298 -0.0000 0.7768
vn -0.2650 0.9071 -0.3269
vn 0.3306 0.8511 0.4078
vn -0.4544 0.8111 0.3683
vn 0.1429 -0.9739 0.1763
vn 0.4679 -0.6693 0.5772
vn 0.5844 0.3729 0.7208
vn 0.6167 0.2024 0.7607
vn 0.2546 -0.9146 0.3140
vn -0.2546 -0.9146 -0.3141
vn -0.2546 0.9146 -0.3140
vn 0.2546 0.9146 0.3140
vn -0.6150 0.2154 -0.7586
vn -0.2546 -0.9146 -0.3140
vn 0.6150 0.2154 0.7586
vn 0.4543 0.8111 -0.3683
vn 0.4543 0.8111 -0.3684
vn 0.7768 0.0001 -0.6298
vt 0.563424 0.076340
vt 0.553130 0.073518
vt 0.930572 0.423953
vt 0.921307 0.379121
vt 0.987792 0.379121
vt 0.977903 0.423953
vt 0.607372 0.029178
vt 0.597289 0.031257
vt 0.582896 0.026846
vt 0.590093 0.017196
vt 0.572813 0.024865
vt 0.576362 0.017196
vt 0.613360 0.017196
vt 0.614695 0.029178
vt 0.558897 0.019004
vt 0.565490 0.024865
vt 0.555407 0.026846
vt 0.548211 0.024277
vt 0.555407 0.062200
vt 0.548211 0.068077
vt 0.639171 0.057790
vt 0.624778 0.057790
vt 0.624778 0.031257
vt 0.639171 0.031257
vt 0.597289 0.057790
vt 0.582896 0.062201
vt 0.649254 0.029178
vt 0.691136 0.029178
vt 0.681053 0.031257
vt 0.666660 0.031257
vt 0.656577 0.029178
vt 0.565490 0.064181
vt 0.572813 0.064181
vt 0.666660 0.057790
vt 0.681053 0.057790
vt 0.691136 0.059869
vt 0.656577 0.059869
vt 0.649254 0.059869
vt 0.614695 0.059869
vt 0.706379 0.076340
vt 0.683164 0.076340
vt 0.613360 0.076340
vt 0.582896 0.076340
vt 0.659896 0.017196
vt 0.683164 0.017196
vt 0.659896 0.076340
vt 0.636628 0.076340
vt 0.636628 0.017196
vt 0.614506 0.062201
vt 0.604926 0.062201
vt 0.607372 0.059869
vt 0.613607 0.073299
vt 0.638959 0.073299
vt 0.657047 0.062201
vt 0.647466 0.062201
vt 0.659283 0.073299
vt 0.684635 0.073299
vt 0.688839 0.081258
vt 0.699816 0.081258
vt 0.706005 0.126709
vt 0.682651 0.126709
vt 0.698407 0.059869
vt 0.699536 0.062201
vt 0.690007 0.062201
vt 0.612500 0.017196
vt 0.594699 0.017196
vt 0.977903 0.434165
vt 0.930572 0.434165
vt 0.704907 0.073299
vt 0.706379 0.017196
vt 0.698407 0.029178
vt 0.653445 0.126709
vt 0.630032 0.126709
vt 0.639832 0.081258
vt 0.650869 0.081258
vt 0.600826 0.126709
vt 0.570905 0.126710
vt 0.590825 0.081258
vt 0.601862 0.081258
vt 0.587634 0.073299
vt 0.806647 0.062201
vt 0.806647 0.026846
vt 0.565447 0.081258
vt 0.565447 0.126710
vt 0.582896 0.073299
vt 0.836413 0.073518
vt 0.826118 0.076340
vt 0.729647 0.076340
vt 0.978547 0.423953
vt 0.931216 0.423953
vt 0.921327 0.379121
vt 0.987812 0.379121
vt 0.782171 0.029178
vt 0.799450 0.017196
vt 0.792254 0.031257
vt 0.813181 0.017196
vt 0.816730 0.024865
vt 0.774848 0.029178
vt 0.776183 0.017196
vt 0.830646 0.019004
vt 0.841332 0.024277
vt 0.834136 0.026846
vt 0.824053 0.024865
vt 0.841332 0.068077
vt 0.834136 0.062200
vt 0.750372 0.057790
vt 0.750372 0.031257
vt 0.764765 0.031257
vt 0.764765 0.057790
vt 0.792254 0.057790
vt 0.740289 0.029178
vt 0.732966 0.029178
vt 0.722883 0.031257
vt 0.708490 0.031257
vt 0.816730 0.064181
vt 0.824053 0.064181
vt 0.722883 0.057790
vt 0.732966 0.059869
vt 0.708490 0.057790
vt 0.740289 0.059869
vt 0.774848 0.059869
vt 0.806647 0.076340
vt 0.776183 0.076340
vt 0.729647 0.017196
vt 0.752915 0.076340
vt 0.752915 0.017196
vt 0.775037 0.062201
vt 0.782171 0.059869
vt 0.784617 0.062201
vt 0.775936 0.073299
vt 0.750584 0.073299
vt 0.732496 0.062201
vt 0.742077 0.062201
vt 0.730260 0.073299
vt 0.777043 0.017196
vt 0.794844 0.017196
vt 0.978547 0.434165
vt 0.931216 0.434165
vt 0.735211 0.126709
vt 0.737787 0.081258
vt 0.748824 0.081258
vt 0.758624 0.126709
vt 0.787830 0.126709
vt 0.786794 0.081258
vt 0.797831 0.081258
vt 0.817751 0.126710
vt 0.801909 0.073299
vt 0.823209 0.081258
vt 0.823209 0.126710
vt 0.806647 0.073299
s 1
usemtl initialShadingGroup.004
f 10/1/1 132/1/1 154/2/1 32/2/1
f 6/3/2 17/4/2 18/5/2 16/6/2
f 8/7/3 40/8/3 2/9/3 1/10/3
f 1/10/3 2/9/3 22/11/3 21/12/3
f 1/10/3 13/13/3 42/14/3 8/7/3
f 46/15/3 23/16/3 45/17/3 47/18/3
f 45/17/3 44/19/3 20/20/3 47/18/3
f 30/21/4 36/22/4 41/23/5 4/24/5
f 40/8/3 37/25/3 27/26/3 2/9/3
f 23/16/3 46/15/3 21/12/3 22/11/3
f 4/24/5 41/23/5 42/14/3 26/27/3
f 9/28/3 25/29/3 43/30/3 3/31/3
f 10/1/3 32/2/3 24/32/3 39/33/6
f 35/34/3 33/35/3 34/36/3 31/37/3
f 29/38/3 28/39/3 36/22/4 30/21/4
f 43/30/3 25/29/3 33/35/3 35/34/3
f 73/40/7 195/40/7 134/41/7 12/41/7
f 46/15/8 168/15/8 143/12/8 21/12/8
f 11/42/7 133/42/7 141/43/7 19/43/7
f 47/18/9 169/18/9 168/15/9 46/15/9
f 50/44/10 172/44/10 137/45/10 15/45/10
f 19/43/7 141/43/7 132/1/7 10/1/7
f 20/20/3 44/19/3 24/32/3 32/2/3
f 49/46/7 171/46/7 170/47/7 48/47/7
f 26/27/3 42/14/3 13/13/3 14/48/3
f 14/48/3 50/44/3 3/31/3 26/27/3
f 9/28/3 3/31/3 50/44/3 15/45/3
f 52/49/3 51/50/3 38/51/3 28/39/3
f 56/52/3 57/53/3 48/47/3 11/42/3
f 54/54/3 53/55/3 29/38/3 31/37/3
f 58/56/3 59/57/3 12/41/3 49/46/3
f 55/58/3 116/59/3 120/60/3 59/61/3
f 13/13/10 135/13/10 136/48/10 14/48/10
f 20/20/11 142/20/11 169/18/11 47/18/11
f 34/36/3 95/62/3 116/63/3 55/64/3
f 48/47/7 170/47/7 133/42/7 11/42/7
f 32/2/12 154/2/12 142/20/12 20/20/12
f 14/48/10 136/48/10 172/44/10 50/44/10
f 7/65/10 13/13/10 1/10/10 5/66/10
f 6/3/3 16/6/3 7/67/3 5/68/3
f 139/4/13 17/4/13 6/3/13 128/3/13
f 5/68/14 127/68/14 128/3/14 6/3/14
f 7/65/10 129/65/10 135/13/10 13/13/10
f 1/10/10 123/10/10 127/66/10 5/66/10
f 3/31/7 125/31/7 148/27/7 26/27/7
f 26/27/15 148/27/15 126/24/15 4/24/15
f 134/41/16 195/40/16 242/69/16 181/57/16
f 156/36/10 217/62/10 95/62/10 34/36/10
f 33/35/17 155/35/17 156/36/17 34/36/17
f 37/25/17 159/25/17 160/51/17 38/51/17
f 31/37/18 153/37/18 157/34/18 35/34/18
f 25/29/19 147/29/19 155/35/19 33/35/19
f 9/28/15 131/28/15 147/29/15 25/29/15
f 4/24/20 126/24/20 152/21/20 30/21/20
f 8/7/15 130/7/15 162/8/15 40/8/15
f 40/8/20 162/8/20 159/25/20 37/25/20
f 43/30/21 165/30/21 125/31/21 3/31/21
f 38/51/10 160/51/10 150/39/10 28/39/10
f 76/70/3 70/71/3 9/28/3 15/45/3
f 36/22/14 158/22/14 163/23/14 41/23/14
f 35/34/11 157/34/11 165/30/11 43/30/11
f 42/14/7 164/14/7 130/7/7 8/7/7
f 28/39/18 150/39/18 158/22/18 36/22/18
f 31/37/3 34/36/3 55/64/3 54/54/3
f 58/72/3 57/73/3 53/74/3 54/75/3
f 28/39/3 29/38/3 53/55/3 52/49/3
f 56/76/3 60/77/3 51/78/3 52/79/3
f 37/25/3 38/51/3 51/50/3 27/26/3
f 11/42/3 19/43/3 60/80/3 56/52/3
f 49/46/3 48/47/3 57/53/3 58/56/3
f 210/81/20 88/81/20 63/82/20 185/82/20
f 54/75/3 55/58/3 59/61/3 58/72/3
f 52/79/3 53/74/3 57/73/3 56/76/3
f 27/83/3 51/78/3 60/77/3 61/84/3
f 27/26/3 61/85/3 10/1/3 39/33/6
f 10/1/3 61/85/3 60/80/3 19/43/3
f 12/41/7 134/41/7 171/46/7 49/46/7
f 41/23/21 163/23/21 164/14/21 42/14/21
f 15/45/10 137/45/10 198/70/10 76/70/10
f 93/86/22 215/86/22 193/87/22 71/87/22
f 110/88/7 232/88/7 195/40/7 73/40/7
f 67/89/23 77/90/23 79/91/23 78/92/23
f 69/93/3 62/94/3 63/82/3 101/95/3
f 62/94/3 82/96/3 83/97/3 63/82/3
f 62/94/3 69/93/3 103/98/3 74/99/3
f 107/100/3 108/101/3 106/102/3 84/103/3
f 106/102/3 108/101/3 81/104/3 105/105/3
f 91/106/3 65/107/3 102/108/3 97/109/3
f 101/95/3 63/82/3 88/81/3 98/110/3
f 84/103/3 83/97/3 82/96/3 107/100/3
f 65/107/3 87/111/3 103/98/3 102/108/3
f 70/71/3 64/112/3 104/113/3 86/114/3
f 71/87/3 100/115/3 85/116/3 93/86/3
f 96/117/3 92/118/3 95/62/3 94/119/3
f 90/120/3 91/106/3 97/109/3 89/121/3
f 104/113/3 96/117/3 94/119/3 86/114/3
f 198/70/16 137/45/16 131/28/16 192/71/16
f 82/96/24 204/96/24 229/100/24 107/100/24
f 80/122/7 202/122/7 194/123/7 72/123/7
f 107/100/25 229/100/25 230/101/25 108/101/25
f 76/70/10 198/70/10 233/124/10 111/124/10
f 71/87/7 193/87/7 202/122/7 80/122/7
f 81/104/3 93/86/3 85/116/3 105/105/3
f 109/125/7 231/125/7 232/88/7 110/88/7
f 87/111/3 75/126/3 74/99/3 103/98/3
f 75/126/3 87/111/3 64/112/3 111/124/3
f 70/71/3 76/70/3 111/124/3 64/112/3
f 113/127/3 89/121/3 99/128/3 112/129/3
f 117/130/3 72/123/3 109/125/3 118/131/3
f 115/132/3 92/118/3 90/120/3 114/133/3
f 119/134/3 110/88/3 73/40/3 120/69/3
f 75/126/10 197/126/10 196/99/10 74/99/10
f 108/101/20 230/101/20 203/104/20 81/104/20
f 72/123/7 194/123/7 231/125/7 109/125/7
f 103/98/15 225/98/15 224/108/15 102/108/15
f 81/104/26 203/104/26 215/86/26 93/86/26
f 111/124/10 233/124/10 197/126/10 75/126/10
f 68/135/10 66/136/10 62/94/10 74/99/10
f 67/89/3 66/137/3 68/138/3 77/90/3
f 200/92/27 189/89/27 67/89/27 78/92/27
f 67/89/20 189/89/20 188/137/20 66/137/20
f 74/99/10 196/99/10 190/135/10 68/135/10
f 66/136/10 188/136/10 184/94/10 62/94/10
f 87/111/7 209/111/7 186/112/7 64/112/7
f 65/107/21 187/107/21 209/111/21 87/111/21
f 97/109/17 219/109/17 211/121/17 89/121/17
f 95/62/18 217/62/18 216/119/18 94/119/18
f 99/128/18 221/128/18 220/110/18 98/110/18
f 96/117/17 218/117/17 214/118/17 92/118/17
f 94/119/14 216/119/14 208/114/14 86/114/14
f 86/114/21 208/114/21 192/71/21 70/71/21
f 91/106/11 213/106/11 187/107/11 65/107/11
f 101/95/21 223/95/21 191/93/21 69/93/21
f 98/110/11 220/110/11 223/95/11 101/95/11
f 64/112/15 186/112/15 226/113/15 104/113/15
f 89/121/10 211/121/10 221/128/10 99/128/10
f 102/108/19 224/108/19 219/109/19 97/109/19
f 104/113/20 226/113/20 218/117/20 96/117/20
f 69/93/7 191/93/7 225/98/7 103/98/7
f 92/118/3 115/132/3 116/63/3 95/62/3
f 119/139/3 115/140/3 114/141/3 118/142/3
f 89/121/3 113/127/3 114/133/3 90/120/3
f 117/143/3 113/144/3 112/145/3 121/146/3
f 98/110/3 88/81/3 112/129/3 99/128/3
f 72/123/3 117/130/3 121/147/3 80/122/3
f 110/88/3 119/134/3 118/131/3 109/125/3
f 115/140/3 119/139/3 120/60/3 116/59/3
f 113/144/3 117/143/3 118/142/3 114/141/3
f 88/148/3 122/149/3 121/146/3 112/145/3
f 88/81/3 100/115/3 71/87/3 122/150/3
f 71/87/3 80/122/3 121/147/3 122/150/3
f 17/4/10 139/4/10 140/5/10 18/5/10
f 149/26/14 124/9/14 2/9/14 27/26/14
f 222/115/28 100/115/28 88/81/28 210/81/28
f 222/115/10 207/116/10 85/116/10 100/115/10
f 207/116/29 227/105/29 105/105/29 85/116/29
f 227/105/11 228/102/11 106/102/11 105/105/11
f 206/103/30 84/103/30 106/102/30 228/102/30
f 206/103/7 205/97/7 83/97/7 84/103/7
f 185/82/31 63/82/31 83/97/31 205/97/31
f 213/106/18 91/106/18 90/120/18 212/120/18
f 199/90/11 77/90/11 68/138/11 190/138/11
f 199/90/32 201/91/32 79/91/32 77/90/32
f 62/94/10 184/94/10 204/96/10 82/96/10
f 92/118/10 214/118/10 212/120/10 90/120/10
f 161/33/33 149/26/33 27/26/33 39/33/33
f 161/33/10 39/33/10 24/32/10 146/32/10
f 146/32/28 24/32/28 44/19/28 166/19/28
f 166/19/20 44/19/20 45/17/20 167/17/20
f 145/16/31 167/17/31 45/17/31 23/16/31
f 145/16/7 23/16/7 22/11/7 144/11/7
f 124/9/30 144/11/30 22/11/30 2/9/30
f 152/21/17 151/38/17 29/38/17 30/21/17
f 138/6/20 129/67/20 7/67/20 16/6/20
f 138/6/34 16/6/34 18/5/34 140/5/34
f 21/12/10 143/12/10 123/10/10 1/10/10
f 29/38/10 151/38/10 153/37/10 31/37/10
f 128/3/35 138/6/35 140/5/35 139/4/35
f 130/7/16 123/10/16 124/9/16 162/8/16
f 123/10/16 143/12/16 144/11/16 124/9/16
f 123/10/16 130/7/16 164/14/16 135/13/16
f 168/15/16 169/18/16 167/17/16 145/16/16
f 167/17/16 169/18/16 142/20/16 166/19/16
f 152/21/16 126/24/16 163/23/16 158/22/16
f 162/8/16 124/9/16 149/26/16 159/25/16
f 145/16/16 144/11/16 143/12/16 168/15/16
f 126/24/16 148/27/16 164/14/16 163/23/16
f 131/28/16 125/31/16 165/30/16 147/29/16
f 132/1/16 161/33/16 146/32/16 154/2/16
f 157/34/16 153/37/16 156/36/16 155/35/16
f 151/38/16 152/21/16 158/22/16 150/39/16
f 165/30/16 157/34/16 155/35/16 147/29/16
f 142/20/16 154/2/16 146/32/16 166/19/16
f 148/27/16 136/48/16 135/13/16 164/14/16
f 136/48/16 148/27/16 125/31/16 172/44/16
f 131/28/16 137/45/16 172/44/16 125/31/16
f 174/49/16 150/39/16 160/51/16 173/50/16
f 178/52/16 133/42/16 170/47/16 179/53/16
f 176/54/16 153/37/16 151/38/16 175/55/16
f 180/56/16 171/46/16 134/41/16 181/57/16
f 181/61/16 242/60/16 238/59/16 177/58/16
f 177/64/16 238/63/16 217/62/16 156/36/16
f 129/65/10 127/66/10 123/10/10 135/13/10
f 128/3/16 127/68/16 129/67/16 138/6/16
f 153/37/16 176/54/16 177/64/16 156/36/16
f 180/72/16 176/75/16 175/74/16 179/73/16
f 150/39/16 174/49/16 175/55/16 151/38/16
f 178/76/16 174/79/16 173/78/16 182/77/16
f 159/25/16 149/26/16 173/50/16 160/51/16
f 133/42/16 178/52/16 182/80/16 141/43/16
f 171/46/16 180/56/16 179/53/16 170/47/16
f 176/75/16 180/72/16 181/61/16 177/58/16
f 174/79/16 178/76/16 179/73/16 175/74/16
f 149/83/16 183/84/16 182/77/16 173/78/16
f 149/26/16 161/33/16 132/1/16 183/85/16
f 132/1/16 141/43/16 182/80/16 183/85/16
f 131/28/7 9/28/7 70/71/7 192/71/7
f 189/89/36 200/92/36 201/91/36 199/90/36
f 191/93/16 223/95/16 185/82/16 184/94/16
f 184/94/16 185/82/16 205/97/16 204/96/16
f 184/94/16 196/99/16 225/98/16 191/93/16
f 229/100/16 206/103/16 228/102/16 230/101/16
f 228/102/16 227/105/16 203/104/16 230/101/16
f 213/106/16 219/109/16 224/108/16 187/107/16
f 223/95/16 220/110/16 210/81/16 185/82/16
f 206/103/16 229/100/16 204/96/16 205/97/16
f 187/107/16 224/108/16 225/98/16 209/111/16
f 192/71/16 208/114/16 226/113/16 186/112/16
f 193/87/16 215/86/16 207/116/16 222/115/16
f 218/117/37 216/119/37 217/62/16 214/118/16
f 212/120/16 211/121/16 219/109/16 213/106/16
f 226/113/16 208/114/16 216/119/37 218/117/37
f 203/104/16 227/105/16 207/116/16 215/86/16
f 209/111/16 225/98/16 196/99/16 197/126/16
f 197/126/16 233/124/16 186/112/16 209/111/16
f 192/71/16 186/112/16 233/124/16 198/70/16
f 235/127/16 234/129/16 221/128/16 211/121/16
f 239/130/16 240/131/16 231/125/16 194/123/16
f 237/132/16 236/133/16 212/120/16 214/118/16
f 241/134/16 242/69/16 195/40/16 232/88/16
f 190/135/10 196/99/10 184/94/10 188/136/10
f 189/89/16 199/90/16 190/138/16 188/137/16
f 214/118/16 217/62/16 238/63/16 237/132/16
f 241/139/16 240/142/16 236/141/16 237/140/16
f 211/121/16 212/120/16 236/133/16 235/127/16
f 239/143/16 243/146/16 234/145/16 235/144/16
f 220/110/16 221/128/16 234/129/16 210/81/16
f 194/123/16 202/122/16 243/147/16 239/130/16
f 232/88/16 231/125/16 240/131/16 241/134/16
f 237/140/16 238/59/16 242/60/16 241/139/16
f 235/144/16 236/141/16 240/142/16 239/143/16
f 210/148/16 234/145/16 243/146/16 244/149/16
f 210/81/16 244/150/16 193/87/16 222/115/16
f 193/87/16 244/150/16 243/147/16 202/122/16
f 59/57/3 120/69/3 73/40/3 12/41/3
f 79/91/10 201/91/10 200/92/10 78/92/10
