# Blender 5.1.0
# www.blender.org
mtllib barriere55_013.mtl
o barriere55.013
v 30.024529 0.406541 -7.487031
v 29.961357 0.597165 -7.486138
v 30.608133 0.643225 -7.495289
v 30.455345 0.684292 -7.493127
v 30.064796 0.406541 -7.499697
v 30.064796 0.372824 -7.499697
v 30.221052 0.406541 -7.501908
v 30.176210 0.643225 -7.489178
v 30.911497 0.643225 -7.499581
v 29.790434 1.574802 -7.483720
v 30.228775 1.574798 -7.489922
v 30.841515 1.574798 -7.498590
v 30.228775 0.406541 -7.489922
v 30.433022 0.406541 -7.492812
v 30.841515 0.406541 -7.498590
v 30.221052 0.372824 -7.501908
v 30.037111 0.224800 -7.294024
v 30.256605 0.224800 -7.297130
v 29.961359 1.574798 -7.486138
v 29.656887 1.411592 -7.481830
v 29.904005 0.406541 -7.485327
v 29.872849 0.558040 -7.484886
v 29.808567 0.558040 -7.483975
v 29.808567 1.334635 -7.483975
v 30.822987 0.684292 -7.498329
v 30.543854 0.643225 -7.494380
v 29.961359 1.295511 -7.486138
v 30.240492 1.249447 -7.490087
v 30.543854 1.249447 -7.494380
v 30.455345 1.208381 -7.493127
v 30.608133 1.249447 -7.495289
v 29.700071 1.519065 -7.482440
v 30.822987 1.208381 -7.498329
v 30.911497 1.249447 -7.499581
v 30.696646 1.208381 -7.496541
v 30.329000 1.208381 -7.491340
v 30.087702 1.208381 -7.487926
v 30.176210 1.249449 -7.489178
v 29.872849 1.334635 -7.484886
v 30.087702 0.684292 -7.487926
v 30.329000 0.684292 -7.491340
v 30.240492 0.643225 -7.490087
v 30.696646 0.684292 -7.496541
v 29.720058 1.295508 -7.482724
v 29.720058 0.597165 -7.482724
v 29.750696 0.442266 -7.483158
v 29.656887 0.546411 -7.481830
v 30.433022 1.574798 -7.492812
v 30.637268 1.574798 -7.495701
v 30.637268 0.406541 -7.495701
v 30.154736 1.295511 -7.488873
v 30.238832 1.295511 -7.490064
v 30.528162 1.295511 -7.494158
v 30.612259 1.295511 -7.495347
v 30.901587 1.295511 -7.499441
v 30.230938 1.514729 -7.489952
v 30.453484 1.514729 -7.493101
v 30.631889 1.514729 -7.495625
v 30.854433 1.514729 -7.498774
v 30.002951 1.514731 -7.486727
v 29.961359 1.514731 -7.486138
v 31.862291 0.406541 -7.513034
v 31.925463 0.597165 -7.513927
v 31.278685 0.643225 -7.504776
v 31.431475 0.684292 -7.506938
v 31.821680 0.406541 -7.524555
v 31.821680 0.372824 -7.524555
v 31.665426 0.406541 -7.522344
v 31.710608 0.643225 -7.510888
v 30.975325 0.643225 -7.500484
v 32.096382 1.574802 -7.516346
v 31.658045 1.574798 -7.510144
v 31.045305 1.574798 -7.501475
v 31.658045 0.406541 -7.510144
v 31.453798 0.406541 -7.507254
v 31.045305 0.406541 -7.501475
v 31.665426 0.372824 -7.522344
v 31.855173 0.224800 -7.319746
v 31.635679 0.224800 -7.316642
v 31.925459 1.574798 -7.513927
v 32.229931 1.411592 -7.518236
v 31.982813 0.406541 -7.514739
v 32.013969 0.558040 -7.515180
v 32.078251 0.558040 -7.516089
v 32.078251 1.334635 -7.516089
v 31.063833 0.684292 -7.501737
v 31.342966 0.643225 -7.505686
v 31.925459 1.295511 -7.513927
v 31.646330 1.249447 -7.509978
v 31.342966 1.249447 -7.505686
v 31.431475 1.208381 -7.506938
v 31.278685 1.249447 -7.504776
v 32.186745 1.519065 -7.517625
v 31.063833 1.208381 -7.501737
v 30.975325 1.249447 -7.500484
v 31.190176 1.208381 -7.503524
v 31.557821 1.208381 -7.508726
v 31.799116 1.208381 -7.512140
v 31.710608 1.249449 -7.510888
v 32.013969 1.334635 -7.515180
v 31.799116 0.684292 -7.512140
v 31.557821 0.684292 -7.508726
v 31.646330 0.643225 -7.509978
v 31.190176 0.684292 -7.503524
v 32.166759 1.295508 -7.517342
v 32.166759 0.597165 -7.517342
v 32.136124 0.442266 -7.516909
v 32.229931 0.546411 -7.518236
v 31.453798 1.574798 -7.507254
v 31.249552 1.574798 -7.504364
v 31.249552 0.406541 -7.504364
v 31.732084 1.295511 -7.511192
v 31.647985 1.295511 -7.510002
v 31.358660 1.295511 -7.505908
v 31.274561 1.295511 -7.504718
v 30.985231 1.295511 -7.500625
v 31.655882 1.514729 -7.510114
v 31.433336 1.514729 -7.506965
v 31.254930 1.514729 -7.504441
v 31.032385 1.514729 -7.501292
v 31.883871 1.514731 -7.513339
v 31.925459 1.514731 -7.513927
v 30.023251 0.406541 -7.577462
v 29.960077 0.597165 -7.576568
v 30.606855 0.643225 -7.585719
v 30.454067 0.684292 -7.583557
v 30.063860 0.406541 -7.565941
v 30.063860 0.372824 -7.565941
v 30.220114 0.406541 -7.568151
v 30.174931 0.643225 -7.579607
v 30.910215 0.643225 -7.590011
v 29.789154 1.574802 -7.574150
v 30.227495 1.574798 -7.580352
v 30.840235 1.574798 -7.589022
v 30.227495 0.406541 -7.580352
v 30.431742 0.406541 -7.583241
v 30.840235 0.406541 -7.589021
v 30.220114 0.372824 -7.568151
v 30.030367 0.224800 -7.770749
v 30.249859 0.224800 -7.773854
v 29.960079 1.574798 -7.576568
v 29.655607 1.411592 -7.572259
v 29.902725 0.406541 -7.575756
v 29.871569 0.558040 -7.575315
v 29.807287 0.558040 -7.574407
v 29.807287 1.334635 -7.574407
v 30.821707 0.684292 -7.588758
v 30.542574 0.643225 -7.584810
v 29.960079 1.295511 -7.576568
v 30.239212 1.249447 -7.580518
v 30.542574 1.249447 -7.584810
v 30.454067 1.208381 -7.583557
v 30.606855 1.249447 -7.585719
v 29.698792 1.519065 -7.572872
v 30.821707 1.208381 -7.588758
v 30.910215 1.249447 -7.590011
v 30.695366 1.208381 -7.586972
v 30.327721 1.208381 -7.581769
v 30.086422 1.208381 -7.578356
v 30.174931 1.249449 -7.579607
v 29.871569 1.334635 -7.575315
v 30.086422 0.684292 -7.578356
v 30.327721 0.684292 -7.581769
v 30.239212 0.643225 -7.580518
v 30.695366 0.684292 -7.586972
v 29.718779 1.295508 -7.573153
v 29.718779 0.597165 -7.573153
v 29.749416 0.442266 -7.573586
v 29.655607 0.546411 -7.572259
v 30.431742 1.574798 -7.583241
v 30.635988 1.574798 -7.586131
v 30.635988 0.406541 -7.586131
v 30.153458 1.295511 -7.579304
v 30.237553 1.295511 -7.580493
v 30.526882 1.295511 -7.584588
v 30.610979 1.295511 -7.585778
v 30.900309 1.295511 -7.589870
v 30.229658 1.514729 -7.580383
v 30.452204 1.514729 -7.583530
v 30.630610 1.514729 -7.586056
v 30.853155 1.514729 -7.589204
v 30.001671 1.514731 -7.577157
v 29.960079 1.514731 -7.576568
v 31.861010 0.406541 -7.603464
v 31.924181 0.597165 -7.604358
v 31.277407 0.643225 -7.595207
v 31.430193 0.684292 -7.597369
v 31.820742 0.406541 -7.590799
v 31.820742 0.372824 -7.590799
v 31.664488 0.406541 -7.588588
v 31.709330 0.643225 -7.601317
v 30.974043 0.643225 -7.590915
v 32.095104 1.574802 -7.606776
v 31.656763 1.574798 -7.600574
v 31.044027 1.574798 -7.591905
v 31.656763 0.406541 -7.600574
v 31.452520 0.406541 -7.597683
v 31.044027 0.406541 -7.591905
v 31.664488 0.372824 -7.588588
v 31.848429 0.224800 -7.796472
v 31.628935 0.224800 -7.793365
v 31.924181 1.574798 -7.604358
v 32.228653 1.411592 -7.608665
v 31.981535 0.406541 -7.605169
v 32.012691 0.558040 -7.605609
v 32.076969 0.558040 -7.606520
v 32.076969 1.334635 -7.606520
v 31.062555 0.684292 -7.592166
v 31.341688 0.643225 -7.596116
v 31.924181 1.295511 -7.604358
v 31.645048 1.249447 -7.600408
v 31.341688 1.249447 -7.596116
v 31.430193 1.208381 -7.597369
v 31.277407 1.249447 -7.595207
v 32.185467 1.519065 -7.608055
v 31.062555 1.208381 -7.592166
v 30.974043 1.249447 -7.590915
v 31.188894 1.208381 -7.593954
v 31.556540 1.208381 -7.599155
v 31.797838 1.208381 -7.602570
v 31.709330 1.249449 -7.601317
v 32.012691 1.334635 -7.605609
v 31.797838 0.684292 -7.602570
v 31.556540 0.684292 -7.599155
v 31.645048 0.643225 -7.600408
v 31.188894 0.684292 -7.593954
v 32.165478 1.295508 -7.607772
v 32.165478 0.597165 -7.607772
v 32.134842 0.442266 -7.607337
v 32.228653 0.546411 -7.608665
v 31.452520 1.574798 -7.597683
v 31.248274 1.574798 -7.594795
v 31.248274 0.406541 -7.594795
v 31.730803 1.295511 -7.601622
v 31.646708 1.295511 -7.600431
v 31.357378 1.295511 -7.596338
v 31.273283 1.295511 -7.595148
v 30.983953 1.295511 -7.591054
v 31.654600 1.514729 -7.600543
v 31.432055 1.514729 -7.597394
v 31.253653 1.514729 -7.594871
v 31.031107 1.514729 -7.591722
v 31.882589 1.514731 -7.603770
v 31.924181 1.514731 -7.604358
vn -0.5249 0.8511 0.0074
vn 0.0083 0.8111 0.5849
vn 0.0141 -0.0000 0.9999
vn 0.0142 -0.0000 0.9999
vn -0.0000 1.0000 -0.0000
vn -0.2269 -0.9739 0.0032
vn -0.7429 -0.6693 0.0105
vn -0.0000 -1.0000 -0.0000
vn -0.9999 -0.0000 0.0142
vn -0.9278 0.3728 0.0131
vn -0.9792 0.2024 0.0139
vn -0.9999 -0.0000 0.0141
vn 0.4208 0.9071 -0.0060
vn -0.0141 -0.0000 -0.9999
vn 0.4208 -0.9071 -0.0060
vn -0.4208 -0.9071 0.0060
vn 0.9999 -0.0000 -0.0142
vn 0.9999 -0.0000 -0.0141
vn -0.4208 0.9071 0.0060
vn 0.5249 0.8511 -0.0074
vn -0.0142 -0.0000 -0.9999
vn 0.2269 -0.9739 -0.0032
vn 0.7429 -0.6693 -0.0105
vn 0.9278 0.3729 -0.0131
vn 0.9792 0.2024 -0.0139
vn -0.4208 -0.9071 0.0059
vn -0.4208 0.9071 0.0059
vn 0.4042 -0.9147 -0.0057
vn -0.4043 -0.9146 0.0057
vn -0.4042 0.9146 0.0057
vn 0.4042 0.9146 -0.0057
vn -0.9764 0.2154 0.0138
vn -0.4042 -0.9146 0.0057
vn 0.4043 -0.9146 -0.0057
vn 0.9764 0.2154 -0.0138
vn -0.0083 0.8111 -0.5849
vt 0.563424 0.076340
vt 0.553130 0.073518
vt 0.930572 0.423953
vt 0.921307 0.379121
vt 0.987792 0.379121
vt 0.977903 0.423953
vt 0.607372 0.029178
vt 0.597289 0.031257
vt 0.582896 0.026846
vt 0.590093 0.017196
vt 0.572813 0.024865
vt 0.576362 0.017196
vt 0.613360 0.017196
vt 0.614695 0.029178
vt 0.558897 0.019004
vt 0.565490 0.024865
vt 0.555407 0.026846
vt 0.548211 0.024277
vt 0.555407 0.062200
vt 0.548211 0.068077
vt 0.639171 0.057790
vt 0.624778 0.057790
vt 0.624778 0.031257
vt 0.639171 0.031257
vt 0.597289 0.057790
vt 0.582896 0.062201
vt 0.649254 0.029178
vt 0.691136 0.029178
vt 0.681053 0.031257
vt 0.666660 0.031257
vt 0.656577 0.029178
vt 0.565490 0.064181
vt 0.572813 0.064181
vt 0.666660 0.057790
vt 0.681053 0.057790
vt 0.691136 0.059869
vt 0.656577 0.059869
vt 0.649254 0.059869
vt 0.614695 0.059869
vt 0.706379 0.076340
vt 0.683164 0.076340
vt 0.613360 0.076340
vt 0.582896 0.076340
vt 0.659896 0.017196
vt 0.683164 0.017196
vt 0.659896 0.076340
vt 0.636628 0.076340
vt 0.636628 0.017196
vt 0.614506 0.062201
vt 0.604926 0.062201
vt 0.607372 0.059869
vt 0.613607 0.073299
vt 0.638959 0.073299
vt 0.657047 0.062201
vt 0.647466 0.062201
vt 0.659283 0.073299
vt 0.684635 0.073299
vt 0.688839 0.081258
vt 0.699816 0.081258
vt 0.706005 0.126709
vt 0.682651 0.126709
vt 0.698407 0.059869
vt 0.699536 0.062201
vt 0.690007 0.062201
vt 0.612500 0.017196
vt 0.594699 0.017196
vt 0.977903 0.434165
vt 0.930572 0.434165
vt 0.704907 0.073299
vt 0.706379 0.017196
vt 0.698407 0.029178
vt 0.653445 0.126709
vt 0.630032 0.126709
vt 0.639832 0.081258
vt 0.650869 0.081258
vt 0.600826 0.126709
vt 0.570905 0.126710
vt 0.590825 0.081258
vt 0.601862 0.081258
vt 0.587634 0.073299
vt 0.806647 0.062201
vt 0.806647 0.026846
vt 0.565447 0.081258
vt 0.565447 0.126710
vt 0.582896 0.073299
vt 0.836413 0.073518
vt 0.826118 0.076340
vt 0.729647 0.076340
vt 0.978547 0.423953
vt 0.931216 0.423953
vt 0.921327 0.379121
vt 0.987812 0.379121
vt 0.782171 0.029178
vt 0.799450 0.017196
vt 0.792254 0.031257
vt 0.813181 0.017196
vt 0.816730 0.024865
vt 0.774848 0.029178
vt 0.776183 0.017196
vt 0.830646 0.019004
vt 0.841332 0.024277
vt 0.834136 0.026846
vt 0.824053 0.024865
vt 0.841332 0.068077
vt 0.834136 0.062200
vt 0.750372 0.057790
vt 0.750372 0.031257
vt 0.764765 0.031257
vt 0.764765 0.057790
vt 0.792254 0.057790
vt 0.740289 0.029178
vt 0.732966 0.029178
vt 0.722883 0.031257
vt 0.708490 0.031257
vt 0.816730 0.064181
vt 0.824053 0.064181
vt 0.722883 0.057790
vt 0.732966 0.059869
vt 0.708490 0.057790
vt 0.740289 0.059869
vt 0.774848 0.059869
vt 0.806647 0.076340
vt 0.776183 0.076340
vt 0.729647 0.017196
vt 0.752915 0.076340
vt 0.752915 0.017196
vt 0.775037 0.062201
vt 0.782171 0.059869
vt 0.784617 0.062201
vt 0.775936 0.073299
vt 0.750584 0.073299
vt 0.732496 0.062201
vt 0.742077 0.062201
vt 0.730260 0.073299
vt 0.777043 0.017196
vt 0.794844 0.017196
vt 0.978547 0.434165
vt 0.931216 0.434165
vt 0.735211 0.126709
vt 0.737787 0.081258
vt 0.748824 0.081258
vt 0.758624 0.126709
vt 0.787830 0.126709
vt 0.786794 0.081258
vt 0.797831 0.081258
vt 0.817751 0.126710
vt 0.801909 0.073299
vt 0.823209 0.081258
vt 0.823209 0.126710
vt 0.806647 0.073299
s 1
usemtl initialShadingGroup.004
f 10/1/1 132/1/1 154/2/1 32/2/1
f 6/3/2 17/4/2 18/5/2 16/6/2
f 8/7/3 40/8/3 2/9/3 1/10/3
f 1/10/3 2/9/3 22/11/4 21/12/3
f 1/10/3 13/13/3 42/14/3 8/7/3
f 46/15/3 23/16/4 45/17/3 47/18/3
f 45/17/3 44/19/4 20/20/3 47/18/3
f 30/21/3 36/22/3 41/23/3 4/24/3
f 40/8/3 37/25/3 27/26/3 2/9/3
f 23/16/4 46/15/3 21/12/3 22/11/4
f 4/24/3 41/23/3 42/14/3 26/27/3
f 9/28/3 25/29/3 43/30/3 3/31/3
f 10/1/3 32/2/4 24/32/4 39/33/3
f 35/34/3 33/35/3 34/36/3 31/37/3
f 29/38/3 28/39/3 36/22/3 30/21/3
f 43/30/3 25/29/3 33/35/3 35/34/3
f 73/40/5 195/40/5 134/41/5 12/41/5
f 46/15/6 168/15/6 143/12/6 21/12/6
f 11/42/5 133/42/5 141/43/5 19/43/5
f 47/18/7 169/18/7 168/15/7 46/15/7
f 50/44/8 172/44/8 137/45/8 15/45/8
f 19/43/5 141/43/5 132/1/5 10/1/5
f 20/20/3 44/19/4 24/32/4 32/2/4
f 49/46/5 171/46/5 170/47/5 48/47/5
f 26/27/3 42/14/3 13/13/3 14/48/3
f 14/48/3 50/44/3 3/31/3 26/27/3
f 9/28/3 3/31/3 50/44/3 15/45/3
f 52/49/3 51/50/3 38/51/3 28/39/3
f 56/52/3 57/53/3 48/47/3 11/42/3
f 54/54/3 53/55/3 29/38/3 31/37/3
f 58/56/3 59/57/3 12/41/3 49/46/3
f 55/58/3 116/59/3 120/60/3 59/61/3
f 13/13/8 135/13/8 136/48/8 14/48/8
f 20/20/9 142/20/9 169/18/9 47/18/9
f 34/36/3 95/62/3 116/63/3 55/64/3
f 48/47/5 170/47/5 133/42/5 11/42/5
f 32/2/10 154/2/10 142/20/10 20/20/10
f 14/48/8 136/48/8 172/44/8 50/44/8
f 7/65/8 13/13/8 1/10/8 5/66/8
f 6/3/3 16/6/3 7/67/3 5/68/3
f 139/4/11 17/4/11 6/3/11 128/3/11
f 5/68/12 127/68/12 128/3/12 6/3/12
f 7/65/8 129/65/8 135/13/8 13/13/8
f 1/10/8 123/10/8 127/66/8 5/66/8
f 3/31/5 125/31/5 148/27/5 26/27/5
f 26/27/13 148/27/13 126/24/13 4/24/13
f 134/41/14 195/40/14 242/69/14 181/57/14
f 156/36/8 217/62/8 95/62/8 34/36/8
f 33/35/15 155/35/15 156/36/15 34/36/15
f 37/25/15 159/25/15 160/51/15 38/51/15
f 31/37/16 153/37/16 157/34/16 35/34/16
f 25/29/17 147/29/17 155/35/17 33/35/17
f 9/28/13 131/28/13 147/29/13 25/29/13
f 4/24/18 126/24/18 152/21/18 30/21/18
f 8/7/13 130/7/13 162/8/13 40/8/13
f 40/8/17 162/8/17 159/25/17 37/25/17
f 43/30/19 165/30/19 125/31/19 3/31/19
f 38/51/8 160/51/8 150/39/8 28/39/8
f 76/70/3 70/71/3 9/28/3 15/45/3
f 36/22/9 158/22/9 163/23/9 41/23/9
f 35/34/9 157/34/9 165/30/9 43/30/9
f 42/14/5 164/14/5 130/7/5 8/7/5
f 28/39/16 150/39/16 158/22/16 36/22/16
f 31/37/3 34/36/3 55/64/3 54/54/3
f 58/72/3 57/73/3 53/74/3 54/75/3
f 28/39/3 29/38/3 53/55/3 52/49/3
f 56/76/3 60/77/3 51/78/3 52/79/3
f 37/25/3 38/51/3 51/50/3 27/26/3
f 11/42/3 19/43/3 60/80/3 56/52/3
f 49/46/3 48/47/3 57/53/3 58/56/3
f 210/81/17 88/81/17 63/82/17 185/82/17
f 54/75/3 55/58/3 59/61/3 58/72/3
f 52/79/3 53/74/3 57/73/3 56/76/3
f 27/83/3 51/78/3 60/77/3 61/84/3
f 27/26/3 61/85/3 10/1/3 39/33/3
f 10/1/3 61/85/3 60/80/3 19/43/3
f 12/41/5 134/41/5 171/46/5 49/46/5
f 41/23/19 163/23/19 164/14/19 42/14/19
f 15/45/8 137/45/8 198/70/8 76/70/8
f 93/86/20 215/86/20 193/87/20 71/87/20
f 110/88/5 232/88/5 195/40/5 73/40/5
f 67/89/2 77/90/2 79/91/2 78/92/2
f 69/93/3 62/94/3 63/82/3 101/95/3
f 62/94/3 82/96/3 83/97/3 63/82/3
f 62/94/3 69/93/3 103/98/3 74/99/3
f 107/100/4 108/101/3 106/102/3 84/103/4
f 106/102/3 108/101/3 81/104/4 105/105/3
f 91/106/3 65/107/3 102/108/3 97/109/3
f 101/95/3 63/82/3 88/81/3 98/110/3
f 84/103/4 83/97/3 82/96/3 107/100/4
f 65/107/3 87/111/3 103/98/3 102/108/3
f 70/71/3 64/112/3 104/113/3 86/114/3
f 71/87/3 100/115/3 85/116/4 93/86/4
f 96/117/3 92/118/3 95/62/3 94/119/3
f 90/120/3 91/106/3 97/109/3 89/121/3
f 104/113/3 96/117/3 94/119/3 86/114/3
f 198/70/14 137/45/21 131/28/21 192/71/21
f 82/96/22 204/96/22 229/100/22 107/100/22
f 80/122/5 202/122/5 194/123/5 72/123/5
f 107/100/23 229/100/23 230/101/23 108/101/23
f 76/70/8 198/70/8 233/124/8 111/124/8
f 71/87/5 193/87/5 202/122/5 80/122/5
f 81/104/4 93/86/4 85/116/4 105/105/3
f 109/125/5 231/125/5 232/88/5 110/88/5
f 87/111/3 75/126/3 74/99/3 103/98/3
f 75/126/3 87/111/3 64/112/3 111/124/3
f 70/71/3 76/70/3 111/124/3 64/112/3
f 113/127/3 89/121/3 99/128/3 112/129/3
f 117/130/3 72/123/3 109/125/3 118/131/3
f 115/132/3 92/118/3 90/120/3 114/133/3
f 119/134/3 110/88/3 73/40/3 120/69/3
f 75/126/8 197/126/8 196/99/8 74/99/8
f 108/101/18 230/101/18 203/104/18 81/104/18
f 72/123/5 194/123/5 231/125/5 109/125/5
f 103/98/13 225/98/13 224/108/13 102/108/13
f 81/104/24 203/104/24 215/86/24 93/86/24
f 111/124/8 233/124/8 197/126/8 75/126/8
f 68/135/8 66/136/8 62/94/8 74/99/8
f 67/89/3 66/137/3 68/138/3 77/90/3
f 200/92/25 189/89/25 67/89/25 78/92/25
f 67/89/17 189/89/17 188/137/17 66/137/17
f 74/99/8 196/99/8 190/135/8 68/135/8
f 66/136/8 188/136/8 184/94/8 62/94/8
f 87/111/5 209/111/5 186/112/5 64/112/5
f 65/107/19 187/107/19 209/111/19 87/111/19
f 97/109/15 219/109/15 211/121/15 89/121/15
f 95/62/16 217/62/16 216/119/16 94/119/16
f 99/128/26 221/128/26 220/110/26 98/110/26
f 96/117/15 218/117/15 214/118/15 92/118/15
f 94/119/12 216/119/12 208/114/12 86/114/12
f 86/114/19 208/114/19 192/71/19 70/71/19
f 91/106/9 213/106/9 187/107/9 65/107/9
f 101/95/27 223/95/27 191/93/27 69/93/27
f 98/110/12 220/110/12 223/95/12 101/95/12
f 64/112/13 186/112/13 226/113/13 104/113/13
f 89/121/8 211/121/8 221/128/8 99/128/8
f 102/108/17 224/108/17 219/109/17 97/109/17
f 104/113/17 226/113/17 218/117/17 96/117/17
f 69/93/5 191/93/5 225/98/5 103/98/5
f 92/118/3 115/132/3 116/63/3 95/62/3
f 119/139/3 115/140/3 114/141/3 118/142/3
f 89/121/3 113/127/3 114/133/3 90/120/3
f 117/143/3 113/144/3 112/145/3 121/146/3
f 98/110/3 88/81/3 112/129/3 99/128/3
f 72/123/3 117/130/3 121/147/3 80/122/3
f 110/88/3 119/134/3 118/131/3 109/125/3
f 115/140/3 119/139/3 120/60/3 116/59/3
f 113/144/3 117/143/3 118/142/3 114/141/3
f 88/148/3 122/149/3 121/146/3 112/145/3
f 88/81/3 100/115/3 71/87/3 122/150/3
f 71/87/3 80/122/3 121/147/3 122/150/3
f 17/4/8 139/4/8 140/5/8 18/5/8
f 149/26/9 124/9/9 2/9/9 27/26/9
f 222/115/28 100/115/28 88/81/28 210/81/28
f 222/115/8 207/116/8 85/116/8 100/115/8
f 207/116/29 227/105/29 105/105/29 85/116/29
f 227/105/9 228/102/9 106/102/9 105/105/9
f 206/103/30 84/103/30 106/102/30 228/102/30
f 206/103/5 205/97/5 83/97/5 84/103/5
f 185/82/31 63/82/31 83/97/31 205/97/31
f 213/106/16 91/106/16 90/120/16 212/120/16
f 199/90/9 77/90/9 68/138/9 190/138/9
f 199/90/32 201/91/32 79/91/32 77/90/32
f 62/94/8 184/94/8 204/96/8 82/96/8
f 92/118/8 214/118/8 212/120/8 90/120/8
f 161/33/33 149/26/33 27/26/33 39/33/33
f 161/33/8 39/33/8 24/32/8 146/32/8
f 146/32/34 24/32/34 44/19/34 166/19/34
f 166/19/17 44/19/17 45/17/17 167/17/17
f 145/16/31 167/17/31 45/17/31 23/16/31
f 145/16/5 23/16/5 22/11/5 144/11/5
f 124/9/30 144/11/30 22/11/30 2/9/30
f 152/21/15 151/38/15 29/38/15 30/21/15
f 138/6/17 129/67/17 7/67/17 16/6/17
f 138/6/35 16/6/35 18/5/35 140/5/35
f 21/12/8 143/12/8 123/10/8 1/10/8
f 29/38/8 151/38/8 153/37/8 31/37/8
f 128/3/36 138/6/36 140/5/36 139/4/36
f 130/7/21 123/10/21 124/9/21 162/8/21
f 123/10/21 143/12/14 144/11/14 124/9/21
f 123/10/21 130/7/21 164/14/14 135/13/14
f 168/15/14 169/18/21 167/17/21 145/16/14
f 167/17/21 169/18/21 142/20/21 166/19/21
f 152/21/14 126/24/14 163/23/14 158/22/14
f 162/8/21 124/9/21 149/26/14 159/25/21
f 145/16/14 144/11/14 143/12/14 168/15/14
f 126/24/14 148/27/14 164/14/14 163/23/14
f 131/28/21 125/31/14 165/30/14 147/29/14
f 132/1/14 161/33/14 146/32/14 154/2/14
f 157/34/14 153/37/14 156/36/21 155/35/14
f 151/38/14 152/21/14 158/22/14 150/39/14
f 165/30/14 157/34/14 155/35/14 147/29/14
f 142/20/21 154/2/14 146/32/14 166/19/21
f 148/27/14 136/48/14 135/13/14 164/14/14
f 136/48/14 148/27/14 125/31/14 172/44/14
f 131/28/21 137/45/21 172/44/14 125/31/14
f 174/49/14 150/39/14 160/51/14 173/50/14
f 178/52/14 133/42/14 170/47/14 179/53/14
f 176/54/14 153/37/14 151/38/14 175/55/14
f 180/56/14 171/46/14 134/41/14 181/57/14
f 181/61/14 242/60/14 238/59/21 177/58/14
f 177/64/14 238/63/21 217/62/21 156/36/21
f 129/65/8 127/66/8 123/10/8 135/13/8
f 128/3/14 127/68/14 129/67/14 138/6/14
f 153/37/14 176/54/14 177/64/14 156/36/21
f 180/72/14 176/75/14 175/74/14 179/73/14
f 150/39/14 174/49/14 175/55/14 151/38/14
f 178/76/14 174/79/14 173/78/14 182/77/14
f 159/25/21 149/26/14 173/50/14 160/51/14
f 133/42/14 178/52/14 182/80/14 141/43/14
f 171/46/14 180/56/14 179/53/14 170/47/14
f 176/75/14 180/72/14 181/61/14 177/58/14
f 174/79/14 178/76/14 179/73/14 175/74/14
f 149/83/14 183/84/14 182/77/14 173/78/14
f 149/26/14 161/33/14 132/1/14 183/85/14
f 132/1/14 141/43/14 182/80/14 183/85/14
f 131/28/5 9/28/5 70/71/5 192/71/5
f 189/89/36 200/92/36 201/91/36 199/90/36
f 191/93/21 223/95/14 185/82/14 184/94/14
f 184/94/14 185/82/14 205/97/14 204/96/14
f 184/94/14 196/99/21 225/98/14 191/93/21
f 229/100/14 206/103/14 228/102/14 230/101/14
f 228/102/14 227/105/21 203/104/14 230/101/14
f 213/106/14 219/109/14 224/108/14 187/107/14
f 223/95/14 220/110/14 210/81/14 185/82/14
f 206/103/14 229/100/14 204/96/14 205/97/14
f 187/107/14 224/108/14 225/98/14 209/111/14
f 192/71/21 208/114/14 226/113/14 186/112/14
f 193/87/14 215/86/14 207/116/14 222/115/14
f 218/117/14 216/119/14 217/62/21 214/118/14
f 212/120/14 211/121/14 219/109/14 213/106/14
f 226/113/14 208/114/14 216/119/14 218/117/14
f 203/104/14 227/105/21 207/116/14 215/86/14
f 209/111/14 225/98/14 196/99/21 197/126/14
f 197/126/14 233/124/14 186/112/14 209/111/14
f 192/71/21 186/112/14 233/124/14 198/70/14
f 235/127/14 234/129/14 221/128/21 211/121/14
f 239/130/14 240/131/14 231/125/14 194/123/14
f 237/132/14 236/133/14 212/120/14 214/118/14
f 241/134/14 242/69/14 195/40/14 232/88/14
f 190/135/8 196/99/8 184/94/8 188/136/8
f 189/89/14 199/90/14 190/138/14 188/137/14
f 214/118/14 217/62/21 238/63/21 237/132/14
f 241/139/14 240/142/14 236/141/14 237/140/14
f 211/121/14 212/120/14 236/133/14 235/127/14
f 239/143/14 243/146/14 234/145/14 235/144/14
f 220/110/14 221/128/21 234/129/14 210/81/14
f 194/123/14 202/122/14 243/147/14 239/130/14
f 232/88/14 231/125/14 240/131/14 241/134/14
f 237/140/14 238/59/21 242/60/14 241/139/14
f 235/144/14 236/141/14 240/142/14 239/143/14
f 210/148/14 234/145/14 243/146/14 244/149/14
f 210/81/14 244/150/14 193/87/14 222/115/14
f 193/87/14 244/150/14 243/147/14 202/122/14
f 59/57/3 120/69/3 73/40/3 12/41/3
f 79/91/8 201/91/8 200/92/8 78/92/8
