# Blender 5.1.0
# www.blender.org
mtllib barriere55_022.mtl
o barriere55.022
v -4.152774 0.406541 -13.369669
v -4.155849 0.597165 -13.432772
v -4.124360 0.643225 -12.786697
v -4.131799 0.684292 -12.939320
v -4.138725 0.406541 -13.329863
v -4.138725 0.372824 -13.329863
v -4.131117 0.406541 -13.173778
v -4.145389 0.643225 -13.218152
v -4.109590 0.643225 -12.483665
v -4.164171 1.574801 -13.603509
v -4.142830 1.574798 -13.165645
v -4.112998 1.574798 -12.553571
v -4.142830 0.406541 -13.165645
v -4.132886 0.406541 -12.961619
v -4.112998 0.406541 -12.553571
v -4.131117 0.372824 -13.173778
v -4.345232 0.224800 -13.350427
v -4.334546 0.224800 -13.131171
v -4.155849 1.574798 -13.432771
v -4.170673 1.411592 -13.736912
v -4.158642 0.406541 -13.490062
v -4.160159 0.558040 -13.521186
v -4.163289 0.558040 -13.585396
v -4.163289 1.334635 -13.585396
v -4.113900 0.684292 -12.572079
v -4.127490 0.643225 -12.850908
v -4.155849 1.295510 -13.432771
v -4.142260 1.249446 -13.153941
v -4.127490 1.249446 -12.850908
v -4.131799 1.208380 -12.939320
v -4.124360 1.249446 -12.786697
v -4.168571 1.519064 -13.693774
v -4.113900 1.208380 -12.572079
v -4.109590 1.249446 -12.483665
v -4.120050 1.208380 -12.698282
v -4.137950 1.208380 -13.065529
v -4.149698 1.208380 -13.306564
v -4.145389 1.249449 -13.218152
v -4.160159 1.334635 -13.521186
v -4.149698 0.684292 -13.306564
v -4.137950 0.684292 -13.065529
v -4.142260 0.643225 -13.153941
v -4.120050 0.684292 -12.698282
v -4.167598 1.295507 -13.673809
v -4.167598 0.597165 -13.673809
v -4.166106 0.442266 -13.643206
v -4.170673 0.546411 -13.736912
v -4.132886 1.574798 -12.961619
v -4.122941 1.574798 -12.757595
v -4.122941 0.406541 -12.757595
v -4.146435 1.295510 -13.239603
v -4.142340 1.295510 -13.155598
v -4.128253 1.295510 -12.866583
v -4.124159 1.295510 -12.782578
v -4.110073 1.295510 -12.493563
v -4.142725 1.514729 -13.163484
v -4.131889 1.514729 -12.941179
v -4.123203 1.514729 -12.762968
v -4.112368 1.514729 -12.540665
v -4.153825 1.514730 -13.391225
v -4.155849 1.514730 -13.432771
v -4.063299 0.406541 -11.533903
v -4.060223 0.597165 -11.470799
v -4.091713 0.643225 -12.116874
v -4.084274 0.684292 -11.964252
v -4.053187 0.406541 -11.574886
v -4.053187 0.372824 -11.574886
v -4.060795 0.406541 -11.730971
v -4.070683 0.643225 -11.685419
v -4.106483 0.643225 -12.419907
v -4.051901 1.574801 -11.300062
v -4.073243 1.574798 -11.737927
v -4.103076 1.574798 -12.350000
v -4.073243 0.406541 -11.737927
v -4.083187 0.406541 -11.941952
v -4.103076 0.406541 -12.350000
v -4.060795 0.372824 -11.730971
v -4.256716 0.224800 -11.534338
v -4.267403 0.224800 -11.753592
v -4.060223 1.574798 -11.470801
v -4.045399 1.411592 -11.166659
v -4.057431 0.406541 -11.413509
v -4.055914 0.558040 -11.382385
v -4.052784 0.558040 -11.318175
v -4.052784 1.334635 -11.318175
v -4.102173 0.684292 -12.331492
v -4.088583 0.643225 -12.052663
v -4.060223 1.295510 -11.470801
v -4.073813 1.249446 -11.749631
v -4.088583 1.249446 -12.052663
v -4.084274 1.208380 -11.964252
v -4.091713 1.249446 -12.116874
v -4.047502 1.519064 -11.209797
v -4.102173 1.208380 -12.331492
v -4.106483 1.249446 -12.419907
v -4.096022 1.208380 -12.205289
v -4.078123 1.208380 -11.838043
v -4.066374 1.208380 -11.597007
v -4.070683 1.249449 -11.685419
v -4.055914 1.334635 -11.382385
v -4.066374 0.684292 -11.597007
v -4.078123 0.684292 -11.838043
v -4.073813 0.643225 -11.749631
v -4.096022 0.684292 -12.205289
v -4.048475 1.295507 -11.229762
v -4.048475 0.597165 -11.229762
v -4.049967 0.442266 -11.260366
v -4.045399 0.546411 -11.166659
v -4.083187 1.574798 -11.941952
v -4.093131 1.574798 -12.145976
v -4.093131 0.406541 -12.145976
v -4.069638 1.295510 -11.663968
v -4.073732 1.295510 -11.747973
v -4.087819 1.295510 -12.036988
v -4.091914 1.295510 -12.120995
v -4.106000 1.295510 -12.410009
v -4.073348 1.514729 -11.740088
v -4.084183 1.514729 -11.962392
v -4.092869 1.514729 -12.140603
v -4.103704 1.514729 -12.362907
v -4.062248 1.514730 -11.512346
v -4.060223 1.514730 -11.470801
v -4.062442 0.406541 -13.374071
v -4.065518 0.597165 -13.437175
v -4.034028 0.643225 -12.791101
v -4.041467 0.684292 -12.943723
v -4.072554 0.406541 -13.333088
v -4.072554 0.372824 -13.333088
v -4.064946 0.406541 -13.177003
v -4.055057 0.643225 -13.222555
v -4.019258 0.643225 -12.488068
v -4.073840 1.574801 -13.607912
v -4.052498 1.574798 -13.170047
v -4.022666 1.574798 -12.557974
v -4.052498 0.406541 -13.170047
v -4.042554 0.406541 -12.966022
v -4.022666 0.406541 -12.557974
v -4.064946 0.372824 -13.177003
v -3.869025 0.224800 -13.373636
v -3.858338 0.224800 -13.154382
v -4.065517 1.574798 -13.437173
v -4.080341 1.411592 -13.741315
v -4.068310 0.406541 -13.494465
v -4.069827 0.558040 -13.525589
v -4.072957 0.558040 -13.589799
v -4.072957 1.334635 -13.589799
v -4.023568 0.684292 -12.576482
v -4.037158 0.643225 -12.855311
v -4.065518 1.295510 -13.437173
v -4.051928 1.249446 -13.158343
v -4.037158 1.249446 -12.855311
v -4.041467 1.208380 -12.943723
v -4.034028 1.249446 -12.791101
v -4.078239 1.519064 -13.698177
v -4.023568 1.208380 -12.576482
v -4.019258 1.249446 -12.488068
v -4.029719 1.208380 -12.702685
v -4.047618 1.208380 -13.069931
v -4.059366 1.208380 -13.310967
v -4.055057 1.249449 -13.222555
v -4.069827 1.334635 -13.525589
v -4.059367 0.684292 -13.310967
v -4.047618 0.684292 -13.069931
v -4.051928 0.643225 -13.158343
v -4.029719 0.684292 -12.702685
v -4.077266 1.295507 -13.678212
v -4.077266 0.597165 -13.678212
v -4.075774 0.442266 -13.647608
v -4.080342 0.546411 -13.741315
v -4.042554 1.574798 -12.966022
v -4.032609 1.574798 -12.761998
v -4.032610 0.406541 -12.761998
v -4.056103 1.295510 -13.244006
v -4.052008 1.295510 -13.160001
v -4.037922 1.295510 -12.870986
v -4.033827 1.295510 -12.786980
v -4.019741 1.295510 -12.497965
v -4.052392 1.514729 -13.167887
v -4.041557 1.514729 -12.945582
v -4.032871 1.514729 -12.767371
v -4.022037 1.514729 -12.545067
v -4.063493 1.514730 -13.395628
v -4.065517 1.514730 -13.437173
v -3.972967 0.406541 -11.538305
v -3.969891 0.597165 -11.475203
v -4.001381 0.643225 -12.121277
v -3.993942 0.684292 -11.968655
v -3.987016 0.406541 -11.578112
v -3.987016 0.372824 -11.578112
v -3.994624 0.406541 -11.734197
v -3.980352 0.643225 -11.689822
v -4.016151 0.643225 -12.424309
v -3.961569 1.574801 -11.304465
v -3.982911 1.574798 -11.742330
v -4.012743 1.574798 -12.354403
v -3.982911 0.406541 -11.742330
v -3.992855 0.406541 -11.946355
v -4.012743 0.406541 -12.354403
v -3.994624 0.372824 -11.734197
v -3.780509 0.224800 -11.557548
v -3.791195 0.224800 -11.776803
v -3.969891 1.574798 -11.475204
v -3.955067 1.411592 -11.171062
v -3.967099 0.406541 -11.417912
v -3.965582 0.558040 -11.386788
v -3.962452 0.558040 -11.322578
v -3.962452 1.334635 -11.322578
v -4.011841 0.684292 -12.335896
v -3.998251 0.643225 -12.057066
v -3.969891 1.295510 -11.475204
v -3.983481 1.249446 -11.754033
v -3.998251 1.249446 -12.057066
v -3.993942 1.208380 -11.968655
v -4.001381 1.249446 -12.121277
v -3.957170 1.519064 -11.214200
v -4.011841 1.208380 -12.335896
v -4.016150 1.249446 -12.424309
v -4.005690 1.208380 -12.209692
v -3.987791 1.208380 -11.842445
v -3.976043 1.208380 -11.601410
v -3.980352 1.249449 -11.689822
v -3.965582 1.334635 -11.386788
v -3.976043 0.684292 -11.601410
v -3.987791 0.684292 -11.842445
v -3.983481 0.643225 -11.754033
v -4.005690 0.684292 -12.209692
v -3.958143 1.295507 -11.234165
v -3.958143 0.597165 -11.234165
v -3.959635 0.442266 -11.264769
v -3.955067 0.546411 -11.171062
v -3.992855 1.574798 -11.946355
v -4.002799 1.574798 -12.150379
v -4.002800 0.406541 -12.150379
v -3.979306 1.295510 -11.668371
v -3.983401 1.295510 -11.752377
v -3.997487 1.295510 -12.041391
v -4.001582 1.295510 -12.125397
v -4.015668 1.295510 -12.414412
v -3.983016 1.514729 -11.744491
v -3.993851 1.514729 -11.966795
v -4.002537 1.514729 -12.145006
v -4.013372 1.514729 -12.367310
v -3.971916 1.514730 -11.516749
v -3.969891 1.514730 -11.475204
vn -0.0256 0.8511 -0.5243
vn -0.5842 0.8111 0.0285
vn -0.9988 -0.0000 0.0487
vn -0.0000 1.0000 -0.0000
vn -0.0110 -0.9739 -0.2267
vn -0.0362 -0.6693 -0.7421
vn -0.0000 -1.0000 -0.0000
vn -0.0487 -0.0000 -0.9988
vn -0.0452 0.3729 -0.9268
vn -0.0477 0.2024 -0.9781
vn 0.0205 0.9071 0.4204
vn 0.9988 -0.0000 -0.0487
vn 0.0205 -0.9071 0.4203
vn 0.0205 -0.9071 0.4204
vn -0.0205 -0.9071 -0.4203
vn 0.0487 -0.0000 0.9988
vn 0.0205 0.9071 0.4203
vn -0.0205 0.9071 -0.4203
vn -0.0205 0.9071 -0.4204
vn 0.0256 0.8511 0.5243
vn 0.0110 -0.9739 0.2267
vn 0.0362 -0.6693 0.7421
vn 0.0452 0.3729 0.9268
vn 0.0477 0.2024 0.9781
vn -0.0205 -0.9071 -0.4204
vn 0.0197 -0.9146 0.4038
vn -0.0197 -0.9146 -0.4038
vn -0.0197 0.9146 -0.4038
vn 0.0197 0.9146 0.4038
vn -0.0475 0.2154 -0.9754
vn 0.0475 0.2154 0.9754
vn 0.5842 0.8111 -0.0285
vt 0.563424 0.076340
vt 0.553130 0.073518
vt 0.930572 0.423953
vt 0.921307 0.379121
vt 0.987792 0.379121
vt 0.977903 0.423953
vt 0.607372 0.029178
vt 0.597289 0.031257
vt 0.582896 0.026846
vt 0.590093 0.017196
vt 0.572813 0.024865
vt 0.576362 0.017196
vt 0.613360 0.017196
vt 0.614695 0.029178
vt 0.558897 0.019004
vt 0.565490 0.024865
vt 0.555407 0.026846
vt 0.548211 0.024277
vt 0.555407 0.062200
vt 0.548211 0.068077
vt 0.639171 0.057790
vt 0.624778 0.057790
vt 0.624778 0.031257
vt 0.639171 0.031257
vt 0.597289 0.057790
vt 0.582896 0.062201
vt 0.649254 0.029178
vt 0.691136 0.029178
vt 0.681053 0.031257
vt 0.666660 0.031257
vt 0.656577 0.029178
vt 0.565490 0.064181
vt 0.572813 0.064181
vt 0.666660 0.057790
vt 0.681053 0.057790
vt 0.691136 0.059869
vt 0.656577 0.059869
vt 0.649254 0.059869
vt 0.614695 0.059869
vt 0.706379 0.076340
vt 0.683164 0.076340
vt 0.613360 0.076340
vt 0.582896 0.076340
vt 0.659896 0.017196
vt 0.683164 0.017196
vt 0.659896 0.076340
vt 0.636628 0.076340
vt 0.636628 0.017196
vt 0.614506 0.062201
vt 0.604926 0.062201
vt 0.607372 0.059869
vt 0.613607 0.073299
vt 0.638959 0.073299
vt 0.657047 0.062201
vt 0.647466 0.062201
vt 0.659283 0.073299
vt 0.684635 0.073299
vt 0.688839 0.081258
vt 0.699816 0.081258
vt 0.706005 0.126709
vt 0.682651 0.126709
vt 0.698407 0.059869
vt 0.699536 0.062201
vt 0.690007 0.062201
vt 0.612500 0.017196
vt 0.594699 0.017196
vt 0.977903 0.434165
vt 0.930572 0.434165
vt 0.704907 0.073299
vt 0.706379 0.017196
vt 0.698407 0.029178
vt 0.653445 0.126709
vt 0.630032 0.126709
vt 0.639832 0.081258
vt 0.650869 0.081258
vt 0.600826 0.126709
vt 0.570905 0.126710
vt 0.590825 0.081258
vt 0.601862 0.081258
vt 0.587634 0.073299
vt 0.806647 0.062201
vt 0.806647 0.026846
vt 0.565447 0.081258
vt 0.565447 0.126710
vt 0.582896 0.073299
vt 0.836413 0.073518
vt 0.826118 0.076340
vt 0.729647 0.076340
vt 0.978547 0.423953
vt 0.931216 0.423953
vt 0.921327 0.379121
vt 0.987812 0.379121
vt 0.782171 0.029178
vt 0.799450 0.017196
vt 0.792254 0.031257
vt 0.813181 0.017196
vt 0.816730 0.024865
vt 0.774848 0.029178
vt 0.776183 0.017196
vt 0.830646 0.019004
vt 0.841332 0.024277
vt 0.834136 0.026846
vt 0.824053 0.024865
vt 0.841332 0.068077
vt 0.834136 0.062200
vt 0.750372 0.057790
vt 0.750372 0.031257
vt 0.764765 0.031257
vt 0.764765 0.057790
vt 0.792254 0.057790
vt 0.740289 0.029178
vt 0.732966 0.029178
vt 0.722883 0.031257
vt 0.708490 0.031257
vt 0.816730 0.064181
vt 0.824053 0.064181
vt 0.722883 0.057790
vt 0.732966 0.059869
vt 0.708490 0.057790
vt 0.740289 0.059869
vt 0.774848 0.059869
vt 0.806647 0.076340
vt 0.776183 0.076340
vt 0.729647 0.017196
vt 0.752915 0.076340
vt 0.752915 0.017196
vt 0.775037 0.062201
vt 0.782171 0.059869
vt 0.784617 0.062201
vt 0.775936 0.073299
vt 0.750584 0.073299
vt 0.732496 0.062201
vt 0.742077 0.062201
vt 0.730260 0.073299
vt 0.777043 0.017196
vt 0.794844 0.017196
vt 0.978547 0.434165
vt 0.931216 0.434165
vt 0.735211 0.126709
vt 0.737787 0.081258
vt 0.748824 0.081258
vt 0.758624 0.126709
vt 0.787830 0.126709
vt 0.786794 0.081258
vt 0.797831 0.081258
vt 0.817751 0.126710
vt 0.801909 0.073299
vt 0.823209 0.081258
vt 0.823209 0.126710
vt 0.806647 0.073299
s 1
usemtl initialShadingGroup.004
f 10/1/1 132/1/1 154/2/1 32/2/1
f 6/3/2 17/4/2 18/5/2 16/6/2
f 8/7/3 40/8/3 2/9/3 1/10/3
f 1/10/3 2/9/3 22/11/3 21/12/3
f 1/10/3 13/13/3 42/14/3 8/7/3
f 46/15/3 23/16/3 45/17/3 47/18/3
f 45/17/3 44/19/3 20/20/3 47/18/3
f 30/21/3 36/22/3 41/23/3 4/24/3
f 40/8/3 37/25/3 27/26/3 2/9/3
f 23/16/3 46/15/3 21/12/3 22/11/3
f 4/24/3 41/23/3 42/14/3 26/27/3
f 9/28/3 25/29/3 43/30/3 3/31/3
f 10/1/3 32/2/3 24/32/3 39/33/3
f 35/34/3 33/35/3 34/36/3 31/37/3
f 29/38/3 28/39/3 36/22/3 30/21/3
f 43/30/3 25/29/3 33/35/3 35/34/3
f 73/40/4 195/40/4 134/41/4 12/41/4
f 46/15/5 168/15/5 143/12/5 21/12/5
f 11/42/4 133/42/4 141/43/4 19/43/4
f 47/18/6 169/18/6 168/15/6 46/15/6
f 50/44/7 172/44/7 137/45/7 15/45/7
f 19/43/4 141/43/4 132/1/4 10/1/4
f 20/20/3 44/19/3 24/32/3 32/2/3
f 49/46/4 171/46/4 170/47/4 48/47/4
f 26/27/3 42/14/3 13/13/3 14/48/3
f 14/48/3 50/44/3 3/31/3 26/27/3
f 9/28/3 3/31/3 50/44/3 15/45/3
f 52/49/3 51/50/3 38/51/3 28/39/3
f 56/52/3 57/53/3 48/47/3 11/42/3
f 54/54/3 53/55/3 29/38/3 31/37/3
f 58/56/3 59/57/3 12/41/3 49/46/3
f 55/58/3 116/59/3 120/60/3 59/61/3
f 13/13/7 135/13/7 136/48/7 14/48/7
f 20/20/8 142/20/8 169/18/8 47/18/8
f 34/36/3 95/62/3 116/63/3 55/64/3
f 48/47/4 170/47/4 133/42/4 11/42/4
f 32/2/9 154/2/9 142/20/9 20/20/9
f 14/48/7 136/48/7 172/44/7 50/44/7
f 7/65/7 13/13/7 1/10/7 5/66/7
f 6/3/3 16/6/3 7/67/3 5/68/3
f 139/4/10 17/4/10 6/3/10 128/3/10
f 5/68/8 127/68/8 128/3/8 6/3/8
f 7/65/7 129/65/7 135/13/7 13/13/7
f 1/10/7 123/10/7 127/66/7 5/66/7
f 3/31/4 125/31/4 148/27/4 26/27/4
f 26/27/11 148/27/11 126/24/11 4/24/11
f 134/41/12 195/40/12 242/69/12 181/57/12
f 156/36/7 217/62/7 95/62/7 34/36/7
f 33/35/13 155/35/13 156/36/13 34/36/13
f 37/25/14 159/25/14 160/51/14 38/51/14
f 31/37/15 153/37/15 157/34/15 35/34/15
f 25/29/16 147/29/16 155/35/16 33/35/16
f 9/28/17 131/28/17 147/29/17 25/29/17
f 4/24/16 126/24/16 152/21/16 30/21/16
f 8/7/11 130/7/11 162/8/11 40/8/11
f 40/8/16 162/8/16 159/25/16 37/25/16
f 43/30/18 165/30/18 125/31/18 3/31/18
f 38/51/7 160/51/7 150/39/7 28/39/7
f 76/70/3 70/71/3 9/28/3 15/45/3
f 36/22/8 158/22/8 163/23/8 41/23/8
f 35/34/8 157/34/8 165/30/8 43/30/8
f 42/14/4 164/14/4 130/7/4 8/7/4
f 28/39/15 150/39/15 158/22/15 36/22/15
f 31/37/3 34/36/3 55/64/3 54/54/3
f 58/72/3 57/73/3 53/74/3 54/75/3
f 28/39/3 29/38/3 53/55/3 52/49/3
f 56/76/3 60/77/3 51/78/3 52/79/3
f 37/25/3 38/51/3 51/50/3 27/26/3
f 11/42/3 19/43/3 60/80/3 56/52/3
f 49/46/3 48/47/3 57/53/3 58/56/3
f 210/81/16 88/81/16 63/82/16 185/82/16
f 54/75/3 55/58/3 59/61/3 58/72/3
f 52/79/3 53/74/3 57/73/3 56/76/3
f 27/83/3 51/78/3 60/77/3 61/84/3
f 27/26/3 61/85/3 10/1/3 39/33/3
f 10/1/3 61/85/3 60/80/3 19/43/3
f 12/41/4 134/41/4 171/46/4 49/46/4
f 41/23/19 163/23/19 164/14/19 42/14/19
f 15/45/7 137/45/7 198/70/7 76/70/7
f 93/86/20 215/86/20 193/87/20 71/87/20
f 110/88/4 232/88/4 195/40/4 73/40/4
f 67/89/2 77/90/2 79/91/2 78/92/2
f 69/93/3 62/94/3 63/82/3 101/95/3
f 62/94/3 82/96/3 83/97/3 63/82/3
f 62/94/3 69/93/3 103/98/3 74/99/3
f 107/100/3 108/101/3 106/102/3 84/103/3
f 106/102/3 108/101/3 81/104/3 105/105/3
f 91/106/3 65/107/3 102/108/3 97/109/3
f 101/95/3 63/82/3 88/81/3 98/110/3
f 84/103/3 83/97/3 82/96/3 107/100/3
f 65/107/3 87/111/3 103/98/3 102/108/3
f 70/71/3 64/112/3 104/113/3 86/114/3
f 71/87/3 100/115/3 85/116/3 93/86/3
f 96/117/3 92/118/3 95/62/3 94/119/3
f 90/120/3 91/106/3 97/109/3 89/121/3
f 104/113/3 96/117/3 94/119/3 86/114/3
f 198/70/12 137/45/12 131/28/12 192/71/12
f 82/96/21 204/96/21 229/100/21 107/100/21
f 80/122/4 202/122/4 194/123/4 72/123/4
f 107/100/22 229/100/22 230/101/22 108/101/22
f 76/70/7 198/70/7 233/124/7 111/124/7
f 71/87/4 193/87/4 202/122/4 80/122/4
f 81/104/3 93/86/3 85/116/3 105/105/3
f 109/125/4 231/125/4 232/88/4 110/88/4
f 87/111/3 75/126/3 74/99/3 103/98/3
f 75/126/3 87/111/3 64/112/3 111/124/3
f 70/71/3 76/70/3 111/124/3 64/112/3
f 113/127/3 89/121/3 99/128/3 112/129/3
f 117/130/3 72/123/3 109/125/3 118/131/3
f 115/132/3 92/118/3 90/120/3 114/133/3
f 119/134/3 110/88/3 73/40/3 120/69/3
f 75/126/7 197/126/7 196/99/7 74/99/7
f 108/101/16 230/101/16 203/104/16 81/104/16
f 72/123/4 194/123/4 231/125/4 109/125/4
f 103/98/11 225/98/11 224/108/11 102/108/11
f 81/104/23 203/104/23 215/86/23 93/86/23
f 111/124/7 233/124/7 197/126/7 75/126/7
f 68/135/7 66/136/7 62/94/7 74/99/7
f 67/89/3 66/137/3 68/138/3 77/90/3
f 200/92/24 189/89/24 67/89/24 78/92/24
f 67/89/16 189/89/16 188/137/16 66/137/16
f 74/99/7 196/99/7 190/135/7 68/135/7
f 66/136/7 188/136/7 184/94/7 62/94/7
f 87/111/4 209/111/4 186/112/4 64/112/4
f 65/107/19 187/107/19 209/111/19 87/111/19
f 97/109/13 219/109/13 211/121/13 89/121/13
f 95/62/15 217/62/15 216/119/15 94/119/15
f 99/128/25 221/128/25 220/110/25 98/110/25
f 96/117/13 218/117/13 214/118/13 92/118/13
f 94/119/8 216/119/8 208/114/8 86/114/8
f 86/114/19 208/114/19 192/71/19 70/71/19
f 91/106/8 213/106/8 187/107/8 65/107/8
f 101/95/19 223/95/19 191/93/19 69/93/19
f 98/110/8 220/110/8 223/95/8 101/95/8
f 64/112/17 186/112/17 226/113/17 104/113/17
f 89/121/7 211/121/7 221/128/7 99/128/7
f 102/108/16 224/108/16 219/109/16 97/109/16
f 104/113/16 226/113/16 218/117/16 96/117/16
f 69/93/4 191/93/4 225/98/4 103/98/4
f 92/118/3 115/132/3 116/63/3 95/62/3
f 119/139/3 115/140/3 114/141/3 118/142/3
f 89/121/3 113/127/3 114/133/3 90/120/3
f 117/143/3 113/144/3 112/145/3 121/146/3
f 98/110/3 88/81/3 112/129/3 99/128/3
f 72/123/3 117/130/3 121/147/3 80/122/3
f 110/88/3 119/134/3 118/131/3 109/125/3
f 115/140/3 119/139/3 120/60/3 116/59/3
f 113/144/3 117/143/3 118/142/3 114/141/3
f 88/148/3 122/149/3 121/146/3 112/145/3
f 88/81/3 100/115/3 71/87/3 122/150/3
f 71/87/3 80/122/3 121/147/3 122/150/3
f 17/4/7 139/4/7 140/5/7 18/5/7
f 149/26/8 124/9/8 2/9/8 27/26/8
f 222/115/26 100/115/26 88/81/26 210/81/26
f 222/115/7 207/116/7 85/116/7 100/115/7
f 207/116/27 227/105/27 105/105/27 85/116/27
f 227/105/8 228/102/8 106/102/8 105/105/8
f 206/103/28 84/103/28 106/102/28 228/102/28
f 206/103/4 205/97/4 83/97/4 84/103/4
f 185/82/29 63/82/29 83/97/29 205/97/29
f 213/106/25 91/106/25 90/120/25 212/120/25
f 199/90/8 77/90/8 68/138/8 190/138/8
f 199/90/30 201/91/30 79/91/30 77/90/30
f 62/94/7 184/94/7 204/96/7 82/96/7
f 92/118/7 214/118/7 212/120/7 90/120/7
f 161/33/27 149/26/27 27/26/27 39/33/27
f 161/33/7 39/33/7 24/32/7 146/32/7
f 146/32/26 24/32/26 44/19/26 166/19/26
f 166/19/16 44/19/16 45/17/16 167/17/16
f 145/16/29 167/17/29 45/17/29 23/16/29
f 145/16/4 23/16/4 22/11/4 144/11/4
f 124/9/28 144/11/28 22/11/28 2/9/28
f 152/21/14 151/38/14 29/38/14 30/21/14
f 138/6/16 129/67/16 7/67/16 16/6/16
f 138/6/31 16/6/31 18/5/31 140/5/31
f 21/12/7 143/12/7 123/10/7 1/10/7
f 29/38/7 151/38/7 153/37/7 31/37/7
f 128/3/32 138/6/32 140/5/32 139/4/32
f 130/7/12 123/10/12 124/9/12 162/8/12
f 123/10/12 143/12/12 144/11/12 124/9/12
f 123/10/12 130/7/12 164/14/12 135/13/12
f 168/15/12 169/18/12 167/17/12 145/16/12
f 167/17/12 169/18/12 142/20/12 166/19/12
f 152/21/12 126/24/12 163/23/12 158/22/12
f 162/8/12 124/9/12 149/26/12 159/25/12
f 145/16/12 144/11/12 143/12/12 168/15/12
f 126/24/12 148/27/12 164/14/12 163/23/12
f 131/28/12 125/31/12 165/30/12 147/29/12
f 132/1/12 161/33/12 146/32/12 154/2/12
f 157/34/12 153/37/12 156/36/12 155/35/12
f 151/38/12 152/21/12 158/22/12 150/39/12
f 165/30/12 157/34/12 155/35/12 147/29/12
f 142/20/12 154/2/12 146/32/12 166/19/12
f 148/27/12 136/48/12 135/13/12 164/14/12
f 136/48/12 148/27/12 125/31/12 172/44/12
f 131/28/12 137/45/12 172/44/12 125/31/12
f 174/49/12 150/39/12 160/51/12 173/50/12
f 178/52/12 133/42/12 170/47/12 179/53/12
f 176/54/12 153/37/12 151/38/12 175/55/12
f 180/56/12 171/46/12 134/41/12 181/57/12
f 181/61/12 242/60/12 238/59/12 177/58/12
f 177/64/12 238/63/12 217/62/12 156/36/12
f 129/65/7 127/66/7 123/10/7 135/13/7
f 128/3/12 127/68/12 129/67/12 138/6/12
f 153/37/12 176/54/12 177/64/12 156/36/12
f 180/72/12 176/75/12 175/74/12 179/73/12
f 150/39/12 174/49/12 175/55/12 151/38/12
f 178/76/12 174/79/12 173/78/12 182/77/12
f 159/25/12 149/26/12 173/50/12 160/51/12
f 133/42/12 178/52/12 182/80/12 141/43/12
f 171/46/12 180/56/12 179/53/12 170/47/12
f 176/75/12 180/72/12 181/61/12 177/58/12
f 174/79/12 178/76/12 179/73/12 175/74/12
f 149/83/12 183/84/12 182/77/12 173/78/12
f 149/26/12 161/33/12 132/1/12 183/85/12
f 132/1/12 141/43/12 182/80/12 183/85/12
f 131/28/4 9/28/4 70/71/4 192/71/4
f 189/89/32 200/92/32 201/91/32 199/90/32
f 191/93/12 223/95/12 185/82/12 184/94/12
f 184/94/12 185/82/12 205/97/12 204/96/12
f 184/94/12 196/99/12 225/98/12 191/93/12
f 229/100/12 206/103/12 228/102/12 230/101/12
f 228/102/12 227/105/12 203/104/12 230/101/12
f 213/106/12 219/109/12 224/108/12 187/107/12
f 223/95/12 220/110/12 210/81/12 185/82/12
f 206/103/12 229/100/12 204/96/12 205/97/12
f 187/107/12 224/108/12 225/98/12 209/111/12
f 192/71/12 208/114/12 226/113/12 186/112/12
f 193/87/12 215/86/12 207/116/12 222/115/12
f 218/117/12 216/119/12 217/62/12 214/118/12
f 212/120/12 211/121/12 219/109/12 213/106/12
f 226/113/12 208/114/12 216/119/12 218/117/12
f 203/104/12 227/105/12 207/116/12 215/86/12
f 209/111/12 225/98/12 196/99/12 197/126/12
f 197/126/12 233/124/12 186/112/12 209/111/12
f 192/71/12 186/112/12 233/124/12 198/70/12
f 235/127/12 234/129/12 221/128/12 211/121/12
f 239/130/12 240/131/12 231/125/12 194/123/12
f 237/132/12 236/133/12 212/120/12 214/118/12
f 241/134/12 242/69/12 195/40/12 232/88/12
f 190/135/7 196/99/7 184/94/7 188/136/7
f 189/89/12 199/90/12 190/138/12 188/137/12
f 214/118/12 217/62/12 238/63/12 237/132/12
f 241/139/12 240/142/12 236/141/12 237/140/12
f 211/121/12 212/120/12 236/133/12 235/127/12
f 239/143/12 243/146/12 234/145/12 235/144/12
f 220/110/12 221/128/12 234/129/12 210/81/12
f 194/123/12 202/122/12 243/147/12 239/130/12
f 232/88/12 231/125/12 240/131/12 241/134/12
f 237/140/12 238/59/12 242/60/12 241/139/12
f 235/144/12 236/141/12 240/142/12 239/143/12
f 210/148/12 234/145/12 243/146/12 244/149/12
f 210/81/12 244/150/12 193/87/12 222/115/12
f 193/87/12 244/150/12 243/147/12 202/122/12
f 59/57/3 120/69/3 73/40/3 12/41/3
f 79/91/7 201/91/7 200/92/7 78/92/7
