# Blender 5.1.0
# www.blender.org
mtllib barriere55_098.mtl
o barriere55.098
v 50.751358 0.406544 20.281620
v 50.750092 0.597168 20.344786
v 50.763062 0.643228 19.698074
v 50.759998 0.684294 19.850845
v 50.740078 0.406544 20.240942
v 50.740078 0.372827 20.240942
v 50.743210 0.406544 20.084703
v 50.754402 0.643228 20.129953
v 50.769146 0.643228 19.394743
v 50.746666 1.574804 20.515690
v 50.755455 1.574800 20.077394
v 50.767742 1.574800 19.464718
v 50.755455 0.406544 20.077394
v 50.759552 0.406543 19.873169
v 50.767742 0.406543 19.464718
v 50.743210 0.372827 20.084703
v 50.944683 0.224803 20.275644
v 50.949085 0.224803 20.056173
v 50.750092 1.574800 20.344784
v 50.743988 1.411595 20.649225
v 50.748943 0.406544 20.402130
v 50.748318 0.558043 20.433287
v 50.747028 0.558043 20.497559
v 50.747028 1.334638 20.497559
v 50.767372 0.684294 19.483244
v 50.761772 0.643228 19.762348
v 50.750092 1.295513 20.344784
v 50.755692 1.249449 20.065680
v 50.761772 1.249449 19.762348
v 50.759998 1.208383 19.850845
v 50.763062 1.249448 19.698074
v 50.744854 1.519067 20.606045
v 50.767372 1.208382 19.483244
v 50.769146 1.249448 19.394743
v 50.764835 1.208382 19.609571
v 50.757465 1.208383 19.977180
v 50.752625 1.208383 20.218452
v 50.754402 1.249452 20.129953
v 50.748318 1.334638 20.433287
v 50.752625 0.684295 20.218452
v 50.757465 0.684294 19.977180
v 50.755692 0.643228 20.065680
v 50.764835 0.684294 19.609571
v 50.745255 1.295510 20.586060
v 50.745255 0.597168 20.586060
v 50.745869 0.442269 20.555426
v 50.743988 0.546414 20.649225
v 50.759552 1.574800 19.873169
v 50.763645 1.574800 19.668943
v 50.763645 0.406543 19.668943
v 50.753971 1.295513 20.151426
v 50.755657 1.295513 20.067337
v 50.761459 1.295513 19.778038
v 50.763145 1.295512 19.693949
v 50.768948 1.295512 19.404650
v 50.755497 1.514732 20.075232
v 50.759960 1.514732 19.852709
v 50.763538 1.514731 19.674322
v 50.768002 1.514731 19.451797
v 50.750927 1.514733 20.303196
v 50.750092 1.514733 20.344784
v 50.788212 0.406543 18.444044
v 50.789478 0.597167 18.380878
v 50.776508 0.643227 19.027590
v 50.779572 0.684294 18.874817
v 50.775311 0.406543 18.484236
v 50.775311 0.372826 18.484236
v 50.772175 0.406543 18.640474
v 50.785172 0.643227 18.595711
v 50.770424 0.643227 19.330921
v 50.792908 1.574803 18.209972
v 50.784115 1.574800 18.648270
v 50.771828 1.574800 19.260946
v 50.784115 0.406543 18.648270
v 50.780022 0.406543 18.852495
v 50.771828 0.406543 19.260946
v 50.772175 0.372826 18.640474
v 50.981144 0.224802 18.457766
v 50.976742 0.224802 18.677237
v 50.789478 1.574800 18.380880
v 50.795586 1.411594 18.076439
v 50.790630 0.406543 18.323532
v 50.791252 0.558042 18.292377
v 50.792542 0.558042 18.228104
v 50.792542 1.334637 18.228104
v 50.772202 0.684294 19.242420
v 50.777798 0.643227 18.963316
v 50.789478 1.295512 18.380880
v 50.783882 1.249448 18.659985
v 50.777798 1.249448 18.963316
v 50.779572 1.208382 18.874817
v 50.776508 1.249448 19.027590
v 50.794720 1.519066 18.119619
v 50.772202 1.208382 19.242420
v 50.770424 1.249448 19.330921
v 50.774734 1.208382 19.116093
v 50.782104 1.208382 18.748484
v 50.786945 1.208382 18.507210
v 50.785172 1.249451 18.595711
v 50.791252 1.334637 18.292377
v 50.786945 0.684294 18.507210
v 50.782104 0.684294 18.748484
v 50.783882 0.643227 18.659985
v 50.774734 0.684294 19.116093
v 50.794319 1.295509 18.139605
v 50.794319 0.597167 18.139605
v 50.793701 0.442268 18.170238
v 50.795586 0.546413 18.076439
v 50.780022 1.574800 18.852495
v 50.775925 1.574800 19.056721
v 50.775925 0.406543 19.056721
v 50.785603 1.295512 18.574238
v 50.783913 1.295512 18.658325
v 50.778114 1.295512 18.947626
v 50.776424 1.295512 19.031713
v 50.770622 1.295512 19.321014
v 50.784073 1.514731 18.650433
v 50.779610 1.514731 18.872955
v 50.776031 1.514731 19.051342
v 50.771568 1.514731 19.273865
v 50.788643 1.514732 18.422466
v 50.789478 1.514732 18.380880
v 50.660938 0.406544 20.279806
v 50.659672 0.597168 20.342972
v 50.672642 0.643228 19.696260
v 50.669579 0.684294 19.849033
v 50.673840 0.406544 20.239614
v 50.673840 0.372827 20.239614
v 50.676975 0.406544 20.083376
v 50.663979 0.643228 20.128139
v 50.678726 0.643228 19.392929
v 50.656242 1.574804 20.513878
v 50.665035 1.574800 20.075581
v 50.677322 1.574800 19.462904
v 50.665035 0.406544 20.075581
v 50.669128 0.406543 19.871355
v 50.677322 0.406543 19.462904
v 50.676975 0.372827 20.083376
v 50.468006 0.224803 20.266085
v 50.472408 0.224803 20.046614
v 50.659672 1.574800 20.342970
v 50.653564 1.411595 20.647411
v 50.658520 0.406544 20.400318
v 50.657898 0.558043 20.431473
v 50.656609 0.558043 20.495747
v 50.656609 1.334638 20.495747
v 50.676949 0.684294 19.481430
v 50.671352 0.643228 19.760534
v 50.659672 1.295513 20.342970
v 50.665268 1.249449 20.063866
v 50.671352 1.249449 19.760534
v 50.669579 1.208383 19.849033
v 50.672642 1.249448 19.696260
v 50.654430 1.519067 20.604231
v 50.676949 1.208382 19.481430
v 50.678726 1.249448 19.392929
v 50.674416 1.208382 19.607758
v 50.667042 1.208383 19.975367
v 50.662205 1.208383 20.216640
v 50.663979 1.249452 20.128139
v 50.657898 1.334638 20.431473
v 50.662205 0.684295 20.216640
v 50.667046 0.684294 19.975367
v 50.665268 0.643228 20.063866
v 50.674416 0.684294 19.607758
v 50.654831 1.295510 20.584246
v 50.654831 0.597168 20.584246
v 50.655445 0.442269 20.553612
v 50.653564 0.546414 20.647411
v 50.669128 1.574800 19.871355
v 50.673225 1.574800 19.667130
v 50.673225 0.406543 19.667130
v 50.663548 1.295513 20.149612
v 50.665234 1.295513 20.065525
v 50.671036 1.295513 19.776224
v 50.672726 1.295512 19.692137
v 50.678524 1.295512 19.402836
v 50.665077 1.514732 20.073418
v 50.669540 1.514732 19.850895
v 50.673119 1.514731 19.672508
v 50.677582 1.514731 19.449986
v 50.660507 1.514733 20.301384
v 50.659672 1.514733 20.342970
v 50.697792 0.406543 18.442230
v 50.699059 0.597167 18.379065
v 50.686089 0.643227 19.025776
v 50.689152 0.684294 18.873005
v 50.709072 0.406543 18.482908
v 50.709072 0.372826 18.482908
v 50.705940 0.406543 18.639147
v 50.694748 0.643227 18.593897
v 50.680004 0.643227 19.329107
v 50.702484 1.574803 18.208160
v 50.693695 1.574800 18.646456
v 50.681408 1.574800 19.259132
v 50.693695 0.406543 18.646456
v 50.689598 0.406543 18.850681
v 50.681408 0.406543 19.259132
v 50.705940 0.372826 18.639147
v 50.504467 0.224802 18.448206
v 50.500065 0.224802 18.667677
v 50.699059 1.574800 18.379066
v 50.705162 1.411594 18.074625
v 50.700207 0.406543 18.321720
v 50.700832 0.558042 18.290564
v 50.702122 0.558042 18.226292
v 50.702122 1.334637 18.226292
v 50.681778 0.684294 19.240606
v 50.687378 0.643227 18.961502
v 50.699059 1.295512 18.379066
v 50.693459 1.249448 18.658171
v 50.687378 1.249448 18.961502
v 50.689152 1.208382 18.873005
v 50.686089 1.249448 19.025776
v 50.704296 1.519066 18.117805
v 50.681778 1.208382 19.240606
v 50.680004 1.249448 19.329107
v 50.684315 1.208382 19.114279
v 50.691685 1.208382 18.746670
v 50.696526 1.208382 18.505398
v 50.694748 1.249451 18.593897
v 50.700832 1.334637 18.290564
v 50.696526 0.684294 18.505398
v 50.691685 0.684294 18.746670
v 50.693459 0.643227 18.658171
v 50.684315 0.684294 19.114279
v 50.703896 1.295509 18.137791
v 50.703896 0.597167 18.137791
v 50.703281 0.442268 18.168425
v 50.705162 0.546413 18.074625
v 50.689598 1.574800 18.850681
v 50.685505 1.574800 19.054907
v 50.685505 0.406543 19.054907
v 50.695179 1.295512 18.572424
v 50.693493 1.295512 18.656513
v 50.687691 1.295512 18.945812
v 50.686005 1.295512 19.029902
v 50.680202 1.295512 19.319201
v 50.693653 1.514731 18.648619
v 50.689190 1.514731 18.871141
v 50.685612 1.514731 19.049528
v 50.681149 1.514731 19.272053
v 50.698223 1.514732 18.420654
v 50.699059 1.514732 18.379066
vn -0.0105 0.8511 0.5248
vn 0.5848 0.8111 0.0117
vn 0.9998 -0.0000 0.0201
vn 0.9998 -0.0000 0.0200
vn 0.9998 -0.0001 0.0201
vn 0.9998 -0.0001 0.0200
vn -0.0000 1.0000 -0.0000
vn -0.0046 -0.9739 0.2269
vn -0.0149 -0.6693 0.7428
vn -0.0000 -1.0000 -0.0000
vn -0.0201 -0.0000 0.9998
vn -0.0186 0.3729 0.9277
vn -0.0196 0.2024 0.9791
vn -0.0200 -0.0000 0.9998
vn 0.0084 0.9071 -0.4207
vn -0.9998 -0.0000 -0.0201
vn -0.9998 -0.0000 -0.0200
vn 0.0084 -0.9071 -0.4208
vn -0.0084 -0.9071 0.4208
vn 0.0200 -0.0000 -0.9998
vn 0.0084 0.9071 -0.4208
vn -0.0084 0.9071 0.4208
vn 0.0105 0.8511 -0.5248
vn 0.9998 0.0001 0.0201
vn 0.0046 -0.9739 -0.2269
vn 0.0149 -0.6693 -0.7428
vn 0.9998 0.0001 0.0200
vn 0.0201 -0.0000 -0.9998
vn 0.0186 0.3729 -0.9277
vn 0.0196 0.2024 -0.9791
vn 0.0081 -0.9147 -0.4042
vn -0.0081 -0.9146 0.4042
vn -0.0081 0.9146 0.4042
vn 0.0081 0.9146 -0.4042
vn -0.0084 -0.9071 0.4207
vn -0.0196 0.2154 0.9763
vn 0.0081 -0.9146 -0.4042
vn 0.0084 -0.9071 -0.4207
vn 0.0196 0.2154 -0.9763
vn -0.5848 0.8111 -0.0117
vn -0.9998 0.0001 -0.0201
vn -0.9998 -0.0001 -0.0200
vn -0.9998 -0.0001 -0.0201
vt 0.563424 0.076340
vt 0.553130 0.073518
vt 0.930572 0.423953
vt 0.921307 0.379121
vt 0.987792 0.379121
vt 0.977903 0.423953
vt 0.607372 0.029178
vt 0.597289 0.031257
vt 0.582896 0.026846
vt 0.590093 0.017196
vt 0.572813 0.024865
vt 0.576362 0.017196
vt 0.613360 0.017196
vt 0.614695 0.029178
vt 0.558897 0.019004
vt 0.565490 0.024865
vt 0.555407 0.026846
vt 0.548211 0.024277
vt 0.555407 0.062200
vt 0.548211 0.068077
vt 0.639171 0.057790
vt 0.624778 0.057790
vt 0.624778 0.031257
vt 0.639171 0.031257
vt 0.597289 0.057790
vt 0.582896 0.062201
vt 0.649254 0.029178
vt 0.691136 0.029178
vt 0.681053 0.031257
vt 0.666660 0.031257
vt 0.656577 0.029178
vt 0.565490 0.064181
vt 0.572813 0.064181
vt 0.666660 0.057790
vt 0.681053 0.057790
vt 0.691136 0.059869
vt 0.656577 0.059869
vt 0.649254 0.059869
vt 0.614695 0.059869
vt 0.706379 0.076340
vt 0.683164 0.076340
vt 0.613360 0.076340
vt 0.582896 0.076340
vt 0.659896 0.017196
vt 0.683164 0.017196
vt 0.659896 0.076340
vt 0.636628 0.076340
vt 0.636628 0.017196
vt 0.614506 0.062201
vt 0.604926 0.062201
vt 0.607372 0.059869
vt 0.613607 0.073299
vt 0.638959 0.073299
vt 0.657047 0.062201
vt 0.647466 0.062201
vt 0.659283 0.073299
vt 0.684635 0.073299
vt 0.688839 0.081258
vt 0.699816 0.081258
vt 0.706005 0.126709
vt 0.682651 0.126709
vt 0.698407 0.059869
vt 0.699536 0.062201
vt 0.690007 0.062201
vt 0.612500 0.017196
vt 0.594699 0.017196
vt 0.977903 0.434165
vt 0.930572 0.434165
vt 0.704907 0.073299
vt 0.706379 0.017196
vt 0.698407 0.029178
vt 0.653445 0.126709
vt 0.630032 0.126709
vt 0.639832 0.081258
vt 0.650869 0.081258
vt 0.600826 0.126709
vt 0.570905 0.126710
vt 0.590825 0.081258
vt 0.601862 0.081258
vt 0.587634 0.073299
vt 0.806647 0.062201
vt 0.806647 0.026846
vt 0.565447 0.081258
vt 0.565447 0.126710
vt 0.582896 0.073299
vt 0.836413 0.073518
vt 0.826118 0.076340
vt 0.729647 0.076340
vt 0.978547 0.423953
vt 0.931216 0.423953
vt 0.921327 0.379121
vt 0.987812 0.379121
vt 0.782171 0.029178
vt 0.799450 0.017196
vt 0.792254 0.031257
vt 0.813181 0.017196
vt 0.816730 0.024865
vt 0.774848 0.029178
vt 0.776183 0.017196
vt 0.830646 0.019004
vt 0.841332 0.024277
vt 0.834136 0.026846
vt 0.824053 0.024865
vt 0.841332 0.068077
vt 0.834136 0.062200
vt 0.750372 0.057790
vt 0.750372 0.031257
vt 0.764765 0.031257
vt 0.764765 0.057790
vt 0.792254 0.057790
vt 0.740289 0.029178
vt 0.732966 0.029178
vt 0.722883 0.031257
vt 0.708490 0.031257
vt 0.816730 0.064181
vt 0.824053 0.064181
vt 0.722883 0.057790
vt 0.732966 0.059869
vt 0.708490 0.057790
vt 0.740289 0.059869
vt 0.774848 0.059869
vt 0.806647 0.076340
vt 0.776183 0.076340
vt 0.729647 0.017196
vt 0.752915 0.076340
vt 0.752915 0.017196
vt 0.775037 0.062201
vt 0.782171 0.059869
vt 0.784617 0.062201
vt 0.775936 0.073299
vt 0.750584 0.073299
vt 0.732496 0.062201
vt 0.742077 0.062201
vt 0.730260 0.073299
vt 0.777043 0.017196
vt 0.794844 0.017196
vt 0.978547 0.434165
vt 0.931216 0.434165
vt 0.735211 0.126709
vt 0.737787 0.081258
vt 0.748824 0.081258
vt 0.758624 0.126709
vt 0.787830 0.126709
vt 0.786794 0.081258
vt 0.797831 0.081258
vt 0.817751 0.126710
vt 0.801909 0.073299
vt 0.823209 0.081258
vt 0.823209 0.126710
vt 0.806647 0.073299
s 1
usemtl initialShadingGroup.004
f 10/1/1 132/1/1 154/2/1 32/2/1
f 6/3/2 17/4/2 18/5/2 16/6/2
f 8/7/3 40/8/3 2/9/4 1/10/3
f 1/10/3 2/9/4 22/11/4 21/12/4
f 1/10/3 13/13/3 42/14/3 8/7/3
f 46/15/4 23/16/4 45/17/4 47/18/4
f 45/17/4 44/19/4 20/20/4 47/18/4
f 30/21/4 36/22/4 41/23/4 4/24/4
f 40/8/3 37/25/3 27/26/3 2/9/4
f 23/16/4 46/15/4 21/12/4 22/11/4
f 4/24/4 41/23/4 42/14/3 26/27/4
f 9/28/4 25/29/3 43/30/3 3/31/3
f 10/1/4 32/2/4 24/32/4 39/33/4
f 35/34/3 33/35/3 34/36/4 31/37/5
f 29/38/6 28/39/4 36/22/4 30/21/4
f 43/30/3 25/29/3 33/35/3 35/34/3
f 73/40/7 195/40/7 134/41/7 12/41/7
f 46/15/8 168/15/8 143/12/8 21/12/8
f 11/42/7 133/42/7 141/43/7 19/43/7
f 47/18/9 169/18/9 168/15/9 46/15/9
f 50/44/10 172/44/10 137/45/10 15/45/10
f 19/43/7 141/43/7 132/1/7 10/1/7
f 20/20/4 44/19/4 24/32/4 32/2/4
f 49/46/7 171/46/7 170/47/7 48/47/7
f 26/27/4 42/14/3 13/13/3 14/48/4
f 14/48/4 50/44/4 3/31/3 26/27/4
f 9/28/4 3/31/3 50/44/4 15/45/4
f 52/49/4 51/50/3 38/51/3 28/39/4
f 56/52/3 57/53/3 48/47/3 11/42/3
f 54/54/3 53/55/5 29/38/6 31/37/5
f 58/56/3 59/57/4 12/41/3 49/46/3
f 55/58/4 116/59/4 120/60/4 59/61/4
f 13/13/10 135/13/10 136/48/10 14/48/10
f 20/20/11 142/20/11 169/18/11 47/18/11
f 34/36/4 95/62/4 116/63/4 55/64/4
f 48/47/7 170/47/7 133/42/7 11/42/7
f 32/2/12 154/2/12 142/20/12 20/20/12
f 14/48/10 136/48/10 172/44/10 50/44/10
f 7/65/10 13/13/10 1/10/10 5/66/10
f 6/3/4 16/6/4 7/67/4 5/68/4
f 139/4/13 17/4/13 6/3/13 128/3/13
f 5/68/14 127/68/14 128/3/14 6/3/14
f 7/65/10 129/65/10 135/13/10 13/13/10
f 1/10/10 123/10/10 127/66/10 5/66/10
f 3/31/7 125/31/7 148/27/7 26/27/7
f 26/27/15 148/27/15 126/24/15 4/24/15
f 134/41/16 195/40/16 242/69/17 181/57/17
f 156/36/10 217/62/10 95/62/10 34/36/10
f 33/35/18 155/35/18 156/36/18 34/36/18
f 37/25/18 159/25/18 160/51/18 38/51/18
f 31/37/19 153/37/19 157/34/19 35/34/19
f 25/29/20 147/29/20 155/35/20 33/35/20
f 9/28/21 131/28/21 147/29/21 25/29/21
f 4/24/20 126/24/20 152/21/20 30/21/20
f 8/7/21 130/7/21 162/8/21 40/8/21
f 40/8/20 162/8/20 159/25/20 37/25/20
f 43/30/22 165/30/22 125/31/22 3/31/22
f 38/51/10 160/51/10 150/39/10 28/39/10
f 76/70/4 70/71/4 9/28/4 15/45/4
f 36/22/14 158/22/14 163/23/14 41/23/14
f 35/34/11 157/34/11 165/30/11 43/30/11
f 42/14/7 164/14/7 130/7/7 8/7/7
f 28/39/19 150/39/19 158/22/19 36/22/19
f 31/37/5 34/36/4 55/64/4 54/54/3
f 58/72/3 57/73/3 53/74/5 54/75/3
f 28/39/4 29/38/6 53/55/5 52/49/4
f 56/76/3 60/77/3 51/78/3 52/79/4
f 37/25/3 38/51/3 51/50/3 27/26/3
f 11/42/3 19/43/4 60/80/3 56/52/3
f 49/46/3 48/47/3 57/53/3 58/56/3
f 210/81/20 88/81/20 63/82/20 185/82/20
f 54/75/3 55/58/4 59/61/4 58/72/3
f 52/79/4 53/74/5 57/73/3 56/76/3
f 27/83/3 51/78/3 60/77/3 61/84/4
f 27/26/3 61/85/4 10/1/4 39/33/4
f 10/1/4 61/85/4 60/80/3 19/43/4
f 12/41/7 134/41/7 171/46/7 49/46/7
f 41/23/22 163/23/22 164/14/22 42/14/22
f 15/45/10 137/45/10 198/70/10 76/70/10
f 93/86/23 215/86/23 193/87/23 71/87/23
f 110/88/7 232/88/7 195/40/7 73/40/7
f 67/89/2 77/90/2 79/91/2 78/92/2
f 69/93/3 62/94/3 63/82/4 101/95/4
f 62/94/3 82/96/4 83/97/4 63/82/4
f 62/94/3 69/93/3 103/98/3 74/99/3
f 107/100/3 108/101/3 106/102/3 84/103/3
f 106/102/3 108/101/3 81/104/3 105/105/3
f 91/106/4 65/107/4 102/108/4 97/109/4
f 101/95/4 63/82/4 88/81/4 98/110/4
f 84/103/3 83/97/4 82/96/4 107/100/3
f 65/107/4 87/111/3 103/98/3 102/108/4
f 70/71/4 64/112/3 104/113/3 86/114/3
f 71/87/3 100/115/3 85/116/3 93/86/3
f 96/117/3 92/118/24 95/62/4 94/119/3
f 90/120/3 91/106/4 97/109/4 89/121/5
f 104/113/3 96/117/3 94/119/3 86/114/3
f 198/70/17 137/45/17 131/28/17 192/71/17
f 82/96/25 204/96/25 229/100/25 107/100/25
f 80/122/7 202/122/7 194/123/7 72/123/7
f 107/100/26 229/100/26 230/101/26 108/101/26
f 76/70/10 198/70/10 233/124/10 111/124/10
f 71/87/7 193/87/7 202/122/7 80/122/7
f 81/104/3 93/86/3 85/116/3 105/105/3
f 109/125/7 231/125/7 232/88/7 110/88/7
f 87/111/3 75/126/3 74/99/3 103/98/3
f 75/126/3 87/111/3 64/112/3 111/124/3
f 70/71/4 76/70/4 111/124/3 64/112/3
f 113/127/3 89/121/5 99/128/3 112/129/3
f 117/130/4 72/123/27 109/125/3 118/131/3
f 115/132/24 92/118/24 90/120/3 114/133/3
f 119/134/3 110/88/3 73/40/5 120/69/4
f 75/126/10 197/126/10 196/99/10 74/99/10
f 108/101/28 230/101/28 203/104/28 81/104/28
f 72/123/7 194/123/7 231/125/7 109/125/7
f 103/98/21 225/98/21 224/108/21 102/108/21
f 81/104/29 203/104/29 215/86/29 93/86/29
f 111/124/10 233/124/10 197/126/10 75/126/10
f 68/135/10 66/136/10 62/94/10 74/99/10
f 67/89/3 66/137/3 68/138/3 77/90/3
f 200/92/30 189/89/30 67/89/30 78/92/30
f 67/89/20 189/89/20 188/137/20 66/137/20
f 74/99/10 196/99/10 190/135/10 68/135/10
f 66/136/10 188/136/10 184/94/10 62/94/10
f 87/111/7 209/111/7 186/112/7 64/112/7
f 65/107/22 187/107/22 209/111/22 87/111/22
f 97/109/18 219/109/18 211/121/18 89/121/18
f 95/62/19 217/62/19 216/119/19 94/119/19
f 99/128/19 221/128/19 220/110/19 98/110/19
f 96/117/18 218/117/18 214/118/18 92/118/18
f 94/119/11 216/119/11 208/114/11 86/114/11
f 86/114/22 208/114/22 192/71/22 70/71/22
f 91/106/14 213/106/14 187/107/14 65/107/14
f 101/95/22 223/95/22 191/93/22 69/93/22
f 98/110/14 220/110/14 223/95/14 101/95/14
f 64/112/21 186/112/21 226/113/21 104/113/21
f 89/121/10 211/121/10 221/128/10 99/128/10
f 102/108/28 224/108/28 219/109/28 97/109/28
f 104/113/28 226/113/28 218/117/28 96/117/28
f 69/93/7 191/93/7 225/98/7 103/98/7
f 92/118/24 115/132/24 116/63/4 95/62/4
f 119/139/3 115/140/24 114/141/3 118/142/3
f 89/121/5 113/127/3 114/133/3 90/120/3
f 117/143/4 113/144/3 112/145/3 121/146/3
f 98/110/4 88/81/4 112/129/3 99/128/3
f 72/123/27 117/130/4 121/147/3 80/122/3
f 110/88/3 119/134/3 118/131/3 109/125/3
f 115/140/24 119/139/3 120/60/4 116/59/4
f 113/144/3 117/143/4 118/142/3 114/141/3
f 88/148/4 122/149/3 121/146/3 112/145/3
f 88/81/4 100/115/3 71/87/3 122/150/3
f 71/87/3 80/122/3 121/147/3 122/150/3
f 17/4/10 139/4/10 140/5/10 18/5/10
f 149/26/14 124/9/14 2/9/14 27/26/14
f 222/115/31 100/115/31 88/81/31 210/81/31
f 222/115/10 207/116/10 85/116/10 100/115/10
f 207/116/32 227/105/32 105/105/32 85/116/32
f 227/105/11 228/102/11 106/102/11 105/105/11
f 206/103/33 84/103/33 106/102/33 228/102/33
f 206/103/7 205/97/7 83/97/7 84/103/7
f 185/82/34 63/82/34 83/97/34 205/97/34
f 213/106/35 91/106/35 90/120/35 212/120/35
f 199/90/14 77/90/14 68/138/14 190/138/14
f 199/90/36 201/91/36 79/91/36 77/90/36
f 62/94/10 184/94/10 204/96/10 82/96/10
f 92/118/10 214/118/10 212/120/10 90/120/10
f 161/33/32 149/26/32 27/26/32 39/33/32
f 161/33/10 39/33/10 24/32/10 146/32/10
f 146/32/37 24/32/37 44/19/37 166/19/37
f 166/19/28 44/19/28 45/17/28 167/17/28
f 145/16/34 167/17/34 45/17/34 23/16/34
f 145/16/7 23/16/7 22/11/7 144/11/7
f 124/9/33 144/11/33 22/11/33 2/9/33
f 152/21/38 151/38/38 29/38/38 30/21/38
f 138/6/20 129/67/20 7/67/20 16/6/20
f 138/6/39 16/6/39 18/5/39 140/5/39
f 21/12/10 143/12/10 123/10/10 1/10/10
f 29/38/10 151/38/10 153/37/10 31/37/10
f 128/3/40 138/6/40 140/5/40 139/4/40
f 130/7/16 123/10/16 124/9/17 162/8/17
f 123/10/16 143/12/16 144/11/16 124/9/17
f 123/10/16 130/7/16 164/14/16 135/13/16
f 168/15/16 169/18/16 167/17/16 145/16/16
f 167/17/16 169/18/16 142/20/16 166/19/16
f 152/21/41 126/24/16 163/23/16 158/22/41
f 162/8/17 124/9/17 149/26/17 159/25/17
f 145/16/16 144/11/16 143/12/16 168/15/16
f 126/24/16 148/27/16 164/14/16 163/23/16
f 131/28/17 125/31/16 165/30/16 147/29/16
f 132/1/16 161/33/16 146/32/16 154/2/16
f 157/34/16 153/37/16 156/36/17 155/35/16
f 151/38/16 152/21/41 158/22/41 150/39/16
f 165/30/16 157/34/16 155/35/16 147/29/16
f 142/20/16 154/2/16 146/32/16 166/19/16
f 148/27/16 136/48/16 135/13/16 164/14/16
f 136/48/16 148/27/16 125/31/16 172/44/16
f 131/28/17 137/45/17 172/44/16 125/31/16
f 174/49/16 150/39/16 160/51/42 173/50/17
f 178/52/17 133/42/17 170/47/17 179/53/16
f 176/54/16 153/37/16 151/38/16 175/55/16
f 180/56/16 171/46/16 134/41/16 181/57/17
f 181/61/17 242/60/17 238/59/16 177/58/17
f 177/64/17 238/63/16 217/62/16 156/36/17
f 129/65/10 127/66/10 123/10/10 135/13/10
f 128/3/16 127/68/16 129/67/16 138/6/16
f 153/37/16 176/54/16 177/64/17 156/36/17
f 180/72/16 176/75/16 175/74/16 179/73/16
f 150/39/16 174/49/16 175/55/16 151/38/16
f 178/76/17 174/79/16 173/78/17 182/77/16
f 159/25/17 149/26/17 173/50/17 160/51/42
f 133/42/17 178/52/17 182/80/16 141/43/16
f 171/46/16 180/56/16 179/53/16 170/47/17
f 176/75/16 180/72/16 181/61/17 177/58/17
f 174/79/16 178/76/17 179/73/16 175/74/16
f 149/83/17 183/84/16 182/77/16 173/78/17
f 149/26/17 161/33/16 132/1/16 183/85/16
f 132/1/16 141/43/16 182/80/16 183/85/16
f 131/28/7 9/28/7 70/71/7 192/71/7
f 189/89/40 200/92/40 201/91/40 199/90/40
f 191/93/16 223/95/16 185/82/17 184/94/16
f 184/94/16 185/82/17 205/97/17 204/96/17
f 184/94/16 196/99/16 225/98/16 191/93/16
f 229/100/17 206/103/17 228/102/17 230/101/17
f 228/102/17 227/105/17 203/104/17 230/101/17
f 213/106/17 219/109/17 224/108/42 187/107/42
f 223/95/16 220/110/16 210/81/16 185/82/17
f 206/103/17 229/100/17 204/96/17 205/97/17
f 187/107/42 224/108/42 225/98/16 209/111/17
f 192/71/17 208/114/41 226/113/41 186/112/16
f 193/87/17 215/86/17 207/116/17 222/115/17
f 218/117/43 216/119/43 217/62/16 214/118/16
f 212/120/42 211/121/17 219/109/17 213/106/17
f 226/113/41 208/114/41 216/119/43 218/117/43
f 203/104/17 227/105/17 207/116/17 215/86/17
f 209/111/17 225/98/16 196/99/16 197/126/17
f 197/126/17 233/124/17 186/112/16 209/111/17
f 192/71/17 186/112/16 233/124/17 198/70/17
f 235/127/17 234/129/41 221/128/41 211/121/17
f 239/130/16 240/131/16 231/125/16 194/123/16
f 237/132/16 236/133/16 212/120/42 214/118/16
f 241/134/16 242/69/17 195/40/16 232/88/16
f 190/135/10 196/99/10 184/94/10 188/136/10
f 189/89/17 199/90/17 190/138/17 188/137/17
f 214/118/16 217/62/16 238/63/16 237/132/16
f 241/139/16 240/142/16 236/141/16 237/140/16
f 211/121/17 212/120/42 236/133/16 235/127/17
f 239/143/16 243/146/16 234/145/41 235/144/17
f 220/110/16 221/128/41 234/129/41 210/81/16
f 194/123/16 202/122/17 243/147/16 239/130/16
f 232/88/16 231/125/16 240/131/16 241/134/16
f 237/140/16 238/59/16 242/60/17 241/139/16
f 235/144/17 236/141/16 240/142/16 239/143/16
f 210/148/16 234/145/41 243/146/16 244/149/17
f 210/81/16 244/150/17 193/87/17 222/115/17
f 193/87/17 244/150/17 243/147/16 202/122/17
f 59/57/4 120/69/4 73/40/5 12/41/3
f 79/91/10 201/91/10 200/92/10 78/92/10
