# Blender 5.1.0
# www.blender.org
mtllib barriere55_122.mtl
o barriere55.122
v -61.531830 0.405359 25.227308
v -61.480240 0.595982 25.190836
v -62.008415 0.642042 25.564249
v -61.883644 0.683110 25.476038
v -61.557869 0.405359 25.260530
v -61.557869 0.371642 25.260530
v -61.685471 0.405359 25.350744
v -61.655697 0.642042 25.314880
v -62.256145 0.642042 25.739393
v -61.340660 1.573618 25.092155
v -61.698620 1.573616 25.345228
v -62.198997 1.573616 25.698990
v -61.698620 0.405359 25.345228
v -61.865414 0.405359 25.463150
v -62.198997 0.405359 25.698990
v -61.685471 0.371642 25.350744
v -61.651382 0.223618 25.075266
v -61.830627 0.223618 25.201990
v -61.480244 1.573616 25.190838
v -61.231602 1.410410 25.015053
v -61.433407 0.405359 25.157724
v -61.407963 0.556857 25.139736
v -61.355469 0.556857 25.102625
v -61.355469 1.333453 25.102625
v -62.183868 0.683110 25.688293
v -61.955921 0.642042 25.527138
v -61.480244 1.294327 25.190838
v -61.708187 1.248264 25.351994
v -61.955921 1.248264 25.527138
v -61.883644 1.207198 25.476038
v -62.008415 1.248264 25.564249
v -61.266869 1.517882 25.039986
v -62.183868 1.207198 25.688293
v -62.256145 1.248264 25.739393
v -62.080692 1.207198 25.615351
v -61.780468 1.207198 25.403093
v -61.583416 1.207198 25.263781
v -61.655693 1.248267 25.314880
v -61.407963 1.333453 25.139736
v -61.583416 0.683110 25.263781
v -61.780468 0.683110 25.403093
v -61.708187 0.642042 25.351994
v -62.080692 0.683110 25.615351
v -61.283192 1.294325 25.051523
v -61.283192 0.595982 25.051523
v -61.308208 0.441084 25.069212
v -61.231602 0.545229 25.015053
v -61.865414 1.573616 25.463150
v -62.032204 1.573616 25.581070
v -62.032204 0.405359 25.581070
v -61.638157 1.294327 25.302483
v -61.706833 1.294327 25.351036
v -61.943108 1.294327 25.518078
v -62.011784 1.294327 25.566631
v -62.248055 1.294327 25.733673
v -61.700386 1.513547 25.346478
v -61.882122 1.513547 25.474962
v -62.027813 1.513547 25.577965
v -62.209549 1.513547 25.706450
v -61.514206 1.513548 25.214849
v -61.480244 1.513548 25.190838
v -63.032589 0.405359 26.288330
v -63.084175 0.595982 26.324800
v -62.556004 0.642042 25.951389
v -62.680771 0.683110 26.039600
v -62.992584 0.405359 26.274858
v -62.992584 0.371642 26.274858
v -62.864983 0.405359 26.184645
v -62.908722 0.642042 26.200758
v -62.308270 0.642042 25.776245
v -63.223755 1.573618 26.423483
v -62.865795 1.573616 26.170408
v -62.365417 1.573616 25.816648
v -62.865795 0.405359 26.170408
v -62.699001 0.405359 26.052488
v -62.365417 0.405359 25.816648
v -62.864983 0.371642 26.184645
v -63.136059 0.223618 26.124914
v -62.956814 0.223618 25.998192
v -63.084175 1.573616 26.324800
v -63.332813 1.410410 26.500586
v -63.131012 0.405359 26.357912
v -63.156456 0.556857 26.375902
v -63.208946 0.556857 26.413013
v -63.208946 1.333453 26.413013
v -62.380550 0.683110 25.827345
v -62.608494 0.642042 25.988501
v -63.084175 1.294327 26.324800
v -62.856228 1.248264 26.163645
v -62.608494 1.248264 25.988501
v -62.680771 1.207198 26.039600
v -62.556004 1.248264 25.951389
v -63.297546 1.517882 26.475653
v -62.380550 1.207198 25.827345
v -62.308270 1.248264 25.776245
v -62.483723 1.207198 25.900288
v -62.783951 1.207198 26.112545
v -62.980999 1.207198 26.251856
v -62.908722 1.248267 26.200758
v -63.156456 1.333453 26.375902
v -62.980999 0.683110 26.251856
v -62.783951 0.683110 26.112545
v -62.856228 0.642042 26.163645
v -62.483723 0.683110 25.900288
v -63.281227 1.294325 26.464113
v -63.281227 0.595982 26.464113
v -63.256207 0.441084 26.446426
v -63.332813 0.545229 26.500586
v -62.699001 1.573616 26.052488
v -62.532211 1.573616 25.934568
v -62.532211 0.405359 25.934568
v -62.926258 1.294327 26.213156
v -62.857582 1.294327 26.164602
v -62.621311 1.294327 25.997561
v -62.552635 1.294327 25.949007
v -62.316360 1.294327 25.781965
v -62.864029 1.513547 26.169161
v -62.682293 1.513547 26.040674
v -62.536602 1.513547 25.937674
v -62.354866 1.513547 25.809189
v -63.050209 1.513548 26.300789
v -63.084175 1.513548 26.324800
v -61.479618 0.405359 25.301155
v -61.428032 0.595982 25.264685
v -61.956203 0.642042 25.638096
v -61.831436 0.683110 25.549885
v -61.519623 0.405359 25.314627
v -61.519623 0.371642 25.314627
v -61.647224 0.405359 25.404840
v -61.603485 0.642042 25.388727
v -62.203938 0.642042 25.813240
v -61.288452 1.573618 25.166002
v -61.646412 1.573616 25.419077
v -62.146790 1.573616 25.772837
v -61.646412 0.405359 25.419077
v -61.813206 0.405359 25.536997
v -62.146790 0.405359 25.772837
v -61.647224 0.371642 25.404840
v -61.376148 0.223618 25.464571
v -61.555393 0.223618 25.591293
v -61.428032 1.573616 25.264685
v -61.179394 1.410410 25.088900
v -61.381195 0.405359 25.231573
v -61.355751 0.556857 25.213583
v -61.303261 0.556857 25.176472
v -61.303261 1.333453 25.176472
v -62.131657 0.683110 25.762140
v -61.903713 0.642042 25.600985
v -61.428032 1.294327 25.264685
v -61.655979 1.248264 25.425840
v -61.903713 1.248264 25.600985
v -61.831436 1.207198 25.549885
v -61.956203 1.248264 25.638096
v -61.214661 1.517882 25.113832
v -62.131657 1.207198 25.762140
v -62.203938 1.248264 25.813240
v -62.028484 1.207198 25.689198
v -61.728256 1.207198 25.476940
v -61.531208 1.207198 25.337629
v -61.603485 1.248267 25.388729
v -61.355751 1.333453 25.213583
v -61.531208 0.683110 25.337629
v -61.728256 0.683110 25.476940
v -61.655979 0.642042 25.425840
v -62.028484 0.683110 25.689198
v -61.230980 1.294325 25.125372
v -61.230980 0.595982 25.125372
v -61.256001 0.441084 25.143059
v -61.179394 0.545229 25.088900
v -61.813202 1.573616 25.536997
v -61.979996 1.573616 25.654917
v -61.979996 0.405359 25.654917
v -61.585949 1.294327 25.376329
v -61.654625 1.294327 25.424883
v -61.890896 1.294327 25.591925
v -61.959572 1.294327 25.640478
v -62.195847 1.294327 25.807520
v -61.648178 1.513547 25.420324
v -61.829914 1.513547 25.548811
v -61.975605 1.513547 25.651812
v -62.157341 1.513547 25.780296
v -61.461998 1.513548 25.288696
v -61.428032 1.513548 25.264685
v -62.980377 0.405359 26.362177
v -63.031967 0.595982 26.398649
v -62.503792 0.642042 26.025236
v -62.628563 0.683110 26.113447
v -62.954338 0.405359 26.328955
v -62.954338 0.371642 26.328955
v -62.826736 0.405359 26.238741
v -62.856510 0.642042 26.274605
v -62.256062 0.642042 25.850092
v -63.171547 1.573618 26.497330
v -62.813587 1.573616 26.244257
v -62.313210 1.573616 25.890495
v -62.813587 0.405359 26.244257
v -62.646793 0.405359 26.126335
v -62.313210 0.405359 25.890495
v -62.826736 0.371642 26.238741
v -62.860825 0.223618 26.514219
v -62.681580 0.223618 26.387495
v -63.031963 1.573616 26.398647
v -63.280605 1.410410 26.574432
v -63.078800 0.405359 26.431761
v -63.104244 0.556857 26.449749
v -63.156738 0.556857 26.486860
v -63.156738 1.333453 26.486860
v -62.328339 0.683110 25.901192
v -62.556286 0.642042 26.062347
v -63.031963 1.294327 26.398647
v -62.804020 1.248264 26.237492
v -62.556286 1.248264 26.062347
v -62.628563 1.207198 26.113447
v -62.503792 1.248264 26.025236
v -63.245338 1.517882 26.549500
v -62.328339 1.207198 25.901192
v -62.256062 1.248264 25.850092
v -62.431515 1.207198 25.974134
v -62.731739 1.207198 26.186392
v -62.928791 1.207198 26.325705
v -62.856510 1.248267 26.274605
v -63.104244 1.333453 26.449749
v -62.928791 0.683110 26.325705
v -62.731739 0.683110 26.186392
v -62.804020 0.642042 26.237492
v -62.431515 0.683110 25.974134
v -63.229015 1.294325 26.537962
v -63.229015 0.595982 26.537962
v -63.203999 0.441084 26.520273
v -63.280605 0.545229 26.574432
v -62.646793 1.573616 26.126335
v -62.480003 1.573616 26.008415
v -62.480003 0.405359 26.008415
v -62.874046 1.294327 26.287003
v -62.805374 1.294327 26.238449
v -62.569099 1.294327 26.071407
v -62.500423 1.294327 26.022854
v -62.264153 1.294327 25.855812
v -62.811821 1.513547 26.243008
v -62.630085 1.513547 26.114523
v -62.484394 1.513547 26.011520
v -62.302658 1.513547 25.883036
v -62.998001 1.513548 26.374636
v -63.031963 1.513548 26.398647
vn 0.4287 0.8511 -0.3030
vn -0.3377 0.8111 -0.4776
vn -0.5773 -0.0000 -0.8165
vn -0.5773 -0.0000 -0.8166
vn -0.5772 -0.0000 -0.8166
vn -0.5773 0.0001 -0.8165
vn -0.0000 1.0000 -0.0000
vn 0.1853 -0.9739 -0.1310
vn 0.6067 -0.6693 -0.4289
vn -0.0000 -1.0000 -0.0000
vn 0.8165 -0.0000 -0.5773
vn 0.7576 0.3729 -0.5356
vn 0.7996 0.2024 -0.5653
vn -0.3437 0.9071 0.2430
vn 0.5773 -0.0000 0.8165
vn -0.3436 -0.9071 0.2429
vn -0.3437 -0.9071 0.2430
vn 0.3436 -0.9071 -0.2429
vn -0.8165 -0.0000 0.5773
vn -0.3436 0.9071 0.2430
vn -0.3436 0.9071 0.2429
vn -0.8166 -0.0000 0.5773
vn 0.3436 0.9071 -0.2429
vn 0.3436 0.9071 -0.2430
vn -0.4286 0.8511 0.3030
vn -0.1853 -0.9739 0.1310
vn -0.6067 -0.6693 0.4289
vn -0.7577 0.3729 0.5356
vn -0.7996 0.2024 0.5653
vn 0.3437 0.9071 -0.2430
vn 0.3437 -0.9071 -0.2430
vn 0.8166 -0.0000 -0.5773
vn -0.3301 -0.9146 0.2334
vn 0.3301 -0.9146 -0.2334
vn 0.3301 0.9146 -0.2334
vn -0.3301 0.9146 0.2334
vn 0.3437 -0.9071 -0.2429
vn 0.7974 0.2154 -0.5637
vn -0.7974 0.2154 0.5637
vn 0.3377 0.8111 0.4776
vn 0.5773 -0.0000 0.8166
vn 0.5773 0.0001 0.8165
vn 0.5773 -0.0001 0.8165
vt 0.563424 0.076340
vt 0.553130 0.073518
vt 0.930572 0.423953
vt 0.921307 0.379121
vt 0.987792 0.379121
vt 0.977903 0.423953
vt 0.607372 0.029178
vt 0.597289 0.031257
vt 0.582896 0.026846
vt 0.590093 0.017196
vt 0.572813 0.024865
vt 0.576362 0.017196
vt 0.613360 0.017196
vt 0.614695 0.029178
vt 0.558897 0.019004
vt 0.565490 0.024865
vt 0.555407 0.026846
vt 0.548211 0.024277
vt 0.555407 0.062200
vt 0.548211 0.068077
vt 0.639171 0.057790
vt 0.624778 0.057790
vt 0.624778 0.031257
vt 0.639171 0.031257
vt 0.597289 0.057790
vt 0.582896 0.062201
vt 0.649254 0.029178
vt 0.691136 0.029178
vt 0.681053 0.031257
vt 0.666660 0.031257
vt 0.656577 0.029178
vt 0.565490 0.064181
vt 0.572813 0.064181
vt 0.666660 0.057790
vt 0.681053 0.057790
vt 0.691136 0.059869
vt 0.656577 0.059869
vt 0.649254 0.059869
vt 0.614695 0.059869
vt 0.706379 0.076340
vt 0.683164 0.076340
vt 0.613360 0.076340
vt 0.582896 0.076340
vt 0.659896 0.017196
vt 0.683164 0.017196
vt 0.659896 0.076340
vt 0.636628 0.076340
vt 0.636628 0.017196
vt 0.614506 0.062201
vt 0.604926 0.062201
vt 0.607372 0.059869
vt 0.613607 0.073299
vt 0.638959 0.073299
vt 0.657047 0.062201
vt 0.647466 0.062201
vt 0.659283 0.073299
vt 0.684635 0.073299
vt 0.688839 0.081258
vt 0.699816 0.081258
vt 0.706005 0.126709
vt 0.682651 0.126709
vt 0.698407 0.059869
vt 0.699536 0.062201
vt 0.690007 0.062201
vt 0.612500 0.017196
vt 0.594699 0.017196
vt 0.977903 0.434165
vt 0.930572 0.434165
vt 0.704907 0.073299
vt 0.706379 0.017196
vt 0.698407 0.029178
vt 0.653445 0.126709
vt 0.630032 0.126709
vt 0.639832 0.081258
vt 0.650869 0.081258
vt 0.600826 0.126709
vt 0.570905 0.126710
vt 0.590825 0.081258
vt 0.601862 0.081258
vt 0.587634 0.073299
vt 0.806647 0.062201
vt 0.806647 0.026846
vt 0.565447 0.081258
vt 0.565447 0.126710
vt 0.582896 0.073299
vt 0.836413 0.073518
vt 0.826118 0.076340
vt 0.729647 0.076340
vt 0.978547 0.423953
vt 0.931216 0.423953
vt 0.921327 0.379121
vt 0.987812 0.379121
vt 0.782171 0.029178
vt 0.799450 0.017196
vt 0.792254 0.031257
vt 0.813181 0.017196
vt 0.816730 0.024865
vt 0.774848 0.029178
vt 0.776183 0.017196
vt 0.830646 0.019004
vt 0.841332 0.024277
vt 0.834136 0.026846
vt 0.824053 0.024865
vt 0.841332 0.068077
vt 0.834136 0.062200
vt 0.750372 0.057790
vt 0.750372 0.031257
vt 0.764765 0.031257
vt 0.764765 0.057790
vt 0.792254 0.057790
vt 0.740289 0.029178
vt 0.732966 0.029178
vt 0.722883 0.031257
vt 0.708490 0.031257
vt 0.816730 0.064181
vt 0.824053 0.064181
vt 0.722883 0.057790
vt 0.732966 0.059869
vt 0.708490 0.057790
vt 0.740289 0.059869
vt 0.774848 0.059869
vt 0.806647 0.076340
vt 0.776183 0.076340
vt 0.729647 0.017196
vt 0.752915 0.076340
vt 0.752915 0.017196
vt 0.775037 0.062201
vt 0.782171 0.059869
vt 0.784617 0.062201
vt 0.775936 0.073299
vt 0.750584 0.073299
vt 0.732496 0.062201
vt 0.742077 0.062201
vt 0.730260 0.073299
vt 0.777043 0.017196
vt 0.794844 0.017196
vt 0.978547 0.434165
vt 0.931216 0.434165
vt 0.735211 0.126709
vt 0.737787 0.081258
vt 0.748824 0.081258
vt 0.758624 0.126709
vt 0.787830 0.126709
vt 0.786794 0.081258
vt 0.797831 0.081258
vt 0.817751 0.126710
vt 0.801909 0.073299
vt 0.823209 0.081258
vt 0.823209 0.126710
vt 0.806647 0.073299
s 1
usemtl initialShadingGroup.004
f 10/1/1 132/1/1 154/2/1 32/2/1
f 6/3/2 17/4/2 18/5/2 16/6/2
f 8/7/3 40/8/3 2/9/3 1/10/3
f 1/10/3 2/9/3 22/11/3 21/12/3
f 1/10/3 13/13/3 42/14/3 8/7/3
f 46/15/3 23/16/3 45/17/4 47/18/4
f 45/17/4 44/19/5 20/20/4 47/18/4
f 30/21/3 36/22/3 41/23/3 4/24/3
f 40/8/3 37/25/3 27/26/3 2/9/3
f 23/16/3 46/15/3 21/12/3 22/11/3
f 4/24/3 41/23/3 42/14/3 26/27/3
f 9/28/3 25/29/3 43/30/3 3/31/3
f 10/1/3 32/2/3 24/32/3 39/33/3
f 35/34/6 33/35/6 34/36/3 31/37/3
f 29/38/3 28/39/3 36/22/3 30/21/3
f 43/30/3 25/29/3 33/35/6 35/34/6
f 73/40/7 195/40/7 134/41/7 12/41/7
f 46/15/8 168/15/8 143/12/8 21/12/8
f 11/42/7 133/42/7 141/43/7 19/43/7
f 47/18/9 169/18/9 168/15/9 46/15/9
f 50/44/10 172/44/10 137/45/10 15/45/10
f 19/43/7 141/43/7 132/1/7 10/1/7
f 20/20/4 44/19/5 24/32/3 32/2/3
f 49/46/7 171/46/7 170/47/7 48/47/7
f 26/27/3 42/14/3 13/13/3 14/48/3
f 14/48/3 50/44/3 3/31/3 26/27/3
f 9/28/3 3/31/3 50/44/3 15/45/3
f 52/49/3 51/50/3 38/51/3 28/39/3
f 56/52/3 57/53/3 48/47/3 11/42/3
f 54/54/3 53/55/3 29/38/3 31/37/3
f 58/56/3 59/57/3 12/41/3 49/46/3
f 55/58/3 116/59/3 120/60/3 59/61/3
f 13/13/10 135/13/10 136/48/10 14/48/10
f 20/20/11 142/20/11 169/18/11 47/18/11
f 34/36/3 95/62/3 116/63/3 55/64/3
f 48/47/7 170/47/7 133/42/7 11/42/7
f 32/2/12 154/2/12 142/20/12 20/20/12
f 14/48/10 136/48/10 172/44/10 50/44/10
f 7/65/10 13/13/10 1/10/10 5/66/10
f 6/3/3 16/6/3 7/67/3 5/68/3
f 139/4/13 17/4/13 6/3/13 128/3/13
f 5/68/11 127/68/11 128/3/11 6/3/11
f 7/65/10 129/65/10 135/13/10 13/13/10
f 1/10/10 123/10/10 127/66/10 5/66/10
f 3/31/7 125/31/7 148/27/7 26/27/7
f 26/27/14 148/27/14 126/24/14 4/24/14
f 134/41/15 195/40/15 242/69/15 181/57/15
f 156/36/10 217/62/10 95/62/10 34/36/10
f 33/35/16 155/35/16 156/36/16 34/36/16
f 37/25/17 159/25/17 160/51/17 38/51/17
f 31/37/18 153/37/18 157/34/18 35/34/18
f 25/29/19 147/29/19 155/35/19 33/35/19
f 9/28/20 131/28/20 147/29/20 25/29/20
f 4/24/19 126/24/19 152/21/19 30/21/19
f 8/7/21 130/7/21 162/8/21 40/8/21
f 40/8/22 162/8/22 159/25/22 37/25/22
f 43/30/23 165/30/23 125/31/23 3/31/23
f 38/51/10 160/51/10 150/39/10 28/39/10
f 76/70/3 70/71/3 9/28/3 15/45/3
f 36/22/11 158/22/11 163/23/11 41/23/11
f 35/34/11 157/34/11 165/30/11 43/30/11
f 42/14/7 164/14/7 130/7/7 8/7/7
f 28/39/18 150/39/18 158/22/18 36/22/18
f 31/37/3 34/36/3 55/64/3 54/54/3
f 58/72/3 57/73/3 53/74/3 54/75/3
f 28/39/3 29/38/3 53/55/3 52/49/3
f 56/76/3 60/77/3 51/78/3 52/79/3
f 37/25/3 38/51/3 51/50/3 27/26/3
f 11/42/3 19/43/3 60/80/3 56/52/3
f 49/46/3 48/47/3 57/53/3 58/56/3
f 210/81/19 88/81/19 63/82/19 185/82/19
f 54/75/3 55/58/3 59/61/3 58/72/3
f 52/79/3 53/74/3 57/73/3 56/76/3
f 27/83/3 51/78/3 60/77/3 61/84/3
f 27/26/3 61/85/3 10/1/3 39/33/3
f 10/1/3 61/85/3 60/80/3 19/43/3
f 12/41/7 134/41/7 171/46/7 49/46/7
f 41/23/24 163/23/24 164/14/24 42/14/24
f 15/45/10 137/45/10 198/70/10 76/70/10
f 93/86/25 215/86/25 193/87/25 71/87/25
f 110/88/7 232/88/7 195/40/7 73/40/7
f 67/89/2 77/90/2 79/91/2 78/92/2
f 69/93/3 62/94/3 63/82/3 101/95/3
f 62/94/3 82/96/3 83/97/3 63/82/3
f 62/94/3 69/93/3 103/98/3 74/99/3
f 107/100/3 108/101/3 106/102/3 84/103/3
f 106/102/3 108/101/3 81/104/3 105/105/3
f 91/106/3 65/107/3 102/108/3 97/109/3
f 101/95/3 63/82/3 88/81/3 98/110/3
f 84/103/3 83/97/3 82/96/3 107/100/3
f 65/107/3 87/111/3 103/98/3 102/108/3
f 70/71/3 64/112/3 104/113/3 86/114/3
f 71/87/3 100/115/3 85/116/3 93/86/3
f 96/117/3 92/118/3 95/62/3 94/119/3
f 90/120/3 91/106/3 97/109/3 89/121/3
f 104/113/3 96/117/3 94/119/3 86/114/3
f 198/70/15 137/45/15 131/28/15 192/71/15
f 82/96/26 204/96/26 229/100/26 107/100/26
f 80/122/7 202/122/7 194/123/7 72/123/7
f 107/100/27 229/100/27 230/101/27 108/101/27
f 76/70/10 198/70/10 233/124/10 111/124/10
f 71/87/7 193/87/7 202/122/7 80/122/7
f 81/104/3 93/86/3 85/116/3 105/105/3
f 109/125/7 231/125/7 232/88/7 110/88/7
f 87/111/3 75/126/3 74/99/3 103/98/3
f 75/126/3 87/111/3 64/112/3 111/124/3
f 70/71/3 76/70/3 111/124/3 64/112/3
f 113/127/3 89/121/3 99/128/3 112/129/3
f 117/130/3 72/123/3 109/125/3 118/131/3
f 115/132/3 92/118/3 90/120/3 114/133/3
f 119/134/3 110/88/3 73/40/3 120/69/3
f 75/126/10 197/126/10 196/99/10 74/99/10
f 108/101/22 230/101/22 203/104/22 81/104/22
f 72/123/7 194/123/7 231/125/7 109/125/7
f 103/98/20 225/98/20 224/108/20 102/108/20
f 81/104/28 203/104/28 215/86/28 93/86/28
f 111/124/10 233/124/10 197/126/10 75/126/10
f 68/135/10 66/136/10 62/94/10 74/99/10
f 67/89/3 66/137/3 68/138/3 77/90/3
f 200/92/29 189/89/29 67/89/29 78/92/29
f 67/89/19 189/89/19 188/137/19 66/137/19
f 74/99/10 196/99/10 190/135/10 68/135/10
f 66/136/10 188/136/10 184/94/10 62/94/10
f 87/111/7 209/111/7 186/112/7 64/112/7
f 65/107/30 187/107/30 209/111/30 87/111/30
f 97/109/16 219/109/16 211/121/16 89/121/16
f 95/62/18 217/62/18 216/119/18 94/119/18
f 99/128/31 221/128/31 220/110/31 98/110/31
f 96/117/16 218/117/16 214/118/16 92/118/16
f 94/119/11 216/119/11 208/114/11 86/114/11
f 86/114/24 208/114/24 192/71/24 70/71/24
f 91/106/32 213/106/32 187/107/32 65/107/32
f 101/95/30 223/95/30 191/93/30 69/93/30
f 98/110/32 220/110/32 223/95/32 101/95/32
f 64/112/14 186/112/14 226/113/14 104/113/14
f 89/121/10 211/121/10 221/128/10 99/128/10
f 102/108/19 224/108/19 219/109/19 97/109/19
f 104/113/19 226/113/19 218/117/19 96/117/19
f 69/93/7 191/93/7 225/98/7 103/98/7
f 92/118/3 115/132/3 116/63/3 95/62/3
f 119/139/3 115/140/3 114/141/3 118/142/3
f 89/121/3 113/127/3 114/133/3 90/120/3
f 117/143/3 113/144/3 112/145/3 121/146/3
f 98/110/3 88/81/3 112/129/3 99/128/3
f 72/123/3 117/130/3 121/147/3 80/122/3
f 110/88/3 119/134/3 118/131/3 109/125/3
f 115/140/3 119/139/3 120/60/3 116/59/3
f 113/144/3 117/143/3 118/142/3 114/141/3
f 88/148/3 122/149/3 121/146/3 112/145/3
f 88/81/3 100/115/3 71/87/3 122/150/3
f 71/87/3 80/122/3 121/147/3 122/150/3
f 17/4/10 139/4/10 140/5/10 18/5/10
f 149/26/11 124/9/11 2/9/11 27/26/11
f 222/115/33 100/115/33 88/81/33 210/81/33
f 222/115/10 207/116/10 85/116/10 100/115/10
f 207/116/34 227/105/34 105/105/34 85/116/34
f 227/105/11 228/102/11 106/102/11 105/105/11
f 206/103/35 84/103/35 106/102/35 228/102/35
f 206/103/7 205/97/7 83/97/7 84/103/7
f 185/82/36 63/82/36 83/97/36 205/97/36
f 213/106/37 91/106/37 90/120/37 212/120/37
f 199/90/11 77/90/11 68/138/11 190/138/11
f 199/90/38 201/91/38 79/91/38 77/90/38
f 62/94/10 184/94/10 204/96/10 82/96/10
f 92/118/10 214/118/10 212/120/10 90/120/10
f 161/33/34 149/26/34 27/26/34 39/33/34
f 161/33/10 39/33/10 24/32/10 146/32/10
f 146/32/33 24/32/33 44/19/33 166/19/33
f 166/19/19 44/19/19 45/17/19 167/17/19
f 145/16/36 167/17/36 45/17/36 23/16/36
f 145/16/7 23/16/7 22/11/7 144/11/7
f 124/9/35 144/11/35 22/11/35 2/9/35
f 152/21/17 151/38/17 29/38/17 30/21/17
f 138/6/19 129/67/19 7/67/19 16/6/19
f 138/6/39 16/6/39 18/5/39 140/5/39
f 21/12/10 143/12/10 123/10/10 1/10/10
f 29/38/10 151/38/10 153/37/10 31/37/10
f 128/3/40 138/6/40 140/5/40 139/4/40
f 130/7/15 123/10/15 124/9/15 162/8/15
f 123/10/15 143/12/15 144/11/15 124/9/15
f 123/10/15 130/7/15 164/14/15 135/13/15
f 168/15/15 169/18/15 167/17/15 145/16/15
f 167/17/15 169/18/15 142/20/15 166/19/15
f 152/21/15 126/24/15 163/23/15 158/22/15
f 162/8/15 124/9/15 149/26/15 159/25/15
f 145/16/15 144/11/15 143/12/15 168/15/15
f 126/24/15 148/27/15 164/14/15 163/23/15
f 131/28/15 125/31/15 165/30/15 147/29/15
f 132/1/15 161/33/15 146/32/15 154/2/15
f 157/34/15 153/37/15 156/36/15 155/35/15
f 151/38/15 152/21/15 158/22/15 150/39/41
f 165/30/15 157/34/15 155/35/15 147/29/15
f 142/20/15 154/2/15 146/32/15 166/19/15
f 148/27/15 136/48/15 135/13/15 164/14/15
f 136/48/15 148/27/15 125/31/15 172/44/15
f 131/28/15 137/45/15 172/44/15 125/31/15
f 174/49/15 150/39/41 160/51/41 173/50/15
f 178/52/15 133/42/15 170/47/15 179/53/15
f 176/54/15 153/37/15 151/38/15 175/55/15
f 180/56/15 171/46/15 134/41/15 181/57/15
f 181/61/15 242/60/15 238/59/15 177/58/15
f 177/64/15 238/63/15 217/62/15 156/36/15
f 129/65/10 127/66/10 123/10/10 135/13/10
f 128/3/15 127/68/15 129/67/15 138/6/15
f 153/37/15 176/54/15 177/64/15 156/36/15
f 180/72/15 176/75/15 175/74/15 179/73/15
f 150/39/41 174/49/15 175/55/15 151/38/15
f 178/76/15 174/79/15 173/78/15 182/77/15
f 159/25/15 149/26/15 173/50/15 160/51/41
f 133/42/15 178/52/15 182/80/15 141/43/15
f 171/46/15 180/56/15 179/53/15 170/47/15
f 176/75/15 180/72/15 181/61/15 177/58/15
f 174/79/15 178/76/15 179/73/15 175/74/15
f 149/83/15 183/84/15 182/77/15 173/78/15
f 149/26/15 161/33/15 132/1/15 183/85/15
f 132/1/15 141/43/15 182/80/15 183/85/15
f 131/28/7 9/28/7 70/71/7 192/71/7
f 189/89/40 200/92/40 201/91/40 199/90/40
f 191/93/15 223/95/15 185/82/15 184/94/15
f 184/94/15 185/82/15 205/97/15 204/96/15
f 184/94/15 196/99/15 225/98/15 191/93/15
f 229/100/15 206/103/15 228/102/15 230/101/15
f 228/102/15 227/105/15 203/104/15 230/101/15
f 213/106/15 219/109/15 224/108/42 187/107/42
f 223/95/15 220/110/15 210/81/15 185/82/15
f 206/103/15 229/100/15 204/96/15 205/97/15
f 187/107/42 224/108/42 225/98/15 209/111/15
f 192/71/15 208/114/43 226/113/43 186/112/15
f 193/87/15 215/86/15 207/116/15 222/115/15
f 218/117/42 216/119/42 217/62/15 214/118/15
f 212/120/42 211/121/15 219/109/15 213/106/15
f 226/113/43 208/114/43 216/119/42 218/117/42
f 203/104/15 227/105/15 207/116/15 215/86/15
f 209/111/15 225/98/15 196/99/15 197/126/15
f 197/126/15 233/124/15 186/112/15 209/111/15
f 192/71/15 186/112/15 233/124/15 198/70/15
f 235/127/15 234/129/15 221/128/15 211/121/15
f 239/130/15 240/131/15 231/125/15 194/123/15
f 237/132/15 236/133/15 212/120/42 214/118/15
f 241/134/15 242/69/15 195/40/15 232/88/15
f 190/135/10 196/99/10 184/94/10 188/136/10
f 189/89/15 199/90/15 190/138/15 188/137/15
f 214/118/15 217/62/15 238/63/15 237/132/15
f 241/139/15 240/142/15 236/141/15 237/140/15
f 211/121/15 212/120/42 236/133/15 235/127/15
f 239/143/15 243/146/15 234/145/15 235/144/15
f 220/110/15 221/128/15 234/129/15 210/81/15
f 194/123/15 202/122/15 243/147/15 239/130/15
f 232/88/15 231/125/15 240/131/15 241/134/15
f 237/140/15 238/59/15 242/60/15 241/139/15
f 235/144/15 236/141/15 240/142/15 239/143/15
f 210/148/15 234/145/15 243/146/15 244/149/15
f 210/81/15 244/150/15 193/87/15 222/115/15
f 193/87/15 244/150/15 243/147/15 202/122/15
f 59/57/3 120/69/3 73/40/3 12/41/3
f 79/91/10 201/91/10 200/92/10 78/92/10
