# Blender 5.1.0
# www.blender.org
mtllib barriere55_112.mtl
o barriere55.112
v -29.490038 0.406541 -7.714215
v -29.511099 0.597165 -7.773779
v -29.295462 0.643225 -7.163940
v -29.346401 0.684292 -7.308002
v -29.465153 0.406541 -7.680118
v -29.465153 0.372824 -7.680118
v -29.413057 0.406541 -7.532787
v -29.439466 0.643225 -7.571197
v -29.194319 0.643225 -6.877903
v -29.568087 1.574801 -7.934941
v -29.421942 1.574798 -7.521633
v -29.217651 1.574798 -6.943888
v -29.421942 0.406541 -7.521633
v -29.353846 0.406541 -7.329051
v -29.217651 0.406541 -6.943888
v -29.413057 0.372824 -7.532787
v -29.668871 0.224800 -7.640532
v -29.595692 0.224800 -7.433574
v -29.511099 1.574798 -7.773778
v -29.612612 1.411592 -8.060862
v -29.530220 0.406541 -7.827856
v -29.540609 0.558040 -7.857234
v -29.562040 0.558040 -7.917843
v -29.562040 1.334635 -7.917843
v -29.223829 0.684292 -6.961358
v -29.316893 0.643225 -7.224550
v -29.511099 1.295510 -7.773778
v -29.418036 1.249446 -7.510586
v -29.316893 1.249446 -7.224550
v -29.346401 1.208380 -7.308002
v -29.295462 1.249446 -7.163940
v -29.598213 1.519064 -8.020144
v -29.223829 1.208381 -6.961358
v -29.194319 1.249447 -6.877903
v -29.265951 1.208381 -7.080484
v -29.388525 1.208380 -7.427133
v -29.468975 1.208380 -7.654650
v -29.439466 1.249449 -7.571197
v -29.540609 1.334635 -7.857234
v -29.468975 0.684292 -7.654650
v -29.388525 0.684292 -7.427133
v -29.418036 0.643225 -7.510586
v -29.265951 0.684292 -7.080484
v -29.591549 1.295507 -8.001298
v -29.591549 0.597165 -8.001298
v -29.581335 0.442266 -7.972410
v -29.612612 0.546411 -8.060862
v -29.353846 1.574798 -7.329051
v -29.285748 1.574798 -7.136470
v -29.285748 0.406541 -7.136470
v -29.446627 1.295510 -7.591444
v -29.418589 1.295510 -7.512150
v -29.322124 1.295510 -7.239345
v -29.294086 1.295510 -7.160050
v -29.197622 1.295511 -6.887245
v -29.421221 1.514729 -7.519594
v -29.347023 1.514729 -7.309758
v -29.287542 1.514729 -7.141541
v -29.213345 1.514729 -6.931705
v -29.497232 1.514730 -7.734562
v -29.511099 1.514730 -7.773778
v -28.877321 0.406542 -5.981408
v -28.856258 0.597166 -5.921844
v -29.071898 0.643226 -6.531683
v -29.020956 0.684292 -6.387621
v -28.879400 0.406542 -6.023569
v -28.879400 0.372825 -6.023569
v -28.931498 0.406542 -6.170900
v -28.927893 0.643226 -6.124427
v -29.173038 0.643225 -6.817720
v -28.799273 1.574802 -5.760682
v -28.945417 1.574798 -6.173990
v -29.149706 1.574798 -6.751735
v -28.945417 0.406542 -6.173990
v -29.013514 0.406542 -6.366571
v -29.149706 0.406541 -6.751735
v -28.931498 0.372825 -6.170900
v -29.062721 0.224801 -5.926299
v -29.135900 0.224801 -6.133256
v -28.856260 1.574798 -5.921845
v -28.754747 1.411592 -5.634762
v -28.837137 0.406542 -5.867767
v -28.826750 0.558041 -5.838389
v -28.805319 0.558041 -5.777780
v -28.805319 1.334635 -5.777780
v -29.143530 0.684292 -6.734265
v -29.050465 0.643226 -6.471074
v -28.856260 1.295511 -5.921845
v -28.949324 1.249447 -6.185037
v -29.050465 1.249447 -6.471074
v -29.020956 1.208381 -6.387621
v -29.071898 1.249447 -6.531683
v -28.769146 1.519065 -5.675480
v -29.143530 1.208381 -6.734265
v -29.173038 1.249447 -6.817720
v -29.101406 1.208381 -6.615139
v -28.978832 1.208381 -6.268491
v -28.898382 1.208381 -6.040973
v -28.927893 1.249449 -6.124427
v -28.826750 1.334635 -5.838389
v -28.898382 0.684292 -6.040973
v -28.978832 0.684292 -6.268491
v -28.949324 0.643226 -6.185037
v -29.101406 0.684292 -6.615139
v -28.775808 1.295508 -5.694325
v -28.775808 0.597166 -5.694325
v -28.786024 0.442267 -5.723213
v -28.754747 0.546412 -5.634762
v -29.013514 1.574798 -6.366571
v -29.081610 1.574798 -6.559153
v -29.081610 0.406541 -6.559153
v -28.920732 1.295511 -6.104179
v -28.948771 1.295511 -6.183473
v -29.045235 1.295511 -6.456278
v -29.073273 1.295511 -6.535573
v -29.169735 1.295511 -6.808378
v -28.946138 1.514729 -6.176029
v -29.020336 1.514729 -6.385865
v -29.079817 1.514729 -6.554081
v -29.154015 1.514729 -6.763917
v -28.870127 1.514731 -5.961061
v -28.856260 1.514731 -5.921845
v -29.404772 0.406541 -7.744365
v -29.425835 0.597165 -7.803929
v -29.210196 0.643225 -7.194089
v -29.261135 0.684292 -7.338152
v -29.402693 0.406541 -7.702204
v -29.402693 0.372824 -7.702204
v -29.350595 0.406541 -7.554873
v -29.354200 0.643225 -7.601346
v -29.109055 0.643225 -6.908053
v -29.482821 1.574801 -7.965091
v -29.336676 1.574798 -7.551783
v -29.132385 1.574798 -6.974038
v -29.336676 0.406541 -7.551783
v -29.268579 0.406541 -7.359201
v -29.132385 0.406541 -6.974038
v -29.350595 0.372824 -7.554873
v -29.219372 0.224800 -7.799474
v -29.146193 0.224800 -7.592516
v -29.425833 1.574798 -7.803928
v -29.527346 1.411592 -8.091011
v -29.444956 0.406541 -7.858006
v -29.455343 0.558040 -7.887384
v -29.476774 0.558040 -7.947993
v -29.476774 1.334635 -7.947993
v -29.138563 0.684292 -6.991508
v -29.231628 0.643225 -7.254699
v -29.425833 1.295510 -7.803927
v -29.332769 1.249446 -7.540736
v -29.231627 1.249446 -7.254700
v -29.261135 1.208380 -7.338152
v -29.210196 1.249446 -7.194089
v -29.512947 1.519064 -8.050293
v -29.138563 1.208381 -6.991508
v -29.109055 1.249447 -6.908053
v -29.180687 1.208380 -7.110633
v -29.303261 1.208380 -7.457282
v -29.383709 1.208380 -7.684800
v -29.354200 1.249449 -7.601346
v -29.455343 1.334635 -7.887384
v -29.383711 0.684292 -7.684800
v -29.303261 0.684292 -7.457282
v -29.332769 0.643225 -7.540736
v -29.180687 0.684292 -7.110633
v -29.506283 1.295507 -8.031447
v -29.506285 0.597165 -8.031447
v -29.496069 0.442266 -8.002560
v -29.527346 0.546411 -8.091011
v -29.268579 1.574798 -7.359201
v -29.200483 1.574798 -7.166620
v -29.200483 0.406541 -7.166620
v -29.361361 1.295510 -7.621594
v -29.333323 1.295510 -7.542300
v -29.236858 1.295510 -7.269495
v -29.208820 1.295510 -7.190200
v -29.112358 1.295511 -6.917395
v -29.335955 1.514729 -7.549744
v -29.261757 1.514729 -7.339908
v -29.202276 1.514729 -7.171691
v -29.128078 1.514729 -6.961855
v -29.411966 1.514730 -7.764712
v -29.425833 1.514730 -7.803928
v -28.792055 0.406542 -6.011558
v -28.770994 0.597166 -5.951993
v -28.986631 0.643226 -6.561833
v -28.935692 0.684292 -6.417771
v -28.816940 0.406542 -6.045655
v -28.816940 0.372825 -6.045655
v -28.869036 0.406542 -6.192986
v -28.842627 0.643226 -6.154576
v -29.087774 0.643225 -6.847870
v -28.714006 1.574802 -5.790832
v -28.860151 1.574798 -6.204140
v -29.064442 1.574798 -6.781885
v -28.860151 0.406542 -6.204140
v -28.928247 0.406542 -6.396721
v -29.064442 0.406541 -6.781885
v -28.869036 0.372825 -6.192986
v -28.613222 0.224801 -6.085241
v -28.686401 0.224801 -6.292199
v -28.770994 1.574798 -5.951995
v -28.669481 1.411592 -5.664911
v -28.751873 0.406542 -5.897917
v -28.741484 0.558041 -5.868539
v -28.720053 0.558041 -5.807930
v -28.720053 1.334635 -5.807930
v -29.058264 0.684292 -6.764415
v -28.965200 0.643226 -6.501223
v -28.770994 1.295511 -5.951995
v -28.864058 1.249447 -6.215187
v -28.965200 1.249447 -6.501223
v -28.935692 1.208381 -6.417771
v -28.986631 1.249447 -6.561833
v -28.683880 1.519065 -5.705630
v -29.058264 1.208381 -6.764415
v -29.087774 1.249447 -6.847870
v -29.016142 1.208381 -6.645289
v -28.893566 1.208381 -6.298640
v -28.813118 1.208381 -6.071123
v -28.842627 1.249449 -6.154576
v -28.741484 1.334635 -5.868539
v -28.813118 0.684292 -6.071123
v -28.893568 0.684292 -6.298640
v -28.864058 0.643226 -6.215187
v -29.016142 0.684292 -6.645289
v -28.690544 1.295508 -5.724475
v -28.690544 0.597166 -5.724475
v -28.700758 0.442267 -5.753363
v -28.669481 0.546412 -5.664911
v -28.928247 1.574798 -6.396721
v -28.996346 1.574798 -6.589303
v -28.996346 0.406541 -6.589303
v -28.835466 1.295511 -6.134329
v -28.863504 1.295511 -6.213623
v -28.959969 1.295511 -6.486428
v -28.988007 1.295511 -6.565722
v -29.084471 1.295511 -6.838528
v -28.860872 1.514729 -6.206179
v -28.935070 1.514729 -6.416015
v -28.994551 1.514729 -6.584231
v -29.068748 1.514729 -6.794067
v -28.784861 1.514731 -5.991211
v -28.770994 1.514731 -5.951995
vn -0.1750 0.8511 -0.4949
vn -0.5515 0.8111 0.1950
vn -0.9428 -0.0000 0.3334
vn -0.0000 1.0000 -0.0000
vn -0.0757 -0.9739 -0.2139
vn -0.2477 -0.6693 -0.7005
vn -0.0000 -1.0000 -0.0000
vn -0.3334 -0.0000 -0.9428
vn -0.3093 0.3729 -0.8748
vn -0.3265 0.2024 -0.9233
vn 0.1403 0.9071 0.3968
vn 0.9428 -0.0000 -0.3334
vn 0.1403 -0.9071 0.3968
vn -0.1403 -0.9071 -0.3968
vn 0.3334 -0.0000 0.9428
vn -0.1403 0.9071 -0.3968
vn 0.1750 0.8511 0.4949
vn -0.9428 0.0001 0.3334
vn -0.9428 -0.0001 0.3334
vn 0.0757 -0.9739 0.2139
vn 0.2477 -0.6693 0.7005
vn 0.3093 0.3729 0.8748
vn 0.3265 0.2024 0.9233
vn 0.1348 -0.9146 0.3811
vn -0.1348 -0.9146 -0.3812
vn -0.1348 0.9146 -0.3811
vn 0.1348 0.9146 0.3812
vn -0.3255 0.2154 -0.9207
vn -0.1348 -0.9146 -0.3811
vn 0.1348 -0.9146 0.3812
vn 0.1348 0.9146 0.3811
vn 0.3255 0.2154 0.9207
vn 0.5515 0.8111 -0.1950
vn 0.9428 0.0001 -0.3334
vt 0.563424 0.076340
vt 0.553130 0.073518
vt 0.930572 0.423953
vt 0.921307 0.379121
vt 0.987792 0.379121
vt 0.977903 0.423953
vt 0.607372 0.029178
vt 0.597289 0.031257
vt 0.582896 0.026846
vt 0.590093 0.017196
vt 0.572813 0.024865
vt 0.576362 0.017196
vt 0.613360 0.017196
vt 0.614695 0.029178
vt 0.558897 0.019004
vt 0.565490 0.024865
vt 0.555407 0.026846
vt 0.548211 0.024277
vt 0.555407 0.062200
vt 0.548211 0.068077
vt 0.639171 0.057790
vt 0.624778 0.057790
vt 0.624778 0.031257
vt 0.639171 0.031257
vt 0.597289 0.057790
vt 0.582896 0.062201
vt 0.649254 0.029178
vt 0.691136 0.029178
vt 0.681053 0.031257
vt 0.666660 0.031257
vt 0.656577 0.029178
vt 0.565490 0.064181
vt 0.572813 0.064181
vt 0.666660 0.057790
vt 0.681053 0.057790
vt 0.691136 0.059869
vt 0.656577 0.059869
vt 0.649254 0.059869
vt 0.614695 0.059869
vt 0.706379 0.076340
vt 0.683164 0.076340
vt 0.613360 0.076340
vt 0.582896 0.076340
vt 0.659896 0.017196
vt 0.683164 0.017196
vt 0.659896 0.076340
vt 0.636628 0.076340
vt 0.636628 0.017196
vt 0.614506 0.062201
vt 0.604926 0.062201
vt 0.607372 0.059869
vt 0.613607 0.073299
vt 0.638959 0.073299
vt 0.657047 0.062201
vt 0.647466 0.062201
vt 0.659283 0.073299
vt 0.684635 0.073299
vt 0.688839 0.081258
vt 0.699816 0.081258
vt 0.706005 0.126709
vt 0.682651 0.126709
vt 0.698407 0.059869
vt 0.699536 0.062201
vt 0.690007 0.062201
vt 0.612500 0.017196
vt 0.594699 0.017196
vt 0.977903 0.434165
vt 0.930572 0.434165
vt 0.704907 0.073299
vt 0.706379 0.017196
vt 0.698407 0.029178
vt 0.653445 0.126709
vt 0.630032 0.126709
vt 0.639832 0.081258
vt 0.650869 0.081258
vt 0.600826 0.126709
vt 0.570905 0.126710
vt 0.590825 0.081258
vt 0.601862 0.081258
vt 0.587634 0.073299
vt 0.806647 0.062201
vt 0.806647 0.026846
vt 0.565447 0.081258
vt 0.565447 0.126710
vt 0.582896 0.073299
vt 0.836413 0.073518
vt 0.826118 0.076340
vt 0.729647 0.076340
vt 0.978547 0.423953
vt 0.931216 0.423953
vt 0.921327 0.379121
vt 0.987812 0.379121
vt 0.782171 0.029178
vt 0.799450 0.017196
vt 0.792254 0.031257
vt 0.813181 0.017196
vt 0.816730 0.024865
vt 0.774848 0.029178
vt 0.776183 0.017196
vt 0.830646 0.019004
vt 0.841332 0.024277
vt 0.834136 0.026846
vt 0.824053 0.024865
vt 0.841332 0.068077
vt 0.834136 0.062200
vt 0.750372 0.057790
vt 0.750372 0.031257
vt 0.764765 0.031257
vt 0.764765 0.057790
vt 0.792254 0.057790
vt 0.740289 0.029178
vt 0.732966 0.029178
vt 0.722883 0.031257
vt 0.708490 0.031257
vt 0.816730 0.064181
vt 0.824053 0.064181
vt 0.722883 0.057790
vt 0.732966 0.059869
vt 0.708490 0.057790
vt 0.740289 0.059869
vt 0.774848 0.059869
vt 0.806647 0.076340
vt 0.776183 0.076340
vt 0.729647 0.017196
vt 0.752915 0.076340
vt 0.752915 0.017196
vt 0.775037 0.062201
vt 0.782171 0.059869
vt 0.784617 0.062201
vt 0.775936 0.073299
vt 0.750584 0.073299
vt 0.732496 0.062201
vt 0.742077 0.062201
vt 0.730260 0.073299
vt 0.777043 0.017196
vt 0.794844 0.017196
vt 0.978547 0.434165
vt 0.931216 0.434165
vt 0.735211 0.126709
vt 0.737787 0.081258
vt 0.748824 0.081258
vt 0.758624 0.126709
vt 0.787830 0.126709
vt 0.786794 0.081258
vt 0.797831 0.081258
vt 0.817751 0.126710
vt 0.801909 0.073299
vt 0.823209 0.081258
vt 0.823209 0.126710
vt 0.806647 0.073299
s 1
usemtl initialShadingGroup.004
f 10/1/1 132/1/1 154/2/1 32/2/1
f 6/3/2 17/4/2 18/5/2 16/6/2
f 8/7/3 40/8/3 2/9/3 1/10/3
f 1/10/3 2/9/3 22/11/3 21/12/3
f 1/10/3 13/13/3 42/14/3 8/7/3
f 46/15/3 23/16/3 45/17/3 47/18/3
f 45/17/3 44/19/3 20/20/3 47/18/3
f 30/21/3 36/22/3 41/23/3 4/24/3
f 40/8/3 37/25/3 27/26/3 2/9/3
f 23/16/3 46/15/3 21/12/3 22/11/3
f 4/24/3 41/23/3 42/14/3 26/27/3
f 9/28/3 25/29/3 43/30/3 3/31/3
f 10/1/3 32/2/3 24/32/3 39/33/3
f 35/34/3 33/35/3 34/36/3 31/37/3
f 29/38/3 28/39/3 36/22/3 30/21/3
f 43/30/3 25/29/3 33/35/3 35/34/3
f 73/40/4 195/40/4 134/41/4 12/41/4
f 46/15/5 168/15/5 143/12/5 21/12/5
f 11/42/4 133/42/4 141/43/4 19/43/4
f 47/18/6 169/18/6 168/15/6 46/15/6
f 50/44/7 172/44/7 137/45/7 15/45/7
f 19/43/4 141/43/4 132/1/4 10/1/4
f 20/20/3 44/19/3 24/32/3 32/2/3
f 49/46/4 171/46/4 170/47/4 48/47/4
f 26/27/3 42/14/3 13/13/3 14/48/3
f 14/48/3 50/44/3 3/31/3 26/27/3
f 9/28/3 3/31/3 50/44/3 15/45/3
f 52/49/3 51/50/3 38/51/3 28/39/3
f 56/52/3 57/53/3 48/47/3 11/42/3
f 54/54/3 53/55/3 29/38/3 31/37/3
f 58/56/3 59/57/3 12/41/3 49/46/3
f 55/58/3 116/59/3 120/60/3 59/61/3
f 13/13/7 135/13/7 136/48/7 14/48/7
f 20/20/8 142/20/8 169/18/8 47/18/8
f 34/36/3 95/62/3 116/63/3 55/64/3
f 48/47/4 170/47/4 133/42/4 11/42/4
f 32/2/9 154/2/9 142/20/9 20/20/9
f 14/48/7 136/48/7 172/44/7 50/44/7
f 7/65/7 13/13/7 1/10/7 5/66/7
f 6/3/3 16/6/3 7/67/3 5/68/3
f 139/4/10 17/4/10 6/3/10 128/3/10
f 5/68/8 127/68/8 128/3/8 6/3/8
f 7/65/7 129/65/7 135/13/7 13/13/7
f 1/10/7 123/10/7 127/66/7 5/66/7
f 3/31/4 125/31/4 148/27/4 26/27/4
f 26/27/11 148/27/11 126/24/11 4/24/11
f 134/41/12 195/40/12 242/69/12 181/57/12
f 156/36/7 217/62/7 95/62/7 34/36/7
f 33/35/13 155/35/13 156/36/13 34/36/13
f 37/25/13 159/25/13 160/51/13 38/51/13
f 31/37/14 153/37/14 157/34/14 35/34/14
f 25/29/15 147/29/15 155/35/15 33/35/15
f 9/28/11 131/28/11 147/29/11 25/29/11
f 4/24/15 126/24/15 152/21/15 30/21/15
f 8/7/11 130/7/11 162/8/11 40/8/11
f 40/8/15 162/8/15 159/25/15 37/25/15
f 43/30/16 165/30/16 125/31/16 3/31/16
f 38/51/7 160/51/7 150/39/7 28/39/7
f 76/70/3 70/71/3 9/28/3 15/45/3
f 36/22/8 158/22/8 163/23/8 41/23/8
f 35/34/8 157/34/8 165/30/8 43/30/8
f 42/14/4 164/14/4 130/7/4 8/7/4
f 28/39/14 150/39/14 158/22/14 36/22/14
f 31/37/3 34/36/3 55/64/3 54/54/3
f 58/72/3 57/73/3 53/74/3 54/75/3
f 28/39/3 29/38/3 53/55/3 52/49/3
f 56/76/3 60/77/3 51/78/3 52/79/3
f 37/25/3 38/51/3 51/50/3 27/26/3
f 11/42/3 19/43/3 60/80/3 56/52/3
f 49/46/3 48/47/3 57/53/3 58/56/3
f 210/81/15 88/81/15 63/82/15 185/82/15
f 54/75/3 55/58/3 59/61/3 58/72/3
f 52/79/3 53/74/3 57/73/3 56/76/3
f 27/83/3 51/78/3 60/77/3 61/84/3
f 27/26/3 61/85/3 10/1/3 39/33/3
f 10/1/3 61/85/3 60/80/3 19/43/3
f 12/41/4 134/41/4 171/46/4 49/46/4
f 41/23/16 163/23/16 164/14/16 42/14/16
f 15/45/7 137/45/7 198/70/7 76/70/7
f 93/86/17 215/86/17 193/87/17 71/87/17
f 110/88/4 232/88/4 195/40/4 73/40/4
f 67/89/2 77/90/2 79/91/2 78/92/2
f 69/93/3 62/94/3 63/82/3 101/95/3
f 62/94/3 82/96/3 83/97/3 63/82/3
f 62/94/3 69/93/3 103/98/3 74/99/3
f 107/100/3 108/101/3 106/102/3 84/103/3
f 106/102/3 108/101/3 81/104/3 105/105/3
f 91/106/18 65/107/3 102/108/3 97/109/18
f 101/95/3 63/82/3 88/81/3 98/110/3
f 84/103/3 83/97/3 82/96/3 107/100/3
f 65/107/3 87/111/3 103/98/3 102/108/3
f 70/71/3 64/112/3 104/113/3 86/114/3
f 71/87/3 100/115/3 85/116/3 93/86/3
f 96/117/3 92/118/3 95/62/3 94/119/3
f 90/120/19 91/106/18 97/109/18 89/121/3
f 104/113/3 96/117/3 94/119/3 86/114/3
f 198/70/12 137/45/12 131/28/12 192/71/12
f 82/96/20 204/96/20 229/100/20 107/100/20
f 80/122/4 202/122/4 194/123/4 72/123/4
f 107/100/21 229/100/21 230/101/21 108/101/21
f 76/70/7 198/70/7 233/124/7 111/124/7
f 71/87/4 193/87/4 202/122/4 80/122/4
f 81/104/3 93/86/3 85/116/3 105/105/3
f 109/125/4 231/125/4 232/88/4 110/88/4
f 87/111/3 75/126/3 74/99/3 103/98/3
f 75/126/3 87/111/3 64/112/3 111/124/3
f 70/71/3 76/70/3 111/124/3 64/112/3
f 113/127/3 89/121/3 99/128/3 112/129/3
f 117/130/3 72/123/3 109/125/3 118/131/3
f 115/132/3 92/118/3 90/120/19 114/133/3
f 119/134/3 110/88/3 73/40/3 120/69/3
f 75/126/7 197/126/7 196/99/7 74/99/7
f 108/101/15 230/101/15 203/104/15 81/104/15
f 72/123/4 194/123/4 231/125/4 109/125/4
f 103/98/11 225/98/11 224/108/11 102/108/11
f 81/104/22 203/104/22 215/86/22 93/86/22
f 111/124/7 233/124/7 197/126/7 75/126/7
f 68/135/7 66/136/7 62/94/7 74/99/7
f 67/89/3 66/137/3 68/138/3 77/90/3
f 200/92/23 189/89/23 67/89/23 78/92/23
f 67/89/15 189/89/15 188/137/15 66/137/15
f 74/99/7 196/99/7 190/135/7 68/135/7
f 66/136/7 188/136/7 184/94/7 62/94/7
f 87/111/4 209/111/4 186/112/4 64/112/4
f 65/107/16 187/107/16 209/111/16 87/111/16
f 97/109/13 219/109/13 211/121/13 89/121/13
f 95/62/14 217/62/14 216/119/14 94/119/14
f 99/128/14 221/128/14 220/110/14 98/110/14
f 96/117/13 218/117/13 214/118/13 92/118/13
f 94/119/8 216/119/8 208/114/8 86/114/8
f 86/114/16 208/114/16 192/71/16 70/71/16
f 91/106/8 213/106/8 187/107/8 65/107/8
f 101/95/16 223/95/16 191/93/16 69/93/16
f 98/110/8 220/110/8 223/95/8 101/95/8
f 64/112/11 186/112/11 226/113/11 104/113/11
f 89/121/7 211/121/7 221/128/7 99/128/7
f 102/108/15 224/108/15 219/109/15 97/109/15
f 104/113/15 226/113/15 218/117/15 96/117/15
f 69/93/4 191/93/4 225/98/4 103/98/4
f 92/118/3 115/132/3 116/63/3 95/62/3
f 119/139/3 115/140/3 114/141/3 118/142/3
f 89/121/3 113/127/3 114/133/3 90/120/19
f 117/143/3 113/144/3 112/145/3 121/146/3
f 98/110/3 88/81/3 112/129/3 99/128/3
f 72/123/3 117/130/3 121/147/3 80/122/3
f 110/88/3 119/134/3 118/131/3 109/125/3
f 115/140/3 119/139/3 120/60/3 116/59/3
f 113/144/3 117/143/3 118/142/3 114/141/3
f 88/148/3 122/149/3 121/146/3 112/145/3
f 88/81/3 100/115/3 71/87/3 122/150/3
f 71/87/3 80/122/3 121/147/3 122/150/3
f 17/4/7 139/4/7 140/5/7 18/5/7
f 149/26/8 124/9/8 2/9/8 27/26/8
f 222/115/24 100/115/24 88/81/24 210/81/24
f 222/115/7 207/116/7 85/116/7 100/115/7
f 207/116/25 227/105/25 105/105/25 85/116/25
f 227/105/8 228/102/8 106/102/8 105/105/8
f 206/103/26 84/103/26 106/102/26 228/102/26
f 206/103/4 205/97/4 83/97/4 84/103/4
f 185/82/27 63/82/27 83/97/27 205/97/27
f 213/106/14 91/106/14 90/120/14 212/120/14
f 199/90/8 77/90/8 68/138/8 190/138/8
f 199/90/28 201/91/28 79/91/28 77/90/28
f 62/94/7 184/94/7 204/96/7 82/96/7
f 92/118/7 214/118/7 212/120/7 90/120/7
f 161/33/29 149/26/29 27/26/29 39/33/29
f 161/33/7 39/33/7 24/32/7 146/32/7
f 146/32/30 24/32/30 44/19/30 166/19/30
f 166/19/15 44/19/15 45/17/15 167/17/15
f 145/16/31 167/17/31 45/17/31 23/16/31
f 145/16/4 23/16/4 22/11/4 144/11/4
f 124/9/26 144/11/26 22/11/26 2/9/26
f 152/21/13 151/38/13 29/38/13 30/21/13
f 138/6/15 129/67/15 7/67/15 16/6/15
f 138/6/32 16/6/32 18/5/32 140/5/32
f 21/12/7 143/12/7 123/10/7 1/10/7
f 29/38/7 151/38/7 153/37/7 31/37/7
f 128/3/33 138/6/33 140/5/33 139/4/33
f 130/7/12 123/10/12 124/9/12 162/8/12
f 123/10/12 143/12/12 144/11/12 124/9/12
f 123/10/12 130/7/12 164/14/12 135/13/12
f 168/15/12 169/18/12 167/17/12 145/16/12
f 167/17/12 169/18/12 142/20/12 166/19/12
f 152/21/12 126/24/12 163/23/12 158/22/12
f 162/8/12 124/9/12 149/26/12 159/25/12
f 145/16/12 144/11/12 143/12/12 168/15/12
f 126/24/12 148/27/12 164/14/12 163/23/12
f 131/28/12 125/31/12 165/30/12 147/29/12
f 132/1/12 161/33/12 146/32/12 154/2/12
f 157/34/12 153/37/12 156/36/12 155/35/12
f 151/38/34 152/21/12 158/22/12 150/39/12
f 165/30/12 157/34/12 155/35/12 147/29/12
f 142/20/12 154/2/12 146/32/12 166/19/12
f 148/27/12 136/48/12 135/13/12 164/14/12
f 136/48/12 148/27/12 125/31/12 172/44/12
f 131/28/12 137/45/12 172/44/12 125/31/12
f 174/49/12 150/39/12 160/51/12 173/50/12
f 178/52/12 133/42/12 170/47/12 179/53/12
f 176/54/12 153/37/12 151/38/34 175/55/12
f 180/56/12 171/46/12 134/41/12 181/57/12
f 181/61/12 242/60/12 238/59/12 177/58/12
f 177/64/12 238/63/12 217/62/12 156/36/12
f 129/65/7 127/66/7 123/10/7 135/13/7
f 128/3/12 127/68/12 129/67/12 138/6/12
f 153/37/12 176/54/12 177/64/12 156/36/12
f 180/72/12 176/75/12 175/74/12 179/73/12
f 150/39/12 174/49/12 175/55/12 151/38/34
f 178/76/12 174/79/12 173/78/12 182/77/12
f 159/25/12 149/26/12 173/50/12 160/51/12
f 133/42/12 178/52/12 182/80/12 141/43/12
f 171/46/12 180/56/12 179/53/12 170/47/12
f 176/75/12 180/72/12 181/61/12 177/58/12
f 174/79/12 178/76/12 179/73/12 175/74/12
f 149/83/12 183/84/12 182/77/12 173/78/12
f 149/26/12 161/33/12 132/1/12 183/85/12
f 132/1/12 141/43/12 182/80/12 183/85/12
f 131/28/4 9/28/4 70/71/4 192/71/4
f 189/89/33 200/92/33 201/91/33 199/90/33
f 191/93/12 223/95/12 185/82/12 184/94/12
f 184/94/12 185/82/12 205/97/12 204/96/12
f 184/94/12 196/99/12 225/98/12 191/93/12
f 229/100/12 206/103/12 228/102/12 230/101/12
f 228/102/12 227/105/12 203/104/12 230/101/12
f 213/106/12 219/109/12 224/108/12 187/107/12
f 223/95/12 220/110/12 210/81/12 185/82/12
f 206/103/12 229/100/12 204/96/12 205/97/12
f 187/107/12 224/108/12 225/98/12 209/111/12
f 192/71/12 208/114/12 226/113/12 186/112/12
f 193/87/12 215/86/12 207/116/12 222/115/12
f 218/117/12 216/119/12 217/62/12 214/118/12
f 212/120/12 211/121/12 219/109/12 213/106/12
f 226/113/12 208/114/12 216/119/12 218/117/12
f 203/104/12 227/105/12 207/116/12 215/86/12
f 209/111/12 225/98/12 196/99/12 197/126/12
f 197/126/12 233/124/12 186/112/12 209/111/12
f 192/71/12 186/112/12 233/124/12 198/70/12
f 235/127/12 234/129/12 221/128/12 211/121/12
f 239/130/12 240/131/12 231/125/12 194/123/12
f 237/132/12 236/133/12 212/120/12 214/118/12
f 241/134/12 242/69/12 195/40/12 232/88/12
f 190/135/7 196/99/7 184/94/7 188/136/7
f 189/89/12 199/90/12 190/138/12 188/137/12
f 214/118/12 217/62/12 238/63/12 237/132/12
f 241/139/12 240/142/12 236/141/12 237/140/12
f 211/121/12 212/120/12 236/133/12 235/127/12
f 239/143/12 243/146/12 234/145/12 235/144/12
f 220/110/12 221/128/12 234/129/12 210/81/12
f 194/123/12 202/122/12 243/147/12 239/130/12
f 232/88/12 231/125/12 240/131/12 241/134/12
f 237/140/12 238/59/12 242/60/12 241/139/12
f 235/144/12 236/141/12 240/142/12 239/143/12
f 210/148/12 234/145/12 243/146/12 244/149/12
f 210/81/12 244/150/12 193/87/12 222/115/12
f 193/87/12 244/150/12 243/147/12 202/122/12
f 59/57/3 120/69/3 73/40/3 12/41/3
f 79/91/7 201/91/7 200/92/7 78/92/7
