# Blender 5.1.0
# www.blender.org
mtllib barriere55_145.mtl
o barriere55.145
v 60.126690 0.406544 30.020731
v 60.106701 0.597168 30.080666
v 60.311337 0.643228 29.467047
v 60.262997 0.684295 29.612001
v 60.128010 0.406544 29.978540
v 60.128010 0.372827 29.978540
v 60.177448 0.406544 29.830296
v 60.174679 0.643228 29.876827
v 60.407318 0.643228 29.179237
v 60.052624 1.574804 30.242825
v 60.191311 1.574801 29.826956
v 60.385178 1.574801 29.245630
v 60.191311 0.406544 29.826956
v 60.255932 0.406544 29.633181
v 60.385178 0.406544 29.245630
v 60.177448 0.372827 29.830296
v 60.313049 0.224803 30.072498
v 60.382496 0.224803 29.864258
v 60.106701 1.574801 30.080664
v 60.010368 1.411595 30.369526
v 60.088554 0.406544 30.135077
v 60.078697 0.558043 30.164637
v 60.058361 0.558043 30.225622
v 60.058361 1.334638 30.225622
v 60.379314 0.684295 29.263208
v 60.291000 0.643228 29.528032
v 60.106701 1.295513 30.080664
v 60.195019 1.249449 29.815842
v 60.291000 1.249449 29.528032
v 60.262997 1.208383 29.612001
v 60.311337 1.249449 29.467047
v 60.024033 1.519067 30.328556
v 60.379314 1.208383 29.263208
v 60.407318 1.249449 29.179237
v 60.339340 1.208383 29.383074
v 60.223022 1.208383 29.731871
v 60.146675 1.208383 29.960798
v 60.174679 1.249452 29.876827
v 60.078697 1.334638 30.164637
v 60.146675 0.684295 29.960798
v 60.223022 0.684295 29.731871
v 60.195019 0.643228 29.815842
v 60.339340 0.684295 29.383074
v 60.030357 1.295510 30.309593
v 60.030357 0.597168 30.309593
v 60.040051 0.442269 30.280527
v 60.010368 0.546414 30.369526
v 60.255932 1.574801 29.633181
v 60.320557 1.574801 29.439405
v 60.320557 0.406544 29.439405
v 60.167885 1.295513 29.897200
v 60.194492 1.295513 29.817415
v 60.286034 1.295513 29.542919
v 60.312641 1.295513 29.463133
v 60.404182 1.295513 29.188637
v 60.191994 1.514732 29.824903
v 60.262405 1.514732 29.613768
v 60.318851 1.514732 29.444510
v 60.389267 1.514732 29.233372
v 60.119862 1.514733 30.041204
v 60.106701 1.514733 30.080664
v 60.708145 0.406544 28.277185
v 60.728130 0.597168 28.217253
v 60.523495 0.643228 28.830872
v 60.571835 0.684295 28.685917
v 60.683876 0.406544 28.311726
v 60.683876 0.372827 28.311726
v 60.634438 0.406544 28.459969
v 60.660152 0.643228 28.421091
v 60.427513 0.643228 29.118681
v 60.782211 1.574804 28.055092
v 60.643520 1.574801 28.470961
v 60.449654 1.574801 29.052286
v 60.643520 0.406544 28.470961
v 60.578899 0.406544 28.664736
v 60.449654 0.406544 29.052286
v 60.634438 0.372827 28.459969
v 60.888271 0.224803 28.347641
v 60.818829 0.224803 28.555882
v 60.728130 1.574801 28.217255
v 60.824463 1.411595 27.928391
v 60.746277 0.406544 28.162842
v 60.756134 0.558043 28.133280
v 60.776474 0.558043 28.072296
v 60.776474 1.334638 28.072296
v 60.455517 0.684295 29.034708
v 60.543835 0.643228 28.769886
v 60.728130 1.295513 28.217255
v 60.639816 1.249449 28.482077
v 60.543835 1.249449 28.769886
v 60.571835 1.208383 28.685917
v 60.523495 1.249449 28.830872
v 60.810799 1.519067 27.969362
v 60.455517 1.208383 29.034708
v 60.427513 1.249449 29.118681
v 60.495491 1.208383 28.914845
v 60.611813 1.208383 28.566048
v 60.688156 1.208383 28.337120
v 60.660152 1.249452 28.421091
v 60.756134 1.334638 28.133280
v 60.688156 0.684295 28.337120
v 60.611813 0.684295 28.566048
v 60.639816 0.643228 28.482077
v 60.495491 0.684295 28.914845
v 60.804478 1.295510 27.988323
v 60.804478 0.597168 27.988323
v 60.794785 0.442269 28.017391
v 60.824463 0.546414 27.928391
v 60.578899 1.574801 28.664736
v 60.514278 1.574801 28.858511
v 60.514278 0.406544 28.858511
v 60.666946 1.295513 28.400717
v 60.640339 1.295513 28.480503
v 60.548798 1.295513 28.754999
v 60.522190 1.295513 28.834785
v 60.430649 1.295513 29.109282
v 60.642838 1.514732 28.473013
v 60.572426 1.514732 28.684149
v 60.515980 1.514732 28.853409
v 60.445568 1.514732 29.064545
v 60.714970 1.514733 28.256712
v 60.728130 1.514733 28.217255
v 60.040894 0.406544 29.992121
v 60.020908 0.597168 30.052053
v 60.225544 0.643228 29.438435
v 60.177204 0.684295 29.583389
v 60.065163 0.406544 29.957581
v 60.065163 0.372827 29.957581
v 60.114601 0.406544 29.809338
v 60.088886 0.643228 29.848215
v 60.321526 0.643228 29.150625
v 59.966827 1.574804 30.214214
v 60.105518 1.574801 29.798346
v 60.299381 1.574801 29.217020
v 60.105518 0.406544 29.798346
v 60.170139 0.406544 29.604570
v 60.299385 0.406544 29.217020
v 60.114601 0.372827 29.809338
v 59.860767 0.224803 29.921665
v 59.930210 0.224803 29.713425
v 60.020908 1.574801 30.052052
v 59.924576 1.411595 30.340916
v 60.002762 0.406544 30.106464
v 59.992905 0.558043 30.136026
v 59.972565 0.558043 30.197010
v 59.972565 1.334638 30.197010
v 60.293522 0.684295 29.234598
v 60.205204 0.643228 29.499420
v 60.020908 1.295513 30.052052
v 60.109222 1.249449 29.787230
v 60.205204 1.249449 29.499420
v 60.177204 1.208383 29.583389
v 60.225544 1.249449 29.438435
v 59.938240 1.519067 30.299944
v 60.293522 1.208383 29.234598
v 60.321526 1.249449 29.150625
v 60.253548 1.208383 29.354462
v 60.137226 1.208383 29.703259
v 60.060883 1.208383 29.932186
v 60.088886 1.249452 29.848215
v 59.992905 1.334638 30.136026
v 60.060883 0.684295 29.932186
v 60.137226 0.684295 29.703259
v 60.109222 0.643228 29.787230
v 60.253548 0.684295 29.354462
v 59.944561 1.295510 30.280983
v 59.944561 0.597168 30.280983
v 59.954254 0.442269 30.251915
v 59.924576 0.546414 30.340916
v 60.170139 1.574801 29.604570
v 60.234760 1.574801 29.410795
v 60.234760 0.406544 29.410795
v 60.082092 1.295513 29.868589
v 60.108700 1.295513 29.788803
v 60.200241 1.295513 29.514307
v 60.226849 1.295513 29.434521
v 60.318390 1.295513 29.160025
v 60.106201 1.514732 29.796293
v 60.176613 1.514732 29.585157
v 60.233059 1.514732 29.415897
v 60.303471 1.514732 29.204762
v 60.034069 1.514733 30.012594
v 60.020908 1.514733 30.052052
v 60.622349 0.406544 28.248575
v 60.642338 0.597168 28.188641
v 60.437702 0.643228 28.802259
v 60.486042 0.684295 28.657305
v 60.621029 0.406544 28.290766
v 60.621029 0.372827 28.290766
v 60.571590 0.406544 28.439011
v 60.574360 0.643228 28.392479
v 60.341721 0.643228 29.090069
v 60.696415 1.574804 28.026482
v 60.557728 1.574801 28.442350
v 60.363861 1.574801 29.023676
v 60.557728 0.406544 28.442350
v 60.493107 0.406544 28.636126
v 60.363861 0.406544 29.023676
v 60.571590 0.372827 28.439011
v 60.435989 0.224803 28.196808
v 60.366543 0.224803 28.405048
v 60.642338 1.574801 28.188643
v 60.738670 1.411595 27.899780
v 60.660484 0.406544 28.134230
v 60.670341 0.558043 28.104670
v 60.690678 0.558043 28.043684
v 60.690678 1.334638 28.043684
v 60.369724 0.684295 29.006098
v 60.458038 0.643228 28.741274
v 60.642338 1.295513 28.188643
v 60.554020 1.249449 28.453465
v 60.458038 1.249449 28.741274
v 60.486042 1.208383 28.657305
v 60.437702 1.249449 28.802259
v 60.725006 1.519067 27.940750
v 60.369724 1.208383 29.006098
v 60.341721 1.249449 29.090069
v 60.409698 1.208383 28.886232
v 60.526016 1.208383 28.537436
v 60.602364 1.208383 28.308508
v 60.574360 1.249452 28.392479
v 60.670341 1.334638 28.104670
v 60.602364 0.684295 28.308508
v 60.526016 0.684295 28.537436
v 60.554020 0.643228 28.453465
v 60.409698 0.684295 28.886232
v 60.718681 1.295510 27.959713
v 60.718681 0.597168 27.959713
v 60.708988 0.442269 27.988779
v 60.738670 0.546414 27.899780
v 60.493107 1.574801 28.636126
v 60.428482 1.574801 28.829901
v 60.428482 0.406544 28.829901
v 60.581154 1.295513 28.372107
v 60.554546 1.295513 28.451891
v 60.463005 1.295513 28.726387
v 60.436398 1.295513 28.806173
v 60.344856 1.295513 29.080669
v 60.557045 1.514732 28.444401
v 60.486629 1.514732 28.655539
v 60.430183 1.514732 28.824797
v 60.359772 1.514732 29.035933
v 60.629177 1.514733 28.228102
v 60.642338 1.514733 28.188643
vn -0.1661 0.8511 0.4980
vn 0.5549 0.8111 0.1850
vn 0.9486 -0.0000 0.3164
vn 0.9486 0.0001 0.3164
vn -0.0000 1.0000 -0.0000
vn -0.0718 -0.9739 0.2153
vn -0.2351 -0.6693 0.7048
vn -0.0000 -1.0000 -0.0000
vn 0.9486 -0.0001 0.3164
vn -0.3163 -0.0000 0.9486
vn -0.2935 0.3729 0.8802
vn -0.3098 0.2024 0.9290
vn -0.3164 -0.0000 0.9486
vn 0.1331 0.9071 -0.3992
vn -0.9486 -0.0001 -0.3164
vn -0.9486 -0.0000 -0.3164
vn 0.1331 -0.9071 -0.3992
vn 0.1331 -0.9071 -0.3993
vn -0.1331 -0.9071 0.3992
vn 0.3164 -0.0000 -0.9486
vn 0.1331 0.9071 -0.3993
vn -0.1331 0.9071 0.3992
vn 0.1661 0.8511 -0.4980
vn 0.9486 -0.0000 0.3163
vn 0.0718 -0.9739 -0.2153
vn 0.2351 -0.6693 -0.7048
vn 0.1332 0.9071 -0.3992
vn 0.2935 0.3729 -0.8802
vn 0.3098 0.2024 -0.9290
vn -0.1332 0.9071 0.3993
vn -0.1332 -0.9071 0.3993
vn 0.1279 -0.9146 -0.3835
vn -0.1279 -0.9146 0.3835
vn -0.1279 0.9146 0.3835
vn 0.1279 0.9146 -0.3835
vn -0.1332 -0.9071 0.3992
vn -0.3089 0.2154 0.9264
vn 0.3163 -0.0000 -0.9486
vn 0.3089 0.2154 -0.9264
vn -0.5549 0.8111 -0.1850
vn -0.9486 -0.0000 -0.3163
vn -0.9486 0.0001 -0.3164
vn -0.9486 0.0001 -0.3163
vt 0.563424 0.076340
vt 0.553130 0.073518
vt 0.930572 0.423953
vt 0.921307 0.379121
vt 0.987792 0.379121
vt 0.977903 0.423953
vt 0.607372 0.029178
vt 0.597289 0.031257
vt 0.582896 0.026846
vt 0.590093 0.017196
vt 0.572813 0.024865
vt 0.576362 0.017196
vt 0.613360 0.017196
vt 0.614695 0.029178
vt 0.558897 0.019004
vt 0.565490 0.024865
vt 0.555407 0.026846
vt 0.548211 0.024277
vt 0.555407 0.062200
vt 0.548211 0.068077
vt 0.639171 0.057790
vt 0.624778 0.057790
vt 0.624778 0.031257
vt 0.639171 0.031257
vt 0.597289 0.057790
vt 0.582896 0.062201
vt 0.649254 0.029178
vt 0.691136 0.029178
vt 0.681053 0.031257
vt 0.666660 0.031257
vt 0.656577 0.029178
vt 0.565490 0.064181
vt 0.572813 0.064181
vt 0.666660 0.057790
vt 0.681053 0.057790
vt 0.691136 0.059869
vt 0.656577 0.059869
vt 0.649254 0.059869
vt 0.614695 0.059869
vt 0.706379 0.076340
vt 0.683164 0.076340
vt 0.613360 0.076340
vt 0.582896 0.076340
vt 0.659896 0.017196
vt 0.683164 0.017196
vt 0.659896 0.076340
vt 0.636628 0.076340
vt 0.636628 0.017196
vt 0.614506 0.062201
vt 0.604926 0.062201
vt 0.607372 0.059869
vt 0.613607 0.073299
vt 0.638959 0.073299
vt 0.657047 0.062201
vt 0.647466 0.062201
vt 0.659283 0.073299
vt 0.684635 0.073299
vt 0.688839 0.081258
vt 0.699816 0.081258
vt 0.706005 0.126709
vt 0.682651 0.126709
vt 0.698407 0.059869
vt 0.699536 0.062201
vt 0.690007 0.062201
vt 0.612500 0.017196
vt 0.594699 0.017196
vt 0.977903 0.434165
vt 0.930572 0.434165
vt 0.704907 0.073299
vt 0.706379 0.017196
vt 0.698407 0.029178
vt 0.653445 0.126709
vt 0.630032 0.126709
vt 0.639832 0.081258
vt 0.650869 0.081258
vt 0.600826 0.126709
vt 0.570905 0.126710
vt 0.590825 0.081258
vt 0.601862 0.081258
vt 0.587634 0.073299
vt 0.806647 0.062201
vt 0.806647 0.026846
vt 0.565447 0.081258
vt 0.565447 0.126710
vt 0.582896 0.073299
vt 0.836413 0.073518
vt 0.826118 0.076340
vt 0.729647 0.076340
vt 0.978547 0.423953
vt 0.931216 0.423953
vt 0.921327 0.379121
vt 0.987812 0.379121
vt 0.782171 0.029178
vt 0.799450 0.017196
vt 0.792254 0.031257
vt 0.813181 0.017196
vt 0.816730 0.024865
vt 0.774848 0.029178
vt 0.776183 0.017196
vt 0.830646 0.019004
vt 0.841332 0.024277
vt 0.834136 0.026846
vt 0.824053 0.024865
vt 0.841332 0.068077
vt 0.834136 0.062200
vt 0.750372 0.057790
vt 0.750372 0.031257
vt 0.764765 0.031257
vt 0.764765 0.057790
vt 0.792254 0.057790
vt 0.740289 0.029178
vt 0.732966 0.029178
vt 0.722883 0.031257
vt 0.708490 0.031257
vt 0.816730 0.064181
vt 0.824053 0.064181
vt 0.722883 0.057790
vt 0.732966 0.059869
vt 0.708490 0.057790
vt 0.740289 0.059869
vt 0.774848 0.059869
vt 0.806647 0.076340
vt 0.776183 0.076340
vt 0.729647 0.017196
vt 0.752915 0.076340
vt 0.752915 0.017196
vt 0.775037 0.062201
vt 0.782171 0.059869
vt 0.784617 0.062201
vt 0.775936 0.073299
vt 0.750584 0.073299
vt 0.732496 0.062201
vt 0.742077 0.062201
vt 0.730260 0.073299
vt 0.777043 0.017196
vt 0.794844 0.017196
vt 0.978547 0.434165
vt 0.931216 0.434165
vt 0.735211 0.126709
vt 0.737787 0.081258
vt 0.748824 0.081258
vt 0.758624 0.126709
vt 0.787830 0.126709
vt 0.786794 0.081258
vt 0.797831 0.081258
vt 0.817751 0.126710
vt 0.801909 0.073299
vt 0.823209 0.081258
vt 0.823209 0.126710
vt 0.806647 0.073299
s 1
usemtl initialShadingGroup.004
f 10/1/1 132/1/1 154/2/1 32/2/1
f 6/3/2 17/4/2 18/5/2 16/6/2
f 8/7/3 40/8/3 2/9/3 1/10/3
f 1/10/3 2/9/3 22/11/3 21/12/3
f 1/10/3 13/13/3 42/14/3 8/7/3
f 46/15/3 23/16/3 45/17/3 47/18/3
f 45/17/3 44/19/3 20/20/3 47/18/3
f 30/21/4 36/22/4 41/23/3 4/24/3
f 40/8/3 37/25/3 27/26/3 2/9/3
f 23/16/3 46/15/3 21/12/3 22/11/3
f 4/24/3 41/23/3 42/14/3 26/27/3
f 9/28/3 25/29/3 43/30/3 3/31/3
f 10/1/3 32/2/3 24/32/3 39/33/3
f 35/34/3 33/35/3 34/36/3 31/37/3
f 29/38/3 28/39/3 36/22/4 30/21/4
f 43/30/3 25/29/3 33/35/3 35/34/3
f 73/40/5 195/40/5 134/41/5 12/41/5
f 46/15/6 168/15/6 143/12/6 21/12/6
f 11/42/5 133/42/5 141/43/5 19/43/5
f 47/18/7 169/18/7 168/15/7 46/15/7
f 50/44/8 172/44/8 137/45/8 15/45/8
f 19/43/5 141/43/5 132/1/5 10/1/5
f 20/20/3 44/19/3 24/32/3 32/2/3
f 49/46/5 171/46/5 170/47/5 48/47/5
f 26/27/3 42/14/3 13/13/3 14/48/3
f 14/48/3 50/44/3 3/31/3 26/27/3
f 9/28/3 3/31/3 50/44/3 15/45/3
f 52/49/3 51/50/3 38/51/3 28/39/3
f 56/52/3 57/53/3 48/47/9 11/42/3
f 54/54/3 53/55/3 29/38/3 31/37/3
f 58/56/3 59/57/3 12/41/3 49/46/3
f 55/58/3 116/59/3 120/60/3 59/61/3
f 13/13/8 135/13/8 136/48/8 14/48/8
f 20/20/10 142/20/10 169/18/10 47/18/10
f 34/36/3 95/62/3 116/63/3 55/64/3
f 48/47/5 170/47/5 133/42/5 11/42/5
f 32/2/11 154/2/11 142/20/11 20/20/11
f 14/48/8 136/48/8 172/44/8 50/44/8
f 7/65/8 13/13/8 1/10/8 5/66/8
f 6/3/3 16/6/3 7/67/3 5/68/3
f 139/4/12 17/4/12 6/3/12 128/3/12
f 5/68/13 127/68/13 128/3/13 6/3/13
f 7/65/8 129/65/8 135/13/8 13/13/8
f 1/10/8 123/10/8 127/66/8 5/66/8
f 3/31/5 125/31/5 148/27/5 26/27/5
f 26/27/14 148/27/14 126/24/14 4/24/14
f 134/41/15 195/40/16 242/69/16 181/57/16
f 156/36/8 217/62/8 95/62/8 34/36/8
f 33/35/17 155/35/17 156/36/17 34/36/17
f 37/25/18 159/25/18 160/51/18 38/51/18
f 31/37/19 153/37/19 157/34/19 35/34/19
f 25/29/20 147/29/20 155/35/20 33/35/20
f 9/28/14 131/28/14 147/29/14 25/29/14
f 4/24/20 126/24/20 152/21/20 30/21/20
f 8/7/21 130/7/21 162/8/21 40/8/21
f 40/8/20 162/8/20 159/25/20 37/25/20
f 43/30/22 165/30/22 125/31/22 3/31/22
f 38/51/8 160/51/8 150/39/8 28/39/8
f 76/70/3 70/71/3 9/28/3 15/45/3
f 36/22/13 158/22/13 163/23/13 41/23/13
f 35/34/13 157/34/13 165/30/13 43/30/13
f 42/14/5 164/14/5 130/7/5 8/7/5
f 28/39/19 150/39/19 158/22/19 36/22/19
f 31/37/3 34/36/3 55/64/3 54/54/3
f 58/72/3 57/73/3 53/74/3 54/75/3
f 28/39/3 29/38/3 53/55/3 52/49/3
f 56/76/3 60/77/3 51/78/3 52/79/3
f 37/25/3 38/51/3 51/50/3 27/26/3
f 11/42/3 19/43/3 60/80/3 56/52/3
f 49/46/3 48/47/9 57/53/3 58/56/3
f 210/81/20 88/81/20 63/82/20 185/82/20
f 54/75/3 55/58/3 59/61/3 58/72/3
f 52/79/3 53/74/3 57/73/3 56/76/3
f 27/83/3 51/78/3 60/77/3 61/84/3
f 27/26/3 61/85/3 10/1/3 39/33/3
f 10/1/3 61/85/3 60/80/3 19/43/3
f 12/41/5 134/41/5 171/46/5 49/46/5
f 41/23/22 163/23/22 164/14/22 42/14/22
f 15/45/8 137/45/8 198/70/8 76/70/8
f 93/86/23 215/86/23 193/87/23 71/87/23
f 110/88/5 232/88/5 195/40/5 73/40/5
f 67/89/2 77/90/2 79/91/2 78/92/2
f 69/93/3 62/94/3 63/82/3 101/95/3
f 62/94/3 82/96/3 83/97/3 63/82/3
f 62/94/3 69/93/3 103/98/3 74/99/3
f 107/100/3 108/101/24 106/102/24 84/103/3
f 106/102/24 108/101/24 81/104/3 105/105/3
f 91/106/9 65/107/4 102/108/4 97/109/9
f 101/95/3 63/82/3 88/81/3 98/110/3
f 84/103/3 83/97/3 82/96/3 107/100/3
f 65/107/4 87/111/3 103/98/3 102/108/4
f 70/71/3 64/112/3 104/113/3 86/114/3
f 71/87/3 100/115/3 85/116/3 93/86/3
f 96/117/3 92/118/9 95/62/3 94/119/3
f 90/120/3 91/106/9 97/109/9 89/121/4
f 104/113/3 96/117/3 94/119/3 86/114/3
f 198/70/16 137/45/16 131/28/16 192/71/16
f 82/96/25 204/96/25 229/100/25 107/100/25
f 80/122/5 202/122/5 194/123/5 72/123/5
f 107/100/26 229/100/26 230/101/26 108/101/26
f 76/70/8 198/70/8 233/124/8 111/124/8
f 71/87/5 193/87/5 202/122/5 80/122/5
f 81/104/3 93/86/3 85/116/3 105/105/3
f 109/125/5 231/125/5 232/88/5 110/88/5
f 87/111/3 75/126/3 74/99/3 103/98/3
f 75/126/3 87/111/3 64/112/3 111/124/3
f 70/71/3 76/70/3 111/124/3 64/112/3
f 113/127/4 89/121/4 99/128/4 112/129/3
f 117/130/3 72/123/3 109/125/3 118/131/3
f 115/132/3 92/118/9 90/120/3 114/133/3
f 119/134/3 110/88/4 73/40/4 120/69/3
f 75/126/8 197/126/8 196/99/8 74/99/8
f 108/101/20 230/101/20 203/104/20 81/104/20
f 72/123/5 194/123/5 231/125/5 109/125/5
f 103/98/27 225/98/27 224/108/27 102/108/27
f 81/104/28 203/104/28 215/86/28 93/86/28
f 111/124/8 233/124/8 197/126/8 75/126/8
f 68/135/8 66/136/8 62/94/8 74/99/8
f 67/89/3 66/137/3 68/138/3 77/90/3
f 200/92/29 189/89/29 67/89/29 78/92/29
f 67/89/20 189/89/20 188/137/20 66/137/20
f 74/99/8 196/99/8 190/135/8 68/135/8
f 66/136/8 188/136/8 184/94/8 62/94/8
f 87/111/5 209/111/5 186/112/5 64/112/5
f 65/107/30 187/107/30 209/111/30 87/111/30
f 97/109/17 219/109/17 211/121/17 89/121/17
f 95/62/19 217/62/19 216/119/19 94/119/19
f 99/128/31 221/128/31 220/110/31 98/110/31
f 96/117/17 218/117/17 214/118/17 92/118/17
f 94/119/13 216/119/13 208/114/13 86/114/13
f 86/114/22 208/114/22 192/71/22 70/71/22
f 91/106/13 213/106/13 187/107/13 65/107/13
f 101/95/22 223/95/22 191/93/22 69/93/22
f 98/110/13 220/110/13 223/95/13 101/95/13
f 64/112/27 186/112/27 226/113/27 104/113/27
f 89/121/8 211/121/8 221/128/8 99/128/8
f 102/108/20 224/108/20 219/109/20 97/109/20
f 104/113/20 226/113/20 218/117/20 96/117/20
f 69/93/5 191/93/5 225/98/5 103/98/5
f 92/118/9 115/132/3 116/63/3 95/62/3
f 119/139/3 115/140/3 114/141/3 118/142/3
f 89/121/4 113/127/4 114/133/3 90/120/3
f 117/143/3 113/144/4 112/145/3 121/146/3
f 98/110/3 88/81/3 112/129/3 99/128/4
f 72/123/3 117/130/3 121/147/3 80/122/3
f 110/88/4 119/134/3 118/131/3 109/125/3
f 115/140/3 119/139/3 120/60/3 116/59/3
f 113/144/4 117/143/3 118/142/3 114/141/3
f 88/148/3 122/149/3 121/146/3 112/145/3
f 88/81/3 100/115/3 71/87/3 122/150/3
f 71/87/3 80/122/3 121/147/3 122/150/3
f 17/4/8 139/4/8 140/5/8 18/5/8
f 149/26/13 124/9/13 2/9/13 27/26/13
f 222/115/32 100/115/32 88/81/32 210/81/32
f 222/115/8 207/116/8 85/116/8 100/115/8
f 207/116/33 227/105/33 105/105/33 85/116/33
f 227/105/10 228/102/10 106/102/10 105/105/10
f 206/103/34 84/103/34 106/102/34 228/102/34
f 206/103/5 205/97/5 83/97/5 84/103/5
f 185/82/35 63/82/35 83/97/35 205/97/35
f 213/106/36 91/106/36 90/120/36 212/120/36
f 199/90/13 77/90/13 68/138/13 190/138/13
f 199/90/37 201/91/37 79/91/37 77/90/37
f 62/94/8 184/94/8 204/96/8 82/96/8
f 92/118/8 214/118/8 212/120/8 90/120/8
f 161/33/33 149/26/33 27/26/33 39/33/33
f 161/33/8 39/33/8 24/32/8 146/32/8
f 146/32/32 24/32/32 44/19/32 166/19/32
f 166/19/38 44/19/38 45/17/38 167/17/38
f 145/16/35 167/17/35 45/17/35 23/16/35
f 145/16/5 23/16/5 22/11/5 144/11/5
f 124/9/34 144/11/34 22/11/34 2/9/34
f 152/21/17 151/38/17 29/38/17 30/21/17
f 138/6/20 129/67/20 7/67/20 16/6/20
f 138/6/39 16/6/39 18/5/39 140/5/39
f 21/12/8 143/12/8 123/10/8 1/10/8
f 29/38/8 151/38/8 153/37/8 31/37/8
f 128/3/40 138/6/40 140/5/40 139/4/40
f 130/7/16 123/10/16 124/9/16 162/8/16
f 123/10/16 143/12/16 144/11/16 124/9/16
f 123/10/16 130/7/16 164/14/16 135/13/16
f 168/15/16 169/18/41 167/17/41 145/16/16
f 167/17/41 169/18/41 142/20/16 166/19/41
f 152/21/15 126/24/42 163/23/42 158/22/15
f 162/8/16 124/9/16 149/26/16 159/25/16
f 145/16/16 144/11/16 143/12/16 168/15/16
f 126/24/42 148/27/16 164/14/16 163/23/42
f 131/28/16 125/31/16 165/30/16 147/29/16
f 132/1/16 161/33/16 146/32/16 154/2/16
f 157/34/16 153/37/16 156/36/16 155/35/16
f 151/38/16 152/21/15 158/22/15 150/39/42
f 165/30/16 157/34/16 155/35/16 147/29/16
f 142/20/16 154/2/16 146/32/16 166/19/41
f 148/27/16 136/48/16 135/13/16 164/14/16
f 136/48/16 148/27/16 125/31/16 172/44/16
f 131/28/16 137/45/16 172/44/16 125/31/16
f 174/49/42 150/39/42 160/51/16 173/50/16
f 178/52/16 133/42/16 170/47/16 179/53/16
f 176/54/16 153/37/16 151/38/16 175/55/16
f 180/56/16 171/46/16 134/41/15 181/57/16
f 181/61/16 242/60/16 238/59/16 177/58/16
f 177/64/16 238/63/16 217/62/16 156/36/16
f 129/65/8 127/66/8 123/10/8 135/13/8
f 128/3/16 127/68/16 129/67/16 138/6/16
f 153/37/16 176/54/16 177/64/16 156/36/16
f 180/72/16 176/75/16 175/74/16 179/73/16
f 150/39/42 174/49/42 175/55/16 151/38/16
f 178/76/16 174/79/42 173/78/16 182/77/16
f 159/25/16 149/26/16 173/50/16 160/51/16
f 133/42/16 178/52/16 182/80/16 141/43/16
f 171/46/16 180/56/16 179/53/16 170/47/16
f 176/75/16 180/72/16 181/61/16 177/58/16
f 174/79/42 178/76/16 179/73/16 175/74/16
f 149/83/16 183/84/16 182/77/16 173/78/16
f 149/26/16 161/33/16 132/1/16 183/85/16
f 132/1/16 141/43/16 182/80/16 183/85/16
f 131/28/5 9/28/5 70/71/5 192/71/5
f 189/89/40 200/92/40 201/91/40 199/90/40
f 191/93/16 223/95/16 185/82/16 184/94/16
f 184/94/16 185/82/16 205/97/16 204/96/16
f 184/94/16 196/99/16 225/98/16 191/93/16
f 229/100/16 206/103/16 228/102/16 230/101/16
f 228/102/16 227/105/16 203/104/16 230/101/16
f 213/106/16 219/109/16 224/108/16 187/107/16
f 223/95/16 220/110/16 210/81/16 185/82/16
f 206/103/16 229/100/16 204/96/16 205/97/16
f 187/107/16 224/108/16 225/98/16 209/111/16
f 192/71/16 208/114/16 226/113/16 186/112/16
f 193/87/16 215/86/16 207/116/16 222/115/16
f 218/117/15 216/119/15 217/62/16 214/118/42
f 212/120/43 211/121/16 219/109/16 213/106/16
f 226/113/16 208/114/16 216/119/15 218/117/15
f 203/104/16 227/105/16 207/116/16 215/86/16
f 209/111/16 225/98/16 196/99/16 197/126/16
f 197/126/16 233/124/16 186/112/16 209/111/16
f 192/71/16 186/112/16 233/124/16 198/70/16
f 235/127/16 234/129/16 221/128/16 211/121/16
f 239/130/16 240/131/16 231/125/16 194/123/16
f 237/132/42 236/133/16 212/120/43 214/118/42
f 241/134/16 242/69/16 195/40/16 232/88/16
f 190/135/8 196/99/8 184/94/8 188/136/8
f 189/89/16 199/90/16 190/138/16 188/137/16
f 214/118/42 217/62/16 238/63/16 237/132/42
f 241/139/16 240/142/16 236/141/16 237/140/42
f 211/121/16 212/120/43 236/133/16 235/127/16
f 239/143/16 243/146/16 234/145/16 235/144/16
f 220/110/16 221/128/16 234/129/16 210/81/16
f 194/123/16 202/122/16 243/147/16 239/130/16
f 232/88/16 231/125/16 240/131/16 241/134/16
f 237/140/42 238/59/16 242/60/16 241/139/16
f 235/144/16 236/141/16 240/142/16 239/143/16
f 210/148/16 234/145/16 243/146/16 244/149/16
f 210/81/16 244/150/16 193/87/16 222/115/16
f 193/87/16 244/150/16 243/147/16 202/122/16
f 59/57/3 120/69/3 73/40/4 12/41/3
f 79/91/8 201/91/8 200/92/8 78/92/8
