# Blender 5.1.0
# www.blender.org
mtllib barriere55_075.mtl
o barriere55.075
v 73.218788 0.406545 34.385544
v 73.260658 0.597169 34.338234
v 72.831985 0.643229 34.822636
v 72.933250 0.684296 34.708206
v 73.201042 0.406545 34.423847
v 73.201042 0.372828 34.423847
v 73.097481 0.406545 34.540874
v 73.118256 0.643229 34.499146
v 72.630928 0.643229 35.049839
v 73.373940 1.574805 34.210220
v 73.083420 1.574802 34.538517
v 72.677307 1.574802 34.997429
v 73.083420 0.406545 34.538517
v 72.948044 0.406545 34.691486
v 72.677307 0.406545 34.997429
v 73.097481 0.372828 34.540874
v 73.067604 0.224804 34.264908
v 72.922127 0.224804 34.429298
v 73.260651 1.574802 34.338234
v 73.462448 1.411596 34.110199
v 73.298668 0.406545 34.295280
v 73.319321 0.558044 34.271942
v 73.361923 0.558044 34.223801
v 73.361923 1.334639 34.223801
v 72.689590 0.684296 34.983551
v 72.874588 0.643229 34.774494
v 73.260651 1.295514 34.338234
v 73.075653 1.249450 34.547291
v 72.874588 1.249450 34.774494
v 72.933250 1.208384 34.708206
v 72.831985 1.249450 34.822636
v 73.433830 1.519068 34.142544
v 72.689590 1.208384 34.983551
v 72.630928 1.249450 35.049839
v 72.773323 1.208384 34.888927
v 73.016991 1.208384 34.613579
v 73.176918 1.208384 34.432858
v 73.118256 1.249453 34.499146
v 73.319321 1.334639 34.271942
v 73.176918 0.684296 34.432858
v 73.016991 0.684296 34.613579
v 73.075653 0.643229 34.547291
v 72.773323 0.684296 34.888927
v 73.420586 1.295511 34.157513
v 73.420586 0.597169 34.157513
v 73.400276 0.442270 34.180458
v 73.462448 0.546415 34.110199
v 72.948044 1.574802 34.691486
v 72.812675 1.574802 34.844456
v 72.812675 0.406545 34.844456
v 73.132492 1.295514 34.483063
v 73.076752 1.295514 34.546047
v 72.884995 1.295514 34.762741
v 72.829254 1.295514 34.825726
v 72.637497 1.295514 35.042419
v 73.081985 1.514733 34.540134
v 72.934486 1.514733 34.706814
v 72.816246 1.514733 34.840427
v 72.668747 1.514733 35.007103
v 73.233086 1.514734 34.369385
v 73.260651 1.514734 34.338234
v 72.000763 0.406545 35.761940
v 71.958893 0.597169 35.809254
v 72.387566 0.643229 35.324848
v 72.286301 0.684296 35.439278
v 72.036621 0.406545 35.739670
v 72.036621 0.372828 35.739670
v 72.140182 0.406545 35.622643
v 72.101295 0.643229 35.648338
v 72.588623 0.643229 35.097645
v 71.845612 1.574805 35.937267
v 72.136131 1.574802 35.608971
v 72.542244 1.574802 35.150059
v 72.136131 0.406545 35.608971
v 72.271500 0.406545 35.455997
v 72.542244 0.406545 35.150059
v 72.140182 0.372828 35.622643
v 71.862633 0.224804 35.626549
v 72.008110 0.224804 35.462162
v 71.958893 1.574802 35.809250
v 71.757095 1.411596 36.037285
v 71.920883 0.406545 35.852207
v 71.900230 0.558044 35.875542
v 71.857628 0.558044 35.923683
v 71.857628 1.334639 35.923683
v 72.529961 0.684296 35.163933
v 72.344955 0.643229 35.372990
v 71.958893 1.295514 35.809250
v 72.143898 1.249450 35.600193
v 72.344955 1.249450 35.372990
v 72.286301 1.208384 35.439278
v 72.387566 1.249450 35.324848
v 71.785721 1.519068 36.004944
v 72.529961 1.208384 35.163933
v 72.588623 1.249450 35.097645
v 72.446228 1.208384 35.258556
v 72.202560 1.208384 35.533905
v 72.042633 1.208384 35.714626
v 72.101295 1.249453 35.648338
v 71.900230 1.334639 35.875542
v 72.042633 0.684296 35.714626
v 72.202560 0.684296 35.533905
v 72.143898 0.643229 35.600193
v 72.446228 0.684296 35.258556
v 71.798965 1.295511 35.989975
v 71.798965 0.597169 35.989975
v 71.819275 0.442270 35.967030
v 71.757095 0.546415 36.037285
v 72.271500 1.574802 35.455997
v 72.406868 1.574802 35.303028
v 72.406868 0.406545 35.303028
v 72.087059 1.295514 35.664421
v 72.142799 1.295514 35.601437
v 72.334557 1.295514 35.384743
v 72.390297 1.295514 35.321758
v 72.582054 1.295514 35.105064
v 72.137566 1.514733 35.607349
v 72.285065 1.514733 35.440674
v 72.403305 1.514733 35.307056
v 72.550804 1.514733 35.140381
v 71.986458 1.514734 35.778103
v 71.958893 1.514734 35.809250
v 73.286514 0.406545 34.445480
v 73.328384 0.597169 34.398167
v 72.899712 0.643229 34.882572
v 73.000977 0.684296 34.768143
v 73.250656 0.406545 34.467751
v 73.250656 0.372828 34.467751
v 73.147095 0.406545 34.584778
v 73.185982 0.643229 34.559082
v 72.698654 0.643229 35.109776
v 73.441666 1.574805 34.270153
v 73.151146 1.574802 34.598450
v 72.745033 1.574802 35.057362
v 73.151146 0.406545 34.598450
v 73.015778 0.406545 34.751423
v 72.745033 0.406545 35.057362
v 73.147095 0.372828 34.584778
v 73.424644 0.224804 34.580872
v 73.279167 0.224804 34.745258
v 73.328384 1.574802 34.398170
v 73.530182 1.411596 34.170135
v 73.366394 0.406545 34.355213
v 73.387047 0.558044 34.331879
v 73.429649 0.558044 34.283737
v 73.429649 1.334639 34.283737
v 72.757317 0.684296 35.043488
v 72.942322 0.643229 34.834431
v 73.328384 1.295514 34.398170
v 73.143379 1.249450 34.607227
v 72.942322 1.249450 34.834431
v 73.000977 1.208384 34.768143
v 72.899712 1.249450 34.882572
v 73.501556 1.519068 34.202477
v 72.757317 1.208384 35.043488
v 72.698654 1.249450 35.109776
v 72.841049 1.208384 34.948864
v 73.084717 1.208384 34.673515
v 73.244644 1.208384 34.492794
v 73.185982 1.249453 34.559082
v 73.387047 1.334639 34.331879
v 73.244644 0.684296 34.492794
v 73.084717 0.684296 34.673515
v 73.143379 0.643229 34.607227
v 72.841049 0.684296 34.948864
v 73.488312 1.295511 34.217445
v 73.488312 0.597169 34.217445
v 73.468002 0.442270 34.240391
v 73.530182 0.546415 34.170135
v 73.015778 1.574802 34.751423
v 72.880409 1.574802 34.904392
v 72.880409 0.406545 34.904392
v 73.200218 1.295514 34.542999
v 73.144478 1.295514 34.605984
v 72.952721 1.295514 34.822678
v 72.896980 1.295514 34.885662
v 72.705223 1.295514 35.102356
v 73.149712 1.514733 34.600071
v 73.002213 1.514733 34.766747
v 72.883972 1.514733 34.900364
v 72.736473 1.514733 35.067039
v 73.300819 1.514734 34.429317
v 73.328384 1.514734 34.398170
v 72.068489 0.406545 35.821877
v 72.026619 0.597169 35.869186
v 72.455292 0.643229 35.384785
v 72.354027 0.684296 35.499214
v 72.086235 0.406545 35.783573
v 72.086235 0.372828 35.783573
v 72.189796 0.406545 35.666546
v 72.169022 0.643229 35.708275
v 72.656349 0.643229 35.157581
v 71.913338 1.574805 35.997200
v 72.203857 1.574802 35.668903
v 72.609970 1.574802 35.209991
v 72.203857 0.406545 35.668903
v 72.339233 0.406545 35.515934
v 72.609970 0.406545 35.209991
v 72.189796 0.372828 35.666546
v 72.219673 0.224804 35.942513
v 72.365150 0.224804 35.778122
v 72.026627 1.574802 35.869186
v 71.824829 1.411596 36.097221
v 71.988609 0.406545 35.912140
v 71.967957 0.558044 35.935478
v 71.925354 0.558044 35.983620
v 71.925354 1.334639 35.983620
v 72.597687 0.684296 35.223869
v 72.412689 0.643229 35.432926
v 72.026627 1.295514 35.869186
v 72.211624 1.249450 35.660130
v 72.412689 1.249450 35.432926
v 72.354027 1.208384 35.499214
v 72.455292 1.249450 35.384785
v 71.853447 1.519068 36.064877
v 72.597687 1.208384 35.223869
v 72.656349 1.249450 35.157581
v 72.513954 1.208384 35.318493
v 72.270287 1.208384 35.593842
v 72.110359 1.208384 35.774563
v 72.169022 1.249453 35.708275
v 71.967957 1.334639 35.935478
v 72.110359 0.684296 35.774563
v 72.270287 0.684296 35.593842
v 72.211624 0.643229 35.660130
v 72.513954 0.684296 35.318493
v 71.866692 1.295511 36.049908
v 71.866692 0.597169 36.049908
v 71.887001 0.442270 36.026962
v 71.824829 0.546415 36.097221
v 72.339233 1.574802 35.515934
v 72.474602 1.574802 35.362965
v 72.474602 0.406545 35.362965
v 72.154793 1.295514 35.724358
v 72.210526 1.295514 35.661373
v 72.402283 1.295514 35.444679
v 72.458023 1.295514 35.381695
v 72.649780 1.295514 35.165001
v 72.205292 1.514733 35.667286
v 72.352791 1.514733 35.500610
v 72.471031 1.514733 35.366993
v 72.618530 1.514733 35.200317
v 72.054192 1.514734 35.838036
v 72.026627 1.514734 35.869186
vn 0.3479 0.8511 -0.3931
vn -0.4380 0.8111 -0.3876
vn -0.7489 -0.0000 -0.6627
vn -0.7489 -0.0001 -0.6627
vn -0.7489 0.0001 -0.6627
vn -0.0000 1.0000 -0.0000
vn 0.1504 -0.9739 -0.1699
vn 0.4924 -0.6693 -0.5564
vn -0.0000 -1.0000 -0.0000
vn 0.6627 -0.0000 -0.7489
vn 0.6149 0.3729 -0.6949
vn 0.6490 0.2024 -0.7334
vn -0.2789 0.9071 0.3152
vn 0.7489 0.0001 0.6627
vn 0.7489 -0.0000 0.6627
vn -0.2789 -0.9071 0.3152
vn -0.2789 -0.9071 0.3151
vn 0.2789 -0.9071 -0.3152
vn -0.6627 -0.0000 0.7489
vn -0.2789 0.9072 0.3151
vn 0.2790 0.9071 -0.3152
vn 0.2790 -0.9071 -0.3152
vn 0.2789 0.9071 -0.3152
vn -0.3478 0.8512 0.3931
vn -0.7489 -0.0002 -0.6626
vn -0.1504 -0.9739 0.1699
vn -0.4924 -0.6693 0.5564
vn -0.6149 0.3729 0.6949
vn -0.6490 0.2024 0.7334
vn -0.2679 -0.9146 0.3028
vn 0.2679 -0.9147 -0.3027
vn 0.2679 0.9147 -0.3027
vn -0.2679 0.9146 0.3028
vn 0.6471 0.2154 -0.7313
vn 0.2679 -0.9146 -0.3028
vn -0.2679 -0.9147 0.3027
vn -0.2679 0.9147 0.3027
vn 0.2679 0.9146 -0.3028
vn -0.6472 0.2154 0.7313
vn 0.4380 0.8111 0.3876
vn 0.7489 -0.0001 0.6627
vt 0.563424 0.076340
vt 0.553130 0.073518
vt 0.930572 0.423953
vt 0.921307 0.379121
vt 0.987792 0.379121
vt 0.977903 0.423953
vt 0.607372 0.029178
vt 0.597289 0.031257
vt 0.582896 0.026846
vt 0.590093 0.017196
vt 0.572813 0.024865
vt 0.576362 0.017196
vt 0.613360 0.017196
vt 0.614695 0.029178
vt 0.558897 0.019004
vt 0.565490 0.024865
vt 0.555407 0.026846
vt 0.548211 0.024277
vt 0.555407 0.062200
vt 0.548211 0.068077
vt 0.639171 0.057790
vt 0.624778 0.057790
vt 0.624778 0.031257
vt 0.639171 0.031257
vt 0.597289 0.057790
vt 0.582896 0.062201
vt 0.649254 0.029178
vt 0.691136 0.029178
vt 0.681053 0.031257
vt 0.666660 0.031257
vt 0.656577 0.029178
vt 0.565490 0.064181
vt 0.572813 0.064181
vt 0.666660 0.057790
vt 0.681053 0.057790
vt 0.691136 0.059869
vt 0.656577 0.059869
vt 0.649254 0.059869
vt 0.614695 0.059869
vt 0.706379 0.076340
vt 0.683164 0.076340
vt 0.613360 0.076340
vt 0.582896 0.076340
vt 0.659896 0.017196
vt 0.683164 0.017196
vt 0.659896 0.076340
vt 0.636628 0.076340
vt 0.636628 0.017196
vt 0.614506 0.062201
vt 0.604926 0.062201
vt 0.607372 0.059869
vt 0.613607 0.073299
vt 0.638959 0.073299
vt 0.657047 0.062201
vt 0.647466 0.062201
vt 0.659283 0.073299
vt 0.684635 0.073299
vt 0.688839 0.081258
vt 0.699816 0.081258
vt 0.706005 0.126709
vt 0.682651 0.126709
vt 0.698407 0.059869
vt 0.699536 0.062201
vt 0.690007 0.062201
vt 0.612500 0.017196
vt 0.594699 0.017196
vt 0.977903 0.434165
vt 0.930572 0.434165
vt 0.704907 0.073299
vt 0.706379 0.017196
vt 0.698407 0.029178
vt 0.653445 0.126709
vt 0.630032 0.126709
vt 0.639832 0.081258
vt 0.650869 0.081258
vt 0.600826 0.126709
vt 0.570905 0.126710
vt 0.590825 0.081258
vt 0.601862 0.081258
vt 0.587634 0.073299
vt 0.806647 0.062201
vt 0.806647 0.026846
vt 0.565447 0.081258
vt 0.565447 0.126710
vt 0.582896 0.073299
vt 0.836413 0.073518
vt 0.826118 0.076340
vt 0.729647 0.076340
vt 0.978547 0.423953
vt 0.931216 0.423953
vt 0.921327 0.379121
vt 0.987812 0.379121
vt 0.782171 0.029178
vt 0.799450 0.017196
vt 0.792254 0.031257
vt 0.813181 0.017196
vt 0.816730 0.024865
vt 0.774848 0.029178
vt 0.776183 0.017196
vt 0.830646 0.019004
vt 0.841332 0.024277
vt 0.834136 0.026846
vt 0.824053 0.024865
vt 0.841332 0.068077
vt 0.834136 0.062200
vt 0.750372 0.057790
vt 0.750372 0.031257
vt 0.764765 0.031257
vt 0.764765 0.057790
vt 0.792254 0.057790
vt 0.740289 0.029178
vt 0.732966 0.029178
vt 0.722883 0.031257
vt 0.708490 0.031257
vt 0.816730 0.064181
vt 0.824053 0.064181
vt 0.722883 0.057790
vt 0.732966 0.059869
vt 0.708490 0.057790
vt 0.740289 0.059869
vt 0.774848 0.059869
vt 0.806647 0.076340
vt 0.776183 0.076340
vt 0.729647 0.017196
vt 0.752915 0.076340
vt 0.752915 0.017196
vt 0.775037 0.062201
vt 0.782171 0.059869
vt 0.784617 0.062201
vt 0.775936 0.073299
vt 0.750584 0.073299
vt 0.732496 0.062201
vt 0.742077 0.062201
vt 0.730260 0.073299
vt 0.777043 0.017196
vt 0.794844 0.017196
vt 0.978547 0.434165
vt 0.931216 0.434165
vt 0.735211 0.126709
vt 0.737787 0.081258
vt 0.748824 0.081258
vt 0.758624 0.126709
vt 0.787830 0.126709
vt 0.786794 0.081258
vt 0.797831 0.081258
vt 0.817751 0.126710
vt 0.801909 0.073299
vt 0.823209 0.081258
vt 0.823209 0.126710
vt 0.806647 0.073299
s 1
usemtl initialShadingGroup.004
f 10/1/1 132/1/1 154/2/1 32/2/1
f 6/3/2 17/4/2 18/5/2 16/6/2
f 8/7/3 40/8/3 2/9/3 1/10/3
f 1/10/3 2/9/3 22/11/3 21/12/3
f 1/10/3 13/13/3 42/14/3 8/7/3
f 46/15/3 23/16/3 45/17/3 47/18/3
f 45/17/3 44/19/3 20/20/3 47/18/3
f 30/21/4 36/22/4 41/23/3 4/24/3
f 40/8/3 37/25/3 27/26/3 2/9/3
f 23/16/3 46/15/3 21/12/3 22/11/3
f 4/24/3 41/23/3 42/14/3 26/27/3
f 9/28/3 25/29/3 43/30/3 3/31/3
f 10/1/3 32/2/3 24/32/3 39/33/3
f 35/34/3 33/35/3 34/36/4 31/37/5
f 29/38/5 28/39/3 36/22/4 30/21/4
f 43/30/3 25/29/3 33/35/3 35/34/3
f 73/40/6 195/40/6 134/41/6 12/41/6
f 46/15/7 168/15/7 143/12/7 21/12/7
f 11/42/6 133/42/6 141/43/6 19/43/6
f 47/18/8 169/18/8 168/15/8 46/15/8
f 50/44/9 172/44/9 137/45/9 15/45/9
f 19/43/6 141/43/6 132/1/6 10/1/6
f 20/20/3 44/19/3 24/32/3 32/2/3
f 49/46/6 171/46/6 170/47/6 48/47/6
f 26/27/3 42/14/3 13/13/3 14/48/3
f 14/48/3 50/44/3 3/31/3 26/27/3
f 9/28/3 3/31/3 50/44/3 15/45/3
f 52/49/3 51/50/3 38/51/3 28/39/3
f 56/52/3 57/53/3 48/47/4 11/42/3
f 54/54/3 53/55/3 29/38/5 31/37/5
f 58/56/3 59/57/3 12/41/3 49/46/3
f 55/58/3 116/59/4 120/60/3 59/61/3
f 13/13/9 135/13/9 136/48/9 14/48/9
f 20/20/10 142/20/10 169/18/10 47/18/10
f 34/36/4 95/62/4 116/63/4 55/64/3
f 48/47/6 170/47/6 133/42/6 11/42/6
f 32/2/11 154/2/11 142/20/11 20/20/11
f 14/48/9 136/48/9 172/44/9 50/44/9
f 7/65/9 13/13/9 1/10/9 5/66/9
f 6/3/3 16/6/3 7/67/3 5/68/3
f 139/4/12 17/4/12 6/3/12 128/3/12
f 5/68/10 127/68/10 128/3/10 6/3/10
f 7/65/9 129/65/9 135/13/9 13/13/9
f 1/10/9 123/10/9 127/66/9 5/66/9
f 3/31/6 125/31/6 148/27/6 26/27/6
f 26/27/13 148/27/13 126/24/13 4/24/13
f 134/41/14 195/40/15 242/69/15 181/57/15
f 156/36/9 217/62/9 95/62/9 34/36/9
f 33/35/16 155/35/16 156/36/16 34/36/16
f 37/25/17 159/25/17 160/51/17 38/51/17
f 31/37/18 153/37/18 157/34/18 35/34/18
f 25/29/19 147/29/19 155/35/19 33/35/19
f 9/28/13 131/28/13 147/29/13 25/29/13
f 4/24/19 126/24/19 152/21/19 30/21/19
f 8/7/20 130/7/20 162/8/20 40/8/20
f 40/8/19 162/8/19 159/25/19 37/25/19
f 43/30/21 165/30/21 125/31/21 3/31/21
f 38/51/9 160/51/9 150/39/9 28/39/9
f 76/70/3 70/71/3 9/28/3 15/45/3
f 36/22/10 158/22/10 163/23/10 41/23/10
f 35/34/10 157/34/10 165/30/10 43/30/10
f 42/14/6 164/14/6 130/7/6 8/7/6
f 28/39/22 150/39/22 158/22/22 36/22/22
f 31/37/5 34/36/4 55/64/3 54/54/3
f 58/72/3 57/73/3 53/74/3 54/75/3
f 28/39/3 29/38/5 53/55/3 52/49/3
f 56/76/3 60/77/3 51/78/3 52/79/3
f 37/25/3 38/51/3 51/50/3 27/26/3
f 11/42/3 19/43/3 60/80/3 56/52/3
f 49/46/3 48/47/4 57/53/3 58/56/3
f 210/81/19 88/81/19 63/82/19 185/82/19
f 54/75/3 55/58/3 59/61/3 58/72/3
f 52/79/3 53/74/3 57/73/3 56/76/3
f 27/83/3 51/78/3 60/77/3 61/84/3
f 27/26/3 61/85/3 10/1/3 39/33/3
f 10/1/3 61/85/3 60/80/3 19/43/3
f 12/41/6 134/41/6 171/46/6 49/46/6
f 41/23/23 163/23/23 164/14/23 42/14/23
f 15/45/9 137/45/9 198/70/9 76/70/9
f 93/86/24 215/86/24 193/87/24 71/87/24
f 110/88/6 232/88/6 195/40/6 73/40/6
f 67/89/2 77/90/2 79/91/2 78/92/2
f 69/93/3 62/94/3 63/82/3 101/95/3
f 62/94/3 82/96/3 83/97/3 63/82/3
f 62/94/3 69/93/3 103/98/3 74/99/3
f 107/100/4 108/101/4 106/102/3 84/103/4
f 106/102/3 108/101/4 81/104/3 105/105/3
f 91/106/25 65/107/4 102/108/4 97/109/5
f 101/95/3 63/82/3 88/81/3 98/110/3
f 84/103/4 83/97/3 82/96/3 107/100/4
f 65/107/4 87/111/3 103/98/3 102/108/4
f 70/71/3 64/112/3 104/113/3 86/114/3
f 71/87/3 100/115/3 85/116/3 93/86/3
f 96/117/3 92/118/3 95/62/4 94/119/3
f 90/120/3 91/106/25 97/109/5 89/121/3
f 104/113/3 96/117/3 94/119/3 86/114/3
f 198/70/15 137/45/15 131/28/15 192/71/15
f 82/96/26 204/96/26 229/100/26 107/100/26
f 80/122/6 202/122/6 194/123/6 72/123/6
f 107/100/27 229/100/27 230/101/27 108/101/27
f 76/70/9 198/70/9 233/124/9 111/124/9
f 71/87/6 193/87/6 202/122/6 80/122/6
f 81/104/3 93/86/3 85/116/3 105/105/3
f 109/125/6 231/125/6 232/88/6 110/88/6
f 87/111/3 75/126/3 74/99/3 103/98/3
f 75/126/3 87/111/3 64/112/3 111/124/3
f 70/71/3 76/70/3 111/124/3 64/112/3
f 113/127/3 89/121/3 99/128/3 112/129/3
f 117/130/3 72/123/3 109/125/4 118/131/3
f 115/132/3 92/118/3 90/120/3 114/133/3
f 119/134/3 110/88/5 73/40/3 120/69/3
f 75/126/9 197/126/9 196/99/9 74/99/9
f 108/101/19 230/101/19 203/104/19 81/104/19
f 72/123/6 194/123/6 231/125/6 109/125/6
f 103/98/13 225/98/13 224/108/13 102/108/13
f 81/104/28 203/104/28 215/86/28 93/86/28
f 111/124/9 233/124/9 197/126/9 75/126/9
f 68/135/9 66/136/9 62/94/9 74/99/9
f 67/89/3 66/137/3 68/138/3 77/90/3
f 200/92/29 189/89/29 67/89/29 78/92/29
f 67/89/19 189/89/19 188/137/19 66/137/19
f 74/99/9 196/99/9 190/135/9 68/135/9
f 66/136/9 188/136/9 184/94/9 62/94/9
f 87/111/6 209/111/6 186/112/6 64/112/6
f 65/107/23 187/107/23 209/111/23 87/111/23
f 97/109/16 219/109/16 211/121/16 89/121/16
f 95/62/18 217/62/18 216/119/18 94/119/18
f 99/128/18 221/128/18 220/110/18 98/110/18
f 96/117/16 218/117/16 214/118/16 92/118/16
f 94/119/10 216/119/10 208/114/10 86/114/10
f 86/114/23 208/114/23 192/71/23 70/71/23
f 91/106/10 213/106/10 187/107/10 65/107/10
f 101/95/23 223/95/23 191/93/23 69/93/23
f 98/110/10 220/110/10 223/95/10 101/95/10
f 64/112/13 186/112/13 226/113/13 104/113/13
f 89/121/9 211/121/9 221/128/9 99/128/9
f 102/108/19 224/108/19 219/109/19 97/109/19
f 104/113/19 226/113/19 218/117/19 96/117/19
f 69/93/6 191/93/6 225/98/6 103/98/6
f 92/118/3 115/132/3 116/63/4 95/62/4
f 119/139/3 115/140/3 114/141/3 118/142/3
f 89/121/3 113/127/3 114/133/3 90/120/3
f 117/143/3 113/144/3 112/145/3 121/146/3
f 98/110/3 88/81/3 112/129/3 99/128/3
f 72/123/3 117/130/3 121/147/3 80/122/3
f 110/88/5 119/134/3 118/131/3 109/125/4
f 115/140/3 119/139/3 120/60/3 116/59/4
f 113/144/3 117/143/3 118/142/3 114/141/3
f 88/148/3 122/149/3 121/146/3 112/145/3
f 88/81/3 100/115/3 71/87/3 122/150/3
f 71/87/3 80/122/3 121/147/3 122/150/3
f 17/4/9 139/4/9 140/5/9 18/5/9
f 149/26/10 124/9/10 2/9/10 27/26/10
f 222/115/30 100/115/30 88/81/30 210/81/30
f 222/115/9 207/116/9 85/116/9 100/115/9
f 207/116/31 227/105/31 105/105/31 85/116/31
f 227/105/10 228/102/10 106/102/10 105/105/10
f 206/103/32 84/103/32 106/102/32 228/102/32
f 206/103/6 205/97/6 83/97/6 84/103/6
f 185/82/33 63/82/33 83/97/33 205/97/33
f 213/106/18 91/106/18 90/120/18 212/120/18
f 199/90/10 77/90/10 68/138/10 190/138/10
f 199/90/34 201/91/34 79/91/34 77/90/34
f 62/94/9 184/94/9 204/96/9 82/96/9
f 92/118/9 214/118/9 212/120/9 90/120/9
f 161/33/35 149/26/35 27/26/35 39/33/35
f 161/33/9 39/33/9 24/32/9 146/32/9
f 146/32/36 24/32/36 44/19/36 166/19/36
f 166/19/19 44/19/19 45/17/19 167/17/19
f 145/16/37 167/17/37 45/17/37 23/16/37
f 145/16/6 23/16/6 22/11/6 144/11/6
f 124/9/38 144/11/38 22/11/38 2/9/38
f 152/21/17 151/38/17 29/38/17 30/21/17
f 138/6/19 129/67/19 7/67/19 16/6/19
f 138/6/39 16/6/39 18/5/39 140/5/39
f 21/12/9 143/12/9 123/10/9 1/10/9
f 29/38/9 151/38/9 153/37/9 31/37/9
f 128/3/40 138/6/40 140/5/40 139/4/40
f 130/7/15 123/10/15 124/9/15 162/8/15
f 123/10/15 143/12/15 144/11/15 124/9/15
f 123/10/15 130/7/15 164/14/15 135/13/15
f 168/15/15 169/18/41 167/17/15 145/16/15
f 167/17/15 169/18/41 142/20/15 166/19/15
f 152/21/15 126/24/15 163/23/15 158/22/15
f 162/8/15 124/9/15 149/26/15 159/25/15
f 145/16/15 144/11/15 143/12/15 168/15/15
f 126/24/15 148/27/15 164/14/15 163/23/15
f 131/28/15 125/31/15 165/30/15 147/29/15
f 132/1/15 161/33/15 146/32/15 154/2/15
f 157/34/15 153/37/15 156/36/41 155/35/15
f 151/38/15 152/21/15 158/22/15 150/39/15
f 165/30/15 157/34/15 155/35/15 147/29/15
f 142/20/15 154/2/15 146/32/15 166/19/15
f 148/27/15 136/48/15 135/13/15 164/14/15
f 136/48/15 148/27/15 125/31/15 172/44/15
f 131/28/15 137/45/15 172/44/15 125/31/15
f 174/49/15 150/39/15 160/51/14 173/50/15
f 178/52/15 133/42/41 170/47/41 179/53/15
f 176/54/15 153/37/15 151/38/15 175/55/15
f 180/56/15 171/46/14 134/41/14 181/57/15
f 181/61/15 242/60/15 238/59/15 177/58/15
f 177/64/15 238/63/15 217/62/41 156/36/41
f 129/65/9 127/66/9 123/10/9 135/13/9
f 128/3/15 127/68/15 129/67/15 138/6/15
f 153/37/15 176/54/15 177/64/15 156/36/41
f 180/72/15 176/75/15 175/74/15 179/73/15
f 150/39/15 174/49/15 175/55/15 151/38/15
f 178/76/15 174/79/15 173/78/15 182/77/15
f 159/25/15 149/26/15 173/50/15 160/51/14
f 133/42/41 178/52/15 182/80/15 141/43/15
f 171/46/14 180/56/15 179/53/15 170/47/41
f 176/75/15 180/72/15 181/61/15 177/58/15
f 174/79/15 178/76/15 179/73/15 175/74/15
f 149/83/15 183/84/15 182/77/15 173/78/15
f 149/26/15 161/33/15 132/1/15 183/85/15
f 132/1/15 141/43/15 182/80/15 183/85/15
f 131/28/6 9/28/6 70/71/6 192/71/6
f 189/89/40 200/92/40 201/91/40 199/90/40
f 191/93/15 223/95/15 185/82/15 184/94/15
f 184/94/15 185/82/15 205/97/15 204/96/15
f 184/94/15 196/99/15 225/98/15 191/93/15
f 229/100/15 206/103/15 228/102/15 230/101/41
f 228/102/15 227/105/15 203/104/15 230/101/41
f 213/106/15 219/109/15 224/108/15 187/107/15
f 223/95/15 220/110/15 210/81/15 185/82/15
f 206/103/15 229/100/15 204/96/15 205/97/15
f 187/107/15 224/108/15 225/98/15 209/111/15
f 192/71/15 208/114/14 226/113/14 186/112/15
f 193/87/15 215/86/15 207/116/15 222/115/15
f 218/117/15 216/119/15 217/62/41 214/118/15
f 212/120/14 211/121/15 219/109/15 213/106/15
f 226/113/14 208/114/14 216/119/15 218/117/15
f 203/104/15 227/105/15 207/116/15 215/86/15
f 209/111/15 225/98/15 196/99/15 197/126/15
f 197/126/15 233/124/15 186/112/15 209/111/15
f 192/71/15 186/112/15 233/124/15 198/70/15
f 235/127/15 234/129/15 221/128/15 211/121/15
f 239/130/15 240/131/15 231/125/41 194/123/15
f 237/132/15 236/133/15 212/120/14 214/118/15
f 241/134/15 242/69/15 195/40/15 232/88/15
f 190/135/9 196/99/9 184/94/9 188/136/9
f 189/89/15 199/90/15 190/138/15 188/137/15
f 214/118/15 217/62/41 238/63/15 237/132/15
f 241/139/15 240/142/15 236/141/15 237/140/15
f 211/121/15 212/120/14 236/133/15 235/127/15
f 239/143/15 243/146/15 234/145/15 235/144/15
f 220/110/15 221/128/15 234/129/15 210/81/15
f 194/123/15 202/122/15 243/147/15 239/130/15
f 232/88/15 231/125/41 240/131/15 241/134/15
f 237/140/15 238/59/15 242/60/15 241/139/15
f 235/144/15 236/141/15 240/142/15 239/143/15
f 210/148/15 234/145/15 243/146/15 244/149/15
f 210/81/15 244/150/15 193/87/15 222/115/15
f 193/87/15 244/150/15 243/147/15 202/122/15
f 59/57/3 120/69/3 73/40/3 12/41/3
f 79/91/9 201/91/9 200/92/9 78/92/9
