# Blender 5.1.0
# www.blender.org
mtllib barriere55_114.mtl
o barriere55.114
v -49.941124 0.406543 13.817526
v -49.988651 0.597167 13.775900
v -49.502056 0.643227 14.202083
v -49.617004 0.684294 14.101406
v -49.902733 0.406543 13.835074
v -49.902733 0.372826 13.835074
v -49.785175 0.406543 13.938036
v -49.827007 0.643227 13.917474
v -49.273827 0.643227 14.401978
v -50.117241 1.574803 13.663274
v -49.787460 1.574800 13.952111
v -49.326477 1.574800 14.355865
v -49.787460 0.406543 13.952111
v -49.633801 0.406543 14.086696
v -49.326477 0.406543 14.355865
v -49.785175 0.372826 13.938036
v -50.060986 0.224802 13.969328
v -49.895851 0.224802 14.113959
v -49.988647 1.574800 13.775902
v -50.217712 1.411594 13.575274
v -50.031799 0.406543 13.738110
v -50.055241 0.558042 13.717578
v -50.103600 0.558042 13.675222
v -50.103600 1.334637 13.675222
v -49.340416 0.684294 14.343656
v -49.550419 0.643227 14.159726
v -49.988647 1.295512 13.775902
v -49.778648 1.249448 13.959831
v -49.550419 1.249448 14.159726
v -49.617004 1.208382 14.101406
v -49.502056 1.249448 14.202083
v -50.185223 1.519066 13.603730
v -49.340416 1.208382 14.343656
v -49.273827 1.249448 14.401978
v -49.435467 1.208382 14.260406
v -49.712059 1.208382 14.018152
v -49.893597 1.208382 13.859153
v -49.827007 1.249451 13.917474
v -50.055241 1.334637 13.717578
v -49.893597 0.684294 13.859153
v -49.712059 0.684294 14.018152
v -49.778648 0.643227 13.959831
v -49.435467 0.684294 14.260406
v -50.170189 1.295509 13.616900
v -50.170189 0.597167 13.616900
v -50.147137 0.442268 13.637088
v -50.217712 0.546413 13.575274
v -49.633801 1.574800 14.086696
v -49.480141 1.574800 14.221280
v -49.480141 0.406543 14.221280
v -49.843163 1.295512 13.903324
v -49.779896 1.295512 13.958738
v -49.562222 1.295512 14.149386
v -49.498955 1.295512 14.204801
v -49.281281 1.295512 14.395450
v -49.785835 1.514731 13.953536
v -49.618404 1.514731 14.100179
v -49.484184 1.514731 14.217736
v -49.316757 1.514731 14.364378
v -49.957359 1.514732 13.803307
v -49.988647 1.514732 13.775902
v -48.558514 0.406543 15.028488
v -48.510986 0.597167 15.070114
v -48.997578 0.643227 14.643931
v -48.882629 0.684294 14.744609
v -48.580967 0.406543 14.992743
v -48.580967 0.372826 14.992743
v -48.698524 0.406543 14.889782
v -48.672626 0.643227 14.928540
v -49.225807 0.643227 14.444036
v -48.382393 1.574803 15.182741
v -48.712173 1.574800 14.893904
v -49.173157 1.574800 14.490149
v -48.712173 0.406543 14.893904
v -48.865833 0.406543 14.759319
v -49.173157 0.406543 14.490149
v -48.698524 0.372826 14.889782
v -48.693192 0.224802 15.167310
v -48.858326 0.224802 15.022678
v -48.510986 1.574800 15.070113
v -48.281921 1.411594 15.270740
v -48.467838 0.406543 15.107905
v -48.444397 0.558042 15.128436
v -48.396038 0.558042 15.170793
v -48.396038 1.334637 15.170793
v -49.159218 0.684294 14.502358
v -48.949219 0.643227 14.686288
v -48.510986 1.295512 15.070113
v -48.720989 1.249448 14.886183
v -48.949219 1.249448 14.686288
v -48.882629 1.208382 14.744609
v -48.997578 1.249448 14.643931
v -48.314411 1.519066 15.242284
v -49.159218 1.208382 14.502358
v -49.225807 1.249448 14.444036
v -49.064167 1.208382 14.585608
v -48.787575 1.208382 14.827862
v -48.606041 1.208382 14.986861
v -48.672626 1.249451 14.928540
v -48.444397 1.334637 15.128436
v -48.606041 0.684294 14.986861
v -48.787575 0.684294 14.827862
v -48.720989 0.643227 14.886183
v -49.064167 0.684294 14.585608
v -48.329449 1.295509 15.229114
v -48.329449 0.597167 15.229114
v -48.352497 0.442268 15.208926
v -48.281921 0.546413 15.270740
v -48.865833 1.574800 14.759319
v -49.019497 1.574800 14.624734
v -49.019497 0.406543 14.624734
v -48.656471 1.295512 14.942690
v -48.719742 1.295512 14.887277
v -48.937412 1.295512 14.696628
v -49.000683 1.295512 14.641213
v -49.218353 1.295512 14.450565
v -48.713802 1.514731 14.892478
v -48.881229 1.514731 14.745835
v -49.015450 1.514731 14.628279
v -49.182880 1.514731 14.481636
v -48.542278 1.514732 15.042707
v -48.510986 1.514732 15.070113
v -49.881535 0.406543 13.749493
v -49.929062 0.597167 13.707867
v -49.442471 0.643227 14.134049
v -49.557419 0.684294 14.033372
v -49.859081 0.406543 13.785237
v -49.859081 0.372826 13.785237
v -49.741524 0.406543 13.888199
v -49.767422 0.643227 13.849441
v -49.214241 0.643227 14.333944
v -50.057655 1.574803 13.595240
v -49.727875 1.574800 13.884077
v -49.266891 1.574800 14.287831
v -49.727875 0.406543 13.884077
v -49.574215 0.406543 14.018661
v -49.266891 0.406543 14.287831
v -49.741524 0.372826 13.888199
v -49.746857 0.224802 13.610671
v -49.581722 0.224802 13.755302
v -49.929062 1.574800 13.707868
v -50.158127 1.411594 13.507241
v -49.972210 0.406543 13.670075
v -49.995651 0.558042 13.649545
v -50.044010 0.558042 13.607188
v -50.044010 1.334637 13.607188
v -49.280830 0.684294 14.275622
v -49.490829 0.643227 14.091692
v -49.929062 1.295512 13.707868
v -49.719059 1.249448 13.891797
v -49.490829 1.249448 14.091692
v -49.557419 1.208382 14.033372
v -49.442471 1.249448 14.134049
v -50.125637 1.519066 13.535697
v -49.280830 1.208382 14.275622
v -49.214241 1.249448 14.333944
v -49.375881 1.208382 14.192372
v -49.652473 1.208382 13.950119
v -49.834007 1.208382 13.791120
v -49.767422 1.249451 13.849441
v -49.995651 1.334637 13.649545
v -49.834007 0.684294 13.791120
v -49.652473 0.684294 13.950119
v -49.719059 0.643227 13.891797
v -49.375881 0.684294 14.192372
v -50.110600 1.295509 13.548867
v -50.110600 0.597167 13.548867
v -50.087551 0.442268 13.569055
v -50.158127 0.546413 13.507241
v -49.574215 1.574800 14.018661
v -49.420551 1.574800 14.153246
v -49.420551 0.406543 14.153247
v -49.783577 1.295512 13.835291
v -49.720306 1.295512 13.890704
v -49.502636 1.295512 14.081352
v -49.439365 1.295512 14.136767
v -49.221695 1.295512 14.327415
v -49.726246 1.514731 13.885503
v -49.558819 1.514731 14.032146
v -49.424599 1.514731 14.149702
v -49.257168 1.514731 14.296345
v -49.897770 1.514732 13.735273
v -49.929062 1.514732 13.707868
v -48.498924 0.406543 14.960455
v -48.451397 0.597167 15.002081
v -48.937992 0.643227 14.575898
v -48.823044 0.684294 14.676575
v -48.537315 0.406543 14.942906
v -48.537315 0.372826 14.942906
v -48.654873 0.406543 14.839945
v -48.613041 0.643227 14.860507
v -49.166222 0.643227 14.376003
v -48.322807 1.574803 15.114707
v -48.652588 1.574800 14.825870
v -49.113571 1.574800 14.422116
v -48.652588 0.406543 14.825870
v -48.806248 0.406543 14.691285
v -49.113571 0.406543 14.422116
v -48.654873 0.372826 14.839945
v -48.379063 0.224802 14.808653
v -48.544197 0.224802 14.664021
v -48.451401 1.574800 15.002079
v -48.222336 1.411594 15.202706
v -48.408249 0.406543 15.039871
v -48.384808 0.558042 15.060403
v -48.336449 0.558042 15.102758
v -48.336449 1.334637 15.102758
v -49.099632 0.684294 14.434324
v -48.889629 0.643227 14.618255
v -48.451401 1.295512 15.002079
v -48.661400 1.249448 14.818150
v -48.889629 1.249448 14.618255
v -48.823044 1.208382 14.676575
v -48.937992 1.249448 14.575898
v -48.254826 1.519066 15.174250
v -49.099632 1.208382 14.434324
v -49.166222 1.249448 14.376002
v -49.004581 1.208382 14.517575
v -48.727989 1.208382 14.759829
v -48.546452 1.208382 14.918827
v -48.613041 1.249451 14.860507
v -48.384808 1.334637 15.060402
v -48.546452 0.684294 14.918828
v -48.727989 0.684294 14.759829
v -48.661400 0.643227 14.818150
v -49.004581 0.684294 14.517575
v -48.269859 1.295509 15.161080
v -48.269859 0.597167 15.161080
v -48.292912 0.442268 15.140893
v -48.222336 0.546413 15.202706
v -48.806248 1.574800 14.691285
v -48.959908 1.574800 14.556701
v -48.959908 0.406543 14.556701
v -48.596886 1.295512 14.874657
v -48.660152 1.295512 14.819242
v -48.877823 1.295512 14.628594
v -48.941093 1.295512 14.573180
v -49.158768 1.295512 14.382531
v -48.654213 1.514731 14.824445
v -48.821644 1.514731 14.677802
v -48.955864 1.514731 14.560245
v -49.123291 1.514731 14.413602
v -48.482689 1.514732 14.974673
v -48.451401 1.514732 15.002079
vn -0.3949 0.8511 -0.3459
vn -0.3854 0.8111 0.4400
vn -0.6589 -0.0000 0.7523
vn -0.6589 -0.0000 0.7522
vn -0.6589 0.0001 0.7523
vn -0.0000 1.0000 -0.0000
vn -0.1707 -0.9739 -0.1495
vn -0.5589 -0.6693 -0.4895
vn -0.0000 -1.0000 -0.0000
vn -0.6589 -0.0001 0.7523
vn -0.7523 -0.0000 -0.6589
vn -0.6980 0.3729 -0.6113
vn -0.7367 0.2024 -0.6452
vn -0.7522 -0.0000 -0.6589
vn 0.3166 0.9071 0.2773
vn 0.6589 -0.0000 -0.7523
vn 0.3166 -0.9071 0.2773
vn -0.3166 -0.9071 -0.2773
vn 0.7523 -0.0000 0.6589
vn 0.7522 -0.0000 0.6589
vn -0.3166 0.9071 -0.2773
vn 0.3949 0.8511 0.3459
vn 0.1707 -0.9739 0.1495
vn 0.5589 -0.6693 0.4895
vn 0.6980 0.3729 0.6113
vn 0.7367 0.2024 0.6452
vn 0.3041 -0.9146 0.2664
vn -0.3041 -0.9146 -0.2664
vn -0.3041 0.9146 -0.2664
vn 0.3041 0.9146 0.2664
vn -0.7346 0.2154 -0.6434
vn 0.7346 0.2154 0.6434
vn 0.3854 0.8111 -0.4400
vn 0.6589 -0.0001 -0.7523
vn 0.6589 0.0001 -0.7523
vn 0.6589 -0.0000 -0.7522
vt 0.563424 0.076340
vt 0.553130 0.073518
vt 0.930572 0.423953
vt 0.921307 0.379121
vt 0.987792 0.379121
vt 0.977903 0.423953
vt 0.607372 0.029178
vt 0.597289 0.031257
vt 0.582896 0.026846
vt 0.590093 0.017196
vt 0.572813 0.024865
vt 0.576362 0.017196
vt 0.613360 0.017196
vt 0.614695 0.029178
vt 0.558897 0.019004
vt 0.565490 0.024865
vt 0.555407 0.026846
vt 0.548211 0.024277
vt 0.555407 0.062200
vt 0.548211 0.068077
vt 0.639171 0.057790
vt 0.624778 0.057790
vt 0.624778 0.031257
vt 0.639171 0.031257
vt 0.597289 0.057790
vt 0.582896 0.062201
vt 0.649254 0.029178
vt 0.691136 0.029178
vt 0.681053 0.031257
vt 0.666660 0.031257
vt 0.656577 0.029178
vt 0.565490 0.064181
vt 0.572813 0.064181
vt 0.666660 0.057790
vt 0.681053 0.057790
vt 0.691136 0.059869
vt 0.656577 0.059869
vt 0.649254 0.059869
vt 0.614695 0.059869
vt 0.706379 0.076340
vt 0.683164 0.076340
vt 0.613360 0.076340
vt 0.582896 0.076340
vt 0.659896 0.017196
vt 0.683164 0.017196
vt 0.659896 0.076340
vt 0.636628 0.076340
vt 0.636628 0.017196
vt 0.614506 0.062201
vt 0.604926 0.062201
vt 0.607372 0.059869
vt 0.613607 0.073299
vt 0.638959 0.073299
vt 0.657047 0.062201
vt 0.647466 0.062201
vt 0.659283 0.073299
vt 0.684635 0.073299
vt 0.688839 0.081258
vt 0.699816 0.081258
vt 0.706005 0.126709
vt 0.682651 0.126709
vt 0.698407 0.059869
vt 0.699536 0.062201
vt 0.690007 0.062201
vt 0.612500 0.017196
vt 0.594699 0.017196
vt 0.977903 0.434165
vt 0.930572 0.434165
vt 0.704907 0.073299
vt 0.706379 0.017196
vt 0.698407 0.029178
vt 0.653445 0.126709
vt 0.630032 0.126709
vt 0.639832 0.081258
vt 0.650869 0.081258
vt 0.600826 0.126709
vt 0.570905 0.126710
vt 0.590825 0.081258
vt 0.601862 0.081258
vt 0.587634 0.073299
vt 0.806647 0.062201
vt 0.806647 0.026846
vt 0.565447 0.081258
vt 0.565447 0.126710
vt 0.582896 0.073299
vt 0.836413 0.073518
vt 0.826118 0.076340
vt 0.729647 0.076340
vt 0.978547 0.423953
vt 0.931216 0.423953
vt 0.921327 0.379121
vt 0.987812 0.379121
vt 0.782171 0.029178
vt 0.799450 0.017196
vt 0.792254 0.031257
vt 0.813181 0.017196
vt 0.816730 0.024865
vt 0.774848 0.029178
vt 0.776183 0.017196
vt 0.830646 0.019004
vt 0.841332 0.024277
vt 0.834136 0.026846
vt 0.824053 0.024865
vt 0.841332 0.068077
vt 0.834136 0.062200
vt 0.750372 0.057790
vt 0.750372 0.031257
vt 0.764765 0.031257
vt 0.764765 0.057790
vt 0.792254 0.057790
vt 0.740289 0.029178
vt 0.732966 0.029178
vt 0.722883 0.031257
vt 0.708490 0.031257
vt 0.816730 0.064181
vt 0.824053 0.064181
vt 0.722883 0.057790
vt 0.732966 0.059869
vt 0.708490 0.057790
vt 0.740289 0.059869
vt 0.774848 0.059869
vt 0.806647 0.076340
vt 0.776183 0.076340
vt 0.729647 0.017196
vt 0.752915 0.076340
vt 0.752915 0.017196
vt 0.775037 0.062201
vt 0.782171 0.059869
vt 0.784617 0.062201
vt 0.775936 0.073299
vt 0.750584 0.073299
vt 0.732496 0.062201
vt 0.742077 0.062201
vt 0.730260 0.073299
vt 0.777043 0.017196
vt 0.794844 0.017196
vt 0.978547 0.434165
vt 0.931216 0.434165
vt 0.735211 0.126709
vt 0.737787 0.081258
vt 0.748824 0.081258
vt 0.758624 0.126709
vt 0.787830 0.126709
vt 0.786794 0.081258
vt 0.797831 0.081258
vt 0.817751 0.126710
vt 0.801909 0.073299
vt 0.823209 0.081258
vt 0.823209 0.126710
vt 0.806647 0.073299
s 1
usemtl initialShadingGroup.004
f 10/1/1 132/1/1 154/2/1 32/2/1
f 6/3/2 17/4/2 18/5/2 16/6/2
f 8/7/3 40/8/3 2/9/3 1/10/3
f 1/10/3 2/9/3 22/11/3 21/12/3
f 1/10/3 13/13/3 42/14/3 8/7/3
f 46/15/4 23/16/4 45/17/4 47/18/3
f 45/17/4 44/19/4 20/20/4 47/18/3
f 30/21/3 36/22/3 41/23/5 4/24/5
f 40/8/3 37/25/3 27/26/3 2/9/3
f 23/16/4 46/15/4 21/12/3 22/11/3
f 4/24/5 41/23/5 42/14/3 26/27/3
f 9/28/3 25/29/3 43/30/3 3/31/3
f 10/1/3 32/2/3 24/32/3 39/33/3
f 35/34/5 33/35/5 34/36/3 31/37/3
f 29/38/3 28/39/3 36/22/3 30/21/3
f 43/30/3 25/29/3 33/35/5 35/34/5
f 73/40/6 195/40/6 134/41/6 12/41/6
f 46/15/7 168/15/7 143/12/7 21/12/7
f 11/42/6 133/42/6 141/43/6 19/43/6
f 47/18/8 169/18/8 168/15/8 46/15/8
f 50/44/9 172/44/9 137/45/9 15/45/9
f 19/43/6 141/43/6 132/1/6 10/1/6
f 20/20/4 44/19/4 24/32/3 32/2/3
f 49/46/6 171/46/6 170/47/6 48/47/6
f 26/27/3 42/14/3 13/13/3 14/48/3
f 14/48/3 50/44/3 3/31/3 26/27/3
f 9/28/3 3/31/3 50/44/3 15/45/3
f 52/49/3 51/50/3 38/51/3 28/39/3
f 56/52/3 57/53/3 48/47/10 11/42/3
f 54/54/3 53/55/3 29/38/3 31/37/3
f 58/56/3 59/57/3 12/41/3 49/46/3
f 55/58/3 116/59/3 120/60/3 59/61/3
f 13/13/9 135/13/9 136/48/9 14/48/9
f 20/20/11 142/20/11 169/18/11 47/18/11
f 34/36/3 95/62/10 116/63/3 55/64/3
f 48/47/6 170/47/6 133/42/6 11/42/6
f 32/2/12 154/2/12 142/20/12 20/20/12
f 14/48/9 136/48/9 172/44/9 50/44/9
f 7/65/9 13/13/9 1/10/9 5/66/9
f 6/3/3 16/6/3 7/67/3 5/68/3
f 139/4/13 17/4/13 6/3/13 128/3/13
f 5/68/14 127/68/14 128/3/14 6/3/14
f 7/65/9 129/65/9 135/13/9 13/13/9
f 1/10/9 123/10/9 127/66/9 5/66/9
f 3/31/6 125/31/6 148/27/6 26/27/6
f 26/27/15 148/27/15 126/24/15 4/24/15
f 134/41/16 195/40/16 242/69/16 181/57/16
f 156/36/9 217/62/9 95/62/9 34/36/9
f 33/35/17 155/35/17 156/36/17 34/36/17
f 37/25/17 159/25/17 160/51/17 38/51/17
f 31/37/18 153/37/18 157/34/18 35/34/18
f 25/29/19 147/29/19 155/35/19 33/35/19
f 9/28/15 131/28/15 147/29/15 25/29/15
f 4/24/19 126/24/19 152/21/19 30/21/19
f 8/7/15 130/7/15 162/8/15 40/8/15
f 40/8/20 162/8/20 159/25/20 37/25/20
f 43/30/21 165/30/21 125/31/21 3/31/21
f 38/51/9 160/51/9 150/39/9 28/39/9
f 76/70/3 70/71/3 9/28/3 15/45/3
f 36/22/11 158/22/11 163/23/11 41/23/11
f 35/34/11 157/34/11 165/30/11 43/30/11
f 42/14/6 164/14/6 130/7/6 8/7/6
f 28/39/18 150/39/18 158/22/18 36/22/18
f 31/37/3 34/36/3 55/64/3 54/54/3
f 58/72/3 57/73/3 53/74/3 54/75/3
f 28/39/3 29/38/3 53/55/3 52/49/3
f 56/76/3 60/77/3 51/78/3 52/79/3
f 37/25/3 38/51/3 51/50/3 27/26/3
f 11/42/3 19/43/3 60/80/3 56/52/3
f 49/46/3 48/47/10 57/53/3 58/56/3
f 210/81/19 88/81/19 63/82/19 185/82/19
f 54/75/3 55/58/3 59/61/3 58/72/3
f 52/79/3 53/74/3 57/73/3 56/76/3
f 27/83/3 51/78/3 60/77/3 61/84/3
f 27/26/3 61/85/3 10/1/3 39/33/3
f 10/1/3 61/85/3 60/80/3 19/43/3
f 12/41/6 134/41/6 171/46/6 49/46/6
f 41/23/21 163/23/21 164/14/21 42/14/21
f 15/45/9 137/45/9 198/70/9 76/70/9
f 93/86/22 215/86/22 193/87/22 71/87/22
f 110/88/6 232/88/6 195/40/6 73/40/6
f 67/89/2 77/90/2 79/91/2 78/92/2
f 69/93/3 62/94/3 63/82/3 101/95/3
f 62/94/3 82/96/3 83/97/3 63/82/3
f 62/94/3 69/93/3 103/98/3 74/99/3
f 107/100/3 108/101/3 106/102/3 84/103/3
f 106/102/3 108/101/3 81/104/3 105/105/3
f 91/106/3 65/107/3 102/108/3 97/109/3
f 101/95/3 63/82/3 88/81/3 98/110/3
f 84/103/3 83/97/3 82/96/3 107/100/3
f 65/107/3 87/111/3 103/98/3 102/108/3
f 70/71/3 64/112/3 104/113/5 86/114/5
f 71/87/3 100/115/3 85/116/3 93/86/3
f 96/117/10 92/118/3 95/62/10 94/119/10
f 90/120/3 91/106/3 97/109/3 89/121/3
f 104/113/5 96/117/10 94/119/10 86/114/5
f 198/70/16 137/45/16 131/28/16 192/71/16
f 82/96/23 204/96/23 229/100/23 107/100/23
f 80/122/6 202/122/6 194/123/6 72/123/6
f 107/100/24 229/100/24 230/101/24 108/101/24
f 76/70/9 198/70/9 233/124/9 111/124/9
f 71/87/6 193/87/6 202/122/6 80/122/6
f 81/104/3 93/86/3 85/116/3 105/105/3
f 109/125/6 231/125/6 232/88/6 110/88/6
f 87/111/3 75/126/3 74/99/3 103/98/3
f 75/126/3 87/111/3 64/112/3 111/124/3
f 70/71/3 76/70/3 111/124/3 64/112/3
f 113/127/3 89/121/3 99/128/3 112/129/3
f 117/130/3 72/123/3 109/125/3 118/131/3
f 115/132/3 92/118/3 90/120/3 114/133/3
f 119/134/3 110/88/3 73/40/3 120/69/3
f 75/126/9 197/126/9 196/99/9 74/99/9
f 108/101/19 230/101/19 203/104/19 81/104/19
f 72/123/6 194/123/6 231/125/6 109/125/6
f 103/98/15 225/98/15 224/108/15 102/108/15
f 81/104/25 203/104/25 215/86/25 93/86/25
f 111/124/9 233/124/9 197/126/9 75/126/9
f 68/135/9 66/136/9 62/94/9 74/99/9
f 67/89/3 66/137/3 68/138/3 77/90/3
f 200/92/26 189/89/26 67/89/26 78/92/26
f 67/89/20 189/89/20 188/137/20 66/137/20
f 74/99/9 196/99/9 190/135/9 68/135/9
f 66/136/9 188/136/9 184/94/9 62/94/9
f 87/111/6 209/111/6 186/112/6 64/112/6
f 65/107/21 187/107/21 209/111/21 87/111/21
f 97/109/17 219/109/17 211/121/17 89/121/17
f 95/62/18 217/62/18 216/119/18 94/119/18
f 99/128/18 221/128/18 220/110/18 98/110/18
f 96/117/17 218/117/17 214/118/17 92/118/17
f 94/119/11 216/119/11 208/114/11 86/114/11
f 86/114/21 208/114/21 192/71/21 70/71/21
f 91/106/11 213/106/11 187/107/11 65/107/11
f 101/95/21 223/95/21 191/93/21 69/93/21
f 98/110/11 220/110/11 223/95/11 101/95/11
f 64/112/15 186/112/15 226/113/15 104/113/15
f 89/121/9 211/121/9 221/128/9 99/128/9
f 102/108/19 224/108/19 219/109/19 97/109/19
f 104/113/19 226/113/19 218/117/19 96/117/19
f 69/93/6 191/93/6 225/98/6 103/98/6
f 92/118/3 115/132/3 116/63/3 95/62/10
f 119/139/3 115/140/3 114/141/3 118/142/3
f 89/121/3 113/127/3 114/133/3 90/120/3
f 117/143/3 113/144/3 112/145/3 121/146/3
f 98/110/3 88/81/3 112/129/3 99/128/3
f 72/123/3 117/130/3 121/147/3 80/122/3
f 110/88/3 119/134/3 118/131/3 109/125/3
f 115/140/3 119/139/3 120/60/3 116/59/3
f 113/144/3 117/143/3 118/142/3 114/141/3
f 88/148/3 122/149/3 121/146/3 112/145/3
f 88/81/3 100/115/3 71/87/3 122/150/3
f 71/87/3 80/122/3 121/147/3 122/150/3
f 17/4/9 139/4/9 140/5/9 18/5/9
f 149/26/11 124/9/11 2/9/11 27/26/11
f 222/115/27 100/115/27 88/81/27 210/81/27
f 222/115/9 207/116/9 85/116/9 100/115/9
f 207/116/28 227/105/28 105/105/28 85/116/28
f 227/105/14 228/102/14 106/102/14 105/105/14
f 206/103/29 84/103/29 106/102/29 228/102/29
f 206/103/6 205/97/6 83/97/6 84/103/6
f 185/82/30 63/82/30 83/97/30 205/97/30
f 213/106/18 91/106/18 90/120/18 212/120/18
f 199/90/14 77/90/14 68/138/14 190/138/14
f 199/90/31 201/91/31 79/91/31 77/90/31
f 62/94/9 184/94/9 204/96/9 82/96/9
f 92/118/9 214/118/9 212/120/9 90/120/9
f 161/33/28 149/26/28 27/26/28 39/33/28
f 161/33/9 39/33/9 24/32/9 146/32/9
f 146/32/27 24/32/27 44/19/27 166/19/27
f 166/19/20 44/19/20 45/17/20 167/17/20
f 145/16/30 167/17/30 45/17/30 23/16/30
f 145/16/6 23/16/6 22/11/6 144/11/6
f 124/9/29 144/11/29 22/11/29 2/9/29
f 152/21/17 151/38/17 29/38/17 30/21/17
f 138/6/20 129/67/20 7/67/20 16/6/20
f 138/6/32 16/6/32 18/5/32 140/5/32
f 21/12/9 143/12/9 123/10/9 1/10/9
f 29/38/9 151/38/9 153/37/9 31/37/9
f 128/3/33 138/6/33 140/5/33 139/4/33
f 130/7/16 123/10/16 124/9/16 162/8/16
f 123/10/16 143/12/16 144/11/16 124/9/16
f 123/10/16 130/7/16 164/14/16 135/13/16
f 168/15/16 169/18/16 167/17/16 145/16/16
f 167/17/16 169/18/16 142/20/16 166/19/16
f 152/21/34 126/24/35 163/23/35 158/22/34
f 162/8/16 124/9/16 149/26/16 159/25/16
f 145/16/16 144/11/16 143/12/16 168/15/16
f 126/24/35 148/27/16 164/14/16 163/23/35
f 131/28/16 125/31/16 165/30/16 147/29/16
f 132/1/16 161/33/16 146/32/16 154/2/16
f 157/34/16 153/37/16 156/36/16 155/35/16
f 151/38/16 152/21/34 158/22/34 150/39/16
f 165/30/16 157/34/16 155/35/16 147/29/16
f 142/20/16 154/2/16 146/32/16 166/19/16
f 148/27/16 136/48/16 135/13/16 164/14/16
f 136/48/16 148/27/16 125/31/16 172/44/16
f 131/28/16 137/45/16 172/44/16 125/31/16
f 174/49/16 150/39/16 160/51/16 173/50/16
f 178/52/16 133/42/16 170/47/16 179/53/16
f 176/54/16 153/37/16 151/38/16 175/55/16
f 180/56/16 171/46/16 134/41/16 181/57/16
f 181/61/16 242/60/16 238/59/16 177/58/16
f 177/64/16 238/63/16 217/62/16 156/36/16
f 129/65/9 127/66/9 123/10/9 135/13/9
f 128/3/16 127/68/16 129/67/16 138/6/16
f 153/37/16 176/54/16 177/64/16 156/36/16
f 180/72/16 176/75/16 175/74/16 179/73/16
f 150/39/16 174/49/16 175/55/16 151/38/16
f 178/76/16 174/79/16 173/78/16 182/77/16
f 159/25/16 149/26/16 173/50/16 160/51/16
f 133/42/16 178/52/16 182/80/16 141/43/16
f 171/46/16 180/56/16 179/53/16 170/47/16
f 176/75/16 180/72/16 181/61/16 177/58/16
f 174/79/16 178/76/16 179/73/16 175/74/16
f 149/83/16 183/84/16 182/77/16 173/78/16
f 149/26/16 161/33/16 132/1/16 183/85/16
f 132/1/16 141/43/16 182/80/16 183/85/16
f 131/28/6 9/28/6 70/71/6 192/71/6
f 189/89/33 200/92/33 201/91/33 199/90/33
f 191/93/16 223/95/16 185/82/16 184/94/16
f 184/94/16 185/82/16 205/97/16 204/96/16
f 184/94/16 196/99/16 225/98/16 191/93/16
f 229/100/16 206/103/16 228/102/36 230/101/16
f 228/102/36 227/105/36 203/104/36 230/101/16
f 213/106/34 219/109/34 224/108/35 187/107/35
f 223/95/16 220/110/16 210/81/16 185/82/16
f 206/103/16 229/100/16 204/96/16 205/97/16
f 187/107/35 224/108/35 225/98/16 209/111/16
f 192/71/16 208/114/16 226/113/16 186/112/16
f 193/87/16 215/86/16 207/116/16 222/115/16
f 218/117/16 216/119/16 217/62/16 214/118/16
f 212/120/16 211/121/16 219/109/34 213/106/34
f 226/113/16 208/114/16 216/119/16 218/117/16
f 203/104/36 227/105/36 207/116/16 215/86/16
f 209/111/16 225/98/16 196/99/16 197/126/16
f 197/126/16 233/124/16 186/112/16 209/111/16
f 192/71/16 186/112/16 233/124/16 198/70/16
f 235/127/16 234/129/16 221/128/36 211/121/16
f 239/130/16 240/131/16 231/125/16 194/123/16
f 237/132/16 236/133/16 212/120/16 214/118/16
f 241/134/16 242/69/16 195/40/16 232/88/16
f 190/135/9 196/99/9 184/94/9 188/136/9
f 189/89/16 199/90/16 190/138/16 188/137/16
f 214/118/16 217/62/16 238/63/16 237/132/16
f 241/139/16 240/142/16 236/141/16 237/140/16
f 211/121/16 212/120/16 236/133/16 235/127/16
f 239/143/16 243/146/16 234/145/16 235/144/16
f 220/110/16 221/128/36 234/129/16 210/81/16
f 194/123/16 202/122/16 243/147/16 239/130/16
f 232/88/16 231/125/16 240/131/16 241/134/16
f 237/140/16 238/59/16 242/60/16 241/139/16
f 235/144/16 236/141/16 240/142/16 239/143/16
f 210/148/16 234/145/16 243/146/16 244/149/16
f 210/81/16 244/150/16 193/87/16 222/115/16
f 193/87/16 244/150/16 243/147/16 202/122/16
f 59/57/3 120/69/3 73/40/3 12/41/3
f 79/91/9 201/91/9 200/92/9 78/92/9
