# Blender 5.1.0
# www.blender.org
mtllib barriere55_011.mtl
o barriere55.011
v 26.809748 0.406541 -7.696997
v 26.747208 0.597165 -7.705957
v 27.387510 0.643225 -7.614212
v 27.236252 0.684292 -7.635886
v 26.851498 0.406541 -7.703233
v 26.851498 0.372824 -7.703233
v 27.006187 0.406541 -7.681067
v 26.959911 0.643225 -7.675481
v 27.687836 0.643225 -7.571180
v 26.577997 1.574801 -7.730204
v 27.011950 1.574798 -7.668025
v 27.618553 1.574798 -7.581108
v 27.011950 0.406541 -7.668025
v 27.214151 0.406541 -7.639051
v 27.618553 0.406541 -7.581108
v 27.006187 0.372824 -7.681067
v 26.792101 0.224800 -7.504385
v 27.009396 0.224800 -7.473251
v 26.747210 1.574798 -7.705957
v 26.445786 1.411592 -7.749146
v 26.690432 0.406541 -7.714094
v 26.659584 0.558040 -7.718513
v 26.595947 0.558040 -7.727631
v 26.595947 1.334635 -7.727631
v 27.600212 0.684292 -7.583735
v 27.323874 0.643225 -7.623331
v 26.747210 1.295510 -7.705957
v 27.023548 1.249446 -7.666363
v 27.323874 1.249446 -7.623331
v 27.236252 1.208380 -7.635886
v 27.387510 1.249447 -7.614212
v 26.488539 1.519064 -7.743021
v 27.600212 1.208381 -7.583735
v 27.687836 1.249447 -7.571180
v 27.475136 1.208381 -7.601656
v 27.111170 1.208380 -7.653808
v 26.872288 1.208380 -7.688035
v 26.959911 1.249449 -7.675481
v 26.659584 1.334635 -7.718513
v 26.872288 0.684292 -7.688035
v 27.111170 0.684292 -7.653808
v 27.023548 0.643225 -7.666363
v 27.475136 0.684292 -7.601656
v 26.508326 1.295507 -7.740187
v 26.508326 0.597165 -7.740187
v 26.538656 0.442266 -7.735841
v 26.445786 0.546411 -7.749146
v 27.214151 1.574798 -7.639051
v 27.416353 1.574798 -7.610080
v 27.416353 0.406541 -7.610080
v 26.938652 1.295510 -7.678526
v 27.021906 1.295510 -7.666598
v 27.308338 1.295510 -7.625556
v 27.391594 1.295511 -7.613626
v 27.678026 1.295511 -7.572586
v 27.014091 1.514729 -7.667717
v 27.234407 1.514729 -7.636149
v 27.411028 1.514729 -7.610843
v 27.631346 1.514729 -7.579275
v 26.788383 1.514730 -7.700058
v 26.747210 1.514730 -7.705957
v 28.629112 0.406541 -7.436310
v 28.691650 0.597165 -7.427349
v 28.051350 0.643225 -7.519094
v 28.202608 0.684292 -7.497421
v 28.590794 0.406541 -7.454018
v 28.590794 0.372824 -7.454018
v 28.436102 0.406541 -7.476182
v 28.478949 0.643225 -7.457826
v 27.751024 0.643225 -7.562127
v 28.860863 1.574802 -7.403102
v 28.426910 1.574798 -7.465281
v 27.820305 1.574798 -7.552198
v 28.426910 0.406541 -7.465281
v 28.224709 0.406541 -7.494254
v 27.820305 0.406541 -7.552198
v 28.436102 0.372824 -7.476182
v 28.591963 0.224800 -7.246493
v 28.374666 0.224800 -7.277627
v 28.691650 1.574798 -7.427349
v 28.993074 1.411592 -7.384159
v 28.748428 0.406541 -7.419213
v 28.779274 0.558040 -7.414793
v 28.842911 0.558040 -7.405674
v 28.842911 1.334635 -7.405674
v 27.838648 0.684292 -7.549571
v 28.114986 0.643225 -7.509975
v 28.691650 1.295511 -7.427349
v 28.415312 1.249447 -7.466944
v 28.114986 1.249447 -7.509975
v 28.202608 1.208381 -7.497421
v 28.051350 1.249447 -7.519094
v 28.950321 1.519065 -7.390285
v 27.838648 1.208381 -7.549571
v 27.751024 1.249447 -7.562127
v 27.963724 1.208381 -7.531649
v 28.327688 1.208381 -7.479499
v 28.566570 1.208381 -7.445271
v 28.478949 1.249449 -7.457826
v 28.779274 1.334635 -7.414793
v 28.566570 0.684292 -7.445271
v 28.327688 0.684292 -7.479499
v 28.415312 0.643225 -7.466944
v 27.963724 0.684292 -7.531649
v 28.930534 1.295508 -7.393120
v 28.930534 0.597165 -7.393120
v 28.900204 0.442266 -7.397466
v 28.993074 0.546411 -7.384159
v 28.224709 1.574798 -7.494254
v 28.022507 1.574798 -7.523227
v 28.022507 0.406541 -7.523227
v 28.500208 1.295511 -7.454780
v 28.416954 1.295511 -7.466709
v 28.130522 1.295511 -7.507750
v 28.047266 1.295511 -7.519679
v 27.760834 1.295511 -7.560720
v 28.424768 1.514729 -7.465589
v 28.204451 1.514729 -7.497157
v 28.027832 1.514729 -7.522464
v 27.807514 1.514729 -7.554032
v 28.650475 1.514731 -7.433248
v 28.691650 1.514731 -7.427349
v 26.822575 0.406541 -7.786521
v 26.760036 0.597165 -7.795483
v 27.400337 0.643225 -7.703737
v 27.249079 0.684292 -7.725410
v 26.860893 0.406541 -7.768813
v 26.860893 0.372824 -7.768813
v 27.015585 0.406541 -7.746649
v 26.972738 0.643225 -7.765006
v 27.700663 0.643225 -7.660705
v 26.590824 1.574801 -7.819729
v 27.024776 1.574798 -7.757550
v 27.631382 1.574798 -7.670631
v 27.024776 0.406541 -7.757549
v 27.226978 0.406541 -7.728577
v 27.631382 0.406541 -7.670631
v 27.015585 0.372824 -7.746649
v 26.859724 0.224800 -7.976339
v 27.077021 0.224800 -7.945203
v 26.760036 1.574798 -7.795483
v 26.458612 1.411592 -7.838673
v 26.703259 0.406541 -7.803617
v 26.672413 0.558040 -7.808038
v 26.608776 0.558040 -7.817156
v 26.608776 1.334635 -7.817156
v 27.613039 0.684292 -7.673260
v 27.336700 0.643225 -7.712856
v 26.760036 1.295510 -7.795483
v 27.036375 1.249446 -7.755887
v 27.336700 1.249446 -7.712856
v 27.249079 1.208380 -7.725410
v 27.400337 1.249446 -7.703737
v 26.501366 1.519064 -7.832547
v 27.613039 1.208380 -7.673261
v 27.700663 1.249446 -7.660705
v 27.487963 1.208380 -7.691182
v 27.123999 1.208380 -7.743333
v 26.885117 1.208380 -7.777561
v 26.972738 1.249449 -7.765006
v 26.672413 1.334635 -7.808038
v 26.885117 0.684292 -7.777561
v 27.123999 0.684292 -7.743333
v 27.036375 0.643225 -7.755887
v 27.487963 0.684292 -7.691182
v 26.521152 1.295507 -7.829710
v 26.521152 0.597165 -7.829710
v 26.551483 0.442266 -7.825365
v 26.458612 0.546411 -7.838672
v 27.226978 1.574798 -7.728577
v 27.429180 1.574798 -7.699605
v 27.429180 0.406541 -7.699604
v 26.951479 1.295510 -7.768052
v 27.034733 1.295510 -7.756123
v 27.321165 1.295510 -7.715082
v 27.404421 1.295510 -7.703152
v 27.690853 1.295510 -7.662111
v 27.026918 1.514729 -7.757243
v 27.247236 1.514729 -7.725675
v 27.423855 1.514729 -7.700367
v 27.644173 1.514729 -7.668798
v 26.801212 1.514730 -7.789583
v 26.760036 1.514730 -7.795483
v 28.641939 0.406541 -7.525834
v 28.704479 0.597165 -7.516872
v 28.064177 0.643225 -7.608619
v 28.215435 0.684292 -7.586946
v 28.600189 0.406541 -7.519598
v 28.600189 0.372824 -7.519598
v 28.445499 0.406541 -7.541763
v 28.491776 0.643225 -7.547349
v 27.763851 0.643225 -7.651650
v 28.873690 1.574802 -7.492628
v 28.439737 1.574798 -7.554807
v 27.833134 1.574798 -7.641724
v 28.439737 0.406541 -7.554807
v 28.237535 0.406541 -7.583779
v 27.833134 0.406541 -7.641724
v 28.445499 0.372824 -7.541763
v 28.659586 0.224800 -7.718445
v 28.442291 0.224800 -7.749581
v 28.704477 1.574798 -7.516874
v 29.005901 1.411592 -7.473684
v 28.761255 0.406541 -7.508738
v 28.792103 0.558040 -7.504318
v 28.855740 0.558040 -7.495200
v 28.855740 1.334635 -7.495200
v 27.851475 0.684292 -7.639096
v 28.127813 0.643225 -7.599501
v 28.704477 1.295511 -7.516874
v 28.428139 1.249447 -7.556468
v 28.127813 1.249447 -7.599501
v 28.215435 1.208381 -7.586946
v 28.064177 1.249447 -7.608619
v 28.963148 1.519065 -7.479810
v 27.851475 1.208380 -7.639096
v 27.763851 1.249446 -7.651650
v 27.976551 1.208380 -7.621175
v 28.340517 1.208381 -7.569024
v 28.579399 1.208381 -7.534796
v 28.491776 1.249449 -7.547350
v 28.792103 1.334635 -7.504319
v 28.579399 0.684292 -7.534796
v 28.340517 0.684292 -7.569024
v 28.428139 0.643225 -7.556468
v 27.976551 0.684292 -7.621174
v 28.943361 1.295508 -7.482645
v 28.943361 0.597165 -7.482645
v 28.913031 0.442266 -7.486990
v 29.005901 0.546411 -7.473684
v 28.237535 1.574798 -7.583779
v 28.035334 1.574798 -7.612751
v 28.035334 0.406541 -7.612751
v 28.513035 1.295511 -7.544303
v 28.429781 1.295511 -7.556233
v 28.143349 1.295511 -7.597275
v 28.060093 1.295511 -7.609204
v 27.773661 1.295510 -7.650246
v 28.437595 1.514729 -7.555114
v 28.217279 1.514729 -7.586682
v 28.040659 1.514729 -7.611989
v 27.820341 1.514729 -7.643557
v 28.663303 1.514731 -7.522774
v 28.704477 1.514731 -7.516874
vn -0.5196 0.8511 -0.0745
vn -0.0830 0.8111 0.5790
vn -0.1418 -0.0000 0.9899
vn -0.0000 1.0000 -0.0000
vn -0.2246 -0.9739 -0.0322
vn -0.7355 -0.6693 -0.1054
vn -0.0000 -1.0000 -0.0000
vn -0.9899 -0.0000 -0.1418
vn -0.9185 0.3729 -0.1316
vn -0.9694 0.2024 -0.1389
vn 0.4166 0.9071 0.0597
vn 0.1418 -0.0000 -0.9899
vn 0.4166 -0.9071 0.0597
vn -0.4166 -0.9071 -0.0597
vn 0.9899 -0.0000 0.1418
vn -0.4166 0.9071 -0.0597
vn 0.5196 0.8511 0.0745
vn 0.2246 -0.9739 0.0322
vn 0.7355 -0.6693 0.1054
vn 0.9185 0.3729 0.1316
vn 0.9694 0.2024 0.1389
vn 0.9899 -0.0000 0.1419
vn 0.4002 -0.9146 0.0573
vn -0.4002 -0.9146 -0.0573
vn -0.4002 0.9146 -0.0573
vn 0.4002 0.9146 0.0573
vn -0.9667 0.2154 -0.1385
vn 0.9667 0.2154 0.1385
vn 0.0830 0.8111 -0.5790
vt 0.563424 0.076340
vt 0.553130 0.073518
vt 0.930572 0.423953
vt 0.921307 0.379121
vt 0.987792 0.379121
vt 0.977903 0.423953
vt 0.607372 0.029178
vt 0.597289 0.031257
vt 0.582896 0.026846
vt 0.590093 0.017196
vt 0.572813 0.024865
vt 0.576362 0.017196
vt 0.613360 0.017196
vt 0.614695 0.029178
vt 0.558897 0.019004
vt 0.565490 0.024865
vt 0.555407 0.026846
vt 0.548211 0.024277
vt 0.555407 0.062200
vt 0.548211 0.068077
vt 0.639171 0.057790
vt 0.624778 0.057790
vt 0.624778 0.031257
vt 0.639171 0.031257
vt 0.597289 0.057790
vt 0.582896 0.062201
vt 0.649254 0.029178
vt 0.691136 0.029178
vt 0.681053 0.031257
vt 0.666660 0.031257
vt 0.656577 0.029178
vt 0.565490 0.064181
vt 0.572813 0.064181
vt 0.666660 0.057790
vt 0.681053 0.057790
vt 0.691136 0.059869
vt 0.656577 0.059869
vt 0.649254 0.059869
vt 0.614695 0.059869
vt 0.706379 0.076340
vt 0.683164 0.076340
vt 0.613360 0.076340
vt 0.582896 0.076340
vt 0.659896 0.017196
vt 0.683164 0.017196
vt 0.659896 0.076340
vt 0.636628 0.076340
vt 0.636628 0.017196
vt 0.614506 0.062201
vt 0.604926 0.062201
vt 0.607372 0.059869
vt 0.613607 0.073299
vt 0.638959 0.073299
vt 0.657047 0.062201
vt 0.647466 0.062201
vt 0.659283 0.073299
vt 0.684635 0.073299
vt 0.688839 0.081258
vt 0.699816 0.081258
vt 0.706005 0.126709
vt 0.682651 0.126709
vt 0.698407 0.059869
vt 0.699536 0.062201
vt 0.690007 0.062201
vt 0.612500 0.017196
vt 0.594699 0.017196
vt 0.977903 0.434165
vt 0.930572 0.434165
vt 0.704907 0.073299
vt 0.706379 0.017196
vt 0.698407 0.029178
vt 0.653445 0.126709
vt 0.630032 0.126709
vt 0.639832 0.081258
vt 0.650869 0.081258
vt 0.600826 0.126709
vt 0.570905 0.126710
vt 0.590825 0.081258
vt 0.601862 0.081258
vt 0.587634 0.073299
vt 0.806647 0.062201
vt 0.806647 0.026846
vt 0.565447 0.081258
vt 0.565447 0.126710
vt 0.582896 0.073299
vt 0.836413 0.073518
vt 0.826118 0.076340
vt 0.729647 0.076340
vt 0.978547 0.423953
vt 0.931216 0.423953
vt 0.921327 0.379121
vt 0.987812 0.379121
vt 0.782171 0.029178
vt 0.799450 0.017196
vt 0.792254 0.031257
vt 0.813181 0.017196
vt 0.816730 0.024865
vt 0.774848 0.029178
vt 0.776183 0.017196
vt 0.830646 0.019004
vt 0.841332 0.024277
vt 0.834136 0.026846
vt 0.824053 0.024865
vt 0.841332 0.068077
vt 0.834136 0.062200
vt 0.750372 0.057790
vt 0.750372 0.031257
vt 0.764765 0.031257
vt 0.764765 0.057790
vt 0.792254 0.057790
vt 0.740289 0.029178
vt 0.732966 0.029178
vt 0.722883 0.031257
vt 0.708490 0.031257
vt 0.816730 0.064181
vt 0.824053 0.064181
vt 0.722883 0.057790
vt 0.732966 0.059869
vt 0.708490 0.057790
vt 0.740289 0.059869
vt 0.774848 0.059869
vt 0.806647 0.076340
vt 0.776183 0.076340
vt 0.729647 0.017196
vt 0.752915 0.076340
vt 0.752915 0.017196
vt 0.775037 0.062201
vt 0.782171 0.059869
vt 0.784617 0.062201
vt 0.775936 0.073299
vt 0.750584 0.073299
vt 0.732496 0.062201
vt 0.742077 0.062201
vt 0.730260 0.073299
vt 0.777043 0.017196
vt 0.794844 0.017196
vt 0.978547 0.434165
vt 0.931216 0.434165
vt 0.735211 0.126709
vt 0.737787 0.081258
vt 0.748824 0.081258
vt 0.758624 0.126709
vt 0.787830 0.126709
vt 0.786794 0.081258
vt 0.797831 0.081258
vt 0.817751 0.126710
vt 0.801909 0.073299
vt 0.823209 0.081258
vt 0.823209 0.126710
vt 0.806647 0.073299
s 1
usemtl initialShadingGroup.004
f 10/1/1 132/1/1 154/2/1 32/2/1
f 6/3/2 17/4/2 18/5/2 16/6/2
f 8/7/3 40/8/3 2/9/3 1/10/3
f 1/10/3 2/9/3 22/11/3 21/12/3
f 1/10/3 13/13/3 42/14/3 8/7/3
f 46/15/3 23/16/3 45/17/3 47/18/3
f 45/17/3 44/19/3 20/20/3 47/18/3
f 30/21/3 36/22/3 41/23/3 4/24/3
f 40/8/3 37/25/3 27/26/3 2/9/3
f 23/16/3 46/15/3 21/12/3 22/11/3
f 4/24/3 41/23/3 42/14/3 26/27/3
f 9/28/3 25/29/3 43/30/3 3/31/3
f 10/1/3 32/2/3 24/32/3 39/33/3
f 35/34/3 33/35/3 34/36/3 31/37/3
f 29/38/3 28/39/3 36/22/3 30/21/3
f 43/30/3 25/29/3 33/35/3 35/34/3
f 73/40/4 195/40/4 134/41/4 12/41/4
f 46/15/5 168/15/5 143/12/5 21/12/5
f 11/42/4 133/42/4 141/43/4 19/43/4
f 47/18/6 169/18/6 168/15/6 46/15/6
f 50/44/7 172/44/7 137/45/7 15/45/7
f 19/43/4 141/43/4 132/1/4 10/1/4
f 20/20/3 44/19/3 24/32/3 32/2/3
f 49/46/4 171/46/4 170/47/4 48/47/4
f 26/27/3 42/14/3 13/13/3 14/48/3
f 14/48/3 50/44/3 3/31/3 26/27/3
f 9/28/3 3/31/3 50/44/3 15/45/3
f 52/49/3 51/50/3 38/51/3 28/39/3
f 56/52/3 57/53/3 48/47/3 11/42/3
f 54/54/3 53/55/3 29/38/3 31/37/3
f 58/56/3 59/57/3 12/41/3 49/46/3
f 55/58/3 116/59/3 120/60/3 59/61/3
f 13/13/7 135/13/7 136/48/7 14/48/7
f 20/20/8 142/20/8 169/18/8 47/18/8
f 34/36/3 95/62/3 116/63/3 55/64/3
f 48/47/4 170/47/4 133/42/4 11/42/4
f 32/2/9 154/2/9 142/20/9 20/20/9
f 14/48/7 136/48/7 172/44/7 50/44/7
f 7/65/7 13/13/7 1/10/7 5/66/7
f 6/3/3 16/6/3 7/67/3 5/68/3
f 139/4/10 17/4/10 6/3/10 128/3/10
f 5/68/8 127/68/8 128/3/8 6/3/8
f 7/65/7 129/65/7 135/13/7 13/13/7
f 1/10/7 123/10/7 127/66/7 5/66/7
f 3/31/4 125/31/4 148/27/4 26/27/4
f 26/27/11 148/27/11 126/24/11 4/24/11
f 134/41/12 195/40/12 242/69/12 181/57/12
f 156/36/7 217/62/7 95/62/7 34/36/7
f 33/35/13 155/35/13 156/36/13 34/36/13
f 37/25/13 159/25/13 160/51/13 38/51/13
f 31/37/14 153/37/14 157/34/14 35/34/14
f 25/29/15 147/29/15 155/35/15 33/35/15
f 9/28/11 131/28/11 147/29/11 25/29/11
f 4/24/15 126/24/15 152/21/15 30/21/15
f 8/7/11 130/7/11 162/8/11 40/8/11
f 40/8/15 162/8/15 159/25/15 37/25/15
f 43/30/16 165/30/16 125/31/16 3/31/16
f 38/51/7 160/51/7 150/39/7 28/39/7
f 76/70/3 70/71/3 9/28/3 15/45/3
f 36/22/8 158/22/8 163/23/8 41/23/8
f 35/34/8 157/34/8 165/30/8 43/30/8
f 42/14/4 164/14/4 130/7/4 8/7/4
f 28/39/14 150/39/14 158/22/14 36/22/14
f 31/37/3 34/36/3 55/64/3 54/54/3
f 58/72/3 57/73/3 53/74/3 54/75/3
f 28/39/3 29/38/3 53/55/3 52/49/3
f 56/76/3 60/77/3 51/78/3 52/79/3
f 37/25/3 38/51/3 51/50/3 27/26/3
f 11/42/3 19/43/3 60/80/3 56/52/3
f 49/46/3 48/47/3 57/53/3 58/56/3
f 210/81/15 88/81/15 63/82/15 185/82/15
f 54/75/3 55/58/3 59/61/3 58/72/3
f 52/79/3 53/74/3 57/73/3 56/76/3
f 27/83/3 51/78/3 60/77/3 61/84/3
f 27/26/3 61/85/3 10/1/3 39/33/3
f 10/1/3 61/85/3 60/80/3 19/43/3
f 12/41/4 134/41/4 171/46/4 49/46/4
f 41/23/16 163/23/16 164/14/16 42/14/16
f 15/45/7 137/45/7 198/70/7 76/70/7
f 93/86/17 215/86/17 193/87/17 71/87/17
f 110/88/4 232/88/4 195/40/4 73/40/4
f 67/89/2 77/90/2 79/91/2 78/92/2
f 69/93/3 62/94/3 63/82/3 101/95/3
f 62/94/3 82/96/3 83/97/3 63/82/3
f 62/94/3 69/93/3 103/98/3 74/99/3
f 107/100/3 108/101/3 106/102/3 84/103/3
f 106/102/3 108/101/3 81/104/3 105/105/3
f 91/106/3 65/107/3 102/108/3 97/109/3
f 101/95/3 63/82/3 88/81/3 98/110/3
f 84/103/3 83/97/3 82/96/3 107/100/3
f 65/107/3 87/111/3 103/98/3 102/108/3
f 70/71/3 64/112/3 104/113/3 86/114/3
f 71/87/3 100/115/3 85/116/3 93/86/3
f 96/117/3 92/118/3 95/62/3 94/119/3
f 90/120/3 91/106/3 97/109/3 89/121/3
f 104/113/3 96/117/3 94/119/3 86/114/3
f 198/70/12 137/45/12 131/28/12 192/71/12
f 82/96/18 204/96/18 229/100/18 107/100/18
f 80/122/4 202/122/4 194/123/4 72/123/4
f 107/100/19 229/100/19 230/101/19 108/101/19
f 76/70/7 198/70/7 233/124/7 111/124/7
f 71/87/4 193/87/4 202/122/4 80/122/4
f 81/104/3 93/86/3 85/116/3 105/105/3
f 109/125/4 231/125/4 232/88/4 110/88/4
f 87/111/3 75/126/3 74/99/3 103/98/3
f 75/126/3 87/111/3 64/112/3 111/124/3
f 70/71/3 76/70/3 111/124/3 64/112/3
f 113/127/3 89/121/3 99/128/3 112/129/3
f 117/130/3 72/123/3 109/125/3 118/131/3
f 115/132/3 92/118/3 90/120/3 114/133/3
f 119/134/3 110/88/3 73/40/3 120/69/3
f 75/126/7 197/126/7 196/99/7 74/99/7
f 108/101/15 230/101/15 203/104/15 81/104/15
f 72/123/4 194/123/4 231/125/4 109/125/4
f 103/98/11 225/98/11 224/108/11 102/108/11
f 81/104/20 203/104/20 215/86/20 93/86/20
f 111/124/7 233/124/7 197/126/7 75/126/7
f 68/135/7 66/136/7 62/94/7 74/99/7
f 67/89/3 66/137/3 68/138/3 77/90/3
f 200/92/21 189/89/21 67/89/21 78/92/21
f 67/89/15 189/89/15 188/137/15 66/137/15
f 74/99/7 196/99/7 190/135/7 68/135/7
f 66/136/7 188/136/7 184/94/7 62/94/7
f 87/111/4 209/111/4 186/112/4 64/112/4
f 65/107/16 187/107/16 209/111/16 87/111/16
f 97/109/13 219/109/13 211/121/13 89/121/13
f 95/62/14 217/62/14 216/119/14 94/119/14
f 99/128/14 221/128/14 220/110/14 98/110/14
f 96/117/13 218/117/13 214/118/13 92/118/13
f 94/119/8 216/119/8 208/114/8 86/114/8
f 86/114/16 208/114/16 192/71/16 70/71/16
f 91/106/8 213/106/8 187/107/8 65/107/8
f 101/95/16 223/95/16 191/93/16 69/93/16
f 98/110/8 220/110/8 223/95/8 101/95/8
f 64/112/11 186/112/11 226/113/11 104/113/11
f 89/121/7 211/121/7 221/128/7 99/128/7
f 102/108/22 224/108/22 219/109/22 97/109/22
f 104/113/15 226/113/15 218/117/15 96/117/15
f 69/93/4 191/93/4 225/98/4 103/98/4
f 92/118/3 115/132/3 116/63/3 95/62/3
f 119/139/3 115/140/3 114/141/3 118/142/3
f 89/121/3 113/127/3 114/133/3 90/120/3
f 117/143/3 113/144/3 112/145/3 121/146/3
f 98/110/3 88/81/3 112/129/3 99/128/3
f 72/123/3 117/130/3 121/147/3 80/122/3
f 110/88/3 119/134/3 118/131/3 109/125/3
f 115/140/3 119/139/3 120/60/3 116/59/3
f 113/144/3 117/143/3 118/142/3 114/141/3
f 88/148/3 122/149/3 121/146/3 112/145/3
f 88/81/3 100/115/3 71/87/3 122/150/3
f 71/87/3 80/122/3 121/147/3 122/150/3
f 17/4/7 139/4/7 140/5/7 18/5/7
f 149/26/8 124/9/8 2/9/8 27/26/8
f 222/115/23 100/115/23 88/81/23 210/81/23
f 222/115/7 207/116/7 85/116/7 100/115/7
f 207/116/24 227/105/24 105/105/24 85/116/24
f 227/105/8 228/102/8 106/102/8 105/105/8
f 206/103/25 84/103/25 106/102/25 228/102/25
f 206/103/4 205/97/4 83/97/4 84/103/4
f 185/82/26 63/82/26 83/97/26 205/97/26
f 213/106/14 91/106/14 90/120/14 212/120/14
f 199/90/8 77/90/8 68/138/8 190/138/8
f 199/90/27 201/91/27 79/91/27 77/90/27
f 62/94/7 184/94/7 204/96/7 82/96/7
f 92/118/7 214/118/7 212/120/7 90/120/7
f 161/33/24 149/26/24 27/26/24 39/33/24
f 161/33/7 39/33/7 24/32/7 146/32/7
f 146/32/23 24/32/23 44/19/23 166/19/23
f 166/19/15 44/19/15 45/17/15 167/17/15
f 145/16/26 167/17/26 45/17/26 23/16/26
f 145/16/4 23/16/4 22/11/4 144/11/4
f 124/9/25 144/11/25 22/11/25 2/9/25
f 152/21/13 151/38/13 29/38/13 30/21/13
f 138/6/15 129/67/15 7/67/15 16/6/15
f 138/6/28 16/6/28 18/5/28 140/5/28
f 21/12/7 143/12/7 123/10/7 1/10/7
f 29/38/7 151/38/7 153/37/7 31/37/7
f 128/3/29 138/6/29 140/5/29 139/4/29
f 130/7/12 123/10/12 124/9/12 162/8/12
f 123/10/12 143/12/12 144/11/12 124/9/12
f 123/10/12 130/7/12 164/14/12 135/13/12
f 168/15/12 169/18/12 167/17/12 145/16/12
f 167/17/12 169/18/12 142/20/12 166/19/12
f 152/21/12 126/24/12 163/23/12 158/22/12
f 162/8/12 124/9/12 149/26/12 159/25/12
f 145/16/12 144/11/12 143/12/12 168/15/12
f 126/24/12 148/27/12 164/14/12 163/23/12
f 131/28/12 125/31/12 165/30/12 147/29/12
f 132/1/12 161/33/12 146/32/12 154/2/12
f 157/34/12 153/37/12 156/36/12 155/35/12
f 151/38/12 152/21/12 158/22/12 150/39/12
f 165/30/12 157/34/12 155/35/12 147/29/12
f 142/20/12 154/2/12 146/32/12 166/19/12
f 148/27/12 136/48/12 135/13/12 164/14/12
f 136/48/12 148/27/12 125/31/12 172/44/12
f 131/28/12 137/45/12 172/44/12 125/31/12
f 174/49/12 150/39/12 160/51/12 173/50/12
f 178/52/12 133/42/12 170/47/12 179/53/12
f 176/54/12 153/37/12 151/38/12 175/55/12
f 180/56/12 171/46/12 134/41/12 181/57/12
f 181/61/12 242/60/12 238/59/12 177/58/12
f 177/64/12 238/63/12 217/62/12 156/36/12
f 129/65/7 127/66/7 123/10/7 135/13/7
f 128/3/12 127/68/12 129/67/12 138/6/12
f 153/37/12 176/54/12 177/64/12 156/36/12
f 180/72/12 176/75/12 175/74/12 179/73/12
f 150/39/12 174/49/12 175/55/12 151/38/12
f 178/76/12 174/79/12 173/78/12 182/77/12
f 159/25/12 149/26/12 173/50/12 160/51/12
f 133/42/12 178/52/12 182/80/12 141/43/12
f 171/46/12 180/56/12 179/53/12 170/47/12
f 176/75/12 180/72/12 181/61/12 177/58/12
f 174/79/12 178/76/12 179/73/12 175/74/12
f 149/83/12 183/84/12 182/77/12 173/78/12
f 149/26/12 161/33/12 132/1/12 183/85/12
f 132/1/12 141/43/12 182/80/12 183/85/12
f 131/28/4 9/28/4 70/71/4 192/71/4
f 189/89/29 200/92/29 201/91/29 199/90/29
f 191/93/12 223/95/12 185/82/12 184/94/12
f 184/94/12 185/82/12 205/97/12 204/96/12
f 184/94/12 196/99/12 225/98/12 191/93/12
f 229/100/12 206/103/12 228/102/12 230/101/12
f 228/102/12 227/105/12 203/104/12 230/101/12
f 213/106/12 219/109/12 224/108/12 187/107/12
f 223/95/12 220/110/12 210/81/12 185/82/12
f 206/103/12 229/100/12 204/96/12 205/97/12
f 187/107/12 224/108/12 225/98/12 209/111/12
f 192/71/12 208/114/12 226/113/12 186/112/12
f 193/87/12 215/86/12 207/116/12 222/115/12
f 218/117/12 216/119/12 217/62/12 214/118/12
f 212/120/12 211/121/12 219/109/12 213/106/12
f 226/113/12 208/114/12 216/119/12 218/117/12
f 203/104/12 227/105/12 207/116/12 215/86/12
f 209/111/12 225/98/12 196/99/12 197/126/12
f 197/126/12 233/124/12 186/112/12 209/111/12
f 192/71/12 186/112/12 233/124/12 198/70/12
f 235/127/12 234/129/12 221/128/12 211/121/12
f 239/130/12 240/131/12 231/125/12 194/123/12
f 237/132/12 236/133/12 212/120/12 214/118/12
f 241/134/12 242/69/12 195/40/12 232/88/12
f 190/135/7 196/99/7 184/94/7 188/136/7
f 189/89/12 199/90/12 190/138/12 188/137/12
f 214/118/12 217/62/12 238/63/12 237/132/12
f 241/139/12 240/142/12 236/141/12 237/140/12
f 211/121/12 212/120/12 236/133/12 235/127/12
f 239/143/12 243/146/12 234/145/12 235/144/12
f 220/110/12 221/128/12 234/129/12 210/81/12
f 194/123/12 202/122/12 243/147/12 239/130/12
f 232/88/12 231/125/12 240/131/12 241/134/12
f 237/140/12 238/59/12 242/60/12 241/139/12
f 235/144/12 236/141/12 240/142/12 239/143/12
f 210/148/12 234/145/12 243/146/12 244/149/12
f 210/81/12 244/150/12 193/87/12 222/115/12
f 193/87/12 244/150/12 243/147/12 202/122/12
f 59/57/3 120/69/3 73/40/3 12/41/3
f 79/91/7 201/91/7 200/92/7 78/92/7
