# Blender 5.1.0
# www.blender.org
mtllib barriere55_076.mtl
o barriere55.076
v 73.206268 0.406544 30.415398
v 73.231087 0.597168 30.473497
v 72.977005 0.643228 29.878649
v 73.037025 0.684295 30.019169
v 73.179260 0.406544 30.382957
v 73.179260 0.372827 30.382957
v 73.117882 0.406544 30.239246
v 73.146683 0.643228 30.275894
v 72.857834 0.643228 29.599642
v 73.298233 1.574804 30.630697
v 73.126038 1.574801 30.227551
v 72.885323 1.574801 29.664005
v 73.126038 0.406544 30.227551
v 73.045799 0.406544 30.039701
v 72.885323 0.406544 29.664005
v 73.117882 0.372827 30.239246
v 73.380043 0.224803 30.330463
v 73.293816 0.224803 30.128592
v 73.231087 1.574801 30.473497
v 73.350700 1.411595 30.753525
v 73.253616 0.406544 30.526245
v 73.265862 0.558043 30.554901
v 73.291115 0.558043 30.614021
v 73.291115 1.334638 30.614021
v 72.892601 0.684295 29.681046
v 73.002258 0.643228 29.937769
v 73.231087 1.295513 30.473497
v 73.121429 1.249449 30.216774
v 73.002258 1.249449 29.937769
v 73.037025 1.208383 30.019169
v 72.977005 1.249449 29.878649
v 73.333733 1.519067 30.713806
v 72.892601 1.208383 29.681046
v 72.857834 1.249449 29.599642
v 72.942238 1.208383 29.797243
v 73.086662 1.208383 30.135372
v 73.181458 1.208383 30.357296
v 73.146683 1.249452 30.275894
v 73.265862 1.334638 30.554901
v 73.181458 0.684295 30.357296
v 73.086662 0.684295 30.135372
v 73.121429 0.643228 30.216774
v 72.942238 0.684295 29.797243
v 73.325882 1.295510 30.695423
v 73.325882 0.597168 30.695423
v 73.313843 0.442269 30.667246
v 73.350700 0.546414 30.753525
v 73.045799 1.574801 30.039701
v 72.965561 1.574801 29.851854
v 72.965561 0.406544 29.851854
v 73.155121 1.295513 30.295645
v 73.122086 1.295513 30.218300
v 73.008423 1.295513 29.952200
v 72.975388 1.295513 29.874855
v 72.861725 1.295513 29.608755
v 73.125183 1.514732 30.225561
v 73.037758 1.514732 30.020882
v 72.967674 1.514732 29.856800
v 72.880249 1.514732 29.652122
v 73.214752 1.514733 30.435246
v 73.231087 1.514733 30.473497
v 72.484322 0.406544 28.725183
v 72.459503 0.597168 28.667082
v 72.713585 0.643228 29.261932
v 72.653564 0.684295 29.121410
v 72.489082 0.406544 28.767126
v 72.489082 0.372827 28.767126
v 72.550468 0.406544 28.910835
v 72.543907 0.643228 28.864687
v 72.832756 0.643228 29.540939
v 72.392357 1.574804 28.509882
v 72.564560 1.574801 28.913031
v 72.805267 1.574801 29.476576
v 72.564560 0.406544 28.913031
v 72.644791 0.406544 29.100880
v 72.805267 0.406544 29.476576
v 72.550468 0.372827 28.910835
v 72.665833 0.224803 28.658365
v 72.752052 0.224803 28.860235
v 72.459503 1.574801 28.667084
v 72.339897 1.411595 28.387056
v 72.436974 0.406544 28.614336
v 72.424736 0.558043 28.585680
v 72.399483 0.558043 28.526560
v 72.399483 1.334638 28.526560
v 72.797989 0.684295 29.459536
v 72.688332 0.643228 29.202812
v 72.459503 1.295513 28.667084
v 72.569160 1.249449 28.923807
v 72.688332 1.249449 29.202812
v 72.653564 1.208383 29.121410
v 72.713585 1.249449 29.261932
v 72.356857 1.519067 28.426775
v 72.797989 1.208383 29.459536
v 72.832756 1.249449 29.540939
v 72.748352 1.208383 29.343338
v 72.603928 1.208383 29.005209
v 72.509140 1.208383 28.783283
v 72.543907 1.249452 28.864687
v 72.424736 1.334638 28.585680
v 72.509140 0.684295 28.783283
v 72.603928 0.684295 29.005209
v 72.569160 0.643228 28.923807
v 72.748352 0.684295 29.343338
v 72.364708 1.295510 28.445156
v 72.364708 0.597168 28.445156
v 72.376747 0.442269 28.473333
v 72.339897 0.546414 28.387056
v 72.644791 1.574801 29.100880
v 72.725029 1.574801 29.288727
v 72.725029 0.406544 29.288727
v 72.535469 1.295513 28.844936
v 72.568504 1.295513 28.922281
v 72.682167 1.295513 29.188381
v 72.715202 1.295513 29.265726
v 72.828865 1.295513 29.531826
v 72.565407 1.514732 28.915020
v 72.652832 1.514732 29.119699
v 72.722916 1.514732 29.283781
v 72.810341 1.514732 29.488459
v 72.475845 1.514733 28.705336
v 72.459503 1.514733 28.667084
v 73.123100 0.406544 30.450922
v 73.147919 0.597168 30.509024
v 72.893837 0.643228 29.914173
v 72.953857 0.684295 30.054695
v 73.118340 0.406544 30.408979
v 73.118340 0.372827 30.408979
v 73.056953 0.406544 30.265270
v 73.063515 0.643228 30.311419
v 72.774666 0.643228 29.635166
v 73.215065 1.574804 30.666224
v 73.042862 1.574801 30.263075
v 72.802155 1.574801 29.699530
v 73.042862 0.406544 30.263075
v 72.962631 0.406544 30.075226
v 72.802155 0.406544 29.699530
v 73.056953 0.372827 30.265270
v 72.941589 0.224803 30.517740
v 72.855370 0.224803 30.315870
v 73.147919 1.574801 30.509022
v 73.267525 1.411595 30.789049
v 73.170448 0.406544 30.561769
v 73.182686 0.558043 30.590425
v 73.207939 0.558043 30.649546
v 73.207939 1.334638 30.649546
v 72.809433 0.684295 29.716570
v 72.919090 0.643228 29.973293
v 73.147919 1.295513 30.509022
v 73.038261 1.249449 30.252298
v 72.919090 1.249449 29.973293
v 72.953857 1.208383 30.054695
v 72.893837 1.249449 29.914173
v 73.250565 1.519067 30.749331
v 72.809433 1.208383 29.716570
v 72.774666 1.249449 29.635166
v 72.859062 1.208383 29.832767
v 73.003494 1.208383 30.170897
v 73.098282 1.208383 30.392822
v 73.063515 1.249452 30.311420
v 73.182686 1.334638 30.590427
v 73.098282 0.684295 30.392822
v 73.003494 0.684295 30.170897
v 73.038261 0.643228 30.252298
v 72.859062 0.684295 29.832767
v 73.242714 1.295510 30.730949
v 73.242714 0.597168 30.730949
v 73.230675 0.442269 30.702772
v 73.267525 0.546414 30.789049
v 72.962631 1.574801 30.075226
v 72.882393 1.574801 29.887379
v 72.882393 0.406544 29.887379
v 73.071953 1.295513 30.331169
v 73.038918 1.295513 30.253824
v 72.925255 1.295513 29.987724
v 72.892220 1.295513 29.910379
v 72.778557 1.295513 29.644279
v 73.042015 1.514732 30.261086
v 72.954590 1.514732 30.056406
v 72.884506 1.514732 29.892324
v 72.797081 1.514732 29.687647
v 73.131577 1.514733 30.470770
v 73.147919 1.514733 30.509022
v 72.401154 0.406544 28.760708
v 72.376335 0.597168 28.702608
v 72.630417 0.643228 29.297457
v 72.570396 0.684295 29.156937
v 72.428162 0.406544 28.793148
v 72.428162 0.372827 28.793148
v 72.489540 0.406544 28.936859
v 72.460739 0.643228 28.900211
v 72.749588 0.643228 29.576464
v 72.309189 1.574804 28.545408
v 72.481384 1.574801 28.948555
v 72.722099 1.574801 29.512100
v 72.481384 0.406544 28.948555
v 72.561623 0.406544 29.136404
v 72.722099 0.406544 29.512100
v 72.489540 0.372827 28.936859
v 72.227379 0.224803 28.845642
v 72.313606 0.224803 29.047514
v 72.376335 1.574801 28.702608
v 72.256721 1.411595 28.422581
v 72.353806 0.406544 28.649860
v 72.341560 0.558043 28.621204
v 72.316307 0.558043 28.562084
v 72.316307 1.334638 28.562084
v 72.714821 0.684295 29.495060
v 72.605164 0.643228 29.238337
v 72.376335 1.295513 28.702608
v 72.485992 1.249449 28.959332
v 72.605164 1.249449 29.238337
v 72.570396 1.208383 29.156937
v 72.630417 1.249449 29.297457
v 72.273689 1.519067 28.462299
v 72.714821 1.208383 29.495060
v 72.749588 1.249449 29.576464
v 72.665184 1.208383 29.378862
v 72.520760 1.208383 29.040733
v 72.425964 1.208383 28.818810
v 72.460739 1.249452 28.900211
v 72.341560 1.334638 28.621204
v 72.425964 0.684295 28.818810
v 72.520760 0.684295 29.040733
v 72.485992 0.643228 28.959332
v 72.665184 0.684295 29.378862
v 72.281540 1.295510 28.480682
v 72.281540 0.597168 28.480682
v 72.293579 0.442269 28.508860
v 72.256721 0.546414 28.422581
v 72.561623 1.574801 29.136404
v 72.641861 1.574801 29.324251
v 72.641861 0.406544 29.324251
v 72.452301 1.295513 28.880461
v 72.485336 1.295513 28.957806
v 72.598999 1.295513 29.223906
v 72.632034 1.295513 29.301250
v 72.745697 1.295513 29.567350
v 72.482239 1.514732 28.950544
v 72.569664 1.514732 29.155224
v 72.639748 1.514732 29.319305
v 72.727173 1.514732 29.523983
v 72.392670 1.514733 28.740860
v 72.376335 1.514733 28.702608
vn 0.2062 0.8511 0.4828
vn 0.5379 0.8111 -0.2298
vn 0.9196 -0.0000 -0.3928
vn 0.9196 0.0001 -0.3928
vn 0.9196 -0.0001 -0.3928
vn -0.0000 1.0000 -0.0000
vn 0.0891 -0.9739 0.2087
vn 0.2918 -0.6694 0.6832
vn -0.0000 -1.0000 -0.0000
vn 0.3928 -0.0000 0.9196
vn 0.3645 0.3729 0.8533
vn 0.3847 0.2024 0.9006
vn -0.1653 0.9071 -0.3871
vn -0.9196 -0.0000 0.3928
vn -0.9196 0.0001 0.3928
vn -0.1653 -0.9071 -0.3870
vn -0.1653 -0.9071 -0.3871
vn 0.1653 -0.9071 0.3870
vn -0.3928 -0.0000 -0.9196
vn -0.1653 0.9071 -0.3870
vn 0.1653 0.9071 0.3870
vn 0.1653 -0.9072 0.3870
vn 0.1653 0.9072 0.3870
vn -0.2062 0.8511 -0.4828
vn -0.0891 -0.9739 -0.2087
vn -0.2918 -0.6693 -0.6833
vn -0.3645 0.3729 -0.8533
vn -0.3847 0.2024 -0.9006
vn 0.1653 0.9071 0.3871
vn 0.1654 -0.9071 0.3871
vn 0.1653 -0.9071 0.3871
vn 0.1654 0.9071 0.3871
vn -0.1588 -0.9147 -0.3717
vn 0.1588 -0.9146 0.3718
vn 0.1588 0.9147 0.3718
vn -0.1588 0.9147 -0.3718
vn 0.3836 0.2154 0.8980
vn 0.1588 -0.9147 0.3717
vn -0.1588 -0.9146 -0.3718
vn -0.1588 0.9147 -0.3717
vn 0.1588 0.9147 0.3717
vn -0.3836 0.2154 -0.8980
vn -0.5379 0.8111 0.2298
vn -0.9196 -0.0001 0.3928
vn -0.9196 -0.0002 0.3928
vt 0.563424 0.076340
vt 0.553130 0.073518
vt 0.930572 0.423953
vt 0.921307 0.379121
vt 0.987792 0.379121
vt 0.977903 0.423953
vt 0.607372 0.029178
vt 0.597289 0.031257
vt 0.582896 0.026846
vt 0.590093 0.017196
vt 0.572813 0.024865
vt 0.576362 0.017196
vt 0.613360 0.017196
vt 0.614695 0.029178
vt 0.558897 0.019004
vt 0.565490 0.024865
vt 0.555407 0.026846
vt 0.548211 0.024277
vt 0.555407 0.062200
vt 0.548211 0.068077
vt 0.639171 0.057790
vt 0.624778 0.057790
vt 0.624778 0.031257
vt 0.639171 0.031257
vt 0.597289 0.057790
vt 0.582896 0.062201
vt 0.649254 0.029178
vt 0.691136 0.029178
vt 0.681053 0.031257
vt 0.666660 0.031257
vt 0.656577 0.029178
vt 0.565490 0.064181
vt 0.572813 0.064181
vt 0.666660 0.057790
vt 0.681053 0.057790
vt 0.691136 0.059869
vt 0.656577 0.059869
vt 0.649254 0.059869
vt 0.614695 0.059869
vt 0.706379 0.076340
vt 0.683164 0.076340
vt 0.613360 0.076340
vt 0.582896 0.076340
vt 0.659896 0.017196
vt 0.683164 0.017196
vt 0.659896 0.076340
vt 0.636628 0.076340
vt 0.636628 0.017196
vt 0.614506 0.062201
vt 0.604926 0.062201
vt 0.607372 0.059869
vt 0.613607 0.073299
vt 0.638959 0.073299
vt 0.657047 0.062201
vt 0.647466 0.062201
vt 0.659283 0.073299
vt 0.684635 0.073299
vt 0.688839 0.081258
vt 0.699816 0.081258
vt 0.706005 0.126709
vt 0.682651 0.126709
vt 0.698407 0.059869
vt 0.699536 0.062201
vt 0.690007 0.062201
vt 0.612500 0.017196
vt 0.594699 0.017196
vt 0.977903 0.434165
vt 0.930572 0.434165
vt 0.704907 0.073299
vt 0.706379 0.017196
vt 0.698407 0.029178
vt 0.653445 0.126709
vt 0.630032 0.126709
vt 0.639832 0.081258
vt 0.650869 0.081258
vt 0.600826 0.126709
vt 0.570905 0.126710
vt 0.590825 0.081258
vt 0.601862 0.081258
vt 0.587634 0.073299
vt 0.806647 0.062201
vt 0.806647 0.026846
vt 0.565447 0.081258
vt 0.565447 0.126710
vt 0.582896 0.073299
vt 0.836413 0.073518
vt 0.826118 0.076340
vt 0.729647 0.076340
vt 0.978547 0.423953
vt 0.931216 0.423953
vt 0.921327 0.379121
vt 0.987812 0.379121
vt 0.782171 0.029178
vt 0.799450 0.017196
vt 0.792254 0.031257
vt 0.813181 0.017196
vt 0.816730 0.024865
vt 0.774848 0.029178
vt 0.776183 0.017196
vt 0.830646 0.019004
vt 0.841332 0.024277
vt 0.834136 0.026846
vt 0.824053 0.024865
vt 0.841332 0.068077
vt 0.834136 0.062200
vt 0.750372 0.057790
vt 0.750372 0.031257
vt 0.764765 0.031257
vt 0.764765 0.057790
vt 0.792254 0.057790
vt 0.740289 0.029178
vt 0.732966 0.029178
vt 0.722883 0.031257
vt 0.708490 0.031257
vt 0.816730 0.064181
vt 0.824053 0.064181
vt 0.722883 0.057790
vt 0.732966 0.059869
vt 0.708490 0.057790
vt 0.740289 0.059869
vt 0.774848 0.059869
vt 0.806647 0.076340
vt 0.776183 0.076340
vt 0.729647 0.017196
vt 0.752915 0.076340
vt 0.752915 0.017196
vt 0.775037 0.062201
vt 0.782171 0.059869
vt 0.784617 0.062201
vt 0.775936 0.073299
vt 0.750584 0.073299
vt 0.732496 0.062201
vt 0.742077 0.062201
vt 0.730260 0.073299
vt 0.777043 0.017196
vt 0.794844 0.017196
vt 0.978547 0.434165
vt 0.931216 0.434165
vt 0.735211 0.126709
vt 0.737787 0.081258
vt 0.748824 0.081258
vt 0.758624 0.126709
vt 0.787830 0.126709
vt 0.786794 0.081258
vt 0.797831 0.081258
vt 0.817751 0.126710
vt 0.801909 0.073299
vt 0.823209 0.081258
vt 0.823209 0.126710
vt 0.806647 0.073299
s 1
usemtl initialShadingGroup.004
f 10/1/1 132/1/1 154/2/1 32/2/1
f 6/3/2 17/4/2 18/5/2 16/6/2
f 8/7/3 40/8/3 2/9/3 1/10/3
f 1/10/3 2/9/3 22/11/3 21/12/3
f 1/10/3 13/13/3 42/14/3 8/7/3
f 46/15/3 23/16/3 45/17/3 47/18/3
f 45/17/3 44/19/3 20/20/3 47/18/3
f 30/21/4 36/22/4 41/23/5 4/24/5
f 40/8/3 37/25/3 27/26/3 2/9/3
f 23/16/3 46/15/3 21/12/3 22/11/3
f 4/24/5 41/23/5 42/14/3 26/27/3
f 9/28/3 25/29/3 43/30/3 3/31/3
f 10/1/3 32/2/4 24/32/4 39/33/3
f 35/34/3 33/35/3 34/36/5 31/37/5
f 29/38/3 28/39/5 36/22/4 30/21/4
f 43/30/3 25/29/3 33/35/3 35/34/3
f 73/40/6 195/40/6 134/41/6 12/41/6
f 46/15/7 168/15/7 143/12/7 21/12/7
f 11/42/6 133/42/6 141/43/6 19/43/6
f 47/18/8 169/18/8 168/15/8 46/15/8
f 50/44/9 172/44/9 137/45/9 15/45/9
f 19/43/6 141/43/6 132/1/6 10/1/6
f 20/20/3 44/19/3 24/32/4 32/2/4
f 49/46/6 171/46/6 170/47/6 48/47/6
f 26/27/3 42/14/3 13/13/3 14/48/3
f 14/48/3 50/44/3 3/31/3 26/27/3
f 9/28/3 3/31/3 50/44/3 15/45/3
f 52/49/5 51/50/3 38/51/3 28/39/5
f 56/52/3 57/53/3 48/47/5 11/42/5
f 54/54/3 53/55/3 29/38/3 31/37/5
f 58/56/3 59/57/3 12/41/3 49/46/3
f 55/58/5 116/59/5 120/60/3 59/61/3
f 13/13/9 135/13/9 136/48/9 14/48/9
f 20/20/10 142/20/10 169/18/10 47/18/10
f 34/36/5 95/62/5 116/63/5 55/64/5
f 48/47/6 170/47/6 133/42/6 11/42/6
f 32/2/11 154/2/11 142/20/11 20/20/11
f 14/48/9 136/48/9 172/44/9 50/44/9
f 7/65/9 13/13/9 1/10/9 5/66/9
f 6/3/3 16/6/3 7/67/3 5/68/3
f 139/4/12 17/4/12 6/3/12 128/3/12
f 5/68/10 127/68/10 128/3/10 6/3/10
f 7/65/9 129/65/9 135/13/9 13/13/9
f 1/10/9 123/10/9 127/66/9 5/66/9
f 3/31/6 125/31/6 148/27/6 26/27/6
f 26/27/13 148/27/13 126/24/13 4/24/13
f 134/41/14 195/40/15 242/69/14 181/57/14
f 156/36/9 217/62/9 95/62/9 34/36/9
f 33/35/16 155/35/16 156/36/16 34/36/16
f 37/25/17 159/25/17 160/51/17 38/51/17
f 31/37/18 153/37/18 157/34/18 35/34/18
f 25/29/19 147/29/19 155/35/19 33/35/19
f 9/28/13 131/28/13 147/29/13 25/29/13
f 4/24/19 126/24/19 152/21/19 30/21/19
f 8/7/20 130/7/20 162/8/20 40/8/20
f 40/8/19 162/8/19 159/25/19 37/25/19
f 43/30/21 165/30/21 125/31/21 3/31/21
f 38/51/9 160/51/9 150/39/9 28/39/9
f 76/70/3 70/71/3 9/28/3 15/45/3
f 36/22/10 158/22/10 163/23/10 41/23/10
f 35/34/10 157/34/10 165/30/10 43/30/10
f 42/14/6 164/14/6 130/7/6 8/7/6
f 28/39/22 150/39/22 158/22/22 36/22/22
f 31/37/5 34/36/5 55/64/5 54/54/3
f 58/72/3 57/73/3 53/74/3 54/75/3
f 28/39/5 29/38/3 53/55/3 52/49/5
f 56/76/3 60/77/3 51/78/3 52/79/5
f 37/25/3 38/51/3 51/50/3 27/26/3
f 11/42/5 19/43/3 60/80/3 56/52/3
f 49/46/3 48/47/5 57/53/3 58/56/3
f 210/81/19 88/81/19 63/82/19 185/82/19
f 54/75/3 55/58/5 59/61/3 58/72/3
f 52/79/5 53/74/3 57/73/3 56/76/3
f 27/83/3 51/78/3 60/77/3 61/84/3
f 27/26/3 61/85/3 10/1/3 39/33/3
f 10/1/3 61/85/3 60/80/3 19/43/3
f 12/41/6 134/41/6 171/46/6 49/46/6
f 41/23/23 163/23/23 164/14/23 42/14/23
f 15/45/9 137/45/9 198/70/9 76/70/9
f 93/86/24 215/86/24 193/87/24 71/87/24
f 110/88/6 232/88/6 195/40/6 73/40/6
f 67/89/2 77/90/2 79/91/2 78/92/2
f 69/93/3 62/94/3 63/82/3 101/95/3
f 62/94/3 82/96/3 83/97/3 63/82/3
f 62/94/3 69/93/3 103/98/3 74/99/3
f 107/100/3 108/101/3 106/102/3 84/103/3
f 106/102/3 108/101/3 81/104/3 105/105/3
f 91/106/3 65/107/3 102/108/3 97/109/3
f 101/95/3 63/82/3 88/81/3 98/110/3
f 84/103/3 83/97/3 82/96/3 107/100/3
f 65/107/3 87/111/3 103/98/3 102/108/3
f 70/71/3 64/112/3 104/113/5 86/114/5
f 71/87/3 100/115/3 85/116/3 93/86/3
f 96/117/4 92/118/4 95/62/5 94/119/4
f 90/120/4 91/106/3 97/109/3 89/121/4
f 104/113/5 96/117/4 94/119/4 86/114/5
f 198/70/14 137/45/14 131/28/14 192/71/14
f 82/96/25 204/96/25 229/100/25 107/100/25
f 80/122/6 202/122/6 194/123/6 72/123/6
f 107/100/26 229/100/26 230/101/26 108/101/26
f 76/70/9 198/70/9 233/124/9 111/124/9
f 71/87/6 193/87/6 202/122/6 80/122/6
f 81/104/3 93/86/3 85/116/3 105/105/3
f 109/125/6 231/125/6 232/88/6 110/88/6
f 87/111/3 75/126/3 74/99/3 103/98/3
f 75/126/3 87/111/3 64/112/3 111/124/3
f 70/71/3 76/70/3 111/124/3 64/112/3
f 113/127/3 89/121/4 99/128/4 112/129/3
f 117/130/3 72/123/4 109/125/4 118/131/3
f 115/132/3 92/118/4 90/120/4 114/133/3
f 119/134/3 110/88/4 73/40/3 120/69/3
f 75/126/9 197/126/9 196/99/9 74/99/9
f 108/101/19 230/101/19 203/104/19 81/104/19
f 72/123/6 194/123/6 231/125/6 109/125/6
f 103/98/20 225/98/20 224/108/20 102/108/20
f 81/104/27 203/104/27 215/86/27 93/86/27
f 111/124/9 233/124/9 197/126/9 75/126/9
f 68/135/9 66/136/9 62/94/9 74/99/9
f 67/89/3 66/137/3 68/138/3 77/90/3
f 200/92/28 189/89/28 67/89/28 78/92/28
f 67/89/19 189/89/19 188/137/19 66/137/19
f 74/99/9 196/99/9 190/135/9 68/135/9
f 66/136/9 188/136/9 184/94/9 62/94/9
f 87/111/6 209/111/6 186/112/6 64/112/6
f 65/107/29 187/107/29 209/111/29 87/111/29
f 97/109/16 219/109/16 211/121/16 89/121/16
f 95/62/30 217/62/30 216/119/30 94/119/30
f 99/128/31 221/128/31 220/110/31 98/110/31
f 96/117/16 218/117/16 214/118/16 92/118/16
f 94/119/10 216/119/10 208/114/10 86/114/10
f 86/114/32 208/114/32 192/71/32 70/71/32
f 91/106/10 213/106/10 187/107/10 65/107/10
f 101/95/21 223/95/21 191/93/21 69/93/21
f 98/110/10 220/110/10 223/95/10 101/95/10
f 64/112/20 186/112/20 226/113/20 104/113/20
f 89/121/9 211/121/9 221/128/9 99/128/9
f 102/108/19 224/108/19 219/109/19 97/109/19
f 104/113/19 226/113/19 218/117/19 96/117/19
f 69/93/6 191/93/6 225/98/6 103/98/6
f 92/118/4 115/132/3 116/63/5 95/62/5
f 119/139/3 115/140/3 114/141/3 118/142/3
f 89/121/4 113/127/3 114/133/3 90/120/4
f 117/143/3 113/144/3 112/145/3 121/146/3
f 98/110/3 88/81/3 112/129/3 99/128/4
f 72/123/4 117/130/3 121/147/3 80/122/3
f 110/88/4 119/134/3 118/131/3 109/125/4
f 115/140/3 119/139/3 120/60/3 116/59/5
f 113/144/3 117/143/3 118/142/3 114/141/3
f 88/148/3 122/149/3 121/146/3 112/145/3
f 88/81/3 100/115/3 71/87/3 122/150/3
f 71/87/3 80/122/3 121/147/3 122/150/3
f 17/4/9 139/4/9 140/5/9 18/5/9
f 149/26/10 124/9/10 2/9/10 27/26/10
f 222/115/33 100/115/33 88/81/33 210/81/33
f 222/115/9 207/116/9 85/116/9 100/115/9
f 207/116/34 227/105/34 105/105/34 85/116/34
f 227/105/10 228/102/10 106/102/10 105/105/10
f 206/103/35 84/103/35 106/102/35 228/102/35
f 206/103/6 205/97/6 83/97/6 84/103/6
f 185/82/36 63/82/36 83/97/36 205/97/36
f 213/106/31 91/106/31 90/120/31 212/120/31
f 199/90/10 77/90/10 68/138/10 190/138/10
f 199/90/37 201/91/37 79/91/37 77/90/37
f 62/94/9 184/94/9 204/96/9 82/96/9
f 92/118/9 214/118/9 212/120/9 90/120/9
f 161/33/38 149/26/38 27/26/38 39/33/38
f 161/33/9 39/33/9 24/32/9 146/32/9
f 146/32/39 24/32/39 44/19/39 166/19/39
f 166/19/19 44/19/19 45/17/19 167/17/19
f 145/16/40 167/17/40 45/17/40 23/16/40
f 145/16/6 23/16/6 22/11/6 144/11/6
f 124/9/41 144/11/41 22/11/41 2/9/41
f 152/21/17 151/38/17 29/38/17 30/21/17
f 138/6/19 129/67/19 7/67/19 16/6/19
f 138/6/42 16/6/42 18/5/42 140/5/42
f 21/12/9 143/12/9 123/10/9 1/10/9
f 29/38/9 151/38/9 153/37/9 31/37/9
f 128/3/43 138/6/43 140/5/43 139/4/43
f 130/7/14 123/10/14 124/9/14 162/8/14
f 123/10/14 143/12/14 144/11/14 124/9/14
f 123/10/14 130/7/14 164/14/14 135/13/14
f 168/15/14 169/18/14 167/17/14 145/16/14
f 167/17/14 169/18/14 142/20/14 166/19/14
f 152/21/14 126/24/14 163/23/14 158/22/14
f 162/8/14 124/9/14 149/26/14 159/25/15
f 145/16/14 144/11/14 143/12/14 168/15/14
f 126/24/14 148/27/14 164/14/14 163/23/14
f 131/28/14 125/31/14 165/30/14 147/29/14
f 132/1/14 161/33/14 146/32/14 154/2/14
f 157/34/14 153/37/15 156/36/14 155/35/14
f 151/38/14 152/21/14 158/22/14 150/39/14
f 165/30/14 157/34/14 155/35/14 147/29/14
f 142/20/14 154/2/14 146/32/14 166/19/14
f 148/27/14 136/48/14 135/13/14 164/14/14
f 136/48/14 148/27/14 125/31/14 172/44/14
f 131/28/14 137/45/14 172/44/14 125/31/14
f 174/49/14 150/39/14 160/51/14 173/50/14
f 178/52/14 133/42/14 170/47/14 179/53/14
f 176/54/14 153/37/15 151/38/14 175/55/14
f 180/56/14 171/46/14 134/41/14 181/57/14
f 181/61/14 242/60/14 238/59/14 177/58/14
f 177/64/14 238/63/14 217/62/14 156/36/14
f 129/65/9 127/66/9 123/10/9 135/13/9
f 128/3/14 127/68/14 129/67/14 138/6/14
f 153/37/15 176/54/14 177/64/14 156/36/14
f 180/72/14 176/75/14 175/74/14 179/73/14
f 150/39/14 174/49/14 175/55/14 151/38/14
f 178/76/14 174/79/14 173/78/14 182/77/14
f 159/25/15 149/26/14 173/50/14 160/51/14
f 133/42/14 178/52/14 182/80/14 141/43/14
f 171/46/14 180/56/14 179/53/14 170/47/14
f 176/75/14 180/72/14 181/61/14 177/58/14
f 174/79/14 178/76/14 179/73/14 175/74/14
f 149/83/14 183/84/14 182/77/14 173/78/14
f 149/26/14 161/33/14 132/1/14 183/85/14
f 132/1/14 141/43/14 182/80/14 183/85/14
f 131/28/6 9/28/6 70/71/6 192/71/6
f 189/89/43 200/92/43 201/91/43 199/90/43
f 191/93/14 223/95/14 185/82/14 184/94/14
f 184/94/14 185/82/14 205/97/14 204/96/14
f 184/94/14 196/99/14 225/98/14 191/93/14
f 229/100/14 206/103/14 228/102/14 230/101/14
f 228/102/14 227/105/14 203/104/14 230/101/14
f 213/106/14 219/109/14 224/108/14 187/107/14
f 223/95/14 220/110/14 210/81/14 185/82/14
f 206/103/14 229/100/14 204/96/14 205/97/14
f 187/107/14 224/108/14 225/98/14 209/111/14
f 192/71/14 208/114/44 226/113/44 186/112/14
f 193/87/14 215/86/14 207/116/14 222/115/14
f 218/117/14 216/119/14 217/62/14 214/118/14
f 212/120/44 211/121/45 219/109/14 213/106/14
f 226/113/44 208/114/44 216/119/14 218/117/14
f 203/104/14 227/105/14 207/116/14 215/86/14
f 209/111/14 225/98/14 196/99/14 197/126/14
f 197/126/14 233/124/14 186/112/14 209/111/14
f 192/71/14 186/112/14 233/124/14 198/70/14
f 235/127/44 234/129/14 221/128/44 211/121/45
f 239/130/14 240/131/14 231/125/44 194/123/14
f 237/132/14 236/133/44 212/120/44 214/118/14
f 241/134/14 242/69/14 195/40/15 232/88/15
f 190/135/9 196/99/9 184/94/9 188/136/9
f 189/89/14 199/90/14 190/138/14 188/137/14
f 214/118/14 217/62/14 238/63/14 237/132/14
f 241/139/14 240/142/14 236/141/44 237/140/14
f 211/121/45 212/120/44 236/133/44 235/127/44
f 239/143/14 243/146/15 234/145/14 235/144/44
f 220/110/14 221/128/44 234/129/14 210/81/14
f 194/123/14 202/122/15 243/147/15 239/130/14
f 232/88/15 231/125/44 240/131/14 241/134/14
f 237/140/14 238/59/14 242/60/14 241/139/14
f 235/144/44 236/141/44 240/142/14 239/143/14
f 210/148/14 234/145/14 243/146/15 244/149/14
f 210/81/14 244/150/14 193/87/14 222/115/14
f 193/87/14 244/150/14 243/147/15 202/122/15
f 59/57/3 120/69/3 73/40/3 12/41/3
f 79/91/9 201/91/9 200/92/9 78/92/9
