# Blender 5.1.0
# www.blender.org
mtllib barriere55_057.mtl
o barriere55.057
v -1.239776 0.406544 24.264160
v -1.302811 0.597168 24.259916
v -0.657430 0.643228 24.303352
v -0.809888 0.684295 24.293091
v -1.198612 0.406544 24.254808
v -1.198612 0.372827 24.254808
v -1.042695 0.406544 24.265301
v -1.088422 0.643228 24.274345
v -0.354723 0.643228 24.323725
v -1.473366 1.574804 24.248438
v -1.035970 1.574801 24.277876
v -0.424553 1.574801 24.319025
v -1.035970 0.406544 24.277876
v -0.832165 0.406544 24.291592
v -0.424553 0.406544 24.319025
v -1.042695 0.372827 24.265301
v -1.242919 0.224803 24.457552
v -1.023899 0.224803 24.472292
v -1.302810 1.574801 24.259916
v -1.606625 1.411595 24.239470
v -1.360039 0.406544 24.256065
v -1.391130 0.558043 24.253973
v -1.455271 0.558043 24.249657
v -1.455271 1.334638 24.249657
v -0.443041 0.684295 24.317781
v -0.721572 0.643228 24.299036
v -1.302810 1.295513 24.259916
v -1.024279 1.249449 24.278662
v -0.721572 1.249449 24.299036
v -0.809888 1.208383 24.293091
v -0.657430 1.249449 24.303352
v -1.563533 1.519067 24.242371
v -0.443041 1.208383 24.317781
v -0.354723 1.249449 24.323725
v -0.569110 1.208383 24.309296
v -0.935962 1.208383 24.284607
v -1.176739 1.208383 24.268402
v -1.088422 1.249452 24.274345
v -1.391130 1.334638 24.253973
v -1.176739 0.684295 24.268402
v -0.935962 0.684295 24.284607
v -1.024279 0.643228 24.278662
v -0.569110 0.684295 24.309296
v -1.543590 1.295510 24.243711
v -1.543590 0.597168 24.243711
v -1.513019 0.442269 24.245770
v -1.606625 0.546414 24.239470
v -0.832165 1.574801 24.291592
v -0.628359 1.574801 24.305309
v -0.628359 0.406544 24.305309
v -1.109849 1.295513 24.272903
v -1.025934 1.295513 24.278551
v -0.737230 1.295513 24.297981
v -0.653314 1.295513 24.303629
v -0.364609 1.295513 24.323059
v -1.033812 1.514732 24.278021
v -0.811746 1.514732 24.292967
v -0.633726 1.514732 24.304947
v -0.411661 1.514732 24.319893
v -1.261309 1.514733 24.262711
v -1.302810 1.514733 24.259916
v 0.594021 0.406544 24.387575
v 0.657057 0.597168 24.391819
v 0.011675 0.643228 24.348383
v 0.164133 0.684295 24.358644
v 0.554482 0.406544 24.372793
v 0.554482 0.372827 24.372793
v 0.398564 0.406544 24.362299
v 0.442667 0.643228 24.377390
v -0.291032 0.643228 24.328011
v 0.827611 1.574804 24.403297
v 0.390215 1.574801 24.373859
v -0.221201 1.574801 24.332710
v 0.390215 0.406544 24.373859
v 0.186410 0.406544 24.360144
v -0.221201 0.406544 24.332710
v 0.398564 0.372827 24.362299
v 0.571222 0.224803 24.579645
v 0.352202 0.224803 24.564905
v 0.657055 1.574801 24.391819
v 0.960870 1.411595 24.412266
v 0.714285 0.406544 24.395670
v 0.745375 0.558043 24.397762
v 0.809517 0.558043 24.402079
v 0.809517 1.334638 24.402079
v -0.202713 0.684295 24.333956
v 0.075817 0.643228 24.352701
v 0.657055 1.295513 24.391819
v 0.378525 1.249449 24.373074
v 0.075817 1.249449 24.352701
v 0.164133 1.208383 24.358644
v 0.011675 1.249449 24.348383
v 0.917779 1.519067 24.409365
v -0.202713 1.208383 24.333956
v -0.291032 1.249449 24.328011
v -0.076645 1.208383 24.342440
v 0.290207 1.208383 24.367128
v 0.530984 1.208383 24.383333
v 0.442667 1.249452 24.377390
v 0.745375 1.334638 24.397762
v 0.530984 0.684295 24.383333
v 0.290207 0.684295 24.367128
v 0.378525 0.643228 24.373074
v -0.076645 0.684295 24.342440
v 0.897835 1.295510 24.408024
v 0.897835 0.597168 24.408024
v 0.867264 0.442269 24.405966
v 0.960870 0.546414 24.412266
v 0.186410 1.574801 24.360144
v -0.017396 1.574801 24.346428
v -0.017396 0.406544 24.346428
v 0.464095 1.295513 24.378832
v 0.380180 1.295513 24.373184
v 0.091475 1.295513 24.353754
v 0.007559 1.295513 24.348106
v -0.281146 1.295513 24.328676
v 0.388057 1.514732 24.373714
v 0.165992 1.514732 24.358768
v -0.012029 1.514732 24.346788
v -0.234094 1.514732 24.331842
v 0.615554 1.514733 24.389025
v 0.657055 1.514733 24.391819
v -1.233703 0.406544 24.173925
v -1.296739 0.597168 24.169682
v -0.651357 0.643228 24.213118
v -0.803815 0.684295 24.202856
v -1.194163 0.406544 24.188707
v -1.194163 0.372827 24.188707
v -1.038246 0.406544 24.199202
v -1.082349 0.643228 24.184111
v -0.348650 0.643228 24.233490
v -1.467293 1.574804 24.158203
v -1.029897 1.574801 24.187641
v -0.418480 1.574801 24.228790
v -1.029897 0.406544 24.187641
v -0.826092 0.406544 24.201357
v -0.418480 0.406544 24.228790
v -1.038246 0.372827 24.199202
v -1.210904 0.224803 23.981855
v -0.991884 0.224803 23.996595
v -1.296737 1.574801 24.169682
v -1.600552 1.411595 24.149235
v -1.353966 0.406544 24.165831
v -1.385057 0.558043 24.163738
v -1.449198 0.558043 24.159422
v -1.449198 1.334638 24.159422
v -0.436968 0.684295 24.227545
v -0.715499 0.643228 24.208799
v -1.296737 1.295513 24.169682
v -1.018206 1.249449 24.188427
v -0.715499 1.249449 24.208799
v -0.803815 1.208383 24.202856
v -0.651357 1.249449 24.213118
v -1.557460 1.519067 24.152136
v -0.436968 1.208383 24.227545
v -0.348650 1.249449 24.233490
v -0.563037 1.208383 24.219061
v -0.929889 1.208383 24.194372
v -1.170666 1.208383 24.178167
v -1.082349 1.249452 24.184111
v -1.385057 1.334638 24.163738
v -1.170666 0.684295 24.178167
v -0.929889 0.684295 24.194372
v -1.018206 0.643228 24.188427
v -0.563037 0.684295 24.219061
v -1.537517 1.295510 24.153477
v -1.537517 0.597168 24.153477
v -1.506946 0.442269 24.155535
v -1.600552 0.546414 24.149235
v -0.826092 1.574801 24.201357
v -0.622286 1.574801 24.215073
v -0.622286 0.406544 24.215073
v -1.103777 1.295513 24.182669
v -1.019862 1.295513 24.188316
v -0.731157 1.295513 24.207747
v -0.647241 1.295513 24.213394
v -0.358536 1.295513 24.232824
v -1.027739 1.514732 24.187786
v -0.805673 1.514732 24.202732
v -0.627653 1.514732 24.214712
v -0.405588 1.514732 24.229658
v -1.255236 1.514733 24.172476
v -1.296737 1.514733 24.169682
v 0.600094 0.406544 24.297340
v 0.663130 0.597168 24.301584
v 0.017748 0.643228 24.258148
v 0.170206 0.684295 24.268410
v 0.558930 0.406544 24.306692
v 0.558930 0.372827 24.306692
v 0.403013 0.406544 24.296200
v 0.448740 0.643228 24.287155
v -0.284959 0.643228 24.237776
v 0.833684 1.574804 24.313063
v 0.396288 1.574801 24.283625
v -0.215128 1.574801 24.242476
v 0.396288 0.406544 24.283625
v 0.192483 0.406544 24.269909
v -0.215128 0.406544 24.242476
v 0.403013 0.372827 24.296200
v 0.603237 0.224803 24.103949
v 0.384217 0.224803 24.089209
v 0.663128 1.574801 24.301582
v 0.966943 1.411595 24.322031
v 0.720358 0.406544 24.305435
v 0.751448 0.558043 24.307528
v 0.815590 0.558043 24.311844
v 0.815590 1.334638 24.311844
v -0.196641 0.684295 24.243719
v 0.081890 0.643228 24.262465
v 0.663128 1.295513 24.301582
v 0.384597 1.249449 24.282837
v 0.081890 1.249449 24.262465
v 0.170206 1.208383 24.268410
v 0.017748 1.249449 24.258148
v 0.923852 1.519067 24.319130
v -0.196640 1.208383 24.243719
v -0.284959 1.249449 24.237776
v -0.070572 1.208383 24.252205
v 0.296280 1.208383 24.276894
v 0.537057 1.208383 24.293098
v 0.448740 1.249452 24.287155
v 0.751448 1.334638 24.307528
v 0.537057 0.684295 24.293098
v 0.296280 0.684295 24.276894
v 0.384597 0.643228 24.282839
v -0.070572 0.684295 24.252205
v 0.903908 1.295510 24.317787
v 0.903908 0.597168 24.317789
v 0.873337 0.442269 24.315731
v 0.966943 0.546414 24.322031
v 0.192483 1.574801 24.269909
v -0.011323 1.574801 24.256191
v -0.011323 0.406544 24.256191
v 0.470168 1.295513 24.288597
v 0.386253 1.295513 24.282949
v 0.097548 1.295513 24.263519
v 0.013632 1.295513 24.257872
v -0.275073 1.295513 24.238441
v 0.394130 1.514732 24.283480
v 0.172064 1.514732 24.268534
v -0.005956 1.514732 24.256554
v -0.228021 1.514732 24.241608
v 0.621627 1.514733 24.298790
v 0.663128 1.514733 24.301582
vn -0.5238 0.8511 -0.0353
vn -0.0393 0.8111 0.5836
vn -0.0671 -0.0000 0.9977
vn -0.0672 -0.0000 0.9977
vn -0.0000 1.0000 -0.0000
vn -0.2264 -0.9739 -0.0152
vn -0.7413 -0.6693 -0.0499
vn -0.0000 -1.0000 -0.0000
vn -0.9977 -0.0000 -0.0672
vn -0.9258 0.3729 -0.0623
vn -0.9771 0.2024 -0.0658
vn 0.4199 0.9071 0.0283
vn 0.0671 -0.0000 -0.9977
vn 0.4199 -0.9071 0.0283
vn -0.4199 -0.9071 -0.0283
vn 0.9977 -0.0000 0.0671
vn 0.9977 -0.0000 0.0672
vn -0.4199 0.9071 -0.0283
vn 0.5237 0.8511 0.0353
vn 0.2264 -0.9739 0.0152
vn 0.7413 -0.6693 0.0499
vn 0.9258 0.3729 0.0623
vn 0.9771 0.2024 0.0658
vn -0.9977 -0.0000 -0.0671
vn 0.4034 -0.9146 0.0271
vn -0.4034 -0.9146 -0.0271
vn -0.4034 0.9146 -0.0271
vn 0.4034 0.9146 0.0271
vn -0.9743 0.2154 -0.0656
vn 0.9743 0.2154 0.0656
vn 0.0393 0.8111 -0.5836
vn 0.0672 -0.0000 -0.9977
vt 0.563424 0.076340
vt 0.553130 0.073518
vt 0.930572 0.423953
vt 0.921307 0.379121
vt 0.987792 0.379121
vt 0.977903 0.423953
vt 0.607372 0.029178
vt 0.597289 0.031257
vt 0.582896 0.026846
vt 0.590093 0.017196
vt 0.572813 0.024865
vt 0.576362 0.017196
vt 0.613360 0.017196
vt 0.614695 0.029178
vt 0.558897 0.019004
vt 0.565490 0.024865
vt 0.555407 0.026846
vt 0.548211 0.024277
vt 0.555407 0.062200
vt 0.548211 0.068077
vt 0.639171 0.057790
vt 0.624778 0.057790
vt 0.624778 0.031257
vt 0.639171 0.031257
vt 0.597289 0.057790
vt 0.582896 0.062201
vt 0.649254 0.029178
vt 0.691136 0.029178
vt 0.681053 0.031257
vt 0.666660 0.031257
vt 0.656577 0.029178
vt 0.565490 0.064181
vt 0.572813 0.064181
vt 0.666660 0.057790
vt 0.681053 0.057790
vt 0.691136 0.059869
vt 0.656577 0.059869
vt 0.649254 0.059869
vt 0.614695 0.059869
vt 0.706379 0.076340
vt 0.683164 0.076340
vt 0.613360 0.076340
vt 0.582896 0.076340
vt 0.659896 0.017196
vt 0.683164 0.017196
vt 0.659896 0.076340
vt 0.636628 0.076340
vt 0.636628 0.017196
vt 0.614506 0.062201
vt 0.604926 0.062201
vt 0.607372 0.059869
vt 0.613607 0.073299
vt 0.638959 0.073299
vt 0.657047 0.062201
vt 0.647466 0.062201
vt 0.659283 0.073299
vt 0.684635 0.073299
vt 0.688839 0.081258
vt 0.699816 0.081258
vt 0.706005 0.126709
vt 0.682651 0.126709
vt 0.698407 0.059869
vt 0.699536 0.062201
vt 0.690007 0.062201
vt 0.612500 0.017196
vt 0.594699 0.017196
vt 0.977903 0.434165
vt 0.930572 0.434165
vt 0.704907 0.073299
vt 0.706379 0.017196
vt 0.698407 0.029178
vt 0.653445 0.126709
vt 0.630032 0.126709
vt 0.639832 0.081258
vt 0.650869 0.081258
vt 0.600826 0.126709
vt 0.570905 0.126710
vt 0.590825 0.081258
vt 0.601862 0.081258
vt 0.587634 0.073299
vt 0.806647 0.062201
vt 0.806647 0.026846
vt 0.565447 0.081258
vt 0.565447 0.126710
vt 0.582896 0.073299
vt 0.836413 0.073518
vt 0.826118 0.076340
vt 0.729647 0.076340
vt 0.978547 0.423953
vt 0.931216 0.423953
vt 0.921327 0.379121
vt 0.987812 0.379121
vt 0.782171 0.029178
vt 0.799450 0.017196
vt 0.792254 0.031257
vt 0.813181 0.017196
vt 0.816730 0.024865
vt 0.774848 0.029178
vt 0.776183 0.017196
vt 0.830646 0.019004
vt 0.841332 0.024277
vt 0.834136 0.026846
vt 0.824053 0.024865
vt 0.841332 0.068077
vt 0.834136 0.062200
vt 0.750372 0.057790
vt 0.750372 0.031257
vt 0.764765 0.031257
vt 0.764765 0.057790
vt 0.792254 0.057790
vt 0.740289 0.029178
vt 0.732966 0.029178
vt 0.722883 0.031257
vt 0.708490 0.031257
vt 0.816730 0.064181
vt 0.824053 0.064181
vt 0.722883 0.057790
vt 0.732966 0.059869
vt 0.708490 0.057790
vt 0.740289 0.059869
vt 0.774848 0.059869
vt 0.806647 0.076340
vt 0.776183 0.076340
vt 0.729647 0.017196
vt 0.752915 0.076340
vt 0.752915 0.017196
vt 0.775037 0.062201
vt 0.782171 0.059869
vt 0.784617 0.062201
vt 0.775936 0.073299
vt 0.750584 0.073299
vt 0.732496 0.062201
vt 0.742077 0.062201
vt 0.730260 0.073299
vt 0.777043 0.017196
vt 0.794844 0.017196
vt 0.978547 0.434165
vt 0.931216 0.434165
vt 0.735211 0.126709
vt 0.737787 0.081258
vt 0.748824 0.081258
vt 0.758624 0.126709
vt 0.787830 0.126709
vt 0.786794 0.081258
vt 0.797831 0.081258
vt 0.817751 0.126710
vt 0.801909 0.073299
vt 0.823209 0.081258
vt 0.823209 0.126710
vt 0.806647 0.073299
s 1
usemtl initialShadingGroup.004
f 10/1/1 132/1/1 154/2/1 32/2/1
f 6/3/2 17/4/2 18/5/2 16/6/2
f 8/7/3 40/8/4 2/9/4 1/10/4
f 1/10/4 2/9/4 22/11/4 21/12/4
f 1/10/4 13/13/3 42/14/3 8/7/3
f 46/15/4 23/16/4 45/17/4 47/18/4
f 45/17/4 44/19/4 20/20/4 47/18/4
f 30/21/3 36/22/3 41/23/3 4/24/3
f 40/8/4 37/25/4 27/26/4 2/9/4
f 23/16/4 46/15/4 21/12/4 22/11/4
f 4/24/3 41/23/3 42/14/3 26/27/3
f 9/28/3 25/29/4 43/30/4 3/31/3
f 10/1/3 32/2/3 24/32/3 39/33/3
f 35/34/4 33/35/4 34/36/4 31/37/3
f 29/38/3 28/39/3 36/22/3 30/21/3
f 43/30/4 25/29/4 33/35/4 35/34/4
f 73/40/5 195/40/5 134/41/5 12/41/5
f 46/15/6 168/15/6 143/12/6 21/12/6
f 11/42/5 133/42/5 141/43/5 19/43/5
f 47/18/7 169/18/7 168/15/7 46/15/7
f 50/44/8 172/44/8 137/45/8 15/45/8
f 19/43/5 141/43/5 132/1/5 10/1/5
f 20/20/4 44/19/4 24/32/3 32/2/3
f 49/46/5 171/46/5 170/47/5 48/47/5
f 26/27/3 42/14/3 13/13/3 14/48/4
f 14/48/4 50/44/3 3/31/3 26/27/3
f 9/28/3 3/31/3 50/44/3 15/45/3
f 52/49/4 51/50/4 38/51/3 28/39/3
f 56/52/3 57/53/4 48/47/4 11/42/3
f 54/54/3 53/55/3 29/38/3 31/37/3
f 58/56/3 59/57/3 12/41/3 49/46/3
f 55/58/4 116/59/4 120/60/3 59/61/3
f 13/13/8 135/13/8 136/48/8 14/48/8
f 20/20/9 142/20/9 169/18/9 47/18/9
f 34/36/4 95/62/4 116/63/4 55/64/4
f 48/47/5 170/47/5 133/42/5 11/42/5
f 32/2/10 154/2/10 142/20/10 20/20/10
f 14/48/8 136/48/8 172/44/8 50/44/8
f 7/65/8 13/13/8 1/10/8 5/66/8
f 6/3/4 16/6/4 7/67/4 5/68/4
f 139/4/11 17/4/11 6/3/11 128/3/11
f 5/68/9 127/68/9 128/3/9 6/3/9
f 7/65/8 129/65/8 135/13/8 13/13/8
f 1/10/8 123/10/8 127/66/8 5/66/8
f 3/31/5 125/31/5 148/27/5 26/27/5
f 26/27/12 148/27/12 126/24/12 4/24/12
f 134/41/13 195/40/13 242/69/13 181/57/13
f 156/36/8 217/62/8 95/62/8 34/36/8
f 33/35/14 155/35/14 156/36/14 34/36/14
f 37/25/14 159/25/14 160/51/14 38/51/14
f 31/37/15 153/37/15 157/34/15 35/34/15
f 25/29/16 147/29/16 155/35/16 33/35/16
f 9/28/12 131/28/12 147/29/12 25/29/12
f 4/24/17 126/24/17 152/21/17 30/21/17
f 8/7/12 130/7/12 162/8/12 40/8/12
f 40/8/17 162/8/17 159/25/17 37/25/17
f 43/30/18 165/30/18 125/31/18 3/31/18
f 38/51/8 160/51/8 150/39/8 28/39/8
f 76/70/4 70/71/3 9/28/3 15/45/3
f 36/22/9 158/22/9 163/23/9 41/23/9
f 35/34/9 157/34/9 165/30/9 43/30/9
f 42/14/5 164/14/5 130/7/5 8/7/5
f 28/39/15 150/39/15 158/22/15 36/22/15
f 31/37/3 34/36/4 55/64/4 54/54/3
f 58/72/3 57/73/4 53/74/3 54/75/3
f 28/39/3 29/38/3 53/55/3 52/49/4
f 56/76/3 60/77/4 51/78/4 52/79/4
f 37/25/4 38/51/3 51/50/4 27/26/4
f 11/42/3 19/43/4 60/80/4 56/52/3
f 49/46/3 48/47/4 57/53/4 58/56/3
f 210/81/16 88/81/16 63/82/16 185/82/16
f 54/75/3 55/58/4 59/61/3 58/72/3
f 52/79/4 53/74/3 57/73/4 56/76/3
f 27/83/4 51/78/4 60/77/4 61/84/4
f 27/26/4 61/85/4 10/1/3 39/33/3
f 10/1/3 61/85/4 60/80/4 19/43/4
f 12/41/5 134/41/5 171/46/5 49/46/5
f 41/23/18 163/23/18 164/14/18 42/14/18
f 15/45/8 137/45/8 198/70/8 76/70/8
f 93/86/19 215/86/19 193/87/19 71/87/19
f 110/88/5 232/88/5 195/40/5 73/40/5
f 67/89/2 77/90/2 79/91/2 78/92/2
f 69/93/4 62/94/3 63/82/4 101/95/4
f 62/94/3 82/96/3 83/97/3 63/82/4
f 62/94/3 69/93/4 103/98/3 74/99/3
f 107/100/3 108/101/3 106/102/3 84/103/3
f 106/102/3 108/101/3 81/104/4 105/105/3
f 91/106/3 65/107/3 102/108/3 97/109/3
f 101/95/4 63/82/4 88/81/4 98/110/4
f 84/103/3 83/97/3 82/96/3 107/100/3
f 65/107/3 87/111/4 103/98/3 102/108/3
f 70/71/3 64/112/4 104/113/3 86/114/3
f 71/87/3 100/115/3 85/116/3 93/86/3
f 96/117/4 92/118/4 95/62/4 94/119/4
f 90/120/4 91/106/3 97/109/3 89/121/3
f 104/113/3 96/117/4 94/119/4 86/114/3
f 198/70/13 137/45/13 131/28/13 192/71/13
f 82/96/20 204/96/20 229/100/20 107/100/20
f 80/122/5 202/122/5 194/123/5 72/123/5
f 107/100/21 229/100/21 230/101/21 108/101/21
f 76/70/8 198/70/8 233/124/8 111/124/8
f 71/87/5 193/87/5 202/122/5 80/122/5
f 81/104/4 93/86/3 85/116/3 105/105/3
f 109/125/5 231/125/5 232/88/5 110/88/5
f 87/111/4 75/126/4 74/99/3 103/98/3
f 75/126/4 87/111/4 64/112/4 111/124/4
f 70/71/3 76/70/4 111/124/4 64/112/4
f 113/127/3 89/121/3 99/128/3 112/129/3
f 117/130/3 72/123/4 109/125/3 118/131/4
f 115/132/4 92/118/4 90/120/4 114/133/4
f 119/134/4 110/88/4 73/40/4 120/69/3
f 75/126/8 197/126/8 196/99/8 74/99/8
f 108/101/17 230/101/17 203/104/17 81/104/17
f 72/123/5 194/123/5 231/125/5 109/125/5
f 103/98/12 225/98/12 224/108/12 102/108/12
f 81/104/22 203/104/22 215/86/22 93/86/22
f 111/124/8 233/124/8 197/126/8 75/126/8
f 68/135/8 66/136/8 62/94/8 74/99/8
f 67/89/4 66/137/4 68/138/4 77/90/4
f 200/92/23 189/89/23 67/89/23 78/92/23
f 67/89/16 189/89/16 188/137/16 66/137/16
f 74/99/8 196/99/8 190/135/8 68/135/8
f 66/136/8 188/136/8 184/94/8 62/94/8
f 87/111/5 209/111/5 186/112/5 64/112/5
f 65/107/18 187/107/18 209/111/18 87/111/18
f 97/109/14 219/109/14 211/121/14 89/121/14
f 95/62/15 217/62/15 216/119/15 94/119/15
f 99/128/15 221/128/15 220/110/15 98/110/15
f 96/117/14 218/117/14 214/118/14 92/118/14
f 94/119/24 216/119/24 208/114/24 86/114/24
f 86/114/18 208/114/18 192/71/18 70/71/18
f 91/106/9 213/106/9 187/107/9 65/107/9
f 101/95/18 223/95/18 191/93/18 69/93/18
f 98/110/9 220/110/9 223/95/9 101/95/9
f 64/112/12 186/112/12 226/113/12 104/113/12
f 89/121/8 211/121/8 221/128/8 99/128/8
f 102/108/17 224/108/17 219/109/17 97/109/17
f 104/113/17 226/113/17 218/117/17 96/117/17
f 69/93/5 191/93/5 225/98/5 103/98/5
f 92/118/4 115/132/4 116/63/4 95/62/4
f 119/139/4 115/140/4 114/141/4 118/142/4
f 89/121/3 113/127/3 114/133/4 90/120/4
f 117/143/3 113/144/3 112/145/3 121/146/4
f 98/110/4 88/81/4 112/129/3 99/128/3
f 72/123/4 117/130/3 121/147/4 80/122/3
f 110/88/4 119/134/4 118/131/4 109/125/3
f 115/140/4 119/139/4 120/60/3 116/59/4
f 113/144/3 117/143/3 118/142/4 114/141/4
f 88/148/4 122/149/3 121/146/4 112/145/3
f 88/81/4 100/115/3 71/87/3 122/150/3
f 71/87/3 80/122/3 121/147/4 122/150/3
f 17/4/8 139/4/8 140/5/8 18/5/8
f 149/26/24 124/9/24 2/9/24 27/26/24
f 222/115/25 100/115/25 88/81/25 210/81/25
f 222/115/8 207/116/8 85/116/8 100/115/8
f 207/116/26 227/105/26 105/105/26 85/116/26
f 227/105/24 228/102/24 106/102/24 105/105/24
f 206/103/27 84/103/27 106/102/27 228/102/27
f 206/103/5 205/97/5 83/97/5 84/103/5
f 185/82/28 63/82/28 83/97/28 205/97/28
f 213/106/15 91/106/15 90/120/15 212/120/15
f 199/90/9 77/90/9 68/138/9 190/138/9
f 199/90/29 201/91/29 79/91/29 77/90/29
f 62/94/8 184/94/8 204/96/8 82/96/8
f 92/118/8 214/118/8 212/120/8 90/120/8
f 161/33/26 149/26/26 27/26/26 39/33/26
f 161/33/8 39/33/8 24/32/8 146/32/8
f 146/32/25 24/32/25 44/19/25 166/19/25
f 166/19/17 44/19/17 45/17/17 167/17/17
f 145/16/28 167/17/28 45/17/28 23/16/28
f 145/16/5 23/16/5 22/11/5 144/11/5
f 124/9/27 144/11/27 22/11/27 2/9/27
f 152/21/14 151/38/14 29/38/14 30/21/14
f 138/6/17 129/67/17 7/67/17 16/6/17
f 138/6/30 16/6/30 18/5/30 140/5/30
f 21/12/8 143/12/8 123/10/8 1/10/8
f 29/38/8 151/38/8 153/37/8 31/37/8
f 128/3/31 138/6/31 140/5/31 139/4/31
f 130/7/13 123/10/13 124/9/32 162/8/32
f 123/10/13 143/12/13 144/11/13 124/9/32
f 123/10/13 130/7/13 164/14/13 135/13/13
f 168/15/13 169/18/32 167/17/32 145/16/13
f 167/17/32 169/18/32 142/20/32 166/19/32
f 152/21/13 126/24/13 163/23/13 158/22/13
f 162/8/32 124/9/32 149/26/32 159/25/32
f 145/16/13 144/11/13 143/12/13 168/15/13
f 126/24/13 148/27/32 164/14/13 163/23/13
f 131/28/13 125/31/32 165/30/13 147/29/13
f 132/1/13 161/33/13 146/32/13 154/2/13
f 157/34/32 153/37/32 156/36/32 155/35/32
f 151/38/32 152/21/13 158/22/13 150/39/13
f 165/30/13 157/34/32 155/35/32 147/29/13
f 142/20/32 154/2/13 146/32/13 166/19/32
f 148/27/32 136/48/32 135/13/13 164/14/13
f 136/48/32 148/27/32 125/31/32 172/44/32
f 131/28/13 137/45/13 172/44/32 125/31/32
f 174/49/13 150/39/13 160/51/13 173/50/13
f 178/52/13 133/42/32 170/47/32 179/53/13
f 176/54/32 153/37/32 151/38/32 175/55/32
f 180/56/32 171/46/13 134/41/13 181/57/13
f 181/61/13 242/60/13 238/59/32 177/58/32
f 177/64/32 238/63/32 217/62/32 156/36/32
f 129/65/8 127/66/8 123/10/8 135/13/8
f 128/3/32 127/68/32 129/67/32 138/6/32
f 153/37/32 176/54/32 177/64/32 156/36/32
f 180/72/32 176/75/32 175/74/32 179/73/13
f 150/39/13 174/49/13 175/55/32 151/38/32
f 178/76/13 174/79/13 173/78/13 182/77/32
f 159/25/32 149/26/32 173/50/13 160/51/13
f 133/42/32 178/52/13 182/80/32 141/43/13
f 171/46/13 180/56/32 179/53/13 170/47/32
f 176/75/32 180/72/32 181/61/13 177/58/32
f 174/79/13 178/76/13 179/73/13 175/74/32
f 149/83/32 183/84/13 182/77/32 173/78/13
f 149/26/32 161/33/13 132/1/13 183/85/13
f 132/1/13 141/43/13 182/80/32 183/85/13
f 131/28/5 9/28/5 70/71/5 192/71/5
f 189/89/31 200/92/31 201/91/31 199/90/31
f 191/93/13 223/95/13 185/82/13 184/94/13
f 184/94/13 185/82/13 205/97/13 204/96/13
f 184/94/13 196/99/13 225/98/13 191/93/13
f 229/100/32 206/103/32 228/102/32 230/101/32
f 228/102/32 227/105/32 203/104/13 230/101/32
f 213/106/13 219/109/13 224/108/13 187/107/13
f 223/95/13 220/110/13 210/81/13 185/82/13
f 206/103/32 229/100/32 204/96/13 205/97/13
f 187/107/13 224/108/13 225/98/13 209/111/32
f 192/71/13 208/114/32 226/113/32 186/112/32
f 193/87/13 215/86/13 207/116/13 222/115/32
f 218/117/32 216/119/32 217/62/32 214/118/13
f 212/120/13 211/121/13 219/109/13 213/106/13
f 226/113/32 208/114/32 216/119/32 218/117/32
f 203/104/13 227/105/32 207/116/13 215/86/13
f 209/111/32 225/98/13 196/99/13 197/126/32
f 197/126/32 233/124/32 186/112/32 209/111/32
f 192/71/13 186/112/32 233/124/32 198/70/13
f 235/127/13 234/129/13 221/128/13 211/121/13
f 239/130/13 240/131/13 231/125/32 194/123/13
f 237/132/13 236/133/13 212/120/13 214/118/13
f 241/134/13 242/69/13 195/40/13 232/88/32
f 190/135/8 196/99/8 184/94/8 188/136/8
f 189/89/13 199/90/13 190/138/13 188/137/13
f 214/118/13 217/62/32 238/63/32 237/132/13
f 241/139/13 240/142/13 236/141/13 237/140/13
f 211/121/13 212/120/13 236/133/13 235/127/13
f 239/143/13 243/146/13 234/145/13 235/144/13
f 220/110/13 221/128/13 234/129/13 210/81/13
f 194/123/13 202/122/32 243/147/13 239/130/13
f 232/88/32 231/125/32 240/131/13 241/134/13
f 237/140/13 238/59/32 242/60/13 241/139/13
f 235/144/13 236/141/13 240/142/13 239/143/13
f 210/148/13 234/145/13 243/146/13 244/149/32
f 210/81/13 244/150/32 193/87/13 222/115/32
f 193/87/13 244/150/32 243/147/13 202/122/32
f 59/57/3 120/69/3 73/40/4 12/41/3
f 79/91/8 201/91/8 200/92/8 78/92/8
