# Blender 5.1.0
# www.blender.org
mtllib barriere55_090.mtl
o barriere55.090
v 25.843506 0.406543 13.632737
v 25.801153 0.597167 13.679617
v 26.234785 0.643227 13.199651
v 26.132349 0.684294 13.313033
v 25.861645 0.406543 13.594620
v 25.861645 0.372826 13.594620
v 25.966406 0.406543 13.478665
v 25.945202 0.643227 13.520177
v 26.438175 0.643227 12.974529
v 25.686558 1.574803 13.806457
v 25.980444 1.574800 13.481169
v 26.391254 1.574800 13.026463
v 25.980444 0.406543 13.481169
v 26.117380 0.406543 13.329599
v 26.391254 0.406543 13.026463
v 25.966406 0.372826 13.478665
v 25.993443 0.224802 13.754925
v 26.140602 0.224802 13.592041
v 25.801153 1.574800 13.679615
v 25.597021 1.411594 13.905560
v 25.762701 0.406543 13.722177
v 25.741812 0.558042 13.745298
v 25.698715 0.558042 13.793000
v 25.698715 1.334637 13.793000
v 26.378834 0.684294 13.040212
v 26.191689 0.643227 13.247353
v 25.801153 1.295512 13.679615
v 25.988298 1.249448 13.472474
v 26.191689 1.249448 13.247353
v 26.132349 1.208382 13.313033
v 26.234785 1.249448 13.199651
v 25.625973 1.519066 13.873513
v 26.378834 1.208382 13.040212
v 26.438175 1.249448 12.974529
v 26.294127 1.208382 13.133968
v 26.047640 1.208382 13.406793
v 25.885860 1.208382 13.585857
v 25.945202 1.249451 13.520177
v 25.741812 1.334637 13.745298
v 25.885860 0.684294 13.585857
v 26.047640 0.684294 13.406793
v 25.988298 0.643227 13.472474
v 26.294127 0.684294 13.133968
v 25.639374 1.295509 13.858682
v 25.639374 0.597167 13.858682
v 25.659914 0.442268 13.835946
v 25.597021 0.546413 13.905560
v 26.117380 1.574800 13.329599
v 26.254318 1.574800 13.178031
v 26.254318 0.406543 13.178031
v 25.930803 1.295512 13.536112
v 25.987186 1.295512 13.473705
v 26.181168 1.295512 13.258998
v 26.237551 1.295512 13.196590
v 26.431532 1.295512 12.981882
v 25.981894 1.514731 13.479564
v 26.131100 1.514731 13.314415
v 26.250711 1.514731 13.182023
v 26.399918 1.514731 13.016874
v 25.829039 1.514732 13.648751
v 25.801153 1.514732 13.679615
v 27.075636 0.406543 12.268956
v 27.117990 0.597167 12.222076
v 26.684357 0.643227 12.702043
v 26.786795 0.684294 12.588660
v 27.039549 0.406543 12.290857
v 27.039549 0.372826 12.290857
v 26.934788 0.406543 12.406812
v 26.973942 0.643227 12.381516
v 26.480968 0.643227 12.927164
v 27.232586 1.574803 12.095237
v 26.938700 1.574800 12.420525
v 26.527887 1.574800 12.875231
v 26.938700 0.406543 12.420525
v 26.801762 0.406543 12.572094
v 26.527887 0.406543 12.875231
v 26.934788 0.372826 12.406812
v 27.212364 0.224802 12.405761
v 27.065205 0.224802 12.568645
v 27.117989 1.574800 12.222078
v 27.322123 1.411594 11.996133
v 27.156441 0.406543 12.179517
v 27.177332 0.558042 12.156395
v 27.220428 0.558042 12.108693
v 27.220428 1.334637 12.108693
v 26.540310 0.684294 12.861482
v 26.727455 0.643227 12.654341
v 27.117989 1.295512 12.222078
v 26.930843 1.249448 12.429219
v 26.727455 1.249448 12.654341
v 26.786795 1.208382 12.588660
v 26.684357 1.249448 12.702043
v 27.293169 1.519066 12.028180
v 26.540310 1.208382 12.861482
v 26.480968 1.249448 12.927164
v 26.625015 1.208382 12.767725
v 26.871504 1.208382 12.494901
v 27.033281 1.208382 12.315836
v 26.973942 1.249451 12.381516
v 27.177332 1.334637 12.156395
v 27.033281 0.684294 12.315836
v 26.871504 0.684294 12.494901
v 26.930843 0.643227 12.429219
v 26.625015 0.684294 12.767725
v 27.279768 1.295509 12.043012
v 27.279768 0.597167 12.043012
v 27.259228 0.442268 12.065747
v 27.322123 0.546413 11.996133
v 26.801762 1.574800 12.572094
v 26.664825 1.574800 12.723662
v 26.664825 0.406543 12.723662
v 26.988338 1.295512 12.365582
v 26.931955 1.295512 12.427988
v 26.737974 1.295512 12.642695
v 26.681591 1.295512 12.705103
v 26.487612 1.295512 12.919811
v 26.937248 1.514731 12.422130
v 26.788042 1.514731 12.587278
v 26.668430 1.514731 12.719670
v 26.519224 1.514731 12.884819
v 27.090103 1.514732 12.252942
v 27.117989 1.514732 12.222078
v 25.776400 0.406543 13.572108
v 25.734045 0.597167 13.618988
v 26.167679 0.643227 13.139022
v 26.065241 0.684294 13.252404
v 25.812487 0.406543 13.550207
v 25.812487 0.372826 13.550207
v 25.917248 0.406543 13.434253
v 25.878094 0.643227 13.459548
v 26.371067 0.643227 12.913900
v 25.619450 1.574803 13.745828
v 25.913336 1.574800 13.420540
v 26.324148 1.574800 12.965834
v 25.913336 0.406543 13.420540
v 26.050274 0.406543 13.268970
v 26.324148 0.406543 12.965834
v 25.917248 0.372826 13.434253
v 25.639671 0.224802 13.435304
v 25.786831 0.224802 13.272420
v 25.734047 1.574800 13.618986
v 25.529913 1.411594 13.844932
v 25.695595 0.406543 13.661548
v 25.674704 0.558042 13.684669
v 25.631607 0.558042 13.732371
v 25.631607 1.334637 13.732371
v 26.311726 0.684294 12.979583
v 26.124580 0.643227 13.186724
v 25.734047 1.295512 13.618986
v 25.921192 1.249448 13.411845
v 26.124580 1.249448 13.186724
v 26.065241 1.208382 13.252404
v 26.167679 1.249448 13.139022
v 25.558867 1.519066 13.812884
v 26.311726 1.208382 12.979583
v 26.371067 1.249448 12.913900
v 26.227020 1.208382 13.073339
v 25.980532 1.208382 13.346164
v 25.818754 1.208382 13.525229
v 25.878094 1.249451 13.459547
v 25.674704 1.334637 13.684669
v 25.818754 0.684294 13.525229
v 25.980532 0.684294 13.346164
v 25.921192 0.643227 13.411845
v 26.227020 0.684294 13.073339
v 25.572266 1.295509 13.798053
v 25.572268 0.597167 13.798053
v 25.592808 0.442268 13.775317
v 25.529913 0.546413 13.844932
v 26.050274 1.574800 13.268970
v 26.187210 1.574800 13.117402
v 26.187210 0.406543 13.117402
v 25.863697 1.295512 13.475483
v 25.920080 1.295512 13.413076
v 26.114061 1.295512 13.198368
v 26.170443 1.295512 13.135961
v 26.364424 1.295512 12.921253
v 25.914787 1.514731 13.418934
v 26.063993 1.514731 13.253786
v 26.183605 1.514731 13.121393
v 26.332811 1.514731 12.956245
v 25.761932 1.514732 13.588122
v 25.734047 1.514732 13.618986
v 27.008530 0.406543 12.208327
v 27.050882 0.597167 12.161448
v 26.617250 0.643227 12.641414
v 26.719687 0.684294 12.528031
v 26.990391 0.406543 12.246445
v 26.990391 0.372826 12.246445
v 26.885630 0.406543 12.362399
v 26.906834 0.643227 12.320888
v 26.413860 0.643227 12.866534
v 27.165478 1.574803 12.034608
v 26.871592 1.574800 12.359896
v 26.460781 1.574800 12.814602
v 26.871592 0.406543 12.359896
v 26.734655 0.406543 12.511465
v 26.460781 0.406543 12.814602
v 26.885630 0.372826 12.362399
v 26.858593 0.224802 12.086140
v 26.711433 0.224802 12.249023
v 27.050882 1.574800 12.161449
v 27.255014 1.411594 11.935504
v 27.089334 0.406543 12.118888
v 27.110224 0.558042 12.095766
v 27.153320 0.558042 12.048064
v 27.153320 1.334637 12.048064
v 26.473202 0.684294 12.800853
v 26.660347 0.643227 12.593711
v 27.050882 1.295512 12.161449
v 26.863737 1.249448 12.368590
v 26.660347 1.249448 12.593711
v 26.719687 1.208382 12.528031
v 26.617250 1.249448 12.641414
v 27.226063 1.519066 11.967551
v 26.473202 1.208382 12.800853
v 26.413860 1.249448 12.866534
v 26.557907 1.208382 12.707096
v 26.804396 1.208382 12.434271
v 26.966175 1.208382 12.255207
v 26.906834 1.249451 12.320888
v 27.110224 1.334637 12.095766
v 26.966175 0.684294 12.255207
v 26.804396 0.684294 12.434272
v 26.863737 0.643227 12.368590
v 26.557907 0.684294 12.707096
v 27.212662 1.295509 11.982383
v 27.212662 0.597167 11.982383
v 27.192122 0.442268 12.005118
v 27.255014 0.546413 11.935504
v 26.734655 1.574800 12.511464
v 26.597717 1.574800 12.663033
v 26.597717 0.406543 12.663033
v 26.921232 1.295512 12.304953
v 26.864849 1.295512 12.367359
v 26.670868 1.295512 12.582067
v 26.614485 1.295512 12.644474
v 26.420504 1.295512 12.859182
v 26.870142 1.514731 12.361501
v 26.720936 1.514731 12.526649
v 26.601324 1.514731 12.659041
v 26.452118 1.514731 12.824190
v 27.022997 1.514732 12.192313
v 27.050882 1.514732 12.161449
vn -0.3519 0.8511 0.3895
vn 0.4340 0.8111 0.3921
vn 0.7420 -0.0000 0.6704
vn -0.0000 1.0000 -0.0000
vn -0.1521 -0.9739 0.1684
vn -0.4981 -0.6693 0.5513
vn -0.0000 -1.0000 -0.0000
vn -0.6704 -0.0000 0.7420
vn -0.6220 0.3729 0.6885
vn -0.6565 0.2024 0.7267
vn 0.2821 0.9071 -0.3123
vn -0.7420 -0.0000 -0.6704
vn 0.2821 -0.9071 -0.3123
vn -0.2821 -0.9071 0.3123
vn 0.6704 -0.0000 -0.7420
vn -0.2821 0.9071 0.3123
vn 0.3519 0.8511 -0.3895
vn 0.1521 -0.9739 -0.1684
vn 0.4981 -0.6693 -0.5513
vn 0.6220 0.3729 -0.6885
vn 0.6565 0.2024 -0.7267
vn 0.2710 -0.9146 -0.3000
vn -0.2710 -0.9146 0.3000
vn -0.2710 0.9146 0.3000
vn 0.2710 0.9146 -0.3000
vn -0.6546 0.2154 0.7246
vn 0.6546 0.2154 -0.7246
vn -0.4340 0.8111 -0.3921
vt 0.563424 0.076340
vt 0.553130 0.073518
vt 0.930572 0.423953
vt 0.921307 0.379121
vt 0.987792 0.379121
vt 0.977903 0.423953
vt 0.607372 0.029178
vt 0.597289 0.031257
vt 0.582896 0.026846
vt 0.590093 0.017196
vt 0.572813 0.024865
vt 0.576362 0.017196
vt 0.613360 0.017196
vt 0.614695 0.029178
vt 0.558897 0.019004
vt 0.565490 0.024865
vt 0.555407 0.026846
vt 0.548211 0.024277
vt 0.555407 0.062200
vt 0.548211 0.068077
vt 0.639171 0.057790
vt 0.624778 0.057790
vt 0.624778 0.031257
vt 0.639171 0.031257
vt 0.597289 0.057790
vt 0.582896 0.062201
vt 0.649254 0.029178
vt 0.691136 0.029178
vt 0.681053 0.031257
vt 0.666660 0.031257
vt 0.656577 0.029178
vt 0.565490 0.064181
vt 0.572813 0.064181
vt 0.666660 0.057790
vt 0.681053 0.057790
vt 0.691136 0.059869
vt 0.656577 0.059869
vt 0.649254 0.059869
vt 0.614695 0.059869
vt 0.706379 0.076340
vt 0.683164 0.076340
vt 0.613360 0.076340
vt 0.582896 0.076340
vt 0.659896 0.017196
vt 0.683164 0.017196
vt 0.659896 0.076340
vt 0.636628 0.076340
vt 0.636628 0.017196
vt 0.614506 0.062201
vt 0.604926 0.062201
vt 0.607372 0.059869
vt 0.613607 0.073299
vt 0.638959 0.073299
vt 0.657047 0.062201
vt 0.647466 0.062201
vt 0.659283 0.073299
vt 0.684635 0.073299
vt 0.688839 0.081258
vt 0.699816 0.081258
vt 0.706005 0.126709
vt 0.682651 0.126709
vt 0.698407 0.059869
vt 0.699536 0.062201
vt 0.690007 0.062201
vt 0.612500 0.017196
vt 0.594699 0.017196
vt 0.977903 0.434165
vt 0.930572 0.434165
vt 0.704907 0.073299
vt 0.706379 0.017196
vt 0.698407 0.029178
vt 0.653445 0.126709
vt 0.630032 0.126709
vt 0.639832 0.081258
vt 0.650869 0.081258
vt 0.600826 0.126709
vt 0.570905 0.126710
vt 0.590825 0.081258
vt 0.601862 0.081258
vt 0.587634 0.073299
vt 0.806647 0.062201
vt 0.806647 0.026846
vt 0.565447 0.081258
vt 0.565447 0.126710
vt 0.582896 0.073299
vt 0.836413 0.073518
vt 0.826118 0.076340
vt 0.729647 0.076340
vt 0.978547 0.423953
vt 0.931216 0.423953
vt 0.921327 0.379121
vt 0.987812 0.379121
vt 0.782171 0.029178
vt 0.799450 0.017196
vt 0.792254 0.031257
vt 0.813181 0.017196
vt 0.816730 0.024865
vt 0.774848 0.029178
vt 0.776183 0.017196
vt 0.830646 0.019004
vt 0.841332 0.024277
vt 0.834136 0.026846
vt 0.824053 0.024865
vt 0.841332 0.068077
vt 0.834136 0.062200
vt 0.750372 0.057790
vt 0.750372 0.031257
vt 0.764765 0.031257
vt 0.764765 0.057790
vt 0.792254 0.057790
vt 0.740289 0.029178
vt 0.732966 0.029178
vt 0.722883 0.031257
vt 0.708490 0.031257
vt 0.816730 0.064181
vt 0.824053 0.064181
vt 0.722883 0.057790
vt 0.732966 0.059869
vt 0.708490 0.057790
vt 0.740289 0.059869
vt 0.774848 0.059869
vt 0.806647 0.076340
vt 0.776183 0.076340
vt 0.729647 0.017196
vt 0.752915 0.076340
vt 0.752915 0.017196
vt 0.775037 0.062201
vt 0.782171 0.059869
vt 0.784617 0.062201
vt 0.775936 0.073299
vt 0.750584 0.073299
vt 0.732496 0.062201
vt 0.742077 0.062201
vt 0.730260 0.073299
vt 0.777043 0.017196
vt 0.794844 0.017196
vt 0.978547 0.434165
vt 0.931216 0.434165
vt 0.735211 0.126709
vt 0.737787 0.081258
vt 0.748824 0.081258
vt 0.758624 0.126709
vt 0.787830 0.126709
vt 0.786794 0.081258
vt 0.797831 0.081258
vt 0.817751 0.126710
vt 0.801909 0.073299
vt 0.823209 0.081258
vt 0.823209 0.126710
vt 0.806647 0.073299
s 1
usemtl initialShadingGroup.004
f 10/1/1 132/1/1 154/2/1 32/2/1
f 6/3/2 17/4/2 18/5/2 16/6/2
f 8/7/3 40/8/3 2/9/3 1/10/3
f 1/10/3 2/9/3 22/11/3 21/12/3
f 1/10/3 13/13/3 42/14/3 8/7/3
f 46/15/3 23/16/3 45/17/3 47/18/3
f 45/17/3 44/19/3 20/20/3 47/18/3
f 30/21/3 36/22/3 41/23/3 4/24/3
f 40/8/3 37/25/3 27/26/3 2/9/3
f 23/16/3 46/15/3 21/12/3 22/11/3
f 4/24/3 41/23/3 42/14/3 26/27/3
f 9/28/3 25/29/3 43/30/3 3/31/3
f 10/1/3 32/2/3 24/32/3 39/33/3
f 35/34/3 33/35/3 34/36/3 31/37/3
f 29/38/3 28/39/3 36/22/3 30/21/3
f 43/30/3 25/29/3 33/35/3 35/34/3
f 73/40/4 195/40/4 134/41/4 12/41/4
f 46/15/5 168/15/5 143/12/5 21/12/5
f 11/42/4 133/42/4 141/43/4 19/43/4
f 47/18/6 169/18/6 168/15/6 46/15/6
f 50/44/7 172/44/7 137/45/7 15/45/7
f 19/43/4 141/43/4 132/1/4 10/1/4
f 20/20/3 44/19/3 24/32/3 32/2/3
f 49/46/4 171/46/4 170/47/4 48/47/4
f 26/27/3 42/14/3 13/13/3 14/48/3
f 14/48/3 50/44/3 3/31/3 26/27/3
f 9/28/3 3/31/3 50/44/3 15/45/3
f 52/49/3 51/50/3 38/51/3 28/39/3
f 56/52/3 57/53/3 48/47/3 11/42/3
f 54/54/3 53/55/3 29/38/3 31/37/3
f 58/56/3 59/57/3 12/41/3 49/46/3
f 55/58/3 116/59/3 120/60/3 59/61/3
f 13/13/7 135/13/7 136/48/7 14/48/7
f 20/20/8 142/20/8 169/18/8 47/18/8
f 34/36/3 95/62/3 116/63/3 55/64/3
f 48/47/4 170/47/4 133/42/4 11/42/4
f 32/2/9 154/2/9 142/20/9 20/20/9
f 14/48/7 136/48/7 172/44/7 50/44/7
f 7/65/7 13/13/7 1/10/7 5/66/7
f 6/3/3 16/6/3 7/67/3 5/68/3
f 139/4/10 17/4/10 6/3/10 128/3/10
f 5/68/8 127/68/8 128/3/8 6/3/8
f 7/65/7 129/65/7 135/13/7 13/13/7
f 1/10/7 123/10/7 127/66/7 5/66/7
f 3/31/4 125/31/4 148/27/4 26/27/4
f 26/27/11 148/27/11 126/24/11 4/24/11
f 134/41/12 195/40/12 242/69/12 181/57/12
f 156/36/7 217/62/7 95/62/7 34/36/7
f 33/35/13 155/35/13 156/36/13 34/36/13
f 37/25/13 159/25/13 160/51/13 38/51/13
f 31/37/14 153/37/14 157/34/14 35/34/14
f 25/29/15 147/29/15 155/35/15 33/35/15
f 9/28/11 131/28/11 147/29/11 25/29/11
f 4/24/15 126/24/15 152/21/15 30/21/15
f 8/7/11 130/7/11 162/8/11 40/8/11
f 40/8/15 162/8/15 159/25/15 37/25/15
f 43/30/16 165/30/16 125/31/16 3/31/16
f 38/51/7 160/51/7 150/39/7 28/39/7
f 76/70/3 70/71/3 9/28/3 15/45/3
f 36/22/8 158/22/8 163/23/8 41/23/8
f 35/34/8 157/34/8 165/30/8 43/30/8
f 42/14/4 164/14/4 130/7/4 8/7/4
f 28/39/14 150/39/14 158/22/14 36/22/14
f 31/37/3 34/36/3 55/64/3 54/54/3
f 58/72/3 57/73/3 53/74/3 54/75/3
f 28/39/3 29/38/3 53/55/3 52/49/3
f 56/76/3 60/77/3 51/78/3 52/79/3
f 37/25/3 38/51/3 51/50/3 27/26/3
f 11/42/3 19/43/3 60/80/3 56/52/3
f 49/46/3 48/47/3 57/53/3 58/56/3
f 210/81/15 88/81/15 63/82/15 185/82/15
f 54/75/3 55/58/3 59/61/3 58/72/3
f 52/79/3 53/74/3 57/73/3 56/76/3
f 27/83/3 51/78/3 60/77/3 61/84/3
f 27/26/3 61/85/3 10/1/3 39/33/3
f 10/1/3 61/85/3 60/80/3 19/43/3
f 12/41/4 134/41/4 171/46/4 49/46/4
f 41/23/16 163/23/16 164/14/16 42/14/16
f 15/45/7 137/45/7 198/70/7 76/70/7
f 93/86/17 215/86/17 193/87/17 71/87/17
f 110/88/4 232/88/4 195/40/4 73/40/4
f 67/89/2 77/90/2 79/91/2 78/92/2
f 69/93/3 62/94/3 63/82/3 101/95/3
f 62/94/3 82/96/3 83/97/3 63/82/3
f 62/94/3 69/93/3 103/98/3 74/99/3
f 107/100/3 108/101/3 106/102/3 84/103/3
f 106/102/3 108/101/3 81/104/3 105/105/3
f 91/106/3 65/107/3 102/108/3 97/109/3
f 101/95/3 63/82/3 88/81/3 98/110/3
f 84/103/3 83/97/3 82/96/3 107/100/3
f 65/107/3 87/111/3 103/98/3 102/108/3
f 70/71/3 64/112/3 104/113/3 86/114/3
f 71/87/3 100/115/3 85/116/3 93/86/3
f 96/117/3 92/118/3 95/62/3 94/119/3
f 90/120/3 91/106/3 97/109/3 89/121/3
f 104/113/3 96/117/3 94/119/3 86/114/3
f 198/70/12 137/45/12 131/28/12 192/71/12
f 82/96/18 204/96/18 229/100/18 107/100/18
f 80/122/4 202/122/4 194/123/4 72/123/4
f 107/100/19 229/100/19 230/101/19 108/101/19
f 76/70/7 198/70/7 233/124/7 111/124/7
f 71/87/4 193/87/4 202/122/4 80/122/4
f 81/104/3 93/86/3 85/116/3 105/105/3
f 109/125/4 231/125/4 232/88/4 110/88/4
f 87/111/3 75/126/3 74/99/3 103/98/3
f 75/126/3 87/111/3 64/112/3 111/124/3
f 70/71/3 76/70/3 111/124/3 64/112/3
f 113/127/3 89/121/3 99/128/3 112/129/3
f 117/130/3 72/123/3 109/125/3 118/131/3
f 115/132/3 92/118/3 90/120/3 114/133/3
f 119/134/3 110/88/3 73/40/3 120/69/3
f 75/126/7 197/126/7 196/99/7 74/99/7
f 108/101/15 230/101/15 203/104/15 81/104/15
f 72/123/4 194/123/4 231/125/4 109/125/4
f 103/98/11 225/98/11 224/108/11 102/108/11
f 81/104/20 203/104/20 215/86/20 93/86/20
f 111/124/7 233/124/7 197/126/7 75/126/7
f 68/135/7 66/136/7 62/94/7 74/99/7
f 67/89/3 66/137/3 68/138/3 77/90/3
f 200/92/21 189/89/21 67/89/21 78/92/21
f 67/89/15 189/89/15 188/137/15 66/137/15
f 74/99/7 196/99/7 190/135/7 68/135/7
f 66/136/7 188/136/7 184/94/7 62/94/7
f 87/111/4 209/111/4 186/112/4 64/112/4
f 65/107/16 187/107/16 209/111/16 87/111/16
f 97/109/13 219/109/13 211/121/13 89/121/13
f 95/62/14 217/62/14 216/119/14 94/119/14
f 99/128/14 221/128/14 220/110/14 98/110/14
f 96/117/13 218/117/13 214/118/13 92/118/13
f 94/119/8 216/119/8 208/114/8 86/114/8
f 86/114/16 208/114/16 192/71/16 70/71/16
f 91/106/8 213/106/8 187/107/8 65/107/8
f 101/95/16 223/95/16 191/93/16 69/93/16
f 98/110/8 220/110/8 223/95/8 101/95/8
f 64/112/11 186/112/11 226/113/11 104/113/11
f 89/121/7 211/121/7 221/128/7 99/128/7
f 102/108/15 224/108/15 219/109/15 97/109/15
f 104/113/15 226/113/15 218/117/15 96/117/15
f 69/93/4 191/93/4 225/98/4 103/98/4
f 92/118/3 115/132/3 116/63/3 95/62/3
f 119/139/3 115/140/3 114/141/3 118/142/3
f 89/121/3 113/127/3 114/133/3 90/120/3
f 117/143/3 113/144/3 112/145/3 121/146/3
f 98/110/3 88/81/3 112/129/3 99/128/3
f 72/123/3 117/130/3 121/147/3 80/122/3
f 110/88/3 119/134/3 118/131/3 109/125/3
f 115/140/3 119/139/3 120/60/3 116/59/3
f 113/144/3 117/143/3 118/142/3 114/141/3
f 88/148/3 122/149/3 121/146/3 112/145/3
f 88/81/3 100/115/3 71/87/3 122/150/3
f 71/87/3 80/122/3 121/147/3 122/150/3
f 17/4/7 139/4/7 140/5/7 18/5/7
f 149/26/8 124/9/8 2/9/8 27/26/8
f 222/115/22 100/115/22 88/81/22 210/81/22
f 222/115/7 207/116/7 85/116/7 100/115/7
f 207/116/23 227/105/23 105/105/23 85/116/23
f 227/105/8 228/102/8 106/102/8 105/105/8
f 206/103/24 84/103/24 106/102/24 228/102/24
f 206/103/4 205/97/4 83/97/4 84/103/4
f 185/82/25 63/82/25 83/97/25 205/97/25
f 213/106/14 91/106/14 90/120/14 212/120/14
f 199/90/8 77/90/8 68/138/8 190/138/8
f 199/90/26 201/91/26 79/91/26 77/90/26
f 62/94/7 184/94/7 204/96/7 82/96/7
f 92/118/7 214/118/7 212/120/7 90/120/7
f 161/33/23 149/26/23 27/26/23 39/33/23
f 161/33/7 39/33/7 24/32/7 146/32/7
f 146/32/22 24/32/22 44/19/22 166/19/22
f 166/19/15 44/19/15 45/17/15 167/17/15
f 145/16/25 167/17/25 45/17/25 23/16/25
f 145/16/4 23/16/4 22/11/4 144/11/4
f 124/9/24 144/11/24 22/11/24 2/9/24
f 152/21/13 151/38/13 29/38/13 30/21/13
f 138/6/15 129/67/15 7/67/15 16/6/15
f 138/6/27 16/6/27 18/5/27 140/5/27
f 21/12/7 143/12/7 123/10/7 1/10/7
f 29/38/7 151/38/7 153/37/7 31/37/7
f 128/3/28 138/6/28 140/5/28 139/4/28
f 130/7/12 123/10/12 124/9/12 162/8/12
f 123/10/12 143/12/12 144/11/12 124/9/12
f 123/10/12 130/7/12 164/14/12 135/13/12
f 168/15/12 169/18/12 167/17/12 145/16/12
f 167/17/12 169/18/12 142/20/12 166/19/12
f 152/21/12 126/24/12 163/23/12 158/22/12
f 162/8/12 124/9/12 149/26/12 159/25/12
f 145/16/12 144/11/12 143/12/12 168/15/12
f 126/24/12 148/27/12 164/14/12 163/23/12
f 131/28/12 125/31/12 165/30/12 147/29/12
f 132/1/12 161/33/12 146/32/12 154/2/12
f 157/34/12 153/37/12 156/36/12 155/35/12
f 151/38/12 152/21/12 158/22/12 150/39/12
f 165/30/12 157/34/12 155/35/12 147/29/12
f 142/20/12 154/2/12 146/32/12 166/19/12
f 148/27/12 136/48/12 135/13/12 164/14/12
f 136/48/12 148/27/12 125/31/12 172/44/12
f 131/28/12 137/45/12 172/44/12 125/31/12
f 174/49/12 150/39/12 160/51/12 173/50/12
f 178/52/12 133/42/12 170/47/12 179/53/12
f 176/54/12 153/37/12 151/38/12 175/55/12
f 180/56/12 171/46/12 134/41/12 181/57/12
f 181/61/12 242/60/12 238/59/12 177/58/12
f 177/64/12 238/63/12 217/62/12 156/36/12
f 129/65/7 127/66/7 123/10/7 135/13/7
f 128/3/12 127/68/12 129/67/12 138/6/12
f 153/37/12 176/54/12 177/64/12 156/36/12
f 180/72/12 176/75/12 175/74/12 179/73/12
f 150/39/12 174/49/12 175/55/12 151/38/12
f 178/76/12 174/79/12 173/78/12 182/77/12
f 159/25/12 149/26/12 173/50/12 160/51/12
f 133/42/12 178/52/12 182/80/12 141/43/12
f 171/46/12 180/56/12 179/53/12 170/47/12
f 176/75/12 180/72/12 181/61/12 177/58/12
f 174/79/12 178/76/12 179/73/12 175/74/12
f 149/83/12 183/84/12 182/77/12 173/78/12
f 149/26/12 161/33/12 132/1/12 183/85/12
f 132/1/12 141/43/12 182/80/12 183/85/12
f 131/28/4 9/28/4 70/71/4 192/71/4
f 189/89/28 200/92/28 201/91/28 199/90/28
f 191/93/12 223/95/12 185/82/12 184/94/12
f 184/94/12 185/82/12 205/97/12 204/96/12
f 184/94/12 196/99/12 225/98/12 191/93/12
f 229/100/12 206/103/12 228/102/12 230/101/12
f 228/102/12 227/105/12 203/104/12 230/101/12
f 213/106/12 219/109/12 224/108/12 187/107/12
f 223/95/12 220/110/12 210/81/12 185/82/12
f 206/103/12 229/100/12 204/96/12 205/97/12
f 187/107/12 224/108/12 225/98/12 209/111/12
f 192/71/12 208/114/12 226/113/12 186/112/12
f 193/87/12 215/86/12 207/116/12 222/115/12
f 218/117/12 216/119/12 217/62/12 214/118/12
f 212/120/12 211/121/12 219/109/12 213/106/12
f 226/113/12 208/114/12 216/119/12 218/117/12
f 203/104/12 227/105/12 207/116/12 215/86/12
f 209/111/12 225/98/12 196/99/12 197/126/12
f 197/126/12 233/124/12 186/112/12 209/111/12
f 192/71/12 186/112/12 233/124/12 198/70/12
f 235/127/12 234/129/12 221/128/12 211/121/12
f 239/130/12 240/131/12 231/125/12 194/123/12
f 237/132/12 236/133/12 212/120/12 214/118/12
f 241/134/12 242/69/12 195/40/12 232/88/12
f 190/135/7 196/99/7 184/94/7 188/136/7
f 189/89/12 199/90/12 190/138/12 188/137/12
f 214/118/12 217/62/12 238/63/12 237/132/12
f 241/139/12 240/142/12 236/141/12 237/140/12
f 211/121/12 212/120/12 236/133/12 235/127/12
f 239/143/12 243/146/12 234/145/12 235/144/12
f 220/110/12 221/128/12 234/129/12 210/81/12
f 194/123/12 202/122/12 243/147/12 239/130/12
f 232/88/12 231/125/12 240/131/12 241/134/12
f 237/140/12 238/59/12 242/60/12 241/139/12
f 235/144/12 236/141/12 240/142/12 239/143/12
f 210/148/12 234/145/12 243/146/12 244/149/12
f 210/81/12 244/150/12 193/87/12 222/115/12
f 193/87/12 244/150/12 243/147/12 202/122/12
f 59/57/3 120/69/3 73/40/3 12/41/3
f 79/91/7 201/91/7 200/92/7 78/92/7
