# Blender 5.1.0
# www.blender.org
mtllib barriere55_141.mtl
o barriere55.141
v 8.328842 0.406545 33.235668
v 8.296792 0.597169 33.290115
v 8.624935 0.643228 32.732685
v 8.547418 0.684295 32.864368
v 8.338936 0.406545 33.194683
v 8.338936 0.372828 33.194683
v 8.418212 0.406545 33.060013
v 8.405798 0.643229 33.104942
v 8.778847 0.643228 32.471233
v 8.210073 1.574805 33.437424
v 8.432467 1.574801 33.059639
v 8.743340 1.574801 32.531548
v 8.432467 0.406545 33.059639
v 8.536092 0.406544 32.883610
v 8.743340 0.406544 32.531548
v 8.418212 0.372828 33.060013
v 8.500304 0.224804 33.325176
v 8.611665 0.224804 33.136002
v 8.296792 1.574801 33.290112
v 8.142318 1.411595 33.552525
v 8.267694 0.406545 33.339542
v 8.251886 0.558043 33.366398
v 8.219274 0.558043 33.421799
v 8.219274 1.334638 33.421799
v 8.733941 0.684295 32.547516
v 8.592322 0.643229 32.788086
v 8.296792 1.295514 33.290112
v 8.438411 1.249449 33.049541
v 8.592322 1.249449 32.788086
v 8.547418 1.208384 32.864368
v 8.624935 1.249449 32.732685
v 8.164227 1.519068 33.515305
v 8.733941 1.208384 32.547516
v 8.778847 1.249449 32.471233
v 8.669841 1.208384 32.656403
v 8.483316 1.208384 32.973259
v 8.360893 1.208384 33.181225
v 8.405798 1.249452 33.104942
v 8.251886 1.334638 33.366398
v 8.360893 0.684295 33.181225
v 8.483316 0.684295 32.973259
v 8.438411 0.643229 33.049541
v 8.669841 0.684295 32.656403
v 8.174368 1.295511 33.498077
v 8.174368 0.597169 33.498077
v 8.189912 0.442270 33.471676
v 8.142318 0.546414 33.552525
v 8.536092 1.574801 32.883610
v 8.639716 1.574801 32.707577
v 8.639716 0.406544 32.707577
v 8.394903 1.295514 33.123451
v 8.437570 1.295514 33.050972
v 8.584361 1.295514 32.801613
v 8.627028 1.295514 32.729134
v 8.773819 1.295514 32.479771
v 8.433564 1.514732 33.057774
v 8.546474 1.514732 32.865974
v 8.636987 1.514732 32.712212
v 8.749896 1.514732 32.520412
v 8.317894 1.514734 33.254269
v 8.296792 1.514734 33.290112
v 9.261234 0.406544 31.651787
v 9.293284 0.597168 31.597342
v 8.965140 0.643228 32.154770
v 9.042658 0.684295 32.023087
v 9.230294 0.406544 31.680502
v 9.230294 0.372827 31.680502
v 9.151018 0.406544 31.815172
v 9.184278 0.643228 31.782513
v 8.811230 0.643228 32.416222
v 9.380002 1.574804 31.450029
v 9.157609 1.574801 31.827816
v 8.846735 1.574801 32.355907
v 9.157609 0.406544 31.827816
v 9.053985 0.406544 32.003845
v 8.846735 0.406544 32.355907
v 9.151018 0.372827 31.815172
v 9.422702 0.224803 31.758268
v 9.311341 0.224803 31.947439
v 9.293283 1.574801 31.597342
v 9.447758 1.411595 31.334930
v 9.322382 0.406544 31.547913
v 9.338190 0.558043 31.521059
v 9.370803 0.558043 31.465658
v 9.370802 1.334638 31.465658
v 8.856135 0.684295 32.339939
v 8.997754 0.643228 32.099369
v 9.293283 1.295513 31.597342
v 9.151665 1.249449 31.837914
v 8.997754 1.249449 32.099369
v 9.042658 1.208383 32.023087
v 8.965140 1.249449 32.154770
v 9.425848 1.519067 31.372150
v 8.856135 1.208383 32.339939
v 8.811230 1.249449 32.416222
v 8.920235 1.208383 32.231052
v 9.106760 1.208383 31.914196
v 9.229183 1.208383 31.706232
v 9.184278 1.249452 31.782513
v 9.338190 1.334638 31.521059
v 9.229183 0.684295 31.706232
v 9.106760 0.684295 31.914196
v 9.151665 0.643228 31.837914
v 8.920235 0.684295 32.231052
v 9.415708 1.295510 31.389376
v 9.415708 0.597168 31.389376
v 9.400164 0.442269 31.415781
v 9.447758 0.546414 31.334930
v 9.053985 1.574801 32.003845
v 8.950359 1.574801 32.179878
v 8.950359 0.406544 32.179878
v 9.195173 1.295513 31.764006
v 9.152507 1.295513 31.836485
v 9.005715 1.295513 32.085842
v 8.963048 1.295513 32.158325
v 8.816257 1.295514 32.407684
v 9.156511 1.514732 31.829681
v 9.043603 1.514732 32.021484
v 8.953089 1.514732 32.175243
v 8.840179 1.514732 32.367043
v 9.272182 1.514733 31.633188
v 9.293283 1.514733 31.597342
v 8.250904 0.406545 33.189789
v 8.218854 0.597169 33.244236
v 8.546997 0.643228 32.686806
v 8.469481 0.684295 32.818489
v 8.281844 0.406545 33.161072
v 8.281844 0.372828 33.161072
v 8.361120 0.406545 33.026405
v 8.327860 0.643229 33.059063
v 8.700909 0.643228 32.425354
v 8.132136 1.574805 33.391544
v 8.354529 1.574801 33.013760
v 8.665403 1.574801 32.485668
v 8.354529 0.406545 33.013760
v 8.458154 0.406544 32.837730
v 8.665403 0.406544 32.485668
v 8.361120 0.372828 33.026405
v 8.089437 0.224804 33.083309
v 8.200797 0.224803 32.894135
v 8.218855 1.574801 33.244232
v 8.064381 1.411595 33.506645
v 8.189756 0.406545 33.293663
v 8.173948 0.558043 33.320518
v 8.141335 0.558043 33.375916
v 8.141335 1.334638 33.375916
v 8.656003 0.684295 32.501637
v 8.514384 0.643228 32.742207
v 8.218855 1.295514 33.244232
v 8.360474 1.249449 33.003662
v 8.514384 1.249449 32.742207
v 8.469481 1.208384 32.818489
v 8.546997 1.249449 32.686806
v 8.086290 1.519068 33.469425
v 8.656003 1.208384 32.501637
v 8.700909 1.249449 32.425354
v 8.591904 1.208384 32.610523
v 8.405378 1.208384 32.927380
v 8.282955 1.208384 33.135345
v 8.327860 1.249452 33.059063
v 8.173948 1.334638 33.320518
v 8.282955 0.684295 33.135345
v 8.405378 0.684295 32.927380
v 8.360474 0.643229 33.003662
v 8.591904 0.684295 32.610523
v 8.096431 1.295511 33.452198
v 8.096431 0.597169 33.452198
v 8.111975 0.442270 33.425797
v 8.064381 0.546414 33.506645
v 8.458154 1.574801 32.837727
v 8.561778 1.574801 32.661697
v 8.561779 0.406544 32.661697
v 8.316965 1.295514 33.077572
v 8.359632 1.295514 33.005093
v 8.506423 1.295514 32.755730
v 8.549090 1.295514 32.683250
v 8.695882 1.295514 32.433891
v 8.355626 1.514732 33.011894
v 8.468535 1.514732 32.820091
v 8.559050 1.514732 32.666332
v 8.671959 1.514732 32.474533
v 8.239956 1.514734 33.208389
v 8.218855 1.514734 33.244232
v 9.183296 0.406544 31.605906
v 9.215346 0.597168 31.551460
v 8.887203 0.643228 32.108891
v 8.964721 0.684295 31.977207
v 9.173203 0.406544 31.646894
v 9.173203 0.372827 31.646894
v 9.093926 0.406544 31.781563
v 9.106340 0.643228 31.736633
v 8.733292 0.643228 32.370342
v 9.302065 1.574804 31.404150
v 9.079672 1.574801 31.781937
v 8.768797 1.574801 32.310028
v 9.079672 0.406544 31.781937
v 8.976047 0.406544 31.957968
v 8.768798 0.406544 32.310028
v 9.093926 0.372827 31.781563
v 9.011834 0.224803 31.516401
v 8.900474 0.224803 31.705572
v 9.215345 1.574801 31.551462
v 9.369821 1.411595 31.289051
v 9.244444 0.406544 31.502031
v 9.260252 0.558043 31.475178
v 9.292865 0.558043 31.419779
v 9.292865 1.334638 31.419779
v 8.778197 0.684295 32.294060
v 8.919816 0.643228 32.053490
v 9.215345 1.295513 31.551462
v 9.073728 1.249449 31.792034
v 8.919816 1.249449 32.053490
v 8.964721 1.208383 31.977207
v 8.887203 1.249449 32.108891
v 9.347910 1.519067 31.326271
v 8.778197 1.208383 32.294060
v 8.733292 1.249449 32.370342
v 8.842297 1.208383 32.185173
v 9.028822 1.208383 31.868317
v 9.151245 1.208383 31.660353
v 9.106340 1.249452 31.736633
v 9.260252 1.334638 31.475178
v 9.151245 0.684295 31.660353
v 9.028822 0.684295 31.868317
v 9.073728 0.643228 31.792034
v 8.842297 0.684295 32.185173
v 9.337770 1.295510 31.343496
v 9.337770 0.597168 31.343496
v 9.322227 0.442269 31.369902
v 9.369821 0.546414 31.289051
v 8.976047 1.574801 31.957968
v 8.872422 1.574801 32.133999
v 8.872422 0.406544 32.133999
v 9.117235 1.295513 31.718126
v 9.074569 1.295513 31.790604
v 8.927777 1.295513 32.039963
v 8.885111 1.295513 32.112442
v 8.738318 1.295513 32.361805
v 9.078574 1.514732 31.783800
v 8.965665 1.514732 31.975603
v 8.875151 1.514732 32.129360
v 8.762242 1.514732 32.321163
v 9.194244 1.514733 31.587307
v 9.215345 1.514733 31.551462
vn -0.2663 0.8511 0.4524
vn 0.5041 0.8111 0.2967
vn 0.8618 -0.0000 0.5073
vn -0.0000 1.0000 -0.0000
vn -0.1151 -0.9739 0.1956
vn -0.3769 -0.6693 0.6403
vn -0.0000 -1.0000 -0.0000
vn -0.5073 -0.0000 0.8618
vn -0.4707 0.3729 0.7996
vn -0.4968 0.2024 0.8439
vn -0.5074 -0.0000 0.8617
vn 0.2135 0.9071 -0.3627
vn -0.8618 -0.0000 -0.5073
vn 0.2135 -0.9071 -0.3627
vn -0.2135 -0.9071 0.3627
vn 0.5073 -0.0000 -0.8618
vn -0.2135 0.9071 0.3627
vn 0.2663 0.8511 -0.4524
vn 0.1151 -0.9739 -0.1956
vn 0.3769 -0.6693 -0.6403
vn 0.4707 0.3729 -0.7996
vn 0.4968 0.2024 -0.8439
vn 0.2051 -0.9146 -0.3484
vn -0.2051 -0.9146 0.3484
vn -0.2051 0.9146 0.3484
vn 0.2051 0.9146 -0.3484
vn -0.4954 0.2154 0.8415
vn 0.4954 0.2154 -0.8415
vn -0.5041 0.8111 -0.2967
vt 0.563424 0.076340
vt 0.553130 0.073518
vt 0.930572 0.423953
vt 0.921307 0.379121
vt 0.987792 0.379121
vt 0.977903 0.423953
vt 0.607372 0.029178
vt 0.597289 0.031257
vt 0.582896 0.026846
vt 0.590093 0.017196
vt 0.572813 0.024865
vt 0.576362 0.017196
vt 0.613360 0.017196
vt 0.614695 0.029178
vt 0.558897 0.019004
vt 0.565490 0.024865
vt 0.555407 0.026846
vt 0.548211 0.024277
vt 0.555407 0.062200
vt 0.548211 0.068077
vt 0.639171 0.057790
vt 0.624778 0.057790
vt 0.624778 0.031257
vt 0.639171 0.031257
vt 0.597289 0.057790
vt 0.582896 0.062201
vt 0.649254 0.029178
vt 0.691136 0.029178
vt 0.681053 0.031257
vt 0.666660 0.031257
vt 0.656577 0.029178
vt 0.565490 0.064181
vt 0.572813 0.064181
vt 0.666660 0.057790
vt 0.681053 0.057790
vt 0.691136 0.059869
vt 0.656577 0.059869
vt 0.649254 0.059869
vt 0.614695 0.059869
vt 0.706379 0.076340
vt 0.683164 0.076340
vt 0.613360 0.076340
vt 0.582896 0.076340
vt 0.659896 0.017196
vt 0.683164 0.017196
vt 0.659896 0.076340
vt 0.636628 0.076340
vt 0.636628 0.017196
vt 0.614506 0.062201
vt 0.604926 0.062201
vt 0.607372 0.059869
vt 0.613607 0.073299
vt 0.638959 0.073299
vt 0.657047 0.062201
vt 0.647466 0.062201
vt 0.659283 0.073299
vt 0.684635 0.073299
vt 0.688839 0.081258
vt 0.699816 0.081258
vt 0.706005 0.126709
vt 0.682651 0.126709
vt 0.698407 0.059869
vt 0.699536 0.062201
vt 0.690007 0.062201
vt 0.612500 0.017196
vt 0.594699 0.017196
vt 0.977903 0.434165
vt 0.930572 0.434165
vt 0.704907 0.073299
vt 0.706379 0.017196
vt 0.698407 0.029178
vt 0.653445 0.126709
vt 0.630032 0.126709
vt 0.639832 0.081258
vt 0.650869 0.081258
vt 0.600826 0.126709
vt 0.570905 0.126710
vt 0.590825 0.081258
vt 0.601862 0.081258
vt 0.587634 0.073299
vt 0.806647 0.062201
vt 0.806647 0.026846
vt 0.565447 0.081258
vt 0.565447 0.126710
vt 0.582896 0.073299
vt 0.836413 0.073518
vt 0.826118 0.076340
vt 0.729647 0.076340
vt 0.978547 0.423953
vt 0.931216 0.423953
vt 0.921327 0.379121
vt 0.987812 0.379121
vt 0.782171 0.029178
vt 0.799450 0.017196
vt 0.792254 0.031257
vt 0.813181 0.017196
vt 0.816730 0.024865
vt 0.774848 0.029178
vt 0.776183 0.017196
vt 0.830646 0.019004
vt 0.841332 0.024277
vt 0.834136 0.026846
vt 0.824053 0.024865
vt 0.841332 0.068077
vt 0.834136 0.062200
vt 0.750372 0.057790
vt 0.750372 0.031257
vt 0.764765 0.031257
vt 0.764765 0.057790
vt 0.792254 0.057790
vt 0.740289 0.029178
vt 0.732966 0.029178
vt 0.722883 0.031257
vt 0.708490 0.031257
vt 0.816730 0.064181
vt 0.824053 0.064181
vt 0.722883 0.057790
vt 0.732966 0.059869
vt 0.708490 0.057790
vt 0.740289 0.059869
vt 0.774848 0.059869
vt 0.806647 0.076340
vt 0.776183 0.076340
vt 0.729647 0.017196
vt 0.752915 0.076340
vt 0.752915 0.017196
vt 0.775037 0.062201
vt 0.782171 0.059869
vt 0.784617 0.062201
vt 0.775936 0.073299
vt 0.750584 0.073299
vt 0.732496 0.062201
vt 0.742077 0.062201
vt 0.730260 0.073299
vt 0.777043 0.017196
vt 0.794844 0.017196
vt 0.978547 0.434165
vt 0.931216 0.434165
vt 0.735211 0.126709
vt 0.737787 0.081258
vt 0.748824 0.081258
vt 0.758624 0.126709
vt 0.787830 0.126709
vt 0.786794 0.081258
vt 0.797831 0.081258
vt 0.817751 0.126710
vt 0.801909 0.073299
vt 0.823209 0.081258
vt 0.823209 0.126710
vt 0.806647 0.073299
s 1
usemtl initialShadingGroup.004
f 10/1/1 132/1/1 154/2/1 32/2/1
f 6/3/2 17/4/2 18/5/2 16/6/2
f 8/7/3 40/8/3 2/9/3 1/10/3
f 1/10/3 2/9/3 22/11/3 21/12/3
f 1/10/3 13/13/3 42/14/3 8/7/3
f 46/15/3 23/16/3 45/17/3 47/18/3
f 45/17/3 44/19/3 20/20/3 47/18/3
f 30/21/3 36/22/3 41/23/3 4/24/3
f 40/8/3 37/25/3 27/26/3 2/9/3
f 23/16/3 46/15/3 21/12/3 22/11/3
f 4/24/3 41/23/3 42/14/3 26/27/3
f 9/28/3 25/29/3 43/30/3 3/31/3
f 10/1/3 32/2/3 24/32/3 39/33/3
f 35/34/3 33/35/3 34/36/3 31/37/3
f 29/38/3 28/39/3 36/22/3 30/21/3
f 43/30/3 25/29/3 33/35/3 35/34/3
f 73/40/4 195/40/4 134/41/4 12/41/4
f 46/15/5 168/15/5 143/12/5 21/12/5
f 11/42/4 133/42/4 141/43/4 19/43/4
f 47/18/6 169/18/6 168/15/6 46/15/6
f 50/44/7 172/44/7 137/45/7 15/45/7
f 19/43/4 141/43/4 132/1/4 10/1/4
f 20/20/3 44/19/3 24/32/3 32/2/3
f 49/46/4 171/46/4 170/47/4 48/47/4
f 26/27/3 42/14/3 13/13/3 14/48/3
f 14/48/3 50/44/3 3/31/3 26/27/3
f 9/28/3 3/31/3 50/44/3 15/45/3
f 52/49/3 51/50/3 38/51/3 28/39/3
f 56/52/3 57/53/3 48/47/3 11/42/3
f 54/54/3 53/55/3 29/38/3 31/37/3
f 58/56/3 59/57/3 12/41/3 49/46/3
f 55/58/3 116/59/3 120/60/3 59/61/3
f 13/13/7 135/13/7 136/48/7 14/48/7
f 20/20/8 142/20/8 169/18/8 47/18/8
f 34/36/3 95/62/3 116/63/3 55/64/3
f 48/47/4 170/47/4 133/42/4 11/42/4
f 32/2/9 154/2/9 142/20/9 20/20/9
f 14/48/7 136/48/7 172/44/7 50/44/7
f 7/65/7 13/13/7 1/10/7 5/66/7
f 6/3/3 16/6/3 7/67/3 5/68/3
f 139/4/10 17/4/10 6/3/10 128/3/10
f 5/68/11 127/68/11 128/3/11 6/3/11
f 7/65/7 129/65/7 135/13/7 13/13/7
f 1/10/7 123/10/7 127/66/7 5/66/7
f 3/31/4 125/31/4 148/27/4 26/27/4
f 26/27/12 148/27/12 126/24/12 4/24/12
f 134/41/13 195/40/13 242/69/13 181/57/13
f 156/36/7 217/62/7 95/62/7 34/36/7
f 33/35/14 155/35/14 156/36/14 34/36/14
f 37/25/14 159/25/14 160/51/14 38/51/14
f 31/37/15 153/37/15 157/34/15 35/34/15
f 25/29/16 147/29/16 155/35/16 33/35/16
f 9/28/12 131/28/12 147/29/12 25/29/12
f 4/24/16 126/24/16 152/21/16 30/21/16
f 8/7/12 130/7/12 162/8/12 40/8/12
f 40/8/16 162/8/16 159/25/16 37/25/16
f 43/30/17 165/30/17 125/31/17 3/31/17
f 38/51/7 160/51/7 150/39/7 28/39/7
f 76/70/3 70/71/3 9/28/3 15/45/3
f 36/22/8 158/22/8 163/23/8 41/23/8
f 35/34/8 157/34/8 165/30/8 43/30/8
f 42/14/4 164/14/4 130/7/4 8/7/4
f 28/39/15 150/39/15 158/22/15 36/22/15
f 31/37/3 34/36/3 55/64/3 54/54/3
f 58/72/3 57/73/3 53/74/3 54/75/3
f 28/39/3 29/38/3 53/55/3 52/49/3
f 56/76/3 60/77/3 51/78/3 52/79/3
f 37/25/3 38/51/3 51/50/3 27/26/3
f 11/42/3 19/43/3 60/80/3 56/52/3
f 49/46/3 48/47/3 57/53/3 58/56/3
f 210/81/16 88/81/16 63/82/16 185/82/16
f 54/75/3 55/58/3 59/61/3 58/72/3
f 52/79/3 53/74/3 57/73/3 56/76/3
f 27/83/3 51/78/3 60/77/3 61/84/3
f 27/26/3 61/85/3 10/1/3 39/33/3
f 10/1/3 61/85/3 60/80/3 19/43/3
f 12/41/4 134/41/4 171/46/4 49/46/4
f 41/23/17 163/23/17 164/14/17 42/14/17
f 15/45/7 137/45/7 198/70/7 76/70/7
f 93/86/18 215/86/18 193/87/18 71/87/18
f 110/88/4 232/88/4 195/40/4 73/40/4
f 67/89/2 77/90/2 79/91/2 78/92/2
f 69/93/3 62/94/3 63/82/3 101/95/3
f 62/94/3 82/96/3 83/97/3 63/82/3
f 62/94/3 69/93/3 103/98/3 74/99/3
f 107/100/3 108/101/3 106/102/3 84/103/3
f 106/102/3 108/101/3 81/104/3 105/105/3
f 91/106/3 65/107/3 102/108/3 97/109/3
f 101/95/3 63/82/3 88/81/3 98/110/3
f 84/103/3 83/97/3 82/96/3 107/100/3
f 65/107/3 87/111/3 103/98/3 102/108/3
f 70/71/3 64/112/3 104/113/3 86/114/3
f 71/87/3 100/115/3 85/116/3 93/86/3
f 96/117/3 92/118/3 95/62/3 94/119/3
f 90/120/3 91/106/3 97/109/3 89/121/3
f 104/113/3 96/117/3 94/119/3 86/114/3
f 198/70/13 137/45/13 131/28/13 192/71/13
f 82/96/19 204/96/19 229/100/19 107/100/19
f 80/122/4 202/122/4 194/123/4 72/123/4
f 107/100/20 229/100/20 230/101/20 108/101/20
f 76/70/7 198/70/7 233/124/7 111/124/7
f 71/87/4 193/87/4 202/122/4 80/122/4
f 81/104/3 93/86/3 85/116/3 105/105/3
f 109/125/4 231/125/4 232/88/4 110/88/4
f 87/111/3 75/126/3 74/99/3 103/98/3
f 75/126/3 87/111/3 64/112/3 111/124/3
f 70/71/3 76/70/3 111/124/3 64/112/3
f 113/127/3 89/121/3 99/128/3 112/129/3
f 117/130/3 72/123/3 109/125/3 118/131/3
f 115/132/3 92/118/3 90/120/3 114/133/3
f 119/134/3 110/88/3 73/40/3 120/69/3
f 75/126/7 197/126/7 196/99/7 74/99/7
f 108/101/16 230/101/16 203/104/16 81/104/16
f 72/123/4 194/123/4 231/125/4 109/125/4
f 103/98/12 225/98/12 224/108/12 102/108/12
f 81/104/21 203/104/21 215/86/21 93/86/21
f 111/124/7 233/124/7 197/126/7 75/126/7
f 68/135/7 66/136/7 62/94/7 74/99/7
f 67/89/3 66/137/3 68/138/3 77/90/3
f 200/92/22 189/89/22 67/89/22 78/92/22
f 67/89/16 189/89/16 188/137/16 66/137/16
f 74/99/7 196/99/7 190/135/7 68/135/7
f 66/136/7 188/136/7 184/94/7 62/94/7
f 87/111/4 209/111/4 186/112/4 64/112/4
f 65/107/17 187/107/17 209/111/17 87/111/17
f 97/109/14 219/109/14 211/121/14 89/121/14
f 95/62/15 217/62/15 216/119/15 94/119/15
f 99/128/15 221/128/15 220/110/15 98/110/15
f 96/117/14 218/117/14 214/118/14 92/118/14
f 94/119/8 216/119/8 208/114/8 86/114/8
f 86/114/17 208/114/17 192/71/17 70/71/17
f 91/106/8 213/106/8 187/107/8 65/107/8
f 101/95/17 223/95/17 191/93/17 69/93/17
f 98/110/8 220/110/8 223/95/8 101/95/8
f 64/112/12 186/112/12 226/113/12 104/113/12
f 89/121/7 211/121/7 221/128/7 99/128/7
f 102/108/16 224/108/16 219/109/16 97/109/16
f 104/113/16 226/113/16 218/117/16 96/117/16
f 69/93/4 191/93/4 225/98/4 103/98/4
f 92/118/3 115/132/3 116/63/3 95/62/3
f 119/139/3 115/140/3 114/141/3 118/142/3
f 89/121/3 113/127/3 114/133/3 90/120/3
f 117/143/3 113/144/3 112/145/3 121/146/3
f 98/110/3 88/81/3 112/129/3 99/128/3
f 72/123/3 117/130/3 121/147/3 80/122/3
f 110/88/3 119/134/3 118/131/3 109/125/3
f 115/140/3 119/139/3 120/60/3 116/59/3
f 113/144/3 117/143/3 118/142/3 114/141/3
f 88/148/3 122/149/3 121/146/3 112/145/3
f 88/81/3 100/115/3 71/87/3 122/150/3
f 71/87/3 80/122/3 121/147/3 122/150/3
f 17/4/7 139/4/7 140/5/7 18/5/7
f 149/26/8 124/9/8 2/9/8 27/26/8
f 222/115/23 100/115/23 88/81/23 210/81/23
f 222/115/7 207/116/7 85/116/7 100/115/7
f 207/116/24 227/105/24 105/105/24 85/116/24
f 227/105/8 228/102/8 106/102/8 105/105/8
f 206/103/25 84/103/25 106/102/25 228/102/25
f 206/103/4 205/97/4 83/97/4 84/103/4
f 185/82/26 63/82/26 83/97/26 205/97/26
f 213/106/15 91/106/15 90/120/15 212/120/15
f 199/90/11 77/90/11 68/138/11 190/138/11
f 199/90/27 201/91/27 79/91/27 77/90/27
f 62/94/7 184/94/7 204/96/7 82/96/7
f 92/118/7 214/118/7 212/120/7 90/120/7
f 161/33/24 149/26/24 27/26/24 39/33/24
f 161/33/7 39/33/7 24/32/7 146/32/7
f 146/32/23 24/32/23 44/19/23 166/19/23
f 166/19/16 44/19/16 45/17/16 167/17/16
f 145/16/26 167/17/26 45/17/26 23/16/26
f 145/16/4 23/16/4 22/11/4 144/11/4
f 124/9/25 144/11/25 22/11/25 2/9/25
f 152/21/14 151/38/14 29/38/14 30/21/14
f 138/6/16 129/67/16 7/67/16 16/6/16
f 138/6/28 16/6/28 18/5/28 140/5/28
f 21/12/7 143/12/7 123/10/7 1/10/7
f 29/38/7 151/38/7 153/37/7 31/37/7
f 128/3/29 138/6/29 140/5/29 139/4/29
f 130/7/13 123/10/13 124/9/13 162/8/13
f 123/10/13 143/12/13 144/11/13 124/9/13
f 123/10/13 130/7/13 164/14/13 135/13/13
f 168/15/13 169/18/13 167/17/13 145/16/13
f 167/17/13 169/18/13 142/20/13 166/19/13
f 152/21/13 126/24/13 163/23/13 158/22/13
f 162/8/13 124/9/13 149/26/13 159/25/13
f 145/16/13 144/11/13 143/12/13 168/15/13
f 126/24/13 148/27/13 164/14/13 163/23/13
f 131/28/13 125/31/13 165/30/13 147/29/13
f 132/1/13 161/33/13 146/32/13 154/2/13
f 157/34/13 153/37/13 156/36/13 155/35/13
f 151/38/13 152/21/13 158/22/13 150/39/13
f 165/30/13 157/34/13 155/35/13 147/29/13
f 142/20/13 154/2/13 146/32/13 166/19/13
f 148/27/13 136/48/13 135/13/13 164/14/13
f 136/48/13 148/27/13 125/31/13 172/44/13
f 131/28/13 137/45/13 172/44/13 125/31/13
f 174/49/13 150/39/13 160/51/13 173/50/13
f 178/52/13 133/42/13 170/47/13 179/53/13
f 176/54/13 153/37/13 151/38/13 175/55/13
f 180/56/13 171/46/13 134/41/13 181/57/13
f 181/61/13 242/60/13 238/59/13 177/58/13
f 177/64/13 238/63/13 217/62/13 156/36/13
f 129/65/7 127/66/7 123/10/7 135/13/7
f 128/3/13 127/68/13 129/67/13 138/6/13
f 153/37/13 176/54/13 177/64/13 156/36/13
f 180/72/13 176/75/13 175/74/13 179/73/13
f 150/39/13 174/49/13 175/55/13 151/38/13
f 178/76/13 174/79/13 173/78/13 182/77/13
f 159/25/13 149/26/13 173/50/13 160/51/13
f 133/42/13 178/52/13 182/80/13 141/43/13
f 171/46/13 180/56/13 179/53/13 170/47/13
f 176/75/13 180/72/13 181/61/13 177/58/13
f 174/79/13 178/76/13 179/73/13 175/74/13
f 149/83/13 183/84/13 182/77/13 173/78/13
f 149/26/13 161/33/13 132/1/13 183/85/13
f 132/1/13 141/43/13 182/80/13 183/85/13
f 131/28/4 9/28/4 70/71/4 192/71/4
f 189/89/29 200/92/29 201/91/29 199/90/29
f 191/93/13 223/95/13 185/82/13 184/94/13
f 184/94/13 185/82/13 205/97/13 204/96/13
f 184/94/13 196/99/13 225/98/13 191/93/13
f 229/100/13 206/103/13 228/102/13 230/101/13
f 228/102/13 227/105/13 203/104/13 230/101/13
f 213/106/13 219/109/13 224/108/13 187/107/13
f 223/95/13 220/110/13 210/81/13 185/82/13
f 206/103/13 229/100/13 204/96/13 205/97/13
f 187/107/13 224/108/13 225/98/13 209/111/13
f 192/71/13 208/114/13 226/113/13 186/112/13
f 193/87/13 215/86/13 207/116/13 222/115/13
f 218/117/13 216/119/13 217/62/13 214/118/13
f 212/120/13 211/121/13 219/109/13 213/106/13
f 226/113/13 208/114/13 216/119/13 218/117/13
f 203/104/13 227/105/13 207/116/13 215/86/13
f 209/111/13 225/98/13 196/99/13 197/126/13
f 197/126/13 233/124/13 186/112/13 209/111/13
f 192/71/13 186/112/13 233/124/13 198/70/13
f 235/127/13 234/129/13 221/128/13 211/121/13
f 239/130/13 240/131/13 231/125/13 194/123/13
f 237/132/13 236/133/13 212/120/13 214/118/13
f 241/134/13 242/69/13 195/40/13 232/88/13
f 190/135/7 196/99/7 184/94/7 188/136/7
f 189/89/13 199/90/13 190/138/13 188/137/13
f 214/118/13 217/62/13 238/63/13 237/132/13
f 241/139/13 240/142/13 236/141/13 237/140/13
f 211/121/13 212/120/13 236/133/13 235/127/13
f 239/143/13 243/146/13 234/145/13 235/144/13
f 220/110/13 221/128/13 234/129/13 210/81/13
f 194/123/13 202/122/13 243/147/13 239/130/13
f 232/88/13 231/125/13 240/131/13 241/134/13
f 237/140/13 238/59/13 242/60/13 241/139/13
f 235/144/13 236/141/13 240/142/13 239/143/13
f 210/148/13 234/145/13 243/146/13 244/149/13
f 210/81/13 244/150/13 193/87/13 222/115/13
f 193/87/13 244/150/13 243/147/13 202/122/13
f 59/57/3 120/69/3 73/40/3 12/41/3
f 79/91/7 201/91/7 200/92/7 78/92/7
