# Blender 5.1.0
# www.blender.org
mtllib barriere55_034.mtl
o barriere55.034
v 9.417026 0.406541 -14.522179
v 9.353861 0.597165 -14.523469
v 10.000567 0.643225 -14.510262
v 9.847796 0.684292 -14.513382
v 9.457707 0.406541 -14.533445
v 9.457707 0.372824 -14.533445
v 9.613945 0.406541 -14.530254
v 9.568690 0.643225 -14.519082
v 10.303896 0.643225 -14.504068
v 9.182957 1.574801 -14.526958
v 9.621250 1.574798 -14.518008
v 10.233922 1.574798 -14.505497
v 9.621250 0.406541 -14.518008
v 9.825474 0.406541 -14.513838
v 10.233922 0.406541 -14.505497
v 9.613945 0.372824 -14.530254
v 9.422930 0.224800 -14.328852
v 9.642400 0.224800 -14.324369
v 9.353862 1.574798 -14.523469
v 9.049423 1.411592 -14.529686
v 9.296515 0.406541 -14.524640
v 9.265361 0.558040 -14.525276
v 9.201088 0.558040 -14.526588
v 9.201088 1.334635 -14.526588
v 10.215396 0.684292 -14.505876
v 9.936294 0.643225 -14.511575
v 9.353862 1.295510 -14.523469
v 9.632965 1.249446 -14.517769
v 9.936294 1.249446 -14.511575
v 9.847796 1.208380 -14.513382
v 10.000567 1.249446 -14.510262
v 9.092604 1.519064 -14.528804
v 10.215396 1.208380 -14.505876
v 10.303896 1.249446 -14.504068
v 10.089068 1.208380 -14.508455
v 9.721463 1.208380 -14.515962
v 9.480192 1.208380 -14.520889
v 9.568690 1.249449 -14.519082
v 9.265361 1.334635 -14.525276
v 9.480192 0.684292 -14.520889
v 9.721463 0.684292 -14.515962
v 9.632965 0.643225 -14.517769
v 10.089068 0.684292 -14.508455
v 9.112588 1.295507 -14.528396
v 9.112588 0.597165 -14.528396
v 9.143222 0.442266 -14.527770
v 9.049423 0.546411 -14.529686
v 9.825474 1.574798 -14.513838
v 10.029698 1.574798 -14.509667
v 10.029698 0.406541 -14.509667
v 9.547218 1.295510 -14.519520
v 9.631306 1.295510 -14.517803
v 9.920604 1.295510 -14.511895
v 10.004692 1.295510 -14.510179
v 10.293989 1.295510 -14.504271
v 9.623413 1.514729 -14.517964
v 9.845934 1.514729 -14.513420
v 10.024320 1.514729 -14.509778
v 10.246841 1.514729 -14.505234
v 9.395449 1.514730 -14.522619
v 9.353862 1.514730 -14.523469
v 11.254588 0.406541 -14.484654
v 11.317753 0.597165 -14.483365
v 10.671046 0.643225 -14.496571
v 10.823817 0.684292 -14.493451
v 11.214400 0.406541 -14.497572
v 11.214400 0.372824 -14.497572
v 11.058163 0.406541 -14.500763
v 11.102923 0.643225 -14.487752
v 10.367718 0.643225 -14.502766
v 11.488657 1.574801 -14.479875
v 11.050364 1.574798 -14.488825
v 10.437692 1.574798 -14.501336
v 11.050364 0.406541 -14.488825
v 10.846140 0.406541 -14.492995
v 10.437692 0.406541 -14.501336
v 11.058163 0.372824 -14.500763
v 11.240796 0.224800 -14.291729
v 11.021326 0.224800 -14.296211
v 11.317751 1.574798 -14.483365
v 11.622190 1.411592 -14.477148
v 11.375098 0.406541 -14.482194
v 11.406253 0.558040 -14.481558
v 11.470526 0.558040 -14.480246
v 11.470526 1.334635 -14.480246
v 10.456218 0.684292 -14.500957
v 10.735320 0.643225 -14.495258
v 11.317751 1.295510 -14.483365
v 11.038649 1.249446 -14.489064
v 10.735320 1.249446 -14.495258
v 10.823817 1.208380 -14.493451
v 10.671046 1.249446 -14.496571
v 11.579010 1.519064 -14.478030
v 10.456218 1.208380 -14.500957
v 10.367718 1.249446 -14.502766
v 10.582545 1.208380 -14.498379
v 10.950150 1.208380 -14.490871
v 11.191422 1.208380 -14.485945
v 11.102923 1.249449 -14.487752
v 11.406253 1.334635 -14.481558
v 11.191422 0.684292 -14.485945
v 10.950150 0.684292 -14.490871
v 11.038649 0.643225 -14.489064
v 10.582545 0.684292 -14.498379
v 11.559026 1.295507 -14.478438
v 11.559026 0.597165 -14.478438
v 11.528392 0.442266 -14.479063
v 11.622190 0.546411 -14.477148
v 10.846140 1.574798 -14.492995
v 10.641915 1.574798 -14.497166
v 10.641915 0.406541 -14.497166
v 11.124394 1.295510 -14.487313
v 11.040307 1.295510 -14.489031
v 10.751010 1.295510 -14.494938
v 10.666922 1.295510 -14.496655
v 10.377625 1.295510 -14.502563
v 11.048201 1.514729 -14.488870
v 10.825680 1.514729 -14.493413
v 10.647294 1.514729 -14.497056
v 10.424772 1.514729 -14.501600
v 11.276165 1.514730 -14.484214
v 11.317751 1.514730 -14.483365
v 9.418872 0.406541 -14.612599
v 9.355707 0.597165 -14.613889
v 10.002414 0.643225 -14.600683
v 9.849643 0.684292 -14.603803
v 9.459060 0.406541 -14.599682
v 9.459060 0.372824 -14.599682
v 9.615297 0.406541 -14.596491
v 9.570537 0.643225 -14.609502
v 10.305742 0.643225 -14.594489
v 9.184803 1.574801 -14.617379
v 9.623096 1.574798 -14.608429
v 10.235768 1.574798 -14.595918
v 9.623096 0.406541 -14.608429
v 9.827320 0.406541 -14.604259
v 10.235768 0.406541 -14.595918
v 9.615297 0.372824 -14.596491
v 9.432664 0.224800 -14.805525
v 9.652134 0.224800 -14.801043
v 9.355709 1.574798 -14.613889
v 9.051270 1.411592 -14.620106
v 9.298362 0.406541 -14.615060
v 9.267207 0.558040 -14.615696
v 9.202934 0.558040 -14.617008
v 9.202934 1.334635 -14.617009
v 10.217242 0.684292 -14.596296
v 9.938140 0.643225 -14.601995
v 9.355709 1.295510 -14.613889
v 9.634811 1.249446 -14.608190
v 9.938140 1.249446 -14.601995
v 9.849643 1.208380 -14.603803
v 10.002414 1.249446 -14.600683
v 9.094450 1.519064 -14.619225
v 10.217242 1.208380 -14.596296
v 10.305742 1.249446 -14.594489
v 10.090915 1.208380 -14.598876
v 9.723310 1.208380 -14.606382
v 9.482038 1.208380 -14.611309
v 9.570537 1.249449 -14.609502
v 9.267207 1.334635 -14.615696
v 9.482038 0.684292 -14.611309
v 9.723310 0.684292 -14.606382
v 9.634811 0.643225 -14.608190
v 10.090915 0.684292 -14.598876
v 9.114434 1.295507 -14.618816
v 9.114434 0.597165 -14.618816
v 9.145068 0.442266 -14.618191
v 9.051270 0.546411 -14.620106
v 9.827320 1.574798 -14.604259
v 10.031545 1.574798 -14.600088
v 10.031545 0.406541 -14.600088
v 9.549066 1.295510 -14.609941
v 9.633153 1.295510 -14.608224
v 9.922450 1.295510 -14.602316
v 10.006538 1.295510 -14.600598
v 10.295835 1.295510 -14.594691
v 9.625259 1.514729 -14.608385
v 9.847780 1.514729 -14.603841
v 10.026166 1.514729 -14.600198
v 10.248688 1.514729 -14.595654
v 9.397295 1.514730 -14.613040
v 9.355709 1.514730 -14.613889
v 11.256434 0.406541 -14.575075
v 11.319599 0.597165 -14.573785
v 10.672893 0.643225 -14.586991
v 10.825664 0.684292 -14.583872
v 11.215753 0.406541 -14.563808
v 11.215753 0.372824 -14.563808
v 11.059515 0.406541 -14.566999
v 11.104770 0.643225 -14.578172
v 10.369564 0.643225 -14.593185
v 11.490503 1.574801 -14.570295
v 11.052210 1.574798 -14.579246
v 10.439538 1.574798 -14.591757
v 11.052210 0.406541 -14.579246
v 10.847986 0.406541 -14.583416
v 10.439538 0.406541 -14.591757
v 11.059515 0.372824 -14.566999
v 11.250530 0.224800 -14.768402
v 11.031060 0.224800 -14.772884
v 11.319598 1.574798 -14.573785
v 11.624037 1.411592 -14.567569
v 11.376945 0.406541 -14.572614
v 11.408099 0.558040 -14.571978
v 11.472372 0.558040 -14.570665
v 11.472372 1.334635 -14.570665
v 10.458064 0.684292 -14.591378
v 10.737166 0.643225 -14.585679
v 11.319598 1.295510 -14.573785
v 11.040495 1.249446 -14.579485
v 10.737166 1.249446 -14.585679
v 10.825664 1.208380 -14.583872
v 10.672893 1.249446 -14.586991
v 11.580856 1.519064 -14.568450
v 10.458064 1.208380 -14.591378
v 10.369564 1.249446 -14.593185
v 10.584392 1.208380 -14.588799
v 10.951997 1.208380 -14.581292
v 11.193268 1.208380 -14.576365
v 11.104770 1.249449 -14.578172
v 11.408099 1.334635 -14.571978
v 11.193268 0.684292 -14.576365
v 10.951997 0.684292 -14.581292
v 11.040495 0.643225 -14.579485
v 10.584392 0.684292 -14.588799
v 11.560872 1.295507 -14.568858
v 11.560872 0.597165 -14.568858
v 11.530238 0.442266 -14.569484
v 11.624037 0.546411 -14.567568
v 10.847986 1.574798 -14.583416
v 10.643762 1.574798 -14.587586
v 10.643762 0.406541 -14.587586
v 11.126242 1.295510 -14.577734
v 11.042154 1.295510 -14.579451
v 10.752856 1.295510 -14.585359
v 10.668768 1.295510 -14.587075
v 10.379471 1.295510 -14.592983
v 11.050047 1.514729 -14.579289
v 10.827526 1.514729 -14.583834
v 10.649140 1.514729 -14.587477
v 10.426619 1.514729 -14.592020
v 11.278011 1.514730 -14.574635
v 11.319598 1.514730 -14.573785
vn -0.5248 0.8511 -0.0107
vn -0.0119 0.8111 0.5848
vn -0.0204 -0.0000 0.9998
vn -0.0000 1.0000 -0.0000
vn -0.2269 -0.9739 -0.0046
vn -0.7428 -0.6693 -0.0152
vn -0.0000 -1.0000 -0.0000
vn -0.9998 -0.0000 -0.0204
vn -0.9277 0.3729 -0.0189
vn -0.9791 0.2024 -0.0200
vn 0.4208 0.9071 0.0086
vn 0.0204 -0.0000 -0.9998
vn 0.4208 -0.9071 0.0086
vn -0.4207 -0.9071 -0.0086
vn 0.9998 -0.0000 0.0204
vn -0.4208 0.9071 -0.0086
vn -0.4208 -0.9071 -0.0086
vn 0.5248 0.8511 0.0107
vn 0.2269 -0.9739 0.0046
vn 0.7428 -0.6693 0.0152
vn 0.9277 0.3729 0.0189
vn 0.9791 0.2024 0.0200
vn 0.4207 -0.9071 0.0086
vn 0.4042 -0.9146 0.0083
vn -0.4042 -0.9146 -0.0083
vn -0.4042 0.9146 -0.0083
vn 0.4042 0.9146 0.0083
vn -0.9763 0.2154 -0.0199
vn 0.9763 0.2154 0.0199
vn 0.0119 0.8111 -0.5848
vt 0.563424 0.076340
vt 0.553130 0.073518
vt 0.930572 0.423953
vt 0.921307 0.379121
vt 0.987792 0.379121
vt 0.977903 0.423953
vt 0.607372 0.029178
vt 0.597289 0.031257
vt 0.582896 0.026846
vt 0.590093 0.017196
vt 0.572813 0.024865
vt 0.576362 0.017196
vt 0.613360 0.017196
vt 0.614695 0.029178
vt 0.558897 0.019004
vt 0.565490 0.024865
vt 0.555407 0.026846
vt 0.548211 0.024277
vt 0.555407 0.062200
vt 0.548211 0.068077
vt 0.639171 0.057790
vt 0.624778 0.057790
vt 0.624778 0.031257
vt 0.639171 0.031257
vt 0.597289 0.057790
vt 0.582896 0.062201
vt 0.649254 0.029178
vt 0.691136 0.029178
vt 0.681053 0.031257
vt 0.666660 0.031257
vt 0.656577 0.029178
vt 0.565490 0.064181
vt 0.572813 0.064181
vt 0.666660 0.057790
vt 0.681053 0.057790
vt 0.691136 0.059869
vt 0.656577 0.059869
vt 0.649254 0.059869
vt 0.614695 0.059869
vt 0.706379 0.076340
vt 0.683164 0.076340
vt 0.613360 0.076340
vt 0.582896 0.076340
vt 0.659896 0.017196
vt 0.683164 0.017196
vt 0.659896 0.076340
vt 0.636628 0.076340
vt 0.636628 0.017196
vt 0.614506 0.062201
vt 0.604926 0.062201
vt 0.607372 0.059869
vt 0.613607 0.073299
vt 0.638959 0.073299
vt 0.657047 0.062201
vt 0.647466 0.062201
vt 0.659283 0.073299
vt 0.684635 0.073299
vt 0.688839 0.081258
vt 0.699816 0.081258
vt 0.706005 0.126709
vt 0.682651 0.126709
vt 0.698407 0.059869
vt 0.699536 0.062201
vt 0.690007 0.062201
vt 0.612500 0.017196
vt 0.594699 0.017196
vt 0.977903 0.434165
vt 0.930572 0.434165
vt 0.704907 0.073299
vt 0.706379 0.017196
vt 0.698407 0.029178
vt 0.653445 0.126709
vt 0.630032 0.126709
vt 0.639832 0.081258
vt 0.650869 0.081258
vt 0.600826 0.126709
vt 0.570905 0.126710
vt 0.590825 0.081258
vt 0.601862 0.081258
vt 0.587634 0.073299
vt 0.806647 0.062201
vt 0.806647 0.026846
vt 0.565447 0.081258
vt 0.565447 0.126710
vt 0.582896 0.073299
vt 0.836413 0.073518
vt 0.826118 0.076340
vt 0.729647 0.076340
vt 0.978547 0.423953
vt 0.931216 0.423953
vt 0.921327 0.379121
vt 0.987812 0.379121
vt 0.782171 0.029178
vt 0.799450 0.017196
vt 0.792254 0.031257
vt 0.813181 0.017196
vt 0.816730 0.024865
vt 0.774848 0.029178
vt 0.776183 0.017196
vt 0.830646 0.019004
vt 0.841332 0.024277
vt 0.834136 0.026846
vt 0.824053 0.024865
vt 0.841332 0.068077
vt 0.834136 0.062200
vt 0.750372 0.057790
vt 0.750372 0.031257
vt 0.764765 0.031257
vt 0.764765 0.057790
vt 0.792254 0.057790
vt 0.740289 0.029178
vt 0.732966 0.029178
vt 0.722883 0.031257
vt 0.708490 0.031257
vt 0.816730 0.064181
vt 0.824053 0.064181
vt 0.722883 0.057790
vt 0.732966 0.059869
vt 0.708490 0.057790
vt 0.740289 0.059869
vt 0.774848 0.059869
vt 0.806647 0.076340
vt 0.776183 0.076340
vt 0.729647 0.017196
vt 0.752915 0.076340
vt 0.752915 0.017196
vt 0.775037 0.062201
vt 0.782171 0.059869
vt 0.784617 0.062201
vt 0.775936 0.073299
vt 0.750584 0.073299
vt 0.732496 0.062201
vt 0.742077 0.062201
vt 0.730260 0.073299
vt 0.777043 0.017196
vt 0.794844 0.017196
vt 0.978547 0.434165
vt 0.931216 0.434165
vt 0.735211 0.126709
vt 0.737787 0.081258
vt 0.748824 0.081258
vt 0.758624 0.126709
vt 0.787830 0.126709
vt 0.786794 0.081258
vt 0.797831 0.081258
vt 0.817751 0.126710
vt 0.801909 0.073299
vt 0.823209 0.081258
vt 0.823209 0.126710
vt 0.806647 0.073299
s 1
usemtl initialShadingGroup.004
f 10/1/1 132/1/1 154/2/1 32/2/1
f 6/3/2 17/4/2 18/5/2 16/6/2
f 8/7/3 40/8/3 2/9/3 1/10/3
f 1/10/3 2/9/3 22/11/3 21/12/3
f 1/10/3 13/13/3 42/14/3 8/7/3
f 46/15/3 23/16/3 45/17/3 47/18/3
f 45/17/3 44/19/3 20/20/3 47/18/3
f 30/21/3 36/22/3 41/23/3 4/24/3
f 40/8/3 37/25/3 27/26/3 2/9/3
f 23/16/3 46/15/3 21/12/3 22/11/3
f 4/24/3 41/23/3 42/14/3 26/27/3
f 9/28/3 25/29/3 43/30/3 3/31/3
f 10/1/3 32/2/3 24/32/3 39/33/3
f 35/34/3 33/35/3 34/36/3 31/37/3
f 29/38/3 28/39/3 36/22/3 30/21/3
f 43/30/3 25/29/3 33/35/3 35/34/3
f 73/40/4 195/40/4 134/41/4 12/41/4
f 46/15/5 168/15/5 143/12/5 21/12/5
f 11/42/4 133/42/4 141/43/4 19/43/4
f 47/18/6 169/18/6 168/15/6 46/15/6
f 50/44/7 172/44/7 137/45/7 15/45/7
f 19/43/4 141/43/4 132/1/4 10/1/4
f 20/20/3 44/19/3 24/32/3 32/2/3
f 49/46/4 171/46/4 170/47/4 48/47/4
f 26/27/3 42/14/3 13/13/3 14/48/3
f 14/48/3 50/44/3 3/31/3 26/27/3
f 9/28/3 3/31/3 50/44/3 15/45/3
f 52/49/3 51/50/3 38/51/3 28/39/3
f 56/52/3 57/53/3 48/47/3 11/42/3
f 54/54/3 53/55/3 29/38/3 31/37/3
f 58/56/3 59/57/3 12/41/3 49/46/3
f 55/58/3 116/59/3 120/60/3 59/61/3
f 13/13/7 135/13/7 136/48/7 14/48/7
f 20/20/8 142/20/8 169/18/8 47/18/8
f 34/36/3 95/62/3 116/63/3 55/64/3
f 48/47/4 170/47/4 133/42/4 11/42/4
f 32/2/9 154/2/9 142/20/9 20/20/9
f 14/48/7 136/48/7 172/44/7 50/44/7
f 7/65/7 13/13/7 1/10/7 5/66/7
f 6/3/3 16/6/3 7/67/3 5/68/3
f 139/4/10 17/4/10 6/3/10 128/3/10
f 5/68/8 127/68/8 128/3/8 6/3/8
f 7/65/7 129/65/7 135/13/7 13/13/7
f 1/10/7 123/10/7 127/66/7 5/66/7
f 3/31/4 125/31/4 148/27/4 26/27/4
f 26/27/11 148/27/11 126/24/11 4/24/11
f 134/41/12 195/40/12 242/69/12 181/57/12
f 156/36/7 217/62/7 95/62/7 34/36/7
f 33/35/13 155/35/13 156/36/13 34/36/13
f 37/25/13 159/25/13 160/51/13 38/51/13
f 31/37/14 153/37/14 157/34/14 35/34/14
f 25/29/15 147/29/15 155/35/15 33/35/15
f 9/28/11 131/28/11 147/29/11 25/29/11
f 4/24/15 126/24/15 152/21/15 30/21/15
f 8/7/11 130/7/11 162/8/11 40/8/11
f 40/8/15 162/8/15 159/25/15 37/25/15
f 43/30/16 165/30/16 125/31/16 3/31/16
f 38/51/7 160/51/7 150/39/7 28/39/7
f 76/70/3 70/71/3 9/28/3 15/45/3
f 36/22/8 158/22/8 163/23/8 41/23/8
f 35/34/8 157/34/8 165/30/8 43/30/8
f 42/14/4 164/14/4 130/7/4 8/7/4
f 28/39/17 150/39/17 158/22/17 36/22/17
f 31/37/3 34/36/3 55/64/3 54/54/3
f 58/72/3 57/73/3 53/74/3 54/75/3
f 28/39/3 29/38/3 53/55/3 52/49/3
f 56/76/3 60/77/3 51/78/3 52/79/3
f 37/25/3 38/51/3 51/50/3 27/26/3
f 11/42/3 19/43/3 60/80/3 56/52/3
f 49/46/3 48/47/3 57/53/3 58/56/3
f 210/81/15 88/81/15 63/82/15 185/82/15
f 54/75/3 55/58/3 59/61/3 58/72/3
f 52/79/3 53/74/3 57/73/3 56/76/3
f 27/83/3 51/78/3 60/77/3 61/84/3
f 27/26/3 61/85/3 10/1/3 39/33/3
f 10/1/3 61/85/3 60/80/3 19/43/3
f 12/41/4 134/41/4 171/46/4 49/46/4
f 41/23/16 163/23/16 164/14/16 42/14/16
f 15/45/7 137/45/7 198/70/7 76/70/7
f 93/86/18 215/86/18 193/87/18 71/87/18
f 110/88/4 232/88/4 195/40/4 73/40/4
f 67/89/2 77/90/2 79/91/2 78/92/2
f 69/93/3 62/94/3 63/82/3 101/95/3
f 62/94/3 82/96/3 83/97/3 63/82/3
f 62/94/3 69/93/3 103/98/3 74/99/3
f 107/100/3 108/101/3 106/102/3 84/103/3
f 106/102/3 108/101/3 81/104/3 105/105/3
f 91/106/3 65/107/3 102/108/3 97/109/3
f 101/95/3 63/82/3 88/81/3 98/110/3
f 84/103/3 83/97/3 82/96/3 107/100/3
f 65/107/3 87/111/3 103/98/3 102/108/3
f 70/71/3 64/112/3 104/113/3 86/114/3
f 71/87/3 100/115/3 85/116/3 93/86/3
f 96/117/3 92/118/3 95/62/3 94/119/3
f 90/120/3 91/106/3 97/109/3 89/121/3
f 104/113/3 96/117/3 94/119/3 86/114/3
f 198/70/12 137/45/12 131/28/12 192/71/12
f 82/96/19 204/96/19 229/100/19 107/100/19
f 80/122/4 202/122/4 194/123/4 72/123/4
f 107/100/20 229/100/20 230/101/20 108/101/20
f 76/70/7 198/70/7 233/124/7 111/124/7
f 71/87/4 193/87/4 202/122/4 80/122/4
f 81/104/3 93/86/3 85/116/3 105/105/3
f 109/125/4 231/125/4 232/88/4 110/88/4
f 87/111/3 75/126/3 74/99/3 103/98/3
f 75/126/3 87/111/3 64/112/3 111/124/3
f 70/71/3 76/70/3 111/124/3 64/112/3
f 113/127/3 89/121/3 99/128/3 112/129/3
f 117/130/3 72/123/3 109/125/3 118/131/3
f 115/132/3 92/118/3 90/120/3 114/133/3
f 119/134/3 110/88/3 73/40/3 120/69/3
f 75/126/7 197/126/7 196/99/7 74/99/7
f 108/101/15 230/101/15 203/104/15 81/104/15
f 72/123/4 194/123/4 231/125/4 109/125/4
f 103/98/11 225/98/11 224/108/11 102/108/11
f 81/104/21 203/104/21 215/86/21 93/86/21
f 111/124/7 233/124/7 197/126/7 75/126/7
f 68/135/7 66/136/7 62/94/7 74/99/7
f 67/89/3 66/137/3 68/138/3 77/90/3
f 200/92/22 189/89/22 67/89/22 78/92/22
f 67/89/15 189/89/15 188/137/15 66/137/15
f 74/99/7 196/99/7 190/135/7 68/135/7
f 66/136/7 188/136/7 184/94/7 62/94/7
f 87/111/4 209/111/4 186/112/4 64/112/4
f 65/107/16 187/107/16 209/111/16 87/111/16
f 97/109/13 219/109/13 211/121/13 89/121/13
f 95/62/14 217/62/14 216/119/14 94/119/14
f 99/128/17 221/128/17 220/110/17 98/110/17
f 96/117/23 218/117/23 214/118/23 92/118/23
f 94/119/8 216/119/8 208/114/8 86/114/8
f 86/114/16 208/114/16 192/71/16 70/71/16
f 91/106/8 213/106/8 187/107/8 65/107/8
f 101/95/16 223/95/16 191/93/16 69/93/16
f 98/110/8 220/110/8 223/95/8 101/95/8
f 64/112/11 186/112/11 226/113/11 104/113/11
f 89/121/7 211/121/7 221/128/7 99/128/7
f 102/108/15 224/108/15 219/109/15 97/109/15
f 104/113/15 226/113/15 218/117/15 96/117/15
f 69/93/4 191/93/4 225/98/4 103/98/4
f 92/118/3 115/132/3 116/63/3 95/62/3
f 119/139/3 115/140/3 114/141/3 118/142/3
f 89/121/3 113/127/3 114/133/3 90/120/3
f 117/143/3 113/144/3 112/145/3 121/146/3
f 98/110/3 88/81/3 112/129/3 99/128/3
f 72/123/3 117/130/3 121/147/3 80/122/3
f 110/88/3 119/134/3 118/131/3 109/125/3
f 115/140/3 119/139/3 120/60/3 116/59/3
f 113/144/3 117/143/3 118/142/3 114/141/3
f 88/148/3 122/149/3 121/146/3 112/145/3
f 88/81/3 100/115/3 71/87/3 122/150/3
f 71/87/3 80/122/3 121/147/3 122/150/3
f 17/4/7 139/4/7 140/5/7 18/5/7
f 149/26/8 124/9/8 2/9/8 27/26/8
f 222/115/24 100/115/24 88/81/24 210/81/24
f 222/115/7 207/116/7 85/116/7 100/115/7
f 207/116/25 227/105/25 105/105/25 85/116/25
f 227/105/8 228/102/8 106/102/8 105/105/8
f 206/103/26 84/103/26 106/102/26 228/102/26
f 206/103/4 205/97/4 83/97/4 84/103/4
f 185/82/27 63/82/27 83/97/27 205/97/27
f 213/106/17 91/106/17 90/120/17 212/120/17
f 199/90/8 77/90/8 68/138/8 190/138/8
f 199/90/28 201/91/28 79/91/28 77/90/28
f 62/94/7 184/94/7 204/96/7 82/96/7
f 92/118/7 214/118/7 212/120/7 90/120/7
f 161/33/25 149/26/25 27/26/25 39/33/25
f 161/33/7 39/33/7 24/32/7 146/32/7
f 146/32/24 24/32/24 44/19/24 166/19/24
f 166/19/15 44/19/15 45/17/15 167/17/15
f 145/16/27 167/17/27 45/17/27 23/16/27
f 145/16/4 23/16/4 22/11/4 144/11/4
f 124/9/26 144/11/26 22/11/26 2/9/26
f 152/21/13 151/38/13 29/38/13 30/21/13
f 138/6/15 129/67/15 7/67/15 16/6/15
f 138/6/29 16/6/29 18/5/29 140/5/29
f 21/12/7 143/12/7 123/10/7 1/10/7
f 29/38/7 151/38/7 153/37/7 31/37/7
f 128/3/30 138/6/30 140/5/30 139/4/30
f 130/7/12 123/10/12 124/9/12 162/8/12
f 123/10/12 143/12/12 144/11/12 124/9/12
f 123/10/12 130/7/12 164/14/12 135/13/12
f 168/15/12 169/18/12 167/17/12 145/16/12
f 167/17/12 169/18/12 142/20/12 166/19/12
f 152/21/12 126/24/12 163/23/12 158/22/12
f 162/8/12 124/9/12 149/26/12 159/25/12
f 145/16/12 144/11/12 143/12/12 168/15/12
f 126/24/12 148/27/12 164/14/12 163/23/12
f 131/28/12 125/31/12 165/30/12 147/29/12
f 132/1/12 161/33/12 146/32/12 154/2/12
f 157/34/12 153/37/12 156/36/12 155/35/12
f 151/38/12 152/21/12 158/22/12 150/39/12
f 165/30/12 157/34/12 155/35/12 147/29/12
f 142/20/12 154/2/12 146/32/12 166/19/12
f 148/27/12 136/48/12 135/13/12 164/14/12
f 136/48/12 148/27/12 125/31/12 172/44/12
f 131/28/12 137/45/12 172/44/12 125/31/12
f 174/49/12 150/39/12 160/51/12 173/50/12
f 178/52/12 133/42/12 170/47/12 179/53/12
f 176/54/12 153/37/12 151/38/12 175/55/12
f 180/56/12 171/46/12 134/41/12 181/57/12
f 181/61/12 242/60/12 238/59/12 177/58/12
f 177/64/12 238/63/12 217/62/12 156/36/12
f 129/65/7 127/66/7 123/10/7 135/13/7
f 128/3/12 127/68/12 129/67/12 138/6/12
f 153/37/12 176/54/12 177/64/12 156/36/12
f 180/72/12 176/75/12 175/74/12 179/73/12
f 150/39/12 174/49/12 175/55/12 151/38/12
f 178/76/12 174/79/12 173/78/12 182/77/12
f 159/25/12 149/26/12 173/50/12 160/51/12
f 133/42/12 178/52/12 182/80/12 141/43/12
f 171/46/12 180/56/12 179/53/12 170/47/12
f 176/75/12 180/72/12 181/61/12 177/58/12
f 174/79/12 178/76/12 179/73/12 175/74/12
f 149/83/12 183/84/12 182/77/12 173/78/12
f 149/26/12 161/33/12 132/1/12 183/85/12
f 132/1/12 141/43/12 182/80/12 183/85/12
f 131/28/4 9/28/4 70/71/4 192/71/4
f 189/89/30 200/92/30 201/91/30 199/90/30
f 191/93/12 223/95/12 185/82/12 184/94/12
f 184/94/12 185/82/12 205/97/12 204/96/12
f 184/94/12 196/99/12 225/98/12 191/93/12
f 229/100/12 206/103/12 228/102/12 230/101/12
f 228/102/12 227/105/12 203/104/12 230/101/12
f 213/106/12 219/109/12 224/108/12 187/107/12
f 223/95/12 220/110/12 210/81/12 185/82/12
f 206/103/12 229/100/12 204/96/12 205/97/12
f 187/107/12 224/108/12 225/98/12 209/111/12
f 192/71/12 208/114/12 226/113/12 186/112/12
f 193/87/12 215/86/12 207/116/12 222/115/12
f 218/117/12 216/119/12 217/62/12 214/118/12
f 212/120/12 211/121/12 219/109/12 213/106/12
f 226/113/12 208/114/12 216/119/12 218/117/12
f 203/104/12 227/105/12 207/116/12 215/86/12
f 209/111/12 225/98/12 196/99/12 197/126/12
f 197/126/12 233/124/12 186/112/12 209/111/12
f 192/71/12 186/112/12 233/124/12 198/70/12
f 235/127/12 234/129/12 221/128/12 211/121/12
f 239/130/12 240/131/12 231/125/12 194/123/12
f 237/132/12 236/133/12 212/120/12 214/118/12
f 241/134/12 242/69/12 195/40/12 232/88/12
f 190/135/7 196/99/7 184/94/7 188/136/7
f 189/89/12 199/90/12 190/138/12 188/137/12
f 214/118/12 217/62/12 238/63/12 237/132/12
f 241/139/12 240/142/12 236/141/12 237/140/12
f 211/121/12 212/120/12 236/133/12 235/127/12
f 239/143/12 243/146/12 234/145/12 235/144/12
f 220/110/12 221/128/12 234/129/12 210/81/12
f 194/123/12 202/122/12 243/147/12 239/130/12
f 232/88/12 231/125/12 240/131/12 241/134/12
f 237/140/12 238/59/12 242/60/12 241/139/12
f 235/144/12 236/141/12 240/142/12 239/143/12
f 210/148/12 234/145/12 243/146/12 244/149/12
f 210/81/12 244/150/12 193/87/12 222/115/12
f 193/87/12 244/150/12 243/147/12 202/122/12
f 59/57/3 120/69/3 73/40/3 12/41/3
f 79/91/7 201/91/7 200/92/7 78/92/7
