# Blender 5.1.0
# www.blender.org
mtllib barriere55_010.mtl
o barriere55.010
v 23.922560 0.406541 -8.613362
v 23.862661 0.597165 -8.633451
v 24.475931 0.643225 -8.427773
v 24.331059 0.684292 -8.476360
v 23.964748 0.406541 -8.611969
v 23.964748 0.372824 -8.611969
v 24.112909 0.406541 -8.562280
v 24.066383 0.643225 -8.565127
v 24.763577 0.643225 -8.331304
v 23.700592 1.574801 -8.687805
v 24.116224 1.574798 -8.548411
v 24.697220 1.574798 -8.353558
v 24.116224 0.406541 -8.548411
v 24.309891 0.406541 -8.483460
v 24.697220 0.406541 -8.353558
v 24.112909 0.372824 -8.562280
v 23.870478 0.224800 -8.427089
v 24.078600 0.224800 -8.357289
v 23.862661 1.574798 -8.633451
v 23.573963 1.411592 -8.730274
v 23.808279 0.406541 -8.651690
v 23.778736 0.558040 -8.661597
v 23.717787 0.558040 -8.682039
v 23.717787 1.334635 -8.682039
v 24.679653 0.684292 -8.359450
v 24.414980 0.643225 -8.448215
v 23.862661 1.295510 -8.633451
v 24.127335 1.249446 -8.544685
v 24.414980 1.249446 -8.448215
v 24.331059 1.208380 -8.476360
v 24.475931 1.249446 -8.427773
v 23.614910 1.519064 -8.716541
v 24.679653 1.208380 -8.359450
v 24.763577 1.249446 -8.331304
v 24.559856 1.208380 -8.399627
v 24.211258 1.208380 -8.516540
v 23.982460 1.208380 -8.593273
v 24.066383 1.249449 -8.565127
v 23.778736 1.334635 -8.661597
v 23.982460 0.684292 -8.593273
v 24.211258 0.684292 -8.516540
v 24.127335 0.643225 -8.544685
v 24.559856 0.684292 -8.399627
v 23.633862 1.295507 -8.710185
v 23.633862 0.597165 -8.710185
v 23.662912 0.442266 -8.700442
v 23.573963 0.546411 -8.730274
v 24.309891 1.574798 -8.483460
v 24.503555 1.574798 -8.418509
v 24.503555 0.406541 -8.418509
v 24.046021 1.295510 -8.571956
v 24.125761 1.295510 -8.545213
v 24.400101 1.295510 -8.453205
v 24.479841 1.295510 -8.426461
v 24.754183 1.295510 -8.334455
v 24.118277 1.514729 -8.547724
v 24.329292 1.514729 -8.476954
v 24.498455 1.514729 -8.420219
v 24.709471 1.514729 -8.349449
v 23.902098 1.514730 -8.620225
v 23.862661 1.514730 -8.633451
v 25.665115 0.406541 -8.028947
v 25.725016 0.597165 -8.008858
v 25.111744 0.643225 -8.214536
v 25.256617 0.684292 -8.165949
v 25.630617 0.406541 -8.053273
v 25.630617 0.372824 -8.053273
v 25.482458 0.406541 -8.102962
v 25.521292 0.643225 -8.077182
v 24.824099 0.643225 -8.311006
v 25.887083 1.574801 -7.954504
v 25.471451 1.574798 -8.093898
v 24.890455 1.574798 -8.288752
v 25.471451 0.406541 -8.093898
v 25.277784 0.406541 -8.158849
v 24.890455 0.406541 -8.288752
v 25.482458 0.372824 -8.102962
v 25.594355 0.224800 -7.848938
v 25.386232 0.224800 -7.918738
v 25.725014 1.574798 -8.008859
v 26.013712 1.411592 -7.912035
v 25.779396 0.406541 -7.990620
v 25.808939 0.558040 -7.980712
v 25.869888 0.558040 -7.960271
v 25.869888 1.334635 -7.960271
v 24.908022 0.684292 -8.282860
v 25.172695 0.643225 -8.194094
v 25.725014 1.295510 -8.008859
v 25.460340 1.249446 -8.097624
v 25.172695 1.249446 -8.194094
v 25.256617 1.208380 -8.165949
v 25.111744 1.249446 -8.214536
v 25.972765 1.519064 -7.925768
v 24.908022 1.208380 -8.282860
v 24.824099 1.249446 -8.311006
v 25.027819 1.208380 -8.242682
v 25.376417 1.208380 -8.125770
v 25.605215 1.208380 -8.049036
v 25.521292 1.249449 -8.077182
v 25.808939 1.334635 -7.980712
v 25.605215 0.684292 -8.049036
v 25.376417 0.684292 -8.125770
v 25.460340 0.643225 -8.097624
v 25.027819 0.684292 -8.242682
v 25.953814 1.295507 -7.932124
v 25.953814 0.597165 -7.932124
v 25.924763 0.442266 -7.941867
v 26.013712 0.546411 -7.912035
v 25.277784 1.574798 -8.158849
v 25.084120 1.574798 -8.223801
v 25.084120 0.406541 -8.223801
v 25.541655 1.295510 -8.070354
v 25.461914 1.295510 -8.097096
v 25.187574 1.295510 -8.189103
v 25.107834 1.295510 -8.215848
v 24.833492 1.295510 -8.307855
v 25.469398 1.514729 -8.094585
v 25.258383 1.514729 -8.165357
v 25.089220 1.514729 -8.222090
v 24.878204 1.514729 -8.292861
v 25.685577 1.514730 -8.022084
v 25.725014 1.514730 -8.008859
v 23.951317 0.406541 -8.699107
v 23.891417 0.597165 -8.719196
v 24.504688 0.643225 -8.513518
v 24.359816 0.684292 -8.562106
v 23.985815 0.406541 -8.674782
v 23.985815 0.372824 -8.674782
v 24.133974 0.406541 -8.625092
v 24.095140 0.643225 -8.650872
v 24.792334 0.643225 -8.417048
v 23.729349 1.574801 -8.773551
v 24.144981 1.574798 -8.634156
v 24.725977 1.574798 -8.439303
v 24.144981 0.406541 -8.634156
v 24.338648 0.406541 -8.569205
v 24.725977 0.406541 -8.439303
v 24.133974 0.372824 -8.625092
v 24.022078 0.224800 -8.879117
v 24.230200 0.224800 -8.809318
v 23.891418 1.574798 -8.719196
v 23.602720 1.411592 -8.816020
v 23.837036 0.406541 -8.737434
v 23.807493 0.558040 -8.747343
v 23.746544 0.558040 -8.767784
v 23.746544 1.334635 -8.767784
v 24.708410 0.684292 -8.445194
v 24.443737 0.643225 -8.533960
v 23.891418 1.295510 -8.719196
v 24.156092 1.249446 -8.630431
v 24.443737 1.249446 -8.533960
v 24.359816 1.208380 -8.562106
v 24.504688 1.249446 -8.513518
v 23.643667 1.519064 -8.802286
v 24.708410 1.208380 -8.445195
v 24.792334 1.249446 -8.417048
v 24.588614 1.208380 -8.485373
v 24.240015 1.208380 -8.602284
v 24.011217 1.208380 -8.679018
v 24.095140 1.249449 -8.650872
v 23.807493 1.334635 -8.747343
v 24.011217 0.684292 -8.679018
v 24.240015 0.684292 -8.602284
v 24.156092 0.643225 -8.630430
v 24.588614 0.684292 -8.485373
v 23.662619 1.295507 -8.795931
v 23.662619 0.597165 -8.795931
v 23.691669 0.442266 -8.786188
v 23.602720 0.546411 -8.816019
v 24.338648 1.574798 -8.569205
v 24.532312 1.574798 -8.504254
v 24.532312 0.406541 -8.504254
v 24.074778 1.295510 -8.657701
v 24.154518 1.295510 -8.630959
v 24.428858 1.295510 -8.538951
v 24.508598 1.295510 -8.512208
v 24.782940 1.295510 -8.420199
v 24.147034 1.514729 -8.633469
v 24.358049 1.514729 -8.562698
v 24.527212 1.514729 -8.505964
v 24.738228 1.514729 -8.435195
v 23.930855 1.514730 -8.705970
v 23.891418 1.514730 -8.719196
v 25.693872 0.406541 -8.114692
v 25.753771 0.597165 -8.094603
v 25.140501 0.643225 -8.300281
v 25.285374 0.684292 -8.251694
v 25.651684 0.406541 -8.116084
v 25.651684 0.372824 -8.116084
v 25.503523 0.406541 -8.165774
v 25.550049 0.643225 -8.162928
v 24.852856 0.643225 -8.396751
v 25.915840 1.574801 -8.040250
v 25.500208 1.574798 -8.179644
v 24.919212 1.574798 -8.374496
v 25.500208 0.406541 -8.179643
v 25.306541 0.406541 -8.244595
v 24.919212 0.406541 -8.374496
v 25.503523 0.372824 -8.165774
v 25.745955 0.224800 -8.300965
v 25.537832 0.224800 -8.370766
v 25.753771 1.574798 -8.094604
v 26.042469 1.411592 -7.997781
v 25.808153 0.406541 -8.076365
v 25.837696 0.558040 -8.066457
v 25.898645 0.558040 -8.046016
v 25.898645 1.334635 -8.046016
v 24.936779 0.684292 -8.368605
v 25.201452 0.643225 -8.279840
v 25.753771 1.295510 -8.094604
v 25.489098 1.249446 -8.183369
v 25.201452 1.249446 -8.279840
v 25.285374 1.208380 -8.251694
v 25.140501 1.249446 -8.300281
v 26.001522 1.519064 -8.011514
v 24.936779 1.208380 -8.368605
v 24.852856 1.249446 -8.396751
v 25.056576 1.208380 -8.328427
v 25.405174 1.208380 -8.211515
v 25.633972 1.208380 -8.134782
v 25.550049 1.249449 -8.162928
v 25.837696 1.334635 -8.066457
v 25.633972 0.684292 -8.134782
v 25.405174 0.684292 -8.211515
v 25.489098 0.643225 -8.183369
v 25.056576 0.684292 -8.328427
v 25.982571 1.295507 -8.017870
v 25.982571 0.597165 -8.017870
v 25.953520 0.442266 -8.027612
v 26.042469 0.546411 -7.997781
v 25.306541 1.574798 -8.244595
v 25.112877 1.574798 -8.309546
v 25.112877 0.406541 -8.309546
v 25.570412 1.295510 -8.156098
v 25.490671 1.295510 -8.182841
v 25.216331 1.295510 -8.274850
v 25.136591 1.295510 -8.301593
v 24.862249 1.295510 -8.393600
v 25.498156 1.514729 -8.180330
v 25.287140 1.514729 -8.251101
v 25.117977 1.514729 -8.307835
v 24.906961 1.514729 -8.378606
v 25.714334 1.514730 -8.107830
v 25.753771 1.514730 -8.094604
vn -0.4977 0.8511 -0.1669
vn -0.1860 0.8111 0.5546
vn -0.3180 -0.0000 0.9481
vn -0.0000 1.0000 -0.0000
vn -0.2151 -0.9739 -0.0722
vn -0.7044 -0.6693 -0.2362
vn -0.0000 -1.0000 -0.0000
vn -0.9481 -0.0000 -0.3180
vn -0.8797 0.3729 -0.2950
vn -0.9285 0.2024 -0.3114
vn 0.3990 0.9071 0.1338
vn 0.3180 -0.0000 -0.9481
vn 0.3990 -0.9071 0.1338
vn -0.3990 -0.9071 -0.1338
vn 0.9481 -0.0000 0.3180
vn -0.3990 0.9071 -0.1338
vn 0.4977 0.8511 0.1669
vn 0.2151 -0.9739 0.0722
vn 0.7044 -0.6693 0.2363
vn 0.8797 0.3729 0.2950
vn 0.9285 0.2024 0.3114
vn 0.3833 -0.9146 0.1286
vn -0.3833 -0.9146 -0.1286
vn -0.3833 0.9146 -0.1285
vn 0.3833 0.9146 0.1285
vn -0.9258 0.2154 -0.3105
vn -0.3833 -0.9146 -0.1285
vn 0.3833 0.9146 0.1286
vn 0.9258 0.2154 0.3105
vn 0.1860 0.8111 -0.5546
vt 0.563424 0.076340
vt 0.553130 0.073518
vt 0.930572 0.423953
vt 0.921307 0.379121
vt 0.987792 0.379121
vt 0.977903 0.423953
vt 0.607372 0.029178
vt 0.597289 0.031257
vt 0.582896 0.026846
vt 0.590093 0.017196
vt 0.572813 0.024865
vt 0.576362 0.017196
vt 0.613360 0.017196
vt 0.614695 0.029178
vt 0.558897 0.019004
vt 0.565490 0.024865
vt 0.555407 0.026846
vt 0.548211 0.024277
vt 0.555407 0.062200
vt 0.548211 0.068077
vt 0.639171 0.057790
vt 0.624778 0.057790
vt 0.624778 0.031257
vt 0.639171 0.031257
vt 0.597289 0.057790
vt 0.582896 0.062201
vt 0.649254 0.029178
vt 0.691136 0.029178
vt 0.681053 0.031257
vt 0.666660 0.031257
vt 0.656577 0.029178
vt 0.565490 0.064181
vt 0.572813 0.064181
vt 0.666660 0.057790
vt 0.681053 0.057790
vt 0.691136 0.059869
vt 0.656577 0.059869
vt 0.649254 0.059869
vt 0.614695 0.059869
vt 0.706379 0.076340
vt 0.683164 0.076340
vt 0.613360 0.076340
vt 0.582896 0.076340
vt 0.659896 0.017196
vt 0.683164 0.017196
vt 0.659896 0.076340
vt 0.636628 0.076340
vt 0.636628 0.017196
vt 0.614506 0.062201
vt 0.604926 0.062201
vt 0.607372 0.059869
vt 0.613607 0.073299
vt 0.638959 0.073299
vt 0.657047 0.062201
vt 0.647466 0.062201
vt 0.659283 0.073299
vt 0.684635 0.073299
vt 0.688839 0.081258
vt 0.699816 0.081258
vt 0.706005 0.126709
vt 0.682651 0.126709
vt 0.698407 0.059869
vt 0.699536 0.062201
vt 0.690007 0.062201
vt 0.612500 0.017196
vt 0.594699 0.017196
vt 0.977903 0.434165
vt 0.930572 0.434165
vt 0.704907 0.073299
vt 0.706379 0.017196
vt 0.698407 0.029178
vt 0.653445 0.126709
vt 0.630032 0.126709
vt 0.639832 0.081258
vt 0.650869 0.081258
vt 0.600826 0.126709
vt 0.570905 0.126710
vt 0.590825 0.081258
vt 0.601862 0.081258
vt 0.587634 0.073299
vt 0.806647 0.062201
vt 0.806647 0.026846
vt 0.565447 0.081258
vt 0.565447 0.126710
vt 0.582896 0.073299
vt 0.836413 0.073518
vt 0.826118 0.076340
vt 0.729647 0.076340
vt 0.978547 0.423953
vt 0.931216 0.423953
vt 0.921327 0.379121
vt 0.987812 0.379121
vt 0.782171 0.029178
vt 0.799450 0.017196
vt 0.792254 0.031257
vt 0.813181 0.017196
vt 0.816730 0.024865
vt 0.774848 0.029178
vt 0.776183 0.017196
vt 0.830646 0.019004
vt 0.841332 0.024277
vt 0.834136 0.026846
vt 0.824053 0.024865
vt 0.841332 0.068077
vt 0.834136 0.062200
vt 0.750372 0.057790
vt 0.750372 0.031257
vt 0.764765 0.031257
vt 0.764765 0.057790
vt 0.792254 0.057790
vt 0.740289 0.029178
vt 0.732966 0.029178
vt 0.722883 0.031257
vt 0.708490 0.031257
vt 0.816730 0.064181
vt 0.824053 0.064181
vt 0.722883 0.057790
vt 0.732966 0.059869
vt 0.708490 0.057790
vt 0.740289 0.059869
vt 0.774848 0.059869
vt 0.806647 0.076340
vt 0.776183 0.076340
vt 0.729647 0.017196
vt 0.752915 0.076340
vt 0.752915 0.017196
vt 0.775037 0.062201
vt 0.782171 0.059869
vt 0.784617 0.062201
vt 0.775936 0.073299
vt 0.750584 0.073299
vt 0.732496 0.062201
vt 0.742077 0.062201
vt 0.730260 0.073299
vt 0.777043 0.017196
vt 0.794844 0.017196
vt 0.978547 0.434165
vt 0.931216 0.434165
vt 0.735211 0.126709
vt 0.737787 0.081258
vt 0.748824 0.081258
vt 0.758624 0.126709
vt 0.787830 0.126709
vt 0.786794 0.081258
vt 0.797831 0.081258
vt 0.817751 0.126710
vt 0.801909 0.073299
vt 0.823209 0.081258
vt 0.823209 0.126710
vt 0.806647 0.073299
s 1
usemtl initialShadingGroup.004
f 10/1/1 132/1/1 154/2/1 32/2/1
f 6/3/2 17/4/2 18/5/2 16/6/2
f 8/7/3 40/8/3 2/9/3 1/10/3
f 1/10/3 2/9/3 22/11/3 21/12/3
f 1/10/3 13/13/3 42/14/3 8/7/3
f 46/15/3 23/16/3 45/17/3 47/18/3
f 45/17/3 44/19/3 20/20/3 47/18/3
f 30/21/3 36/22/3 41/23/3 4/24/3
f 40/8/3 37/25/3 27/26/3 2/9/3
f 23/16/3 46/15/3 21/12/3 22/11/3
f 4/24/3 41/23/3 42/14/3 26/27/3
f 9/28/3 25/29/3 43/30/3 3/31/3
f 10/1/3 32/2/3 24/32/3 39/33/3
f 35/34/3 33/35/3 34/36/3 31/37/3
f 29/38/3 28/39/3 36/22/3 30/21/3
f 43/30/3 25/29/3 33/35/3 35/34/3
f 73/40/4 195/40/4 134/41/4 12/41/4
f 46/15/5 168/15/5 143/12/5 21/12/5
f 11/42/4 133/42/4 141/43/4 19/43/4
f 47/18/6 169/18/6 168/15/6 46/15/6
f 50/44/7 172/44/7 137/45/7 15/45/7
f 19/43/4 141/43/4 132/1/4 10/1/4
f 20/20/3 44/19/3 24/32/3 32/2/3
f 49/46/4 171/46/4 170/47/4 48/47/4
f 26/27/3 42/14/3 13/13/3 14/48/3
f 14/48/3 50/44/3 3/31/3 26/27/3
f 9/28/3 3/31/3 50/44/3 15/45/3
f 52/49/3 51/50/3 38/51/3 28/39/3
f 56/52/3 57/53/3 48/47/3 11/42/3
f 54/54/3 53/55/3 29/38/3 31/37/3
f 58/56/3 59/57/3 12/41/3 49/46/3
f 55/58/3 116/59/3 120/60/3 59/61/3
f 13/13/7 135/13/7 136/48/7 14/48/7
f 20/20/8 142/20/8 169/18/8 47/18/8
f 34/36/3 95/62/3 116/63/3 55/64/3
f 48/47/4 170/47/4 133/42/4 11/42/4
f 32/2/9 154/2/9 142/20/9 20/20/9
f 14/48/7 136/48/7 172/44/7 50/44/7
f 7/65/7 13/13/7 1/10/7 5/66/7
f 6/3/3 16/6/3 7/67/3 5/68/3
f 139/4/10 17/4/10 6/3/10 128/3/10
f 5/68/8 127/68/8 128/3/8 6/3/8
f 7/65/7 129/65/7 135/13/7 13/13/7
f 1/10/7 123/10/7 127/66/7 5/66/7
f 3/31/4 125/31/4 148/27/4 26/27/4
f 26/27/11 148/27/11 126/24/11 4/24/11
f 134/41/12 195/40/12 242/69/12 181/57/12
f 156/36/7 217/62/7 95/62/7 34/36/7
f 33/35/13 155/35/13 156/36/13 34/36/13
f 37/25/13 159/25/13 160/51/13 38/51/13
f 31/37/14 153/37/14 157/34/14 35/34/14
f 25/29/15 147/29/15 155/35/15 33/35/15
f 9/28/11 131/28/11 147/29/11 25/29/11
f 4/24/15 126/24/15 152/21/15 30/21/15
f 8/7/11 130/7/11 162/8/11 40/8/11
f 40/8/15 162/8/15 159/25/15 37/25/15
f 43/30/16 165/30/16 125/31/16 3/31/16
f 38/51/7 160/51/7 150/39/7 28/39/7
f 76/70/3 70/71/3 9/28/3 15/45/3
f 36/22/8 158/22/8 163/23/8 41/23/8
f 35/34/8 157/34/8 165/30/8 43/30/8
f 42/14/4 164/14/4 130/7/4 8/7/4
f 28/39/14 150/39/14 158/22/14 36/22/14
f 31/37/3 34/36/3 55/64/3 54/54/3
f 58/72/3 57/73/3 53/74/3 54/75/3
f 28/39/3 29/38/3 53/55/3 52/49/3
f 56/76/3 60/77/3 51/78/3 52/79/3
f 37/25/3 38/51/3 51/50/3 27/26/3
f 11/42/3 19/43/3 60/80/3 56/52/3
f 49/46/3 48/47/3 57/53/3 58/56/3
f 210/81/15 88/81/15 63/82/15 185/82/15
f 54/75/3 55/58/3 59/61/3 58/72/3
f 52/79/3 53/74/3 57/73/3 56/76/3
f 27/83/3 51/78/3 60/77/3 61/84/3
f 27/26/3 61/85/3 10/1/3 39/33/3
f 10/1/3 61/85/3 60/80/3 19/43/3
f 12/41/4 134/41/4 171/46/4 49/46/4
f 41/23/16 163/23/16 164/14/16 42/14/16
f 15/45/7 137/45/7 198/70/7 76/70/7
f 93/86/17 215/86/17 193/87/17 71/87/17
f 110/88/4 232/88/4 195/40/4 73/40/4
f 67/89/2 77/90/2 79/91/2 78/92/2
f 69/93/3 62/94/3 63/82/3 101/95/3
f 62/94/3 82/96/3 83/97/3 63/82/3
f 62/94/3 69/93/3 103/98/3 74/99/3
f 107/100/3 108/101/3 106/102/3 84/103/3
f 106/102/3 108/101/3 81/104/3 105/105/3
f 91/106/3 65/107/3 102/108/3 97/109/3
f 101/95/3 63/82/3 88/81/3 98/110/3
f 84/103/3 83/97/3 82/96/3 107/100/3
f 65/107/3 87/111/3 103/98/3 102/108/3
f 70/71/3 64/112/3 104/113/3 86/114/3
f 71/87/3 100/115/3 85/116/3 93/86/3
f 96/117/3 92/118/3 95/62/3 94/119/3
f 90/120/3 91/106/3 97/109/3 89/121/3
f 104/113/3 96/117/3 94/119/3 86/114/3
f 198/70/12 137/45/12 131/28/12 192/71/12
f 82/96/18 204/96/18 229/100/18 107/100/18
f 80/122/4 202/122/4 194/123/4 72/123/4
f 107/100/19 229/100/19 230/101/19 108/101/19
f 76/70/7 198/70/7 233/124/7 111/124/7
f 71/87/4 193/87/4 202/122/4 80/122/4
f 81/104/3 93/86/3 85/116/3 105/105/3
f 109/125/4 231/125/4 232/88/4 110/88/4
f 87/111/3 75/126/3 74/99/3 103/98/3
f 75/126/3 87/111/3 64/112/3 111/124/3
f 70/71/3 76/70/3 111/124/3 64/112/3
f 113/127/3 89/121/3 99/128/3 112/129/3
f 117/130/3 72/123/3 109/125/3 118/131/3
f 115/132/3 92/118/3 90/120/3 114/133/3
f 119/134/3 110/88/3 73/40/3 120/69/3
f 75/126/7 197/126/7 196/99/7 74/99/7
f 108/101/15 230/101/15 203/104/15 81/104/15
f 72/123/4 194/123/4 231/125/4 109/125/4
f 103/98/11 225/98/11 224/108/11 102/108/11
f 81/104/20 203/104/20 215/86/20 93/86/20
f 111/124/7 233/124/7 197/126/7 75/126/7
f 68/135/7 66/136/7 62/94/7 74/99/7
f 67/89/3 66/137/3 68/138/3 77/90/3
f 200/92/21 189/89/21 67/89/21 78/92/21
f 67/89/15 189/89/15 188/137/15 66/137/15
f 74/99/7 196/99/7 190/135/7 68/135/7
f 66/136/7 188/136/7 184/94/7 62/94/7
f 87/111/4 209/111/4 186/112/4 64/112/4
f 65/107/16 187/107/16 209/111/16 87/111/16
f 97/109/13 219/109/13 211/121/13 89/121/13
f 95/62/14 217/62/14 216/119/14 94/119/14
f 99/128/14 221/128/14 220/110/14 98/110/14
f 96/117/13 218/117/13 214/118/13 92/118/13
f 94/119/8 216/119/8 208/114/8 86/114/8
f 86/114/16 208/114/16 192/71/16 70/71/16
f 91/106/8 213/106/8 187/107/8 65/107/8
f 101/95/16 223/95/16 191/93/16 69/93/16
f 98/110/8 220/110/8 223/95/8 101/95/8
f 64/112/11 186/112/11 226/113/11 104/113/11
f 89/121/7 211/121/7 221/128/7 99/128/7
f 102/108/15 224/108/15 219/109/15 97/109/15
f 104/113/15 226/113/15 218/117/15 96/117/15
f 69/93/4 191/93/4 225/98/4 103/98/4
f 92/118/3 115/132/3 116/63/3 95/62/3
f 119/139/3 115/140/3 114/141/3 118/142/3
f 89/121/3 113/127/3 114/133/3 90/120/3
f 117/143/3 113/144/3 112/145/3 121/146/3
f 98/110/3 88/81/3 112/129/3 99/128/3
f 72/123/3 117/130/3 121/147/3 80/122/3
f 110/88/3 119/134/3 118/131/3 109/125/3
f 115/140/3 119/139/3 120/60/3 116/59/3
f 113/144/3 117/143/3 118/142/3 114/141/3
f 88/148/3 122/149/3 121/146/3 112/145/3
f 88/81/3 100/115/3 71/87/3 122/150/3
f 71/87/3 80/122/3 121/147/3 122/150/3
f 17/4/7 139/4/7 140/5/7 18/5/7
f 149/26/8 124/9/8 2/9/8 27/26/8
f 222/115/22 100/115/22 88/81/22 210/81/22
f 222/115/7 207/116/7 85/116/7 100/115/7
f 207/116/23 227/105/23 105/105/23 85/116/23
f 227/105/8 228/102/8 106/102/8 105/105/8
f 206/103/24 84/103/24 106/102/24 228/102/24
f 206/103/4 205/97/4 83/97/4 84/103/4
f 185/82/25 63/82/25 83/97/25 205/97/25
f 213/106/14 91/106/14 90/120/14 212/120/14
f 199/90/8 77/90/8 68/138/8 190/138/8
f 199/90/26 201/91/26 79/91/26 77/90/26
f 62/94/7 184/94/7 204/96/7 82/96/7
f 92/118/7 214/118/7 212/120/7 90/120/7
f 161/33/27 149/26/27 27/26/27 39/33/27
f 161/33/7 39/33/7 24/32/7 146/32/7
f 146/32/22 24/32/22 44/19/22 166/19/22
f 166/19/15 44/19/15 45/17/15 167/17/15
f 145/16/28 167/17/28 45/17/28 23/16/28
f 145/16/4 23/16/4 22/11/4 144/11/4
f 124/9/24 144/11/24 22/11/24 2/9/24
f 152/21/13 151/38/13 29/38/13 30/21/13
f 138/6/15 129/67/15 7/67/15 16/6/15
f 138/6/29 16/6/29 18/5/29 140/5/29
f 21/12/7 143/12/7 123/10/7 1/10/7
f 29/38/7 151/38/7 153/37/7 31/37/7
f 128/3/30 138/6/30 140/5/30 139/4/30
f 130/7/12 123/10/12 124/9/12 162/8/12
f 123/10/12 143/12/12 144/11/12 124/9/12
f 123/10/12 130/7/12 164/14/12 135/13/12
f 168/15/12 169/18/12 167/17/12 145/16/12
f 167/17/12 169/18/12 142/20/12 166/19/12
f 152/21/12 126/24/12 163/23/12 158/22/12
f 162/8/12 124/9/12 149/26/12 159/25/12
f 145/16/12 144/11/12 143/12/12 168/15/12
f 126/24/12 148/27/12 164/14/12 163/23/12
f 131/28/12 125/31/12 165/30/12 147/29/12
f 132/1/12 161/33/12 146/32/12 154/2/12
f 157/34/12 153/37/12 156/36/12 155/35/12
f 151/38/12 152/21/12 158/22/12 150/39/12
f 165/30/12 157/34/12 155/35/12 147/29/12
f 142/20/12 154/2/12 146/32/12 166/19/12
f 148/27/12 136/48/12 135/13/12 164/14/12
f 136/48/12 148/27/12 125/31/12 172/44/12
f 131/28/12 137/45/12 172/44/12 125/31/12
f 174/49/12 150/39/12 160/51/12 173/50/12
f 178/52/12 133/42/12 170/47/12 179/53/12
f 176/54/12 153/37/12 151/38/12 175/55/12
f 180/56/12 171/46/12 134/41/12 181/57/12
f 181/61/12 242/60/12 238/59/12 177/58/12
f 177/64/12 238/63/12 217/62/12 156/36/12
f 129/65/7 127/66/7 123/10/7 135/13/7
f 128/3/12 127/68/12 129/67/12 138/6/12
f 153/37/12 176/54/12 177/64/12 156/36/12
f 180/72/12 176/75/12 175/74/12 179/73/12
f 150/39/12 174/49/12 175/55/12 151/38/12
f 178/76/12 174/79/12 173/78/12 182/77/12
f 159/25/12 149/26/12 173/50/12 160/51/12
f 133/42/12 178/52/12 182/80/12 141/43/12
f 171/46/12 180/56/12 179/53/12 170/47/12
f 176/75/12 180/72/12 181/61/12 177/58/12
f 174/79/12 178/76/12 179/73/12 175/74/12
f 149/83/12 183/84/12 182/77/12 173/78/12
f 149/26/12 161/33/12 132/1/12 183/85/12
f 132/1/12 141/43/12 182/80/12 183/85/12
f 131/28/4 9/28/4 70/71/4 192/71/4
f 189/89/30 200/92/30 201/91/30 199/90/30
f 191/93/12 223/95/12 185/82/12 184/94/12
f 184/94/12 185/82/12 205/97/12 204/96/12
f 184/94/12 196/99/12 225/98/12 191/93/12
f 229/100/12 206/103/12 228/102/12 230/101/12
f 228/102/12 227/105/12 203/104/12 230/101/12
f 213/106/12 219/109/12 224/108/12 187/107/12
f 223/95/12 220/110/12 210/81/12 185/82/12
f 206/103/12 229/100/12 204/96/12 205/97/12
f 187/107/12 224/108/12 225/98/12 209/111/12
f 192/71/12 208/114/12 226/113/12 186/112/12
f 193/87/12 215/86/12 207/116/12 222/115/12
f 218/117/12 216/119/12 217/62/12 214/118/12
f 212/120/12 211/121/12 219/109/12 213/106/12
f 226/113/12 208/114/12 216/119/12 218/117/12
f 203/104/12 227/105/12 207/116/12 215/86/12
f 209/111/12 225/98/12 196/99/12 197/126/12
f 197/126/12 233/124/12 186/112/12 209/111/12
f 192/71/12 186/112/12 233/124/12 198/70/12
f 235/127/12 234/129/12 221/128/12 211/121/12
f 239/130/12 240/131/12 231/125/12 194/123/12
f 237/132/12 236/133/12 212/120/12 214/118/12
f 241/134/12 242/69/12 195/40/12 232/88/12
f 190/135/7 196/99/7 184/94/7 188/136/7
f 189/89/12 199/90/12 190/138/12 188/137/12
f 214/118/12 217/62/12 238/63/12 237/132/12
f 241/139/12 240/142/12 236/141/12 237/140/12
f 211/121/12 212/120/12 236/133/12 235/127/12
f 239/143/12 243/146/12 234/145/12 235/144/12
f 220/110/12 221/128/12 234/129/12 210/81/12
f 194/123/12 202/122/12 243/147/12 239/130/12
f 232/88/12 231/125/12 240/131/12 241/134/12
f 237/140/12 238/59/12 242/60/12 241/139/12
f 235/144/12 236/141/12 240/142/12 239/143/12
f 210/148/12 234/145/12 243/146/12 244/149/12
f 210/81/12 244/150/12 193/87/12 222/115/12
f 193/87/12 244/150/12 243/147/12 202/122/12
f 59/57/3 120/69/3 73/40/3 12/41/3
f 79/91/7 201/91/7 200/92/7 78/92/7
