# Blender 5.1.0
# www.blender.org
mtllib barriere55_025.mtl
o barriere55.025
v 38.447613 0.406541 -14.416056
v 38.385124 0.597165 -14.406741
v 39.024899 0.643225 -14.502107
v 38.873764 0.684292 -14.479579
v 38.485832 0.406541 -14.433981
v 38.485832 0.372824 -14.433981
v 38.640392 0.406541 -14.457020
v 38.597652 0.643225 -14.438421
v 39.324974 0.643225 -14.546837
v 38.216053 1.574801 -14.381539
v 38.649647 1.574798 -14.446172
v 39.255753 1.574798 -14.536518
v 38.649647 0.406541 -14.446172
v 38.851681 0.406541 -14.476287
v 39.255753 0.406541 -14.536518
v 38.640392 0.372824 -14.457020
v 38.485836 0.224800 -14.226452
v 38.702950 0.224800 -14.258816
v 38.385128 1.574798 -14.406741
v 38.083954 1.411592 -14.361848
v 38.328396 0.406541 -14.398285
v 38.297573 0.558040 -14.393691
v 38.233990 0.558040 -14.384212
v 38.233990 1.334635 -14.384212
v 39.237423 0.684292 -14.533786
v 38.961315 0.643225 -14.492629
v 38.385128 1.295510 -14.406741
v 38.661236 1.249446 -14.447899
v 38.961315 1.249446 -14.492629
v 38.873764 1.208380 -14.479579
v 39.024899 1.249446 -14.502107
v 38.126671 1.519064 -14.368216
v 39.237423 1.208380 -14.533786
v 39.324974 1.249446 -14.546837
v 39.112450 1.208380 -14.515158
v 38.748787 1.208380 -14.460949
v 38.510101 1.208380 -14.425370
v 38.597652 1.249449 -14.438421
v 38.297573 1.334635 -14.393691
v 38.510101 0.684292 -14.425370
v 38.748787 0.684292 -14.460949
v 38.661236 0.643225 -14.447899
v 39.112450 0.684292 -14.515158
v 38.146439 1.295507 -14.371162
v 38.146439 0.597165 -14.371162
v 38.176746 0.442266 -14.375680
v 38.083950 0.546411 -14.361848
v 38.851681 1.574798 -14.476287
v 39.053715 1.574798 -14.506403
v 39.053715 0.406541 -14.506403
v 38.576408 1.295510 -14.435254
v 38.659595 1.295510 -14.447655
v 38.945793 1.295510 -14.490315
v 39.028976 1.295510 -14.502715
v 39.315174 1.295510 -14.545376
v 38.651787 1.514729 -14.446490
v 38.871922 1.514729 -14.479304
v 39.048397 1.514729 -14.505610
v 39.268532 1.514729 -14.538424
v 38.426266 1.514730 -14.412874
v 38.385128 1.514730 -14.406741
v 40.265472 0.406541 -14.687029
v 40.327961 0.597165 -14.696343
v 39.688187 0.643225 -14.600978
v 39.839321 0.684292 -14.623507
v 40.223690 0.406541 -14.693028
v 40.223690 0.372824 -14.693028
v 40.069126 0.406541 -14.669990
v 40.115437 0.643225 -14.664664
v 39.388111 0.643225 -14.556248
v 40.497032 1.574801 -14.721545
v 40.063438 1.574798 -14.656914
v 39.457336 1.574798 -14.566566
v 40.063438 0.406541 -14.656914
v 39.861404 0.406541 -14.626798
v 39.457336 0.406541 -14.566566
v 40.069126 0.372824 -14.669990
v 40.284210 0.224800 -14.494521
v 40.067093 0.224800 -14.462157
v 40.327961 1.574798 -14.696343
v 40.629135 1.411592 -14.741237
v 40.384693 0.406541 -14.704800
v 40.415512 0.558040 -14.709394
v 40.479095 0.558040 -14.718872
v 40.479095 1.334635 -14.718872
v 39.475662 0.684292 -14.569299
v 39.751774 0.643225 -14.610456
v 40.327961 1.295510 -14.696343
v 40.051849 1.249446 -14.655186
v 39.751774 1.249446 -14.610456
v 39.839321 1.208380 -14.623507
v 39.688187 1.249446 -14.600978
v 40.586418 1.519064 -14.734869
v 39.475662 1.208380 -14.569299
v 39.388111 1.249446 -14.556248
v 39.600636 1.208380 -14.587927
v 39.964298 1.208380 -14.642136
v 40.202984 1.208380 -14.677714
v 40.115437 1.249449 -14.664664
v 40.415512 1.334635 -14.709394
v 40.202984 0.684292 -14.677714
v 39.964298 0.684292 -14.642136
v 40.051849 0.643225 -14.655186
v 39.600636 0.684292 -14.587927
v 40.566647 1.295507 -14.731922
v 40.566647 0.597165 -14.731922
v 40.536343 0.442266 -14.727405
v 40.629135 0.546411 -14.741237
v 39.861404 1.574798 -14.626798
v 39.659370 1.574798 -14.596683
v 39.659370 0.406541 -14.596683
v 40.136677 1.295510 -14.667830
v 40.053490 1.295510 -14.655431
v 39.767296 1.295510 -14.612770
v 39.684109 1.295510 -14.600369
v 39.397911 1.295510 -14.557709
v 40.061298 1.514729 -14.656594
v 39.841164 1.514729 -14.623780
v 39.664692 1.514729 -14.597475
v 39.444553 1.514729 -14.564662
v 40.286819 1.514730 -14.690210
v 40.327961 1.514730 -14.696343
v 38.434280 0.406541 -14.505507
v 38.371792 0.597165 -14.496192
v 39.011566 0.643225 -14.591558
v 38.860432 0.684292 -14.569030
v 38.476063 0.406541 -14.499507
v 38.476063 0.372824 -14.499507
v 38.630627 0.406541 -14.522546
v 38.584316 0.643225 -14.527871
v 39.311642 0.643225 -14.636288
v 38.202721 1.574801 -14.470990
v 38.636314 1.574798 -14.535623
v 39.242416 1.574798 -14.625969
v 38.636314 0.406541 -14.535622
v 38.838348 0.406541 -14.565738
v 39.242416 0.406541 -14.625969
v 38.630627 0.372824 -14.522546
v 38.415543 0.224800 -14.698014
v 38.632660 0.224800 -14.730378
v 38.371792 1.574798 -14.496192
v 38.070618 1.411592 -14.451299
v 38.315060 0.406541 -14.487736
v 38.284241 0.558040 -14.483142
v 38.220657 0.558040 -14.473663
v 38.220657 1.334635 -14.473663
v 39.224091 0.684292 -14.623237
v 38.947979 0.643225 -14.582080
v 38.371792 1.295510 -14.496192
v 38.647903 1.249446 -14.537350
v 38.947979 1.249446 -14.582080
v 38.860432 1.208380 -14.569030
v 39.011566 1.249446 -14.591558
v 38.113335 1.519064 -14.457666
v 39.224091 1.208380 -14.623237
v 39.311642 1.249446 -14.636288
v 39.099117 1.208380 -14.604609
v 38.735455 1.208380 -14.550400
v 38.496769 1.208380 -14.514821
v 38.584316 1.249449 -14.527872
v 38.284241 1.334635 -14.483142
v 38.496769 0.684292 -14.514821
v 38.735455 0.684292 -14.550400
v 38.647903 0.643225 -14.537350
v 39.099117 0.684292 -14.604609
v 38.133106 1.295507 -14.460613
v 38.133106 0.597165 -14.460613
v 38.163410 0.442266 -14.465131
v 38.070618 0.546411 -14.451299
v 38.838348 1.574798 -14.565738
v 39.040382 1.574798 -14.595854
v 39.040382 0.406541 -14.595853
v 38.563076 1.295510 -14.524705
v 38.646263 1.295510 -14.537106
v 38.932457 1.295510 -14.579766
v 39.015644 1.295510 -14.592166
v 39.301842 1.295510 -14.634827
v 38.638454 1.514729 -14.535941
v 38.858589 1.514729 -14.568755
v 39.035061 1.514729 -14.595060
v 39.255199 1.514729 -14.627874
v 38.412933 1.514730 -14.502325
v 38.371792 1.514730 -14.496192
v 40.252140 0.406541 -14.776480
v 40.314629 0.597165 -14.785794
v 39.674854 0.643225 -14.690429
v 39.825989 0.684292 -14.712956
v 40.213921 0.406541 -14.758554
v 40.213921 0.372824 -14.758554
v 40.059361 0.406541 -14.735516
v 40.102100 0.643225 -14.754115
v 39.374779 0.643225 -14.645699
v 40.483700 1.574801 -14.810996
v 40.050106 1.574798 -14.746365
v 39.444000 1.574798 -14.656017
v 40.050106 0.406541 -14.746364
v 39.848072 0.406541 -14.716249
v 39.444000 0.406541 -14.656017
v 40.059361 0.372824 -14.735516
v 40.213917 0.224800 -14.966084
v 39.996803 0.224800 -14.933720
v 40.314625 1.574798 -14.785794
v 40.615799 1.411592 -14.830688
v 40.371357 0.406541 -14.794250
v 40.402180 0.558040 -14.798844
v 40.465763 0.558040 -14.808323
v 40.465763 1.334635 -14.808323
v 39.462330 0.684292 -14.658750
v 39.738438 0.643225 -14.699906
v 40.314625 1.295510 -14.785794
v 40.038517 1.249446 -14.744637
v 39.738438 1.249446 -14.699906
v 39.825989 1.208380 -14.712957
v 39.674854 1.249446 -14.690429
v 40.573082 1.519064 -14.824320
v 39.462330 1.208380 -14.658750
v 39.374779 1.249446 -14.645699
v 39.587303 1.208380 -14.677378
v 39.950966 1.208380 -14.731586
v 40.189651 1.208380 -14.767165
v 40.102100 1.249449 -14.754115
v 40.402180 1.334635 -14.798845
v 40.189651 0.684292 -14.767165
v 39.950966 0.684292 -14.731586
v 40.038517 0.643225 -14.744637
v 39.587303 0.684292 -14.677378
v 40.553314 1.295507 -14.821373
v 40.553314 0.597165 -14.821373
v 40.523006 0.442266 -14.816855
v 40.615803 0.546411 -14.830688
v 39.848072 1.574798 -14.716249
v 39.646038 1.574798 -14.686133
v 39.646038 0.406541 -14.686133
v 40.123344 1.295510 -14.757281
v 40.040157 1.295510 -14.744882
v 39.753960 1.295510 -14.702221
v 39.670776 1.295510 -14.689820
v 39.384579 1.295510 -14.647160
v 40.047966 1.514729 -14.746045
v 39.827831 1.514729 -14.713231
v 39.651356 1.514729 -14.686926
v 39.431221 1.514729 -14.654113
v 40.273487 1.514730 -14.779661
v 40.314625 1.514730 -14.785794
vn -0.5192 0.8511 0.0774
vn 0.0862 0.8111 0.5785
vn 0.1474 -0.0000 0.9891
vn -0.0000 1.0000 -0.0000
vn -0.2244 -0.9739 0.0335
vn -0.7349 -0.6693 0.1095
vn -0.0000 -1.0000 -0.0000
vn -0.9891 -0.0000 0.1474
vn -0.9177 0.3729 0.1368
vn -0.9686 0.2024 0.1444
vn -0.9891 -0.0000 0.1475
vn 0.4163 0.9071 -0.0621
vn -0.1474 -0.0000 -0.9891
vn 0.4163 -0.9071 -0.0620
vn 0.4163 -0.9071 -0.0621
vn -0.4162 -0.9071 0.0620
vn 0.9891 -0.0000 -0.1474
vn 0.4163 0.9071 -0.0620
vn 0.4162 0.9071 -0.0620
vn -0.4163 0.9071 0.0620
vn -0.4163 -0.9071 0.0620
vn 0.5192 0.8511 -0.0774
vn 0.2244 -0.9739 -0.0335
vn 0.7349 -0.6693 -0.1095
vn 0.9177 0.3729 -0.1368
vn 0.9686 0.2024 -0.1444
vn 0.9891 -0.0000 -0.1475
vn -0.4163 0.9071 0.0621
vn -0.4163 -0.9071 0.0621
vn -0.4162 0.9071 0.0620
vn 0.3998 -0.9146 -0.0596
vn -0.3998 -0.9146 0.0596
vn -0.3998 0.9146 0.0596
vn 0.3999 0.9146 -0.0596
vn -0.9659 0.2154 0.1440
vn 0.3999 -0.9146 -0.0596
vn 0.3998 0.9146 -0.0596
vn -0.3999 0.9146 0.0596
vn 0.9659 0.2154 -0.1440
vn -0.0862 0.8111 -0.5785
vt 0.563424 0.076340
vt 0.553130 0.073518
vt 0.930572 0.423953
vt 0.921307 0.379121
vt 0.987792 0.379121
vt 0.977903 0.423953
vt 0.607372 0.029178
vt 0.597289 0.031257
vt 0.582896 0.026846
vt 0.590093 0.017196
vt 0.572813 0.024865
vt 0.576362 0.017196
vt 0.613360 0.017196
vt 0.614695 0.029178
vt 0.558897 0.019004
vt 0.565490 0.024865
vt 0.555407 0.026846
vt 0.548211 0.024277
vt 0.555407 0.062200
vt 0.548211 0.068077
vt 0.639171 0.057790
vt 0.624778 0.057790
vt 0.624778 0.031257
vt 0.639171 0.031257
vt 0.597289 0.057790
vt 0.582896 0.062201
vt 0.649254 0.029178
vt 0.691136 0.029178
vt 0.681053 0.031257
vt 0.666660 0.031257
vt 0.656577 0.029178
vt 0.565490 0.064181
vt 0.572813 0.064181
vt 0.666660 0.057790
vt 0.681053 0.057790
vt 0.691136 0.059869
vt 0.656577 0.059869
vt 0.649254 0.059869
vt 0.614695 0.059869
vt 0.706379 0.076340
vt 0.683164 0.076340
vt 0.613360 0.076340
vt 0.582896 0.076340
vt 0.659896 0.017196
vt 0.683164 0.017196
vt 0.659896 0.076340
vt 0.636628 0.076340
vt 0.636628 0.017196
vt 0.614506 0.062201
vt 0.604926 0.062201
vt 0.607372 0.059869
vt 0.613607 0.073299
vt 0.638959 0.073299
vt 0.657047 0.062201
vt 0.647466 0.062201
vt 0.659283 0.073299
vt 0.684635 0.073299
vt 0.688839 0.081258
vt 0.699816 0.081258
vt 0.706005 0.126709
vt 0.682651 0.126709
vt 0.698407 0.059869
vt 0.699536 0.062201
vt 0.690007 0.062201
vt 0.612500 0.017196
vt 0.594699 0.017196
vt 0.977903 0.434165
vt 0.930572 0.434165
vt 0.704907 0.073299
vt 0.706379 0.017196
vt 0.698407 0.029178
vt 0.653445 0.126709
vt 0.630032 0.126709
vt 0.639832 0.081258
vt 0.650869 0.081258
vt 0.600826 0.126709
vt 0.570905 0.126710
vt 0.590825 0.081258
vt 0.601862 0.081258
vt 0.587634 0.073299
vt 0.806647 0.062201
vt 0.806647 0.026846
vt 0.565447 0.081258
vt 0.565447 0.126710
vt 0.582896 0.073299
vt 0.836413 0.073518
vt 0.826118 0.076340
vt 0.729647 0.076340
vt 0.978547 0.423953
vt 0.931216 0.423953
vt 0.921327 0.379121
vt 0.987812 0.379121
vt 0.782171 0.029178
vt 0.799450 0.017196
vt 0.792254 0.031257
vt 0.813181 0.017196
vt 0.816730 0.024865
vt 0.774848 0.029178
vt 0.776183 0.017196
vt 0.830646 0.019004
vt 0.841332 0.024277
vt 0.834136 0.026846
vt 0.824053 0.024865
vt 0.841332 0.068077
vt 0.834136 0.062200
vt 0.750372 0.057790
vt 0.750372 0.031257
vt 0.764765 0.031257
vt 0.764765 0.057790
vt 0.792254 0.057790
vt 0.740289 0.029178
vt 0.732966 0.029178
vt 0.722883 0.031257
vt 0.708490 0.031257
vt 0.816730 0.064181
vt 0.824053 0.064181
vt 0.722883 0.057790
vt 0.732966 0.059869
vt 0.708490 0.057790
vt 0.740289 0.059869
vt 0.774848 0.059869
vt 0.806647 0.076340
vt 0.776183 0.076340
vt 0.729647 0.017196
vt 0.752915 0.076340
vt 0.752915 0.017196
vt 0.775037 0.062201
vt 0.782171 0.059869
vt 0.784617 0.062201
vt 0.775936 0.073299
vt 0.750584 0.073299
vt 0.732496 0.062201
vt 0.742077 0.062201
vt 0.730260 0.073299
vt 0.777043 0.017196
vt 0.794844 0.017196
vt 0.978547 0.434165
vt 0.931216 0.434165
vt 0.735211 0.126709
vt 0.737787 0.081258
vt 0.748824 0.081258
vt 0.758624 0.126709
vt 0.787830 0.126709
vt 0.786794 0.081258
vt 0.797831 0.081258
vt 0.817751 0.126710
vt 0.801909 0.073299
vt 0.823209 0.081258
vt 0.823209 0.126710
vt 0.806647 0.073299
s 1
usemtl initialShadingGroup.004
f 10/1/1 132/1/1 154/2/1 32/2/1
f 6/3/2 17/4/2 18/5/2 16/6/2
f 8/7/3 40/8/3 2/9/3 1/10/3
f 1/10/3 2/9/3 22/11/3 21/12/3
f 1/10/3 13/13/3 42/14/3 8/7/3
f 46/15/3 23/16/3 45/17/3 47/18/3
f 45/17/3 44/19/3 20/20/3 47/18/3
f 30/21/3 36/22/3 41/23/3 4/24/3
f 40/8/3 37/25/3 27/26/3 2/9/3
f 23/16/3 46/15/3 21/12/3 22/11/3
f 4/24/3 41/23/3 42/14/3 26/27/3
f 9/28/3 25/29/3 43/30/3 3/31/3
f 10/1/3 32/2/3 24/32/3 39/33/3
f 35/34/3 33/35/3 34/36/3 31/37/3
f 29/38/3 28/39/3 36/22/3 30/21/3
f 43/30/3 25/29/3 33/35/3 35/34/3
f 73/40/4 195/40/4 134/41/4 12/41/4
f 46/15/5 168/15/5 143/12/5 21/12/5
f 11/42/4 133/42/4 141/43/4 19/43/4
f 47/18/6 169/18/6 168/15/6 46/15/6
f 50/44/7 172/44/7 137/45/7 15/45/7
f 19/43/4 141/43/4 132/1/4 10/1/4
f 20/20/3 44/19/3 24/32/3 32/2/3
f 49/46/4 171/46/4 170/47/4 48/47/4
f 26/27/3 42/14/3 13/13/3 14/48/3
f 14/48/3 50/44/3 3/31/3 26/27/3
f 9/28/3 3/31/3 50/44/3 15/45/3
f 52/49/3 51/50/3 38/51/3 28/39/3
f 56/52/3 57/53/3 48/47/3 11/42/3
f 54/54/3 53/55/3 29/38/3 31/37/3
f 58/56/3 59/57/3 12/41/3 49/46/3
f 55/58/3 116/59/3 120/60/3 59/61/3
f 13/13/7 135/13/7 136/48/7 14/48/7
f 20/20/8 142/20/8 169/18/8 47/18/8
f 34/36/3 95/62/3 116/63/3 55/64/3
f 48/47/4 170/47/4 133/42/4 11/42/4
f 32/2/9 154/2/9 142/20/9 20/20/9
f 14/48/7 136/48/7 172/44/7 50/44/7
f 7/65/7 13/13/7 1/10/7 5/66/7
f 6/3/3 16/6/3 7/67/3 5/68/3
f 139/4/10 17/4/10 6/3/10 128/3/10
f 5/68/11 127/68/11 128/3/11 6/3/11
f 7/65/7 129/65/7 135/13/7 13/13/7
f 1/10/7 123/10/7 127/66/7 5/66/7
f 3/31/4 125/31/4 148/27/4 26/27/4
f 26/27/12 148/27/12 126/24/12 4/24/12
f 134/41/13 195/40/13 242/69/13 181/57/13
f 156/36/7 217/62/7 95/62/7 34/36/7
f 33/35/14 155/35/14 156/36/14 34/36/14
f 37/25/15 159/25/15 160/51/15 38/51/15
f 31/37/16 153/37/16 157/34/16 35/34/16
f 25/29/17 147/29/17 155/35/17 33/35/17
f 9/28/18 131/28/18 147/29/18 25/29/18
f 4/24/17 126/24/17 152/21/17 30/21/17
f 8/7/19 130/7/19 162/8/19 40/8/19
f 40/8/17 162/8/17 159/25/17 37/25/17
f 43/30/20 165/30/20 125/31/20 3/31/20
f 38/51/7 160/51/7 150/39/7 28/39/7
f 76/70/3 70/71/3 9/28/3 15/45/3
f 36/22/8 158/22/8 163/23/8 41/23/8
f 35/34/8 157/34/8 165/30/8 43/30/8
f 42/14/4 164/14/4 130/7/4 8/7/4
f 28/39/21 150/39/21 158/22/21 36/22/21
f 31/37/3 34/36/3 55/64/3 54/54/3
f 58/72/3 57/73/3 53/74/3 54/75/3
f 28/39/3 29/38/3 53/55/3 52/49/3
f 56/76/3 60/77/3 51/78/3 52/79/3
f 37/25/3 38/51/3 51/50/3 27/26/3
f 11/42/3 19/43/3 60/80/3 56/52/3
f 49/46/3 48/47/3 57/53/3 58/56/3
f 210/81/17 88/81/17 63/82/17 185/82/17
f 54/75/3 55/58/3 59/61/3 58/72/3
f 52/79/3 53/74/3 57/73/3 56/76/3
f 27/83/3 51/78/3 60/77/3 61/84/3
f 27/26/3 61/85/3 10/1/3 39/33/3
f 10/1/3 61/85/3 60/80/3 19/43/3
f 12/41/4 134/41/4 171/46/4 49/46/4
f 41/23/20 163/23/20 164/14/20 42/14/20
f 15/45/7 137/45/7 198/70/7 76/70/7
f 93/86/22 215/86/22 193/87/22 71/87/22
f 110/88/4 232/88/4 195/40/4 73/40/4
f 67/89/2 77/90/2 79/91/2 78/92/2
f 69/93/3 62/94/3 63/82/3 101/95/3
f 62/94/3 82/96/3 83/97/3 63/82/3
f 62/94/3 69/93/3 103/98/3 74/99/3
f 107/100/3 108/101/3 106/102/3 84/103/3
f 106/102/3 108/101/3 81/104/3 105/105/3
f 91/106/3 65/107/3 102/108/3 97/109/3
f 101/95/3 63/82/3 88/81/3 98/110/3
f 84/103/3 83/97/3 82/96/3 107/100/3
f 65/107/3 87/111/3 103/98/3 102/108/3
f 70/71/3 64/112/3 104/113/3 86/114/3
f 71/87/3 100/115/3 85/116/3 93/86/3
f 96/117/3 92/118/3 95/62/3 94/119/3
f 90/120/3 91/106/3 97/109/3 89/121/3
f 104/113/3 96/117/3 94/119/3 86/114/3
f 198/70/13 137/45/13 131/28/13 192/71/13
f 82/96/23 204/96/23 229/100/23 107/100/23
f 80/122/4 202/122/4 194/123/4 72/123/4
f 107/100/24 229/100/24 230/101/24 108/101/24
f 76/70/7 198/70/7 233/124/7 111/124/7
f 71/87/4 193/87/4 202/122/4 80/122/4
f 81/104/3 93/86/3 85/116/3 105/105/3
f 109/125/4 231/125/4 232/88/4 110/88/4
f 87/111/3 75/126/3 74/99/3 103/98/3
f 75/126/3 87/111/3 64/112/3 111/124/3
f 70/71/3 76/70/3 111/124/3 64/112/3
f 113/127/3 89/121/3 99/128/3 112/129/3
f 117/130/3 72/123/3 109/125/3 118/131/3
f 115/132/3 92/118/3 90/120/3 114/133/3
f 119/134/3 110/88/3 73/40/3 120/69/3
f 75/126/7 197/126/7 196/99/7 74/99/7
f 108/101/17 230/101/17 203/104/17 81/104/17
f 72/123/4 194/123/4 231/125/4 109/125/4
f 103/98/18 225/98/18 224/108/18 102/108/18
f 81/104/25 203/104/25 215/86/25 93/86/25
f 111/124/7 233/124/7 197/126/7 75/126/7
f 68/135/7 66/136/7 62/94/7 74/99/7
f 67/89/3 66/137/3 68/138/3 77/90/3
f 200/92/26 189/89/26 67/89/26 78/92/26
f 67/89/27 189/89/27 188/137/27 66/137/27
f 74/99/7 196/99/7 190/135/7 68/135/7
f 66/136/7 188/136/7 184/94/7 62/94/7
f 87/111/4 209/111/4 186/112/4 64/112/4
f 65/107/28 187/107/28 209/111/28 87/111/28
f 97/109/14 219/109/14 211/121/14 89/121/14
f 95/62/21 217/62/21 216/119/21 94/119/21
f 99/128/29 221/128/29 220/110/29 98/110/29
f 96/117/14 218/117/14 214/118/14 92/118/14
f 94/119/8 216/119/8 208/114/8 86/114/8
f 86/114/20 208/114/20 192/71/20 70/71/20
f 91/106/8 213/106/8 187/107/8 65/107/8
f 101/95/30 223/95/30 191/93/30 69/93/30
f 98/110/8 220/110/8 223/95/8 101/95/8
f 64/112/18 186/112/18 226/113/18 104/113/18
f 89/121/7 211/121/7 221/128/7 99/128/7
f 102/108/17 224/108/17 219/109/17 97/109/17
f 104/113/17 226/113/17 218/117/17 96/117/17
f 69/93/4 191/93/4 225/98/4 103/98/4
f 92/118/3 115/132/3 116/63/3 95/62/3
f 119/139/3 115/140/3 114/141/3 118/142/3
f 89/121/3 113/127/3 114/133/3 90/120/3
f 117/143/3 113/144/3 112/145/3 121/146/3
f 98/110/3 88/81/3 112/129/3 99/128/3
f 72/123/3 117/130/3 121/147/3 80/122/3
f 110/88/3 119/134/3 118/131/3 109/125/3
f 115/140/3 119/139/3 120/60/3 116/59/3
f 113/144/3 117/143/3 118/142/3 114/141/3
f 88/148/3 122/149/3 121/146/3 112/145/3
f 88/81/3 100/115/3 71/87/3 122/150/3
f 71/87/3 80/122/3 121/147/3 122/150/3
f 17/4/7 139/4/7 140/5/7 18/5/7
f 149/26/8 124/9/8 2/9/8 27/26/8
f 222/115/31 100/115/31 88/81/31 210/81/31
f 222/115/7 207/116/7 85/116/7 100/115/7
f 207/116/32 227/105/32 105/105/32 85/116/32
f 227/105/8 228/102/8 106/102/8 105/105/8
f 206/103/33 84/103/33 106/102/33 228/102/33
f 206/103/4 205/97/4 83/97/4 84/103/4
f 185/82/34 63/82/34 83/97/34 205/97/34
f 213/106/16 91/106/16 90/120/16 212/120/16
f 199/90/8 77/90/8 68/138/8 190/138/8
f 199/90/35 201/91/35 79/91/35 77/90/35
f 62/94/7 184/94/7 204/96/7 82/96/7
f 92/118/7 214/118/7 212/120/7 90/120/7
f 161/33/32 149/26/32 27/26/32 39/33/32
f 161/33/7 39/33/7 24/32/7 146/32/7
f 146/32/36 24/32/36 44/19/36 166/19/36
f 166/19/17 44/19/17 45/17/17 167/17/17
f 145/16/37 167/17/37 45/17/37 23/16/37
f 145/16/4 23/16/4 22/11/4 144/11/4
f 124/9/38 144/11/38 22/11/38 2/9/38
f 152/21/14 151/38/14 29/38/14 30/21/14
f 138/6/17 129/67/17 7/67/17 16/6/17
f 138/6/39 16/6/39 18/5/39 140/5/39
f 21/12/7 143/12/7 123/10/7 1/10/7
f 29/38/7 151/38/7 153/37/7 31/37/7
f 128/3/40 138/6/40 140/5/40 139/4/40
f 130/7/13 123/10/13 124/9/13 162/8/13
f 123/10/13 143/12/13 144/11/13 124/9/13
f 123/10/13 130/7/13 164/14/13 135/13/13
f 168/15/13 169/18/13 167/17/13 145/16/13
f 167/17/13 169/18/13 142/20/13 166/19/13
f 152/21/13 126/24/13 163/23/13 158/22/13
f 162/8/13 124/9/13 149/26/13 159/25/13
f 145/16/13 144/11/13 143/12/13 168/15/13
f 126/24/13 148/27/13 164/14/13 163/23/13
f 131/28/13 125/31/13 165/30/13 147/29/13
f 132/1/13 161/33/13 146/32/13 154/2/13
f 157/34/13 153/37/13 156/36/13 155/35/13
f 151/38/13 152/21/13 158/22/13 150/39/13
f 165/30/13 157/34/13 155/35/13 147/29/13
f 142/20/13 154/2/13 146/32/13 166/19/13
f 148/27/13 136/48/13 135/13/13 164/14/13
f 136/48/13 148/27/13 125/31/13 172/44/13
f 131/28/13 137/45/13 172/44/13 125/31/13
f 174/49/13 150/39/13 160/51/13 173/50/13
f 178/52/13 133/42/13 170/47/13 179/53/13
f 176/54/13 153/37/13 151/38/13 175/55/13
f 180/56/13 171/46/13 134/41/13 181/57/13
f 181/61/13 242/60/13 238/59/13 177/58/13
f 177/64/13 238/63/13 217/62/13 156/36/13
f 129/65/7 127/66/7 123/10/7 135/13/7
f 128/3/13 127/68/13 129/67/13 138/6/13
f 153/37/13 176/54/13 177/64/13 156/36/13
f 180/72/13 176/75/13 175/74/13 179/73/13
f 150/39/13 174/49/13 175/55/13 151/38/13
f 178/76/13 174/79/13 173/78/13 182/77/13
f 159/25/13 149/26/13 173/50/13 160/51/13
f 133/42/13 178/52/13 182/80/13 141/43/13
f 171/46/13 180/56/13 179/53/13 170/47/13
f 176/75/13 180/72/13 181/61/13 177/58/13
f 174/79/13 178/76/13 179/73/13 175/74/13
f 149/83/13 183/84/13 182/77/13 173/78/13
f 149/26/13 161/33/13 132/1/13 183/85/13
f 132/1/13 141/43/13 182/80/13 183/85/13
f 131/28/4 9/28/4 70/71/4 192/71/4
f 189/89/40 200/92/40 201/91/40 199/90/40
f 191/93/13 223/95/13 185/82/13 184/94/13
f 184/94/13 185/82/13 205/97/13 204/96/13
f 184/94/13 196/99/13 225/98/13 191/93/13
f 229/100/13 206/103/13 228/102/13 230/101/13
f 228/102/13 227/105/13 203/104/13 230/101/13
f 213/106/13 219/109/13 224/108/13 187/107/13
f 223/95/13 220/110/13 210/81/13 185/82/13
f 206/103/13 229/100/13 204/96/13 205/97/13
f 187/107/13 224/108/13 225/98/13 209/111/13
f 192/71/13 208/114/13 226/113/13 186/112/13
f 193/87/13 215/86/13 207/116/13 222/115/13
f 218/117/13 216/119/13 217/62/13 214/118/13
f 212/120/13 211/121/13 219/109/13 213/106/13
f 226/113/13 208/114/13 216/119/13 218/117/13
f 203/104/13 227/105/13 207/116/13 215/86/13
f 209/111/13 225/98/13 196/99/13 197/126/13
f 197/126/13 233/124/13 186/112/13 209/111/13
f 192/71/13 186/112/13 233/124/13 198/70/13
f 235/127/13 234/129/13 221/128/13 211/121/13
f 239/130/13 240/131/13 231/125/13 194/123/13
f 237/132/13 236/133/13 212/120/13 214/118/13
f 241/134/13 242/69/13 195/40/13 232/88/13
f 190/135/7 196/99/7 184/94/7 188/136/7
f 189/89/13 199/90/13 190/138/13 188/137/13
f 214/118/13 217/62/13 238/63/13 237/132/13
f 241/139/13 240/142/13 236/141/13 237/140/13
f 211/121/13 212/120/13 236/133/13 235/127/13
f 239/143/13 243/146/13 234/145/13 235/144/13
f 220/110/13 221/128/13 234/129/13 210/81/13
f 194/123/13 202/122/13 243/147/13 239/130/13
f 232/88/13 231/125/13 240/131/13 241/134/13
f 237/140/13 238/59/13 242/60/13 241/139/13
f 235/144/13 236/141/13 240/142/13 239/143/13
f 210/148/13 234/145/13 243/146/13 244/149/13
f 210/81/13 244/150/13 193/87/13 222/115/13
f 193/87/13 244/150/13 243/147/13 202/122/13
f 59/57/3 120/69/3 73/40/3 12/41/3
f 79/91/7 201/91/7 200/92/7 78/92/7
