# Blender 5.1.0
# www.blender.org
mtllib barriere55_031.mtl
o barriere55.031
v 21.808870 0.406541 -14.399096
v 21.745811 0.597165 -14.395195
v 22.391418 0.643225 -14.435144
v 22.238907 0.684292 -14.425707
v 21.848488 0.406541 -14.413666
v 21.848488 0.372824 -14.413666
v 22.004461 0.406541 -14.423317
v 21.960278 0.643225 -14.408465
v 22.694231 0.643225 -14.453882
v 21.575199 1.574801 -14.384637
v 22.012747 1.574798 -14.411713
v 22.624376 1.574798 -14.449560
v 22.012747 0.406541 -14.411713
v 22.216623 0.406541 -14.424328
v 22.624376 0.406541 -14.449560
v 22.004461 0.372824 -14.423317
v 21.830631 0.224800 -14.206907
v 22.049728 0.224800 -14.220465
v 21.745813 1.574798 -14.395195
v 21.441893 1.411592 -14.376389
v 21.688564 0.406541 -14.391652
v 21.657463 0.558040 -14.389728
v 21.593300 0.558040 -14.385757
v 21.593300 1.334635 -14.385757
v 22.605883 0.684292 -14.448416
v 22.327253 0.643225 -14.431174
v 21.745813 1.295510 -14.395195
v 22.024441 1.249446 -14.412436
v 22.327253 1.249446 -14.431174
v 22.238907 1.208380 -14.425707
v 22.391418 1.249446 -14.435144
v 21.484999 1.519064 -14.379056
v 22.605883 1.208380 -14.448416
v 22.694231 1.249446 -14.453882
v 22.479769 1.208380 -14.440612
v 22.112789 1.208380 -14.417903
v 21.871929 1.208380 -14.402999
v 21.960278 1.249449 -14.408465
v 21.657463 1.334635 -14.389728
v 21.871929 0.684292 -14.402999
v 22.112789 0.684292 -14.417903
v 22.024441 0.643225 -14.412436
v 22.479769 0.684292 -14.440612
v 21.504950 1.295507 -14.380290
v 21.504950 0.597165 -14.380290
v 21.535532 0.442266 -14.382182
v 21.441893 0.546411 -14.376389
v 22.216623 1.574798 -14.424328
v 22.420500 1.574798 -14.436944
v 22.420500 0.406541 -14.436944
v 21.938841 1.295510 -14.407139
v 22.022785 1.295510 -14.412333
v 22.311590 1.295510 -14.430205
v 22.395536 1.295510 -14.435399
v 22.684341 1.295510 -14.453271
v 22.014906 1.514729 -14.411846
v 22.237049 1.514729 -14.425592
v 22.415131 1.514729 -14.436612
v 22.637274 1.514729 -14.450358
v 21.787329 1.514730 -14.397763
v 21.745813 1.514730 -14.395195
v 23.643307 0.406541 -14.512611
v 23.706364 0.597165 -14.516513
v 23.060757 0.643225 -14.476563
v 23.213268 0.684292 -14.486000
v 23.602194 0.406541 -14.522184
v 23.602194 0.372824 -14.522184
v 23.446222 0.406541 -14.512533
v 23.491899 0.643225 -14.503242
v 22.757944 0.643225 -14.457825
v 23.876978 1.574801 -14.527071
v 23.439430 1.574798 -14.499995
v 22.827799 1.574798 -14.462148
v 23.439430 0.406541 -14.499995
v 23.235554 0.406541 -14.487379
v 22.827799 0.406541 -14.462148
v 23.446222 0.372824 -14.512533
v 23.645405 0.224800 -14.319204
v 23.426310 0.224800 -14.305647
v 23.706362 1.574798 -14.516513
v 24.010284 1.411592 -14.535319
v 23.763611 0.406541 -14.520056
v 23.794714 0.558040 -14.521980
v 23.858877 0.558040 -14.525950
v 23.858877 1.334635 -14.525950
v 22.846294 0.684292 -14.463292
v 23.124922 0.643225 -14.480534
v 23.706362 1.295510 -14.516513
v 23.427734 1.249446 -14.499271
v 23.124922 1.249446 -14.480534
v 23.213268 1.208380 -14.486000
v 23.060757 1.249446 -14.476563
v 23.967176 1.519064 -14.532652
v 22.846294 1.208380 -14.463292
v 22.757944 1.249446 -14.457825
v 22.972406 1.208380 -14.471096
v 23.339386 1.208380 -14.493805
v 23.580248 1.208380 -14.508709
v 23.491899 1.249449 -14.503242
v 23.794714 1.334635 -14.521980
v 23.580248 0.684292 -14.508709
v 23.339386 0.684292 -14.493805
v 23.427734 0.643225 -14.499271
v 22.972406 0.684292 -14.471096
v 23.947226 1.295507 -14.531418
v 23.947226 0.597165 -14.531418
v 23.916645 0.442266 -14.529525
v 24.010284 0.546411 -14.535319
v 23.235554 1.574798 -14.487379
v 23.031675 1.574798 -14.474764
v 23.031675 0.406541 -14.474764
v 23.513334 1.295510 -14.504568
v 23.429390 1.295510 -14.499374
v 23.140585 1.295510 -14.481503
v 23.056641 1.295510 -14.476309
v 22.767834 1.295510 -14.458437
v 23.437271 1.514729 -14.499862
v 23.215128 1.514729 -14.486115
v 23.037045 1.514729 -14.475096
v 22.814903 1.514729 -14.461349
v 23.664846 1.514730 -14.513944
v 23.706362 1.514730 -14.516513
v 21.803284 0.406541 -14.489363
v 21.740227 0.597165 -14.485461
v 22.385834 0.643225 -14.525411
v 22.233322 0.684292 -14.515974
v 21.844397 0.406541 -14.479790
v 21.844397 0.372824 -14.479790
v 22.000368 0.406541 -14.489441
v 21.954691 0.643225 -14.498732
v 22.688646 0.643225 -14.544149
v 21.569613 1.574801 -14.474904
v 22.007160 1.574798 -14.501979
v 22.618792 1.574798 -14.539826
v 22.007160 0.406541 -14.501979
v 22.211037 0.406541 -14.514595
v 22.618792 0.406541 -14.539826
v 22.000368 0.372824 -14.489441
v 21.801186 0.224800 -14.682770
v 22.020281 0.224800 -14.696327
v 21.740229 1.574798 -14.485461
v 21.436306 1.411592 -14.466655
v 21.682980 0.406541 -14.481918
v 21.651876 0.558040 -14.479994
v 21.587713 0.558040 -14.476024
v 21.587713 1.334635 -14.476024
v 22.600296 0.684292 -14.538682
v 22.321669 0.643225 -14.521441
v 21.740229 1.295510 -14.485461
v 22.018856 1.249446 -14.502703
v 22.321669 1.249446 -14.521441
v 22.233322 1.208380 -14.515974
v 22.385834 1.249446 -14.525411
v 21.479414 1.519064 -14.469322
v 22.600296 1.208380 -14.538682
v 22.688646 1.249446 -14.544149
v 22.474184 1.208380 -14.530878
v 22.107204 1.208380 -14.508169
v 21.866343 1.208380 -14.493265
v 21.954691 1.249449 -14.498733
v 21.651876 1.334635 -14.479994
v 21.866343 0.684292 -14.493265
v 22.107204 0.684292 -14.508169
v 22.018856 0.643225 -14.502703
v 22.474184 0.684292 -14.530878
v 21.499365 1.295507 -14.470556
v 21.499365 0.597165 -14.470556
v 21.529945 0.442266 -14.472449
v 21.436306 0.546411 -14.466655
v 22.211037 1.574798 -14.514595
v 22.414915 1.574798 -14.527210
v 22.414915 0.406541 -14.527210
v 21.933256 1.295510 -14.497406
v 22.017200 1.295510 -14.502600
v 22.306005 1.295510 -14.520472
v 22.389950 1.295510 -14.525666
v 22.678757 1.295510 -14.543537
v 22.009319 1.514729 -14.502112
v 22.231462 1.514729 -14.515859
v 22.409546 1.514729 -14.526878
v 22.631687 1.514729 -14.540625
v 21.781744 1.514730 -14.488030
v 21.740229 1.514730 -14.485461
v 23.637720 0.406541 -14.602878
v 23.700779 0.597165 -14.606779
v 23.055172 0.643225 -14.566830
v 23.207684 0.684292 -14.576267
v 23.598103 0.406541 -14.588308
v 23.598103 0.372824 -14.588308
v 23.442129 0.406541 -14.578657
v 23.486313 0.643225 -14.593509
v 22.752359 0.643225 -14.548092
v 23.871391 1.574801 -14.617337
v 23.433844 1.574798 -14.590261
v 22.822214 1.574798 -14.552414
v 23.433844 0.406541 -14.590261
v 23.229967 0.406541 -14.577646
v 22.822214 0.406541 -14.552414
v 23.442129 0.372824 -14.578657
v 23.615959 0.224800 -14.795067
v 23.396862 0.224800 -14.781509
v 23.700777 1.574798 -14.606780
v 24.004698 1.411592 -14.625587
v 23.758026 0.406541 -14.610322
v 23.789127 0.558040 -14.612247
v 23.853291 0.558040 -14.616217
v 23.853291 1.334635 -14.616218
v 22.840708 0.684292 -14.553558
v 23.119337 0.643225 -14.570800
v 23.700777 1.295510 -14.606779
v 23.422150 1.249446 -14.589539
v 23.119337 1.249446 -14.570800
v 23.207684 1.208380 -14.576267
v 23.055172 1.249446 -14.566830
v 23.961592 1.519064 -14.622919
v 22.840708 1.208380 -14.553558
v 22.752359 1.249446 -14.548092
v 22.966822 1.208380 -14.561362
v 23.333801 1.208380 -14.584071
v 23.574661 1.208380 -14.598975
v 23.486313 1.249449 -14.593509
v 23.789127 1.334635 -14.612247
v 23.574661 0.684292 -14.598975
v 23.333801 0.684292 -14.584071
v 23.422150 0.643225 -14.589538
v 22.966822 0.684292 -14.561362
v 23.941641 1.295507 -14.621684
v 23.941641 0.597165 -14.621684
v 23.911058 0.442266 -14.619792
v 24.004698 0.546411 -14.625586
v 23.229967 1.574798 -14.577646
v 23.026091 1.574798 -14.565030
v 23.026091 0.406541 -14.565030
v 23.507750 1.295510 -14.594835
v 23.423805 1.295510 -14.589641
v 23.135000 1.295510 -14.571770
v 23.051054 1.295510 -14.566575
v 22.762249 1.295510 -14.548703
v 23.431684 1.514729 -14.590128
v 23.209541 1.514729 -14.576382
v 23.031460 1.514729 -14.565362
v 22.809317 1.514729 -14.551617
v 23.659262 1.514730 -14.604211
v 23.700777 1.514730 -14.606780
vn -0.5239 0.8511 0.0324
vn 0.0361 0.8111 0.5838
vn 0.0618 -0.0000 0.9981
vn -0.0000 1.0000 -0.0000
vn -0.2265 -0.9739 0.0140
vn -0.7416 -0.6693 0.0459
vn -0.0000 -1.0000 -0.0000
vn 0.0617 -0.0000 0.9981
vn -0.9981 -0.0000 0.0618
vn -0.9261 0.3729 0.0573
vn -0.9774 0.2024 0.0605
vn 0.4201 0.9071 -0.0260
vn -0.0618 -0.0000 -0.9981
vn 0.4200 -0.9071 -0.0260
vn 0.4201 -0.9071 -0.0260
vn -0.4200 -0.9071 0.0260
vn 0.9981 -0.0000 -0.0618
vn -0.4200 0.9071 0.0260
vn -0.4201 0.9071 0.0260
vn 0.5239 0.8511 -0.0324
vn 0.2265 -0.9739 -0.0140
vn 0.7416 -0.6693 -0.0459
vn 0.9261 0.3729 -0.0573
vn 0.9774 0.2024 -0.0605
vn -0.4201 -0.9071 0.0260
vn 0.4200 0.9071 -0.0260
vn 0.4035 -0.9146 -0.0250
vn -0.4035 -0.9146 0.0250
vn -0.4035 0.9146 0.0250
vn 0.4035 0.9146 -0.0250
vn -0.9747 0.2154 0.0603
vn 0.9747 0.2154 -0.0603
vn -0.0361 0.8111 -0.5838
vn -0.0617 -0.0000 -0.9981
vt 0.563424 0.076340
vt 0.553130 0.073518
vt 0.930572 0.423953
vt 0.921307 0.379121
vt 0.987792 0.379121
vt 0.977903 0.423953
vt 0.607372 0.029178
vt 0.597289 0.031257
vt 0.582896 0.026846
vt 0.590093 0.017196
vt 0.572813 0.024865
vt 0.576362 0.017196
vt 0.613360 0.017196
vt 0.614695 0.029178
vt 0.558897 0.019004
vt 0.565490 0.024865
vt 0.555407 0.026846
vt 0.548211 0.024277
vt 0.555407 0.062200
vt 0.548211 0.068077
vt 0.639171 0.057790
vt 0.624778 0.057790
vt 0.624778 0.031257
vt 0.639171 0.031257
vt 0.597289 0.057790
vt 0.582896 0.062201
vt 0.649254 0.029178
vt 0.691136 0.029178
vt 0.681053 0.031257
vt 0.666660 0.031257
vt 0.656577 0.029178
vt 0.565490 0.064181
vt 0.572813 0.064181
vt 0.666660 0.057790
vt 0.681053 0.057790
vt 0.691136 0.059869
vt 0.656577 0.059869
vt 0.649254 0.059869
vt 0.614695 0.059869
vt 0.706379 0.076340
vt 0.683164 0.076340
vt 0.613360 0.076340
vt 0.582896 0.076340
vt 0.659896 0.017196
vt 0.683164 0.017196
vt 0.659896 0.076340
vt 0.636628 0.076340
vt 0.636628 0.017196
vt 0.614506 0.062201
vt 0.604926 0.062201
vt 0.607372 0.059869
vt 0.613607 0.073299
vt 0.638959 0.073299
vt 0.657047 0.062201
vt 0.647466 0.062201
vt 0.659283 0.073299
vt 0.684635 0.073299
vt 0.688839 0.081258
vt 0.699816 0.081258
vt 0.706005 0.126709
vt 0.682651 0.126709
vt 0.698407 0.059869
vt 0.699536 0.062201
vt 0.690007 0.062201
vt 0.612500 0.017196
vt 0.594699 0.017196
vt 0.977903 0.434165
vt 0.930572 0.434165
vt 0.704907 0.073299
vt 0.706379 0.017196
vt 0.698407 0.029178
vt 0.653445 0.126709
vt 0.630032 0.126709
vt 0.639832 0.081258
vt 0.650869 0.081258
vt 0.600826 0.126709
vt 0.570905 0.126710
vt 0.590825 0.081258
vt 0.601862 0.081258
vt 0.587634 0.073299
vt 0.806647 0.062201
vt 0.806647 0.026846
vt 0.565447 0.081258
vt 0.565447 0.126710
vt 0.582896 0.073299
vt 0.836413 0.073518
vt 0.826118 0.076340
vt 0.729647 0.076340
vt 0.978547 0.423953
vt 0.931216 0.423953
vt 0.921327 0.379121
vt 0.987812 0.379121
vt 0.782171 0.029178
vt 0.799450 0.017196
vt 0.792254 0.031257
vt 0.813181 0.017196
vt 0.816730 0.024865
vt 0.774848 0.029178
vt 0.776183 0.017196
vt 0.830646 0.019004
vt 0.841332 0.024277
vt 0.834136 0.026846
vt 0.824053 0.024865
vt 0.841332 0.068077
vt 0.834136 0.062200
vt 0.750372 0.057790
vt 0.750372 0.031257
vt 0.764765 0.031257
vt 0.764765 0.057790
vt 0.792254 0.057790
vt 0.740289 0.029178
vt 0.732966 0.029178
vt 0.722883 0.031257
vt 0.708490 0.031257
vt 0.816730 0.064181
vt 0.824053 0.064181
vt 0.722883 0.057790
vt 0.732966 0.059869
vt 0.708490 0.057790
vt 0.740289 0.059869
vt 0.774848 0.059869
vt 0.806647 0.076340
vt 0.776183 0.076340
vt 0.729647 0.017196
vt 0.752915 0.076340
vt 0.752915 0.017196
vt 0.775037 0.062201
vt 0.782171 0.059869
vt 0.784617 0.062201
vt 0.775936 0.073299
vt 0.750584 0.073299
vt 0.732496 0.062201
vt 0.742077 0.062201
vt 0.730260 0.073299
vt 0.777043 0.017196
vt 0.794844 0.017196
vt 0.978547 0.434165
vt 0.931216 0.434165
vt 0.735211 0.126709
vt 0.737787 0.081258
vt 0.748824 0.081258
vt 0.758624 0.126709
vt 0.787830 0.126709
vt 0.786794 0.081258
vt 0.797831 0.081258
vt 0.817751 0.126710
vt 0.801909 0.073299
vt 0.823209 0.081258
vt 0.823209 0.126710
vt 0.806647 0.073299
s 1
usemtl initialShadingGroup.004
f 10/1/1 132/1/1 154/2/1 32/2/1
f 6/3/2 17/4/2 18/5/2 16/6/2
f 8/7/3 40/8/3 2/9/3 1/10/3
f 1/10/3 2/9/3 22/11/3 21/12/3
f 1/10/3 13/13/3 42/14/3 8/7/3
f 46/15/3 23/16/3 45/17/3 47/18/3
f 45/17/3 44/19/3 20/20/3 47/18/3
f 30/21/3 36/22/3 41/23/3 4/24/3
f 40/8/3 37/25/3 27/26/3 2/9/3
f 23/16/3 46/15/3 21/12/3 22/11/3
f 4/24/3 41/23/3 42/14/3 26/27/3
f 9/28/3 25/29/3 43/30/3 3/31/3
f 10/1/3 32/2/3 24/32/3 39/33/3
f 35/34/3 33/35/3 34/36/3 31/37/3
f 29/38/3 28/39/3 36/22/3 30/21/3
f 43/30/3 25/29/3 33/35/3 35/34/3
f 73/40/4 195/40/4 134/41/4 12/41/4
f 46/15/5 168/15/5 143/12/5 21/12/5
f 11/42/4 133/42/4 141/43/4 19/43/4
f 47/18/6 169/18/6 168/15/6 46/15/6
f 50/44/7 172/44/7 137/45/7 15/45/7
f 19/43/4 141/43/4 132/1/4 10/1/4
f 20/20/3 44/19/3 24/32/3 32/2/3
f 49/46/4 171/46/4 170/47/4 48/47/4
f 26/27/3 42/14/3 13/13/3 14/48/3
f 14/48/3 50/44/3 3/31/3 26/27/3
f 9/28/3 3/31/3 50/44/3 15/45/3
f 52/49/3 51/50/3 38/51/8 28/39/3
f 56/52/3 57/53/3 48/47/3 11/42/3
f 54/54/3 53/55/3 29/38/3 31/37/3
f 58/56/3 59/57/3 12/41/3 49/46/3
f 55/58/3 116/59/3 120/60/3 59/61/3
f 13/13/7 135/13/7 136/48/7 14/48/7
f 20/20/9 142/20/9 169/18/9 47/18/9
f 34/36/3 95/62/3 116/63/3 55/64/3
f 48/47/4 170/47/4 133/42/4 11/42/4
f 32/2/10 154/2/10 142/20/10 20/20/10
f 14/48/7 136/48/7 172/44/7 50/44/7
f 7/65/7 13/13/7 1/10/7 5/66/7
f 6/3/3 16/6/3 7/67/3 5/68/3
f 139/4/11 17/4/11 6/3/11 128/3/11
f 5/68/9 127/68/9 128/3/9 6/3/9
f 7/65/7 129/65/7 135/13/7 13/13/7
f 1/10/7 123/10/7 127/66/7 5/66/7
f 3/31/4 125/31/4 148/27/4 26/27/4
f 26/27/12 148/27/12 126/24/12 4/24/12
f 134/41/13 195/40/13 242/69/13 181/57/13
f 156/36/7 217/62/7 95/62/7 34/36/7
f 33/35/14 155/35/14 156/36/14 34/36/14
f 37/25/15 159/25/15 160/51/15 38/51/15
f 31/37/16 153/37/16 157/34/16 35/34/16
f 25/29/17 147/29/17 155/35/17 33/35/17
f 9/28/12 131/28/12 147/29/12 25/29/12
f 4/24/17 126/24/17 152/21/17 30/21/17
f 8/7/12 130/7/12 162/8/12 40/8/12
f 40/8/17 162/8/17 159/25/17 37/25/17
f 43/30/18 165/30/18 125/31/18 3/31/18
f 38/51/7 160/51/7 150/39/7 28/39/7
f 76/70/3 70/71/3 9/28/3 15/45/3
f 36/22/9 158/22/9 163/23/9 41/23/9
f 35/34/9 157/34/9 165/30/9 43/30/9
f 42/14/4 164/14/4 130/7/4 8/7/4
f 28/39/16 150/39/16 158/22/16 36/22/16
f 31/37/3 34/36/3 55/64/3 54/54/3
f 58/72/3 57/73/3 53/74/3 54/75/3
f 28/39/3 29/38/3 53/55/3 52/49/3
f 56/76/3 60/77/3 51/78/3 52/79/3
f 37/25/3 38/51/8 51/50/3 27/26/3
f 11/42/3 19/43/3 60/80/3 56/52/3
f 49/46/3 48/47/3 57/53/3 58/56/3
f 210/81/17 88/81/17 63/82/17 185/82/17
f 54/75/3 55/58/3 59/61/3 58/72/3
f 52/79/3 53/74/3 57/73/3 56/76/3
f 27/83/3 51/78/3 60/77/3 61/84/3
f 27/26/3 61/85/3 10/1/3 39/33/3
f 10/1/3 61/85/3 60/80/3 19/43/3
f 12/41/4 134/41/4 171/46/4 49/46/4
f 41/23/19 163/23/19 164/14/19 42/14/19
f 15/45/7 137/45/7 198/70/7 76/70/7
f 93/86/20 215/86/20 193/87/20 71/87/20
f 110/88/4 232/88/4 195/40/4 73/40/4
f 67/89/2 77/90/2 79/91/2 78/92/2
f 69/93/3 62/94/3 63/82/3 101/95/3
f 62/94/3 82/96/3 83/97/3 63/82/3
f 62/94/3 69/93/3 103/98/3 74/99/3
f 107/100/3 108/101/3 106/102/3 84/103/3
f 106/102/3 108/101/3 81/104/3 105/105/3
f 91/106/3 65/107/3 102/108/3 97/109/3
f 101/95/3 63/82/3 88/81/3 98/110/3
f 84/103/3 83/97/3 82/96/3 107/100/3
f 65/107/3 87/111/3 103/98/3 102/108/3
f 70/71/3 64/112/3 104/113/3 86/114/3
f 71/87/3 100/115/3 85/116/3 93/86/3
f 96/117/3 92/118/3 95/62/3 94/119/3
f 90/120/8 91/106/3 97/109/3 89/121/3
f 104/113/3 96/117/3 94/119/3 86/114/3
f 198/70/13 137/45/13 131/28/13 192/71/13
f 82/96/21 204/96/21 229/100/21 107/100/21
f 80/122/4 202/122/4 194/123/4 72/123/4
f 107/100/22 229/100/22 230/101/22 108/101/22
f 76/70/7 198/70/7 233/124/7 111/124/7
f 71/87/4 193/87/4 202/122/4 80/122/4
f 81/104/3 93/86/3 85/116/3 105/105/3
f 109/125/4 231/125/4 232/88/4 110/88/4
f 87/111/3 75/126/3 74/99/3 103/98/3
f 75/126/3 87/111/3 64/112/3 111/124/3
f 70/71/3 76/70/3 111/124/3 64/112/3
f 113/127/3 89/121/3 99/128/3 112/129/3
f 117/130/3 72/123/3 109/125/3 118/131/3
f 115/132/3 92/118/3 90/120/8 114/133/3
f 119/134/3 110/88/3 73/40/3 120/69/3
f 75/126/7 197/126/7 196/99/7 74/99/7
f 108/101/17 230/101/17 203/104/17 81/104/17
f 72/123/4 194/123/4 231/125/4 109/125/4
f 103/98/12 225/98/12 224/108/12 102/108/12
f 81/104/23 203/104/23 215/86/23 93/86/23
f 111/124/7 233/124/7 197/126/7 75/126/7
f 68/135/7 66/136/7 62/94/7 74/99/7
f 67/89/3 66/137/3 68/138/3 77/90/3
f 200/92/24 189/89/24 67/89/24 78/92/24
f 67/89/17 189/89/17 188/137/17 66/137/17
f 74/99/7 196/99/7 190/135/7 68/135/7
f 66/136/7 188/136/7 184/94/7 62/94/7
f 87/111/4 209/111/4 186/112/4 64/112/4
f 65/107/19 187/107/19 209/111/19 87/111/19
f 97/109/15 219/109/15 211/121/15 89/121/15
f 95/62/16 217/62/16 216/119/16 94/119/16
f 99/128/25 221/128/25 220/110/25 98/110/25
f 96/117/14 218/117/14 214/118/14 92/118/14
f 94/119/9 216/119/9 208/114/9 86/114/9
f 86/114/18 208/114/18 192/71/18 70/71/18
f 91/106/9 213/106/9 187/107/9 65/107/9
f 101/95/19 223/95/19 191/93/19 69/93/19
f 98/110/9 220/110/9 223/95/9 101/95/9
f 64/112/26 186/112/26 226/113/26 104/113/26
f 89/121/7 211/121/7 221/128/7 99/128/7
f 102/108/17 224/108/17 219/109/17 97/109/17
f 104/113/17 226/113/17 218/117/17 96/117/17
f 69/93/4 191/93/4 225/98/4 103/98/4
f 92/118/3 115/132/3 116/63/3 95/62/3
f 119/139/3 115/140/3 114/141/3 118/142/3
f 89/121/3 113/127/3 114/133/3 90/120/8
f 117/143/3 113/144/3 112/145/3 121/146/3
f 98/110/3 88/81/3 112/129/3 99/128/3
f 72/123/3 117/130/3 121/147/3 80/122/3
f 110/88/3 119/134/3 118/131/3 109/125/3
f 115/140/3 119/139/3 120/60/3 116/59/3
f 113/144/3 117/143/3 118/142/3 114/141/3
f 88/148/3 122/149/3 121/146/3 112/145/3
f 88/81/3 100/115/3 71/87/3 122/150/3
f 71/87/3 80/122/3 121/147/3 122/150/3
f 17/4/7 139/4/7 140/5/7 18/5/7
f 149/26/9 124/9/9 2/9/9 27/26/9
f 222/115/27 100/115/27 88/81/27 210/81/27
f 222/115/7 207/116/7 85/116/7 100/115/7
f 207/116/28 227/105/28 105/105/28 85/116/28
f 227/105/9 228/102/9 106/102/9 105/105/9
f 206/103/29 84/103/29 106/102/29 228/102/29
f 206/103/4 205/97/4 83/97/4 84/103/4
f 185/82/30 63/82/30 83/97/30 205/97/30
f 213/106/25 91/106/25 90/120/25 212/120/25
f 199/90/9 77/90/9 68/138/9 190/138/9
f 199/90/31 201/91/31 79/91/31 77/90/31
f 62/94/7 184/94/7 204/96/7 82/96/7
f 92/118/7 214/118/7 212/120/7 90/120/7
f 161/33/28 149/26/28 27/26/28 39/33/28
f 161/33/7 39/33/7 24/32/7 146/32/7
f 146/32/27 24/32/27 44/19/27 166/19/27
f 166/19/17 44/19/17 45/17/17 167/17/17
f 145/16/30 167/17/30 45/17/30 23/16/30
f 145/16/4 23/16/4 22/11/4 144/11/4
f 124/9/29 144/11/29 22/11/29 2/9/29
f 152/21/15 151/38/15 29/38/15 30/21/15
f 138/6/17 129/67/17 7/67/17 16/6/17
f 138/6/32 16/6/32 18/5/32 140/5/32
f 21/12/7 143/12/7 123/10/7 1/10/7
f 29/38/7 151/38/7 153/37/7 31/37/7
f 128/3/33 138/6/33 140/5/33 139/4/33
f 130/7/13 123/10/13 124/9/13 162/8/13
f 123/10/13 143/12/13 144/11/13 124/9/13
f 123/10/13 130/7/13 164/14/13 135/13/13
f 168/15/13 169/18/13 167/17/13 145/16/13
f 167/17/13 169/18/13 142/20/13 166/19/13
f 152/21/13 126/24/13 163/23/13 158/22/13
f 162/8/13 124/9/13 149/26/13 159/25/13
f 145/16/13 144/11/13 143/12/13 168/15/13
f 126/24/13 148/27/13 164/14/13 163/23/13
f 131/28/13 125/31/13 165/30/13 147/29/13
f 132/1/13 161/33/13 146/32/13 154/2/13
f 157/34/13 153/37/13 156/36/13 155/35/13
f 151/38/13 152/21/13 158/22/13 150/39/13
f 165/30/13 157/34/13 155/35/13 147/29/13
f 142/20/13 154/2/13 146/32/13 166/19/13
f 148/27/13 136/48/13 135/13/13 164/14/13
f 136/48/13 148/27/13 125/31/13 172/44/13
f 131/28/13 137/45/13 172/44/13 125/31/13
f 174/49/13 150/39/13 160/51/13 173/50/13
f 178/52/13 133/42/13 170/47/13 179/53/13
f 176/54/13 153/37/13 151/38/13 175/55/13
f 180/56/13 171/46/13 134/41/13 181/57/13
f 181/61/13 242/60/13 238/59/13 177/58/13
f 177/64/13 238/63/13 217/62/13 156/36/13
f 129/65/7 127/66/7 123/10/7 135/13/7
f 128/3/13 127/68/13 129/67/13 138/6/13
f 153/37/13 176/54/13 177/64/13 156/36/13
f 180/72/13 176/75/13 175/74/13 179/73/13
f 150/39/13 174/49/13 175/55/13 151/38/13
f 178/76/13 174/79/13 173/78/13 182/77/13
f 159/25/13 149/26/13 173/50/13 160/51/13
f 133/42/13 178/52/13 182/80/13 141/43/13
f 171/46/13 180/56/13 179/53/13 170/47/13
f 176/75/13 180/72/13 181/61/13 177/58/13
f 174/79/13 178/76/13 179/73/13 175/74/13
f 149/83/13 183/84/13 182/77/13 173/78/13
f 149/26/13 161/33/13 132/1/13 183/85/13
f 132/1/13 141/43/13 182/80/13 183/85/13
f 131/28/4 9/28/4 70/71/4 192/71/4
f 189/89/33 200/92/33 201/91/33 199/90/33
f 191/93/13 223/95/13 185/82/13 184/94/13
f 184/94/13 185/82/13 205/97/13 204/96/13
f 184/94/13 196/99/13 225/98/13 191/93/13
f 229/100/13 206/103/13 228/102/13 230/101/13
f 228/102/13 227/105/13 203/104/13 230/101/13
f 213/106/13 219/109/13 224/108/13 187/107/13
f 223/95/13 220/110/13 210/81/13 185/82/13
f 206/103/13 229/100/13 204/96/13 205/97/13
f 187/107/13 224/108/13 225/98/13 209/111/13
f 192/71/13 208/114/13 226/113/13 186/112/13
f 193/87/13 215/86/13 207/116/13 222/115/13
f 218/117/13 216/119/13 217/62/13 214/118/13
f 212/120/13 211/121/13 219/109/13 213/106/13
f 226/113/13 208/114/13 216/119/13 218/117/13
f 203/104/13 227/105/13 207/116/13 215/86/13
f 209/111/13 225/98/13 196/99/13 197/126/13
f 197/126/13 233/124/13 186/112/13 209/111/13
f 192/71/13 186/112/13 233/124/13 198/70/13
f 235/127/13 234/129/13 221/128/34 211/121/13
f 239/130/13 240/131/13 231/125/13 194/123/13
f 237/132/13 236/133/13 212/120/13 214/118/13
f 241/134/13 242/69/13 195/40/13 232/88/13
f 190/135/7 196/99/7 184/94/7 188/136/7
f 189/89/13 199/90/13 190/138/13 188/137/13
f 214/118/13 217/62/13 238/63/13 237/132/13
f 241/139/13 240/142/13 236/141/13 237/140/13
f 211/121/13 212/120/13 236/133/13 235/127/13
f 239/143/13 243/146/13 234/145/13 235/144/13
f 220/110/13 221/128/34 234/129/13 210/81/13
f 194/123/13 202/122/13 243/147/13 239/130/13
f 232/88/13 231/125/13 240/131/13 241/134/13
f 237/140/13 238/59/13 242/60/13 241/139/13
f 235/144/13 236/141/13 240/142/13 239/143/13
f 210/148/13 234/145/13 243/146/13 244/149/13
f 210/81/13 244/150/13 193/87/13 222/115/13
f 193/87/13 244/150/13 243/147/13 202/122/13
f 59/57/3 120/69/3 73/40/3 12/41/3
f 79/91/7 201/91/7 200/92/7 78/92/7
