# Blender 5.1.0
# www.blender.org
mtllib barriere55_139.mtl
o barriere55.139
v 8.943112 0.406545 35.028866
v 8.884707 0.597169 35.004776
v 9.482677 0.643229 35.251427
v 9.341418 0.684296 35.193161
v 8.985111 0.406545 35.033108
v 8.985111 0.372828 35.033108
v 9.129575 0.406545 35.092697
v 9.083347 0.643229 35.086712
v 9.763145 0.643229 35.367115
v 8.726683 1.574805 34.939594
v 9.131946 1.574802 35.106758
v 9.698445 1.574802 35.340427
v 9.131946 0.406545 35.106758
v 9.320779 0.406545 35.184647
v 9.698445 0.406545 35.340427
v 9.129575 0.372828 35.092697
v 8.878561 0.224804 35.211197
v 9.081491 0.224804 35.294899
v 8.884708 1.574802 35.004776
v 8.603212 1.411596 34.888664
v 8.831683 0.406545 34.982906
v 8.802876 0.558044 34.971024
v 8.743447 0.558044 34.946510
v 8.743447 1.334639 34.946510
v 9.681315 0.684296 35.333363
v 9.423246 0.643229 35.226913
v 8.884708 1.295514 35.004776
v 9.142777 1.249450 35.111225
v 9.423246 1.249450 35.226913
v 9.341418 1.208384 35.193161
v 9.482677 1.249450 35.251427
v 8.643139 1.519068 34.905132
v 9.681315 1.208384 35.333363
v 9.763145 1.249450 35.367115
v 9.564508 1.208384 35.285179
v 9.224607 1.208384 35.144978
v 9.001518 1.208384 35.052959
v 9.083347 1.249453 35.086712
v 8.802876 1.334639 34.971024
v 9.001518 0.684296 35.052959
v 9.224607 0.684296 35.144978
v 9.142777 0.643229 35.111225
v 9.564508 0.684296 35.285179
v 8.661617 1.295511 34.912758
v 8.661617 0.597169 34.912758
v 8.689942 0.442270 34.924438
v 8.603212 0.546415 34.888664
v 9.320779 1.574802 35.184647
v 9.509612 1.574802 35.262539
v 9.509612 0.406545 35.262539
v 9.063494 1.295514 35.078522
v 9.141244 1.295514 35.110592
v 9.408739 1.295514 35.220928
v 9.486490 1.295514 35.252998
v 9.753985 1.295514 35.363335
v 9.133945 1.514733 35.107582
v 9.339697 1.514733 35.192451
v 9.504639 1.514733 35.260487
v 9.710391 1.514733 35.345356
v 8.923162 1.514734 35.020638
v 8.884708 1.514734 35.004776
v 10.642191 0.406545 35.729702
v 10.700596 0.597169 35.753796
v 10.102627 0.643229 35.507145
v 10.243885 0.684296 35.565411
v 10.609416 0.406545 35.703102
v 10.609416 0.372828 35.703102
v 10.464952 0.406545 35.643513
v 10.501956 0.643229 35.671860
v 9.822158 0.643229 35.391457
v 10.858621 1.574805 35.818977
v 10.453358 1.574802 35.651814
v 9.886858 1.574802 35.418144
v 10.453358 0.406545 35.651814
v 10.264524 0.406545 35.573925
v 9.886858 0.406545 35.418144
v 10.464952 0.372828 35.643513
v 10.559428 0.224804 35.904518
v 10.356498 0.224804 35.820816
v 10.700595 1.574802 35.753796
v 10.982091 1.411596 35.869904
v 10.753620 0.406545 35.775665
v 10.782427 0.558044 35.787548
v 10.841856 0.558044 35.812061
v 10.841856 1.334639 35.812061
v 9.903988 0.684296 35.425209
v 10.162057 0.643229 35.531658
v 10.700595 1.295514 35.753796
v 10.442526 1.249450 35.647346
v 10.162057 1.249450 35.531658
v 10.243885 1.208384 35.565411
v 10.102627 1.249450 35.507145
v 10.942164 1.519068 35.853436
v 9.903988 1.208384 35.425209
v 9.822158 1.249450 35.391457
v 10.020795 1.208384 35.473389
v 10.360697 1.208384 35.613594
v 10.583785 1.208384 35.705612
v 10.501956 1.249453 35.671860
v 10.782427 1.334639 35.787548
v 10.583785 0.684296 35.705612
v 10.360697 0.684296 35.613594
v 10.442526 0.643229 35.647346
v 10.020795 0.684296 35.473389
v 10.923686 1.295511 35.845814
v 10.923686 0.597169 35.845814
v 10.895361 0.442270 35.834129
v 10.982091 0.546415 35.869904
v 10.264524 1.574802 35.573925
v 10.075691 1.574802 35.496033
v 10.075691 0.406545 35.496033
v 10.521810 1.295514 35.680050
v 10.444059 1.295514 35.647980
v 10.176564 1.295514 35.537643
v 10.098813 1.295514 35.505569
v 9.831318 1.295514 35.395233
v 10.451358 1.514733 35.650990
v 10.245606 1.514733 35.566120
v 10.080665 1.514733 35.498085
v 9.874912 1.514733 35.413216
v 10.662143 1.514734 35.737934
v 10.700595 1.514734 35.753796
v 8.977598 0.406545 34.945263
v 8.919193 0.597169 34.921169
v 9.517162 0.643229 35.167820
v 9.375904 0.684296 35.109554
v 9.010373 0.406545 34.971863
v 9.010373 0.372828 34.971863
v 9.154837 0.406545 35.031452
v 9.117833 0.643229 35.003105
v 9.797631 0.643229 35.283508
v 8.761168 1.574805 34.855988
v 9.166431 1.574802 35.023151
v 9.732931 1.574802 35.256821
v 9.166431 0.406545 35.023151
v 9.355265 0.406545 35.101040
v 9.732931 0.406545 35.256821
v 9.154837 0.372828 35.031452
v 9.060361 0.224804 34.770447
v 9.263291 0.224804 34.854149
v 8.919194 1.574802 34.921169
v 8.637698 1.411596 34.805058
v 8.866169 0.406545 34.899300
v 8.837362 0.558044 34.887417
v 8.777933 0.558044 34.862904
v 8.777933 1.334639 34.862904
v 9.715801 0.684296 35.249756
v 9.457732 0.643229 35.143307
v 8.919194 1.295514 34.921169
v 9.177263 1.249450 35.027618
v 9.457732 1.249450 35.143307
v 9.375904 1.208384 35.109554
v 9.517162 1.249450 35.167820
v 8.677625 1.519068 34.821529
v 9.715801 1.208384 35.249756
v 9.797632 1.249450 35.283508
v 9.598994 1.208384 35.201576
v 9.259092 1.208384 35.061371
v 9.036004 1.208384 34.969353
v 9.117833 1.249453 35.003105
v 8.837362 1.334639 34.887417
v 9.036004 0.684296 34.969353
v 9.259092 0.684296 35.061371
v 9.177263 0.643229 35.027618
v 9.598994 0.684296 35.201576
v 8.696103 1.295511 34.829151
v 8.696103 0.597169 34.829151
v 8.724428 0.442270 34.840832
v 8.637698 0.546415 34.805058
v 9.355265 1.574802 35.101040
v 9.544098 1.574802 35.178932
v 9.544098 0.406545 35.178932
v 9.097980 1.295514 34.994915
v 9.175730 1.295514 35.026985
v 9.443225 1.295514 35.137321
v 9.520976 1.295514 35.169395
v 9.788471 1.295514 35.279732
v 9.168431 1.514733 35.023975
v 9.374183 1.514733 35.108845
v 9.539124 1.514733 35.176880
v 9.744877 1.514733 35.261749
v 8.957647 1.514734 34.937031
v 8.919194 1.514734 34.921169
v 10.676677 0.406545 35.646099
v 10.735082 0.597169 35.670189
v 10.137113 0.643229 35.423538
v 10.278371 0.684296 35.481804
v 10.634678 0.406545 35.641857
v 10.634678 0.372828 35.641857
v 10.490214 0.406545 35.582268
v 10.536442 0.643229 35.588253
v 9.856644 0.643229 35.307850
v 10.893106 1.574805 35.735371
v 10.487844 1.574802 35.568207
v 9.921344 1.574802 35.334538
v 10.487844 0.406545 35.568207
v 10.299010 0.406545 35.490318
v 9.921344 0.406545 35.334538
v 10.490214 0.372828 35.582268
v 10.741228 0.224804 35.463768
v 10.538299 0.224804 35.380066
v 10.735081 1.574802 35.670189
v 11.016577 1.411596 35.786301
v 10.788106 0.406545 35.692059
v 10.816913 0.558044 35.703941
v 10.876342 0.558044 35.728455
v 10.876342 1.334639 35.728455
v 9.938474 0.684296 35.341602
v 10.196543 0.643229 35.448051
v 10.735081 1.295514 35.670189
v 10.477012 1.249450 35.563740
v 10.196543 1.249450 35.448051
v 10.278371 1.208384 35.481804
v 10.137113 1.249450 35.423538
v 10.976650 1.519068 35.769829
v 9.938474 1.208384 35.341602
v 9.856644 1.249450 35.307850
v 10.055281 1.208384 35.389786
v 10.395183 1.208384 35.529987
v 10.618271 1.208384 35.622005
v 10.536442 1.249453 35.588253
v 10.816913 1.334639 35.703941
v 10.618271 0.684296 35.622005
v 10.395183 0.684296 35.529987
v 10.477012 0.643229 35.563740
v 10.055281 0.684296 35.389786
v 10.958172 1.295511 35.762207
v 10.958172 0.597169 35.762207
v 10.929847 0.442270 35.750526
v 11.016577 0.546415 35.786301
v 10.299010 1.574802 35.490318
v 10.110177 1.574802 35.412426
v 10.110177 0.406545 35.412426
v 10.556295 1.295514 35.596443
v 10.478545 1.295514 35.564373
v 10.211050 1.295514 35.454037
v 10.133299 1.295514 35.421967
v 9.865804 1.295514 35.311630
v 10.485844 1.514733 35.567383
v 10.280092 1.514733 35.482513
v 10.115150 1.514733 35.414478
v 9.909399 1.514733 35.329609
v 10.696629 1.514734 35.654327
v 10.735081 1.514734 35.670189
vn -0.4853 0.8511 -0.2002
vn -0.2230 0.8111 0.5407
vn -0.3813 -0.0000 0.9244
vn -0.3813 -0.0000 0.9245
vn -0.0000 1.0000 -0.0000
vn -0.2098 -0.9739 -0.0865
vn -0.6868 -0.6693 -0.2833
vn -0.0000 -1.0000 -0.0000
vn -0.9244 -0.0000 -0.3813
vn -0.8578 0.3729 -0.3538
vn -0.9053 0.2024 -0.3734
vn 0.3891 0.9071 0.1605
vn 0.3813 -0.0000 -0.9244
vn 0.3890 -0.9071 0.1605
vn 0.3891 -0.9071 0.1605
vn -0.3890 -0.9071 -0.1605
vn 0.9244 -0.0000 0.3813
vn -0.3890 0.9071 -0.1605
vn -0.9245 -0.0000 -0.3813
vn -0.3891 -0.9071 -0.1605
vn -0.3891 0.9071 -0.1605
vn 0.4853 0.8511 0.2002
vn -0.3814 -0.0000 0.9244
vn 0.2098 -0.9739 0.0865
vn 0.6868 -0.6693 0.2833
vn 0.8578 0.3729 0.3538
vn 0.9053 0.2024 0.3734
vn 0.9245 -0.0000 0.3813
vn 0.3890 0.9071 0.1605
vn 0.3737 -0.9146 0.1542
vn -0.3737 -0.9146 -0.1542
vn -0.3737 0.9146 -0.1542
vn 0.3737 0.9146 0.1542
vn -0.9027 0.2154 -0.3724
vn 0.9027 0.2154 0.3724
vn 0.2230 0.8111 -0.5407
vn 0.3813 -0.0000 -0.9245
vn 0.3814 -0.0000 -0.9244
vt 0.563424 0.076340
vt 0.553130 0.073518
vt 0.930572 0.423953
vt 0.921307 0.379121
vt 0.987792 0.379121
vt 0.977903 0.423953
vt 0.607372 0.029178
vt 0.597289 0.031257
vt 0.582896 0.026846
vt 0.590093 0.017196
vt 0.572813 0.024865
vt 0.576362 0.017196
vt 0.613360 0.017196
vt 0.614695 0.029178
vt 0.558897 0.019004
vt 0.565490 0.024865
vt 0.555407 0.026846
vt 0.548211 0.024277
vt 0.555407 0.062200
vt 0.548211 0.068077
vt 0.639171 0.057790
vt 0.624778 0.057790
vt 0.624778 0.031257
vt 0.639171 0.031257
vt 0.597289 0.057790
vt 0.582896 0.062201
vt 0.649254 0.029178
vt 0.691136 0.029178
vt 0.681053 0.031257
vt 0.666660 0.031257
vt 0.656577 0.029178
vt 0.565490 0.064181
vt 0.572813 0.064181
vt 0.666660 0.057790
vt 0.681053 0.057790
vt 0.691136 0.059869
vt 0.656577 0.059869
vt 0.649254 0.059869
vt 0.614695 0.059869
vt 0.706379 0.076340
vt 0.683164 0.076340
vt 0.613360 0.076340
vt 0.582896 0.076340
vt 0.659896 0.017196
vt 0.683164 0.017196
vt 0.659896 0.076340
vt 0.636628 0.076340
vt 0.636628 0.017196
vt 0.614506 0.062201
vt 0.604926 0.062201
vt 0.607372 0.059869
vt 0.613607 0.073299
vt 0.638959 0.073299
vt 0.657047 0.062201
vt 0.647466 0.062201
vt 0.659283 0.073299
vt 0.684635 0.073299
vt 0.688839 0.081258
vt 0.699816 0.081258
vt 0.706005 0.126709
vt 0.682651 0.126709
vt 0.698407 0.059869
vt 0.699536 0.062201
vt 0.690007 0.062201
vt 0.612500 0.017196
vt 0.594699 0.017196
vt 0.977903 0.434165
vt 0.930572 0.434165
vt 0.704907 0.073299
vt 0.706379 0.017196
vt 0.698407 0.029178
vt 0.653445 0.126709
vt 0.630032 0.126709
vt 0.639832 0.081258
vt 0.650869 0.081258
vt 0.600826 0.126709
vt 0.570905 0.126710
vt 0.590825 0.081258
vt 0.601862 0.081258
vt 0.587634 0.073299
vt 0.806647 0.062201
vt 0.806647 0.026846
vt 0.565447 0.081258
vt 0.565447 0.126710
vt 0.582896 0.073299
vt 0.836413 0.073518
vt 0.826118 0.076340
vt 0.729647 0.076340
vt 0.978547 0.423953
vt 0.931216 0.423953
vt 0.921327 0.379121
vt 0.987812 0.379121
vt 0.782171 0.029178
vt 0.799450 0.017196
vt 0.792254 0.031257
vt 0.813181 0.017196
vt 0.816730 0.024865
vt 0.774848 0.029178
vt 0.776183 0.017196
vt 0.830646 0.019004
vt 0.841332 0.024277
vt 0.834136 0.026846
vt 0.824053 0.024865
vt 0.841332 0.068077
vt 0.834136 0.062200
vt 0.750372 0.057790
vt 0.750372 0.031257
vt 0.764765 0.031257
vt 0.764765 0.057790
vt 0.792254 0.057790
vt 0.740289 0.029178
vt 0.732966 0.029178
vt 0.722883 0.031257
vt 0.708490 0.031257
vt 0.816730 0.064181
vt 0.824053 0.064181
vt 0.722883 0.057790
vt 0.732966 0.059869
vt 0.708490 0.057790
vt 0.740289 0.059869
vt 0.774848 0.059869
vt 0.806647 0.076340
vt 0.776183 0.076340
vt 0.729647 0.017196
vt 0.752915 0.076340
vt 0.752915 0.017196
vt 0.775037 0.062201
vt 0.782171 0.059869
vt 0.784617 0.062201
vt 0.775936 0.073299
vt 0.750584 0.073299
vt 0.732496 0.062201
vt 0.742077 0.062201
vt 0.730260 0.073299
vt 0.777043 0.017196
vt 0.794844 0.017196
vt 0.978547 0.434165
vt 0.931216 0.434165
vt 0.735211 0.126709
vt 0.737787 0.081258
vt 0.748824 0.081258
vt 0.758624 0.126709
vt 0.787830 0.126709
vt 0.786794 0.081258
vt 0.797831 0.081258
vt 0.817751 0.126710
vt 0.801909 0.073299
vt 0.823209 0.081258
vt 0.823209 0.126710
vt 0.806647 0.073299
s 1
usemtl initialShadingGroup.004
f 10/1/1 132/1/1 154/2/1 32/2/1
f 6/3/2 17/4/2 18/5/2 16/6/2
f 8/7/3 40/8/3 2/9/3 1/10/3
f 1/10/3 2/9/3 22/11/3 21/12/3
f 1/10/3 13/13/3 42/14/3 8/7/3
f 46/15/3 23/16/3 45/17/3 47/18/3
f 45/17/3 44/19/3 20/20/3 47/18/3
f 30/21/3 36/22/3 41/23/3 4/24/3
f 40/8/3 37/25/3 27/26/3 2/9/3
f 23/16/3 46/15/3 21/12/3 22/11/3
f 4/24/3 41/23/3 42/14/3 26/27/3
f 9/28/3 25/29/3 43/30/3 3/31/3
f 10/1/3 32/2/3 24/32/3 39/33/3
f 35/34/3 33/35/3 34/36/3 31/37/4
f 29/38/4 28/39/4 36/22/3 30/21/3
f 43/30/3 25/29/3 33/35/3 35/34/3
f 73/40/5 195/40/5 134/41/5 12/41/5
f 46/15/6 168/15/6 143/12/6 21/12/6
f 11/42/5 133/42/5 141/43/5 19/43/5
f 47/18/7 169/18/7 168/15/7 46/15/7
f 50/44/8 172/44/8 137/45/8 15/45/8
f 19/43/5 141/43/5 132/1/5 10/1/5
f 20/20/3 44/19/3 24/32/3 32/2/3
f 49/46/5 171/46/5 170/47/5 48/47/5
f 26/27/3 42/14/3 13/13/3 14/48/4
f 14/48/4 50/44/3 3/31/3 26/27/3
f 9/28/3 3/31/3 50/44/3 15/45/3
f 52/49/3 51/50/4 38/51/4 28/39/4
f 56/52/3 57/53/3 48/47/3 11/42/3
f 54/54/3 53/55/3 29/38/4 31/37/4
f 58/56/3 59/57/3 12/41/3 49/46/3
f 55/58/3 116/59/3 120/60/3 59/61/3
f 13/13/8 135/13/8 136/48/8 14/48/8
f 20/20/9 142/20/9 169/18/9 47/18/9
f 34/36/3 95/62/3 116/63/3 55/64/3
f 48/47/5 170/47/5 133/42/5 11/42/5
f 32/2/10 154/2/10 142/20/10 20/20/10
f 14/48/8 136/48/8 172/44/8 50/44/8
f 7/65/8 13/13/8 1/10/8 5/66/8
f 6/3/3 16/6/3 7/67/3 5/68/3
f 139/4/11 17/4/11 6/3/11 128/3/11
f 5/68/9 127/68/9 128/3/9 6/3/9
f 7/65/8 129/65/8 135/13/8 13/13/8
f 1/10/8 123/10/8 127/66/8 5/66/8
f 3/31/5 125/31/5 148/27/5 26/27/5
f 26/27/12 148/27/12 126/24/12 4/24/12
f 134/41/13 195/40/13 242/69/13 181/57/13
f 156/36/8 217/62/8 95/62/8 34/36/8
f 33/35/14 155/35/14 156/36/14 34/36/14
f 37/25/15 159/25/15 160/51/15 38/51/15
f 31/37/16 153/37/16 157/34/16 35/34/16
f 25/29/17 147/29/17 155/35/17 33/35/17
f 9/28/12 131/28/12 147/29/12 25/29/12
f 4/24/17 126/24/17 152/21/17 30/21/17
f 8/7/12 130/7/12 162/8/12 40/8/12
f 40/8/17 162/8/17 159/25/17 37/25/17
f 43/30/18 165/30/18 125/31/18 3/31/18
f 38/51/8 160/51/8 150/39/8 28/39/8
f 76/70/3 70/71/3 9/28/3 15/45/3
f 36/22/19 158/22/19 163/23/19 41/23/19
f 35/34/9 157/34/9 165/30/9 43/30/9
f 42/14/5 164/14/5 130/7/5 8/7/5
f 28/39/20 150/39/20 158/22/20 36/22/20
f 31/37/4 34/36/3 55/64/3 54/54/3
f 58/72/3 57/73/3 53/74/3 54/75/3
f 28/39/4 29/38/4 53/55/3 52/49/3
f 56/76/3 60/77/3 51/78/4 52/79/3
f 37/25/3 38/51/4 51/50/4 27/26/3
f 11/42/3 19/43/3 60/80/3 56/52/3
f 49/46/3 48/47/3 57/53/3 58/56/3
f 210/81/17 88/81/17 63/82/17 185/82/17
f 54/75/3 55/58/3 59/61/3 58/72/3
f 52/79/3 53/74/3 57/73/3 56/76/3
f 27/83/3 51/78/4 60/77/3 61/84/3
f 27/26/3 61/85/3 10/1/3 39/33/3
f 10/1/3 61/85/3 60/80/3 19/43/3
f 12/41/5 134/41/5 171/46/5 49/46/5
f 41/23/21 163/23/21 164/14/21 42/14/21
f 15/45/8 137/45/8 198/70/8 76/70/8
f 93/86/22 215/86/22 193/87/22 71/87/22
f 110/88/5 232/88/5 195/40/5 73/40/5
f 67/89/2 77/90/2 79/91/2 78/92/2
f 69/93/3 62/94/3 63/82/3 101/95/3
f 62/94/3 82/96/3 83/97/3 63/82/3
f 62/94/3 69/93/3 103/98/3 74/99/3
f 107/100/4 108/101/4 106/102/4 84/103/4
f 106/102/4 108/101/4 81/104/3 105/105/3
f 91/106/3 65/107/3 102/108/3 97/109/3
f 101/95/3 63/82/3 88/81/3 98/110/3
f 84/103/4 83/97/3 82/96/3 107/100/4
f 65/107/3 87/111/3 103/98/3 102/108/3
f 70/71/3 64/112/3 104/113/3 86/114/3
f 71/87/3 100/115/3 85/116/3 93/86/3
f 96/117/3 92/118/3 95/62/3 94/119/3
f 90/120/23 91/106/3 97/109/3 89/121/3
f 104/113/3 96/117/3 94/119/3 86/114/3
f 198/70/13 137/45/13 131/28/13 192/71/13
f 82/96/24 204/96/24 229/100/24 107/100/24
f 80/122/5 202/122/5 194/123/5 72/123/5
f 107/100/25 229/100/25 230/101/25 108/101/25
f 76/70/8 198/70/8 233/124/8 111/124/8
f 71/87/5 193/87/5 202/122/5 80/122/5
f 81/104/3 93/86/3 85/116/3 105/105/3
f 109/125/5 231/125/5 232/88/5 110/88/5
f 87/111/3 75/126/3 74/99/3 103/98/3
f 75/126/3 87/111/3 64/112/3 111/124/3
f 70/71/3 76/70/3 111/124/3 64/112/3
f 113/127/3 89/121/3 99/128/3 112/129/3
f 117/130/3 72/123/3 109/125/3 118/131/3
f 115/132/3 92/118/3 90/120/23 114/133/3
f 119/134/3 110/88/3 73/40/3 120/69/3
f 75/126/8 197/126/8 196/99/8 74/99/8
f 108/101/17 230/101/17 203/104/17 81/104/17
f 72/123/5 194/123/5 231/125/5 109/125/5
f 103/98/12 225/98/12 224/108/12 102/108/12
f 81/104/26 203/104/26 215/86/26 93/86/26
f 111/124/8 233/124/8 197/126/8 75/126/8
f 68/135/8 66/136/8 62/94/8 74/99/8
f 67/89/3 66/137/3 68/138/3 77/90/3
f 200/92/27 189/89/27 67/89/27 78/92/27
f 67/89/28 189/89/28 188/137/28 66/137/28
f 74/99/8 196/99/8 190/135/8 68/135/8
f 66/136/8 188/136/8 184/94/8 62/94/8
f 87/111/5 209/111/5 186/112/5 64/112/5
f 65/107/21 187/107/21 209/111/21 87/111/21
f 97/109/14 219/109/14 211/121/14 89/121/14
f 95/62/16 217/62/16 216/119/16 94/119/16
f 99/128/20 221/128/20 220/110/20 98/110/20
f 96/117/14 218/117/14 214/118/14 92/118/14
f 94/119/9 216/119/9 208/114/9 86/114/9
f 86/114/21 208/114/21 192/71/21 70/71/21
f 91/106/9 213/106/9 187/107/9 65/107/9
f 101/95/21 223/95/21 191/93/21 69/93/21
f 98/110/9 220/110/9 223/95/9 101/95/9
f 64/112/29 186/112/29 226/113/29 104/113/29
f 89/121/8 211/121/8 221/128/8 99/128/8
f 102/108/17 224/108/17 219/109/17 97/109/17
f 104/113/17 226/113/17 218/117/17 96/117/17
f 69/93/5 191/93/5 225/98/5 103/98/5
f 92/118/3 115/132/3 116/63/3 95/62/3
f 119/139/3 115/140/3 114/141/3 118/142/3
f 89/121/3 113/127/3 114/133/3 90/120/23
f 117/143/3 113/144/3 112/145/3 121/146/3
f 98/110/3 88/81/3 112/129/3 99/128/3
f 72/123/3 117/130/3 121/147/3 80/122/3
f 110/88/3 119/134/3 118/131/3 109/125/3
f 115/140/3 119/139/3 120/60/3 116/59/3
f 113/144/3 117/143/3 118/142/3 114/141/3
f 88/148/3 122/149/3 121/146/3 112/145/3
f 88/81/3 100/115/3 71/87/3 122/150/3
f 71/87/3 80/122/3 121/147/3 122/150/3
f 17/4/8 139/4/8 140/5/8 18/5/8
f 149/26/9 124/9/9 2/9/9 27/26/9
f 222/115/30 100/115/30 88/81/30 210/81/30
f 222/115/8 207/116/8 85/116/8 100/115/8
f 207/116/31 227/105/31 105/105/31 85/116/31
f 227/105/9 228/102/9 106/102/9 105/105/9
f 206/103/32 84/103/32 106/102/32 228/102/32
f 206/103/5 205/97/5 83/97/5 84/103/5
f 185/82/33 63/82/33 83/97/33 205/97/33
f 213/106/20 91/106/20 90/120/20 212/120/20
f 199/90/19 77/90/19 68/138/19 190/138/19
f 199/90/34 201/91/34 79/91/34 77/90/34
f 62/94/8 184/94/8 204/96/8 82/96/8
f 92/118/8 214/118/8 212/120/8 90/120/8
f 161/33/31 149/26/31 27/26/31 39/33/31
f 161/33/8 39/33/8 24/32/8 146/32/8
f 146/32/30 24/32/30 44/19/30 166/19/30
f 166/19/17 44/19/17 45/17/17 167/17/17
f 145/16/33 167/17/33 45/17/33 23/16/33
f 145/16/5 23/16/5 22/11/5 144/11/5
f 124/9/32 144/11/32 22/11/32 2/9/32
f 152/21/15 151/38/15 29/38/15 30/21/15
f 138/6/28 129/67/28 7/67/28 16/6/28
f 138/6/35 16/6/35 18/5/35 140/5/35
f 21/12/8 143/12/8 123/10/8 1/10/8
f 29/38/8 151/38/8 153/37/8 31/37/8
f 128/3/36 138/6/36 140/5/36 139/4/36
f 130/7/13 123/10/13 124/9/13 162/8/13
f 123/10/13 143/12/13 144/11/13 124/9/13
f 123/10/13 130/7/13 164/14/13 135/13/13
f 168/15/13 169/18/13 167/17/13 145/16/13
f 167/17/13 169/18/13 142/20/13 166/19/13
f 152/21/13 126/24/13 163/23/13 158/22/13
f 162/8/13 124/9/13 149/26/13 159/25/13
f 145/16/13 144/11/13 143/12/13 168/15/13
f 126/24/13 148/27/13 164/14/13 163/23/13
f 131/28/13 125/31/13 165/30/37 147/29/37
f 132/1/13 161/33/13 146/32/13 154/2/13
f 157/34/37 153/37/13 156/36/37 155/35/37
f 151/38/38 152/21/13 158/22/13 150/39/13
f 165/30/37 157/34/37 155/35/37 147/29/37
f 142/20/13 154/2/13 146/32/13 166/19/13
f 148/27/13 136/48/13 135/13/13 164/14/13
f 136/48/13 148/27/13 125/31/13 172/44/13
f 131/28/13 137/45/13 172/44/13 125/31/13
f 174/49/13 150/39/13 160/51/13 173/50/13
f 178/52/13 133/42/13 170/47/13 179/53/13
f 176/54/13 153/37/13 151/38/38 175/55/13
f 180/56/13 171/46/13 134/41/13 181/57/13
f 181/61/13 242/60/13 238/59/13 177/58/37
f 177/64/37 238/63/13 217/62/13 156/36/37
f 129/65/8 127/66/8 123/10/8 135/13/8
f 128/3/13 127/68/13 129/67/13 138/6/13
f 153/37/13 176/54/13 177/64/37 156/36/37
f 180/72/13 176/75/13 175/74/13 179/73/13
f 150/39/13 174/49/13 175/55/13 151/38/38
f 178/76/13 174/79/13 173/78/13 182/77/13
f 159/25/13 149/26/13 173/50/13 160/51/13
f 133/42/13 178/52/13 182/80/13 141/43/13
f 171/46/13 180/56/13 179/53/13 170/47/13
f 176/75/13 180/72/13 181/61/13 177/58/37
f 174/79/13 178/76/13 179/73/13 175/74/13
f 149/83/13 183/84/13 182/77/13 173/78/13
f 149/26/13 161/33/13 132/1/13 183/85/13
f 132/1/13 141/43/13 182/80/13 183/85/13
f 131/28/5 9/28/5 70/71/5 192/71/5
f 189/89/36 200/92/36 201/91/36 199/90/36
f 191/93/13 223/95/13 185/82/13 184/94/13
f 184/94/13 185/82/13 205/97/13 204/96/13
f 184/94/13 196/99/13 225/98/13 191/93/13
f 229/100/13 206/103/13 228/102/13 230/101/13
f 228/102/13 227/105/13 203/104/13 230/101/13
f 213/106/13 219/109/13 224/108/13 187/107/13
f 223/95/13 220/110/13 210/81/13 185/82/13
f 206/103/13 229/100/13 204/96/13 205/97/13
f 187/107/13 224/108/13 225/98/13 209/111/13
f 192/71/13 208/114/13 226/113/13 186/112/13
f 193/87/13 215/86/13 207/116/13 222/115/13
f 218/117/13 216/119/13 217/62/13 214/118/13
f 212/120/13 211/121/37 219/109/13 213/106/13
f 226/113/13 208/114/13 216/119/13 218/117/13
f 203/104/13 227/105/13 207/116/13 215/86/13
f 209/111/13 225/98/13 196/99/13 197/126/13
f 197/126/13 233/124/13 186/112/13 209/111/13
f 192/71/13 186/112/13 233/124/13 198/70/13
f 235/127/37 234/129/37 221/128/37 211/121/37
f 239/130/13 240/131/13 231/125/13 194/123/13
f 237/132/13 236/133/13 212/120/13 214/118/13
f 241/134/13 242/69/13 195/40/13 232/88/13
f 190/135/8 196/99/8 184/94/8 188/136/8
f 189/89/13 199/90/13 190/138/13 188/137/13
f 214/118/13 217/62/13 238/63/13 237/132/13
f 241/139/13 240/142/13 236/141/13 237/140/13
f 211/121/37 212/120/13 236/133/13 235/127/37
f 239/143/13 243/146/13 234/145/37 235/144/37
f 220/110/13 221/128/37 234/129/37 210/81/13
f 194/123/13 202/122/13 243/147/13 239/130/13
f 232/88/13 231/125/13 240/131/13 241/134/13
f 237/140/13 238/59/13 242/60/13 241/139/13
f 235/144/37 236/141/13 240/142/13 239/143/13
f 210/148/13 234/145/37 243/146/13 244/149/13
f 210/81/13 244/150/13 193/87/13 222/115/13
f 193/87/13 244/150/13 243/147/13 202/122/13
f 59/57/3 120/69/3 73/40/3 12/41/3
f 79/91/8 201/91/8 200/92/8 78/92/8
