# Blender 5.1.0
# www.blender.org
mtllib barriere55_118.mtl
o barriere55.118
v -47.097061 0.445688 -8.559773
v -47.045471 0.636311 -8.596245
v -47.573647 0.682372 -8.222833
v -47.448875 0.723439 -8.311044
v -47.123100 0.445688 -8.526550
v -47.123100 0.411971 -8.526550
v -47.250702 0.445688 -8.436337
v -47.220928 0.682372 -8.472201
v -47.821377 0.682372 -8.047688
v -46.905891 1.613947 -8.694926
v -47.263851 1.613945 -8.441853
v -47.764229 1.613945 -8.088092
v -47.263851 0.445688 -8.441853
v -47.430645 0.445688 -8.323933
v -47.764229 0.445688 -8.088092
v -47.250702 0.411971 -8.436337
v -47.216614 0.263947 -8.711816
v -47.395859 0.263947 -8.585093
v -47.045475 1.613945 -8.596244
v -46.796833 1.450739 -8.772029
v -46.998638 0.445688 -8.629356
v -46.973194 0.597187 -8.647346
v -46.920700 0.597187 -8.684458
v -46.920700 1.373782 -8.684458
v -47.749100 0.723439 -8.098788
v -47.521152 0.682372 -8.259945
v -47.045475 1.334657 -8.596244
v -47.273418 1.288593 -8.435088
v -47.521152 1.288593 -8.259945
v -47.448875 1.247527 -8.311044
v -47.573647 1.288593 -8.222833
v -46.832100 1.558211 -8.747097
v -47.749100 1.247527 -8.098788
v -47.821377 1.288593 -8.047688
v -47.645924 1.247527 -8.171731
v -47.345699 1.247527 -8.383988
v -47.148647 1.247527 -8.523300
v -47.220924 1.288596 -8.472201
v -46.973194 1.373782 -8.647346
v -47.148647 0.723439 -8.523300
v -47.345699 0.723439 -8.383988
v -47.273418 0.682372 -8.435088
v -47.645924 0.723439 -8.171731
v -46.848423 1.334654 -8.735558
v -46.848423 0.636311 -8.735558
v -46.873440 0.481413 -8.717870
v -46.796833 0.585558 -8.772029
v -47.430645 1.613945 -8.323933
v -47.597435 1.613945 -8.206012
v -47.597435 0.445688 -8.206012
v -47.203388 1.334657 -8.484599
v -47.272064 1.334657 -8.436047
v -47.508339 1.334657 -8.269004
v -47.577015 1.334657 -8.220450
v -47.813286 1.334657 -8.053409
v -47.265617 1.553876 -8.440604
v -47.447353 1.553876 -8.312119
v -47.593044 1.553876 -8.209118
v -47.774780 1.553876 -8.080632
v -47.079437 1.553877 -8.572232
v -47.045475 1.553877 -8.596244
v -48.597820 0.445688 -7.498753
v -48.649406 0.636311 -7.462280
v -48.121235 0.682372 -7.835693
v -48.246002 0.723439 -7.747482
v -48.557816 0.445688 -7.512224
v -48.557816 0.411971 -7.512224
v -48.430214 0.445688 -7.602437
v -48.473953 0.682372 -7.586325
v -47.873501 0.682372 -8.010838
v -48.788986 1.613947 -7.363599
v -48.431026 1.613945 -7.616673
v -47.930649 1.613945 -7.970434
v -48.431026 0.445688 -7.616673
v -48.264233 0.445688 -7.734593
v -47.930649 0.445688 -7.970434
v -48.430214 0.411971 -7.602437
v -48.701290 0.263947 -7.662168
v -48.522045 0.263947 -7.788891
v -48.649406 1.613945 -7.462281
v -48.898045 1.450739 -7.286496
v -48.696243 0.445688 -7.429169
v -48.721687 0.597187 -7.411180
v -48.774178 0.597187 -7.374068
v -48.774178 1.373782 -7.374068
v -47.945782 0.723439 -7.959737
v -48.173725 0.682372 -7.798581
v -48.649406 1.334657 -7.462281
v -48.421459 1.288593 -7.623437
v -48.173725 1.288593 -7.798581
v -48.246002 1.247527 -7.747482
v -48.121235 1.288593 -7.835693
v -48.862778 1.558211 -7.311429
v -47.945782 1.247527 -7.959737
v -47.873501 1.288593 -8.010838
v -48.048954 1.247527 -7.886795
v -48.349182 1.247527 -7.674537
v -48.546230 1.247527 -7.535225
v -48.473953 1.288596 -7.586325
v -48.721687 1.373782 -7.411180
v -48.546230 0.723439 -7.535225
v -48.349182 0.723439 -7.674537
v -48.421459 0.682372 -7.623437
v -48.048954 0.723439 -7.886795
v -48.846458 1.334654 -7.322968
v -48.846458 0.636311 -7.322968
v -48.821438 0.481413 -7.340656
v -48.898045 0.585558 -7.286496
v -48.264233 1.613945 -7.734593
v -48.097443 1.613945 -7.852513
v -48.097443 0.445688 -7.852513
v -48.491489 1.334657 -7.573927
v -48.422813 1.334657 -7.622479
v -48.186543 1.334657 -7.789522
v -48.117867 1.334657 -7.838075
v -47.881592 1.334657 -8.005117
v -48.429260 1.553876 -7.617922
v -48.247524 1.553876 -7.746407
v -48.101833 1.553876 -7.849408
v -47.920097 1.553876 -7.977893
v -48.615440 1.553877 -7.486294
v -48.649406 1.553877 -7.462281
v -47.044849 0.445688 -8.485926
v -46.993263 0.636311 -8.522398
v -47.521435 0.682372 -8.148985
v -47.396667 0.723439 -8.237196
v -47.084854 0.445688 -8.472454
v -47.084854 0.411971 -8.472454
v -47.212456 0.445688 -8.382242
v -47.168716 0.682372 -8.398354
v -47.769169 0.682372 -7.973841
v -46.853683 1.613947 -8.621078
v -47.211643 1.613945 -8.368006
v -47.712021 1.613945 -8.014244
v -47.211643 0.445688 -8.368006
v -47.378437 0.445688 -8.250085
v -47.712021 0.445688 -8.014244
v -47.212456 0.411971 -8.382242
v -46.941380 0.263947 -8.322511
v -47.120625 0.263947 -8.195787
v -46.993263 1.613945 -8.522397
v -46.744625 1.450739 -8.698182
v -46.946426 0.445688 -8.555510
v -46.920982 0.597187 -8.573499
v -46.868492 0.597187 -8.610610
v -46.868492 1.373782 -8.610610
v -47.696888 0.723439 -8.024941
v -47.468945 0.682372 -8.186097
v -46.993263 1.334657 -8.522397
v -47.221210 1.288593 -8.361241
v -47.468945 1.288593 -8.186097
v -47.396667 1.247527 -8.237196
v -47.521435 1.288593 -8.148985
v -46.779892 1.558211 -8.673249
v -47.696888 1.247527 -8.024941
v -47.769169 1.288593 -7.973841
v -47.593716 1.247527 -8.097883
v -47.293488 1.247527 -8.310142
v -47.096439 1.247527 -8.449453
v -47.168716 1.288596 -8.398354
v -46.920982 1.373782 -8.573498
v -47.096439 0.723439 -8.449453
v -47.293488 0.723439 -8.310142
v -47.221210 0.682372 -8.361241
v -47.593716 0.723439 -8.097884
v -46.796211 1.334654 -8.661710
v -46.796211 0.636311 -8.661711
v -46.821232 0.481413 -8.644022
v -46.744625 0.585558 -8.698182
v -47.378433 1.613945 -8.250085
v -47.545227 1.613945 -8.132165
v -47.545227 0.445688 -8.132165
v -47.151180 1.334657 -8.410751
v -47.219856 1.334657 -8.362199
v -47.456127 1.334657 -8.195156
v -47.524803 1.334657 -8.146604
v -47.761078 1.334657 -7.979561
v -47.213409 1.553876 -8.366756
v -47.395145 1.553876 -8.238271
v -47.540836 1.553876 -8.135270
v -47.722572 1.553876 -8.006784
v -47.027229 1.553877 -8.498384
v -46.993263 1.553877 -8.522397
v -48.545609 0.445688 -7.424905
v -48.597198 0.636311 -7.388433
v -48.069023 0.682372 -7.761846
v -48.193794 0.723439 -7.673635
v -48.519569 0.445688 -7.458128
v -48.519569 0.411971 -7.458128
v -48.391968 0.445688 -7.548341
v -48.421741 0.682372 -7.512477
v -47.821293 0.682372 -7.936990
v -48.736778 1.613947 -7.289752
v -48.378819 1.613945 -7.542825
v -47.878441 1.613945 -7.896586
v -48.378819 0.445688 -7.542826
v -48.212025 0.445688 -7.660746
v -47.878441 0.445688 -7.896586
v -48.391968 0.411971 -7.548341
v -48.426056 0.263947 -7.272863
v -48.246811 0.263947 -7.399586
v -48.597195 1.613945 -7.388434
v -48.845837 1.450739 -7.212649
v -48.644032 0.445688 -7.355321
v -48.669476 0.597187 -7.337333
v -48.721970 0.597187 -7.300221
v -48.721970 1.373782 -7.300221
v -47.893570 0.723439 -7.885890
v -48.121517 0.682372 -7.724734
v -48.597195 1.334657 -7.388434
v -48.369251 1.288593 -7.549590
v -48.121517 1.288593 -7.724734
v -48.193794 1.247527 -7.673635
v -48.069023 1.288593 -7.761846
v -48.810570 1.558211 -7.237581
v -47.893570 1.247527 -7.885890
v -47.821293 1.288593 -7.936990
v -47.996746 1.247527 -7.812947
v -48.296970 1.247527 -7.600689
v -48.494022 1.247527 -7.461378
v -48.421741 1.288596 -7.512477
v -48.669476 1.373782 -7.337333
v -48.494022 0.723439 -7.461378
v -48.296970 0.723439 -7.600689
v -48.369251 0.682372 -7.549590
v -47.996746 0.723439 -7.812947
v -48.794247 1.334654 -7.249121
v -48.794247 0.636311 -7.249121
v -48.769230 0.481413 -7.266809
v -48.845837 0.585558 -7.212649
v -48.212025 1.613945 -7.660746
v -48.045235 1.613945 -7.778666
v -48.045235 0.445688 -7.778666
v -48.439278 1.334657 -7.500079
v -48.370605 1.334657 -7.548632
v -48.134331 1.334657 -7.715674
v -48.065655 1.334657 -7.764227
v -47.829384 1.334657 -7.931270
v -48.377052 1.553876 -7.544074
v -48.195316 1.553876 -7.672560
v -48.049625 1.553876 -7.775560
v -47.867889 1.553876 -7.904046
v -48.563232 1.553877 -7.412446
v -48.597195 1.553877 -7.388434
vn 0.4286 0.8512 -0.3030
vn -0.3377 0.8111 -0.4776
vn -0.5773 -0.0000 -0.8165
vn -0.5773 -0.0000 -0.8166
vn -0.0000 1.0000 -0.0000
vn 0.1853 -0.9739 -0.1310
vn 0.6067 -0.6693 -0.4289
vn -0.0000 -1.0000 -0.0000
vn 0.8165 -0.0000 -0.5773
vn 0.7577 0.3729 -0.5356
vn 0.7996 0.2024 -0.5653
vn -0.3436 0.9071 0.2429
vn 0.5773 -0.0000 0.8165
vn -0.3436 -0.9071 0.2429
vn -0.3437 -0.9071 0.2430
vn 0.3436 -0.9071 -0.2429
vn -0.8165 -0.0000 0.5773
vn -0.8166 -0.0000 0.5773
vn -0.3437 0.9071 0.2430
vn 0.3436 0.9071 -0.2429
vn 0.3436 0.9071 -0.2430
vn -0.4286 0.8511 0.3030
vn -0.5773 0.0001 -0.8165
vn -0.1853 -0.9739 0.1310
vn -0.6067 -0.6693 0.4289
vn -0.3436 0.9071 0.2430
vn -0.7577 0.3729 0.5356
vn -0.7996 0.2024 0.5653
vn 0.3437 0.9071 -0.2430
vn 0.3437 -0.9071 -0.2430
vn -0.3301 -0.9146 0.2334
vn 0.3301 -0.9146 -0.2334
vn 0.3301 0.9146 -0.2334
vn -0.3301 0.9146 0.2334
vn 0.3436 -0.9071 -0.2430
vn 0.7974 0.2154 -0.5637
vn -0.7974 0.2154 0.5637
vn 0.3377 0.8111 0.4776
vn 0.5773 0.0001 0.8165
vt 0.563424 0.076340
vt 0.553130 0.073518
vt 0.930572 0.423953
vt 0.921307 0.379121
vt 0.987792 0.379121
vt 0.977903 0.423953
vt 0.607372 0.029178
vt 0.597289 0.031257
vt 0.582896 0.026846
vt 0.590093 0.017196
vt 0.572813 0.024865
vt 0.576362 0.017196
vt 0.613360 0.017196
vt 0.614695 0.029178
vt 0.558897 0.019004
vt 0.565490 0.024865
vt 0.555407 0.026846
vt 0.548211 0.024277
vt 0.555407 0.062200
vt 0.548211 0.068077
vt 0.639171 0.057790
vt 0.624778 0.057790
vt 0.624778 0.031257
vt 0.639171 0.031257
vt 0.597289 0.057790
vt 0.582896 0.062201
vt 0.649254 0.029178
vt 0.691136 0.029178
vt 0.681053 0.031257
vt 0.666660 0.031257
vt 0.656577 0.029178
vt 0.565490 0.064181
vt 0.572813 0.064181
vt 0.666660 0.057790
vt 0.681053 0.057790
vt 0.691136 0.059869
vt 0.656577 0.059869
vt 0.649254 0.059869
vt 0.614695 0.059869
vt 0.706379 0.076340
vt 0.683164 0.076340
vt 0.613360 0.076340
vt 0.582896 0.076340
vt 0.659896 0.017196
vt 0.683164 0.017196
vt 0.659896 0.076340
vt 0.636628 0.076340
vt 0.636628 0.017196
vt 0.614506 0.062201
vt 0.604926 0.062201
vt 0.607372 0.059869
vt 0.613607 0.073299
vt 0.638959 0.073299
vt 0.657047 0.062201
vt 0.647466 0.062201
vt 0.659283 0.073299
vt 0.684635 0.073299
vt 0.688839 0.081258
vt 0.699816 0.081258
vt 0.706005 0.126709
vt 0.682651 0.126709
vt 0.698407 0.059869
vt 0.699536 0.062201
vt 0.690007 0.062201
vt 0.612500 0.017196
vt 0.594699 0.017196
vt 0.977903 0.434165
vt 0.930572 0.434165
vt 0.704907 0.073299
vt 0.706379 0.017196
vt 0.698407 0.029178
vt 0.653445 0.126709
vt 0.630032 0.126709
vt 0.639832 0.081258
vt 0.650869 0.081258
vt 0.600826 0.126709
vt 0.570905 0.126710
vt 0.590825 0.081258
vt 0.601862 0.081258
vt 0.587634 0.073299
vt 0.806647 0.062201
vt 0.806647 0.026846
vt 0.565447 0.081258
vt 0.565447 0.126710
vt 0.582896 0.073299
vt 0.836413 0.073518
vt 0.826118 0.076340
vt 0.729647 0.076340
vt 0.978547 0.423953
vt 0.931216 0.423953
vt 0.921327 0.379121
vt 0.987812 0.379121
vt 0.782171 0.029178
vt 0.799450 0.017196
vt 0.792254 0.031257
vt 0.813181 0.017196
vt 0.816730 0.024865
vt 0.774848 0.029178
vt 0.776183 0.017196
vt 0.830646 0.019004
vt 0.841332 0.024277
vt 0.834136 0.026846
vt 0.824053 0.024865
vt 0.841332 0.068077
vt 0.834136 0.062200
vt 0.750372 0.057790
vt 0.750372 0.031257
vt 0.764765 0.031257
vt 0.764765 0.057790
vt 0.792254 0.057790
vt 0.740289 0.029178
vt 0.732966 0.029178
vt 0.722883 0.031257
vt 0.708490 0.031257
vt 0.816730 0.064181
vt 0.824053 0.064181
vt 0.722883 0.057790
vt 0.732966 0.059869
vt 0.708490 0.057790
vt 0.740289 0.059869
vt 0.774848 0.059869
vt 0.806647 0.076340
vt 0.776183 0.076340
vt 0.729647 0.017196
vt 0.752915 0.076340
vt 0.752915 0.017196
vt 0.775037 0.062201
vt 0.782171 0.059869
vt 0.784617 0.062201
vt 0.775936 0.073299
vt 0.750584 0.073299
vt 0.732496 0.062201
vt 0.742077 0.062201
vt 0.730260 0.073299
vt 0.777043 0.017196
vt 0.794844 0.017196
vt 0.978547 0.434165
vt 0.931216 0.434165
vt 0.735211 0.126709
vt 0.737787 0.081258
vt 0.748824 0.081258
vt 0.758624 0.126709
vt 0.787830 0.126709
vt 0.786794 0.081258
vt 0.797831 0.081258
vt 0.817751 0.126710
vt 0.801909 0.073299
vt 0.823209 0.081258
vt 0.823209 0.126710
vt 0.806647 0.073299
s 1
usemtl initialShadingGroup.004
f 10/1/1 132/1/1 154/2/1 32/2/1
f 6/3/2 17/4/2 18/5/2 16/6/2
f 8/7/3 40/8/3 2/9/3 1/10/3
f 1/10/3 2/9/3 22/11/3 21/12/3
f 1/10/3 13/13/3 42/14/3 8/7/3
f 46/15/3 23/16/3 45/17/4 47/18/4
f 45/17/4 44/19/4 20/20/3 47/18/4
f 30/21/3 36/22/3 41/23/3 4/24/3
f 40/8/3 37/25/3 27/26/3 2/9/3
f 23/16/3 46/15/3 21/12/3 22/11/3
f 4/24/3 41/23/3 42/14/3 26/27/3
f 9/28/3 25/29/3 43/30/3 3/31/3
f 10/1/3 32/2/3 24/32/3 39/33/3
f 35/34/3 33/35/3 34/36/3 31/37/3
f 29/38/3 28/39/3 36/22/3 30/21/3
f 43/30/3 25/29/3 33/35/3 35/34/3
f 73/40/5 195/40/5 134/41/5 12/41/5
f 46/15/6 168/15/6 143/12/6 21/12/6
f 11/42/5 133/42/5 141/43/5 19/43/5
f 47/18/7 169/18/7 168/15/7 46/15/7
f 50/44/8 172/44/8 137/45/8 15/45/8
f 19/43/5 141/43/5 132/1/5 10/1/5
f 20/20/3 44/19/4 24/32/3 32/2/3
f 49/46/5 171/46/5 170/47/5 48/47/5
f 26/27/3 42/14/3 13/13/3 14/48/3
f 14/48/3 50/44/3 3/31/3 26/27/3
f 9/28/3 3/31/3 50/44/3 15/45/3
f 52/49/3 51/50/3 38/51/3 28/39/3
f 56/52/3 57/53/3 48/47/3 11/42/3
f 54/54/3 53/55/3 29/38/3 31/37/3
f 58/56/3 59/57/3 12/41/3 49/46/3
f 55/58/3 116/59/3 120/60/3 59/61/3
f 13/13/8 135/13/8 136/48/8 14/48/8
f 20/20/9 142/20/9 169/18/9 47/18/9
f 34/36/3 95/62/3 116/63/3 55/64/3
f 48/47/5 170/47/5 133/42/5 11/42/5
f 32/2/10 154/2/10 142/20/10 20/20/10
f 14/48/8 136/48/8 172/44/8 50/44/8
f 7/65/8 13/13/8 1/10/8 5/66/8
f 6/3/3 16/6/3 7/67/3 5/68/3
f 139/4/11 17/4/11 6/3/11 128/3/11
f 5/68/9 127/68/9 128/3/9 6/3/9
f 7/65/8 129/65/8 135/13/8 13/13/8
f 1/10/8 123/10/8 127/66/8 5/66/8
f 3/31/5 125/31/5 148/27/5 26/27/5
f 26/27/12 148/27/12 126/24/12 4/24/12
f 134/41/13 195/40/13 242/69/13 181/57/13
f 156/36/8 217/62/8 95/62/8 34/36/8
f 33/35/14 155/35/14 156/36/14 34/36/14
f 37/25/15 159/25/15 160/51/15 38/51/15
f 31/37/16 153/37/16 157/34/16 35/34/16
f 25/29/17 147/29/17 155/35/17 33/35/17
f 9/28/12 131/28/12 147/29/12 25/29/12
f 4/24/18 126/24/18 152/21/18 30/21/18
f 8/7/19 130/7/19 162/8/19 40/8/19
f 40/8/17 162/8/17 159/25/17 37/25/17
f 43/30/20 165/30/20 125/31/20 3/31/20
f 38/51/8 160/51/8 150/39/8 28/39/8
f 76/70/3 70/71/3 9/28/3 15/45/3
f 36/22/9 158/22/9 163/23/9 41/23/9
f 35/34/9 157/34/9 165/30/9 43/30/9
f 42/14/5 164/14/5 130/7/5 8/7/5
f 28/39/16 150/39/16 158/22/16 36/22/16
f 31/37/3 34/36/3 55/64/3 54/54/3
f 58/72/3 57/73/3 53/74/3 54/75/3
f 28/39/3 29/38/3 53/55/3 52/49/3
f 56/76/3 60/77/3 51/78/3 52/79/3
f 37/25/3 38/51/3 51/50/3 27/26/3
f 11/42/3 19/43/3 60/80/3 56/52/3
f 49/46/3 48/47/3 57/53/3 58/56/3
f 210/81/17 88/81/17 63/82/17 185/82/17
f 54/75/3 55/58/3 59/61/3 58/72/3
f 52/79/3 53/74/3 57/73/3 56/76/3
f 27/83/3 51/78/3 60/77/3 61/84/3
f 27/26/3 61/85/3 10/1/3 39/33/3
f 10/1/3 61/85/3 60/80/3 19/43/3
f 12/41/5 134/41/5 171/46/5 49/46/5
f 41/23/21 163/23/21 164/14/21 42/14/21
f 15/45/8 137/45/8 198/70/8 76/70/8
f 93/86/22 215/86/22 193/87/22 71/87/22
f 110/88/5 232/88/5 195/40/5 73/40/5
f 67/89/2 77/90/2 79/91/2 78/92/2
f 69/93/3 62/94/3 63/82/3 101/95/3
f 62/94/3 82/96/3 83/97/3 63/82/3
f 62/94/3 69/93/3 103/98/3 74/99/3
f 107/100/3 108/101/3 106/102/3 84/103/3
f 106/102/3 108/101/3 81/104/3 105/105/3
f 91/106/23 65/107/3 102/108/3 97/109/23
f 101/95/3 63/82/3 88/81/3 98/110/3
f 84/103/3 83/97/3 82/96/3 107/100/3
f 65/107/3 87/111/3 103/98/3 102/108/3
f 70/71/3 64/112/3 104/113/3 86/114/3
f 71/87/3 100/115/3 85/116/3 93/86/3
f 96/117/3 92/118/3 95/62/3 94/119/3
f 90/120/3 91/106/23 97/109/23 89/121/3
f 104/113/3 96/117/3 94/119/3 86/114/3
f 198/70/13 137/45/13 131/28/13 192/71/13
f 82/96/24 204/96/24 229/100/24 107/100/24
f 80/122/5 202/122/5 194/123/5 72/123/5
f 107/100/25 229/100/25 230/101/25 108/101/25
f 76/70/8 198/70/8 233/124/8 111/124/8
f 71/87/5 193/87/5 202/122/5 80/122/5
f 81/104/3 93/86/3 85/116/3 105/105/3
f 109/125/5 231/125/5 232/88/5 110/88/5
f 87/111/3 75/126/3 74/99/3 103/98/3
f 75/126/3 87/111/3 64/112/3 111/124/3
f 70/71/3 76/70/3 111/124/3 64/112/3
f 113/127/3 89/121/3 99/128/3 112/129/3
f 117/130/3 72/123/3 109/125/3 118/131/3
f 115/132/3 92/118/3 90/120/3 114/133/3
f 119/134/3 110/88/3 73/40/3 120/69/3
f 75/126/8 197/126/8 196/99/8 74/99/8
f 108/101/17 230/101/17 203/104/17 81/104/17
f 72/123/5 194/123/5 231/125/5 109/125/5
f 103/98/26 225/98/26 224/108/26 102/108/26
f 81/104/27 203/104/27 215/86/27 93/86/27
f 111/124/8 233/124/8 197/126/8 75/126/8
f 68/135/8 66/136/8 62/94/8 74/99/8
f 67/89/3 66/137/3 68/138/3 77/90/3
f 200/92/28 189/89/28 67/89/28 78/92/28
f 67/89/17 189/89/17 188/137/17 66/137/17
f 74/99/8 196/99/8 190/135/8 68/135/8
f 66/136/8 188/136/8 184/94/8 62/94/8
f 87/111/5 209/111/5 186/112/5 64/112/5
f 65/107/29 187/107/29 209/111/29 87/111/29
f 97/109/14 219/109/14 211/121/14 89/121/14
f 95/62/16 217/62/16 216/119/16 94/119/16
f 99/128/30 221/128/30 220/110/30 98/110/30
f 96/117/14 218/117/14 214/118/14 92/118/14
f 94/119/9 216/119/9 208/114/9 86/114/9
f 86/114/21 208/114/21 192/71/21 70/71/21
f 91/106/9 213/106/9 187/107/9 65/107/9
f 101/95/21 223/95/21 191/93/21 69/93/21
f 98/110/9 220/110/9 223/95/9 101/95/9
f 64/112/26 186/112/26 226/113/26 104/113/26
f 89/121/8 211/121/8 221/128/8 99/128/8
f 102/108/17 224/108/17 219/109/17 97/109/17
f 104/113/18 226/113/18 218/117/18 96/117/18
f 69/93/5 191/93/5 225/98/5 103/98/5
f 92/118/3 115/132/3 116/63/3 95/62/3
f 119/139/3 115/140/3 114/141/3 118/142/3
f 89/121/3 113/127/3 114/133/3 90/120/3
f 117/143/3 113/144/3 112/145/3 121/146/3
f 98/110/3 88/81/3 112/129/3 99/128/3
f 72/123/3 117/130/3 121/147/3 80/122/3
f 110/88/3 119/134/3 118/131/3 109/125/3
f 115/140/3 119/139/3 120/60/3 116/59/3
f 113/144/3 117/143/3 118/142/3 114/141/3
f 88/148/3 122/149/3 121/146/3 112/145/3
f 88/81/3 100/115/3 71/87/3 122/150/3
f 71/87/3 80/122/3 121/147/3 122/150/3
f 17/4/8 139/4/8 140/5/8 18/5/8
f 149/26/9 124/9/9 2/9/9 27/26/9
f 222/115/31 100/115/31 88/81/31 210/81/31
f 222/115/8 207/116/8 85/116/8 100/115/8
f 207/116/32 227/105/32 105/105/32 85/116/32
f 227/105/9 228/102/9 106/102/9 105/105/9
f 206/103/33 84/103/33 106/102/33 228/102/33
f 206/103/5 205/97/5 83/97/5 84/103/5
f 185/82/34 63/82/34 83/97/34 205/97/34
f 213/106/35 91/106/35 90/120/35 212/120/35
f 199/90/9 77/90/9 68/138/9 190/138/9
f 199/90/36 201/91/36 79/91/36 77/90/36
f 62/94/8 184/94/8 204/96/8 82/96/8
f 92/118/8 214/118/8 212/120/8 90/120/8
f 161/33/32 149/26/32 27/26/32 39/33/32
f 161/33/8 39/33/8 24/32/8 146/32/8
f 146/32/31 24/32/31 44/19/31 166/19/31
f 166/19/17 44/19/17 45/17/17 167/17/17
f 145/16/34 167/17/34 45/17/34 23/16/34
f 145/16/5 23/16/5 22/11/5 144/11/5
f 124/9/33 144/11/33 22/11/33 2/9/33
f 152/21/14 151/38/14 29/38/14 30/21/14
f 138/6/17 129/67/17 7/67/17 16/6/17
f 138/6/37 16/6/37 18/5/37 140/5/37
f 21/12/8 143/12/8 123/10/8 1/10/8
f 29/38/8 151/38/8 153/37/8 31/37/8
f 128/3/38 138/6/38 140/5/38 139/4/38
f 130/7/13 123/10/13 124/9/13 162/8/13
f 123/10/13 143/12/13 144/11/13 124/9/13
f 123/10/13 130/7/13 164/14/13 135/13/13
f 168/15/13 169/18/13 167/17/13 145/16/13
f 167/17/13 169/18/13 142/20/13 166/19/13
f 152/21/13 126/24/13 163/23/13 158/22/13
f 162/8/13 124/9/13 149/26/13 159/25/13
f 145/16/13 144/11/13 143/12/13 168/15/13
f 126/24/13 148/27/13 164/14/13 163/23/13
f 131/28/13 125/31/13 165/30/13 147/29/13
f 132/1/13 161/33/13 146/32/13 154/2/13
f 157/34/13 153/37/13 156/36/13 155/35/13
f 151/38/13 152/21/13 158/22/13 150/39/13
f 165/30/13 157/34/13 155/35/13 147/29/13
f 142/20/13 154/2/13 146/32/13 166/19/13
f 148/27/13 136/48/13 135/13/13 164/14/13
f 136/48/13 148/27/13 125/31/13 172/44/13
f 131/28/13 137/45/13 172/44/13 125/31/13
f 174/49/13 150/39/13 160/51/13 173/50/13
f 178/52/13 133/42/13 170/47/13 179/53/13
f 176/54/13 153/37/13 151/38/13 175/55/13
f 180/56/13 171/46/13 134/41/13 181/57/13
f 181/61/13 242/60/13 238/59/13 177/58/13
f 177/64/13 238/63/13 217/62/13 156/36/13
f 129/65/8 127/66/8 123/10/8 135/13/8
f 128/3/13 127/68/13 129/67/13 138/6/13
f 153/37/13 176/54/13 177/64/13 156/36/13
f 180/72/13 176/75/13 175/74/13 179/73/13
f 150/39/13 174/49/13 175/55/13 151/38/13
f 178/76/13 174/79/13 173/78/13 182/77/13
f 159/25/13 149/26/13 173/50/13 160/51/13
f 133/42/13 178/52/13 182/80/13 141/43/13
f 171/46/13 180/56/13 179/53/13 170/47/13
f 176/75/13 180/72/13 181/61/13 177/58/13
f 174/79/13 178/76/13 179/73/13 175/74/13
f 149/83/13 183/84/13 182/77/13 173/78/13
f 149/26/13 161/33/13 132/1/13 183/85/13
f 132/1/13 141/43/13 182/80/13 183/85/13
f 131/28/5 9/28/5 70/71/5 192/71/5
f 189/89/38 200/92/38 201/91/38 199/90/38
f 191/93/13 223/95/13 185/82/13 184/94/13
f 184/94/13 185/82/13 205/97/13 204/96/13
f 184/94/13 196/99/13 225/98/13 191/93/13
f 229/100/13 206/103/13 228/102/13 230/101/13
f 228/102/13 227/105/13 203/104/13 230/101/13
f 213/106/13 219/109/13 224/108/13 187/107/13
f 223/95/13 220/110/13 210/81/13 185/82/13
f 206/103/13 229/100/13 204/96/13 205/97/13
f 187/107/13 224/108/13 225/98/13 209/111/13
f 192/71/13 208/114/13 226/113/13 186/112/13
f 193/87/13 215/86/13 207/116/13 222/115/13
f 218/117/39 216/119/39 217/62/13 214/118/13
f 212/120/13 211/121/13 219/109/13 213/106/13
f 226/113/13 208/114/13 216/119/39 218/117/39
f 203/104/13 227/105/13 207/116/13 215/86/13
f 209/111/13 225/98/13 196/99/13 197/126/13
f 197/126/13 233/124/13 186/112/13 209/111/13
f 192/71/13 186/112/13 233/124/13 198/70/13
f 235/127/13 234/129/13 221/128/13 211/121/13
f 239/130/13 240/131/13 231/125/13 194/123/13
f 237/132/13 236/133/13 212/120/13 214/118/13
f 241/134/13 242/69/13 195/40/13 232/88/39
f 190/135/8 196/99/8 184/94/8 188/136/8
f 189/89/13 199/90/13 190/138/13 188/137/13
f 214/118/13 217/62/13 238/63/13 237/132/13
f 241/139/13 240/142/13 236/141/13 237/140/13
f 211/121/13 212/120/13 236/133/13 235/127/13
f 239/143/13 243/146/13 234/145/13 235/144/13
f 220/110/13 221/128/13 234/129/13 210/81/13
f 194/123/13 202/122/13 243/147/13 239/130/13
f 232/88/39 231/125/13 240/131/13 241/134/13
f 237/140/13 238/59/13 242/60/13 241/139/13
f 235/144/13 236/141/13 240/142/13 239/143/13
f 210/148/13 234/145/13 243/146/13 244/149/13
f 210/81/13 244/150/13 193/87/13 222/115/13
f 193/87/13 244/150/13 243/147/13 202/122/13
f 59/57/3 120/69/3 73/40/3 12/41/3
f 79/91/8 201/91/8 200/92/8 78/92/8
