# Blender 5.1.0
# www.blender.org
mtllib barriere55_084.mtl
o barriere55.084
v 69.054497 0.406541 -10.921188
v 69.049454 0.597165 -10.858212
v 69.101082 0.643225 -11.502990
v 69.088890 0.684292 -11.350674
v 69.045670 0.406541 -10.962467
v 69.045670 0.372824 -10.962467
v 69.058144 0.406541 -11.118239
v 69.066605 0.643225 -11.072401
v 69.125298 0.643225 -11.805413
v 69.035812 1.574801 -10.687818
v 69.070801 1.574798 -11.124804
v 69.119713 1.574798 -11.735648
v 69.070801 0.406541 -11.124804
v 69.087105 0.406541 -11.328419
v 69.119713 0.406541 -11.735648
v 69.058144 0.372824 -11.118239
v 69.247833 0.224800 -10.915589
v 69.265350 0.224800 -11.134404
v 69.049454 1.574798 -10.858213
v 69.025146 1.411592 -10.554683
v 69.044876 0.406541 -10.801038
v 69.042389 0.558040 -10.769976
v 69.037254 0.558040 -10.705894
v 69.037254 1.334635 -10.705894
v 69.118233 0.684292 -11.717177
v 69.095955 0.643225 -11.438908
v 69.049454 1.295510 -10.858213
v 69.071732 1.249446 -11.136483
v 69.095955 1.249446 -11.438908
v 69.088890 1.208380 -11.350674
v 69.101082 1.249446 -11.502990
v 69.028595 1.519064 -10.597733
v 69.118233 1.208380 -11.717177
v 69.125298 1.249446 -11.805413
v 69.108147 1.208380 -11.591227
v 69.078804 1.208380 -11.224718
v 69.059540 1.208380 -10.984166
v 69.066605 1.249449 -11.072401
v 69.042389 1.334635 -10.769976
v 69.059540 0.684292 -10.984166
v 69.078804 0.684292 -11.224718
v 69.071732 0.643225 -11.136483
v 69.108147 0.684292 -11.591227
v 69.030190 1.295507 -10.617659
v 69.030190 0.597165 -10.617659
v 69.032639 0.442266 -10.648201
v 69.025146 0.546411 -10.554683
v 69.087105 1.574798 -11.328419
v 69.103409 1.574798 -11.532033
v 69.103409 0.406541 -11.532033
v 69.064888 1.295510 -11.050993
v 69.071602 1.295510 -11.134830
v 69.094696 1.295510 -11.423265
v 69.101410 1.295510 -11.507102
v 69.124512 1.295510 -11.795536
v 69.070976 1.514729 -11.126960
v 69.088737 1.514729 -11.348818
v 69.102982 1.514729 -11.526671
v 69.120743 1.514729 -11.748528
v 69.052773 1.514730 -10.899675
v 69.049454 1.514730 -10.858213
v 69.201195 0.406541 -12.753269
v 69.206238 0.597165 -12.816246
v 69.154610 0.643225 -12.171469
v 69.166809 0.684292 -12.323784
v 69.185913 0.406541 -12.713922
v 69.185913 0.372824 -12.713922
v 69.173439 0.406541 -12.558149
v 69.189087 0.643225 -12.602057
v 69.130394 0.643225 -11.869044
v 69.219887 1.574801 -12.986641
v 69.184891 1.574798 -12.549655
v 69.135979 1.574798 -11.938810
v 69.184891 0.406541 -12.549655
v 69.168587 0.406541 -12.346040
v 69.135979 0.406541 -11.938810
v 69.173439 0.372824 -12.558149
v 69.392960 0.224800 -12.728033
v 69.375443 0.224800 -12.509218
v 69.206238 1.574798 -12.816245
v 69.230545 1.411592 -13.119776
v 69.210815 0.406541 -12.873421
v 69.213303 0.558040 -12.904483
v 69.218437 0.558040 -12.968564
v 69.218437 1.334635 -12.968564
v 69.137459 0.684292 -11.957280
v 69.159744 0.643225 -12.235551
v 69.206238 1.295510 -12.816245
v 69.183960 1.249446 -12.537974
v 69.159744 1.249446 -12.235551
v 69.166809 1.208380 -12.323784
v 69.154610 1.249446 -12.171469
v 69.227097 1.519064 -13.076724
v 69.137459 1.208380 -11.957280
v 69.130394 1.249446 -11.869044
v 69.147545 1.208380 -12.083231
v 69.176895 1.208380 -12.449739
v 69.196152 1.208380 -12.690292
v 69.189087 1.249449 -12.602057
v 69.213303 1.334635 -12.904483
v 69.196152 0.684292 -12.690292
v 69.176895 0.684292 -12.449739
v 69.183960 0.643225 -12.537974
v 69.147545 0.684292 -12.083231
v 69.225502 1.295507 -13.056799
v 69.225502 0.597165 -13.056799
v 69.223053 0.442266 -13.026258
v 69.230545 0.546411 -13.119776
v 69.168587 1.574798 -12.346040
v 69.152283 1.574798 -12.142425
v 69.152283 0.406541 -12.142425
v 69.190804 1.295510 -12.623465
v 69.184090 1.295510 -12.539628
v 69.160995 1.295510 -12.251194
v 69.154282 1.295510 -12.167356
v 69.131187 1.295510 -11.878922
v 69.184723 1.514729 -12.547499
v 69.166954 1.514729 -12.325641
v 69.152718 1.514729 -12.147787
v 69.134949 1.514729 -11.925929
v 69.202919 1.514730 -12.774782
v 69.206238 1.514730 -12.816245
v 68.964348 0.406541 -10.928408
v 68.959305 0.597165 -10.865431
v 69.010933 0.643225 -11.510208
v 68.998734 0.684292 -11.357893
v 68.979630 0.406541 -10.967755
v 68.979630 0.372824 -10.967755
v 68.992104 0.406541 -11.123528
v 68.976456 0.643225 -11.079619
v 69.035149 0.643225 -11.812633
v 68.945656 1.574801 -10.695036
v 68.980652 1.574798 -11.132022
v 69.029564 1.574798 -11.742867
v 68.980652 0.406541 -11.132022
v 68.996956 0.406541 -11.335637
v 69.029564 0.406541 -11.742867
v 68.992104 0.372824 -11.123528
v 68.772583 0.224800 -10.953644
v 68.790100 0.224800 -11.172459
v 68.959305 1.574798 -10.865432
v 68.934998 1.411592 -10.561901
v 68.954727 0.406541 -10.808256
v 68.952240 0.558040 -10.777194
v 68.947105 0.558040 -10.713113
v 68.947105 1.334635 -10.713113
v 69.028084 0.684292 -11.724397
v 69.005798 0.643225 -11.446126
v 68.959305 1.295510 -10.865432
v 68.981583 1.249446 -11.143703
v 69.005798 1.249446 -11.446126
v 68.998734 1.208380 -11.357893
v 69.010933 1.249446 -11.510208
v 68.938446 1.519064 -10.604953
v 69.028084 1.208380 -11.724397
v 69.035149 1.249446 -11.812633
v 69.017998 1.208380 -11.598446
v 68.988647 1.208380 -11.231937
v 68.969391 1.208380 -10.991385
v 68.976456 1.249449 -11.079619
v 68.952240 1.334635 -10.777194
v 68.969391 0.684292 -10.991385
v 68.988647 0.684292 -11.231937
v 68.981583 0.643225 -11.143703
v 69.017998 0.684292 -11.598446
v 68.940041 1.295507 -10.624878
v 68.940041 0.597165 -10.624878
v 68.942490 0.442266 -10.655419
v 68.934998 0.546411 -10.561901
v 68.996956 1.574798 -11.335637
v 69.013260 1.574798 -11.539252
v 69.013260 0.406541 -11.539252
v 68.974739 1.295510 -11.058212
v 68.981453 1.295510 -11.142049
v 69.004547 1.295510 -11.430483
v 69.011261 1.295510 -11.514320
v 69.034355 1.295510 -11.802755
v 68.980820 1.514729 -11.134178
v 68.998589 1.514729 -11.356036
v 69.012825 1.514729 -11.533890
v 69.030594 1.514729 -11.755748
v 68.962624 1.514730 -10.906895
v 68.959305 1.514730 -10.865432
v 69.111046 0.406541 -12.760489
v 69.116089 0.597165 -12.823465
v 69.064461 0.643225 -12.178687
v 69.076653 0.684292 -12.331003
v 69.119873 0.406541 -12.719210
v 69.119873 0.372824 -12.719210
v 69.107399 0.406541 -12.563437
v 69.098938 0.643225 -12.609276
v 69.040245 0.643225 -11.876264
v 69.129730 1.574801 -12.993859
v 69.094742 1.574798 -12.556873
v 69.045830 1.574798 -11.946029
v 69.094742 0.406541 -12.556873
v 69.078438 0.406541 -12.353258
v 69.045830 0.406541 -11.946029
v 69.107399 0.372824 -12.563437
v 68.917709 0.224800 -12.766088
v 68.900192 0.224800 -12.547273
v 69.116089 1.574798 -12.823463
v 69.140396 1.411592 -13.126994
v 69.120667 0.406541 -12.880639
v 69.123154 0.558040 -12.911701
v 69.128288 0.558040 -12.975782
v 69.128288 1.334635 -12.975782
v 69.047310 0.684292 -11.964499
v 69.069588 0.643225 -12.242769
v 69.116089 1.295510 -12.823463
v 69.093803 1.249446 -12.545194
v 69.069588 1.249446 -12.242769
v 69.076653 1.208380 -12.331003
v 69.064461 1.249446 -12.178687
v 69.136948 1.519064 -13.083943
v 69.047310 1.208380 -11.964499
v 69.040245 1.249446 -11.876264
v 69.057396 1.208380 -12.090450
v 69.086739 1.208380 -12.456959
v 69.106003 1.208380 -12.697511
v 69.098938 1.249449 -12.609276
v 69.123154 1.334635 -12.911701
v 69.106003 0.684292 -12.697511
v 69.086739 0.684292 -12.456959
v 69.093811 0.643225 -12.545194
v 69.057396 0.684292 -12.090450
v 69.135353 1.295507 -13.064018
v 69.135353 0.597165 -13.064018
v 69.132904 0.442266 -13.033476
v 69.140396 0.546411 -13.126994
v 69.078438 1.574798 -12.353258
v 69.062134 1.574798 -12.149644
v 69.062134 0.406541 -12.149644
v 69.100655 1.295510 -12.630684
v 69.093941 1.295510 -12.546847
v 69.070847 1.295510 -12.258412
v 69.064133 1.295510 -12.174575
v 69.041031 1.295510 -11.886141
v 69.094566 1.514729 -12.554717
v 69.076805 1.514729 -12.332859
v 69.062561 1.514729 -12.155005
v 69.044800 1.514729 -11.933148
v 69.112770 1.514730 -12.782001
v 69.116089 1.514730 -12.823463
vn -0.0419 0.8511 0.5232
vn 0.5831 0.8111 0.0467
vn 0.9968 -0.0000 0.0798
vn 0.9968 -0.0001 0.0798
vn 0.9968 0.0001 0.0798
vn 0.9968 0.0002 0.0798
vn -0.0000 1.0000 -0.0000
vn -0.0181 -0.9739 0.2262
vn -0.0593 -0.6693 0.7406
vn -0.0000 -1.0000 -0.0000
vn -0.0798 -0.0000 0.9968
vn -0.0741 0.3729 0.9249
vn -0.0782 0.2024 0.9762
vn 0.0336 0.9071 -0.4195
vn -0.9968 -0.0000 -0.0798
vn -0.9968 0.0001 -0.0798
vn 0.0336 -0.9071 -0.4195
vn -0.0336 -0.9071 0.4195
vn 0.0798 -0.0000 -0.9968
vn -0.0336 0.9071 0.4195
vn 0.0419 0.8512 -0.5232
vn 0.5830 0.8111 0.0467
vn 0.0181 -0.9739 -0.2262
vn 0.0593 -0.6693 -0.7406
vn 0.0741 0.3729 -0.9249
vn 0.0782 0.2024 -0.9762
vn 0.0323 -0.9146 -0.4030
vn -0.0323 -0.9146 0.4030
vn -0.0323 0.9146 0.4030
vn 0.0323 0.9146 -0.4030
vn -0.0779 0.2154 0.9734
vn 0.0779 0.2154 -0.9734
vn -0.5830 0.8111 -0.0467
vn -0.9968 -0.0001 -0.0798
vn -0.5831 0.8111 -0.0467
vt 0.563424 0.076340
vt 0.553130 0.073518
vt 0.930572 0.423953
vt 0.921307 0.379121
vt 0.987792 0.379121
vt 0.977903 0.423953
vt 0.607372 0.029178
vt 0.597289 0.031257
vt 0.582896 0.026846
vt 0.590093 0.017196
vt 0.572813 0.024865
vt 0.576362 0.017196
vt 0.613360 0.017196
vt 0.614695 0.029178
vt 0.558897 0.019004
vt 0.565490 0.024865
vt 0.555407 0.026846
vt 0.548211 0.024277
vt 0.555407 0.062200
vt 0.548211 0.068077
vt 0.639171 0.057790
vt 0.624778 0.057790
vt 0.624778 0.031257
vt 0.639171 0.031257
vt 0.597289 0.057790
vt 0.582896 0.062201
vt 0.649254 0.029178
vt 0.691136 0.029178
vt 0.681053 0.031257
vt 0.666660 0.031257
vt 0.656577 0.029178
vt 0.565490 0.064181
vt 0.572813 0.064181
vt 0.666660 0.057790
vt 0.681053 0.057790
vt 0.691136 0.059869
vt 0.656577 0.059869
vt 0.649254 0.059869
vt 0.614695 0.059869
vt 0.706379 0.076340
vt 0.683164 0.076340
vt 0.613360 0.076340
vt 0.582896 0.076340
vt 0.659896 0.017196
vt 0.683164 0.017196
vt 0.659896 0.076340
vt 0.636628 0.076340
vt 0.636628 0.017196
vt 0.614506 0.062201
vt 0.604926 0.062201
vt 0.607372 0.059869
vt 0.613607 0.073299
vt 0.638959 0.073299
vt 0.657047 0.062201
vt 0.647466 0.062201
vt 0.659283 0.073299
vt 0.684635 0.073299
vt 0.688839 0.081258
vt 0.699816 0.081258
vt 0.706005 0.126709
vt 0.682651 0.126709
vt 0.698407 0.059869
vt 0.699536 0.062201
vt 0.690007 0.062201
vt 0.612500 0.017196
vt 0.594699 0.017196
vt 0.977903 0.434165
vt 0.930572 0.434165
vt 0.704907 0.073299
vt 0.706379 0.017196
vt 0.698407 0.029178
vt 0.653445 0.126709
vt 0.630032 0.126709
vt 0.639832 0.081258
vt 0.650869 0.081258
vt 0.600826 0.126709
vt 0.570905 0.126710
vt 0.590825 0.081258
vt 0.601862 0.081258
vt 0.587634 0.073299
vt 0.806647 0.062201
vt 0.806647 0.026846
vt 0.565447 0.081258
vt 0.565447 0.126710
vt 0.582896 0.073299
vt 0.836413 0.073518
vt 0.826118 0.076340
vt 0.729647 0.076340
vt 0.978547 0.423953
vt 0.931216 0.423953
vt 0.921327 0.379121
vt 0.987812 0.379121
vt 0.782171 0.029178
vt 0.799450 0.017196
vt 0.792254 0.031257
vt 0.813181 0.017196
vt 0.816730 0.024865
vt 0.774848 0.029178
vt 0.776183 0.017196
vt 0.830646 0.019004
vt 0.841332 0.024277
vt 0.834136 0.026846
vt 0.824053 0.024865
vt 0.841332 0.068077
vt 0.834136 0.062200
vt 0.750372 0.057790
vt 0.750372 0.031257
vt 0.764765 0.031257
vt 0.764765 0.057790
vt 0.792254 0.057790
vt 0.740289 0.029178
vt 0.732966 0.029178
vt 0.722883 0.031257
vt 0.708490 0.031257
vt 0.816730 0.064181
vt 0.824053 0.064181
vt 0.722883 0.057790
vt 0.732966 0.059869
vt 0.708490 0.057790
vt 0.740289 0.059869
vt 0.774848 0.059869
vt 0.806647 0.076340
vt 0.776183 0.076340
vt 0.729647 0.017196
vt 0.752915 0.076340
vt 0.752915 0.017196
vt 0.775037 0.062201
vt 0.782171 0.059869
vt 0.784617 0.062201
vt 0.775936 0.073299
vt 0.750584 0.073299
vt 0.732496 0.062201
vt 0.742077 0.062201
vt 0.730260 0.073299
vt 0.777043 0.017196
vt 0.794844 0.017196
vt 0.978547 0.434165
vt 0.931216 0.434165
vt 0.735211 0.126709
vt 0.737787 0.081258
vt 0.748824 0.081258
vt 0.758624 0.126709
vt 0.787830 0.126709
vt 0.786794 0.081258
vt 0.797831 0.081258
vt 0.817751 0.126710
vt 0.801909 0.073299
vt 0.823209 0.081258
vt 0.823209 0.126710
vt 0.806647 0.073299
s 1
usemtl initialShadingGroup.004
f 10/1/1 132/1/1 154/2/1 32/2/1
f 6/3/2 17/4/2 18/5/2 16/6/2
f 8/7/3 40/8/3 2/9/3 1/10/3
f 1/10/3 2/9/3 22/11/3 21/12/3
f 1/10/3 13/13/3 42/14/3 8/7/3
f 46/15/3 23/16/3 45/17/3 47/18/3
f 45/17/3 44/19/3 20/20/3 47/18/3
f 30/21/3 36/22/3 41/23/3 4/24/3
f 40/8/3 37/25/4 27/26/3 2/9/3
f 23/16/3 46/15/3 21/12/3 22/11/3
f 4/24/3 41/23/3 42/14/3 26/27/3
f 9/28/3 25/29/3 43/30/3 3/31/3
f 10/1/3 32/2/3 24/32/3 39/33/3
f 35/34/3 33/35/3 34/36/4 31/37/5
f 29/38/6 28/39/5 36/22/3 30/21/3
f 43/30/3 25/29/3 33/35/3 35/34/3
f 73/40/7 195/40/7 134/41/7 12/41/7
f 46/15/8 168/15/8 143/12/8 21/12/8
f 11/42/7 133/42/7 141/43/7 19/43/7
f 47/18/9 169/18/9 168/15/9 46/15/9
f 50/44/10 172/44/10 137/45/10 15/45/10
f 19/43/7 141/43/7 132/1/7 10/1/7
f 20/20/3 44/19/3 24/32/3 32/2/3
f 49/46/7 171/46/7 170/47/7 48/47/7
f 26/27/3 42/14/3 13/13/3 14/48/3
f 14/48/3 50/44/3 3/31/3 26/27/3
f 9/28/3 3/31/3 50/44/3 15/45/3
f 52/49/5 51/50/4 38/51/4 28/39/5
f 56/52/3 57/53/3 48/47/3 11/42/3
f 54/54/3 53/55/5 29/38/6 31/37/5
f 58/56/3 59/57/3 12/41/5 49/46/3
f 55/58/4 116/59/4 120/60/3 59/61/3
f 13/13/10 135/13/10 136/48/10 14/48/10
f 20/20/11 142/20/11 169/18/11 47/18/11
f 34/36/4 95/62/4 116/63/4 55/64/4
f 48/47/7 170/47/7 133/42/7 11/42/7
f 32/2/12 154/2/12 142/20/12 20/20/12
f 14/48/10 136/48/10 172/44/10 50/44/10
f 7/65/10 13/13/10 1/10/10 5/66/10
f 6/3/3 16/6/3 7/67/3 5/68/3
f 139/4/13 17/4/13 6/3/13 128/3/13
f 5/68/11 127/68/11 128/3/11 6/3/11
f 7/65/10 129/65/10 135/13/10 13/13/10
f 1/10/10 123/10/10 127/66/10 5/66/10
f 3/31/7 125/31/7 148/27/7 26/27/7
f 26/27/14 148/27/14 126/24/14 4/24/14
f 134/41/15 195/40/16 242/69/15 181/57/15
f 156/36/10 217/62/10 95/62/10 34/36/10
f 33/35/17 155/35/17 156/36/17 34/36/17
f 37/25/17 159/25/17 160/51/17 38/51/17
f 31/37/18 153/37/18 157/34/18 35/34/18
f 25/29/19 147/29/19 155/35/19 33/35/19
f 9/28/14 131/28/14 147/29/14 25/29/14
f 4/24/19 126/24/19 152/21/19 30/21/19
f 8/7/14 130/7/14 162/8/14 40/8/14
f 40/8/19 162/8/19 159/25/19 37/25/19
f 43/30/20 165/30/20 125/31/20 3/31/20
f 38/51/10 160/51/10 150/39/10 28/39/10
f 76/70/3 70/71/3 9/28/3 15/45/3
f 36/22/11 158/22/11 163/23/11 41/23/11
f 35/34/11 157/34/11 165/30/11 43/30/11
f 42/14/7 164/14/7 130/7/7 8/7/7
f 28/39/18 150/39/18 158/22/18 36/22/18
f 31/37/5 34/36/4 55/64/4 54/54/3
f 58/72/3 57/73/3 53/74/5 54/75/3
f 28/39/5 29/38/6 53/55/5 52/49/5
f 56/76/3 60/77/3 51/78/4 52/79/5
f 37/25/4 38/51/4 51/50/4 27/26/3
f 11/42/3 19/43/3 60/80/3 56/52/3
f 49/46/3 48/47/3 57/53/3 58/56/3
f 210/81/19 88/81/19 63/82/19 185/82/19
f 54/75/3 55/58/4 59/61/3 58/72/3
f 52/79/5 53/74/5 57/73/3 56/76/3
f 27/83/3 51/78/4 60/77/3 61/84/3
f 27/26/3 61/85/3 10/1/3 39/33/3
f 10/1/3 61/85/3 60/80/3 19/43/3
f 12/41/7 134/41/7 171/46/7 49/46/7
f 41/23/20 163/23/20 164/14/20 42/14/20
f 15/45/10 137/45/10 198/70/10 76/70/10
f 93/86/21 215/86/21 193/87/21 71/87/21
f 110/88/7 232/88/7 195/40/7 73/40/7
f 67/89/22 77/90/22 79/91/22 78/92/22
f 69/93/3 62/94/3 63/82/3 101/95/3
f 62/94/3 82/96/3 83/97/3 63/82/3
f 62/94/3 69/93/3 103/98/3 74/99/3
f 107/100/3 108/101/3 106/102/3 84/103/3
f 106/102/3 108/101/3 81/104/3 105/105/3
f 91/106/3 65/107/3 102/108/3 97/109/3
f 101/95/3 63/82/3 88/81/3 98/110/5
f 84/103/3 83/97/3 82/96/3 107/100/3
f 65/107/3 87/111/3 103/98/3 102/108/3
f 70/71/3 64/112/3 104/113/4 86/114/4
f 71/87/3 100/115/3 85/116/3 93/86/3
f 96/117/5 92/118/5 95/62/4 94/119/5
f 90/120/5 91/106/3 97/109/3 89/121/3
f 104/113/4 96/117/5 94/119/5 86/114/4
f 198/70/15 137/45/15 131/28/15 192/71/15
f 82/96/23 204/96/23 229/100/23 107/100/23
f 80/122/7 202/122/7 194/123/7 72/123/7
f 107/100/24 229/100/24 230/101/24 108/101/24
f 76/70/10 198/70/10 233/124/10 111/124/10
f 71/87/7 193/87/7 202/122/7 80/122/7
f 81/104/3 93/86/3 85/116/3 105/105/3
f 109/125/7 231/125/7 232/88/7 110/88/7
f 87/111/3 75/126/3 74/99/3 103/98/3
f 75/126/3 87/111/3 64/112/3 111/124/3
f 70/71/3 76/70/3 111/124/3 64/112/3
f 113/127/3 89/121/3 99/128/5 112/129/3
f 117/130/3 72/123/3 109/125/5 118/131/3
f 115/132/3 92/118/5 90/120/5 114/133/3
f 119/134/3 110/88/3 73/40/3 120/69/3
f 75/126/10 197/126/10 196/99/10 74/99/10
f 108/101/19 230/101/19 203/104/19 81/104/19
f 72/123/7 194/123/7 231/125/7 109/125/7
f 103/98/14 225/98/14 224/108/14 102/108/14
f 81/104/25 203/104/25 215/86/25 93/86/25
f 111/124/10 233/124/10 197/126/10 75/126/10
f 68/135/10 66/136/10 62/94/10 74/99/10
f 67/89/3 66/137/3 68/138/3 77/90/3
f 200/92/26 189/89/26 67/89/26 78/92/26
f 67/89/19 189/89/19 188/137/19 66/137/19
f 74/99/10 196/99/10 190/135/10 68/135/10
f 66/136/10 188/136/10 184/94/10 62/94/10
f 87/111/7 209/111/7 186/112/7 64/112/7
f 65/107/20 187/107/20 209/111/20 87/111/20
f 97/109/17 219/109/17 211/121/17 89/121/17
f 95/62/18 217/62/18 216/119/18 94/119/18
f 99/128/18 221/128/18 220/110/18 98/110/18
f 96/117/17 218/117/17 214/118/17 92/118/17
f 94/119/11 216/119/11 208/114/11 86/114/11
f 86/114/20 208/114/20 192/71/20 70/71/20
f 91/106/11 213/106/11 187/107/11 65/107/11
f 101/95/20 223/95/20 191/93/20 69/93/20
f 98/110/11 220/110/11 223/95/11 101/95/11
f 64/112/14 186/112/14 226/113/14 104/113/14
f 89/121/10 211/121/10 221/128/10 99/128/10
f 102/108/19 224/108/19 219/109/19 97/109/19
f 104/113/19 226/113/19 218/117/19 96/117/19
f 69/93/7 191/93/7 225/98/7 103/98/7
f 92/118/5 115/132/3 116/63/4 95/62/4
f 119/139/3 115/140/3 114/141/3 118/142/3
f 89/121/3 113/127/3 114/133/3 90/120/5
f 117/143/3 113/144/3 112/145/3 121/146/3
f 98/110/5 88/81/3 112/129/3 99/128/5
f 72/123/3 117/130/3 121/147/3 80/122/3
f 110/88/3 119/134/3 118/131/3 109/125/5
f 115/140/3 119/139/3 120/60/3 116/59/4
f 113/144/3 117/143/3 118/142/3 114/141/3
f 88/148/3 122/149/3 121/146/3 112/145/3
f 88/81/3 100/115/3 71/87/3 122/150/3
f 71/87/3 80/122/3 121/147/3 122/150/3
f 17/4/10 139/4/10 140/5/10 18/5/10
f 149/26/11 124/9/11 2/9/11 27/26/11
f 222/115/27 100/115/27 88/81/27 210/81/27
f 222/115/10 207/116/10 85/116/10 100/115/10
f 207/116/28 227/105/28 105/105/28 85/116/28
f 227/105/11 228/102/11 106/102/11 105/105/11
f 206/103/29 84/103/29 106/102/29 228/102/29
f 206/103/7 205/97/7 83/97/7 84/103/7
f 185/82/30 63/82/30 83/97/30 205/97/30
f 213/106/18 91/106/18 90/120/18 212/120/18
f 199/90/11 77/90/11 68/138/11 190/138/11
f 199/90/31 201/91/31 79/91/31 77/90/31
f 62/94/10 184/94/10 204/96/10 82/96/10
f 92/118/10 214/118/10 212/120/10 90/120/10
f 161/33/28 149/26/28 27/26/28 39/33/28
f 161/33/10 39/33/10 24/32/10 146/32/10
f 146/32/27 24/32/27 44/19/27 166/19/27
f 166/19/19 44/19/19 45/17/19 167/17/19
f 145/16/30 167/17/30 45/17/30 23/16/30
f 145/16/7 23/16/7 22/11/7 144/11/7
f 124/9/29 144/11/29 22/11/29 2/9/29
f 152/21/17 151/38/17 29/38/17 30/21/17
f 138/6/19 129/67/19 7/67/19 16/6/19
f 138/6/32 16/6/32 18/5/32 140/5/32
f 21/12/10 143/12/10 123/10/10 1/10/10
f 29/38/10 151/38/10 153/37/10 31/37/10
f 128/3/33 138/6/33 140/5/33 139/4/33
f 130/7/15 123/10/15 124/9/15 162/8/15
f 123/10/15 143/12/15 144/11/15 124/9/15
f 123/10/15 130/7/15 164/14/15 135/13/15
f 168/15/15 169/18/15 167/17/15 145/16/15
f 167/17/15 169/18/15 142/20/15 166/19/15
f 152/21/15 126/24/16 163/23/16 158/22/15
f 162/8/15 124/9/15 149/26/15 159/25/15
f 145/16/15 144/11/15 143/12/15 168/15/15
f 126/24/16 148/27/15 164/14/15 163/23/16
f 131/28/15 125/31/15 165/30/15 147/29/15
f 132/1/15 161/33/15 146/32/15 154/2/15
f 157/34/16 153/37/16 156/36/15 155/35/16
f 151/38/15 152/21/15 158/22/15 150/39/15
f 165/30/15 157/34/16 155/35/16 147/29/15
f 142/20/15 154/2/15 146/32/15 166/19/15
f 148/27/15 136/48/15 135/13/15 164/14/15
f 136/48/15 148/27/15 125/31/15 172/44/15
f 131/28/15 137/45/15 172/44/15 125/31/15
f 174/49/15 150/39/15 160/51/15 173/50/15
f 178/52/15 133/42/16 170/47/16 179/53/16
f 176/54/15 153/37/16 151/38/15 175/55/15
f 180/56/15 171/46/15 134/41/15 181/57/15
f 181/61/15 242/60/15 238/59/15 177/58/15
f 177/64/15 238/63/15 217/62/34 156/36/15
f 129/65/10 127/66/10 123/10/10 135/13/10
f 128/3/15 127/68/15 129/67/15 138/6/15
f 153/37/16 176/54/15 177/64/15 156/36/15
f 180/72/15 176/75/15 175/74/15 179/73/16
f 150/39/15 174/49/15 175/55/15 151/38/15
f 178/76/15 174/79/15 173/78/15 182/77/15
f 159/25/15 149/26/15 173/50/15 160/51/15
f 133/42/16 178/52/15 182/80/15 141/43/15
f 171/46/15 180/56/15 179/53/16 170/47/16
f 176/75/15 180/72/15 181/61/15 177/58/15
f 174/79/15 178/76/15 179/73/16 175/74/15
f 149/83/15 183/84/15 182/77/15 173/78/15
f 149/26/15 161/33/15 132/1/15 183/85/15
f 132/1/15 141/43/15 182/80/15 183/85/15
f 131/28/7 9/28/7 70/71/7 192/71/7
f 189/89/35 200/92/35 201/91/35 199/90/35
f 191/93/15 223/95/15 185/82/15 184/94/15
f 184/94/15 185/82/15 205/97/15 204/96/15
f 184/94/15 196/99/15 225/98/15 191/93/15
f 229/100/15 206/103/15 228/102/15 230/101/15
f 228/102/15 227/105/15 203/104/15 230/101/15
f 213/106/15 219/109/15 224/108/15 187/107/15
f 223/95/15 220/110/15 210/81/15 185/82/15
f 206/103/15 229/100/15 204/96/15 205/97/15
f 187/107/15 224/108/15 225/98/15 209/111/15
f 192/71/15 208/114/15 226/113/15 186/112/15
f 193/87/15 215/86/15 207/116/15 222/115/15
f 218/117/15 216/119/15 217/62/34 214/118/16
f 212/120/16 211/121/16 219/109/15 213/106/15
f 226/113/15 208/114/15 216/119/15 218/117/15
f 203/104/15 227/105/15 207/116/15 215/86/15
f 209/111/15 225/98/15 196/99/15 197/126/15
f 197/126/15 233/124/15 186/112/15 209/111/15
f 192/71/15 186/112/15 233/124/15 198/70/15
f 235/127/16 234/129/15 221/128/16 211/121/16
f 239/130/15 240/131/15 231/125/15 194/123/16
f 237/132/15 236/133/16 212/120/16 214/118/16
f 241/134/15 242/69/15 195/40/16 232/88/15
f 190/135/10 196/99/10 184/94/10 188/136/10
f 189/89/15 199/90/15 190/138/15 188/137/15
f 214/118/16 217/62/34 238/63/15 237/132/15
f 241/139/15 240/142/15 236/141/16 237/140/15
f 211/121/16 212/120/16 236/133/16 235/127/16
f 239/143/15 243/146/15 234/145/15 235/144/16
f 220/110/15 221/128/16 234/129/15 210/81/15
f 194/123/16 202/122/15 243/147/15 239/130/15
f 232/88/15 231/125/15 240/131/15 241/134/15
f 237/140/15 238/59/15 242/60/15 241/139/15
f 235/144/16 236/141/16 240/142/15 239/143/15
f 210/148/15 234/145/15 243/146/15 244/149/15
f 210/81/15 244/150/15 193/87/15 222/115/15
f 193/87/15 244/150/15 243/147/15 202/122/15
f 59/57/3 120/69/3 73/40/3 12/41/5
f 79/91/10 201/91/10 200/92/10 78/92/10
