# Blender 5.1.0
# www.blender.org
mtllib barriere55_069.mtl
o barriere55.069
v 45.647930 0.406543 10.820183
v 45.686089 0.597167 10.769829
v 45.295418 0.643227 11.285369
v 45.387707 0.684294 11.163584
v 45.633144 0.406543 10.859721
v 45.633144 0.372826 10.859721
v 45.538761 0.406543 10.984270
v 45.556313 0.643227 10.941087
v 45.112183 0.643227 11.527176
v 45.789330 1.574803 10.633588
v 45.524559 1.574800 10.982985
v 45.154453 1.574800 11.471395
v 45.524559 0.406543 10.982985
v 45.401192 0.406543 11.145789
v 45.154453 0.406543 11.471395
v 45.538761 0.372826 10.984270
v 45.488026 0.224802 10.711368
v 45.355446 0.224802 10.886324
v 45.686089 1.574800 10.769831
v 45.869995 1.411594 10.527139
v 45.720730 0.406543 10.724114
v 45.739552 0.558042 10.699279
v 45.778378 0.558042 10.648042
v 45.778378 1.334637 10.648042
v 45.165642 0.684294 11.456626
v 45.334248 0.643227 11.234132
v 45.686089 1.295512 10.769831
v 45.517483 1.249448 10.992325
v 45.334248 1.249448 11.234132
v 45.387707 1.208382 11.163584
v 45.295418 1.249448 11.285369
v 45.843910 1.519066 10.561561
v 45.165642 1.208382 11.456626
v 45.112183 1.249448 11.527176
v 45.241955 1.208382 11.355921
v 45.464024 1.208382 11.062874
v 45.609772 1.208382 10.870538
v 45.556313 1.249451 10.941087
v 45.739552 1.334637 10.699279
v 45.609772 0.684294 10.870538
v 45.464024 0.684294 11.062874
v 45.517483 0.643227 10.992325
v 45.241955 0.684294 11.355921
v 45.831837 1.295509 10.577492
v 45.831837 0.597167 10.577492
v 45.813332 0.442268 10.601912
v 45.869995 0.546413 10.527139
v 45.401192 1.574800 11.145789
v 45.277821 1.574800 11.308592
v 45.277821 0.406543 11.308592
v 45.569283 1.295512 10.923970
v 45.518486 1.295512 10.991002
v 45.343723 1.295512 11.221624
v 45.292927 1.295512 11.288657
v 45.118164 1.295512 11.519279
v 45.523254 1.514731 10.984710
v 45.388832 1.514731 11.162099
v 45.281071 1.514731 11.304304
v 45.146648 1.514731 11.481693
v 45.660965 1.514732 10.802982
v 45.686089 1.514732 10.769831
v 44.537876 0.406543 12.285046
v 44.499722 0.597167 12.335400
v 44.890388 0.643227 11.819860
v 44.798100 0.684294 11.941646
v 44.571941 0.406543 12.260118
v 44.571941 0.372826 12.260118
v 44.666325 0.406543 12.135569
v 44.629498 0.643227 12.164143
v 45.073627 0.643227 11.578053
v 44.396477 1.574803 12.471641
v 44.661247 1.574800 12.122243
v 45.031357 1.574800 11.633835
v 44.661247 0.406543 12.122243
v 44.784618 0.406543 11.959440
v 45.031357 0.406543 11.633835
v 44.666325 0.372826 12.135569
v 44.389870 0.224802 12.160529
v 44.522449 0.224802 11.985574
v 44.499722 1.574800 12.335399
v 44.315811 1.411594 12.578091
v 44.465076 0.406543 12.381115
v 44.446259 0.558042 12.405951
v 44.407433 0.558042 12.457188
v 44.407433 1.334637 12.457188
v 45.020164 0.684294 11.648603
v 44.851562 0.643227 11.871098
v 44.499722 1.295512 12.335399
v 44.668324 1.249448 12.112905
v 44.851562 1.249448 11.871098
v 44.798100 1.208382 11.941646
v 44.890388 1.249448 11.819860
v 44.341896 1.519066 12.543669
v 45.020164 1.208382 11.648603
v 45.073627 1.249448 11.578053
v 44.943851 1.208382 11.749309
v 44.721786 1.208382 12.042356
v 44.576035 1.208382 12.234692
v 44.629498 1.249451 12.164143
v 44.446259 1.334637 12.405951
v 44.576035 0.684294 12.234692
v 44.721786 0.684294 12.042356
v 44.668324 0.643227 12.112905
v 44.943851 0.684294 11.749309
v 44.353970 1.295509 12.527737
v 44.353970 0.597167 12.527737
v 44.372475 0.442268 12.503317
v 44.315811 0.546413 12.578091
v 44.784618 1.574800 11.959440
v 44.907986 1.574800 11.796638
v 44.907986 0.406543 11.796638
v 44.616524 1.295512 12.181259
v 44.667320 1.295512 12.114226
v 44.842083 1.295512 11.883605
v 44.892879 1.295512 11.816572
v 45.067642 1.295512 11.585951
v 44.662552 1.514731 12.120519
v 44.796978 1.514731 11.943130
v 44.904739 1.514731 11.800925
v 45.039162 1.514731 11.623536
v 44.524841 1.514732 12.302247
v 44.499722 1.514732 12.335399
v 45.720013 0.406543 10.874805
v 45.758167 0.597167 10.824451
v 45.367500 0.643227 11.339992
v 45.459789 0.684294 11.218205
v 45.685947 0.406543 10.899734
v 45.685947 0.372826 10.899734
v 45.591564 0.406543 11.024282
v 45.628391 0.643227 10.995708
v 45.184261 0.643227 11.581799
v 45.861412 1.574803 10.688210
v 45.596642 1.574800 11.037608
v 45.226532 1.574800 11.526016
v 45.596642 0.406543 11.037608
v 45.473270 0.406543 11.200411
v 45.226532 0.406543 11.526016
v 45.591564 0.372826 11.024282
v 45.868019 0.224802 10.999322
v 45.735439 0.224802 11.174277
v 45.758167 1.574800 10.824452
v 45.942078 1.411594 10.581760
v 45.792812 0.406543 10.778736
v 45.811630 0.558042 10.753901
v 45.850456 0.558042 10.702663
v 45.850456 1.334637 10.702664
v 45.237724 0.684294 11.511248
v 45.406326 0.643227 11.288754
v 45.758167 1.295512 10.824452
v 45.589565 1.249448 11.046947
v 45.406326 1.249448 11.288754
v 45.459789 1.208382 11.218205
v 45.367500 1.249448 11.339992
v 45.915993 1.519066 10.616183
v 45.237724 1.208382 11.511248
v 45.184261 1.249448 11.581799
v 45.314037 1.208382 11.410542
v 45.536102 1.208382 11.117496
v 45.681854 1.208382 10.925159
v 45.628391 1.249451 10.995708
v 45.811630 1.334637 10.753901
v 45.681854 0.684294 10.925159
v 45.536102 0.684294 11.117496
v 45.589565 0.643227 11.046947
v 45.314037 0.684294 11.410542
v 45.903919 1.295509 10.632114
v 45.903919 0.597167 10.632114
v 45.885414 0.442268 10.656534
v 45.942078 0.546413 10.581760
v 45.473270 1.574800 11.200411
v 45.349903 1.574800 11.363214
v 45.349903 0.406543 11.363214
v 45.641365 1.295512 10.978592
v 45.590569 1.295512 11.045625
v 45.415806 1.295512 11.276246
v 45.365009 1.295512 11.343279
v 45.190247 1.295512 11.573900
v 45.595337 1.514731 11.039332
v 45.460911 1.514731 11.216722
v 45.353149 1.514731 11.358926
v 45.218727 1.514731 11.536315
v 45.733047 1.514732 10.857604
v 45.758167 1.514732 10.824452
v 44.609959 0.406543 12.339668
v 44.571800 0.597167 12.390022
v 44.962471 0.643227 11.874482
v 44.870182 0.684294 11.996267
v 44.624744 0.406543 12.300130
v 44.624744 0.372826 12.300130
v 44.719128 0.406543 12.175581
v 44.701576 0.643227 12.218764
v 45.145706 0.643227 11.632675
v 44.468559 1.574803 12.526263
v 44.733330 1.574800 12.176866
v 45.103439 1.574800 11.688457
v 44.733330 0.406543 12.176866
v 44.856697 0.406543 12.014062
v 45.103436 0.406543 11.688457
v 44.719128 0.372826 12.175581
v 44.769863 0.224802 12.448483
v 44.902443 0.224802 12.273527
v 44.571800 1.574800 12.390020
v 44.387894 1.411594 12.632712
v 44.537159 0.406543 12.435737
v 44.518337 0.558042 12.460572
v 44.479511 0.558042 12.511809
v 44.479511 1.334637 12.511809
v 45.092247 0.684294 11.703225
v 44.923641 0.643227 11.925719
v 44.571800 1.295512 12.390020
v 44.740406 1.249448 12.167526
v 44.923641 1.249448 11.925719
v 44.870182 1.208382 11.996268
v 44.962471 1.249448 11.874482
v 44.413979 1.519066 12.598290
v 45.092247 1.208382 11.703225
v 45.145710 1.249448 11.632675
v 45.015934 1.208382 11.803930
v 44.793865 1.208382 12.096977
v 44.648117 1.208382 12.289313
v 44.701576 1.249451 12.218764
v 44.518337 1.334637 12.460572
v 44.648117 0.684294 12.289313
v 44.793865 0.684294 12.096977
v 44.740406 0.643227 12.167526
v 45.015934 0.684294 11.803930
v 44.426052 1.295509 12.582359
v 44.426052 0.597167 12.582359
v 44.444557 0.442268 12.557939
v 44.387894 0.546413 12.632712
v 44.856697 1.574800 12.014063
v 44.980068 1.574800 11.851259
v 44.980068 0.406543 11.851259
v 44.688606 1.295512 12.235881
v 44.739403 1.295512 12.168849
v 44.914165 1.295512 11.938228
v 44.964962 1.295512 11.871194
v 45.139725 1.295512 11.640573
v 44.734634 1.514731 12.175141
v 44.869057 1.514731 11.997752
v 44.976818 1.514731 11.855547
v 45.111240 1.514731 11.678158
v 44.596924 1.514732 12.356869
v 44.571800 1.514732 12.390020
vn 0.3170 0.8511 -0.4184
vn -0.4662 0.8111 -0.3533
vn -0.7970 -0.0000 -0.6040
vn -0.7970 0.0001 -0.6040
vn -0.0000 1.0000 -0.0000
vn 0.1371 -0.9739 -0.1809
vn 0.4487 -0.6693 -0.5922
vn -0.0000 -1.0000 -0.0000
vn 0.6040 -0.0000 -0.7970
vn 0.5604 0.3729 -0.7395
vn 0.5915 0.2024 -0.7805
vn -0.2542 0.9071 0.3354
vn 0.7970 -0.0000 0.6040
vn -0.2542 -0.9071 0.3354
vn 0.2542 -0.9071 -0.3354
vn -0.6040 -0.0000 0.7970
vn 0.2542 0.9071 -0.3354
vn 0.6039 -0.0000 -0.7970
vn -0.3170 0.8511 0.4184
vn -0.7970 -0.0001 -0.6040
vn -0.1371 -0.9739 0.1809
vn -0.4487 -0.6693 0.5922
vn -0.5604 0.3729 0.7395
vn -0.5915 0.2024 0.7805
vn -0.2442 -0.9146 0.3222
vn 0.2442 -0.9146 -0.3222
vn 0.2442 0.9146 -0.3222
vn -0.2442 0.9146 0.3222
vn 0.5898 0.2154 -0.7783
vn -0.5898 0.2154 0.7783
vn 0.4662 0.8111 0.3533
vn 0.7970 -0.0001 0.6040
vt 0.563424 0.076340
vt 0.553130 0.073518
vt 0.930572 0.423953
vt 0.921307 0.379121
vt 0.987792 0.379121
vt 0.977903 0.423953
vt 0.607372 0.029178
vt 0.597289 0.031257
vt 0.582896 0.026846
vt 0.590093 0.017196
vt 0.572813 0.024865
vt 0.576362 0.017196
vt 0.613360 0.017196
vt 0.614695 0.029178
vt 0.558897 0.019004
vt 0.565490 0.024865
vt 0.555407 0.026846
vt 0.548211 0.024277
vt 0.555407 0.062200
vt 0.548211 0.068077
vt 0.639171 0.057790
vt 0.624778 0.057790
vt 0.624778 0.031257
vt 0.639171 0.031257
vt 0.597289 0.057790
vt 0.582896 0.062201
vt 0.649254 0.029178
vt 0.691136 0.029178
vt 0.681053 0.031257
vt 0.666660 0.031257
vt 0.656577 0.029178
vt 0.565490 0.064181
vt 0.572813 0.064181
vt 0.666660 0.057790
vt 0.681053 0.057790
vt 0.691136 0.059869
vt 0.656577 0.059869
vt 0.649254 0.059869
vt 0.614695 0.059869
vt 0.706379 0.076340
vt 0.683164 0.076340
vt 0.613360 0.076340
vt 0.582896 0.076340
vt 0.659896 0.017196
vt 0.683164 0.017196
vt 0.659896 0.076340
vt 0.636628 0.076340
vt 0.636628 0.017196
vt 0.614506 0.062201
vt 0.604926 0.062201
vt 0.607372 0.059869
vt 0.613607 0.073299
vt 0.638959 0.073299
vt 0.657047 0.062201
vt 0.647466 0.062201
vt 0.659283 0.073299
vt 0.684635 0.073299
vt 0.688839 0.081258
vt 0.699816 0.081258
vt 0.706005 0.126709
vt 0.682651 0.126709
vt 0.698407 0.059869
vt 0.699536 0.062201
vt 0.690007 0.062201
vt 0.612500 0.017196
vt 0.594699 0.017196
vt 0.977903 0.434165
vt 0.930572 0.434165
vt 0.704907 0.073299
vt 0.706379 0.017196
vt 0.698407 0.029178
vt 0.653445 0.126709
vt 0.630032 0.126709
vt 0.639832 0.081258
vt 0.650869 0.081258
vt 0.600826 0.126709
vt 0.570905 0.126710
vt 0.590825 0.081258
vt 0.601862 0.081258
vt 0.587634 0.073299
vt 0.806647 0.062201
vt 0.806647 0.026846
vt 0.565447 0.081258
vt 0.565447 0.126710
vt 0.582896 0.073299
vt 0.836413 0.073518
vt 0.826118 0.076340
vt 0.729647 0.076340
vt 0.978547 0.423953
vt 0.931216 0.423953
vt 0.921327 0.379121
vt 0.987812 0.379121
vt 0.782171 0.029178
vt 0.799450 0.017196
vt 0.792254 0.031257
vt 0.813181 0.017196
vt 0.816730 0.024865
vt 0.774848 0.029178
vt 0.776183 0.017196
vt 0.830646 0.019004
vt 0.841332 0.024277
vt 0.834136 0.026846
vt 0.824053 0.024865
vt 0.841332 0.068077
vt 0.834136 0.062200
vt 0.750372 0.057790
vt 0.750372 0.031257
vt 0.764765 0.031257
vt 0.764765 0.057790
vt 0.792254 0.057790
vt 0.740289 0.029178
vt 0.732966 0.029178
vt 0.722883 0.031257
vt 0.708490 0.031257
vt 0.816730 0.064181
vt 0.824053 0.064181
vt 0.722883 0.057790
vt 0.732966 0.059869
vt 0.708490 0.057790
vt 0.740289 0.059869
vt 0.774848 0.059869
vt 0.806647 0.076340
vt 0.776183 0.076340
vt 0.729647 0.017196
vt 0.752915 0.076340
vt 0.752915 0.017196
vt 0.775037 0.062201
vt 0.782171 0.059869
vt 0.784617 0.062201
vt 0.775936 0.073299
vt 0.750584 0.073299
vt 0.732496 0.062201
vt 0.742077 0.062201
vt 0.730260 0.073299
vt 0.777043 0.017196
vt 0.794844 0.017196
vt 0.978547 0.434165
vt 0.931216 0.434165
vt 0.735211 0.126709
vt 0.737787 0.081258
vt 0.748824 0.081258
vt 0.758624 0.126709
vt 0.787830 0.126709
vt 0.786794 0.081258
vt 0.797831 0.081258
vt 0.817751 0.126710
vt 0.801909 0.073299
vt 0.823209 0.081258
vt 0.823209 0.126710
vt 0.806647 0.073299
s 1
usemtl initialShadingGroup.004
f 10/1/1 132/1/1 154/2/1 32/2/1
f 6/3/2 17/4/2 18/5/2 16/6/2
f 8/7/3 40/8/3 2/9/3 1/10/3
f 1/10/3 2/9/3 22/11/3 21/12/3
f 1/10/3 13/13/3 42/14/3 8/7/3
f 46/15/3 23/16/3 45/17/3 47/18/3
f 45/17/3 44/19/3 20/20/3 47/18/3
f 30/21/3 36/22/3 41/23/3 4/24/3
f 40/8/3 37/25/3 27/26/3 2/9/3
f 23/16/3 46/15/3 21/12/3 22/11/3
f 4/24/3 41/23/3 42/14/3 26/27/3
f 9/28/3 25/29/3 43/30/3 3/31/3
f 10/1/3 32/2/3 24/32/3 39/33/3
f 35/34/3 33/35/3 34/36/3 31/37/3
f 29/38/3 28/39/4 36/22/3 30/21/3
f 43/30/3 25/29/3 33/35/3 35/34/3
f 73/40/5 195/40/5 134/41/5 12/41/5
f 46/15/6 168/15/6 143/12/6 21/12/6
f 11/42/5 133/42/5 141/43/5 19/43/5
f 47/18/7 169/18/7 168/15/7 46/15/7
f 50/44/8 172/44/8 137/45/8 15/45/8
f 19/43/5 141/43/5 132/1/5 10/1/5
f 20/20/3 44/19/3 24/32/3 32/2/3
f 49/46/5 171/46/5 170/47/5 48/47/5
f 26/27/3 42/14/3 13/13/3 14/48/3
f 14/48/3 50/44/3 3/31/3 26/27/3
f 9/28/3 3/31/3 50/44/3 15/45/3
f 52/49/3 51/50/3 38/51/3 28/39/4
f 56/52/3 57/53/3 48/47/3 11/42/3
f 54/54/3 53/55/3 29/38/3 31/37/3
f 58/56/3 59/57/3 12/41/3 49/46/3
f 55/58/3 116/59/3 120/60/3 59/61/3
f 13/13/8 135/13/8 136/48/8 14/48/8
f 20/20/9 142/20/9 169/18/9 47/18/9
f 34/36/3 95/62/3 116/63/3 55/64/3
f 48/47/5 170/47/5 133/42/5 11/42/5
f 32/2/10 154/2/10 142/20/10 20/20/10
f 14/48/8 136/48/8 172/44/8 50/44/8
f 7/65/8 13/13/8 1/10/8 5/66/8
f 6/3/3 16/6/3 7/67/3 5/68/3
f 139/4/11 17/4/11 6/3/11 128/3/11
f 5/68/9 127/68/9 128/3/9 6/3/9
f 7/65/8 129/65/8 135/13/8 13/13/8
f 1/10/8 123/10/8 127/66/8 5/66/8
f 3/31/5 125/31/5 148/27/5 26/27/5
f 26/27/12 148/27/12 126/24/12 4/24/12
f 134/41/13 195/40/13 242/69/13 181/57/13
f 156/36/8 217/62/8 95/62/8 34/36/8
f 33/35/14 155/35/14 156/36/14 34/36/14
f 37/25/14 159/25/14 160/51/14 38/51/14
f 31/37/15 153/37/15 157/34/15 35/34/15
f 25/29/16 147/29/16 155/35/16 33/35/16
f 9/28/12 131/28/12 147/29/12 25/29/12
f 4/24/16 126/24/16 152/21/16 30/21/16
f 8/7/12 130/7/12 162/8/12 40/8/12
f 40/8/16 162/8/16 159/25/16 37/25/16
f 43/30/17 165/30/17 125/31/17 3/31/17
f 38/51/8 160/51/8 150/39/8 28/39/8
f 76/70/3 70/71/3 9/28/3 15/45/3
f 36/22/9 158/22/9 163/23/9 41/23/9
f 35/34/18 157/34/18 165/30/18 43/30/18
f 42/14/5 164/14/5 130/7/5 8/7/5
f 28/39/15 150/39/15 158/22/15 36/22/15
f 31/37/3 34/36/3 55/64/3 54/54/3
f 58/72/3 57/73/3 53/74/3 54/75/3
f 28/39/4 29/38/3 53/55/3 52/49/3
f 56/76/3 60/77/3 51/78/3 52/79/3
f 37/25/3 38/51/3 51/50/3 27/26/3
f 11/42/3 19/43/3 60/80/3 56/52/3
f 49/46/3 48/47/3 57/53/3 58/56/3
f 210/81/16 88/81/16 63/82/16 185/82/16
f 54/75/3 55/58/3 59/61/3 58/72/3
f 52/79/3 53/74/3 57/73/3 56/76/3
f 27/83/3 51/78/3 60/77/3 61/84/3
f 27/26/3 61/85/3 10/1/3 39/33/3
f 10/1/3 61/85/3 60/80/3 19/43/3
f 12/41/5 134/41/5 171/46/5 49/46/5
f 41/23/17 163/23/17 164/14/17 42/14/17
f 15/45/8 137/45/8 198/70/8 76/70/8
f 93/86/19 215/86/19 193/87/19 71/87/19
f 110/88/5 232/88/5 195/40/5 73/40/5
f 67/89/2 77/90/2 79/91/2 78/92/2
f 69/93/3 62/94/3 63/82/3 101/95/3
f 62/94/3 82/96/3 83/97/3 63/82/3
f 62/94/3 69/93/3 103/98/3 74/99/3
f 107/100/3 108/101/3 106/102/3 84/103/3
f 106/102/3 108/101/3 81/104/3 105/105/3
f 91/106/20 65/107/3 102/108/3 97/109/20
f 101/95/3 63/82/3 88/81/3 98/110/3
f 84/103/3 83/97/3 82/96/3 107/100/3
f 65/107/3 87/111/3 103/98/3 102/108/3
f 70/71/3 64/112/3 104/113/3 86/114/3
f 71/87/3 100/115/3 85/116/3 93/86/3
f 96/117/4 92/118/3 95/62/3 94/119/4
f 90/120/3 91/106/20 97/109/20 89/121/3
f 104/113/3 96/117/4 94/119/4 86/114/3
f 198/70/13 137/45/13 131/28/13 192/71/13
f 82/96/21 204/96/21 229/100/21 107/100/21
f 80/122/5 202/122/5 194/123/5 72/123/5
f 107/100/22 229/100/22 230/101/22 108/101/22
f 76/70/8 198/70/8 233/124/8 111/124/8
f 71/87/5 193/87/5 202/122/5 80/122/5
f 81/104/3 93/86/3 85/116/3 105/105/3
f 109/125/5 231/125/5 232/88/5 110/88/5
f 87/111/3 75/126/3 74/99/3 103/98/3
f 75/126/3 87/111/3 64/112/3 111/124/3
f 70/71/3 76/70/3 111/124/3 64/112/3
f 113/127/3 89/121/3 99/128/20 112/129/3
f 117/130/3 72/123/3 109/125/3 118/131/3
f 115/132/3 92/118/3 90/120/3 114/133/3
f 119/134/3 110/88/3 73/40/3 120/69/3
f 75/126/8 197/126/8 196/99/8 74/99/8
f 108/101/16 230/101/16 203/104/16 81/104/16
f 72/123/5 194/123/5 231/125/5 109/125/5
f 103/98/12 225/98/12 224/108/12 102/108/12
f 81/104/23 203/104/23 215/86/23 93/86/23
f 111/124/8 233/124/8 197/126/8 75/126/8
f 68/135/8 66/136/8 62/94/8 74/99/8
f 67/89/3 66/137/3 68/138/3 77/90/3
f 200/92/24 189/89/24 67/89/24 78/92/24
f 67/89/16 189/89/16 188/137/16 66/137/16
f 74/99/8 196/99/8 190/135/8 68/135/8
f 66/136/8 188/136/8 184/94/8 62/94/8
f 87/111/5 209/111/5 186/112/5 64/112/5
f 65/107/17 187/107/17 209/111/17 87/111/17
f 97/109/14 219/109/14 211/121/14 89/121/14
f 95/62/15 217/62/15 216/119/15 94/119/15
f 99/128/15 221/128/15 220/110/15 98/110/15
f 96/117/14 218/117/14 214/118/14 92/118/14
f 94/119/9 216/119/9 208/114/9 86/114/9
f 86/114/17 208/114/17 192/71/17 70/71/17
f 91/106/9 213/106/9 187/107/9 65/107/9
f 101/95/17 223/95/17 191/93/17 69/93/17
f 98/110/9 220/110/9 223/95/9 101/95/9
f 64/112/12 186/112/12 226/113/12 104/113/12
f 89/121/8 211/121/8 221/128/8 99/128/8
f 102/108/16 224/108/16 219/109/16 97/109/16
f 104/113/16 226/113/16 218/117/16 96/117/16
f 69/93/5 191/93/5 225/98/5 103/98/5
f 92/118/3 115/132/3 116/63/3 95/62/3
f 119/139/3 115/140/3 114/141/3 118/142/3
f 89/121/3 113/127/3 114/133/3 90/120/3
f 117/143/3 113/144/3 112/145/3 121/146/3
f 98/110/3 88/81/3 112/129/3 99/128/20
f 72/123/3 117/130/3 121/147/3 80/122/3
f 110/88/3 119/134/3 118/131/3 109/125/3
f 115/140/3 119/139/3 120/60/3 116/59/3
f 113/144/3 117/143/3 118/142/3 114/141/3
f 88/148/3 122/149/3 121/146/3 112/145/3
f 88/81/3 100/115/3 71/87/3 122/150/3
f 71/87/3 80/122/3 121/147/3 122/150/3
f 17/4/8 139/4/8 140/5/8 18/5/8
f 149/26/9 124/9/9 2/9/9 27/26/9
f 222/115/25 100/115/25 88/81/25 210/81/25
f 222/115/8 207/116/8 85/116/8 100/115/8
f 207/116/26 227/105/26 105/105/26 85/116/26
f 227/105/9 228/102/9 106/102/9 105/105/9
f 206/103/27 84/103/27 106/102/27 228/102/27
f 206/103/5 205/97/5 83/97/5 84/103/5
f 185/82/28 63/82/28 83/97/28 205/97/28
f 213/106/15 91/106/15 90/120/15 212/120/15
f 199/90/9 77/90/9 68/138/9 190/138/9
f 199/90/29 201/91/29 79/91/29 77/90/29
f 62/94/8 184/94/8 204/96/8 82/96/8
f 92/118/8 214/118/8 212/120/8 90/120/8
f 161/33/26 149/26/26 27/26/26 39/33/26
f 161/33/8 39/33/8 24/32/8 146/32/8
f 146/32/25 24/32/25 44/19/25 166/19/25
f 166/19/16 44/19/16 45/17/16 167/17/16
f 145/16/28 167/17/28 45/17/28 23/16/28
f 145/16/5 23/16/5 22/11/5 144/11/5
f 124/9/27 144/11/27 22/11/27 2/9/27
f 152/21/14 151/38/14 29/38/14 30/21/14
f 138/6/16 129/67/16 7/67/16 16/6/16
f 138/6/30 16/6/30 18/5/30 140/5/30
f 21/12/8 143/12/8 123/10/8 1/10/8
f 29/38/8 151/38/8 153/37/8 31/37/8
f 128/3/31 138/6/31 140/5/31 139/4/31
f 130/7/13 123/10/13 124/9/13 162/8/13
f 123/10/13 143/12/13 144/11/13 124/9/13
f 123/10/13 130/7/13 164/14/13 135/13/13
f 168/15/13 169/18/13 167/17/13 145/16/13
f 167/17/13 169/18/13 142/20/13 166/19/13
f 152/21/13 126/24/13 163/23/13 158/22/13
f 162/8/13 124/9/13 149/26/13 159/25/32
f 145/16/13 144/11/13 143/12/13 168/15/13
f 126/24/13 148/27/13 164/14/13 163/23/13
f 131/28/13 125/31/13 165/30/13 147/29/13
f 132/1/13 161/33/13 146/32/13 154/2/13
f 157/34/13 153/37/13 156/36/13 155/35/13
f 151/38/13 152/21/13 158/22/13 150/39/13
f 165/30/13 157/34/13 155/35/13 147/29/13
f 142/20/13 154/2/13 146/32/13 166/19/13
f 148/27/13 136/48/13 135/13/13 164/14/13
f 136/48/13 148/27/13 125/31/13 172/44/13
f 131/28/13 137/45/13 172/44/13 125/31/13
f 174/49/13 150/39/13 160/51/32 173/50/13
f 178/52/13 133/42/13 170/47/13 179/53/13
f 176/54/13 153/37/13 151/38/13 175/55/13
f 180/56/13 171/46/13 134/41/13 181/57/13
f 181/61/13 242/60/13 238/59/13 177/58/13
f 177/64/13 238/63/13 217/62/13 156/36/13
f 129/65/8 127/66/8 123/10/8 135/13/8
f 128/3/13 127/68/13 129/67/13 138/6/13
f 153/37/13 176/54/13 177/64/13 156/36/13
f 180/72/13 176/75/13 175/74/13 179/73/13
f 150/39/13 174/49/13 175/55/13 151/38/13
f 178/76/13 174/79/13 173/78/13 182/77/13
f 159/25/32 149/26/13 173/50/13 160/51/32
f 133/42/13 178/52/13 182/80/13 141/43/13
f 171/46/13 180/56/13 179/53/13 170/47/13
f 176/75/13 180/72/13 181/61/13 177/58/13
f 174/79/13 178/76/13 179/73/13 175/74/13
f 149/83/13 183/84/13 182/77/13 173/78/13
f 149/26/13 161/33/13 132/1/13 183/85/13
f 132/1/13 141/43/13 182/80/13 183/85/13
f 131/28/5 9/28/5 70/71/5 192/71/5
f 189/89/31 200/92/31 201/91/31 199/90/31
f 191/93/13 223/95/13 185/82/13 184/94/13
f 184/94/13 185/82/13 205/97/13 204/96/13
f 184/94/13 196/99/13 225/98/13 191/93/13
f 229/100/13 206/103/13 228/102/13 230/101/13
f 228/102/13 227/105/13 203/104/13 230/101/13
f 213/106/13 219/109/13 224/108/13 187/107/13
f 223/95/13 220/110/13 210/81/13 185/82/13
f 206/103/13 229/100/13 204/96/13 205/97/13
f 187/107/13 224/108/13 225/98/13 209/111/13
f 192/71/13 208/114/32 226/113/32 186/112/13
f 193/87/13 215/86/13 207/116/13 222/115/13
f 218/117/13 216/119/13 217/62/13 214/118/13
f 212/120/13 211/121/13 219/109/13 213/106/13
f 226/113/32 208/114/32 216/119/13 218/117/13
f 203/104/13 227/105/13 207/116/13 215/86/13
f 209/111/13 225/98/13 196/99/13 197/126/13
f 197/126/13 233/124/13 186/112/13 209/111/13
f 192/71/13 186/112/13 233/124/13 198/70/13
f 235/127/13 234/129/13 221/128/13 211/121/13
f 239/130/13 240/131/13 231/125/13 194/123/13
f 237/132/13 236/133/13 212/120/13 214/118/13
f 241/134/13 242/69/13 195/40/13 232/88/13
f 190/135/8 196/99/8 184/94/8 188/136/8
f 189/89/13 199/90/13 190/138/13 188/137/13
f 214/118/13 217/62/13 238/63/13 237/132/13
f 241/139/13 240/142/13 236/141/13 237/140/13
f 211/121/13 212/120/13 236/133/13 235/127/13
f 239/143/13 243/146/13 234/145/13 235/144/13
f 220/110/13 221/128/13 234/129/13 210/81/13
f 194/123/13 202/122/13 243/147/13 239/130/13
f 232/88/13 231/125/13 240/131/13 241/134/13
f 237/140/13 238/59/13 242/60/13 241/139/13
f 235/144/13 236/141/13 240/142/13 239/143/13
f 210/148/13 234/145/13 243/146/13 244/149/13
f 210/81/13 244/150/13 193/87/13 222/115/13
f 193/87/13 244/150/13 243/147/13 202/122/13
f 59/57/3 120/69/3 73/40/3 12/41/3
f 79/91/8 201/91/8 200/92/8 78/92/8
