# Blender 5.1.0
# www.blender.org
mtllib barriere55_086.mtl
o barriere55.086
v 27.780605 0.406543 9.123606
v 27.755751 0.597167 9.181689
v 28.010225 0.643227 8.587007
v 27.950109 0.684294 8.727489
v 27.785398 0.406543 9.081666
v 27.785398 0.372826 9.081666
v 27.846876 0.406543 8.937997
v 27.840284 0.643227 8.984141
v 28.129581 0.643227 8.308079
v 27.688501 1.574803 9.338845
v 27.860966 1.574800 8.935810
v 28.102047 1.574800 8.372424
v 27.860966 0.406543 8.935810
v 27.941326 0.406543 8.748014
v 28.102047 0.406543 8.372424
v 27.846876 0.372826 8.937997
v 27.962072 0.224802 9.190543
v 28.048431 0.224802 8.988729
v 27.755753 1.574800 9.181688
v 27.635958 1.411594 9.461637
v 27.733187 0.406543 9.234422
v 27.720928 0.558042 9.263070
v 27.695637 0.558042 9.322173
v 27.695637 1.334637 9.322173
v 28.094757 0.684294 8.389459
v 27.984934 0.643227 8.646111
v 27.755753 1.295512 9.181688
v 27.865576 1.249448 8.925037
v 27.984934 1.249448 8.646111
v 27.950109 1.208382 8.727489
v 28.010225 1.249448 8.587007
v 27.652948 1.519066 9.421930
v 28.094757 1.208382 8.389459
v 28.129581 1.249448 8.308079
v 28.045050 1.208382 8.505625
v 27.900400 1.208382 8.843658
v 27.805462 1.208382 9.065521
v 27.840284 1.249451 8.984141
v 27.720928 1.334637 9.263070
v 27.805462 0.684294 9.065521
v 27.900400 0.684294 8.843658
v 27.865576 0.643227 8.925037
v 28.045050 0.684294 8.505625
v 27.660812 1.295509 9.403553
v 27.660812 0.597167 9.403553
v 27.672867 0.442268 9.375383
v 27.635958 0.546413 9.461637
v 27.941326 1.574800 8.748014
v 28.021687 1.574800 8.560220
v 28.021687 0.406543 8.560220
v 27.831837 1.295512 9.003886
v 27.864923 1.295512 8.926563
v 27.978760 1.295512 8.660538
v 28.011847 1.295512 8.583214
v 28.125683 1.295512 8.317189
v 27.861818 1.514731 8.933822
v 27.949377 1.514731 8.729200
v 28.019571 1.514731 8.565166
v 28.107130 1.514731 8.360544
v 27.772116 1.514732 9.143447
v 27.755753 1.514732 9.181688
v 28.503670 0.406543 7.433866
v 28.528524 0.597167 7.375782
v 28.274052 0.643227 7.970465
v 28.334166 0.684294 7.829984
v 28.476641 0.406543 7.466290
v 28.476641 0.372826 7.466290
v 28.415163 0.406543 7.609959
v 28.443991 0.643227 7.573330
v 28.154696 0.643227 8.249393
v 28.595774 1.574803 7.218626
v 28.423309 1.574800 7.621662
v 28.182228 1.574800 8.185047
v 28.423309 0.406543 7.621662
v 28.342949 0.406543 7.809457
v 28.182228 0.406543 8.185047
v 28.415163 0.372826 7.609959
v 28.677385 0.224802 7.518916
v 28.591026 0.224802 7.720730
v 28.528524 1.574800 7.375783
v 28.648317 1.411593 7.095836
v 28.551090 0.406543 7.323050
v 28.563349 0.558042 7.294402
v 28.588640 0.558042 7.235299
v 28.588640 1.334636 7.235300
v 28.189518 0.684294 8.168012
v 28.299343 0.643227 7.911362
v 28.528524 1.295512 7.375783
v 28.418699 1.249448 7.632433
v 28.299343 1.249448 7.911362
v 28.334166 1.208382 7.829984
v 28.274052 1.249448 7.970465
v 28.631327 1.519065 7.135541
v 28.189518 1.208382 8.168012
v 28.154696 1.249448 8.249393
v 28.239227 1.208382 8.051847
v 28.383877 1.208382 7.713814
v 28.478815 1.208382 7.491951
v 28.443991 1.249451 7.573329
v 28.563349 1.334636 7.294402
v 28.478815 0.684294 7.491951
v 28.383877 0.684294 7.713814
v 28.418699 0.643227 7.632433
v 28.239227 0.684294 8.051847
v 28.623463 1.295509 7.153919
v 28.623463 0.597167 7.153919
v 28.611410 0.442268 7.182087
v 28.648317 0.546413 7.095836
v 28.342949 1.574800 7.809457
v 28.262589 1.574800 7.997252
v 28.262589 0.406543 7.997252
v 28.452440 1.295512 7.553586
v 28.419353 1.295512 7.630908
v 28.305517 1.295512 7.896934
v 28.272429 1.295512 7.974257
v 28.158592 1.295512 8.240282
v 28.422459 1.514731 7.623650
v 28.334898 1.514731 7.828270
v 28.264706 1.514731 7.992307
v 28.177145 1.514731 8.196926
v 28.512161 1.514732 7.414025
v 28.528524 1.514732 7.375783
v 27.697460 0.406543 9.088026
v 27.672606 0.597167 9.146110
v 27.927078 0.643227 8.551427
v 27.866964 0.684294 8.691909
v 27.724489 0.406543 9.055602
v 27.724489 0.372826 9.055602
v 27.785967 0.406543 8.911933
v 27.757139 0.643227 8.948562
v 28.046434 0.643227 8.272500
v 27.605356 1.574803 9.303266
v 27.777821 1.574800 8.900230
v 28.018902 1.574800 8.336844
v 27.777821 0.406543 8.900230
v 27.858181 0.406543 8.712436
v 28.018902 0.406543 8.336844
v 27.785967 0.372826 8.911933
v 27.523745 0.224802 9.002976
v 27.610104 0.224802 8.801163
v 27.672606 1.574800 9.146110
v 27.552811 1.411594 9.426057
v 27.650040 0.406543 9.198842
v 27.637781 0.558042 9.227490
v 27.612490 0.558042 9.286593
v 27.612490 1.334637 9.286593
v 28.011612 0.684294 8.353880
v 27.901787 0.643227 8.610531
v 27.672606 1.295512 9.146110
v 27.782431 1.249448 8.889458
v 27.901787 1.249448 8.610531
v 27.866964 1.208382 8.691909
v 27.927078 1.249448 8.551427
v 27.569803 1.519066 9.386352
v 28.011612 1.208382 8.353880
v 28.046434 1.249448 8.272499
v 27.961903 1.208382 8.470045
v 27.817253 1.208382 8.808079
v 27.722315 1.208382 9.029942
v 27.757139 1.249451 8.948562
v 27.637781 1.334637 9.227490
v 27.722315 0.684294 9.029942
v 27.817253 0.684294 8.808079
v 27.782431 0.643227 8.889459
v 27.961903 0.684294 8.470045
v 27.577667 1.295509 9.367973
v 27.577667 0.597167 9.367973
v 27.589720 0.442268 9.339805
v 27.552813 0.546413 9.426057
v 27.858181 1.574800 8.712436
v 27.938541 1.574800 8.524640
v 27.938541 0.406543 8.524640
v 27.748690 1.295512 8.968307
v 27.781776 1.295512 8.890984
v 27.895613 1.295512 8.624958
v 27.928701 1.295512 8.547635
v 28.042538 1.295512 8.281610
v 27.778671 1.514731 8.898242
v 27.866232 1.514731 8.693621
v 27.936424 1.514731 8.529586
v 28.023985 1.514731 8.324965
v 27.688969 1.514732 9.107867
v 27.672606 1.514732 9.146110
v 28.420525 0.406543 7.398287
v 28.445379 0.597167 7.340203
v 28.190905 0.643227 7.934886
v 28.251020 0.684294 7.794404
v 28.415731 0.406543 7.440226
v 28.415731 0.372826 7.440226
v 28.354254 0.406543 7.583896
v 28.360846 0.643227 7.537751
v 28.071548 0.643227 8.213813
v 28.512629 1.574803 7.183047
v 28.340162 1.574800 7.586082
v 28.099083 1.574800 8.149467
v 28.340164 0.406543 7.586082
v 28.259804 0.406543 7.773878
v 28.099083 0.406543 8.149467
v 28.354254 0.372826 7.583896
v 28.239058 0.224802 7.331348
v 28.152699 0.224802 7.533163
v 28.445377 1.574799 7.340205
v 28.565172 1.411593 7.060256
v 28.467943 0.406543 7.287471
v 28.480202 0.558042 7.258821
v 28.505493 0.558042 7.199719
v 28.505493 1.334636 7.199719
v 28.106373 0.684294 8.132432
v 28.216196 0.643227 7.875782
v 28.445377 1.295511 7.340205
v 28.335554 1.249448 7.596855
v 28.216196 1.249448 7.875782
v 28.251019 1.208382 7.794404
v 28.190905 1.249448 7.934885
v 28.548182 1.519065 7.099963
v 28.106373 1.208382 8.132431
v 28.071548 1.249448 8.213813
v 28.156080 1.208382 8.016268
v 28.300730 1.208382 7.678235
v 28.395668 1.208382 7.456372
v 28.360846 1.249451 7.537751
v 28.480202 1.334636 7.258821
v 28.395668 0.684294 7.456372
v 28.300730 0.684294 7.678235
v 28.335554 0.643227 7.596855
v 28.156080 0.684294 8.016268
v 28.540318 1.295509 7.118339
v 28.540318 0.597167 7.118339
v 28.528263 0.442268 7.146509
v 28.565172 0.546413 7.060256
v 28.259804 1.574800 7.773878
v 28.179443 1.574800 7.961673
v 28.179443 0.406543 7.961673
v 28.369293 1.295512 7.518005
v 28.336206 1.295512 7.595329
v 28.222370 1.295512 7.861355
v 28.189281 1.295512 7.938678
v 28.075447 1.295512 8.204702
v 28.339312 1.514731 7.588070
v 28.251753 1.514731 7.792692
v 28.181559 1.514731 7.956727
v 28.093998 1.514731 8.161347
v 28.429014 1.514732 7.378446
v 28.445377 1.514732 7.340205
vn -0.2065 0.8511 0.4826
vn 0.5378 0.8111 0.2301
vn 0.9194 -0.0000 0.3934
vn 0.9194 0.0001 0.3934
vn -0.0000 1.0000 -0.0000
vn -0.0893 -0.9739 0.2086
vn -0.2923 -0.6693 0.6831
vn -0.0000 -1.0000 -0.0000
vn 0.9194 -0.0001 0.3934
vn -0.3934 -0.0000 0.9194
vn -0.3650 0.3729 0.8531
vn -0.3853 0.2024 0.9003
vn 0.1656 0.9071 -0.3869
vn -0.9194 -0.0000 -0.3934
vn 0.1656 -0.9071 -0.3869
vn -0.1656 -0.9071 0.3869
vn 0.3934 -0.0000 -0.9194
vn -0.1656 0.9071 0.3869
vn 0.2065 0.8511 -0.4826
vn 0.0893 -0.9739 -0.2086
vn 0.2923 -0.6693 -0.6831
vn 0.3650 0.3729 -0.8531
vn 0.3853 0.2024 -0.9003
vn 0.1590 -0.9146 -0.3717
vn -0.1591 -0.9146 0.3717
vn -0.1590 0.9146 0.3717
vn 0.1590 0.9146 -0.3717
vn -0.3842 0.2154 0.8978
vn -0.1590 -0.9146 0.3717
vn 0.1591 -0.9146 -0.3717
vn 0.3842 0.2154 -0.8978
vn -0.5378 0.8111 -0.2301
vt 0.563424 0.076340
vt 0.553130 0.073518
vt 0.930572 0.423953
vt 0.921307 0.379121
vt 0.987792 0.379121
vt 0.977903 0.423953
vt 0.607372 0.029178
vt 0.597289 0.031257
vt 0.582896 0.026846
vt 0.590093 0.017196
vt 0.572813 0.024865
vt 0.576362 0.017196
vt 0.613360 0.017196
vt 0.614695 0.029178
vt 0.558897 0.019004
vt 0.565490 0.024865
vt 0.555407 0.026846
vt 0.548211 0.024277
vt 0.555407 0.062200
vt 0.548211 0.068077
vt 0.639171 0.057790
vt 0.624778 0.057790
vt 0.624778 0.031257
vt 0.639171 0.031257
vt 0.597289 0.057790
vt 0.582896 0.062201
vt 0.649254 0.029178
vt 0.691136 0.029178
vt 0.681053 0.031257
vt 0.666660 0.031257
vt 0.656577 0.029178
vt 0.565490 0.064181
vt 0.572813 0.064181
vt 0.666660 0.057790
vt 0.681053 0.057790
vt 0.691136 0.059869
vt 0.656577 0.059869
vt 0.649254 0.059869
vt 0.614695 0.059869
vt 0.706379 0.076340
vt 0.683164 0.076340
vt 0.613360 0.076340
vt 0.582896 0.076340
vt 0.659896 0.017196
vt 0.683164 0.017196
vt 0.659896 0.076340
vt 0.636628 0.076340
vt 0.636628 0.017196
vt 0.614506 0.062201
vt 0.604926 0.062201
vt 0.607372 0.059869
vt 0.613607 0.073299
vt 0.638959 0.073299
vt 0.657047 0.062201
vt 0.647466 0.062201
vt 0.659283 0.073299
vt 0.684635 0.073299
vt 0.688839 0.081258
vt 0.699816 0.081258
vt 0.706005 0.126709
vt 0.682651 0.126709
vt 0.698407 0.059869
vt 0.699536 0.062201
vt 0.690007 0.062201
vt 0.612500 0.017196
vt 0.594699 0.017196
vt 0.977903 0.434165
vt 0.930572 0.434165
vt 0.704907 0.073299
vt 0.706379 0.017196
vt 0.698407 0.029178
vt 0.653445 0.126709
vt 0.630032 0.126709
vt 0.639832 0.081258
vt 0.650869 0.081258
vt 0.600826 0.126709
vt 0.570905 0.126710
vt 0.590825 0.081258
vt 0.601862 0.081258
vt 0.587634 0.073299
vt 0.806647 0.062201
vt 0.806647 0.026846
vt 0.565447 0.081258
vt 0.565447 0.126710
vt 0.582896 0.073299
vt 0.836413 0.073518
vt 0.826118 0.076340
vt 0.729647 0.076340
vt 0.978547 0.423953
vt 0.931216 0.423953
vt 0.921327 0.379121
vt 0.987812 0.379121
vt 0.782171 0.029178
vt 0.799450 0.017196
vt 0.792254 0.031257
vt 0.813181 0.017196
vt 0.816730 0.024865
vt 0.774848 0.029178
vt 0.776183 0.017196
vt 0.830646 0.019004
vt 0.841332 0.024277
vt 0.834136 0.026846
vt 0.824053 0.024865
vt 0.841332 0.068077
vt 0.834136 0.062200
vt 0.750372 0.057790
vt 0.750372 0.031257
vt 0.764765 0.031257
vt 0.764765 0.057790
vt 0.792254 0.057790
vt 0.740289 0.029178
vt 0.732966 0.029178
vt 0.722883 0.031257
vt 0.708490 0.031257
vt 0.816730 0.064181
vt 0.824053 0.064181
vt 0.722883 0.057790
vt 0.732966 0.059869
vt 0.708490 0.057790
vt 0.740289 0.059869
vt 0.774848 0.059869
vt 0.806647 0.076340
vt 0.776183 0.076340
vt 0.729647 0.017196
vt 0.752915 0.076340
vt 0.752915 0.017196
vt 0.775037 0.062201
vt 0.782171 0.059869
vt 0.784617 0.062201
vt 0.775936 0.073299
vt 0.750584 0.073299
vt 0.732496 0.062201
vt 0.742077 0.062201
vt 0.730260 0.073299
vt 0.777043 0.017196
vt 0.794844 0.017196
vt 0.978547 0.434165
vt 0.931216 0.434165
vt 0.735211 0.126709
vt 0.737787 0.081258
vt 0.748824 0.081258
vt 0.758624 0.126709
vt 0.787830 0.126709
vt 0.786794 0.081258
vt 0.797831 0.081258
vt 0.817751 0.126710
vt 0.801909 0.073299
vt 0.823209 0.081258
vt 0.823209 0.126710
vt 0.806647 0.073299
s 1
usemtl initialShadingGroup.004
f 10/1/1 132/1/1 154/2/1 32/2/1
f 6/3/2 17/4/2 18/5/2 16/6/2
f 8/7/3 40/8/3 2/9/3 1/10/3
f 1/10/3 2/9/3 22/11/3 21/12/3
f 1/10/3 13/13/3 42/14/3 8/7/3
f 46/15/3 23/16/3 45/17/3 47/18/3
f 45/17/3 44/19/3 20/20/3 47/18/3
f 30/21/3 36/22/3 41/23/3 4/24/3
f 40/8/3 37/25/3 27/26/3 2/9/3
f 23/16/3 46/15/3 21/12/3 22/11/3
f 4/24/3 41/23/3 42/14/3 26/27/3
f 9/28/3 25/29/3 43/30/3 3/31/3
f 10/1/3 32/2/3 24/32/3 39/33/3
f 35/34/3 33/35/3 34/36/4 31/37/3
f 29/38/3 28/39/3 36/22/3 30/21/3
f 43/30/3 25/29/3 33/35/3 35/34/3
f 73/40/5 195/40/5 134/41/5 12/41/5
f 46/15/6 168/15/6 143/12/6 21/12/6
f 11/42/5 133/42/5 141/43/5 19/43/5
f 47/18/7 169/18/7 168/15/7 46/15/7
f 50/44/8 172/44/8 137/45/8 15/45/8
f 19/43/5 141/43/5 132/1/5 10/1/5
f 20/20/3 44/19/3 24/32/3 32/2/3
f 49/46/5 171/46/5 170/47/5 48/47/5
f 26/27/3 42/14/3 13/13/3 14/48/3
f 14/48/3 50/44/3 3/31/3 26/27/3
f 9/28/3 3/31/3 50/44/3 15/45/3
f 52/49/3 51/50/3 38/51/9 28/39/3
f 56/52/3 57/53/3 48/47/3 11/42/3
f 54/54/3 53/55/3 29/38/3 31/37/3
f 58/56/3 59/57/3 12/41/3 49/46/3
f 55/58/3 116/59/3 120/60/3 59/61/3
f 13/13/8 135/13/8 136/48/8 14/48/8
f 20/20/10 142/20/10 169/18/10 47/18/10
f 34/36/4 95/62/3 116/63/3 55/64/3
f 48/47/5 170/47/5 133/42/5 11/42/5
f 32/2/11 154/2/11 142/20/11 20/20/11
f 14/48/8 136/48/8 172/44/8 50/44/8
f 7/65/8 13/13/8 1/10/8 5/66/8
f 6/3/3 16/6/3 7/67/3 5/68/3
f 139/4/12 17/4/12 6/3/12 128/3/12
f 5/68/10 127/68/10 128/3/10 6/3/10
f 7/65/8 129/65/8 135/13/8 13/13/8
f 1/10/8 123/10/8 127/66/8 5/66/8
f 3/31/5 125/31/5 148/27/5 26/27/5
f 26/27/13 148/27/13 126/24/13 4/24/13
f 134/41/14 195/40/14 242/69/14 181/57/14
f 156/36/8 217/62/8 95/62/8 34/36/8
f 33/35/15 155/35/15 156/36/15 34/36/15
f 37/25/15 159/25/15 160/51/15 38/51/15
f 31/37/16 153/37/16 157/34/16 35/34/16
f 25/29/17 147/29/17 155/35/17 33/35/17
f 9/28/13 131/28/13 147/29/13 25/29/13
f 4/24/17 126/24/17 152/21/17 30/21/17
f 8/7/13 130/7/13 162/8/13 40/8/13
f 40/8/17 162/8/17 159/25/17 37/25/17
f 43/30/18 165/30/18 125/31/18 3/31/18
f 38/51/8 160/51/8 150/39/8 28/39/8
f 76/70/3 70/71/3 9/28/3 15/45/3
f 36/22/10 158/22/10 163/23/10 41/23/10
f 35/34/10 157/34/10 165/30/10 43/30/10
f 42/14/5 164/14/5 130/7/5 8/7/5
f 28/39/16 150/39/16 158/22/16 36/22/16
f 31/37/3 34/36/4 55/64/3 54/54/3
f 58/72/3 57/73/3 53/74/3 54/75/3
f 28/39/3 29/38/3 53/55/3 52/49/3
f 56/76/3 60/77/3 51/78/3 52/79/3
f 37/25/3 38/51/9 51/50/3 27/26/3
f 11/42/3 19/43/3 60/80/3 56/52/3
f 49/46/3 48/47/3 57/53/3 58/56/3
f 210/81/17 88/81/17 63/82/17 185/82/17
f 54/75/3 55/58/3 59/61/3 58/72/3
f 52/79/3 53/74/3 57/73/3 56/76/3
f 27/83/3 51/78/3 60/77/3 61/84/3
f 27/26/3 61/85/3 10/1/3 39/33/3
f 10/1/3 61/85/3 60/80/3 19/43/3
f 12/41/5 134/41/5 171/46/5 49/46/5
f 41/23/18 163/23/18 164/14/18 42/14/18
f 15/45/8 137/45/8 198/70/8 76/70/8
f 93/86/19 215/86/19 193/87/19 71/87/19
f 110/88/5 232/88/5 195/40/5 73/40/5
f 67/89/2 77/90/2 79/91/2 78/92/2
f 69/93/3 62/94/3 63/82/3 101/95/3
f 62/94/3 82/96/3 83/97/3 63/82/3
f 62/94/3 69/93/3 103/98/3 74/99/3
f 107/100/3 108/101/3 106/102/3 84/103/3
f 106/102/3 108/101/3 81/104/3 105/105/3
f 91/106/3 65/107/3 102/108/3 97/109/3
f 101/95/3 63/82/3 88/81/3 98/110/3
f 84/103/3 83/97/3 82/96/3 107/100/3
f 65/107/3 87/111/3 103/98/3 102/108/3
f 70/71/3 64/112/3 104/113/3 86/114/3
f 71/87/3 100/115/3 85/116/3 93/86/3
f 96/117/3 92/118/3 95/62/3 94/119/3
f 90/120/3 91/106/3 97/109/3 89/121/3
f 104/113/3 96/117/3 94/119/3 86/114/3
f 198/70/14 137/45/14 131/28/14 192/71/14
f 82/96/20 204/96/20 229/100/20 107/100/20
f 80/122/5 202/122/5 194/123/5 72/123/5
f 107/100/21 229/100/21 230/101/21 108/101/21
f 76/70/8 198/70/8 233/124/8 111/124/8
f 71/87/5 193/87/5 202/122/5 80/122/5
f 81/104/3 93/86/3 85/116/3 105/105/3
f 109/125/5 231/125/5 232/88/5 110/88/5
f 87/111/3 75/126/3 74/99/3 103/98/3
f 75/126/3 87/111/3 64/112/3 111/124/3
f 70/71/3 76/70/3 111/124/3 64/112/3
f 113/127/3 89/121/3 99/128/3 112/129/3
f 117/130/3 72/123/3 109/125/3 118/131/3
f 115/132/3 92/118/3 90/120/3 114/133/3
f 119/134/3 110/88/3 73/40/3 120/69/3
f 75/126/8 197/126/8 196/99/8 74/99/8
f 108/101/17 230/101/17 203/104/17 81/104/17
f 72/123/5 194/123/5 231/125/5 109/125/5
f 103/98/13 225/98/13 224/108/13 102/108/13
f 81/104/22 203/104/22 215/86/22 93/86/22
f 111/124/8 233/124/8 197/126/8 75/126/8
f 68/135/8 66/136/8 62/94/8 74/99/8
f 67/89/3 66/137/3 68/138/3 77/90/3
f 200/92/23 189/89/23 67/89/23 78/92/23
f 67/89/17 189/89/17 188/137/17 66/137/17
f 74/99/8 196/99/8 190/135/8 68/135/8
f 66/136/8 188/136/8 184/94/8 62/94/8
f 87/111/5 209/111/5 186/112/5 64/112/5
f 65/107/18 187/107/18 209/111/18 87/111/18
f 97/109/15 219/109/15 211/121/15 89/121/15
f 95/62/16 217/62/16 216/119/16 94/119/16
f 99/128/16 221/128/16 220/110/16 98/110/16
f 96/117/15 218/117/15 214/118/15 92/118/15
f 94/119/10 216/119/10 208/114/10 86/114/10
f 86/114/18 208/114/18 192/71/18 70/71/18
f 91/106/10 213/106/10 187/107/10 65/107/10
f 101/95/18 223/95/18 191/93/18 69/93/18
f 98/110/10 220/110/10 223/95/10 101/95/10
f 64/112/13 186/112/13 226/113/13 104/113/13
f 89/121/8 211/121/8 221/128/8 99/128/8
f 102/108/17 224/108/17 219/109/17 97/109/17
f 104/113/17 226/113/17 218/117/17 96/117/17
f 69/93/5 191/93/5 225/98/5 103/98/5
f 92/118/3 115/132/3 116/63/3 95/62/3
f 119/139/3 115/140/3 114/141/3 118/142/3
f 89/121/3 113/127/3 114/133/3 90/120/3
f 117/143/3 113/144/3 112/145/3 121/146/3
f 98/110/3 88/81/3 112/129/3 99/128/3
f 72/123/3 117/130/3 121/147/3 80/122/3
f 110/88/3 119/134/3 118/131/3 109/125/3
f 115/140/3 119/139/3 120/60/3 116/59/3
f 113/144/3 117/143/3 118/142/3 114/141/3
f 88/148/3 122/149/3 121/146/3 112/145/3
f 88/81/3 100/115/3 71/87/3 122/150/3
f 71/87/3 80/122/3 121/147/3 122/150/3
f 17/4/8 139/4/8 140/5/8 18/5/8
f 149/26/10 124/9/10 2/9/10 27/26/10
f 222/115/24 100/115/24 88/81/24 210/81/24
f 222/115/8 207/116/8 85/116/8 100/115/8
f 207/116/25 227/105/25 105/105/25 85/116/25
f 227/105/10 228/102/10 106/102/10 105/105/10
f 206/103/26 84/103/26 106/102/26 228/102/26
f 206/103/5 205/97/5 83/97/5 84/103/5
f 185/82/27 63/82/27 83/97/27 205/97/27
f 213/106/16 91/106/16 90/120/16 212/120/16
f 199/90/10 77/90/10 68/138/10 190/138/10
f 199/90/28 201/91/28 79/91/28 77/90/28
f 62/94/8 184/94/8 204/96/8 82/96/8
f 92/118/8 214/118/8 212/120/8 90/120/8
f 161/33/29 149/26/29 27/26/29 39/33/29
f 161/33/8 39/33/8 24/32/8 146/32/8
f 146/32/30 24/32/30 44/19/30 166/19/30
f 166/19/17 44/19/17 45/17/17 167/17/17
f 145/16/27 167/17/27 45/17/27 23/16/27
f 145/16/5 23/16/5 22/11/5 144/11/5
f 124/9/26 144/11/26 22/11/26 2/9/26
f 152/21/15 151/38/15 29/38/15 30/21/15
f 138/6/17 129/67/17 7/67/17 16/6/17
f 138/6/31 16/6/31 18/5/31 140/5/31
f 21/12/8 143/12/8 123/10/8 1/10/8
f 29/38/8 151/38/8 153/37/8 31/37/8
f 128/3/32 138/6/32 140/5/32 139/4/32
f 130/7/14 123/10/14 124/9/14 162/8/14
f 123/10/14 143/12/14 144/11/14 124/9/14
f 123/10/14 130/7/14 164/14/14 135/13/14
f 168/15/14 169/18/14 167/17/14 145/16/14
f 167/17/14 169/18/14 142/20/14 166/19/14
f 152/21/14 126/24/14 163/23/14 158/22/14
f 162/8/14 124/9/14 149/26/14 159/25/14
f 145/16/14 144/11/14 143/12/14 168/15/14
f 126/24/14 148/27/14 164/14/14 163/23/14
f 131/28/14 125/31/14 165/30/14 147/29/14
f 132/1/14 161/33/14 146/32/14 154/2/14
f 157/34/14 153/37/14 156/36/14 155/35/14
f 151/38/14 152/21/14 158/22/14 150/39/14
f 165/30/14 157/34/14 155/35/14 147/29/14
f 142/20/14 154/2/14 146/32/14 166/19/14
f 148/27/14 136/48/14 135/13/14 164/14/14
f 136/48/14 148/27/14 125/31/14 172/44/14
f 131/28/14 137/45/14 172/44/14 125/31/14
f 174/49/14 150/39/14 160/51/14 173/50/14
f 178/52/14 133/42/14 170/47/14 179/53/14
f 176/54/14 153/37/14 151/38/14 175/55/14
f 180/56/14 171/46/14 134/41/14 181/57/14
f 181/61/14 242/60/14 238/59/14 177/58/14
f 177/64/14 238/63/14 217/62/14 156/36/14
f 129/65/8 127/66/8 123/10/8 135/13/8
f 128/3/14 127/68/14 129/67/14 138/6/14
f 153/37/14 176/54/14 177/64/14 156/36/14
f 180/72/14 176/75/14 175/74/14 179/73/14
f 150/39/14 174/49/14 175/55/14 151/38/14
f 178/76/14 174/79/14 173/78/14 182/77/14
f 159/25/14 149/26/14 173/50/14 160/51/14
f 133/42/14 178/52/14 182/80/14 141/43/14
f 171/46/14 180/56/14 179/53/14 170/47/14
f 176/75/14 180/72/14 181/61/14 177/58/14
f 174/79/14 178/76/14 179/73/14 175/74/14
f 149/83/14 183/84/14 182/77/14 173/78/14
f 149/26/14 161/33/14 132/1/14 183/85/14
f 132/1/14 141/43/14 182/80/14 183/85/14
f 131/28/5 9/28/5 70/71/5 192/71/5
f 189/89/32 200/92/32 201/91/32 199/90/32
f 191/93/14 223/95/14 185/82/14 184/94/14
f 184/94/14 185/82/14 205/97/14 204/96/14
f 184/94/14 196/99/14 225/98/14 191/93/14
f 229/100/14 206/103/14 228/102/14 230/101/14
f 228/102/14 227/105/14 203/104/14 230/101/14
f 213/106/14 219/109/14 224/108/14 187/107/14
f 223/95/14 220/110/14 210/81/14 185/82/14
f 206/103/14 229/100/14 204/96/14 205/97/14
f 187/107/14 224/108/14 225/98/14 209/111/14
f 192/71/14 208/114/14 226/113/14 186/112/14
f 193/87/14 215/86/14 207/116/14 222/115/14
f 218/117/14 216/119/14 217/62/14 214/118/14
f 212/120/14 211/121/14 219/109/14 213/106/14
f 226/113/14 208/114/14 216/119/14 218/117/14
f 203/104/14 227/105/14 207/116/14 215/86/14
f 209/111/14 225/98/14 196/99/14 197/126/14
f 197/126/14 233/124/14 186/112/14 209/111/14
f 192/71/14 186/112/14 233/124/14 198/70/14
f 235/127/14 234/129/14 221/128/14 211/121/14
f 239/130/14 240/131/14 231/125/14 194/123/14
f 237/132/14 236/133/14 212/120/14 214/118/14
f 241/134/14 242/69/14 195/40/14 232/88/14
f 190/135/8 196/99/8 184/94/8 188/136/8
f 189/89/14 199/90/14 190/138/14 188/137/14
f 214/118/14 217/62/14 238/63/14 237/132/14
f 241/139/14 240/142/14 236/141/14 237/140/14
f 211/121/14 212/120/14 236/133/14 235/127/14
f 239/143/14 243/146/14 234/145/14 235/144/14
f 220/110/14 221/128/14 234/129/14 210/81/14
f 194/123/14 202/122/14 243/147/14 239/130/14
f 232/88/14 231/125/14 240/131/14 241/134/14
f 237/140/14 238/59/14 242/60/14 241/139/14
f 235/144/14 236/141/14 240/142/14 239/143/14
f 210/148/14 234/145/14 243/146/14 244/149/14
f 210/81/14 244/150/14 193/87/14 222/115/14
f 193/87/14 244/150/14 243/147/14 202/122/14
f 59/57/3 120/69/3 73/40/3 12/41/3
f 79/91/8 201/91/8 200/92/8 78/92/8
