# Blender 5.1.0
# www.blender.org
mtllib barriere55_055.mtl
o barriere55.055
v -4.060954 0.406543 14.378695
v -4.053933 0.597167 14.315908
v -4.125821 0.643227 14.958743
v -4.108839 0.684294 14.806887
v -4.053429 0.406543 14.420233
v -4.053429 0.372826 14.420233
v -4.070797 0.406543 14.575536
v -4.077813 0.643227 14.529452
v -4.159539 0.643227 15.260257
v -4.034935 1.574803 14.146028
v -4.083656 1.574800 14.581697
v -4.151761 1.574800 15.190701
v -4.083656 0.406543 14.581697
v -4.106358 0.406543 14.784698
v -4.151761 0.406543 15.190701
v -4.070797 0.372826 14.575536
v -4.254019 0.224802 14.367016
v -4.278415 0.224802 14.585172
v -4.053933 1.574800 14.315910
v -4.020091 1.411594 14.013294
v -4.047558 0.406543 14.258906
v -4.044095 0.558042 14.227939
v -4.036950 0.558042 14.164050
v -4.036950 1.334637 14.164050
v -4.149702 0.684294 15.172286
v -4.118676 0.643227 14.894854
v -4.053933 1.295512 14.315910
v -4.084958 1.249448 14.593343
v -4.118676 1.249448 14.894854
v -4.108839 1.208382 14.806887
v -4.125821 1.249448 14.958743
v -4.024891 1.519066 14.056216
v -4.149702 1.208382 15.172286
v -4.159539 1.249448 15.260257
v -4.135659 1.208382 15.046715
v -4.094796 1.208382 14.681311
v -4.067976 1.208382 14.441483
v -4.077813 1.249451 14.529452
v -4.044095 1.334637 14.227939
v -4.067976 0.684294 14.441483
v -4.094796 0.684294 14.681311
v -4.084958 0.643227 14.593343
v -4.135659 0.684294 15.046715
v -4.027113 1.295509 14.076080
v -4.027113 0.597167 14.076080
v -4.030518 0.442268 14.106531
v -4.020091 0.546413 14.013294
v -4.106358 1.574800 14.784698
v -4.129059 1.574800 14.987700
v -4.129059 0.406543 14.987700
v -4.075427 1.295512 14.508109
v -4.084774 1.295512 14.591693
v -4.116932 1.295512 14.879258
v -4.126280 1.295512 14.962843
v -4.158438 1.295512 15.250408
v -4.083896 1.514731 14.583847
v -4.108632 1.514731 14.805036
v -4.128461 1.514731 14.982353
v -4.153197 1.514731 15.203543
v -4.058556 1.514732 14.357247
v -4.053933 1.514732 14.315910
v -4.265219 0.406543 16.205254
v -4.272240 0.597167 16.268042
v -4.200352 0.643227 15.625207
v -4.217334 0.684294 15.777064
v -4.248705 0.406543 16.166407
v -4.248705 0.372826 16.166407
v -4.231337 0.406543 16.011105
v -4.248360 0.643227 16.054499
v -4.166634 0.643227 15.323695
v -4.291238 1.574803 16.437923
v -4.242517 1.574800 16.002253
v -4.174412 1.574800 15.393250
v -4.242517 0.406543 16.002253
v -4.219815 0.406543 15.799253
v -4.174412 0.406543 15.393250
v -4.231337 0.372826 16.011105
v -4.456094 0.224802 16.173998
v -4.431698 0.224802 15.955842
v -4.272240 1.574800 16.268040
v -4.306082 1.411594 16.570656
v -4.278615 0.406543 16.325045
v -4.282078 0.558042 16.356012
v -4.289223 0.558042 16.419901
v -4.289223 1.334637 16.419901
v -4.176471 0.684294 15.411665
v -4.207497 0.643227 15.689096
v -4.272240 1.295512 16.268040
v -4.241215 1.249448 15.990609
v -4.207497 1.249448 15.689096
v -4.217334 1.208382 15.777064
v -4.200352 1.249448 15.625207
v -4.301282 1.519066 16.527735
v -4.176471 1.208382 15.411665
v -4.166634 1.249448 15.323695
v -4.190514 1.208382 15.537236
v -4.231377 1.208382 15.902640
v -4.258197 1.208382 16.142467
v -4.248360 1.249451 16.054499
v -4.282078 1.334637 16.356012
v -4.258197 0.684294 16.142467
v -4.231377 0.684294 15.902640
v -4.241215 0.643227 15.990609
v -4.190514 0.684294 15.537236
v -4.299060 1.295509 16.507870
v -4.299060 0.597167 16.507870
v -4.295655 0.442268 16.477419
v -4.306082 0.546413 16.570656
v -4.219815 1.574800 15.799253
v -4.197114 1.574800 15.596251
v -4.197114 0.406543 15.596251
v -4.250746 1.295512 16.075842
v -4.241399 1.295512 15.992258
v -4.209241 1.295512 15.704693
v -4.199893 1.295512 15.621108
v -4.167735 1.295512 15.333544
v -4.242277 1.514731 16.000103
v -4.217541 1.514731 15.778914
v -4.197712 1.514731 15.601597
v -4.172976 1.514731 15.380408
v -4.267617 1.514732 16.226702
v -4.272240 1.514732 16.268040
v -3.971075 0.406543 14.388747
v -3.964054 0.597167 14.325960
v -4.035942 0.643227 14.968796
v -4.018960 0.684294 14.816937
v -3.987590 0.406543 14.427595
v -3.987590 0.372826 14.427595
v -4.004957 0.406543 14.582897
v -3.987935 0.643227 14.539503
v -4.069660 0.643227 15.270307
v -3.945056 1.574803 14.156079
v -3.993777 1.574800 14.591748
v -4.061882 1.574800 15.200752
v -3.993777 0.406543 14.591748
v -4.016479 0.406543 14.794749
v -4.061882 0.406543 15.200752
v -4.004957 0.372826 14.582897
v -3.780200 0.224802 14.420004
v -3.804596 0.224802 14.638160
v -3.964054 1.574800 14.325961
v -3.930212 1.411594 14.023346
v -3.957679 0.406543 14.268958
v -3.954216 0.558042 14.237989
v -3.947072 0.558042 14.174103
v -3.947071 1.334637 14.174103
v -4.059823 0.684294 15.182338
v -4.028797 0.643227 14.904905
v -3.964054 1.295512 14.325961
v -3.995079 1.249448 14.603393
v -4.028797 1.249448 14.904905
v -4.018960 1.208382 14.816937
v -4.035942 1.249448 14.968796
v -3.935012 1.519066 14.066267
v -4.059823 1.208382 15.182338
v -4.069660 1.249448 15.270307
v -4.045780 1.208382 15.056766
v -4.004917 1.208382 14.691361
v -3.978097 1.208382 14.451534
v -3.987934 1.249451 14.539503
v -3.954216 1.334637 14.237989
v -3.978097 0.684294 14.451534
v -4.004917 0.684294 14.691361
v -3.995079 0.643227 14.603393
v -4.045780 0.684294 15.056766
v -3.937234 1.295509 14.086132
v -3.937234 0.597167 14.086132
v -3.940639 0.442268 14.116582
v -3.930212 0.546413 14.023346
v -4.016479 1.574800 14.794749
v -4.039180 1.574800 14.997750
v -4.039181 0.406543 14.997750
v -3.985548 1.295512 14.518160
v -3.994895 1.295512 14.601744
v -4.027053 1.295512 14.889309
v -4.036401 1.295512 14.972894
v -4.068559 1.295512 15.260459
v -3.994017 1.514731 14.593899
v -4.018753 1.514731 14.815087
v -4.038582 1.514731 14.992405
v -4.063318 1.514731 15.213593
v -3.968677 1.514732 14.367299
v -3.964054 1.514732 14.325961
v -4.175340 0.406543 16.215305
v -4.182362 0.597167 16.278093
v -4.110473 0.643227 15.635259
v -4.127455 0.684294 15.787115
v -4.182865 0.406543 16.173769
v -4.182865 0.372826 16.173769
v -4.165498 0.406543 16.018467
v -4.158481 0.643227 16.064548
v -4.076755 0.643227 15.333746
v -4.201359 1.574803 16.447973
v -4.152638 1.574800 16.012304
v -4.084533 1.574800 15.403301
v -4.152638 0.406543 16.012304
v -4.129937 0.406543 15.809303
v -4.084533 0.406543 15.403301
v -4.165498 0.372826 16.018467
v -3.982275 0.224802 16.226984
v -3.957879 0.224802 16.008829
v -4.182361 1.574800 16.278091
v -4.216203 1.411594 16.580708
v -4.188736 0.406543 16.335094
v -4.192199 0.558042 16.366062
v -4.199344 0.558042 16.429951
v -4.199344 1.334637 16.429951
v -4.086593 0.684294 15.421716
v -4.117618 0.643227 15.699148
v -4.182361 1.295512 16.278091
v -4.151336 1.249448 16.000660
v -4.117618 1.249448 15.699148
v -4.127455 1.208382 15.787115
v -4.110473 1.249448 15.635259
v -4.211403 1.519066 16.537786
v -4.086592 1.208382 15.421716
v -4.076755 1.249448 15.333746
v -4.100635 1.208382 15.547287
v -4.141499 1.208382 15.912691
v -4.168318 1.208382 16.152517
v -4.158481 1.249451 16.064548
v -4.192199 1.334637 16.366062
v -4.168318 0.684294 16.152517
v -4.141499 0.684294 15.912691
v -4.151336 0.643227 16.000660
v -4.100635 0.684294 15.547287
v -4.209182 1.295509 16.517921
v -4.209182 0.597167 16.517921
v -4.205776 0.442268 16.487471
v -4.216203 0.546413 16.580708
v -4.129936 1.574800 15.809303
v -4.107235 1.574800 15.606302
v -4.107235 0.406543 15.606302
v -4.160868 1.295512 16.085892
v -4.151520 1.295512 16.002308
v -4.119362 1.295512 15.714744
v -4.110015 1.295512 15.631160
v -4.077856 1.295512 15.343594
v -4.152398 1.514731 16.010155
v -4.127662 1.514731 15.788966
v -4.107833 1.514731 15.611649
v -4.083097 1.514731 15.390459
v -4.177738 1.514732 16.236753
v -4.182361 1.514732 16.278091
vn 0.0583 0.8511 -0.5217
vn -0.5813 0.8111 -0.0650
vn -0.9938 -0.0000 -0.1111
vn -0.0000 1.0000 -0.0000
vn 0.0252 -0.9739 -0.2255
vn 0.0826 -0.6693 -0.7384
vn -0.0000 -1.0000 -0.0000
vn 0.1111 -0.0000 -0.9938
vn 0.1031 0.3729 -0.9221
vn 0.1088 0.2024 -0.9732
vn -0.0468 0.9071 0.4183
vn 0.9938 -0.0000 0.1111
vn -0.0468 -0.9071 0.4182
vn -0.0468 -0.9071 0.4183
vn 0.0468 -0.9071 -0.4182
vn -0.1111 -0.0000 0.9938
vn -0.0468 0.9071 0.4182
vn 0.0468 0.9071 -0.4182
vn 0.0468 0.9071 -0.4183
vn -0.0583 0.8511 0.5217
vn -0.0252 -0.9739 0.2255
vn -0.0826 -0.6693 0.7384
vn -0.1031 0.3729 0.9221
vn -0.1088 0.2024 0.9732
vn 0.0468 -0.9071 -0.4183
vn -0.0449 -0.9146 0.4018
vn 0.0449 -0.9146 -0.4018
vn 0.0449 0.9146 -0.4018
vn -0.0449 0.9146 0.4018
vn 0.1085 0.2154 -0.9705
vn -0.1112 -0.0000 0.9938
vn -0.1085 0.2154 0.9705
vn 0.5813 0.8111 0.0650
vt 0.563424 0.076340
vt 0.553130 0.073518
vt 0.930572 0.423953
vt 0.921307 0.379121
vt 0.987792 0.379121
vt 0.977903 0.423953
vt 0.607372 0.029178
vt 0.597289 0.031257
vt 0.582896 0.026846
vt 0.590093 0.017196
vt 0.572813 0.024865
vt 0.576362 0.017196
vt 0.613360 0.017196
vt 0.614695 0.029178
vt 0.558897 0.019004
vt 0.565490 0.024865
vt 0.555407 0.026846
vt 0.548211 0.024277
vt 0.555407 0.062200
vt 0.548211 0.068077
vt 0.639171 0.057790
vt 0.624778 0.057790
vt 0.624778 0.031257
vt 0.639171 0.031257
vt 0.597289 0.057790
vt 0.582896 0.062201
vt 0.649254 0.029178
vt 0.691136 0.029178
vt 0.681053 0.031257
vt 0.666660 0.031257
vt 0.656577 0.029178
vt 0.565490 0.064181
vt 0.572813 0.064181
vt 0.666660 0.057790
vt 0.681053 0.057790
vt 0.691136 0.059869
vt 0.656577 0.059869
vt 0.649254 0.059869
vt 0.614695 0.059869
vt 0.706379 0.076340
vt 0.683164 0.076340
vt 0.613360 0.076340
vt 0.582896 0.076340
vt 0.659896 0.017196
vt 0.683164 0.017196
vt 0.659896 0.076340
vt 0.636628 0.076340
vt 0.636628 0.017196
vt 0.614506 0.062201
vt 0.604926 0.062201
vt 0.607372 0.059869
vt 0.613607 0.073299
vt 0.638959 0.073299
vt 0.657047 0.062201
vt 0.647466 0.062201
vt 0.659283 0.073299
vt 0.684635 0.073299
vt 0.688839 0.081258
vt 0.699816 0.081258
vt 0.706005 0.126709
vt 0.682651 0.126709
vt 0.698407 0.059869
vt 0.699536 0.062201
vt 0.690007 0.062201
vt 0.612500 0.017196
vt 0.594699 0.017196
vt 0.977903 0.434165
vt 0.930572 0.434165
vt 0.704907 0.073299
vt 0.706379 0.017196
vt 0.698407 0.029178
vt 0.653445 0.126709
vt 0.630032 0.126709
vt 0.639832 0.081258
vt 0.650869 0.081258
vt 0.600826 0.126709
vt 0.570905 0.126710
vt 0.590825 0.081258
vt 0.601862 0.081258
vt 0.587634 0.073299
vt 0.806647 0.062201
vt 0.806647 0.026846
vt 0.565447 0.081258
vt 0.565447 0.126710
vt 0.582896 0.073299
vt 0.836413 0.073518
vt 0.826118 0.076340
vt 0.729647 0.076340
vt 0.978547 0.423953
vt 0.931216 0.423953
vt 0.921327 0.379121
vt 0.987812 0.379121
vt 0.782171 0.029178
vt 0.799450 0.017196
vt 0.792254 0.031257
vt 0.813181 0.017196
vt 0.816730 0.024865
vt 0.774848 0.029178
vt 0.776183 0.017196
vt 0.830646 0.019004
vt 0.841332 0.024277
vt 0.834136 0.026846
vt 0.824053 0.024865
vt 0.841332 0.068077
vt 0.834136 0.062200
vt 0.750372 0.057790
vt 0.750372 0.031257
vt 0.764765 0.031257
vt 0.764765 0.057790
vt 0.792254 0.057790
vt 0.740289 0.029178
vt 0.732966 0.029178
vt 0.722883 0.031257
vt 0.708490 0.031257
vt 0.816730 0.064181
vt 0.824053 0.064181
vt 0.722883 0.057790
vt 0.732966 0.059869
vt 0.708490 0.057790
vt 0.740289 0.059869
vt 0.774848 0.059869
vt 0.806647 0.076340
vt 0.776183 0.076340
vt 0.729647 0.017196
vt 0.752915 0.076340
vt 0.752915 0.017196
vt 0.775037 0.062201
vt 0.782171 0.059869
vt 0.784617 0.062201
vt 0.775936 0.073299
vt 0.750584 0.073299
vt 0.732496 0.062201
vt 0.742077 0.062201
vt 0.730260 0.073299
vt 0.777043 0.017196
vt 0.794844 0.017196
vt 0.978547 0.434165
vt 0.931216 0.434165
vt 0.735211 0.126709
vt 0.737787 0.081258
vt 0.748824 0.081258
vt 0.758624 0.126709
vt 0.787830 0.126709
vt 0.786794 0.081258
vt 0.797831 0.081258
vt 0.817751 0.126710
vt 0.801909 0.073299
vt 0.823209 0.081258
vt 0.823209 0.126710
vt 0.806647 0.073299
s 1
usemtl initialShadingGroup.004
f 10/1/1 132/1/1 154/2/1 32/2/1
f 6/3/2 17/4/2 18/5/2 16/6/2
f 8/7/3 40/8/3 2/9/3 1/10/3
f 1/10/3 2/9/3 22/11/3 21/12/3
f 1/10/3 13/13/3 42/14/3 8/7/3
f 46/15/3 23/16/3 45/17/3 47/18/3
f 45/17/3 44/19/3 20/20/3 47/18/3
f 30/21/3 36/22/3 41/23/3 4/24/3
f 40/8/3 37/25/3 27/26/3 2/9/3
f 23/16/3 46/15/3 21/12/3 22/11/3
f 4/24/3 41/23/3 42/14/3 26/27/3
f 9/28/3 25/29/3 43/30/3 3/31/3
f 10/1/3 32/2/3 24/32/3 39/33/3
f 35/34/3 33/35/3 34/36/3 31/37/3
f 29/38/3 28/39/3 36/22/3 30/21/3
f 43/30/3 25/29/3 33/35/3 35/34/3
f 73/40/4 195/40/4 134/41/4 12/41/4
f 46/15/5 168/15/5 143/12/5 21/12/5
f 11/42/4 133/42/4 141/43/4 19/43/4
f 47/18/6 169/18/6 168/15/6 46/15/6
f 50/44/7 172/44/7 137/45/7 15/45/7
f 19/43/4 141/43/4 132/1/4 10/1/4
f 20/20/3 44/19/3 24/32/3 32/2/3
f 49/46/4 171/46/4 170/47/4 48/47/4
f 26/27/3 42/14/3 13/13/3 14/48/3
f 14/48/3 50/44/3 3/31/3 26/27/3
f 9/28/3 3/31/3 50/44/3 15/45/3
f 52/49/3 51/50/3 38/51/3 28/39/3
f 56/52/3 57/53/3 48/47/3 11/42/3
f 54/54/3 53/55/3 29/38/3 31/37/3
f 58/56/3 59/57/3 12/41/3 49/46/3
f 55/58/3 116/59/3 120/60/3 59/61/3
f 13/13/7 135/13/7 136/48/7 14/48/7
f 20/20/8 142/20/8 169/18/8 47/18/8
f 34/36/3 95/62/3 116/63/3 55/64/3
f 48/47/4 170/47/4 133/42/4 11/42/4
f 32/2/9 154/2/9 142/20/9 20/20/9
f 14/48/7 136/48/7 172/44/7 50/44/7
f 7/65/7 13/13/7 1/10/7 5/66/7
f 6/3/3 16/6/3 7/67/3 5/68/3
f 139/4/10 17/4/10 6/3/10 128/3/10
f 5/68/8 127/68/8 128/3/8 6/3/8
f 7/65/7 129/65/7 135/13/7 13/13/7
f 1/10/7 123/10/7 127/66/7 5/66/7
f 3/31/4 125/31/4 148/27/4 26/27/4
f 26/27/11 148/27/11 126/24/11 4/24/11
f 134/41/12 195/40/12 242/69/12 181/57/12
f 156/36/7 217/62/7 95/62/7 34/36/7
f 33/35/13 155/35/13 156/36/13 34/36/13
f 37/25/14 159/25/14 160/51/14 38/51/14
f 31/37/15 153/37/15 157/34/15 35/34/15
f 25/29/16 147/29/16 155/35/16 33/35/16
f 9/28/17 131/28/17 147/29/17 25/29/17
f 4/24/16 126/24/16 152/21/16 30/21/16
f 8/7/17 130/7/17 162/8/17 40/8/17
f 40/8/16 162/8/16 159/25/16 37/25/16
f 43/30/18 165/30/18 125/31/18 3/31/18
f 38/51/7 160/51/7 150/39/7 28/39/7
f 76/70/3 70/71/3 9/28/3 15/45/3
f 36/22/8 158/22/8 163/23/8 41/23/8
f 35/34/8 157/34/8 165/30/8 43/30/8
f 42/14/4 164/14/4 130/7/4 8/7/4
f 28/39/15 150/39/15 158/22/15 36/22/15
f 31/37/3 34/36/3 55/64/3 54/54/3
f 58/72/3 57/73/3 53/74/3 54/75/3
f 28/39/3 29/38/3 53/55/3 52/49/3
f 56/76/3 60/77/3 51/78/3 52/79/3
f 37/25/3 38/51/3 51/50/3 27/26/3
f 11/42/3 19/43/3 60/80/3 56/52/3
f 49/46/3 48/47/3 57/53/3 58/56/3
f 210/81/16 88/81/16 63/82/16 185/82/16
f 54/75/3 55/58/3 59/61/3 58/72/3
f 52/79/3 53/74/3 57/73/3 56/76/3
f 27/83/3 51/78/3 60/77/3 61/84/3
f 27/26/3 61/85/3 10/1/3 39/33/3
f 10/1/3 61/85/3 60/80/3 19/43/3
f 12/41/4 134/41/4 171/46/4 49/46/4
f 41/23/19 163/23/19 164/14/19 42/14/19
f 15/45/7 137/45/7 198/70/7 76/70/7
f 93/86/20 215/86/20 193/87/20 71/87/20
f 110/88/4 232/88/4 195/40/4 73/40/4
f 67/89/2 77/90/2 79/91/2 78/92/2
f 69/93/3 62/94/3 63/82/3 101/95/3
f 62/94/3 82/96/3 83/97/3 63/82/3
f 62/94/3 69/93/3 103/98/3 74/99/3
f 107/100/3 108/101/3 106/102/3 84/103/3
f 106/102/3 108/101/3 81/104/3 105/105/3
f 91/106/3 65/107/3 102/108/3 97/109/3
f 101/95/3 63/82/3 88/81/3 98/110/3
f 84/103/3 83/97/3 82/96/3 107/100/3
f 65/107/3 87/111/3 103/98/3 102/108/3
f 70/71/3 64/112/3 104/113/3 86/114/3
f 71/87/3 100/115/3 85/116/3 93/86/3
f 96/117/3 92/118/3 95/62/3 94/119/3
f 90/120/3 91/106/3 97/109/3 89/121/3
f 104/113/3 96/117/3 94/119/3 86/114/3
f 198/70/12 137/45/12 131/28/12 192/71/12
f 82/96/21 204/96/21 229/100/21 107/100/21
f 80/122/4 202/122/4 194/123/4 72/123/4
f 107/100/22 229/100/22 230/101/22 108/101/22
f 76/70/7 198/70/7 233/124/7 111/124/7
f 71/87/4 193/87/4 202/122/4 80/122/4
f 81/104/3 93/86/3 85/116/3 105/105/3
f 109/125/4 231/125/4 232/88/4 110/88/4
f 87/111/3 75/126/3 74/99/3 103/98/3
f 75/126/3 87/111/3 64/112/3 111/124/3
f 70/71/3 76/70/3 111/124/3 64/112/3
f 113/127/3 89/121/3 99/128/3 112/129/3
f 117/130/3 72/123/3 109/125/3 118/131/3
f 115/132/3 92/118/3 90/120/3 114/133/3
f 119/134/3 110/88/3 73/40/3 120/69/3
f 75/126/7 197/126/7 196/99/7 74/99/7
f 108/101/16 230/101/16 203/104/16 81/104/16
f 72/123/4 194/123/4 231/125/4 109/125/4
f 103/98/17 225/98/17 224/108/17 102/108/17
f 81/104/23 203/104/23 215/86/23 93/86/23
f 111/124/7 233/124/7 197/126/7 75/126/7
f 68/135/7 66/136/7 62/94/7 74/99/7
f 67/89/3 66/137/3 68/138/3 77/90/3
f 200/92/24 189/89/24 67/89/24 78/92/24
f 67/89/16 189/89/16 188/137/16 66/137/16
f 74/99/7 196/99/7 190/135/7 68/135/7
f 66/136/7 188/136/7 184/94/7 62/94/7
f 87/111/4 209/111/4 186/112/4 64/112/4
f 65/107/19 187/107/19 209/111/19 87/111/19
f 97/109/13 219/109/13 211/121/13 89/121/13
f 95/62/15 217/62/15 216/119/15 94/119/15
f 99/128/25 221/128/25 220/110/25 98/110/25
f 96/117/13 218/117/13 214/118/13 92/118/13
f 94/119/8 216/119/8 208/114/8 86/114/8
f 86/114/18 208/114/18 192/71/18 70/71/18
f 91/106/8 213/106/8 187/107/8 65/107/8
f 101/95/18 223/95/18 191/93/18 69/93/18
f 98/110/8 220/110/8 223/95/8 101/95/8
f 64/112/17 186/112/17 226/113/17 104/113/17
f 89/121/7 211/121/7 221/128/7 99/128/7
f 102/108/16 224/108/16 219/109/16 97/109/16
f 104/113/16 226/113/16 218/117/16 96/117/16
f 69/93/4 191/93/4 225/98/4 103/98/4
f 92/118/3 115/132/3 116/63/3 95/62/3
f 119/139/3 115/140/3 114/141/3 118/142/3
f 89/121/3 113/127/3 114/133/3 90/120/3
f 117/143/3 113/144/3 112/145/3 121/146/3
f 98/110/3 88/81/3 112/129/3 99/128/3
f 72/123/3 117/130/3 121/147/3 80/122/3
f 110/88/3 119/134/3 118/131/3 109/125/3
f 115/140/3 119/139/3 120/60/3 116/59/3
f 113/144/3 117/143/3 118/142/3 114/141/3
f 88/148/3 122/149/3 121/146/3 112/145/3
f 88/81/3 100/115/3 71/87/3 122/150/3
f 71/87/3 80/122/3 121/147/3 122/150/3
f 17/4/7 139/4/7 140/5/7 18/5/7
f 149/26/8 124/9/8 2/9/8 27/26/8
f 222/115/26 100/115/26 88/81/26 210/81/26
f 222/115/7 207/116/7 85/116/7 100/115/7
f 207/116/27 227/105/27 105/105/27 85/116/27
f 227/105/8 228/102/8 106/102/8 105/105/8
f 206/103/28 84/103/28 106/102/28 228/102/28
f 206/103/4 205/97/4 83/97/4 84/103/4
f 185/82/29 63/82/29 83/97/29 205/97/29
f 213/106/15 91/106/15 90/120/15 212/120/15
f 199/90/8 77/90/8 68/138/8 190/138/8
f 199/90/30 201/91/30 79/91/30 77/90/30
f 62/94/7 184/94/7 204/96/7 82/96/7
f 92/118/7 214/118/7 212/120/7 90/120/7
f 161/33/27 149/26/27 27/26/27 39/33/27
f 161/33/7 39/33/7 24/32/7 146/32/7
f 146/32/26 24/32/26 44/19/26 166/19/26
f 166/19/31 44/19/31 45/17/31 167/17/31
f 145/16/29 167/17/29 45/17/29 23/16/29
f 145/16/4 23/16/4 22/11/4 144/11/4
f 124/9/28 144/11/28 22/11/28 2/9/28
f 152/21/13 151/38/13 29/38/13 30/21/13
f 138/6/16 129/67/16 7/67/16 16/6/16
f 138/6/32 16/6/32 18/5/32 140/5/32
f 21/12/7 143/12/7 123/10/7 1/10/7
f 29/38/7 151/38/7 153/37/7 31/37/7
f 128/3/33 138/6/33 140/5/33 139/4/33
f 130/7/12 123/10/12 124/9/12 162/8/12
f 123/10/12 143/12/12 144/11/12 124/9/12
f 123/10/12 130/7/12 164/14/12 135/13/12
f 168/15/12 169/18/12 167/17/12 145/16/12
f 167/17/12 169/18/12 142/20/12 166/19/12
f 152/21/12 126/24/12 163/23/12 158/22/12
f 162/8/12 124/9/12 149/26/12 159/25/12
f 145/16/12 144/11/12 143/12/12 168/15/12
f 126/24/12 148/27/12 164/14/12 163/23/12
f 131/28/12 125/31/12 165/30/12 147/29/12
f 132/1/12 161/33/12 146/32/12 154/2/12
f 157/34/12 153/37/12 156/36/12 155/35/12
f 151/38/12 152/21/12 158/22/12 150/39/12
f 165/30/12 157/34/12 155/35/12 147/29/12
f 142/20/12 154/2/12 146/32/12 166/19/12
f 148/27/12 136/48/12 135/13/12 164/14/12
f 136/48/12 148/27/12 125/31/12 172/44/12
f 131/28/12 137/45/12 172/44/12 125/31/12
f 174/49/12 150/39/12 160/51/12 173/50/12
f 178/52/12 133/42/12 170/47/12 179/53/12
f 176/54/12 153/37/12 151/38/12 175/55/12
f 180/56/12 171/46/12 134/41/12 181/57/12
f 181/61/12 242/60/12 238/59/12 177/58/12
f 177/64/12 238/63/12 217/62/12 156/36/12
f 129/65/7 127/66/7 123/10/7 135/13/7
f 128/3/12 127/68/12 129/67/12 138/6/12
f 153/37/12 176/54/12 177/64/12 156/36/12
f 180/72/12 176/75/12 175/74/12 179/73/12
f 150/39/12 174/49/12 175/55/12 151/38/12
f 178/76/12 174/79/12 173/78/12 182/77/12
f 159/25/12 149/26/12 173/50/12 160/51/12
f 133/42/12 178/52/12 182/80/12 141/43/12
f 171/46/12 180/56/12 179/53/12 170/47/12
f 176/75/12 180/72/12 181/61/12 177/58/12
f 174/79/12 178/76/12 179/73/12 175/74/12
f 149/83/12 183/84/12 182/77/12 173/78/12
f 149/26/12 161/33/12 132/1/12 183/85/12
f 132/1/12 141/43/12 182/80/12 183/85/12
f 131/28/4 9/28/4 70/71/4 192/71/4
f 189/89/33 200/92/33 201/91/33 199/90/33
f 191/93/12 223/95/12 185/82/12 184/94/12
f 184/94/12 185/82/12 205/97/12 204/96/12
f 184/94/12 196/99/12 225/98/12 191/93/12
f 229/100/12 206/103/12 228/102/12 230/101/12
f 228/102/12 227/105/12 203/104/12 230/101/12
f 213/106/12 219/109/12 224/108/12 187/107/12
f 223/95/12 220/110/12 210/81/12 185/82/12
f 206/103/12 229/100/12 204/96/12 205/97/12
f 187/107/12 224/108/12 225/98/12 209/111/12
f 192/71/12 208/114/12 226/113/12 186/112/12
f 193/87/12 215/86/12 207/116/12 222/115/12
f 218/117/12 216/119/12 217/62/12 214/118/12
f 212/120/12 211/121/12 219/109/12 213/106/12
f 226/113/12 208/114/12 216/119/12 218/117/12
f 203/104/12 227/105/12 207/116/12 215/86/12
f 209/111/12 225/98/12 196/99/12 197/126/12
f 197/126/12 233/124/12 186/112/12 209/111/12
f 192/71/12 186/112/12 233/124/12 198/70/12
f 235/127/12 234/129/12 221/128/12 211/121/12
f 239/130/12 240/131/12 231/125/12 194/123/12
f 237/132/12 236/133/12 212/120/12 214/118/12
f 241/134/12 242/69/12 195/40/12 232/88/12
f 190/135/7 196/99/7 184/94/7 188/136/7
f 189/89/12 199/90/12 190/138/12 188/137/12
f 214/118/12 217/62/12 238/63/12 237/132/12
f 241/139/12 240/142/12 236/141/12 237/140/12
f 211/121/12 212/120/12 236/133/12 235/127/12
f 239/143/12 243/146/12 234/145/12 235/144/12
f 220/110/12 221/128/12 234/129/12 210/81/12
f 194/123/12 202/122/12 243/147/12 239/130/12
f 232/88/12 231/125/12 240/131/12 241/134/12
f 237/140/12 238/59/12 242/60/12 241/139/12
f 235/144/12 236/141/12 240/142/12 239/143/12
f 210/148/12 234/145/12 243/146/12 244/149/12
f 210/81/12 244/150/12 193/87/12 222/115/12
f 193/87/12 244/150/12 243/147/12 202/122/12
f 59/57/3 120/69/3 73/40/3 12/41/3
f 79/91/7 201/91/7 200/92/7 78/92/7
