# Blender 5.1.0
# www.blender.org
mtllib barriere55_144.mtl
o barriere55.144
v 64.485344 0.406544 31.296492
v 64.544716 0.597168 31.274887
v 63.936871 0.643228 31.496086
v 64.080460 0.684295 31.443832
v 64.451477 0.406544 31.321688
v 64.451477 0.372827 31.321688
v 64.304626 0.406544 31.375128
v 64.342796 0.643228 31.348368
v 63.651772 0.643228 31.599838
v 64.705353 1.574804 31.216431
v 64.293396 1.574801 31.366344
v 63.717541 1.574801 31.575905
v 64.293396 0.406544 31.366344
v 64.101440 0.406544 31.436197
v 63.717541 0.406544 31.575905
v 64.304626 0.372827 31.375128
v 64.410034 0.224803 31.118340
v 64.203751 0.224803 31.193407
v 64.544716 1.574801 31.274887
v 64.830856 1.411595 31.170757
v 64.598618 0.406544 31.255272
v 64.627899 0.558043 31.244616
v 64.688309 0.558043 31.222631
v 64.688309 1.334638 31.222631
v 63.734951 0.684295 31.569567
v 63.997284 0.643228 31.474102
v 64.544716 1.295513 31.274887
v 64.282387 1.249449 31.370352
v 63.997284 1.249449 31.474102
v 64.080460 1.208383 31.443832
v 63.936871 1.249449 31.496086
v 64.790276 1.519067 31.185526
v 63.734951 1.208383 31.569567
v 63.651772 1.249449 31.599838
v 63.853687 1.208383 31.526358
v 64.199203 1.208383 31.400621
v 64.425980 1.208383 31.318098
v 64.342796 1.249452 31.348368
v 64.627899 1.334638 31.244616
v 64.425980 0.684295 31.318098
v 64.199203 0.684295 31.400621
v 64.282387 0.643228 31.370352
v 63.853687 0.684295 31.526358
v 64.771492 1.295510 31.192362
v 64.771492 0.597168 31.192362
v 64.742699 0.442269 31.202839
v 64.830856 0.546414 31.170757
v 64.101440 1.574801 31.436197
v 63.909492 1.574801 31.506050
v 63.909492 0.406544 31.506050
v 64.362976 1.295513 31.341022
v 64.283943 1.295513 31.369785
v 64.012032 1.295513 31.468737
v 63.932995 1.295513 31.497498
v 63.661083 1.295513 31.596449
v 64.291359 1.514732 31.367085
v 64.082214 1.514732 31.443195
v 63.914547 1.514732 31.504211
v 63.705399 1.514732 31.580322
v 64.505630 1.514733 31.289112
v 64.544716 1.514733 31.274887
v 62.758209 0.406544 31.925013
v 62.698841 0.597168 31.946619
v 63.306683 0.643228 31.725418
v 63.163094 0.684295 31.777672
v 62.800350 0.406544 31.922548
v 62.800350 0.372827 31.922548
v 62.947197 0.406544 31.869108
v 62.900761 0.643228 31.873138
v 63.591785 0.643228 31.621668
v 62.538204 1.574804 32.005074
v 62.950161 1.574801 31.855160
v 63.526016 1.574801 31.645601
v 62.950161 0.406544 31.855160
v 63.142113 0.406544 31.785307
v 63.526016 0.406544 31.645601
v 62.947197 0.372827 31.869108
v 62.701408 0.224803 31.740124
v 62.907688 0.224803 31.665056
v 62.698841 1.574801 31.946617
v 62.412697 1.411595 32.050747
v 62.644939 0.406544 31.966232
v 62.615658 0.558043 31.976889
v 62.555248 0.558043 31.998873
v 62.555248 1.334638 31.998873
v 63.508602 0.684295 31.651937
v 63.246273 0.643228 31.747402
v 62.698841 1.295513 31.946617
v 62.961170 1.249449 31.851154
v 63.246273 1.249449 31.747402
v 63.163094 1.208383 31.777672
v 63.306683 1.249449 31.725418
v 62.453281 1.519067 32.035980
v 63.508602 1.208383 31.651937
v 63.591785 1.249449 31.621668
v 63.389866 1.208383 31.695147
v 63.044353 1.208383 31.820883
v 62.817581 1.208383 31.903408
v 62.900761 1.249452 31.873138
v 62.615658 1.334638 31.976889
v 62.817581 0.684295 31.903408
v 63.044353 0.684295 31.820883
v 62.961170 0.643228 31.851154
v 63.389866 0.684295 31.695147
v 62.472065 1.295510 32.029144
v 62.472065 0.597168 32.029144
v 62.500858 0.442269 32.018665
v 62.412697 0.546414 32.050747
v 63.142113 1.574801 31.785307
v 63.334064 1.574801 31.715454
v 63.334064 0.406544 31.715454
v 62.880577 1.295513 31.880482
v 62.959614 1.295513 31.851721
v 63.231525 1.295513 31.752769
v 63.310562 1.295513 31.724007
v 63.582474 1.295513 31.625055
v 62.952194 1.514732 31.854420
v 63.161343 1.514732 31.778309
v 63.329010 1.514732 31.717295
v 63.538158 1.514732 31.641182
v 62.737930 1.514733 31.932394
v 62.698841 1.514733 31.946617
v 64.516273 0.406544 31.381479
v 64.575645 0.597168 31.359873
v 63.967800 0.643228 31.581074
v 64.111389 0.684295 31.528820
v 64.474136 0.406544 31.383944
v 64.474136 0.372827 31.383944
v 64.327286 0.406544 31.437384
v 64.373726 0.643228 31.433353
v 63.682697 0.643228 31.684824
v 64.736275 1.574804 31.301418
v 64.324326 1.574801 31.451332
v 63.748466 1.574801 31.660891
v 64.324326 0.406544 31.451332
v 64.132370 0.406544 31.521185
v 63.748466 0.406544 31.660891
v 64.327286 0.372827 31.437384
v 64.573074 0.224803 31.566368
v 64.366791 0.224803 31.641436
v 64.575645 1.574801 31.359875
v 64.861786 1.411595 31.255743
v 64.629539 0.406544 31.340260
v 64.658829 0.558043 31.329603
v 64.719238 0.558043 31.307619
v 64.719238 1.334638 31.307619
v 63.765881 0.684295 31.654554
v 64.028214 0.643228 31.559090
v 64.575638 1.295513 31.359875
v 64.313309 1.249449 31.455339
v 64.028214 1.249449 31.559090
v 64.111389 1.208383 31.528820
v 63.967800 1.249449 31.581074
v 64.821198 1.519067 31.270514
v 63.765881 1.208383 31.654554
v 63.682697 1.249449 31.684824
v 63.884617 1.208383 31.611345
v 64.230133 1.208383 31.485609
v 64.456902 1.208383 31.403084
v 64.373726 1.249452 31.433353
v 64.658829 1.334638 31.329603
v 64.456902 0.684295 31.403084
v 64.230133 0.684295 31.485609
v 64.313309 0.643228 31.455339
v 63.884617 0.684295 31.611345
v 64.802414 1.295510 31.277348
v 64.802414 0.597168 31.277348
v 64.773621 0.442269 31.287827
v 64.861786 0.546414 31.255743
v 64.132370 1.574801 31.521185
v 63.940418 1.574801 31.591038
v 63.940418 0.406544 31.591038
v 64.393906 1.295513 31.426010
v 64.314873 1.295513 31.454771
v 64.042961 1.295513 31.553722
v 63.963924 1.295513 31.582485
v 63.692009 1.295513 31.681437
v 64.322289 1.514732 31.452072
v 64.113136 1.514732 31.528183
v 63.945473 1.514732 31.589197
v 63.736324 1.514732 31.665310
v 64.536552 1.514733 31.374098
v 64.575645 1.514733 31.359875
v 62.789135 0.406544 32.009998
v 62.729767 0.597168 32.031605
v 63.337612 0.643228 31.810406
v 63.194019 0.684295 31.862659
v 62.823006 0.406544 31.984804
v 62.823006 0.372827 31.984804
v 62.969852 0.406544 31.931364
v 62.931686 0.643228 31.958124
v 63.622711 0.643228 31.706654
v 62.569134 1.574804 32.090061
v 62.981087 1.574801 31.940147
v 63.556942 1.574801 31.730589
v 62.981087 0.406544 31.940147
v 63.173038 0.406544 31.870295
v 63.556942 0.406544 31.730587
v 62.969852 0.372827 31.931364
v 62.864449 0.224803 32.188152
v 63.070732 0.224803 32.113087
v 62.729767 1.574801 32.031605
v 62.443623 1.411595 32.135735
v 62.675869 0.406544 32.051220
v 62.646584 0.558043 32.061874
v 62.586174 0.558043 32.083858
v 62.586174 1.334638 32.083858
v 63.539532 0.684295 31.736925
v 63.277199 0.643228 31.832390
v 62.729767 1.295513 32.031605
v 62.992100 1.249449 31.936140
v 63.277199 1.249449 31.832390
v 63.194019 1.208383 31.862659
v 63.337612 1.249449 31.810406
v 62.484211 1.519067 32.120964
v 63.539532 1.208383 31.736925
v 63.622711 1.249449 31.706654
v 63.420795 1.208383 31.780134
v 63.075279 1.208383 31.905870
v 62.848507 1.208383 31.988394
v 62.931686 1.249452 31.958124
v 62.646584 1.334638 32.061874
v 62.848507 0.684295 31.988394
v 63.075279 0.684295 31.905870
v 62.992100 0.643228 31.936140
v 63.420795 0.684295 31.780134
v 62.502995 1.295510 32.114132
v 62.502995 0.597168 32.114132
v 62.531784 0.442269 32.103653
v 62.443623 0.546414 32.135735
v 63.173038 1.574801 31.870295
v 63.364990 1.574801 31.800442
v 63.364990 0.406544 31.800442
v 62.911507 1.295513 31.965469
v 62.990540 1.295513 31.936707
v 63.262451 1.295513 31.837755
v 63.341488 1.295513 31.808994
v 63.613400 1.295513 31.710043
v 62.983120 1.514732 31.939407
v 63.192272 1.514732 31.863297
v 63.359936 1.514732 31.802280
v 63.569084 1.514732 31.726170
v 62.768856 1.514733 32.017380
v 62.729767 1.514733 32.031605
vn 0.4933 0.8512 -0.1795
vn -0.2000 0.8111 -0.5497
vn -0.3420 -0.0000 -0.9397
vn -0.0000 1.0000 -0.0000
vn 0.2132 -0.9739 -0.0776
vn 0.6982 -0.6693 -0.2541
vn -0.0000 -1.0000 -0.0000
vn -0.3420 -0.0001 -0.9397
vn 0.9397 -0.0000 -0.3420
vn 0.8720 0.3728 -0.3173
vn 0.9203 0.2024 -0.3349
vn -0.3955 0.9071 0.1439
vn 0.3420 -0.0000 0.9397
vn -0.3955 -0.9071 0.1439
vn 0.3955 -0.9071 -0.1439
vn -0.9397 -0.0000 0.3420
vn -0.9397 -0.0000 0.3419
vn 0.3955 0.9071 -0.1439
vn -0.4933 0.8511 0.1795
vn -0.2000 0.8111 -0.5496
vn -0.3419 -0.0000 -0.9397
vn -0.2132 -0.9739 0.0776
vn -0.6982 -0.6693 0.2541
vn -0.8719 0.3729 0.3173
vn -0.9203 0.2024 0.3349
vn 0.9397 -0.0000 -0.3419
vn -0.3799 -0.9146 0.1382
vn 0.3799 -0.9146 -0.1383
vn 0.3799 0.9146 -0.1382
vn -0.3799 0.9146 0.1382
vn 0.9176 0.2154 -0.3339
vn 0.3799 -0.9146 -0.1382
vn 0.3799 0.9146 -0.1383
vn -0.9176 0.2155 0.3339
vn 0.2000 0.8111 0.5497
vn 0.3419 -0.0000 0.9397
vt 0.563424 0.076340
vt 0.553130 0.073518
vt 0.930572 0.423953
vt 0.921307 0.379121
vt 0.987792 0.379121
vt 0.977903 0.423953
vt 0.607372 0.029178
vt 0.597289 0.031257
vt 0.582896 0.026846
vt 0.590093 0.017196
vt 0.572813 0.024865
vt 0.576362 0.017196
vt 0.613360 0.017196
vt 0.614695 0.029178
vt 0.558897 0.019004
vt 0.565490 0.024865
vt 0.555407 0.026846
vt 0.548211 0.024277
vt 0.555407 0.062200
vt 0.548211 0.068077
vt 0.639171 0.057790
vt 0.624778 0.057790
vt 0.624778 0.031257
vt 0.639171 0.031257
vt 0.597289 0.057790
vt 0.582896 0.062201
vt 0.649254 0.029178
vt 0.691136 0.029178
vt 0.681053 0.031257
vt 0.666660 0.031257
vt 0.656577 0.029178
vt 0.565490 0.064181
vt 0.572813 0.064181
vt 0.666660 0.057790
vt 0.681053 0.057790
vt 0.691136 0.059869
vt 0.656577 0.059869
vt 0.649254 0.059869
vt 0.614695 0.059869
vt 0.706379 0.076340
vt 0.683164 0.076340
vt 0.613360 0.076340
vt 0.582896 0.076340
vt 0.659896 0.017196
vt 0.683164 0.017196
vt 0.659896 0.076340
vt 0.636628 0.076340
vt 0.636628 0.017196
vt 0.614506 0.062201
vt 0.604926 0.062201
vt 0.607372 0.059869
vt 0.613607 0.073299
vt 0.638959 0.073299
vt 0.657047 0.062201
vt 0.647466 0.062201
vt 0.659283 0.073299
vt 0.684635 0.073299
vt 0.688839 0.081258
vt 0.699816 0.081258
vt 0.706005 0.126709
vt 0.682651 0.126709
vt 0.698407 0.059869
vt 0.699536 0.062201
vt 0.690007 0.062201
vt 0.612500 0.017196
vt 0.594699 0.017196
vt 0.977903 0.434165
vt 0.930572 0.434165
vt 0.704907 0.073299
vt 0.706379 0.017196
vt 0.698407 0.029178
vt 0.653445 0.126709
vt 0.630032 0.126709
vt 0.639832 0.081258
vt 0.650869 0.081258
vt 0.600826 0.126709
vt 0.570905 0.126710
vt 0.590825 0.081258
vt 0.601862 0.081258
vt 0.587634 0.073299
vt 0.806647 0.062201
vt 0.806647 0.026846
vt 0.565447 0.081258
vt 0.565447 0.126710
vt 0.582896 0.073299
vt 0.836413 0.073518
vt 0.826118 0.076340
vt 0.729647 0.076340
vt 0.978547 0.423953
vt 0.931216 0.423953
vt 0.921327 0.379121
vt 0.987812 0.379121
vt 0.782171 0.029178
vt 0.799450 0.017196
vt 0.792254 0.031257
vt 0.813181 0.017196
vt 0.816730 0.024865
vt 0.774848 0.029178
vt 0.776183 0.017196
vt 0.830646 0.019004
vt 0.841332 0.024277
vt 0.834136 0.026846
vt 0.824053 0.024865
vt 0.841332 0.068077
vt 0.834136 0.062200
vt 0.750372 0.057790
vt 0.750372 0.031257
vt 0.764765 0.031257
vt 0.764765 0.057790
vt 0.792254 0.057790
vt 0.740289 0.029178
vt 0.732966 0.029178
vt 0.722883 0.031257
vt 0.708490 0.031257
vt 0.816730 0.064181
vt 0.824053 0.064181
vt 0.722883 0.057790
vt 0.732966 0.059869
vt 0.708490 0.057790
vt 0.740289 0.059869
vt 0.774848 0.059869
vt 0.806647 0.076340
vt 0.776183 0.076340
vt 0.729647 0.017196
vt 0.752915 0.076340
vt 0.752915 0.017196
vt 0.775037 0.062201
vt 0.782171 0.059869
vt 0.784617 0.062201
vt 0.775936 0.073299
vt 0.750584 0.073299
vt 0.732496 0.062201
vt 0.742077 0.062201
vt 0.730260 0.073299
vt 0.777043 0.017196
vt 0.794844 0.017196
vt 0.978547 0.434165
vt 0.931216 0.434165
vt 0.735211 0.126709
vt 0.737787 0.081258
vt 0.748824 0.081258
vt 0.758624 0.126709
vt 0.787830 0.126709
vt 0.786794 0.081258
vt 0.797831 0.081258
vt 0.817751 0.126710
vt 0.801909 0.073299
vt 0.823209 0.081258
vt 0.823209 0.126710
vt 0.806647 0.073299
s 1
usemtl initialShadingGroup.004
f 10/1/1 132/1/1 154/2/1 32/2/1
f 6/3/2 17/4/2 18/5/2 16/6/2
f 8/7/3 40/8/3 2/9/3 1/10/3
f 1/10/3 2/9/3 22/11/3 21/12/3
f 1/10/3 13/13/3 42/14/3 8/7/3
f 46/15/3 23/16/3 45/17/3 47/18/3
f 45/17/3 44/19/3 20/20/3 47/18/3
f 30/21/3 36/22/3 41/23/3 4/24/3
f 40/8/3 37/25/3 27/26/3 2/9/3
f 23/16/3 46/15/3 21/12/3 22/11/3
f 4/24/3 41/23/3 42/14/3 26/27/3
f 9/28/3 25/29/3 43/30/3 3/31/3
f 10/1/3 32/2/3 24/32/3 39/33/3
f 35/34/3 33/35/3 34/36/3 31/37/3
f 29/38/3 28/39/3 36/22/3 30/21/3
f 43/30/3 25/29/3 33/35/3 35/34/3
f 73/40/4 195/40/4 134/41/4 12/41/4
f 46/15/5 168/15/5 143/12/5 21/12/5
f 11/42/4 133/42/4 141/43/4 19/43/4
f 47/18/6 169/18/6 168/15/6 46/15/6
f 50/44/7 172/44/7 137/45/7 15/45/7
f 19/43/4 141/43/4 132/1/4 10/1/4
f 20/20/3 44/19/3 24/32/3 32/2/3
f 49/46/4 171/46/4 170/47/4 48/47/4
f 26/27/3 42/14/3 13/13/3 14/48/3
f 14/48/3 50/44/3 3/31/3 26/27/3
f 9/28/3 3/31/3 50/44/3 15/45/3
f 52/49/3 51/50/3 38/51/8 28/39/3
f 56/52/3 57/53/3 48/47/3 11/42/3
f 54/54/3 53/55/3 29/38/3 31/37/3
f 58/56/3 59/57/3 12/41/3 49/46/3
f 55/58/3 116/59/3 120/60/3 59/61/3
f 13/13/7 135/13/7 136/48/7 14/48/7
f 20/20/9 142/20/9 169/18/9 47/18/9
f 34/36/3 95/62/3 116/63/3 55/64/3
f 48/47/4 170/47/4 133/42/4 11/42/4
f 32/2/10 154/2/10 142/20/10 20/20/10
f 14/48/7 136/48/7 172/44/7 50/44/7
f 7/65/7 13/13/7 1/10/7 5/66/7
f 6/3/3 16/6/3 7/67/3 5/68/3
f 139/4/11 17/4/11 6/3/11 128/3/11
f 5/68/9 127/68/9 128/3/9 6/3/9
f 7/65/7 129/65/7 135/13/7 13/13/7
f 1/10/7 123/10/7 127/66/7 5/66/7
f 3/31/4 125/31/4 148/27/4 26/27/4
f 26/27/12 148/27/12 126/24/12 4/24/12
f 134/41/13 195/40/13 242/69/13 181/57/13
f 156/36/7 217/62/7 95/62/7 34/36/7
f 33/35/14 155/35/14 156/36/14 34/36/14
f 37/25/14 159/25/14 160/51/14 38/51/14
f 31/37/15 153/37/15 157/34/15 35/34/15
f 25/29/16 147/29/16 155/35/16 33/35/16
f 9/28/12 131/28/12 147/29/12 25/29/12
f 4/24/16 126/24/16 152/21/16 30/21/16
f 8/7/12 130/7/12 162/8/12 40/8/12
f 40/8/17 162/8/17 159/25/17 37/25/17
f 43/30/18 165/30/18 125/31/18 3/31/18
f 38/51/7 160/51/7 150/39/7 28/39/7
f 76/70/3 70/71/3 9/28/3 15/45/3
f 36/22/9 158/22/9 163/23/9 41/23/9
f 35/34/9 157/34/9 165/30/9 43/30/9
f 42/14/4 164/14/4 130/7/4 8/7/4
f 28/39/15 150/39/15 158/22/15 36/22/15
f 31/37/3 34/36/3 55/64/3 54/54/3
f 58/72/3 57/73/3 53/74/3 54/75/3
f 28/39/3 29/38/3 53/55/3 52/49/3
f 56/76/3 60/77/3 51/78/3 52/79/3
f 37/25/3 38/51/8 51/50/3 27/26/3
f 11/42/3 19/43/3 60/80/3 56/52/3
f 49/46/3 48/47/3 57/53/3 58/56/3
f 210/81/17 88/81/17 63/82/17 185/82/17
f 54/75/3 55/58/3 59/61/3 58/72/3
f 52/79/3 53/74/3 57/73/3 56/76/3
f 27/83/3 51/78/3 60/77/3 61/84/3
f 27/26/3 61/85/3 10/1/3 39/33/3
f 10/1/3 61/85/3 60/80/3 19/43/3
f 12/41/4 134/41/4 171/46/4 49/46/4
f 41/23/18 163/23/18 164/14/18 42/14/18
f 15/45/7 137/45/7 198/70/7 76/70/7
f 93/86/19 215/86/19 193/87/19 71/87/19
f 110/88/4 232/88/4 195/40/4 73/40/4
f 67/89/20 77/90/20 79/91/20 78/92/20
f 69/93/3 62/94/3 63/82/3 101/95/3
f 62/94/3 82/96/3 83/97/3 63/82/3
f 62/94/3 69/93/3 103/98/3 74/99/3
f 107/100/3 108/101/21 106/102/21 84/103/3
f 106/102/21 108/101/21 81/104/3 105/105/21
f 91/106/3 65/107/3 102/108/3 97/109/3
f 101/95/3 63/82/3 88/81/3 98/110/3
f 84/103/3 83/97/3 82/96/3 107/100/3
f 65/107/3 87/111/3 103/98/3 102/108/3
f 70/71/3 64/112/3 104/113/3 86/114/3
f 71/87/3 100/115/3 85/116/3 93/86/3
f 96/117/3 92/118/3 95/62/3 94/119/3
f 90/120/3 91/106/3 97/109/3 89/121/3
f 104/113/3 96/117/3 94/119/3 86/114/3
f 198/70/13 137/45/13 131/28/13 192/71/13
f 82/96/22 204/96/22 229/100/22 107/100/22
f 80/122/4 202/122/4 194/123/4 72/123/4
f 107/100/23 229/100/23 230/101/23 108/101/23
f 76/70/7 198/70/7 233/124/7 111/124/7
f 71/87/4 193/87/4 202/122/4 80/122/4
f 81/104/3 93/86/3 85/116/3 105/105/21
f 109/125/4 231/125/4 232/88/4 110/88/4
f 87/111/3 75/126/3 74/99/3 103/98/3
f 75/126/3 87/111/3 64/112/3 111/124/3
f 70/71/3 76/70/3 111/124/3 64/112/3
f 113/127/3 89/121/3 99/128/3 112/129/3
f 117/130/3 72/123/3 109/125/3 118/131/3
f 115/132/3 92/118/3 90/120/3 114/133/3
f 119/134/3 110/88/3 73/40/3 120/69/3
f 75/126/7 197/126/7 196/99/7 74/99/7
f 108/101/17 230/101/17 203/104/17 81/104/17
f 72/123/4 194/123/4 231/125/4 109/125/4
f 103/98/12 225/98/12 224/108/12 102/108/12
f 81/104/24 203/104/24 215/86/24 93/86/24
f 111/124/7 233/124/7 197/126/7 75/126/7
f 68/135/7 66/136/7 62/94/7 74/99/7
f 67/89/3 66/137/3 68/138/3 77/90/3
f 200/92/25 189/89/25 67/89/25 78/92/25
f 67/89/16 189/89/16 188/137/16 66/137/16
f 74/99/7 196/99/7 190/135/7 68/135/7
f 66/136/7 188/136/7 184/94/7 62/94/7
f 87/111/4 209/111/4 186/112/4 64/112/4
f 65/107/18 187/107/18 209/111/18 87/111/18
f 97/109/14 219/109/14 211/121/14 89/121/14
f 95/62/15 217/62/15 216/119/15 94/119/15
f 99/128/15 221/128/15 220/110/15 98/110/15
f 96/117/14 218/117/14 214/118/14 92/118/14
f 94/119/9 216/119/9 208/114/9 86/114/9
f 86/114/18 208/114/18 192/71/18 70/71/18
f 91/106/26 213/106/26 187/107/26 65/107/26
f 101/95/18 223/95/18 191/93/18 69/93/18
f 98/110/9 220/110/9 223/95/9 101/95/9
f 64/112/12 186/112/12 226/113/12 104/113/12
f 89/121/7 211/121/7 221/128/7 99/128/7
f 102/108/17 224/108/17 219/109/17 97/109/17
f 104/113/16 226/113/16 218/117/16 96/117/16
f 69/93/4 191/93/4 225/98/4 103/98/4
f 92/118/3 115/132/3 116/63/3 95/62/3
f 119/139/3 115/140/3 114/141/3 118/142/3
f 89/121/3 113/127/3 114/133/3 90/120/3
f 117/143/3 113/144/3 112/145/3 121/146/3
f 98/110/3 88/81/3 112/129/3 99/128/3
f 72/123/3 117/130/3 121/147/3 80/122/3
f 110/88/3 119/134/3 118/131/3 109/125/3
f 115/140/3 119/139/3 120/60/3 116/59/3
f 113/144/3 117/143/3 118/142/3 114/141/3
f 88/148/3 122/149/3 121/146/3 112/145/3
f 88/81/3 100/115/3 71/87/3 122/150/3
f 71/87/3 80/122/3 121/147/3 122/150/3
f 17/4/7 139/4/7 140/5/7 18/5/7
f 149/26/9 124/9/9 2/9/9 27/26/9
f 222/115/27 100/115/27 88/81/27 210/81/27
f 222/115/7 207/116/7 85/116/7 100/115/7
f 207/116/28 227/105/28 105/105/28 85/116/28
f 227/105/9 228/102/9 106/102/9 105/105/9
f 206/103/29 84/103/29 106/102/29 228/102/29
f 206/103/4 205/97/4 83/97/4 84/103/4
f 185/82/30 63/82/30 83/97/30 205/97/30
f 213/106/15 91/106/15 90/120/15 212/120/15
f 199/90/9 77/90/9 68/138/9 190/138/9
f 199/90/31 201/91/31 79/91/31 77/90/31
f 62/94/7 184/94/7 204/96/7 82/96/7
f 92/118/7 214/118/7 212/120/7 90/120/7
f 161/33/32 149/26/32 27/26/32 39/33/32
f 161/33/7 39/33/7 24/32/7 146/32/7
f 146/32/27 24/32/27 44/19/27 166/19/27
f 166/19/17 44/19/17 45/17/17 167/17/17
f 145/16/30 167/17/30 45/17/30 23/16/30
f 145/16/4 23/16/4 22/11/4 144/11/4
f 124/9/33 144/11/33 22/11/33 2/9/33
f 152/21/14 151/38/14 29/38/14 30/21/14
f 138/6/16 129/67/16 7/67/16 16/6/16
f 138/6/34 16/6/34 18/5/34 140/5/34
f 21/12/7 143/12/7 123/10/7 1/10/7
f 29/38/7 151/38/7 153/37/7 31/37/7
f 128/3/35 138/6/35 140/5/35 139/4/35
f 130/7/13 123/10/13 124/9/13 162/8/13
f 123/10/13 143/12/13 144/11/13 124/9/13
f 123/10/13 130/7/13 164/14/13 135/13/13
f 168/15/13 169/18/13 167/17/13 145/16/13
f 167/17/13 169/18/13 142/20/13 166/19/13
f 152/21/13 126/24/13 163/23/13 158/22/13
f 162/8/13 124/9/13 149/26/13 159/25/13
f 145/16/13 144/11/13 143/12/13 168/15/13
f 126/24/13 148/27/13 164/14/13 163/23/13
f 131/28/13 125/31/13 165/30/13 147/29/13
f 132/1/13 161/33/13 146/32/13 154/2/13
f 157/34/13 153/37/13 156/36/13 155/35/13
f 151/38/13 152/21/13 158/22/13 150/39/13
f 165/30/13 157/34/13 155/35/13 147/29/13
f 142/20/13 154/2/13 146/32/13 166/19/13
f 148/27/13 136/48/13 135/13/13 164/14/13
f 136/48/13 148/27/13 125/31/13 172/44/13
f 131/28/13 137/45/13 172/44/13 125/31/13
f 174/49/13 150/39/13 160/51/13 173/50/13
f 178/52/13 133/42/13 170/47/13 179/53/13
f 176/54/13 153/37/13 151/38/13 175/55/13
f 180/56/13 171/46/13 134/41/13 181/57/13
f 181/61/13 242/60/13 238/59/13 177/58/13
f 177/64/13 238/63/13 217/62/13 156/36/13
f 129/65/7 127/66/7 123/10/7 135/13/7
f 128/3/13 127/68/13 129/67/13 138/6/13
f 153/37/13 176/54/13 177/64/13 156/36/13
f 180/72/13 176/75/13 175/74/13 179/73/13
f 150/39/13 174/49/13 175/55/13 151/38/13
f 178/76/13 174/79/13 173/78/13 182/77/13
f 159/25/13 149/26/13 173/50/13 160/51/13
f 133/42/13 178/52/13 182/80/13 141/43/13
f 171/46/13 180/56/13 179/53/13 170/47/13
f 176/75/13 180/72/13 181/61/13 177/58/13
f 174/79/13 178/76/13 179/73/13 175/74/13
f 149/83/13 183/84/13 182/77/13 173/78/13
f 149/26/13 161/33/13 132/1/13 183/85/13
f 132/1/13 141/43/13 182/80/13 183/85/13
f 131/28/4 9/28/4 70/71/4 192/71/4
f 189/89/35 200/92/35 201/91/35 199/90/35
f 191/93/13 223/95/13 185/82/13 184/94/13
f 184/94/13 185/82/13 205/97/13 204/96/13
f 184/94/13 196/99/13 225/98/13 191/93/13
f 229/100/13 206/103/13 228/102/36 230/101/36
f 228/102/36 227/105/13 203/104/13 230/101/36
f 213/106/13 219/109/13 224/108/13 187/107/13
f 223/95/13 220/110/13 210/81/13 185/82/13
f 206/103/13 229/100/13 204/96/13 205/97/13
f 187/107/13 224/108/13 225/98/13 209/111/13
f 192/71/13 208/114/13 226/113/13 186/112/13
f 193/87/13 215/86/13 207/116/13 222/115/13
f 218/117/13 216/119/13 217/62/13 214/118/13
f 212/120/13 211/121/13 219/109/13 213/106/13
f 226/113/13 208/114/13 216/119/13 218/117/13
f 203/104/13 227/105/13 207/116/13 215/86/13
f 209/111/13 225/98/13 196/99/13 197/126/13
f 197/126/13 233/124/13 186/112/13 209/111/13
f 192/71/13 186/112/13 233/124/13 198/70/13
f 235/127/13 234/129/13 221/128/36 211/121/13
f 239/130/13 240/131/13 231/125/13 194/123/13
f 237/132/13 236/133/13 212/120/13 214/118/13
f 241/134/13 242/69/13 195/40/13 232/88/13
f 190/135/7 196/99/7 184/94/7 188/136/7
f 189/89/13 199/90/13 190/138/13 188/137/13
f 214/118/13 217/62/13 238/63/13 237/132/13
f 241/139/13 240/142/13 236/141/13 237/140/13
f 211/121/13 212/120/13 236/133/13 235/127/13
f 239/143/13 243/146/13 234/145/13 235/144/13
f 220/110/13 221/128/36 234/129/13 210/81/13
f 194/123/13 202/122/13 243/147/13 239/130/13
f 232/88/13 231/125/13 240/131/13 241/134/13
f 237/140/13 238/59/13 242/60/13 241/139/13
f 235/144/13 236/141/13 240/142/13 239/143/13
f 210/148/13 234/145/13 243/146/13 244/149/13
f 210/81/13 244/150/13 193/87/13 222/115/13
f 193/87/13 244/150/13 243/147/13 202/122/13
f 59/57/3 120/69/3 73/40/3 12/41/3
f 79/91/7 201/91/7 200/92/7 78/92/7
