# Blender 5.1.0
# www.blender.org
mtllib barriere55_024.mtl
o barriere55.024
v 40.706532 0.406541 -14.322471
v 40.704651 0.597165 -14.385621
v 40.723911 0.643225 -13.739066
v 40.719364 0.684292 -13.891802
v 40.719826 0.406541 -14.282406
v 40.719826 0.372824 -14.282406
v 40.724480 0.406541 -14.126205
v 40.711048 0.643225 -14.170841
v 40.732948 0.643225 -13.435809
v 40.699558 1.574801 -14.556485
v 40.712616 1.574798 -14.118295
v 40.730865 1.574798 -13.505767
v 40.712616 0.406541 -14.118295
v 40.718697 0.406541 -13.914119
v 40.730865 0.406541 -13.505767
v 40.724480 0.372824 -14.126205
v 40.513744 0.224800 -14.306872
v 40.520279 0.224800 -14.087455
v 40.704651 1.574798 -14.385619
v 40.695580 1.411592 -14.689987
v 40.702942 0.406541 -14.442953
v 40.702015 0.558040 -14.474100
v 40.700100 0.558040 -14.538359
v 40.700100 1.334635 -14.538359
v 40.730312 0.684292 -13.524288
v 40.722000 0.643225 -13.803326
v 40.704651 1.295510 -14.385619
v 40.712963 1.249446 -14.106583
v 40.722000 1.249446 -13.803326
v 40.719364 1.208380 -13.891802
v 40.723911 1.249446 -13.739066
v 40.696869 1.519064 -14.646817
v 40.730312 1.208380 -13.524288
v 40.732948 1.249446 -13.435809
v 40.726551 1.208380 -13.650586
v 40.715599 1.208380 -14.018105
v 40.708412 1.208380 -14.259319
v 40.711048 1.249449 -14.170841
v 40.702015 1.334635 -14.474100
v 40.708412 0.684292 -14.259319
v 40.715599 0.684292 -14.018105
v 40.712963 0.643225 -14.106583
v 40.726551 0.684292 -13.650586
v 40.697464 1.295507 -14.626837
v 40.697464 0.597165 -14.626837
v 40.698376 0.442266 -14.596210
v 40.695580 0.546411 -14.689987
v 40.718697 1.574798 -13.914119
v 40.724781 1.574798 -13.709943
v 40.724781 0.406541 -13.709943
v 40.710407 1.295510 -14.192308
v 40.712914 1.295510 -14.108241
v 40.721531 1.295510 -13.819012
v 40.724037 1.295510 -13.734943
v 40.732655 1.295510 -13.445713
v 40.712677 1.514729 -14.116133
v 40.719307 1.514729 -13.893663
v 40.724621 1.514729 -13.715320
v 40.731251 1.514729 -13.492850
v 40.705887 1.514730 -14.344043
v 40.704651 1.514730 -14.385619
v 40.761269 0.406541 -12.485341
v 40.763149 0.597165 -12.422191
v 40.743885 0.643225 -13.068745
v 40.748436 0.684292 -12.916010
v 40.772152 0.406541 -12.526126
v 40.772152 0.372824 -12.526126
v 40.767498 0.406541 -12.682327
v 40.756748 0.643225 -12.636970
v 40.734848 0.643225 -13.372003
v 40.768238 1.574801 -12.251327
v 40.755184 1.574798 -12.689517
v 40.736935 1.574798 -13.302045
v 40.755184 0.406541 -12.689517
v 40.749100 0.406541 -12.893693
v 40.736935 0.406541 -13.302045
v 40.767498 0.372824 -12.682327
v 40.567894 0.224800 -12.489434
v 40.561356 0.224800 -12.708852
v 40.763149 1.574798 -12.422192
v 40.772217 1.411592 -12.117825
v 40.764858 0.406541 -12.364859
v 40.765785 0.558040 -12.333712
v 40.767700 0.558040 -12.269453
v 40.767700 1.334635 -12.269453
v 40.737484 0.684292 -13.283524
v 40.745800 0.643225 -13.004486
v 40.763149 1.295510 -12.422192
v 40.754833 1.249446 -12.701229
v 40.745800 1.249446 -13.004486
v 40.748436 1.208380 -12.916010
v 40.743885 1.249446 -13.068745
v 40.770931 1.519064 -12.160995
v 40.737484 1.208380 -13.283524
v 40.734848 1.249446 -13.372003
v 40.741249 1.208380 -13.157226
v 40.752197 1.208380 -12.789707
v 40.759384 1.208380 -12.548492
v 40.756748 1.249449 -12.636970
v 40.765785 1.334635 -12.333712
v 40.759384 0.684292 -12.548492
v 40.752197 0.684292 -12.789707
v 40.754833 0.643225 -12.701229
v 40.741249 0.684292 -13.157226
v 40.770336 1.295507 -12.180975
v 40.770336 0.597165 -12.180975
v 40.769424 0.442266 -12.211601
v 40.772217 0.546411 -12.117825
v 40.749100 1.574798 -12.893693
v 40.743019 1.574798 -13.097869
v 40.743019 0.406541 -13.097869
v 40.757389 1.295510 -12.615503
v 40.754883 1.295510 -12.699571
v 40.746265 1.295510 -12.988800
v 40.743763 1.295510 -13.072868
v 40.735146 1.295510 -13.362098
v 40.755119 1.514729 -12.691679
v 40.748489 1.514729 -12.914148
v 40.743179 1.514729 -13.092492
v 40.736549 1.514729 -13.314961
v 40.761909 1.514730 -12.463769
v 40.763149 1.514730 -12.422192
v 40.796928 0.406541 -14.325164
v 40.795048 0.597165 -14.388314
v 40.814312 0.643225 -13.741760
v 40.809761 0.684292 -13.894495
v 40.786045 0.406541 -14.284379
v 40.786045 0.372824 -14.284379
v 40.790699 0.406541 -14.128178
v 40.801449 0.643225 -14.173535
v 40.823349 0.643225 -13.438502
v 40.789959 1.574801 -14.559178
v 40.803013 1.574798 -14.120988
v 40.821262 1.574798 -13.508460
v 40.803013 0.406541 -14.120988
v 40.809097 0.406541 -13.916812
v 40.821262 0.406541 -13.508460
v 40.790699 0.372824 -14.128178
v 40.990303 0.224800 -14.321071
v 40.996841 0.224800 -14.101653
v 40.795048 1.574798 -14.388313
v 40.785980 1.411592 -14.692680
v 40.793339 0.406541 -14.445646
v 40.792412 0.558040 -14.476793
v 40.790497 0.558040 -14.541052
v 40.790497 1.334635 -14.541052
v 40.820713 0.684292 -13.526981
v 40.812397 0.643225 -13.806019
v 40.795048 1.295510 -14.388313
v 40.803364 1.249446 -14.109276
v 40.812397 1.249446 -13.806019
v 40.809761 1.208380 -13.894495
v 40.814312 1.249446 -13.741760
v 40.787266 1.519064 -14.649510
v 40.820713 1.208380 -13.526981
v 40.823349 1.249446 -13.438502
v 40.816948 1.208380 -13.653279
v 40.806000 1.208380 -14.020798
v 40.798813 1.208380 -14.262012
v 40.801449 1.249449 -14.173535
v 40.792412 1.334635 -14.476793
v 40.798813 0.684292 -14.262012
v 40.806000 0.684292 -14.020798
v 40.803364 0.643225 -14.109276
v 40.816948 0.684292 -13.653279
v 40.787861 1.295507 -14.629530
v 40.787861 0.597165 -14.629530
v 40.788773 0.442266 -14.598904
v 40.785980 0.546411 -14.692680
v 40.809097 1.574798 -13.916812
v 40.815182 1.574798 -13.712636
v 40.815178 0.406541 -13.712636
v 40.800808 1.295510 -14.195002
v 40.803314 1.295510 -14.110934
v 40.811932 1.295510 -13.821705
v 40.814434 1.295510 -13.737637
v 40.823051 1.295510 -13.448407
v 40.803078 1.514729 -14.118826
v 40.809708 1.514729 -13.896357
v 40.815022 1.514729 -13.718013
v 40.821648 1.514729 -13.495543
v 40.796288 1.514730 -14.346736
v 40.795048 1.514730 -14.388313
v 40.851665 0.406541 -12.488034
v 40.853546 0.597165 -12.424884
v 40.834286 0.643225 -13.071439
v 40.838833 0.684292 -12.918703
v 40.838371 0.406541 -12.528099
v 40.838371 0.372824 -12.528099
v 40.833717 0.406541 -12.684299
v 40.847149 0.643225 -12.639664
v 40.825249 0.643225 -13.374696
v 40.858639 1.574801 -12.254020
v 40.845585 1.574798 -12.692210
v 40.827332 1.574798 -13.304738
v 40.845581 0.406541 -12.692210
v 40.839500 0.406541 -12.896386
v 40.827332 0.406541 -13.304738
v 40.833717 0.372824 -12.684299
v 41.044453 0.224800 -12.503633
v 41.037918 0.224800 -12.723050
v 40.853546 1.574798 -12.424886
v 40.862617 1.411592 -12.120518
v 40.855255 0.406541 -12.367552
v 40.856182 0.558040 -12.336405
v 40.858097 0.558040 -12.272146
v 40.858097 1.334635 -12.272146
v 40.827885 0.684292 -13.286217
v 40.836197 0.643225 -13.007179
v 40.853546 1.295510 -12.424886
v 40.845234 1.249446 -12.703922
v 40.836197 1.249446 -13.007179
v 40.838833 1.208380 -12.918703
v 40.834286 1.249446 -13.071439
v 40.861332 1.519064 -12.163688
v 40.827885 1.208380 -13.286217
v 40.825249 1.249446 -13.374696
v 40.831646 1.208380 -13.159919
v 40.842598 1.208380 -12.792400
v 40.849785 1.208380 -12.551186
v 40.847149 1.249449 -12.639664
v 40.856186 1.334635 -12.336405
v 40.849785 0.684292 -12.551186
v 40.842598 0.684292 -12.792400
v 40.845234 0.643225 -12.703922
v 40.831646 0.684292 -13.159919
v 40.860733 1.295507 -12.183668
v 40.860733 0.597165 -12.183668
v 40.859821 0.442266 -12.214294
v 40.862617 0.546411 -12.120518
v 40.839500 1.574798 -12.896386
v 40.833416 1.574798 -13.100562
v 40.833416 0.406541 -13.100562
v 40.847790 1.295510 -12.618196
v 40.845284 1.295510 -12.702264
v 40.836666 1.295510 -12.991493
v 40.834160 1.295510 -13.075562
v 40.825542 1.295510 -13.364792
v 40.845520 1.514729 -12.694372
v 40.838890 1.514729 -12.916842
v 40.833576 1.514729 -13.095185
v 40.826950 1.514729 -13.317655
v 40.852310 1.514730 -12.466462
v 40.853546 1.514730 -12.424886
vn -0.0156 0.8511 -0.5247
vn -0.5847 0.8111 0.0174
vn -0.9996 -0.0000 0.0298
vn -0.9996 -0.0001 0.0298
vn -0.9996 0.0001 0.0298
vn -0.0000 1.0000 -0.0000
vn -0.0068 -0.9739 -0.2268
vn -0.0221 -0.6693 -0.7426
vn -0.0000 -1.0000 -0.0000
vn -0.0298 -0.0000 -0.9996
vn -0.0276 0.3729 -0.9275
vn -0.0292 0.2024 -0.9789
vn 0.0125 0.9071 0.4207
vn 0.9996 0.0001 -0.0298
vn 0.9996 -0.0000 -0.0298
vn 0.0125 -0.9071 0.4206
vn 0.0125 -0.9071 0.4207
vn -0.0125 -0.9071 -0.4207
vn 0.0298 -0.0000 0.9996
vn -0.0125 0.9071 -0.4207
vn 0.0156 0.8511 0.5247
vn 0.0068 -0.9739 0.2268
vn 0.0221 -0.6693 0.7426
vn 0.0276 0.3729 0.9275
vn 0.0292 0.2024 0.9789
vn 0.0120 -0.9146 0.4041
vn -0.0120 -0.9146 -0.4041
vn -0.0120 0.9146 -0.4041
vn 0.0120 0.9146 0.4041
vn -0.0291 0.2154 -0.9761
vn 0.0291 0.2154 0.9761
vn 0.5847 0.8111 -0.0174
vn 0.9996 -0.0001 -0.0298
vt 0.563424 0.076340
vt 0.553130 0.073518
vt 0.930572 0.423953
vt 0.921307 0.379121
vt 0.987792 0.379121
vt 0.977903 0.423953
vt 0.607372 0.029178
vt 0.597289 0.031257
vt 0.582896 0.026846
vt 0.590093 0.017196
vt 0.572813 0.024865
vt 0.576362 0.017196
vt 0.613360 0.017196
vt 0.614695 0.029178
vt 0.558897 0.019004
vt 0.565490 0.024865
vt 0.555407 0.026846
vt 0.548211 0.024277
vt 0.555407 0.062200
vt 0.548211 0.068077
vt 0.639171 0.057790
vt 0.624778 0.057790
vt 0.624778 0.031257
vt 0.639171 0.031257
vt 0.597289 0.057790
vt 0.582896 0.062201
vt 0.649254 0.029178
vt 0.691136 0.029178
vt 0.681053 0.031257
vt 0.666660 0.031257
vt 0.656577 0.029178
vt 0.565490 0.064181
vt 0.572813 0.064181
vt 0.666660 0.057790
vt 0.681053 0.057790
vt 0.691136 0.059869
vt 0.656577 0.059869
vt 0.649254 0.059869
vt 0.614695 0.059869
vt 0.706379 0.076340
vt 0.683164 0.076340
vt 0.613360 0.076340
vt 0.582896 0.076340
vt 0.659896 0.017196
vt 0.683164 0.017196
vt 0.659896 0.076340
vt 0.636628 0.076340
vt 0.636628 0.017196
vt 0.614506 0.062201
vt 0.604926 0.062201
vt 0.607372 0.059869
vt 0.613607 0.073299
vt 0.638959 0.073299
vt 0.657047 0.062201
vt 0.647466 0.062201
vt 0.659283 0.073299
vt 0.684635 0.073299
vt 0.688839 0.081258
vt 0.699816 0.081258
vt 0.706005 0.126709
vt 0.682651 0.126709
vt 0.698407 0.059869
vt 0.699536 0.062201
vt 0.690007 0.062201
vt 0.612500 0.017196
vt 0.594699 0.017196
vt 0.977903 0.434165
vt 0.930572 0.434165
vt 0.704907 0.073299
vt 0.706379 0.017196
vt 0.698407 0.029178
vt 0.653445 0.126709
vt 0.630032 0.126709
vt 0.639832 0.081258
vt 0.650869 0.081258
vt 0.600826 0.126709
vt 0.570905 0.126710
vt 0.590825 0.081258
vt 0.601862 0.081258
vt 0.587634 0.073299
vt 0.806647 0.062201
vt 0.806647 0.026846
vt 0.565447 0.081258
vt 0.565447 0.126710
vt 0.582896 0.073299
vt 0.836413 0.073518
vt 0.826118 0.076340
vt 0.729647 0.076340
vt 0.978547 0.423953
vt 0.931216 0.423953
vt 0.921327 0.379121
vt 0.987812 0.379121
vt 0.782171 0.029178
vt 0.799450 0.017196
vt 0.792254 0.031257
vt 0.813181 0.017196
vt 0.816730 0.024865
vt 0.774848 0.029178
vt 0.776183 0.017196
vt 0.830646 0.019004
vt 0.841332 0.024277
vt 0.834136 0.026846
vt 0.824053 0.024865
vt 0.841332 0.068077
vt 0.834136 0.062200
vt 0.750372 0.057790
vt 0.750372 0.031257
vt 0.764765 0.031257
vt 0.764765 0.057790
vt 0.792254 0.057790
vt 0.740289 0.029178
vt 0.732966 0.029178
vt 0.722883 0.031257
vt 0.708490 0.031257
vt 0.816730 0.064181
vt 0.824053 0.064181
vt 0.722883 0.057790
vt 0.732966 0.059869
vt 0.708490 0.057790
vt 0.740289 0.059869
vt 0.774848 0.059869
vt 0.806647 0.076340
vt 0.776183 0.076340
vt 0.729647 0.017196
vt 0.752915 0.076340
vt 0.752915 0.017196
vt 0.775037 0.062201
vt 0.782171 0.059869
vt 0.784617 0.062201
vt 0.775936 0.073299
vt 0.750584 0.073299
vt 0.732496 0.062201
vt 0.742077 0.062201
vt 0.730260 0.073299
vt 0.777043 0.017196
vt 0.794844 0.017196
vt 0.978547 0.434165
vt 0.931216 0.434165
vt 0.735211 0.126709
vt 0.737787 0.081258
vt 0.748824 0.081258
vt 0.758624 0.126709
vt 0.787830 0.126709
vt 0.786794 0.081258
vt 0.797831 0.081258
vt 0.817751 0.126710
vt 0.801909 0.073299
vt 0.823209 0.081258
vt 0.823209 0.126710
vt 0.806647 0.073299
s 1
usemtl initialShadingGroup.004
f 10/1/1 132/1/1 154/2/1 32/2/1
f 6/3/2 17/4/2 18/5/2 16/6/2
f 8/7/3 40/8/3 2/9/3 1/10/3
f 1/10/3 2/9/3 22/11/3 21/12/3
f 1/10/3 13/13/3 42/14/3 8/7/3
f 46/15/3 23/16/3 45/17/3 47/18/3
f 45/17/3 44/19/3 20/20/3 47/18/3
f 30/21/3 36/22/3 41/23/4 4/24/4
f 40/8/3 37/25/3 27/26/3 2/9/3
f 23/16/3 46/15/3 21/12/3 22/11/3
f 4/24/4 41/23/4 42/14/3 26/27/3
f 9/28/3 25/29/4 43/30/4 3/31/3
f 10/1/3 32/2/3 24/32/3 39/33/3
f 35/34/5 33/35/5 34/36/3 31/37/5
f 29/38/5 28/39/3 36/22/3 30/21/3
f 43/30/4 25/29/4 33/35/5 35/34/5
f 73/40/6 195/40/6 134/41/6 12/41/6
f 46/15/7 168/15/7 143/12/7 21/12/7
f 11/42/6 133/42/6 141/43/6 19/43/6
f 47/18/8 169/18/8 168/15/8 46/15/8
f 50/44/9 172/44/9 137/45/9 15/45/9
f 19/43/6 141/43/6 132/1/6 10/1/6
f 20/20/3 44/19/3 24/32/3 32/2/3
f 49/46/6 171/46/6 170/47/6 48/47/6
f 26/27/3 42/14/3 13/13/3 14/48/3
f 14/48/3 50/44/3 3/31/3 26/27/3
f 9/28/3 3/31/3 50/44/3 15/45/3
f 52/49/3 51/50/3 38/51/3 28/39/3
f 56/52/3 57/53/3 48/47/3 11/42/3
f 54/54/3 53/55/3 29/38/5 31/37/5
f 58/56/3 59/57/3 12/41/3 49/46/3
f 55/58/3 116/59/3 120/60/3 59/61/3
f 13/13/9 135/13/9 136/48/9 14/48/9
f 20/20/10 142/20/10 169/18/10 47/18/10
f 34/36/3 95/62/3 116/63/3 55/64/3
f 48/47/6 170/47/6 133/42/6 11/42/6
f 32/2/11 154/2/11 142/20/11 20/20/11
f 14/48/9 136/48/9 172/44/9 50/44/9
f 7/65/9 13/13/9 1/10/9 5/66/9
f 6/3/3 16/6/3 7/67/3 5/68/3
f 139/4/12 17/4/12 6/3/12 128/3/12
f 5/68/10 127/68/10 128/3/10 6/3/10
f 7/65/9 129/65/9 135/13/9 13/13/9
f 1/10/9 123/10/9 127/66/9 5/66/9
f 3/31/6 125/31/6 148/27/6 26/27/6
f 26/27/13 148/27/13 126/24/13 4/24/13
f 134/41/14 195/40/15 242/69/15 181/57/15
f 156/36/9 217/62/9 95/62/9 34/36/9
f 33/35/16 155/35/16 156/36/16 34/36/16
f 37/25/17 159/25/17 160/51/17 38/51/17
f 31/37/18 153/37/18 157/34/18 35/34/18
f 25/29/19 147/29/19 155/35/19 33/35/19
f 9/28/13 131/28/13 147/29/13 25/29/13
f 4/24/19 126/24/19 152/21/19 30/21/19
f 8/7/13 130/7/13 162/8/13 40/8/13
f 40/8/19 162/8/19 159/25/19 37/25/19
f 43/30/20 165/30/20 125/31/20 3/31/20
f 38/51/9 160/51/9 150/39/9 28/39/9
f 76/70/3 70/71/3 9/28/3 15/45/3
f 36/22/10 158/22/10 163/23/10 41/23/10
f 35/34/10 157/34/10 165/30/10 43/30/10
f 42/14/6 164/14/6 130/7/6 8/7/6
f 28/39/18 150/39/18 158/22/18 36/22/18
f 31/37/5 34/36/3 55/64/3 54/54/3
f 58/72/3 57/73/3 53/74/3 54/75/3
f 28/39/3 29/38/5 53/55/3 52/49/3
f 56/76/3 60/77/3 51/78/3 52/79/3
f 37/25/3 38/51/3 51/50/3 27/26/3
f 11/42/3 19/43/3 60/80/3 56/52/3
f 49/46/3 48/47/3 57/53/3 58/56/3
f 210/81/19 88/81/19 63/82/19 185/82/19
f 54/75/3 55/58/3 59/61/3 58/72/3
f 52/79/3 53/74/3 57/73/3 56/76/3
f 27/83/3 51/78/3 60/77/3 61/84/3
f 27/26/3 61/85/3 10/1/3 39/33/3
f 10/1/3 61/85/3 60/80/3 19/43/3
f 12/41/6 134/41/6 171/46/6 49/46/6
f 41/23/20 163/23/20 164/14/20 42/14/20
f 15/45/9 137/45/9 198/70/9 76/70/9
f 93/86/21 215/86/21 193/87/21 71/87/21
f 110/88/6 232/88/6 195/40/6 73/40/6
f 67/89/2 77/90/2 79/91/2 78/92/2
f 69/93/3 62/94/3 63/82/3 101/95/3
f 62/94/3 82/96/3 83/97/3 63/82/3
f 62/94/3 69/93/3 103/98/3 74/99/3
f 107/100/3 108/101/3 106/102/3 84/103/3
f 106/102/3 108/101/3 81/104/3 105/105/3
f 91/106/3 65/107/3 102/108/3 97/109/3
f 101/95/3 63/82/3 88/81/3 98/110/3
f 84/103/3 83/97/3 82/96/3 107/100/3
f 65/107/3 87/111/3 103/98/3 102/108/3
f 70/71/3 64/112/3 104/113/5 86/114/5
f 71/87/3 100/115/3 85/116/3 93/86/3
f 96/117/3 92/118/3 95/62/3 94/119/3
f 90/120/3 91/106/3 97/109/3 89/121/4
f 104/113/5 96/117/3 94/119/3 86/114/5
f 198/70/15 137/45/15 131/28/15 192/71/15
f 82/96/22 204/96/22 229/100/22 107/100/22
f 80/122/6 202/122/6 194/123/6 72/123/6
f 107/100/23 229/100/23 230/101/23 108/101/23
f 76/70/9 198/70/9 233/124/9 111/124/9
f 71/87/6 193/87/6 202/122/6 80/122/6
f 81/104/3 93/86/3 85/116/3 105/105/3
f 109/125/6 231/125/6 232/88/6 110/88/6
f 87/111/3 75/126/3 74/99/3 103/98/3
f 75/126/3 87/111/3 64/112/3 111/124/3
f 70/71/3 76/70/3 111/124/3 64/112/3
f 113/127/3 89/121/4 99/128/3 112/129/3
f 117/130/3 72/123/3 109/125/3 118/131/3
f 115/132/3 92/118/3 90/120/3 114/133/3
f 119/134/3 110/88/3 73/40/3 120/69/3
f 75/126/9 197/126/9 196/99/9 74/99/9
f 108/101/19 230/101/19 203/104/19 81/104/19
f 72/123/6 194/123/6 231/125/6 109/125/6
f 103/98/13 225/98/13 224/108/13 102/108/13
f 81/104/24 203/104/24 215/86/24 93/86/24
f 111/124/9 233/124/9 197/126/9 75/126/9
f 68/135/9 66/136/9 62/94/9 74/99/9
f 67/89/3 66/137/3 68/138/3 77/90/3
f 200/92/25 189/89/25 67/89/25 78/92/25
f 67/89/19 189/89/19 188/137/19 66/137/19
f 74/99/9 196/99/9 190/135/9 68/135/9
f 66/136/9 188/136/9 184/94/9 62/94/9
f 87/111/6 209/111/6 186/112/6 64/112/6
f 65/107/20 187/107/20 209/111/20 87/111/20
f 97/109/17 219/109/17 211/121/17 89/121/17
f 95/62/18 217/62/18 216/119/18 94/119/18
f 99/128/18 221/128/18 220/110/18 98/110/18
f 96/117/17 218/117/17 214/118/17 92/118/17
f 94/119/10 216/119/10 208/114/10 86/114/10
f 86/114/20 208/114/20 192/71/20 70/71/20
f 91/106/10 213/106/10 187/107/10 65/107/10
f 101/95/20 223/95/20 191/93/20 69/93/20
f 98/110/10 220/110/10 223/95/10 101/95/10
f 64/112/13 186/112/13 226/113/13 104/113/13
f 89/121/9 211/121/9 221/128/9 99/128/9
f 102/108/19 224/108/19 219/109/19 97/109/19
f 104/113/19 226/113/19 218/117/19 96/117/19
f 69/93/6 191/93/6 225/98/6 103/98/6
f 92/118/3 115/132/3 116/63/3 95/62/3
f 119/139/3 115/140/3 114/141/3 118/142/3
f 89/121/4 113/127/3 114/133/3 90/120/3
f 117/143/3 113/144/3 112/145/3 121/146/3
f 98/110/3 88/81/3 112/129/3 99/128/3
f 72/123/3 117/130/3 121/147/3 80/122/3
f 110/88/3 119/134/3 118/131/3 109/125/3
f 115/140/3 119/139/3 120/60/3 116/59/3
f 113/144/3 117/143/3 118/142/3 114/141/3
f 88/148/3 122/149/3 121/146/3 112/145/3
f 88/81/3 100/115/3 71/87/3 122/150/3
f 71/87/3 80/122/3 121/147/3 122/150/3
f 17/4/9 139/4/9 140/5/9 18/5/9
f 149/26/10 124/9/10 2/9/10 27/26/10
f 222/115/26 100/115/26 88/81/26 210/81/26
f 222/115/9 207/116/9 85/116/9 100/115/9
f 207/116/27 227/105/27 105/105/27 85/116/27
f 227/105/10 228/102/10 106/102/10 105/105/10
f 206/103/28 84/103/28 106/102/28 228/102/28
f 206/103/6 205/97/6 83/97/6 84/103/6
f 185/82/29 63/82/29 83/97/29 205/97/29
f 213/106/18 91/106/18 90/120/18 212/120/18
f 199/90/10 77/90/10 68/138/10 190/138/10
f 199/90/30 201/91/30 79/91/30 77/90/30
f 62/94/9 184/94/9 204/96/9 82/96/9
f 92/118/9 214/118/9 212/120/9 90/120/9
f 161/33/27 149/26/27 27/26/27 39/33/27
f 161/33/9 39/33/9 24/32/9 146/32/9
f 146/32/26 24/32/26 44/19/26 166/19/26
f 166/19/19 44/19/19 45/17/19 167/17/19
f 145/16/29 167/17/29 45/17/29 23/16/29
f 145/16/6 23/16/6 22/11/6 144/11/6
f 124/9/28 144/11/28 22/11/28 2/9/28
f 152/21/17 151/38/17 29/38/17 30/21/17
f 138/6/19 129/67/19 7/67/19 16/6/19
f 138/6/31 16/6/31 18/5/31 140/5/31
f 21/12/9 143/12/9 123/10/9 1/10/9
f 29/38/9 151/38/9 153/37/9 31/37/9
f 128/3/32 138/6/32 140/5/32 139/4/32
f 130/7/15 123/10/15 124/9/15 162/8/15
f 123/10/15 143/12/15 144/11/15 124/9/15
f 123/10/15 130/7/15 164/14/15 135/13/15
f 168/15/15 169/18/15 167/17/15 145/16/15
f 167/17/15 169/18/15 142/20/15 166/19/15
f 152/21/15 126/24/15 163/23/15 158/22/15
f 162/8/15 124/9/15 149/26/15 159/25/15
f 145/16/15 144/11/15 143/12/15 168/15/15
f 126/24/15 148/27/15 164/14/15 163/23/15
f 131/28/15 125/31/15 165/30/15 147/29/15
f 132/1/15 161/33/15 146/32/15 154/2/15
f 157/34/15 153/37/15 156/36/14 155/35/15
f 151/38/33 152/21/15 158/22/15 150/39/33
f 165/30/15 157/34/15 155/35/15 147/29/15
f 142/20/15 154/2/15 146/32/15 166/19/15
f 148/27/15 136/48/15 135/13/15 164/14/15
f 136/48/15 148/27/15 125/31/15 172/44/15
f 131/28/15 137/45/15 172/44/15 125/31/15
f 174/49/15 150/39/33 160/51/15 173/50/15
f 178/52/15 133/42/15 170/47/15 179/53/15
f 176/54/15 153/37/15 151/38/33 175/55/15
f 180/56/15 171/46/15 134/41/14 181/57/15
f 181/61/15 242/60/15 238/59/15 177/58/14
f 177/64/14 238/63/15 217/62/15 156/36/14
f 129/65/9 127/66/9 123/10/9 135/13/9
f 128/3/15 127/68/15 129/67/15 138/6/15
f 153/37/15 176/54/15 177/64/14 156/36/14
f 180/72/15 176/75/15 175/74/15 179/73/15
f 150/39/33 174/49/15 175/55/15 151/38/33
f 178/76/15 174/79/15 173/78/15 182/77/15
f 159/25/15 149/26/15 173/50/15 160/51/15
f 133/42/15 178/52/15 182/80/15 141/43/15
f 171/46/15 180/56/15 179/53/15 170/47/15
f 176/75/15 180/72/15 181/61/15 177/58/14
f 174/79/15 178/76/15 179/73/15 175/74/15
f 149/83/15 183/84/15 182/77/15 173/78/15
f 149/26/15 161/33/15 132/1/15 183/85/15
f 132/1/15 141/43/15 182/80/15 183/85/15
f 131/28/6 9/28/6 70/71/6 192/71/6
f 189/89/32 200/92/32 201/91/32 199/90/32
f 191/93/15 223/95/15 185/82/15 184/94/15
f 184/94/15 185/82/15 205/97/15 204/96/15
f 184/94/15 196/99/15 225/98/15 191/93/15
f 229/100/15 206/103/15 228/102/15 230/101/15
f 228/102/15 227/105/15 203/104/15 230/101/15
f 213/106/15 219/109/15 224/108/15 187/107/15
f 223/95/15 220/110/15 210/81/15 185/82/15
f 206/103/15 229/100/15 204/96/15 205/97/15
f 187/107/15 224/108/15 225/98/15 209/111/15
f 192/71/15 208/114/33 226/113/33 186/112/15
f 193/87/15 215/86/15 207/116/15 222/115/15
f 218/117/14 216/119/14 217/62/15 214/118/15
f 212/120/15 211/121/15 219/109/15 213/106/15
f 226/113/33 208/114/33 216/119/14 218/117/14
f 203/104/15 227/105/15 207/116/15 215/86/15
f 209/111/15 225/98/15 196/99/15 197/126/15
f 197/126/15 233/124/15 186/112/15 209/111/15
f 192/71/15 186/112/15 233/124/15 198/70/15
f 235/127/15 234/129/15 221/128/15 211/121/15
f 239/130/15 240/131/15 231/125/15 194/123/15
f 237/132/15 236/133/15 212/120/15 214/118/15
f 241/134/15 242/69/15 195/40/15 232/88/15
f 190/135/9 196/99/9 184/94/9 188/136/9
f 189/89/15 199/90/15 190/138/15 188/137/15
f 214/118/15 217/62/15 238/63/15 237/132/15
f 241/139/15 240/142/15 236/141/15 237/140/15
f 211/121/15 212/120/15 236/133/15 235/127/15
f 239/143/15 243/146/15 234/145/15 235/144/15
f 220/110/15 221/128/15 234/129/15 210/81/15
f 194/123/15 202/122/15 243/147/15 239/130/15
f 232/88/15 231/125/15 240/131/15 241/134/15
f 237/140/15 238/59/15 242/60/15 241/139/15
f 235/144/15 236/141/15 240/142/15 239/143/15
f 210/148/15 234/145/15 243/146/15 244/149/15
f 210/81/15 244/150/15 193/87/15 222/115/15
f 193/87/15 244/150/15 243/147/15 202/122/15
f 59/57/3 120/69/3 73/40/3 12/41/3
f 79/91/9 201/91/9 200/92/9 78/92/9
