# Blender 5.1.0
# www.blender.org
mtllib barriere55_048.mtl
o barriere55.048
v 19.543840 0.406543 14.120685
v 19.484055 0.597167 14.141112
v 20.096151 0.643227 13.931967
v 19.951555 0.684294 13.981373
v 19.578199 0.406543 14.096164
v 19.578199 0.372826 14.096164
v 19.726076 0.406543 14.045636
v 19.687387 0.643227 14.071636
v 20.383247 0.643227 13.833870
v 19.322298 1.574803 14.196383
v 19.737135 1.574800 14.054639
v 20.317017 1.574800 13.856499
v 19.737135 0.406543 14.054639
v 19.930429 0.406543 13.988592
v 20.317017 0.406543 13.856499
v 19.726076 0.372826 14.045636
v 19.615618 0.224802 14.300291
v 19.823341 0.224802 14.229314
v 19.484056 1.574800 14.141112
v 19.195911 1.411594 14.239569
v 19.429779 0.406543 14.159658
v 19.400291 0.558042 14.169734
v 19.339458 0.558042 14.190519
v 19.339458 1.334637 14.190519
v 20.299482 0.684294 13.862491
v 20.035316 0.643227 13.952753
v 19.484056 1.295512 14.141112
v 19.748222 1.249448 14.050850
v 20.035316 1.249448 13.952753
v 19.951555 1.208382 13.981373
v 20.096151 1.249448 13.931967
v 19.236780 1.519066 14.225604
v 20.299482 1.208382 13.862491
v 20.383247 1.249448 13.833870
v 20.179916 1.208382 13.903345
v 19.831985 1.208382 14.022229
v 19.603626 1.208382 14.100257
v 19.687387 1.249451 14.071636
v 19.400291 1.334637 14.169734
v 19.603626 0.684294 14.100257
v 19.831985 0.684294 14.022229
v 19.748222 0.643227 14.050850
v 20.179916 0.684294 13.903345
v 19.255695 1.295509 14.219141
v 19.255695 0.597167 14.219141
v 19.284689 0.442268 14.209233
v 19.195911 0.546413 14.239569
v 19.930429 1.574800 13.988592
v 20.123724 1.574800 13.922545
v 20.123724 0.406543 13.922545
v 19.667065 1.295512 14.078580
v 19.746653 1.295512 14.051386
v 20.020468 1.295512 13.957827
v 20.100056 1.295512 13.930633
v 20.373871 1.295512 13.837073
v 19.739182 1.514731 14.053939
v 19.949793 1.514731 13.981976
v 20.118633 1.514731 13.924285
v 20.329245 1.514731 13.852321
v 19.523417 1.514732 14.127663
v 19.484056 1.514732 14.141112
v 21.283060 0.406543 13.526414
v 21.342844 0.597167 13.505986
v 20.730747 0.643227 13.715133
v 20.875343 0.684294 13.665726
v 21.240879 0.406543 13.528046
v 21.240879 0.372826 13.528046
v 21.093002 0.406543 13.578573
v 21.139511 0.643227 13.575462
v 20.443653 0.643227 13.813230
v 21.504602 1.574803 13.450715
v 21.089766 1.574800 13.592461
v 20.509882 1.574800 13.790600
v 21.089766 0.406543 13.592461
v 20.896471 0.406543 13.658506
v 20.509882 0.406543 13.790600
v 21.093002 0.372826 13.578573
v 21.336195 0.224802 13.712390
v 21.128471 0.224802 13.783366
v 21.342842 1.574800 13.505986
v 21.630989 1.411594 13.407531
v 21.397120 0.406543 13.487440
v 21.426607 0.558042 13.477365
v 21.487440 0.558042 13.456579
v 21.487440 1.334637 13.456579
v 20.527416 0.684294 13.784608
v 20.791582 0.643227 13.694346
v 21.342842 1.295512 13.505986
v 21.078676 1.249448 13.596249
v 20.791582 1.249448 13.694346
v 20.875343 1.208382 13.665726
v 20.730747 1.249448 13.715133
v 21.590118 1.519066 13.421495
v 20.527416 1.208382 13.784608
v 20.443653 1.249448 13.813230
v 20.646982 1.208382 13.743753
v 20.994915 1.208382 13.624869
v 21.223274 1.208382 13.546842
v 21.139511 1.249451 13.575462
v 21.426607 1.334637 13.477365
v 21.223274 0.684294 13.546842
v 20.994915 0.684294 13.624869
v 21.078676 0.643227 13.596249
v 20.646982 0.684294 13.743753
v 21.571203 1.295509 13.427958
v 21.571203 0.597167 13.427958
v 21.542210 0.442268 13.437865
v 21.630989 0.546413 13.407531
v 20.896471 1.574800 13.658506
v 20.703176 1.574800 13.724553
v 20.703176 0.406543 13.724553
v 21.159834 1.295512 13.568519
v 21.080246 1.295512 13.595713
v 20.806433 1.295512 13.689272
v 20.726845 1.295512 13.716465
v 20.453030 1.295512 13.810025
v 21.087717 1.514731 13.593160
v 20.877106 1.514731 13.665124
v 20.708267 1.514731 13.722814
v 20.497654 1.514731 13.794778
v 21.303482 1.514732 13.519436
v 21.342842 1.514732 13.505986
v 19.514597 0.406543 14.035104
v 19.454813 0.597167 14.055532
v 20.066910 0.643227 13.846385
v 19.922314 0.684294 13.895792
v 19.556778 0.406543 14.033472
v 19.556778 0.372826 14.033472
v 19.704655 0.406543 13.982944
v 19.658146 0.643227 13.986055
v 20.354004 0.643227 13.748288
v 19.293055 1.574803 14.110802
v 19.707891 1.574800 13.969057
v 20.287775 1.574800 13.770918
v 19.707891 0.406543 13.969057
v 19.901186 0.406543 13.903011
v 20.287775 0.406543 13.770918
v 19.704655 0.372826 13.982944
v 19.461462 0.224802 13.849128
v 19.669186 0.224802 13.778152
v 19.454815 1.574800 14.055531
v 19.166668 1.411594 14.153987
v 19.400537 0.406543 14.074078
v 19.371050 0.558042 14.084152
v 19.310217 0.558042 14.104939
v 19.310217 1.334637 14.104939
v 20.270241 0.684294 13.776909
v 20.006075 0.643227 13.867171
v 19.454815 1.295512 14.055531
v 19.718981 1.249448 13.965268
v 20.006075 1.249448 13.867171
v 19.922314 1.208382 13.895792
v 20.066910 1.249448 13.846385
v 19.207539 1.519066 14.140022
v 20.270241 1.208382 13.776909
v 20.354004 1.249448 13.748288
v 20.150675 1.208382 13.817763
v 19.802742 1.208382 13.936648
v 19.574383 1.208382 14.014676
v 19.658146 1.249451 13.986055
v 19.371050 1.334637 14.084152
v 19.574383 0.684294 14.014676
v 19.802742 0.684294 13.936648
v 19.718981 0.643227 13.965269
v 20.150675 0.684294 13.817764
v 19.226454 1.295509 14.133559
v 19.226454 0.597167 14.133559
v 19.255447 0.442268 14.123652
v 19.166668 0.546413 14.153987
v 19.901186 1.574800 13.903010
v 20.094481 1.574800 13.836965
v 20.094481 0.406543 13.836965
v 19.637823 1.295512 13.992999
v 19.717411 1.295512 13.965805
v 19.991224 1.295512 13.872246
v 20.070812 1.295512 13.845052
v 20.344627 1.295512 13.751493
v 19.709940 1.514731 13.968358
v 19.920551 1.514731 13.896394
v 20.089390 1.514731 13.838704
v 20.300003 1.514731 13.766740
v 19.494175 1.514732 14.042082
v 19.454815 1.514732 14.055531
v 21.253817 0.406543 13.440833
v 21.313602 0.597167 13.420405
v 20.701506 0.643227 13.629551
v 20.846102 0.684294 13.580145
v 21.219458 0.406543 13.465353
v 21.219458 0.372826 13.465353
v 21.071581 0.406543 13.515882
v 21.110270 0.643227 13.489882
v 20.414410 0.643227 13.727649
v 21.475359 1.574803 13.365134
v 21.060522 1.574800 13.506879
v 20.480640 1.574800 13.705018
v 21.060522 0.406543 13.506879
v 20.867228 0.406543 13.572926
v 20.480640 0.406543 13.705019
v 21.071581 0.372826 13.515882
v 21.182039 0.224802 13.261227
v 20.974316 0.224802 13.332204
v 21.313601 1.574800 13.420405
v 21.601746 1.411594 13.321949
v 21.367878 0.406543 13.401859
v 21.397366 0.558042 13.391784
v 21.458199 0.558042 13.370998
v 21.458199 1.334637 13.370997
v 20.498175 0.684294 13.699027
v 20.762341 0.643227 13.608765
v 21.313601 1.295512 13.420405
v 21.049435 1.249448 13.510668
v 20.762341 1.249448 13.608765
v 20.846102 1.208382 13.580145
v 20.701506 1.249448 13.629551
v 21.560877 1.519066 13.335914
v 20.498175 1.208382 13.699027
v 20.414410 1.249448 13.727648
v 20.617741 1.208382 13.658173
v 20.965672 1.208382 13.539289
v 21.194031 1.208382 13.461261
v 21.110270 1.249451 13.489882
v 21.397366 1.334637 13.391784
v 21.194031 0.684294 13.461261
v 20.965672 0.684294 13.539289
v 21.049435 0.643227 13.510668
v 20.617741 0.684294 13.658173
v 21.541962 1.295509 13.342377
v 21.541962 0.597167 13.342377
v 21.512968 0.442268 13.352284
v 21.601746 0.546413 13.321949
v 20.867228 1.574800 13.572926
v 20.673933 1.574800 13.638972
v 20.673933 0.406543 13.638972
v 21.130592 1.295512 13.482938
v 21.051004 1.295512 13.510131
v 20.777189 1.295512 13.603691
v 20.697601 1.295512 13.630885
v 20.423786 1.295512 13.724444
v 21.058475 1.514731 13.507579
v 20.847862 1.514731 13.579542
v 20.679024 1.514731 13.637233
v 20.468412 1.514731 13.709196
v 21.274239 1.514732 13.433854
v 21.313601 1.514732 13.420405
vn -0.4967 0.8511 0.1697
vn 0.1891 0.8111 0.5535
vn 0.3233 -0.0000 0.9463
vn -0.0000 1.0000 -0.0000
vn -0.2147 -0.9739 0.0734
vn -0.7031 -0.6693 0.2402
vn -0.0000 -1.0000 -0.0000
vn -0.9463 -0.0000 0.3233
vn -0.8780 0.3729 0.3000
vn -0.9267 0.2024 0.3166
vn 0.3982 0.9071 -0.1361
vn -0.3233 -0.0000 -0.9463
vn 0.3982 -0.9071 -0.1361
vn 0.3983 -0.9071 -0.1361
vn -0.3982 -0.9071 0.1361
vn 0.9463 -0.0000 -0.3233
vn 0.3983 0.9071 -0.1361
vn 0.9463 -0.0000 -0.3234
vn -0.3982 0.9071 0.1361
vn -0.3983 0.9071 0.1361
vn 0.4967 0.8511 -0.1697
vn 0.2147 -0.9739 -0.0734
vn 0.7031 -0.6693 -0.2402
vn 0.8780 0.3729 -0.3000
vn 0.9267 0.2024 -0.3166
vn -0.3983 -0.9071 0.1361
vn -0.9463 -0.0000 0.3234
vn 0.3825 -0.9146 -0.1307
vn -0.3826 -0.9146 0.1307
vn -0.3826 0.9146 0.1307
vn 0.3826 0.9146 -0.1307
vn -0.9241 0.2154 0.3157
vn -0.3825 -0.9146 0.1307
vn 0.3826 -0.9146 -0.1307
vn 0.9241 0.2154 -0.3157
vn -0.1891 0.8111 -0.5535
vt 0.563424 0.076340
vt 0.553130 0.073518
vt 0.930572 0.423953
vt 0.921307 0.379121
vt 0.987792 0.379121
vt 0.977903 0.423953
vt 0.607372 0.029178
vt 0.597289 0.031257
vt 0.582896 0.026846
vt 0.590093 0.017196
vt 0.572813 0.024865
vt 0.576362 0.017196
vt 0.613360 0.017196
vt 0.614695 0.029178
vt 0.558897 0.019004
vt 0.565490 0.024865
vt 0.555407 0.026846
vt 0.548211 0.024277
vt 0.555407 0.062200
vt 0.548211 0.068077
vt 0.639171 0.057790
vt 0.624778 0.057790
vt 0.624778 0.031257
vt 0.639171 0.031257
vt 0.597289 0.057790
vt 0.582896 0.062201
vt 0.649254 0.029178
vt 0.691136 0.029178
vt 0.681053 0.031257
vt 0.666660 0.031257
vt 0.656577 0.029178
vt 0.565490 0.064181
vt 0.572813 0.064181
vt 0.666660 0.057790
vt 0.681053 0.057790
vt 0.691136 0.059869
vt 0.656577 0.059869
vt 0.649254 0.059869
vt 0.614695 0.059869
vt 0.706379 0.076340
vt 0.683164 0.076340
vt 0.613360 0.076340
vt 0.582896 0.076340
vt 0.659896 0.017196
vt 0.683164 0.017196
vt 0.659896 0.076340
vt 0.636628 0.076340
vt 0.636628 0.017196
vt 0.614506 0.062201
vt 0.604926 0.062201
vt 0.607372 0.059869
vt 0.613607 0.073299
vt 0.638959 0.073299
vt 0.657047 0.062201
vt 0.647466 0.062201
vt 0.659283 0.073299
vt 0.684635 0.073299
vt 0.688839 0.081258
vt 0.699816 0.081258
vt 0.706005 0.126709
vt 0.682651 0.126709
vt 0.698407 0.059869
vt 0.699536 0.062201
vt 0.690007 0.062201
vt 0.612500 0.017196
vt 0.594699 0.017196
vt 0.977903 0.434165
vt 0.930572 0.434165
vt 0.704907 0.073299
vt 0.706379 0.017196
vt 0.698407 0.029178
vt 0.653445 0.126709
vt 0.630032 0.126709
vt 0.639832 0.081258
vt 0.650869 0.081258
vt 0.600826 0.126709
vt 0.570905 0.126710
vt 0.590825 0.081258
vt 0.601862 0.081258
vt 0.587634 0.073299
vt 0.806647 0.062201
vt 0.806647 0.026846
vt 0.565447 0.081258
vt 0.565447 0.126710
vt 0.582896 0.073299
vt 0.836413 0.073518
vt 0.826118 0.076340
vt 0.729647 0.076340
vt 0.978547 0.423953
vt 0.931216 0.423953
vt 0.921327 0.379121
vt 0.987812 0.379121
vt 0.782171 0.029178
vt 0.799450 0.017196
vt 0.792254 0.031257
vt 0.813181 0.017196
vt 0.816730 0.024865
vt 0.774848 0.029178
vt 0.776183 0.017196
vt 0.830646 0.019004
vt 0.841332 0.024277
vt 0.834136 0.026846
vt 0.824053 0.024865
vt 0.841332 0.068077
vt 0.834136 0.062200
vt 0.750372 0.057790
vt 0.750372 0.031257
vt 0.764765 0.031257
vt 0.764765 0.057790
vt 0.792254 0.057790
vt 0.740289 0.029178
vt 0.732966 0.029178
vt 0.722883 0.031257
vt 0.708490 0.031257
vt 0.816730 0.064181
vt 0.824053 0.064181
vt 0.722883 0.057790
vt 0.732966 0.059869
vt 0.708490 0.057790
vt 0.740289 0.059869
vt 0.774848 0.059869
vt 0.806647 0.076340
vt 0.776183 0.076340
vt 0.729647 0.017196
vt 0.752915 0.076340
vt 0.752915 0.017196
vt 0.775037 0.062201
vt 0.782171 0.059869
vt 0.784617 0.062201
vt 0.775936 0.073299
vt 0.750584 0.073299
vt 0.732496 0.062201
vt 0.742077 0.062201
vt 0.730260 0.073299
vt 0.777043 0.017196
vt 0.794844 0.017196
vt 0.978547 0.434165
vt 0.931216 0.434165
vt 0.735211 0.126709
vt 0.737787 0.081258
vt 0.748824 0.081258
vt 0.758624 0.126709
vt 0.787830 0.126709
vt 0.786794 0.081258
vt 0.797831 0.081258
vt 0.817751 0.126710
vt 0.801909 0.073299
vt 0.823209 0.081258
vt 0.823209 0.126710
vt 0.806647 0.073299
s 1
usemtl initialShadingGroup.004
f 10/1/1 132/1/1 154/2/1 32/2/1
f 6/3/2 17/4/2 18/5/2 16/6/2
f 8/7/3 40/8/3 2/9/3 1/10/3
f 1/10/3 2/9/3 22/11/3 21/12/3
f 1/10/3 13/13/3 42/14/3 8/7/3
f 46/15/3 23/16/3 45/17/3 47/18/3
f 45/17/3 44/19/3 20/20/3 47/18/3
f 30/21/3 36/22/3 41/23/3 4/24/3
f 40/8/3 37/25/3 27/26/3 2/9/3
f 23/16/3 46/15/3 21/12/3 22/11/3
f 4/24/3 41/23/3 42/14/3 26/27/3
f 9/28/3 25/29/3 43/30/3 3/31/3
f 10/1/3 32/2/3 24/32/3 39/33/3
f 35/34/3 33/35/3 34/36/3 31/37/3
f 29/38/3 28/39/3 36/22/3 30/21/3
f 43/30/3 25/29/3 33/35/3 35/34/3
f 73/40/4 195/40/4 134/41/4 12/41/4
f 46/15/5 168/15/5 143/12/5 21/12/5
f 11/42/4 133/42/4 141/43/4 19/43/4
f 47/18/6 169/18/6 168/15/6 46/15/6
f 50/44/7 172/44/7 137/45/7 15/45/7
f 19/43/4 141/43/4 132/1/4 10/1/4
f 20/20/3 44/19/3 24/32/3 32/2/3
f 49/46/4 171/46/4 170/47/4 48/47/4
f 26/27/3 42/14/3 13/13/3 14/48/3
f 14/48/3 50/44/3 3/31/3 26/27/3
f 9/28/3 3/31/3 50/44/3 15/45/3
f 52/49/3 51/50/3 38/51/3 28/39/3
f 56/52/3 57/53/3 48/47/3 11/42/3
f 54/54/3 53/55/3 29/38/3 31/37/3
f 58/56/3 59/57/3 12/41/3 49/46/3
f 55/58/3 116/59/3 120/60/3 59/61/3
f 13/13/7 135/13/7 136/48/7 14/48/7
f 20/20/8 142/20/8 169/18/8 47/18/8
f 34/36/3 95/62/3 116/63/3 55/64/3
f 48/47/4 170/47/4 133/42/4 11/42/4
f 32/2/9 154/2/9 142/20/9 20/20/9
f 14/48/7 136/48/7 172/44/7 50/44/7
f 7/65/7 13/13/7 1/10/7 5/66/7
f 6/3/3 16/6/3 7/67/3 5/68/3
f 139/4/10 17/4/10 6/3/10 128/3/10
f 5/68/8 127/68/8 128/3/8 6/3/8
f 7/65/7 129/65/7 135/13/7 13/13/7
f 1/10/7 123/10/7 127/66/7 5/66/7
f 3/31/4 125/31/4 148/27/4 26/27/4
f 26/27/11 148/27/11 126/24/11 4/24/11
f 134/41/12 195/40/12 242/69/12 181/57/12
f 156/36/7 217/62/7 95/62/7 34/36/7
f 33/35/13 155/35/13 156/36/13 34/36/13
f 37/25/14 159/25/14 160/51/14 38/51/14
f 31/37/15 153/37/15 157/34/15 35/34/15
f 25/29/16 147/29/16 155/35/16 33/35/16
f 9/28/11 131/28/11 147/29/11 25/29/11
f 4/24/16 126/24/16 152/21/16 30/21/16
f 8/7/17 130/7/17 162/8/17 40/8/17
f 40/8/18 162/8/18 159/25/18 37/25/18
f 43/30/19 165/30/19 125/31/19 3/31/19
f 38/51/7 160/51/7 150/39/7 28/39/7
f 76/70/3 70/71/3 9/28/3 15/45/3
f 36/22/8 158/22/8 163/23/8 41/23/8
f 35/34/8 157/34/8 165/30/8 43/30/8
f 42/14/4 164/14/4 130/7/4 8/7/4
f 28/39/15 150/39/15 158/22/15 36/22/15
f 31/37/3 34/36/3 55/64/3 54/54/3
f 58/72/3 57/73/3 53/74/3 54/75/3
f 28/39/3 29/38/3 53/55/3 52/49/3
f 56/76/3 60/77/3 51/78/3 52/79/3
f 37/25/3 38/51/3 51/50/3 27/26/3
f 11/42/3 19/43/3 60/80/3 56/52/3
f 49/46/3 48/47/3 57/53/3 58/56/3
f 210/81/16 88/81/16 63/82/16 185/82/16
f 54/75/3 55/58/3 59/61/3 58/72/3
f 52/79/3 53/74/3 57/73/3 56/76/3
f 27/83/3 51/78/3 60/77/3 61/84/3
f 27/26/3 61/85/3 10/1/3 39/33/3
f 10/1/3 61/85/3 60/80/3 19/43/3
f 12/41/4 134/41/4 171/46/4 49/46/4
f 41/23/20 163/23/20 164/14/20 42/14/20
f 15/45/7 137/45/7 198/70/7 76/70/7
f 93/86/21 215/86/21 193/87/21 71/87/21
f 110/88/4 232/88/4 195/40/4 73/40/4
f 67/89/2 77/90/2 79/91/2 78/92/2
f 69/93/3 62/94/3 63/82/3 101/95/3
f 62/94/3 82/96/3 83/97/3 63/82/3
f 62/94/3 69/93/3 103/98/3 74/99/3
f 107/100/3 108/101/3 106/102/3 84/103/3
f 106/102/3 108/101/3 81/104/3 105/105/3
f 91/106/3 65/107/3 102/108/3 97/109/3
f 101/95/3 63/82/3 88/81/3 98/110/3
f 84/103/3 83/97/3 82/96/3 107/100/3
f 65/107/3 87/111/3 103/98/3 102/108/3
f 70/71/3 64/112/3 104/113/3 86/114/3
f 71/87/3 100/115/3 85/116/3 93/86/3
f 96/117/3 92/118/3 95/62/3 94/119/3
f 90/120/3 91/106/3 97/109/3 89/121/3
f 104/113/3 96/117/3 94/119/3 86/114/3
f 198/70/12 137/45/12 131/28/12 192/71/12
f 82/96/22 204/96/22 229/100/22 107/100/22
f 80/122/4 202/122/4 194/123/4 72/123/4
f 107/100/23 229/100/23 230/101/23 108/101/23
f 76/70/7 198/70/7 233/124/7 111/124/7
f 71/87/4 193/87/4 202/122/4 80/122/4
f 81/104/3 93/86/3 85/116/3 105/105/3
f 109/125/4 231/125/4 232/88/4 110/88/4
f 87/111/3 75/126/3 74/99/3 103/98/3
f 75/126/3 87/111/3 64/112/3 111/124/3
f 70/71/3 76/70/3 111/124/3 64/112/3
f 113/127/3 89/121/3 99/128/3 112/129/3
f 117/130/3 72/123/3 109/125/3 118/131/3
f 115/132/3 92/118/3 90/120/3 114/133/3
f 119/134/3 110/88/3 73/40/3 120/69/3
f 75/126/7 197/126/7 196/99/7 74/99/7
f 108/101/16 230/101/16 203/104/16 81/104/16
f 72/123/4 194/123/4 231/125/4 109/125/4
f 103/98/17 225/98/17 224/108/17 102/108/17
f 81/104/24 203/104/24 215/86/24 93/86/24
f 111/124/7 233/124/7 197/126/7 75/126/7
f 68/135/7 66/136/7 62/94/7 74/99/7
f 67/89/3 66/137/3 68/138/3 77/90/3
f 200/92/25 189/89/25 67/89/25 78/92/25
f 67/89/16 189/89/16 188/137/16 66/137/16
f 74/99/7 196/99/7 190/135/7 68/135/7
f 66/136/7 188/136/7 184/94/7 62/94/7
f 87/111/4 209/111/4 186/112/4 64/112/4
f 65/107/19 187/107/19 209/111/19 87/111/19
f 97/109/14 219/109/14 211/121/14 89/121/14
f 95/62/15 217/62/15 216/119/15 94/119/15
f 99/128/26 221/128/26 220/110/26 98/110/26
f 96/117/13 218/117/13 214/118/13 92/118/13
f 94/119/8 216/119/8 208/114/8 86/114/8
f 86/114/19 208/114/19 192/71/19 70/71/19
f 91/106/8 213/106/8 187/107/8 65/107/8
f 101/95/20 223/95/20 191/93/20 69/93/20
f 98/110/27 220/110/27 223/95/27 101/95/27
f 64/112/11 186/112/11 226/113/11 104/113/11
f 89/121/7 211/121/7 221/128/7 99/128/7
f 102/108/16 224/108/16 219/109/16 97/109/16
f 104/113/16 226/113/16 218/117/16 96/117/16
f 69/93/4 191/93/4 225/98/4 103/98/4
f 92/118/3 115/132/3 116/63/3 95/62/3
f 119/139/3 115/140/3 114/141/3 118/142/3
f 89/121/3 113/127/3 114/133/3 90/120/3
f 117/143/3 113/144/3 112/145/3 121/146/3
f 98/110/3 88/81/3 112/129/3 99/128/3
f 72/123/3 117/130/3 121/147/3 80/122/3
f 110/88/3 119/134/3 118/131/3 109/125/3
f 115/140/3 119/139/3 120/60/3 116/59/3
f 113/144/3 117/143/3 118/142/3 114/141/3
f 88/148/3 122/149/3 121/146/3 112/145/3
f 88/81/3 100/115/3 71/87/3 122/150/3
f 71/87/3 80/122/3 121/147/3 122/150/3
f 17/4/7 139/4/7 140/5/7 18/5/7
f 149/26/8 124/9/8 2/9/8 27/26/8
f 222/115/28 100/115/28 88/81/28 210/81/28
f 222/115/7 207/116/7 85/116/7 100/115/7
f 207/116/29 227/105/29 105/105/29 85/116/29
f 227/105/8 228/102/8 106/102/8 105/105/8
f 206/103/30 84/103/30 106/102/30 228/102/30
f 206/103/4 205/97/4 83/97/4 84/103/4
f 185/82/31 63/82/31 83/97/31 205/97/31
f 213/106/15 91/106/15 90/120/15 212/120/15
f 199/90/8 77/90/8 68/138/8 190/138/8
f 199/90/32 201/91/32 79/91/32 77/90/32
f 62/94/7 184/94/7 204/96/7 82/96/7
f 92/118/7 214/118/7 212/120/7 90/120/7
f 161/33/33 149/26/33 27/26/33 39/33/33
f 161/33/7 39/33/7 24/32/7 146/32/7
f 146/32/34 24/32/34 44/19/34 166/19/34
f 166/19/16 44/19/16 45/17/16 167/17/16
f 145/16/31 167/17/31 45/17/31 23/16/31
f 145/16/4 23/16/4 22/11/4 144/11/4
f 124/9/30 144/11/30 22/11/30 2/9/30
f 152/21/13 151/38/13 29/38/13 30/21/13
f 138/6/16 129/67/16 7/67/16 16/6/16
f 138/6/35 16/6/35 18/5/35 140/5/35
f 21/12/7 143/12/7 123/10/7 1/10/7
f 29/38/7 151/38/7 153/37/7 31/37/7
f 128/3/36 138/6/36 140/5/36 139/4/36
f 130/7/12 123/10/12 124/9/12 162/8/12
f 123/10/12 143/12/12 144/11/12 124/9/12
f 123/10/12 130/7/12 164/14/12 135/13/12
f 168/15/12 169/18/12 167/17/12 145/16/12
f 167/17/12 169/18/12 142/20/12 166/19/12
f 152/21/12 126/24/12 163/23/12 158/22/12
f 162/8/12 124/9/12 149/26/12 159/25/12
f 145/16/12 144/11/12 143/12/12 168/15/12
f 126/24/12 148/27/12 164/14/12 163/23/12
f 131/28/12 125/31/12 165/30/12 147/29/12
f 132/1/12 161/33/12 146/32/12 154/2/12
f 157/34/12 153/37/12 156/36/12 155/35/12
f 151/38/12 152/21/12 158/22/12 150/39/12
f 165/30/12 157/34/12 155/35/12 147/29/12
f 142/20/12 154/2/12 146/32/12 166/19/12
f 148/27/12 136/48/12 135/13/12 164/14/12
f 136/48/12 148/27/12 125/31/12 172/44/12
f 131/28/12 137/45/12 172/44/12 125/31/12
f 174/49/12 150/39/12 160/51/12 173/50/12
f 178/52/12 133/42/12 170/47/12 179/53/12
f 176/54/12 153/37/12 151/38/12 175/55/12
f 180/56/12 171/46/12 134/41/12 181/57/12
f 181/61/12 242/60/12 238/59/12 177/58/12
f 177/64/12 238/63/12 217/62/12 156/36/12
f 129/65/7 127/66/7 123/10/7 135/13/7
f 128/3/12 127/68/12 129/67/12 138/6/12
f 153/37/12 176/54/12 177/64/12 156/36/12
f 180/72/12 176/75/12 175/74/12 179/73/12
f 150/39/12 174/49/12 175/55/12 151/38/12
f 178/76/12 174/79/12 173/78/12 182/77/12
f 159/25/12 149/26/12 173/50/12 160/51/12
f 133/42/12 178/52/12 182/80/12 141/43/12
f 171/46/12 180/56/12 179/53/12 170/47/12
f 176/75/12 180/72/12 181/61/12 177/58/12
f 174/79/12 178/76/12 179/73/12 175/74/12
f 149/83/12 183/84/12 182/77/12 173/78/12
f 149/26/12 161/33/12 132/1/12 183/85/12
f 132/1/12 141/43/12 182/80/12 183/85/12
f 131/28/4 9/28/4 70/71/4 192/71/4
f 189/89/36 200/92/36 201/91/36 199/90/36
f 191/93/12 223/95/12 185/82/12 184/94/12
f 184/94/12 185/82/12 205/97/12 204/96/12
f 184/94/12 196/99/12 225/98/12 191/93/12
f 229/100/12 206/103/12 228/102/12 230/101/12
f 228/102/12 227/105/12 203/104/12 230/101/12
f 213/106/12 219/109/12 224/108/12 187/107/12
f 223/95/12 220/110/12 210/81/12 185/82/12
f 206/103/12 229/100/12 204/96/12 205/97/12
f 187/107/12 224/108/12 225/98/12 209/111/12
f 192/71/12 208/114/12 226/113/12 186/112/12
f 193/87/12 215/86/12 207/116/12 222/115/12
f 218/117/12 216/119/12 217/62/12 214/118/12
f 212/120/12 211/121/12 219/109/12 213/106/12
f 226/113/12 208/114/12 216/119/12 218/117/12
f 203/104/12 227/105/12 207/116/12 215/86/12
f 209/111/12 225/98/12 196/99/12 197/126/12
f 197/126/12 233/124/12 186/112/12 209/111/12
f 192/71/12 186/112/12 233/124/12 198/70/12
f 235/127/12 234/129/12 221/128/12 211/121/12
f 239/130/12 240/131/12 231/125/12 194/123/12
f 237/132/12 236/133/12 212/120/12 214/118/12
f 241/134/12 242/69/12 195/40/12 232/88/12
f 190/135/7 196/99/7 184/94/7 188/136/7
f 189/89/12 199/90/12 190/138/12 188/137/12
f 214/118/12 217/62/12 238/63/12 237/132/12
f 241/139/12 240/142/12 236/141/12 237/140/12
f 211/121/12 212/120/12 236/133/12 235/127/12
f 239/143/12 243/146/12 234/145/12 235/144/12
f 220/110/12 221/128/12 234/129/12 210/81/12
f 194/123/12 202/122/12 243/147/12 239/130/12
f 232/88/12 231/125/12 240/131/12 241/134/12
f 237/140/12 238/59/12 242/60/12 241/139/12
f 235/144/12 236/141/12 240/142/12 239/143/12
f 210/148/12 234/145/12 243/146/12 244/149/12
f 210/81/12 244/150/12 193/87/12 222/115/12
f 193/87/12 244/150/12 243/147/12 202/122/12
f 59/57/3 120/69/3 73/40/3 12/41/3
f 79/91/7 201/91/7 200/92/7 78/92/7
