# Blender 5.1.0
# www.blender.org
mtllib barriere55_063.mtl
o barriere55.063
v 40.630341 0.406543 17.393364
v 40.674038 0.597167 17.347734
v 40.226658 0.643227 17.814913
v 40.332340 0.684294 17.704552
v 40.611103 0.406543 17.430939
v 40.611103 0.372826 17.430939
v 40.503021 0.406543 17.543804
v 40.525421 0.643227 17.502926
v 40.016819 0.643227 18.034037
v 40.792263 1.574803 17.224274
v 40.489063 1.574800 17.540895
v 40.065228 1.574800 17.983486
v 40.489063 0.406543 17.540895
v 40.347782 0.406543 17.688425
v 40.065228 0.406543 17.983486
v 40.503021 0.372826 17.543804
v 40.484013 0.224802 17.266878
v 40.332188 0.224802 17.425421
v 40.674034 1.574800 17.347734
v 40.884640 1.411594 17.127810
v 40.713707 0.406543 17.306307
v 40.735260 0.558042 17.283802
v 40.779720 0.558042 17.237371
v 40.779720 1.334637 17.237371
v 40.078041 0.684294 17.970104
v 40.271122 0.643227 17.768480
v 40.674034 1.295512 17.347734
v 40.480957 1.249448 17.549358
v 40.271122 1.249448 17.768480
v 40.332340 1.208382 17.704552
v 40.226658 1.249448 17.814913
v 40.854771 1.519066 17.159002
v 40.078041 1.208382 17.970104
v 40.016819 1.249448 18.034037
v 40.165432 1.208382 17.878845
v 40.419735 1.208382 17.613289
v 40.586643 1.208382 17.438995
v 40.525421 1.249451 17.502926
v 40.735260 1.334637 17.283802
v 40.586643 0.684294 17.438995
v 40.419735 0.684294 17.613289
v 40.480957 0.643227 17.549358
v 40.165432 0.684294 17.878845
v 40.840946 1.295509 17.173439
v 40.840946 0.597167 17.173439
v 40.819752 0.442268 17.195568
v 40.884640 0.546413 17.127810
v 40.347782 1.574800 17.688425
v 40.206505 1.574800 17.835957
v 40.206505 0.406543 17.835957
v 40.540276 1.295512 17.487415
v 40.482105 1.295512 17.548159
v 40.281975 1.295512 17.757147
v 40.223804 1.295512 17.817892
v 40.023674 1.295512 18.026880
v 40.487564 1.514731 17.542458
v 40.333630 1.514731 17.703205
v 40.210224 1.514731 17.832071
v 40.056290 1.514731 17.992819
v 40.645267 1.514732 17.377777
v 40.674034 1.514732 17.347734
v 39.359150 0.406543 18.720812
v 39.315453 0.597167 18.766443
v 39.762833 0.643227 18.299263
v 39.657150 0.684294 18.409626
v 39.395859 0.406543 18.699968
v 39.395859 0.372826 18.699968
v 39.503941 0.406543 18.587103
v 39.464069 0.643227 18.611250
v 39.972672 0.643227 18.080141
v 39.197227 1.574803 18.889904
v 39.500427 1.574800 18.573282
v 39.924263 1.574800 18.130690
v 39.500427 0.406543 18.573282
v 39.641708 0.406543 18.425751
v 39.924263 0.406543 18.130690
v 39.503941 0.372826 18.587103
v 39.226448 0.224802 18.580097
v 39.378273 0.224802 18.421553
v 39.315456 1.574800 18.766441
v 39.104851 1.411594 18.986366
v 39.275784 0.406543 18.807869
v 39.254230 0.558042 18.830374
v 39.209770 0.558042 18.876804
v 39.209770 1.334637 18.876804
v 39.911446 0.684294 18.144072
v 39.718369 0.643227 18.345695
v 39.315456 1.295512 18.766441
v 39.508533 1.249448 18.564819
v 39.718369 1.249448 18.345695
v 39.657150 1.208382 18.409626
v 39.762833 1.249448 18.299263
v 39.134720 1.519066 18.955173
v 39.911446 1.208382 18.144072
v 39.972672 1.249448 18.080141
v 39.824055 1.208382 18.235331
v 39.569756 1.208382 18.500887
v 39.402847 1.208382 18.675180
v 39.464069 1.249451 18.611250
v 39.254230 1.334637 18.830374
v 39.402847 0.684294 18.675180
v 39.569756 0.684294 18.500887
v 39.508533 0.643227 18.564819
v 39.824055 0.684294 18.235331
v 39.148544 1.295509 18.940737
v 39.148544 0.597167 18.940737
v 39.169739 0.442268 18.918608
v 39.104851 0.546413 18.986366
v 39.641708 1.574800 18.425751
v 39.782986 1.574800 18.278219
v 39.782986 0.406543 18.278219
v 39.449215 1.295512 18.626760
v 39.507385 1.295512 18.566017
v 39.707516 1.295512 18.357029
v 39.765686 1.295512 18.296284
v 39.965816 1.295512 18.087297
v 39.501926 1.514731 18.571718
v 39.655861 1.514731 18.410971
v 39.779266 1.514731 18.282104
v 39.933201 1.514731 18.121357
v 39.344223 1.514732 18.736399
v 39.315456 1.514732 18.766441
v 40.695660 0.406543 17.455915
v 40.739357 0.597167 17.410284
v 40.291977 0.643227 17.877464
v 40.397659 0.684294 17.767101
v 40.658951 0.406543 17.476759
v 40.658951 0.372826 17.476759
v 40.550869 0.406543 17.589624
v 40.590740 0.643227 17.565477
v 40.082138 0.643227 18.096586
v 40.857586 1.574803 17.286825
v 40.554382 1.574800 17.603445
v 40.130547 1.574800 18.046038
v 40.554382 0.406543 17.603445
v 40.413101 0.406543 17.750977
v 40.130547 0.406543 18.046038
v 40.550869 0.372826 17.589624
v 40.828362 0.224802 17.596630
v 40.676537 0.224802 17.755175
v 40.739353 1.574800 17.410286
v 40.949959 1.411594 17.190361
v 40.779026 0.406543 17.368858
v 40.800579 0.558042 17.346354
v 40.845039 0.558042 17.299923
v 40.845039 1.334637 17.299923
v 40.143364 0.684294 18.032656
v 40.336441 0.643227 17.831032
v 40.739353 1.295512 17.410286
v 40.546276 1.249448 17.611908
v 40.336441 1.249448 17.831032
v 40.397659 1.208382 17.767101
v 40.291977 1.249448 17.877464
v 40.920090 1.519066 17.221554
v 40.143364 1.208382 18.032656
v 40.082138 1.249448 18.096586
v 40.230755 1.208382 17.941397
v 40.485054 1.208382 17.675840
v 40.651962 1.208382 17.501547
v 40.590740 1.249451 17.565477
v 40.800579 1.334637 17.346354
v 40.651962 0.684294 17.501547
v 40.485054 0.684294 17.675840
v 40.546276 0.643227 17.611908
v 40.230755 0.684294 17.941397
v 40.906265 1.295509 17.235991
v 40.906265 0.597167 17.235991
v 40.885071 0.442268 17.258120
v 40.949959 0.546413 17.190361
v 40.413101 1.574800 17.750977
v 40.271824 1.574800 17.898508
v 40.271824 0.406543 17.898508
v 40.605595 1.295512 17.549967
v 40.547424 1.295512 17.610710
v 40.347294 1.295512 17.819698
v 40.289124 1.295512 17.880444
v 40.088993 1.295512 18.089430
v 40.552883 1.514731 17.605009
v 40.398949 1.514731 17.765757
v 40.275547 1.514731 17.894623
v 40.121609 1.514731 18.055370
v 40.710587 1.514732 17.440329
v 40.739353 1.514732 17.410286
v 39.424469 0.406543 18.783363
v 39.380772 0.597167 18.828993
v 39.828152 0.643227 18.361814
v 39.722469 0.684294 18.472176
v 39.443707 0.406543 18.745789
v 39.443707 0.372826 18.745789
v 39.551788 0.406543 18.632923
v 39.529388 0.643227 18.673801
v 40.037991 0.643227 18.142691
v 39.262547 1.574803 18.952454
v 39.565746 1.574800 18.635832
v 39.989582 1.574800 18.193241
v 39.565746 0.406543 18.635832
v 39.707027 0.406543 18.488302
v 39.989582 0.406543 18.193241
v 39.551788 0.372826 18.632923
v 39.570797 0.224802 18.909849
v 39.722622 0.224802 18.751307
v 39.380775 1.574800 18.828993
v 39.170170 1.411594 19.048918
v 39.341103 0.406543 18.870420
v 39.319550 0.558042 18.892925
v 39.275089 0.558042 18.939356
v 39.275089 1.334637 18.939356
v 39.976768 0.684294 18.206623
v 39.783688 0.643227 18.408247
v 39.380775 1.295512 18.828993
v 39.573853 1.249448 18.627369
v 39.783688 1.249448 18.408247
v 39.722469 1.208382 18.472176
v 39.828152 1.249448 18.361814
v 39.200039 1.519066 19.017725
v 39.976768 1.208382 18.206623
v 40.037991 1.249448 18.142691
v 39.889378 1.208382 18.297882
v 39.635075 1.208382 18.563438
v 39.468166 1.208382 18.737732
v 39.529388 1.249451 18.673801
v 39.319550 1.334637 18.892925
v 39.468166 0.684294 18.737732
v 39.635075 0.684294 18.563438
v 39.573853 0.643227 18.627369
v 39.889378 0.684294 18.297882
v 39.213867 1.295509 19.003288
v 39.213863 0.597167 19.003288
v 39.235058 0.442268 18.981159
v 39.170170 0.546413 19.048918
v 39.707027 1.574800 18.488302
v 39.848305 1.574800 18.340771
v 39.848305 0.406543 18.340771
v 39.514534 1.295512 18.689312
v 39.572704 1.295512 18.628569
v 39.772835 1.295512 18.419580
v 39.831005 1.295512 18.358835
v 40.031136 1.295512 18.149849
v 39.567245 1.514731 18.634270
v 39.721180 1.514731 18.473522
v 39.844585 1.514731 18.344656
v 39.998520 1.514731 18.183908
v 39.409542 1.514732 18.798950
v 39.380775 1.514732 18.828993
vn 0.3631 0.8511 -0.3791
vn -0.4224 0.8111 -0.4045
vn -0.7223 -0.0000 -0.6916
vn -0.7222 -0.0000 -0.6916
vn -0.7222 0.0001 -0.6916
vn -0.0000 1.0000 -0.0000
vn 0.1570 -0.9739 -0.1639
vn 0.5139 -0.6693 -0.5366
vn -0.0000 -1.0000 -0.0000
vn 0.6916 -0.0000 -0.7222
vn 0.6418 0.3728 -0.6702
vn 0.6773 0.2024 -0.7073
vn 0.6916 -0.0000 -0.7223
vn -0.2911 0.9071 0.3040
vn 0.7222 -0.0000 0.6916
vn -0.2911 -0.9071 0.3040
vn 0.2911 -0.9071 -0.3040
vn -0.6916 -0.0000 0.7223
vn -0.6916 -0.0000 0.7222
vn 0.2911 0.9071 -0.3040
vn -0.3631 0.8511 0.3791
vn -0.4225 0.8111 -0.4045
vn -0.7222 -0.0001 -0.6916
vn -0.1570 -0.9739 0.1639
vn -0.5139 -0.6693 0.5366
vn -0.6418 0.3729 0.6702
vn -0.6773 0.2024 0.7073
vn -0.2796 -0.9146 0.2920
vn 0.2796 -0.9146 -0.2920
vn 0.2796 0.9146 -0.2920
vn -0.2796 0.9146 0.2920
vn 0.6754 0.2154 -0.7053
vn -0.2796 0.9147 0.2920
vn -0.6754 0.2154 0.7053
vn 0.4225 0.8111 0.4045
vn 0.7223 -0.0000 0.6916
vn 0.7222 -0.0001 0.6916
vn 0.7222 0.0001 0.6916
vn 0.4224 0.8111 0.4046
vn 0.7222 -0.0000 0.6917
vt 0.563424 0.076340
vt 0.553130 0.073518
vt 0.930572 0.423953
vt 0.921307 0.379121
vt 0.987792 0.379121
vt 0.977903 0.423953
vt 0.607372 0.029178
vt 0.597289 0.031257
vt 0.582896 0.026846
vt 0.590093 0.017196
vt 0.572813 0.024865
vt 0.576362 0.017196
vt 0.613360 0.017196
vt 0.614695 0.029178
vt 0.558897 0.019004
vt 0.565490 0.024865
vt 0.555407 0.026846
vt 0.548211 0.024277
vt 0.555407 0.062200
vt 0.548211 0.068077
vt 0.639171 0.057790
vt 0.624778 0.057790
vt 0.624778 0.031257
vt 0.639171 0.031257
vt 0.597289 0.057790
vt 0.582896 0.062201
vt 0.649254 0.029178
vt 0.691136 0.029178
vt 0.681053 0.031257
vt 0.666660 0.031257
vt 0.656577 0.029178
vt 0.565490 0.064181
vt 0.572813 0.064181
vt 0.666660 0.057790
vt 0.681053 0.057790
vt 0.691136 0.059869
vt 0.656577 0.059869
vt 0.649254 0.059869
vt 0.614695 0.059869
vt 0.706379 0.076340
vt 0.683164 0.076340
vt 0.613360 0.076340
vt 0.582896 0.076340
vt 0.659896 0.017196
vt 0.683164 0.017196
vt 0.659896 0.076340
vt 0.636628 0.076340
vt 0.636628 0.017196
vt 0.614506 0.062201
vt 0.604926 0.062201
vt 0.607372 0.059869
vt 0.613607 0.073299
vt 0.638959 0.073299
vt 0.657047 0.062201
vt 0.647466 0.062201
vt 0.659283 0.073299
vt 0.684635 0.073299
vt 0.688839 0.081258
vt 0.699816 0.081258
vt 0.706005 0.126709
vt 0.682651 0.126709
vt 0.698407 0.059869
vt 0.699536 0.062201
vt 0.690007 0.062201
vt 0.612500 0.017196
vt 0.594699 0.017196
vt 0.977903 0.434165
vt 0.930572 0.434165
vt 0.704907 0.073299
vt 0.706379 0.017196
vt 0.698407 0.029178
vt 0.653445 0.126709
vt 0.630032 0.126709
vt 0.639832 0.081258
vt 0.650869 0.081258
vt 0.600826 0.126709
vt 0.570905 0.126710
vt 0.590825 0.081258
vt 0.601862 0.081258
vt 0.587634 0.073299
vt 0.806647 0.062201
vt 0.806647 0.026846
vt 0.565447 0.081258
vt 0.565447 0.126710
vt 0.582896 0.073299
vt 0.836413 0.073518
vt 0.826118 0.076340
vt 0.729647 0.076340
vt 0.978547 0.423953
vt 0.931216 0.423953
vt 0.921327 0.379121
vt 0.987812 0.379121
vt 0.782171 0.029178
vt 0.799450 0.017196
vt 0.792254 0.031257
vt 0.813181 0.017196
vt 0.816730 0.024865
vt 0.774848 0.029178
vt 0.776183 0.017196
vt 0.830646 0.019004
vt 0.841332 0.024277
vt 0.834136 0.026846
vt 0.824053 0.024865
vt 0.841332 0.068077
vt 0.834136 0.062200
vt 0.750372 0.057790
vt 0.750372 0.031257
vt 0.764765 0.031257
vt 0.764765 0.057790
vt 0.792254 0.057790
vt 0.740289 0.029178
vt 0.732966 0.029178
vt 0.722883 0.031257
vt 0.708490 0.031257
vt 0.816730 0.064181
vt 0.824053 0.064181
vt 0.722883 0.057790
vt 0.732966 0.059869
vt 0.708490 0.057790
vt 0.740289 0.059869
vt 0.774848 0.059869
vt 0.806647 0.076340
vt 0.776183 0.076340
vt 0.729647 0.017196
vt 0.752915 0.076340
vt 0.752915 0.017196
vt 0.775037 0.062201
vt 0.782171 0.059869
vt 0.784617 0.062201
vt 0.775936 0.073299
vt 0.750584 0.073299
vt 0.732496 0.062201
vt 0.742077 0.062201
vt 0.730260 0.073299
vt 0.777043 0.017196
vt 0.794844 0.017196
vt 0.978547 0.434165
vt 0.931216 0.434165
vt 0.735211 0.126709
vt 0.737787 0.081258
vt 0.748824 0.081258
vt 0.758624 0.126709
vt 0.787830 0.126709
vt 0.786794 0.081258
vt 0.797831 0.081258
vt 0.817751 0.126710
vt 0.801909 0.073299
vt 0.823209 0.081258
vt 0.823209 0.126710
vt 0.806647 0.073299
s 1
usemtl initialShadingGroup.004
f 10/1/1 132/1/1 154/2/1 32/2/1
f 6/3/2 17/4/2 18/5/2 16/6/2
f 8/7/3 40/8/4 2/9/4 1/10/4
f 1/10/4 2/9/4 22/11/4 21/12/4
f 1/10/4 13/13/4 42/14/4 8/7/3
f 46/15/3 23/16/3 45/17/4 47/18/4
f 45/17/4 44/19/3 20/20/4 47/18/4
f 30/21/4 36/22/4 41/23/4 4/24/4
f 40/8/4 37/25/4 27/26/4 2/9/4
f 23/16/3 46/15/3 21/12/4 22/11/4
f 4/24/4 41/23/4 42/14/4 26/27/3
f 9/28/4 25/29/4 43/30/4 3/31/4
f 10/1/4 32/2/4 24/32/4 39/33/4
f 35/34/5 33/35/5 34/36/4 31/37/4
f 29/38/4 28/39/5 36/22/4 30/21/4
f 43/30/4 25/29/4 33/35/5 35/34/5
f 73/40/6 195/40/6 134/41/6 12/41/6
f 46/15/7 168/15/7 143/12/7 21/12/7
f 11/42/6 133/42/6 141/43/6 19/43/6
f 47/18/8 169/18/8 168/15/8 46/15/8
f 50/44/9 172/44/9 137/45/9 15/45/9
f 19/43/6 141/43/6 132/1/6 10/1/6
f 20/20/4 44/19/3 24/32/4 32/2/4
f 49/46/6 171/46/6 170/47/6 48/47/6
f 26/27/3 42/14/4 13/13/4 14/48/4
f 14/48/4 50/44/4 3/31/4 26/27/3
f 9/28/4 3/31/4 50/44/4 15/45/4
f 52/49/4 51/50/4 38/51/3 28/39/5
f 56/52/4 57/53/4 48/47/4 11/42/4
f 54/54/4 53/55/4 29/38/4 31/37/4
f 58/56/4 59/57/4 12/41/4 49/46/4
f 55/58/4 116/59/4 120/60/4 59/61/4
f 13/13/9 135/13/9 136/48/9 14/48/9
f 20/20/10 142/20/10 169/18/10 47/18/10
f 34/36/4 95/62/4 116/63/4 55/64/4
f 48/47/6 170/47/6 133/42/6 11/42/6
f 32/2/11 154/2/11 142/20/11 20/20/11
f 14/48/9 136/48/9 172/44/9 50/44/9
f 7/65/9 13/13/9 1/10/9 5/66/9
f 6/3/4 16/6/4 7/67/4 5/68/4
f 139/4/12 17/4/12 6/3/12 128/3/12
f 5/68/13 127/68/13 128/3/13 6/3/13
f 7/65/9 129/65/9 135/13/9 13/13/9
f 1/10/9 123/10/9 127/66/9 5/66/9
f 3/31/6 125/31/6 148/27/6 26/27/6
f 26/27/14 148/27/14 126/24/14 4/24/14
f 134/41/15 195/40/15 242/69/15 181/57/15
f 156/36/9 217/62/9 95/62/9 34/36/9
f 33/35/16 155/35/16 156/36/16 34/36/16
f 37/25/16 159/25/16 160/51/16 38/51/16
f 31/37/17 153/37/17 157/34/17 35/34/17
f 25/29/18 147/29/18 155/35/18 33/35/18
f 9/28/14 131/28/14 147/29/14 25/29/14
f 4/24/18 126/24/18 152/21/18 30/21/18
f 8/7/14 130/7/14 162/8/14 40/8/14
f 40/8/19 162/8/19 159/25/19 37/25/19
f 43/30/20 165/30/20 125/31/20 3/31/20
f 38/51/9 160/51/9 150/39/9 28/39/9
f 76/70/4 70/71/4 9/28/4 15/45/4
f 36/22/10 158/22/10 163/23/10 41/23/10
f 35/34/13 157/34/13 165/30/13 43/30/13
f 42/14/6 164/14/6 130/7/6 8/7/6
f 28/39/17 150/39/17 158/22/17 36/22/17
f 31/37/4 34/36/4 55/64/4 54/54/4
f 58/72/4 57/73/4 53/74/4 54/75/4
f 28/39/5 29/38/4 53/55/4 52/49/4
f 56/76/4 60/77/4 51/78/4 52/79/4
f 37/25/4 38/51/3 51/50/4 27/26/4
f 11/42/4 19/43/4 60/80/4 56/52/4
f 49/46/4 48/47/4 57/53/4 58/56/4
f 210/81/19 88/81/19 63/82/19 185/82/19
f 54/75/4 55/58/4 59/61/4 58/72/4
f 52/79/4 53/74/4 57/73/4 56/76/4
f 27/83/4 51/78/4 60/77/4 61/84/4
f 27/26/4 61/85/4 10/1/4 39/33/4
f 10/1/4 61/85/4 60/80/4 19/43/4
f 12/41/6 134/41/6 171/46/6 49/46/6
f 41/23/20 163/23/20 164/14/20 42/14/20
f 15/45/9 137/45/9 198/70/9 76/70/9
f 93/86/21 215/86/21 193/87/21 71/87/21
f 110/88/6 232/88/6 195/40/6 73/40/6
f 67/89/22 77/90/22 79/91/22 78/92/22
f 69/93/4 62/94/4 63/82/3 101/95/3
f 62/94/4 82/96/4 83/97/4 63/82/3
f 62/94/4 69/93/4 103/98/4 74/99/4
f 107/100/4 108/101/3 106/102/3 84/103/4
f 106/102/3 108/101/3 81/104/4 105/105/3
f 91/106/23 65/107/5 102/108/5 97/109/23
f 101/95/3 63/82/3 88/81/3 98/110/4
f 84/103/4 83/97/4 82/96/4 107/100/4
f 65/107/5 87/111/4 103/98/4 102/108/5
f 70/71/4 64/112/4 104/113/4 86/114/4
f 71/87/4 100/115/4 85/116/4 93/86/4
f 96/117/4 92/118/4 95/62/4 94/119/4
f 90/120/4 91/106/23 97/109/23 89/121/4
f 104/113/4 96/117/4 94/119/4 86/114/4
f 198/70/15 137/45/15 131/28/15 192/71/15
f 82/96/24 204/96/24 229/100/24 107/100/24
f 80/122/6 202/122/6 194/123/6 72/123/6
f 107/100/25 229/100/25 230/101/25 108/101/25
f 76/70/9 198/70/9 233/124/9 111/124/9
f 71/87/6 193/87/6 202/122/6 80/122/6
f 81/104/4 93/86/4 85/116/4 105/105/3
f 109/125/6 231/125/6 232/88/6 110/88/6
f 87/111/4 75/126/4 74/99/4 103/98/4
f 75/126/4 87/111/4 64/112/4 111/124/4
f 70/71/4 76/70/4 111/124/4 64/112/4
f 113/127/4 89/121/4 99/128/4 112/129/4
f 117/130/4 72/123/4 109/125/4 118/131/4
f 115/132/4 92/118/4 90/120/4 114/133/4
f 119/134/4 110/88/4 73/40/4 120/69/4
f 75/126/9 197/126/9 196/99/9 74/99/9
f 108/101/19 230/101/19 203/104/19 81/104/19
f 72/123/6 194/123/6 231/125/6 109/125/6
f 103/98/14 225/98/14 224/108/14 102/108/14
f 81/104/26 203/104/26 215/86/26 93/86/26
f 111/124/9 233/124/9 197/126/9 75/126/9
f 68/135/9 66/136/9 62/94/9 74/99/9
f 67/89/4 66/137/4 68/138/4 77/90/4
f 200/92/27 189/89/27 67/89/27 78/92/27
f 67/89/19 189/89/19 188/137/19 66/137/19
f 74/99/9 196/99/9 190/135/9 68/135/9
f 66/136/9 188/136/9 184/94/9 62/94/9
f 87/111/6 209/111/6 186/112/6 64/112/6
f 65/107/20 187/107/20 209/111/20 87/111/20
f 97/109/16 219/109/16 211/121/16 89/121/16
f 95/62/17 217/62/17 216/119/17 94/119/17
f 99/128/17 221/128/17 220/110/17 98/110/17
f 96/117/16 218/117/16 214/118/16 92/118/16
f 94/119/13 216/119/13 208/114/13 86/114/13
f 86/114/20 208/114/20 192/71/20 70/71/20
f 91/106/13 213/106/13 187/107/13 65/107/13
f 101/95/20 223/95/20 191/93/20 69/93/20
f 98/110/10 220/110/10 223/95/10 101/95/10
f 64/112/14 186/112/14 226/113/14 104/113/14
f 89/121/9 211/121/9 221/128/9 99/128/9
f 102/108/19 224/108/19 219/109/19 97/109/19
f 104/113/18 226/113/18 218/117/18 96/117/18
f 69/93/6 191/93/6 225/98/6 103/98/6
f 92/118/4 115/132/4 116/63/4 95/62/4
f 119/139/4 115/140/4 114/141/4 118/142/4
f 89/121/4 113/127/4 114/133/4 90/120/4
f 117/143/4 113/144/4 112/145/4 121/146/3
f 98/110/4 88/81/3 112/129/4 99/128/4
f 72/123/4 117/130/4 121/147/3 80/122/4
f 110/88/4 119/134/4 118/131/4 109/125/4
f 115/140/4 119/139/4 120/60/4 116/59/4
f 113/144/4 117/143/4 118/142/4 114/141/4
f 88/148/3 122/149/4 121/146/3 112/145/4
f 88/81/3 100/115/4 71/87/4 122/150/4
f 71/87/4 80/122/4 121/147/3 122/150/4
f 17/4/9 139/4/9 140/5/9 18/5/9
f 149/26/10 124/9/10 2/9/10 27/26/10
f 222/115/28 100/115/28 88/81/28 210/81/28
f 222/115/9 207/116/9 85/116/9 100/115/9
f 207/116/29 227/105/29 105/105/29 85/116/29
f 227/105/13 228/102/13 106/102/13 105/105/13
f 206/103/30 84/103/30 106/102/30 228/102/30
f 206/103/6 205/97/6 83/97/6 84/103/6
f 185/82/31 63/82/31 83/97/31 205/97/31
f 213/106/17 91/106/17 90/120/17 212/120/17
f 199/90/13 77/90/13 68/138/13 190/138/13
f 199/90/32 201/91/32 79/91/32 77/90/32
f 62/94/9 184/94/9 204/96/9 82/96/9
f 92/118/9 214/118/9 212/120/9 90/120/9
f 161/33/29 149/26/29 27/26/29 39/33/29
f 161/33/9 39/33/9 24/32/9 146/32/9
f 146/32/28 24/32/28 44/19/28 166/19/28
f 166/19/19 44/19/19 45/17/19 167/17/19
f 145/16/33 167/17/33 45/17/33 23/16/33
f 145/16/6 23/16/6 22/11/6 144/11/6
f 124/9/30 144/11/30 22/11/30 2/9/30
f 152/21/16 151/38/16 29/38/16 30/21/16
f 138/6/19 129/67/19 7/67/19 16/6/19
f 138/6/34 16/6/34 18/5/34 140/5/34
f 21/12/9 143/12/9 123/10/9 1/10/9
f 29/38/9 151/38/9 153/37/9 31/37/9
f 128/3/35 138/6/35 140/5/35 139/4/35
f 130/7/15 123/10/15 124/9/15 162/8/15
f 123/10/15 143/12/15 144/11/15 124/9/15
f 123/10/15 130/7/15 164/14/15 135/13/15
f 168/15/15 169/18/36 167/17/36 145/16/15
f 167/17/36 169/18/36 142/20/15 166/19/36
f 152/21/37 126/24/38 163/23/38 158/22/37
f 162/8/15 124/9/15 149/26/15 159/25/15
f 145/16/15 144/11/15 143/12/15 168/15/15
f 126/24/38 148/27/15 164/14/15 163/23/38
f 131/28/15 125/31/15 165/30/37 147/29/37
f 132/1/15 161/33/15 146/32/36 154/2/36
f 157/34/38 153/37/15 156/36/36 155/35/38
f 151/38/15 152/21/37 158/22/37 150/39/38
f 165/30/37 157/34/38 155/35/38 147/29/37
f 142/20/15 154/2/36 146/32/36 166/19/36
f 148/27/15 136/48/15 135/13/15 164/14/15
f 136/48/15 148/27/15 125/31/15 172/44/15
f 131/28/15 137/45/15 172/44/15 125/31/15
f 174/49/15 150/39/38 160/51/15 173/50/15
f 178/52/15 133/42/15 170/47/15 179/53/15
f 176/54/15 153/37/15 151/38/15 175/55/15
f 180/56/15 171/46/15 134/41/15 181/57/15
f 181/61/15 242/60/15 238/59/36 177/58/15
f 177/64/15 238/63/36 217/62/36 156/36/36
f 129/65/9 127/66/9 123/10/9 135/13/9
f 128/3/15 127/68/15 129/67/15 138/6/15
f 153/37/15 176/54/15 177/64/15 156/36/36
f 180/72/15 176/75/15 175/74/15 179/73/15
f 150/39/38 174/49/15 175/55/15 151/38/15
f 178/76/15 174/79/15 173/78/15 182/77/15
f 159/25/15 149/26/15 173/50/15 160/51/15
f 133/42/15 178/52/15 182/80/15 141/43/15
f 171/46/15 180/56/15 179/53/15 170/47/15
f 176/75/15 180/72/15 181/61/15 177/58/15
f 174/79/15 178/76/15 179/73/15 175/74/15
f 149/83/15 183/84/15 182/77/15 173/78/15
f 149/26/15 161/33/15 132/1/15 183/85/15
f 132/1/15 141/43/15 182/80/15 183/85/15
f 131/28/6 9/28/6 70/71/6 192/71/6
f 189/89/39 200/92/39 201/91/39 199/90/39
f 191/93/36 223/95/15 185/82/15 184/94/15
f 184/94/15 185/82/15 205/97/36 204/96/36
f 184/94/15 196/99/15 225/98/15 191/93/36
f 229/100/15 206/103/15 228/102/40 230/101/40
f 228/102/40 227/105/15 203/104/15 230/101/40
f 213/106/15 219/109/15 224/108/38 187/107/38
f 223/95/15 220/110/15 210/81/15 185/82/15
f 206/103/15 229/100/15 204/96/36 205/97/36
f 187/107/38 224/108/38 225/98/15 209/111/15
f 192/71/15 208/114/15 226/113/15 186/112/15
f 193/87/15 215/86/15 207/116/15 222/115/15
f 218/117/15 216/119/15 217/62/36 214/118/15
f 212/120/15 211/121/15 219/109/15 213/106/15
f 226/113/15 208/114/15 216/119/15 218/117/15
f 203/104/15 227/105/15 207/116/15 215/86/15
f 209/111/15 225/98/15 196/99/15 197/126/15
f 197/126/15 233/124/15 186/112/15 209/111/15
f 192/71/15 186/112/15 233/124/15 198/70/15
f 235/127/15 234/129/15 221/128/15 211/121/15
f 239/130/15 240/131/15 231/125/15 194/123/15
f 237/132/15 236/133/15 212/120/15 214/118/15
f 241/134/15 242/69/15 195/40/15 232/88/15
f 190/135/9 196/99/9 184/94/9 188/136/9
f 189/89/15 199/90/15 190/138/15 188/137/15
f 214/118/15 217/62/36 238/63/36 237/132/15
f 241/139/15 240/142/15 236/141/15 237/140/15
f 211/121/15 212/120/15 236/133/15 235/127/15
f 239/143/15 243/146/36 234/145/15 235/144/15
f 220/110/15 221/128/15 234/129/15 210/81/15
f 194/123/15 202/122/36 243/147/36 239/130/15
f 232/88/15 231/125/15 240/131/15 241/134/15
f 237/140/15 238/59/36 242/60/15 241/139/15
f 235/144/15 236/141/15 240/142/15 239/143/15
f 210/148/15 234/145/15 243/146/36 244/149/36
f 210/81/15 244/150/36 193/87/15 222/115/15
f 193/87/15 244/150/36 243/147/36 202/122/36
f 59/57/4 120/69/4 73/40/4 12/41/4
f 79/91/9 201/91/9 200/92/9 78/92/9
