# Blender 5.1.0
# www.blender.org
mtllib barriere55_136.mtl
o barriere55.136
v 36.140434 0.406540 -30.146135
v 36.192024 0.597164 -30.182608
v 35.663849 0.643224 -29.809195
v 35.788620 0.684291 -29.897406
v 36.114395 0.406540 -30.112913
v 36.114395 0.372823 -30.112913
v 35.986794 0.406540 -30.022699
v 36.016567 0.643224 -30.058563
v 35.416119 0.643224 -29.634050
v 36.331604 1.574800 -30.281288
v 35.973644 1.574797 -30.028215
v 35.473267 1.574797 -29.674454
v 35.973644 0.406540 -30.028215
v 35.806850 0.406540 -29.910294
v 35.473267 0.406540 -29.674454
v 35.986794 0.372823 -30.022699
v 36.020882 0.224799 -30.298178
v 35.841637 0.224799 -30.171453
v 36.192020 1.574797 -30.182606
v 36.440662 1.411591 -30.358391
v 36.238857 0.406540 -30.215719
v 36.264301 0.558039 -30.233707
v 36.316795 0.558039 -30.270819
v 36.316795 1.334634 -30.270819
v 35.488396 0.684291 -29.685150
v 35.716343 0.643224 -29.846306
v 36.192020 1.295509 -30.182606
v 35.964077 1.249445 -30.021450
v 35.716343 1.249445 -29.846306
v 35.788620 1.208379 -29.897406
v 35.663849 1.249445 -29.809195
v 36.405396 1.519063 -30.333458
v 35.488396 1.208379 -29.685150
v 35.416119 1.249445 -29.634050
v 35.591572 1.208379 -29.758093
v 35.891796 1.208379 -29.970350
v 36.088848 1.208379 -30.109663
v 36.016571 1.249448 -30.058563
v 36.264301 1.334634 -30.233707
v 36.088848 0.684291 -30.109663
v 35.891796 0.684291 -29.970350
v 35.964077 0.643224 -30.021450
v 35.591572 0.684291 -29.758093
v 36.389072 1.295506 -30.321920
v 36.389072 0.597164 -30.321920
v 36.364056 0.442265 -30.304232
v 36.440662 0.546410 -30.358391
v 35.806850 1.574797 -29.910294
v 35.640060 1.574797 -29.792374
v 35.640060 0.406540 -29.792374
v 36.034107 1.295509 -30.070961
v 35.965431 1.295509 -30.022408
v 35.729156 1.295509 -29.855366
v 35.660480 1.295509 -29.806812
v 35.424210 1.295509 -29.639771
v 35.971878 1.514728 -30.026966
v 35.790142 1.514728 -29.898481
v 35.644451 1.514728 -29.795479
v 35.462715 1.514728 -29.666994
v 36.158058 1.514729 -30.158594
v 36.192020 1.514729 -30.182606
v 34.639675 0.406540 -29.085114
v 34.588089 0.597164 -29.048643
v 35.116261 0.643224 -29.422054
v 34.991493 0.684291 -29.333843
v 34.679680 0.406540 -29.098585
v 34.679680 0.372823 -29.098585
v 34.807281 0.406540 -29.188799
v 34.763542 0.643224 -29.172686
v 35.363995 0.643224 -29.597198
v 34.448509 1.574800 -28.949961
v 34.806469 1.574797 -29.203035
v 35.306847 1.574797 -29.556795
v 34.806469 0.406540 -29.203035
v 34.973263 0.406540 -29.320955
v 35.306847 0.406540 -29.556795
v 34.807281 0.372823 -29.188799
v 34.536205 0.224799 -29.248529
v 34.715450 0.224799 -29.375252
v 34.588089 1.574797 -29.048643
v 34.339451 1.411591 -28.872858
v 34.541252 0.406540 -29.015532
v 34.515808 0.558039 -28.997541
v 34.463318 0.558039 -28.960430
v 34.463318 1.334634 -28.960430
v 35.291714 0.684291 -29.546099
v 35.063770 0.643224 -29.384943
v 34.588089 1.295509 -29.048643
v 34.816036 1.249445 -29.209799
v 35.063770 1.249445 -29.384943
v 34.991493 1.208379 -29.333843
v 35.116261 1.249445 -29.422054
v 34.374718 1.519063 -28.897791
v 35.291714 1.208379 -29.546099
v 35.363995 1.249445 -29.597198
v 35.188541 1.208379 -29.473156
v 34.888313 1.208379 -29.260899
v 34.691265 1.208379 -29.121588
v 34.763542 1.249448 -29.172686
v 34.515808 1.334634 -28.997541
v 34.691265 0.684291 -29.121588
v 34.888313 0.684291 -29.260899
v 34.816036 0.643224 -29.209799
v 35.188541 0.684291 -29.473156
v 34.391037 1.295506 -28.909330
v 34.391037 0.597164 -28.909330
v 34.416058 0.442265 -28.927017
v 34.339451 0.546410 -28.872858
v 34.973263 1.574797 -29.320955
v 35.140053 1.574797 -29.438875
v 35.140053 0.406540 -29.438875
v 34.746006 1.295509 -29.160288
v 34.814682 1.295509 -29.208841
v 35.050953 1.295509 -29.375883
v 35.119629 1.295509 -29.424437
v 35.355904 1.295509 -29.591478
v 34.808235 1.514728 -29.204283
v 34.989971 1.514728 -29.332769
v 35.135662 1.514728 -29.435770
v 35.317398 1.514728 -29.564255
v 34.622055 1.514729 -29.072655
v 34.588089 1.514729 -29.048643
v 36.192646 0.406540 -30.072289
v 36.244232 0.597164 -30.108759
v 35.716061 0.643224 -29.735348
v 35.840828 0.684291 -29.823559
v 36.152641 0.406540 -30.058817
v 36.152641 0.372823 -30.058817
v 36.025040 0.406540 -29.968603
v 36.068779 0.643224 -29.984716
v 35.468327 0.643224 -29.560204
v 36.383812 1.574800 -30.207441
v 36.025852 1.574797 -29.954367
v 35.525475 1.574797 -29.600607
v 36.025852 0.406540 -29.954367
v 35.859058 0.406540 -29.836447
v 35.525475 0.406540 -29.600607
v 36.025040 0.372823 -29.968603
v 36.296116 0.224799 -29.908873
v 36.116871 0.224799 -29.782150
v 36.244232 1.574797 -30.108759
v 36.492870 1.411591 -30.284544
v 36.291069 0.406540 -30.141870
v 36.316513 0.558039 -30.159861
v 36.369003 0.558039 -30.196972
v 36.369003 1.334634 -30.196972
v 35.540607 0.684291 -29.611303
v 35.768551 0.643224 -29.772459
v 36.244232 1.295509 -30.108759
v 36.016285 1.249445 -29.947603
v 35.768551 1.249445 -29.772459
v 35.840828 1.208379 -29.823559
v 35.716061 1.249445 -29.735348
v 36.457603 1.519063 -30.259611
v 35.540607 1.208379 -29.611303
v 35.468327 1.249445 -29.560204
v 35.643780 1.208379 -29.684246
v 35.944008 1.208379 -29.896503
v 36.141056 1.208379 -30.035814
v 36.068779 1.249448 -29.984715
v 36.316513 1.334634 -30.159861
v 36.141056 0.684291 -30.035814
v 35.944008 0.684291 -29.896503
v 36.016285 0.643224 -29.947603
v 35.643780 0.684291 -29.684246
v 36.441284 1.295506 -30.248072
v 36.441284 0.597164 -30.248072
v 36.416264 0.442265 -30.230385
v 36.492870 0.546410 -30.284544
v 35.859062 1.574797 -29.836447
v 35.692268 1.574797 -29.718527
v 35.692268 0.406540 -29.718527
v 36.086315 1.295509 -29.997114
v 36.017639 1.295509 -29.948561
v 35.781368 1.295509 -29.781519
v 35.712692 1.295509 -29.732965
v 35.476418 1.295509 -29.565924
v 36.024086 1.514728 -29.953119
v 35.842350 1.514728 -29.824633
v 35.696659 1.514728 -29.721632
v 35.514923 1.514728 -29.593147
v 36.210266 1.514729 -30.084747
v 36.244232 1.514729 -30.108759
v 34.691887 0.406540 -29.011267
v 34.640297 0.597164 -28.974794
v 35.168472 0.643224 -29.348207
v 35.043701 0.684291 -29.259996
v 34.717926 0.406540 -29.044489
v 34.717926 0.372823 -29.044489
v 34.845528 0.406540 -29.134703
v 34.815754 0.643224 -29.098839
v 35.416203 0.643224 -29.523352
v 34.500717 1.574800 -28.876114
v 34.858677 1.574797 -29.129187
v 35.359055 1.574797 -29.482948
v 34.858677 0.406540 -29.129187
v 35.025471 0.406540 -29.247108
v 35.359055 0.406540 -29.482948
v 34.845528 0.372823 -29.134703
v 34.811440 0.224799 -28.859224
v 34.990685 0.224799 -28.985949
v 34.640301 1.574797 -28.974796
v 34.391659 1.411591 -28.799011
v 34.593464 0.406540 -28.941683
v 34.568020 0.558039 -28.923695
v 34.515526 0.558039 -28.886583
v 34.515526 1.334634 -28.886583
v 35.343925 0.684291 -29.472252
v 35.115978 0.643224 -29.311096
v 34.640301 1.295509 -28.974796
v 34.868244 1.249445 -29.135952
v 35.115978 1.249445 -29.311096
v 35.043701 1.208379 -29.259996
v 35.168472 1.249445 -29.348207
v 34.426926 1.519063 -28.823944
v 35.343925 1.208379 -29.472252
v 35.416203 1.249445 -29.523352
v 35.240749 1.208379 -29.399309
v 34.940525 1.208379 -29.187052
v 34.743473 1.208379 -29.047739
v 34.815754 1.249448 -29.098839
v 34.568020 1.334634 -28.923695
v 34.743473 0.684291 -29.047739
v 34.940525 0.684291 -29.187052
v 34.868244 0.643224 -29.135952
v 35.240749 0.684291 -29.399309
v 34.443249 1.295506 -28.835482
v 34.443249 0.597164 -28.835482
v 34.468266 0.442265 -28.853170
v 34.391659 0.546410 -28.799011
v 35.025471 1.574797 -29.247108
v 35.192261 1.574797 -29.365028
v 35.192261 0.406540 -29.365028
v 34.798218 1.295509 -29.086441
v 34.866890 1.295509 -29.134995
v 35.103165 1.295509 -29.302036
v 35.171841 1.295509 -29.350590
v 35.408112 1.295509 -29.517632
v 34.860443 1.514728 -29.130436
v 35.042179 1.514728 -29.258921
v 35.187870 1.514728 -29.361923
v 35.369606 1.514728 -29.490408
v 34.674263 1.514729 -28.998808
v 34.640301 1.514729 -28.974796
vn 0.4286 0.8511 -0.3030
vn -0.3377 0.8111 -0.4776
vn -0.5773 -0.0000 -0.8165
vn -0.5773 -0.0000 -0.8166
vn -0.0000 1.0000 -0.0000
vn 0.1853 -0.9739 -0.1310
vn 0.6067 -0.6693 -0.4289
vn -0.0000 -1.0000 -0.0000
vn 0.8166 -0.0000 -0.5773
vn 0.7577 0.3729 -0.5356
vn 0.7996 0.2024 -0.5653
vn 0.8165 -0.0000 -0.5773
vn -0.3437 0.9071 0.2430
vn 0.5773 -0.0000 0.8165
vn -0.3436 -0.9071 0.2429
vn -0.3437 -0.9071 0.2430
vn 0.3436 -0.9071 -0.2429
vn -0.8165 -0.0000 0.5773
vn -0.3436 0.9071 0.2430
vn -0.8166 -0.0000 0.5773
vn 0.3436 0.9071 -0.2429
vn 0.3436 0.9071 -0.2430
vn -0.4286 0.8511 0.3030
vn -0.1853 -0.9739 0.1310
vn -0.6067 -0.6693 0.4289
vn -0.7577 0.3729 0.5356
vn -0.7996 0.2024 0.5653
vn 0.3437 0.9071 -0.2429
vn 0.3436 -0.9071 -0.2430
vn -0.3436 0.9071 0.2429
vn -0.3301 -0.9146 0.2334
vn 0.3301 -0.9146 -0.2334
vn 0.3301 0.9146 -0.2334
vn -0.3301 0.9146 0.2334
vn 0.7974 0.2154 -0.5637
vn -0.3436 -0.9071 0.2430
vn -0.7974 0.2154 0.5637
vn 0.3377 0.8111 0.4776
vn 0.5773 -0.0000 0.8166
vn 0.5772 -0.0000 0.8166
vt 0.563424 0.076340
vt 0.553130 0.073518
vt 0.930572 0.423953
vt 0.921307 0.379121
vt 0.987792 0.379121
vt 0.977903 0.423953
vt 0.607372 0.029178
vt 0.597289 0.031257
vt 0.582896 0.026846
vt 0.590093 0.017196
vt 0.572813 0.024865
vt 0.576362 0.017196
vt 0.613360 0.017196
vt 0.614695 0.029178
vt 0.558897 0.019004
vt 0.565490 0.024865
vt 0.555407 0.026846
vt 0.548211 0.024277
vt 0.555407 0.062200
vt 0.548211 0.068077
vt 0.639171 0.057790
vt 0.624778 0.057790
vt 0.624778 0.031257
vt 0.639171 0.031257
vt 0.597289 0.057790
vt 0.582896 0.062201
vt 0.649254 0.029178
vt 0.691136 0.029178
vt 0.681053 0.031257
vt 0.666660 0.031257
vt 0.656577 0.029178
vt 0.565490 0.064181
vt 0.572813 0.064181
vt 0.666660 0.057790
vt 0.681053 0.057790
vt 0.691136 0.059869
vt 0.656577 0.059869
vt 0.649254 0.059869
vt 0.614695 0.059869
vt 0.706379 0.076340
vt 0.683164 0.076340
vt 0.613360 0.076340
vt 0.582896 0.076340
vt 0.659896 0.017196
vt 0.683164 0.017196
vt 0.659896 0.076340
vt 0.636628 0.076340
vt 0.636628 0.017196
vt 0.614506 0.062201
vt 0.604926 0.062201
vt 0.607372 0.059869
vt 0.613607 0.073299
vt 0.638959 0.073299
vt 0.657047 0.062201
vt 0.647466 0.062201
vt 0.659283 0.073299
vt 0.684635 0.073299
vt 0.688839 0.081258
vt 0.699816 0.081258
vt 0.706005 0.126709
vt 0.682651 0.126709
vt 0.698407 0.059869
vt 0.699536 0.062201
vt 0.690007 0.062201
vt 0.612500 0.017196
vt 0.594699 0.017196
vt 0.977903 0.434165
vt 0.930572 0.434165
vt 0.704907 0.073299
vt 0.706379 0.017196
vt 0.698407 0.029178
vt 0.653445 0.126709
vt 0.630032 0.126709
vt 0.639832 0.081258
vt 0.650869 0.081258
vt 0.600826 0.126709
vt 0.570905 0.126710
vt 0.590825 0.081258
vt 0.601862 0.081258
vt 0.587634 0.073299
vt 0.806647 0.062201
vt 0.806647 0.026846
vt 0.565447 0.081258
vt 0.565447 0.126710
vt 0.582896 0.073299
vt 0.836413 0.073518
vt 0.826118 0.076340
vt 0.729647 0.076340
vt 0.978547 0.423953
vt 0.931216 0.423953
vt 0.921327 0.379121
vt 0.987812 0.379121
vt 0.782171 0.029178
vt 0.799450 0.017196
vt 0.792254 0.031257
vt 0.813181 0.017196
vt 0.816730 0.024865
vt 0.774848 0.029178
vt 0.776183 0.017196
vt 0.830646 0.019004
vt 0.841332 0.024277
vt 0.834136 0.026846
vt 0.824053 0.024865
vt 0.841332 0.068077
vt 0.834136 0.062200
vt 0.750372 0.057790
vt 0.750372 0.031257
vt 0.764765 0.031257
vt 0.764765 0.057790
vt 0.792254 0.057790
vt 0.740289 0.029178
vt 0.732966 0.029178
vt 0.722883 0.031257
vt 0.708490 0.031257
vt 0.816730 0.064181
vt 0.824053 0.064181
vt 0.722883 0.057790
vt 0.732966 0.059869
vt 0.708490 0.057790
vt 0.740289 0.059869
vt 0.774848 0.059869
vt 0.806647 0.076340
vt 0.776183 0.076340
vt 0.729647 0.017196
vt 0.752915 0.076340
vt 0.752915 0.017196
vt 0.775037 0.062201
vt 0.782171 0.059869
vt 0.784617 0.062201
vt 0.775936 0.073299
vt 0.750584 0.073299
vt 0.732496 0.062201
vt 0.742077 0.062201
vt 0.730260 0.073299
vt 0.777043 0.017196
vt 0.794844 0.017196
vt 0.978547 0.434165
vt 0.931216 0.434165
vt 0.735211 0.126709
vt 0.737787 0.081258
vt 0.748824 0.081258
vt 0.758624 0.126709
vt 0.787830 0.126709
vt 0.786794 0.081258
vt 0.797831 0.081258
vt 0.817751 0.126710
vt 0.801909 0.073299
vt 0.823209 0.081258
vt 0.823209 0.126710
vt 0.806647 0.073299
s 1
usemtl initialShadingGroup.004
f 10/1/1 132/1/1 154/2/1 32/2/1
f 6/3/2 17/4/2 18/5/2 16/6/2
f 8/7/3 40/8/4 2/9/3 1/10/3
f 1/10/3 2/9/3 22/11/3 21/12/3
f 1/10/3 13/13/3 42/14/3 8/7/3
f 46/15/3 23/16/3 45/17/4 47/18/4
f 45/17/4 44/19/4 20/20/3 47/18/4
f 30/21/3 36/22/3 41/23/3 4/24/3
f 40/8/4 37/25/3 27/26/3 2/9/3
f 23/16/3 46/15/3 21/12/3 22/11/3
f 4/24/3 41/23/3 42/14/3 26/27/3
f 9/28/3 25/29/3 43/30/3 3/31/3
f 10/1/3 32/2/3 24/32/3 39/33/3
f 35/34/3 33/35/3 34/36/3 31/37/3
f 29/38/3 28/39/3 36/22/3 30/21/3
f 43/30/3 25/29/3 33/35/3 35/34/3
f 73/40/5 195/40/5 134/41/5 12/41/5
f 46/15/6 168/15/6 143/12/6 21/12/6
f 11/42/5 133/42/5 141/43/5 19/43/5
f 47/18/7 169/18/7 168/15/7 46/15/7
f 50/44/8 172/44/8 137/45/8 15/45/8
f 19/43/5 141/43/5 132/1/5 10/1/5
f 20/20/3 44/19/4 24/32/3 32/2/3
f 49/46/5 171/46/5 170/47/5 48/47/5
f 26/27/3 42/14/3 13/13/3 14/48/3
f 14/48/3 50/44/3 3/31/3 26/27/3
f 9/28/3 3/31/3 50/44/3 15/45/3
f 52/49/3 51/50/3 38/51/3 28/39/3
f 56/52/3 57/53/3 48/47/3 11/42/3
f 54/54/3 53/55/3 29/38/3 31/37/3
f 58/56/3 59/57/3 12/41/3 49/46/3
f 55/58/3 116/59/3 120/60/3 59/61/3
f 13/13/8 135/13/8 136/48/8 14/48/8
f 20/20/9 142/20/9 169/18/9 47/18/9
f 34/36/3 95/62/3 116/63/3 55/64/3
f 48/47/5 170/47/5 133/42/5 11/42/5
f 32/2/10 154/2/10 142/20/10 20/20/10
f 14/48/8 136/48/8 172/44/8 50/44/8
f 7/65/8 13/13/8 1/10/8 5/66/8
f 6/3/3 16/6/3 7/67/3 5/68/3
f 139/4/11 17/4/11 6/3/11 128/3/11
f 5/68/12 127/68/12 128/3/12 6/3/12
f 7/65/8 129/65/8 135/13/8 13/13/8
f 1/10/8 123/10/8 127/66/8 5/66/8
f 3/31/5 125/31/5 148/27/5 26/27/5
f 26/27/13 148/27/13 126/24/13 4/24/13
f 134/41/14 195/40/14 242/69/14 181/57/14
f 156/36/8 217/62/8 95/62/8 34/36/8
f 33/35/15 155/35/15 156/36/15 34/36/15
f 37/25/16 159/25/16 160/51/16 38/51/16
f 31/37/17 153/37/17 157/34/17 35/34/17
f 25/29/18 147/29/18 155/35/18 33/35/18
f 9/28/19 131/28/19 147/29/19 25/29/19
f 4/24/18 126/24/18 152/21/18 30/21/18
f 8/7/13 130/7/13 162/8/13 40/8/13
f 40/8/20 162/8/20 159/25/20 37/25/20
f 43/30/21 165/30/21 125/31/21 3/31/21
f 38/51/8 160/51/8 150/39/8 28/39/8
f 76/70/3 70/71/3 9/28/3 15/45/3
f 36/22/12 158/22/12 163/23/12 41/23/12
f 35/34/12 157/34/12 165/30/12 43/30/12
f 42/14/5 164/14/5 130/7/5 8/7/5
f 28/39/17 150/39/17 158/22/17 36/22/17
f 31/37/3 34/36/3 55/64/3 54/54/3
f 58/72/3 57/73/3 53/74/3 54/75/3
f 28/39/3 29/38/3 53/55/3 52/49/3
f 56/76/3 60/77/3 51/78/3 52/79/3
f 37/25/3 38/51/3 51/50/3 27/26/3
f 11/42/3 19/43/3 60/80/3 56/52/3
f 49/46/3 48/47/3 57/53/3 58/56/3
f 210/81/18 88/81/18 63/82/18 185/82/18
f 54/75/3 55/58/3 59/61/3 58/72/3
f 52/79/3 53/74/3 57/73/3 56/76/3
f 27/83/3 51/78/3 60/77/3 61/84/3
f 27/26/3 61/85/3 10/1/3 39/33/3
f 10/1/3 61/85/3 60/80/3 19/43/3
f 12/41/5 134/41/5 171/46/5 49/46/5
f 41/23/22 163/23/22 164/14/22 42/14/22
f 15/45/8 137/45/8 198/70/8 76/70/8
f 93/86/23 215/86/23 193/87/23 71/87/23
f 110/88/5 232/88/5 195/40/5 73/40/5
f 67/89/2 77/90/2 79/91/2 78/92/2
f 69/93/3 62/94/3 63/82/3 101/95/3
f 62/94/3 82/96/3 83/97/3 63/82/3
f 62/94/3 69/93/3 103/98/3 74/99/3
f 107/100/3 108/101/3 106/102/3 84/103/3
f 106/102/3 108/101/3 81/104/3 105/105/3
f 91/106/3 65/107/3 102/108/3 97/109/3
f 101/95/3 63/82/3 88/81/3 98/110/3
f 84/103/3 83/97/3 82/96/3 107/100/3
f 65/107/3 87/111/3 103/98/3 102/108/3
f 70/71/3 64/112/3 104/113/3 86/114/3
f 71/87/3 100/115/3 85/116/3 93/86/3
f 96/117/3 92/118/3 95/62/3 94/119/3
f 90/120/3 91/106/3 97/109/3 89/121/3
f 104/113/3 96/117/3 94/119/3 86/114/3
f 198/70/14 137/45/14 131/28/14 192/71/14
f 82/96/24 204/96/24 229/100/24 107/100/24
f 80/122/5 202/122/5 194/123/5 72/123/5
f 107/100/25 229/100/25 230/101/25 108/101/25
f 76/70/8 198/70/8 233/124/8 111/124/8
f 71/87/5 193/87/5 202/122/5 80/122/5
f 81/104/3 93/86/3 85/116/3 105/105/3
f 109/125/5 231/125/5 232/88/5 110/88/5
f 87/111/3 75/126/3 74/99/3 103/98/3
f 75/126/3 87/111/3 64/112/3 111/124/3
f 70/71/3 76/70/3 111/124/3 64/112/3
f 113/127/3 89/121/3 99/128/3 112/129/3
f 117/130/3 72/123/3 109/125/3 118/131/3
f 115/132/3 92/118/3 90/120/3 114/133/3
f 119/134/3 110/88/3 73/40/3 120/69/3
f 75/126/8 197/126/8 196/99/8 74/99/8
f 108/101/18 230/101/18 203/104/18 81/104/18
f 72/123/5 194/123/5 231/125/5 109/125/5
f 103/98/19 225/98/19 224/108/19 102/108/19
f 81/104/26 203/104/26 215/86/26 93/86/26
f 111/124/8 233/124/8 197/126/8 75/126/8
f 68/135/8 66/136/8 62/94/8 74/99/8
f 67/89/3 66/137/3 68/138/3 77/90/3
f 200/92/27 189/89/27 67/89/27 78/92/27
f 67/89/18 189/89/18 188/137/18 66/137/18
f 74/99/8 196/99/8 190/135/8 68/135/8
f 66/136/8 188/136/8 184/94/8 62/94/8
f 87/111/5 209/111/5 186/112/5 64/112/5
f 65/107/28 187/107/28 209/111/28 87/111/28
f 97/109/15 219/109/15 211/121/15 89/121/15
f 95/62/17 217/62/17 216/119/17 94/119/17
f 99/128/29 221/128/29 220/110/29 98/110/29
f 96/117/15 218/117/15 214/118/15 92/118/15
f 94/119/12 216/119/12 208/114/12 86/114/12
f 86/114/21 208/114/21 192/71/21 70/71/21
f 91/106/9 213/106/9 187/107/9 65/107/9
f 101/95/22 223/95/22 191/93/22 69/93/22
f 98/110/9 220/110/9 223/95/9 101/95/9
f 64/112/30 186/112/30 226/113/30 104/113/30
f 89/121/8 211/121/8 221/128/8 99/128/8
f 102/108/18 224/108/18 219/109/18 97/109/18
f 104/113/18 226/113/18 218/117/18 96/117/18
f 69/93/5 191/93/5 225/98/5 103/98/5
f 92/118/3 115/132/3 116/63/3 95/62/3
f 119/139/3 115/140/3 114/141/3 118/142/3
f 89/121/3 113/127/3 114/133/3 90/120/3
f 117/143/3 113/144/3 112/145/3 121/146/3
f 98/110/3 88/81/3 112/129/3 99/128/3
f 72/123/3 117/130/3 121/147/3 80/122/3
f 110/88/3 119/134/3 118/131/3 109/125/3
f 115/140/3 119/139/3 120/60/3 116/59/3
f 113/144/3 117/143/3 118/142/3 114/141/3
f 88/148/3 122/149/3 121/146/3 112/145/3
f 88/81/3 100/115/3 71/87/3 122/150/3
f 71/87/3 80/122/3 121/147/3 122/150/3
f 17/4/8 139/4/8 140/5/8 18/5/8
f 149/26/12 124/9/12 2/9/12 27/26/12
f 222/115/31 100/115/31 88/81/31 210/81/31
f 222/115/8 207/116/8 85/116/8 100/115/8
f 207/116/32 227/105/32 105/105/32 85/116/32
f 227/105/12 228/102/12 106/102/12 105/105/12
f 206/103/33 84/103/33 106/102/33 228/102/33
f 206/103/5 205/97/5 83/97/5 84/103/5
f 185/82/34 63/82/34 83/97/34 205/97/34
f 213/106/17 91/106/17 90/120/17 212/120/17
f 199/90/12 77/90/12 68/138/12 190/138/12
f 199/90/35 201/91/35 79/91/35 77/90/35
f 62/94/8 184/94/8 204/96/8 82/96/8
f 92/118/8 214/118/8 212/120/8 90/120/8
f 161/33/32 149/26/32 27/26/32 39/33/32
f 161/33/8 39/33/8 24/32/8 146/32/8
f 146/32/31 24/32/31 44/19/31 166/19/31
f 166/19/18 44/19/18 45/17/18 167/17/18
f 145/16/34 167/17/34 45/17/34 23/16/34
f 145/16/5 23/16/5 22/11/5 144/11/5
f 124/9/33 144/11/33 22/11/33 2/9/33
f 152/21/36 151/38/36 29/38/36 30/21/36
f 138/6/18 129/67/18 7/67/18 16/6/18
f 138/6/37 16/6/37 18/5/37 140/5/37
f 21/12/8 143/12/8 123/10/8 1/10/8
f 29/38/8 151/38/8 153/37/8 31/37/8
f 128/3/38 138/6/38 140/5/38 139/4/38
f 130/7/14 123/10/14 124/9/14 162/8/14
f 123/10/14 143/12/14 144/11/14 124/9/14
f 123/10/14 130/7/14 164/14/14 135/13/14
f 168/15/14 169/18/14 167/17/14 145/16/14
f 167/17/14 169/18/14 142/20/14 166/19/14
f 152/21/14 126/24/14 163/23/14 158/22/14
f 162/8/14 124/9/14 149/26/14 159/25/14
f 145/16/14 144/11/14 143/12/14 168/15/14
f 126/24/14 148/27/14 164/14/14 163/23/14
f 131/28/14 125/31/14 165/30/14 147/29/14
f 132/1/14 161/33/14 146/32/14 154/2/14
f 157/34/14 153/37/14 156/36/14 155/35/14
f 151/38/14 152/21/14 158/22/14 150/39/14
f 165/30/14 157/34/14 155/35/14 147/29/14
f 142/20/14 154/2/14 146/32/14 166/19/14
f 148/27/14 136/48/14 135/13/14 164/14/14
f 136/48/14 148/27/14 125/31/14 172/44/14
f 131/28/14 137/45/14 172/44/14 125/31/14
f 174/49/14 150/39/14 160/51/14 173/50/14
f 178/52/14 133/42/14 170/47/14 179/53/14
f 176/54/14 153/37/14 151/38/14 175/55/14
f 180/56/14 171/46/14 134/41/14 181/57/14
f 181/61/14 242/60/14 238/59/14 177/58/14
f 177/64/14 238/63/14 217/62/14 156/36/14
f 129/65/8 127/66/8 123/10/8 135/13/8
f 128/3/14 127/68/14 129/67/14 138/6/14
f 153/37/14 176/54/14 177/64/14 156/36/14
f 180/72/14 176/75/14 175/74/14 179/73/14
f 150/39/14 174/49/14 175/55/14 151/38/14
f 178/76/14 174/79/14 173/78/14 182/77/14
f 159/25/14 149/26/14 173/50/14 160/51/14
f 133/42/14 178/52/14 182/80/14 141/43/14
f 171/46/14 180/56/14 179/53/14 170/47/14
f 176/75/14 180/72/14 181/61/14 177/58/14
f 174/79/14 178/76/14 179/73/14 175/74/14
f 149/83/14 183/84/14 182/77/14 173/78/14
f 149/26/14 161/33/14 132/1/14 183/85/14
f 132/1/14 141/43/14 182/80/14 183/85/14
f 131/28/5 9/28/5 70/71/5 192/71/5
f 189/89/38 200/92/38 201/91/38 199/90/38
f 191/93/14 223/95/14 185/82/14 184/94/14
f 184/94/14 185/82/14 205/97/14 204/96/14
f 184/94/14 196/99/14 225/98/14 191/93/14
f 229/100/14 206/103/14 228/102/39 230/101/39
f 228/102/39 227/105/40 203/104/39 230/101/39
f 213/106/14 219/109/14 224/108/14 187/107/14
f 223/95/14 220/110/14 210/81/14 185/82/14
f 206/103/14 229/100/14 204/96/14 205/97/14
f 187/107/14 224/108/14 225/98/14 209/111/14
f 192/71/14 208/114/14 226/113/14 186/112/14
f 193/87/14 215/86/14 207/116/14 222/115/14
f 218/117/14 216/119/14 217/62/14 214/118/14
f 212/120/14 211/121/14 219/109/14 213/106/14
f 226/113/14 208/114/14 216/119/14 218/117/14
f 203/104/39 227/105/40 207/116/14 215/86/14
f 209/111/14 225/98/14 196/99/14 197/126/14
f 197/126/14 233/124/14 186/112/14 209/111/14
f 192/71/14 186/112/14 233/124/14 198/70/14
f 235/127/14 234/129/14 221/128/14 211/121/14
f 239/130/14 240/131/14 231/125/14 194/123/14
f 237/132/14 236/133/14 212/120/14 214/118/14
f 241/134/14 242/69/14 195/40/14 232/88/14
f 190/135/8 196/99/8 184/94/8 188/136/8
f 189/89/14 199/90/14 190/138/14 188/137/14
f 214/118/14 217/62/14 238/63/14 237/132/14
f 241/139/14 240/142/14 236/141/14 237/140/14
f 211/121/14 212/120/14 236/133/14 235/127/14
f 239/143/14 243/146/14 234/145/14 235/144/14
f 220/110/14 221/128/14 234/129/14 210/81/14
f 194/123/14 202/122/14 243/147/14 239/130/14
f 232/88/14 231/125/14 240/131/14 241/134/14
f 237/140/14 238/59/14 242/60/14 241/139/14
f 235/144/14 236/141/14 240/142/14 239/143/14
f 210/148/14 234/145/14 243/146/14 244/149/14
f 210/81/14 244/150/14 193/87/14 222/115/14
f 193/87/14 244/150/14 243/147/14 202/122/14
f 59/57/3 120/69/3 73/40/3 12/41/3
f 79/91/8 201/91/8 200/92/8 78/92/8
