# Blender 5.1.0
# www.blender.org
mtllib barriere55_135.mtl
o barriere55.135
v 34.461327 0.406540 -27.905680
v 34.440266 0.597164 -27.965244
v 34.655903 0.643224 -27.355406
v 34.604961 0.684291 -27.499468
v 34.486214 0.406540 -27.871584
v 34.486214 0.372823 -27.871584
v 34.538307 0.406540 -27.724253
v 34.511898 0.643224 -27.762661
v 34.757046 0.643224 -27.069368
v 34.383278 1.574800 -28.126406
v 34.529423 1.574797 -27.713099
v 34.733711 1.574797 -27.135353
v 34.529423 0.406540 -27.713099
v 34.597519 0.406540 -27.520517
v 34.733711 0.406540 -27.135353
v 34.538307 0.372823 -27.724253
v 34.282494 0.224799 -27.831997
v 34.355675 0.224799 -27.625040
v 34.440266 1.574797 -27.965242
v 34.338753 1.411591 -28.252327
v 34.421143 0.406540 -28.019321
v 34.410755 0.558039 -28.048700
v 34.389324 0.558039 -28.109308
v 34.389324 1.334634 -28.109308
v 34.727535 0.684291 -27.152822
v 34.634472 0.643224 -27.416016
v 34.440266 1.295509 -27.965242
v 34.533329 1.249445 -27.702051
v 34.634472 1.249445 -27.416016
v 34.604961 1.208379 -27.499468
v 34.655903 1.249445 -27.355406
v 34.353153 1.519063 -28.211609
v 34.727535 1.208379 -27.152822
v 34.757046 1.249445 -27.069368
v 34.685413 1.208379 -27.271950
v 34.562840 1.208379 -27.618597
v 34.482388 1.208379 -27.846115
v 34.511898 1.249448 -27.762661
v 34.410755 1.334634 -28.048700
v 34.482388 0.684291 -27.846115
v 34.562840 0.684291 -27.618597
v 34.533329 0.643224 -27.702051
v 34.685413 0.684291 -27.271950
v 34.359814 1.295506 -28.192762
v 34.359814 0.597164 -28.192762
v 34.370029 0.442265 -28.163876
v 34.338753 0.546410 -28.252327
v 34.597519 1.574797 -27.520517
v 34.665615 1.574797 -27.327936
v 34.665615 0.406540 -27.327936
v 34.504738 1.295509 -27.782909
v 34.532776 1.295509 -27.703615
v 34.629238 1.295509 -27.430811
v 34.657280 1.295509 -27.351517
v 34.753742 1.295509 -27.078711
v 34.530144 1.514728 -27.711060
v 34.604343 1.514728 -27.501223
v 34.663822 1.514728 -27.333008
v 34.738022 1.514728 -27.123171
v 34.454132 1.514729 -27.926027
v 34.440266 1.514729 -27.965242
v 35.074043 0.406540 -26.172873
v 35.095104 0.597164 -26.113310
v 34.879467 0.643224 -26.723148
v 34.930408 0.684291 -26.579086
v 35.071964 0.406540 -26.215034
v 35.071964 0.372823 -26.215034
v 35.019867 0.406540 -26.362366
v 35.023472 0.643224 -26.315891
v 34.778324 0.643224 -27.009186
v 35.152092 1.574800 -25.952148
v 35.005947 1.574797 -26.365456
v 34.801659 1.574797 -26.943201
v 35.005947 0.406540 -26.365456
v 34.937851 0.406540 -26.558037
v 34.801659 0.406540 -26.943201
v 35.019867 0.372823 -26.362366
v 34.888641 0.224799 -26.117764
v 34.815464 0.224799 -26.324722
v 35.095104 1.574797 -26.113310
v 35.196617 1.411591 -25.826227
v 35.114227 0.406540 -26.059233
v 35.124615 0.558039 -26.029854
v 35.146046 0.558039 -25.969246
v 35.146046 1.334634 -25.969246
v 34.807835 0.684291 -26.925730
v 34.900898 0.643224 -26.662539
v 35.095104 1.295509 -26.113310
v 35.002041 1.249445 -26.376503
v 34.900898 1.249445 -26.662539
v 34.930408 1.208379 -26.579086
v 34.879467 1.249445 -26.723148
v 35.182220 1.519063 -25.866945
v 34.807835 1.208379 -26.925730
v 34.778324 1.249445 -27.009186
v 34.849957 1.208379 -26.806604
v 34.972530 1.208379 -26.459955
v 35.052982 1.208379 -26.232439
v 35.023472 1.249448 -26.315891
v 35.124615 1.334634 -26.029854
v 35.052982 0.684291 -26.232439
v 34.972530 0.684291 -26.459955
v 35.002041 0.643224 -26.376503
v 34.849957 0.684291 -26.806604
v 35.175556 1.295506 -25.885792
v 35.175556 0.597164 -25.885792
v 35.165340 0.442265 -25.914679
v 35.196617 0.546410 -25.826227
v 34.937851 1.574797 -26.558037
v 34.869755 1.574797 -26.750618
v 34.869755 0.406540 -26.750618
v 35.030632 1.295509 -26.295645
v 35.002594 1.295509 -26.374939
v 34.906132 1.295509 -26.647743
v 34.878094 1.295509 -26.727037
v 34.781628 1.295509 -26.999844
v 35.005226 1.514728 -26.367495
v 34.931030 1.514728 -26.577332
v 34.871548 1.514728 -26.745546
v 34.797352 1.514728 -26.955383
v 35.081238 1.514729 -26.152527
v 35.095104 1.514729 -26.113310
v 34.546593 0.406540 -27.935831
v 34.525532 0.597164 -27.995394
v 34.741169 0.643224 -27.385555
v 34.690228 0.684291 -27.529617
v 34.548672 0.406540 -27.893669
v 34.548672 0.372823 -27.893669
v 34.600769 0.406540 -27.746338
v 34.597164 0.643224 -27.792812
v 34.842312 0.643224 -27.099518
v 34.468544 1.574800 -28.156555
v 34.614689 1.574797 -27.743248
v 34.818977 1.574797 -27.165503
v 34.614689 0.406540 -27.743248
v 34.682785 0.406540 -27.550667
v 34.818977 0.406540 -27.165503
v 34.600769 0.372823 -27.746338
v 34.731995 0.224799 -27.990940
v 34.805172 0.224799 -27.783981
v 34.525532 1.574797 -27.995394
v 34.424019 1.411591 -28.282476
v 34.506409 0.406540 -28.049471
v 34.496021 0.558039 -28.078850
v 34.474590 0.558039 -28.139458
v 34.474590 1.334634 -28.139458
v 34.812801 0.684291 -27.182974
v 34.719738 0.643224 -27.446165
v 34.525532 1.295509 -27.995394
v 34.618595 1.249445 -27.732201
v 34.719738 1.249445 -27.446165
v 34.690228 1.208379 -27.529617
v 34.741169 1.249445 -27.385555
v 34.438416 1.519063 -28.241758
v 34.812801 1.208379 -27.182974
v 34.842312 1.249445 -27.099518
v 34.770679 1.208379 -27.302099
v 34.648106 1.208379 -27.648748
v 34.567654 1.208379 -27.876265
v 34.597164 1.249448 -27.792812
v 34.496021 1.334634 -28.078850
v 34.567654 0.684291 -27.876265
v 34.648106 0.684291 -27.648748
v 34.618595 0.643224 -27.732201
v 34.770679 0.684291 -27.302099
v 34.445080 1.295506 -28.222912
v 34.445080 0.597164 -28.222912
v 34.455296 0.442265 -28.194025
v 34.424019 0.546410 -28.282476
v 34.682785 1.574797 -27.550667
v 34.750881 1.574797 -27.358086
v 34.750881 0.406540 -27.358086
v 34.590004 1.295509 -27.813059
v 34.618042 1.295509 -27.733765
v 34.714504 1.295509 -27.460960
v 34.742542 1.295509 -27.381666
v 34.839008 1.295509 -27.108860
v 34.615410 1.514728 -27.741209
v 34.689610 1.514728 -27.531372
v 34.749088 1.514728 -27.363157
v 34.823288 1.514728 -27.153320
v 34.539398 1.514729 -27.956177
v 34.525532 1.514729 -27.995394
v 35.159309 0.406540 -26.203024
v 35.180370 0.597164 -26.143459
v 34.964733 0.643224 -26.753298
v 35.015675 0.684291 -26.609236
v 35.134422 0.406540 -26.237120
v 35.134422 0.372823 -26.237120
v 35.082329 0.406540 -26.384451
v 35.108738 0.643224 -26.346043
v 34.863590 0.643224 -27.039335
v 35.237358 1.574800 -25.982298
v 35.091213 1.574797 -26.395605
v 34.886925 1.574797 -26.973351
v 35.091213 0.406540 -26.395605
v 35.023117 0.406540 -26.588186
v 34.886925 0.406540 -26.973351
v 35.082329 0.372823 -26.384451
v 35.338142 0.224799 -26.276707
v 35.264961 0.224799 -26.483664
v 35.180370 1.574797 -26.143461
v 35.281883 1.411591 -25.856377
v 35.199493 0.406540 -26.089382
v 35.209881 0.558039 -26.060003
v 35.231312 0.558039 -25.999395
v 35.231312 1.334634 -25.999395
v 34.893101 0.684291 -26.955881
v 34.986164 0.643224 -26.692688
v 35.180370 1.295509 -26.143461
v 35.087307 1.249445 -26.406652
v 34.986164 1.249445 -26.692688
v 35.015675 1.208379 -26.609236
v 34.964733 1.249445 -26.753298
v 35.267487 1.519063 -25.897095
v 34.893101 1.208379 -26.955881
v 34.863590 1.249445 -27.039335
v 34.935223 1.208379 -26.836754
v 35.057796 1.208379 -26.490107
v 35.138248 1.208379 -26.262589
v 35.108738 1.249448 -26.346043
v 35.209881 1.334634 -26.060003
v 35.138248 0.684291 -26.262589
v 35.057796 0.684291 -26.490107
v 35.087307 0.643224 -26.406652
v 34.935223 0.684291 -26.836754
v 35.260822 1.295506 -25.915941
v 35.260822 0.597164 -25.915941
v 35.250607 0.442265 -25.944828
v 35.281883 0.546410 -25.856377
v 35.023117 1.574797 -26.588186
v 34.955021 1.574797 -26.780769
v 34.955021 0.406540 -26.780767
v 35.115898 1.295509 -26.325794
v 35.087860 1.295509 -26.405088
v 34.991398 1.295509 -26.677893
v 34.963360 1.295509 -26.757187
v 34.866894 1.295509 -27.029993
v 35.090492 1.514728 -26.397644
v 35.016293 1.514728 -26.607481
v 34.956814 1.514728 -26.775696
v 34.882614 1.514728 -26.985533
v 35.166504 1.514729 -26.182676
v 35.180370 1.514729 -26.143461
vn -0.1750 0.8511 -0.4949
vn -0.5515 0.8111 0.1950
vn -0.9428 -0.0000 0.3334
vn -0.9428 0.0001 0.3334
vn -0.0000 1.0000 -0.0000
vn -0.0756 -0.9739 -0.2139
vn -0.2477 -0.6693 -0.7005
vn -0.0000 -1.0000 -0.0000
vn -0.3333 -0.0000 -0.9428
vn -0.3093 0.3729 -0.8748
vn -0.3265 0.2024 -0.9233
vn -0.3334 -0.0000 -0.9428
vn 0.1403 0.9071 0.3968
vn 0.9428 -0.0000 -0.3334
vn 0.1403 -0.9071 0.3968
vn -0.1403 -0.9071 -0.3968
vn 0.3334 -0.0000 0.9428
vn -0.1403 0.9071 -0.3968
vn 0.1750 0.8511 0.4949
vn 0.0756 -0.9739 0.2139
vn 0.2477 -0.6693 0.7005
vn 0.3093 0.3729 0.8748
vn 0.3265 0.2024 0.9233
vn 0.1348 -0.9146 0.3811
vn -0.1348 -0.9146 -0.3812
vn -0.1348 0.9146 -0.3811
vn 0.1347 0.9146 0.3811
vn -0.3255 0.2154 -0.9207
vn -0.1348 -0.9146 -0.3811
vn 0.1348 -0.9146 0.3812
vn 0.1348 0.9146 0.3812
vn 0.3255 0.2154 0.9207
vn 0.5514 0.8111 -0.1950
vn 0.5515 0.8111 -0.1950
vt 0.563424 0.076340
vt 0.553130 0.073518
vt 0.930572 0.423953
vt 0.921307 0.379121
vt 0.987792 0.379121
vt 0.977903 0.423953
vt 0.607372 0.029178
vt 0.597289 0.031257
vt 0.582896 0.026846
vt 0.590093 0.017196
vt 0.572813 0.024865
vt 0.576362 0.017196
vt 0.613360 0.017196
vt 0.614695 0.029178
vt 0.558897 0.019004
vt 0.565490 0.024865
vt 0.555407 0.026846
vt 0.548211 0.024277
vt 0.555407 0.062200
vt 0.548211 0.068077
vt 0.639171 0.057790
vt 0.624778 0.057790
vt 0.624778 0.031257
vt 0.639171 0.031257
vt 0.597289 0.057790
vt 0.582896 0.062201
vt 0.649254 0.029178
vt 0.691136 0.029178
vt 0.681053 0.031257
vt 0.666660 0.031257
vt 0.656577 0.029178
vt 0.565490 0.064181
vt 0.572813 0.064181
vt 0.666660 0.057790
vt 0.681053 0.057790
vt 0.691136 0.059869
vt 0.656577 0.059869
vt 0.649254 0.059869
vt 0.614695 0.059869
vt 0.706379 0.076340
vt 0.683164 0.076340
vt 0.613360 0.076340
vt 0.582896 0.076340
vt 0.659896 0.017196
vt 0.683164 0.017196
vt 0.659896 0.076340
vt 0.636628 0.076340
vt 0.636628 0.017196
vt 0.614506 0.062201
vt 0.604926 0.062201
vt 0.607372 0.059869
vt 0.613607 0.073299
vt 0.638959 0.073299
vt 0.657047 0.062201
vt 0.647466 0.062201
vt 0.659283 0.073299
vt 0.684635 0.073299
vt 0.688839 0.081258
vt 0.699816 0.081258
vt 0.706005 0.126709
vt 0.682651 0.126709
vt 0.698407 0.059869
vt 0.699536 0.062201
vt 0.690007 0.062201
vt 0.612500 0.017196
vt 0.594699 0.017196
vt 0.977903 0.434165
vt 0.930572 0.434165
vt 0.704907 0.073299
vt 0.706379 0.017196
vt 0.698407 0.029178
vt 0.653445 0.126709
vt 0.630032 0.126709
vt 0.639832 0.081258
vt 0.650869 0.081258
vt 0.600826 0.126709
vt 0.570905 0.126710
vt 0.590825 0.081258
vt 0.601862 0.081258
vt 0.587634 0.073299
vt 0.806647 0.062201
vt 0.806647 0.026846
vt 0.565447 0.081258
vt 0.565447 0.126710
vt 0.582896 0.073299
vt 0.836413 0.073518
vt 0.826118 0.076340
vt 0.729647 0.076340
vt 0.978547 0.423953
vt 0.931216 0.423953
vt 0.921327 0.379121
vt 0.987812 0.379121
vt 0.782171 0.029178
vt 0.799450 0.017196
vt 0.792254 0.031257
vt 0.813181 0.017196
vt 0.816730 0.024865
vt 0.774848 0.029178
vt 0.776183 0.017196
vt 0.830646 0.019004
vt 0.841332 0.024277
vt 0.834136 0.026846
vt 0.824053 0.024865
vt 0.841332 0.068077
vt 0.834136 0.062200
vt 0.750372 0.057790
vt 0.750372 0.031257
vt 0.764765 0.031257
vt 0.764765 0.057790
vt 0.792254 0.057790
vt 0.740289 0.029178
vt 0.732966 0.029178
vt 0.722883 0.031257
vt 0.708490 0.031257
vt 0.816730 0.064181
vt 0.824053 0.064181
vt 0.722883 0.057790
vt 0.732966 0.059869
vt 0.708490 0.057790
vt 0.740289 0.059869
vt 0.774848 0.059869
vt 0.806647 0.076340
vt 0.776183 0.076340
vt 0.729647 0.017196
vt 0.752915 0.076340
vt 0.752915 0.017196
vt 0.775037 0.062201
vt 0.782171 0.059869
vt 0.784617 0.062201
vt 0.775936 0.073299
vt 0.750584 0.073299
vt 0.732496 0.062201
vt 0.742077 0.062201
vt 0.730260 0.073299
vt 0.777043 0.017196
vt 0.794844 0.017196
vt 0.978547 0.434165
vt 0.931216 0.434165
vt 0.735211 0.126709
vt 0.737787 0.081258
vt 0.748824 0.081258
vt 0.758624 0.126709
vt 0.787830 0.126709
vt 0.786794 0.081258
vt 0.797831 0.081258
vt 0.817751 0.126710
vt 0.801909 0.073299
vt 0.823209 0.081258
vt 0.823209 0.126710
vt 0.806647 0.073299
s 1
usemtl initialShadingGroup.004
f 10/1/1 132/1/1 154/2/1 32/2/1
f 6/3/2 17/4/2 18/5/2 16/6/2
f 8/7/3 40/8/3 2/9/3 1/10/3
f 1/10/3 2/9/3 22/11/3 21/12/3
f 1/10/3 13/13/3 42/14/3 8/7/3
f 46/15/3 23/16/3 45/17/3 47/18/3
f 45/17/3 44/19/3 20/20/3 47/18/3
f 30/21/3 36/22/3 41/23/3 4/24/3
f 40/8/3 37/25/3 27/26/3 2/9/3
f 23/16/3 46/15/3 21/12/3 22/11/3
f 4/24/3 41/23/3 42/14/3 26/27/3
f 9/28/3 25/29/3 43/30/3 3/31/3
f 10/1/3 32/2/3 24/32/3 39/33/3
f 35/34/3 33/35/3 34/36/4 31/37/3
f 29/38/3 28/39/3 36/22/3 30/21/3
f 43/30/3 25/29/3 33/35/3 35/34/3
f 73/40/5 195/40/5 134/41/5 12/41/5
f 46/15/6 168/15/6 143/12/6 21/12/6
f 11/42/5 133/42/5 141/43/5 19/43/5
f 47/18/7 169/18/7 168/15/7 46/15/7
f 50/44/8 172/44/8 137/45/8 15/45/8
f 19/43/5 141/43/5 132/1/5 10/1/5
f 20/20/3 44/19/3 24/32/3 32/2/3
f 49/46/5 171/46/5 170/47/5 48/47/5
f 26/27/3 42/14/3 13/13/3 14/48/3
f 14/48/3 50/44/3 3/31/3 26/27/3
f 9/28/3 3/31/3 50/44/3 15/45/3
f 52/49/3 51/50/3 38/51/3 28/39/3
f 56/52/3 57/53/3 48/47/3 11/42/3
f 54/54/3 53/55/3 29/38/3 31/37/3
f 58/56/3 59/57/3 12/41/3 49/46/3
f 55/58/3 116/59/3 120/60/3 59/61/3
f 13/13/8 135/13/8 136/48/8 14/48/8
f 20/20/9 142/20/9 169/18/9 47/18/9
f 34/36/4 95/62/3 116/63/3 55/64/3
f 48/47/5 170/47/5 133/42/5 11/42/5
f 32/2/10 154/2/10 142/20/10 20/20/10
f 14/48/8 136/48/8 172/44/8 50/44/8
f 7/65/8 13/13/8 1/10/8 5/66/8
f 6/3/3 16/6/3 7/67/3 5/68/3
f 139/4/11 17/4/11 6/3/11 128/3/11
f 5/68/12 127/68/12 128/3/12 6/3/12
f 7/65/8 129/65/8 135/13/8 13/13/8
f 1/10/8 123/10/8 127/66/8 5/66/8
f 3/31/5 125/31/5 148/27/5 26/27/5
f 26/27/13 148/27/13 126/24/13 4/24/13
f 134/41/14 195/40/14 242/69/14 181/57/14
f 156/36/8 217/62/8 95/62/8 34/36/8
f 33/35/15 155/35/15 156/36/15 34/36/15
f 37/25/15 159/25/15 160/51/15 38/51/15
f 31/37/16 153/37/16 157/34/16 35/34/16
f 25/29/17 147/29/17 155/35/17 33/35/17
f 9/28/13 131/28/13 147/29/13 25/29/13
f 4/24/17 126/24/17 152/21/17 30/21/17
f 8/7/13 130/7/13 162/8/13 40/8/13
f 40/8/17 162/8/17 159/25/17 37/25/17
f 43/30/18 165/30/18 125/31/18 3/31/18
f 38/51/8 160/51/8 150/39/8 28/39/8
f 76/70/3 70/71/3 9/28/3 15/45/3
f 36/22/12 158/22/12 163/23/12 41/23/12
f 35/34/12 157/34/12 165/30/12 43/30/12
f 42/14/5 164/14/5 130/7/5 8/7/5
f 28/39/16 150/39/16 158/22/16 36/22/16
f 31/37/3 34/36/4 55/64/3 54/54/3
f 58/72/3 57/73/3 53/74/3 54/75/3
f 28/39/3 29/38/3 53/55/3 52/49/3
f 56/76/3 60/77/3 51/78/3 52/79/3
f 37/25/3 38/51/3 51/50/3 27/26/3
f 11/42/3 19/43/3 60/80/3 56/52/3
f 49/46/3 48/47/3 57/53/3 58/56/3
f 210/81/17 88/81/17 63/82/17 185/82/17
f 54/75/3 55/58/3 59/61/3 58/72/3
f 52/79/3 53/74/3 57/73/3 56/76/3
f 27/83/3 51/78/3 60/77/3 61/84/3
f 27/26/3 61/85/3 10/1/3 39/33/3
f 10/1/3 61/85/3 60/80/3 19/43/3
f 12/41/5 134/41/5 171/46/5 49/46/5
f 41/23/18 163/23/18 164/14/18 42/14/18
f 15/45/8 137/45/8 198/70/8 76/70/8
f 93/86/19 215/86/19 193/87/19 71/87/19
f 110/88/5 232/88/5 195/40/5 73/40/5
f 67/89/2 77/90/2 79/91/2 78/92/2
f 69/93/3 62/94/3 63/82/3 101/95/3
f 62/94/3 82/96/3 83/97/3 63/82/3
f 62/94/3 69/93/3 103/98/3 74/99/3
f 107/100/3 108/101/3 106/102/3 84/103/3
f 106/102/3 108/101/3 81/104/3 105/105/3
f 91/106/3 65/107/3 102/108/3 97/109/3
f 101/95/3 63/82/3 88/81/3 98/110/3
f 84/103/3 83/97/3 82/96/3 107/100/3
f 65/107/3 87/111/3 103/98/3 102/108/3
f 70/71/3 64/112/3 104/113/3 86/114/3
f 71/87/3 100/115/3 85/116/3 93/86/3
f 96/117/3 92/118/3 95/62/3 94/119/3
f 90/120/3 91/106/3 97/109/3 89/121/3
f 104/113/3 96/117/3 94/119/3 86/114/3
f 198/70/14 137/45/14 131/28/14 192/71/14
f 82/96/20 204/96/20 229/100/20 107/100/20
f 80/122/5 202/122/5 194/123/5 72/123/5
f 107/100/21 229/100/21 230/101/21 108/101/21
f 76/70/8 198/70/8 233/124/8 111/124/8
f 71/87/5 193/87/5 202/122/5 80/122/5
f 81/104/3 93/86/3 85/116/3 105/105/3
f 109/125/5 231/125/5 232/88/5 110/88/5
f 87/111/3 75/126/3 74/99/3 103/98/3
f 75/126/3 87/111/3 64/112/3 111/124/3
f 70/71/3 76/70/3 111/124/3 64/112/3
f 113/127/3 89/121/3 99/128/3 112/129/3
f 117/130/3 72/123/3 109/125/3 118/131/3
f 115/132/3 92/118/3 90/120/3 114/133/3
f 119/134/3 110/88/3 73/40/3 120/69/3
f 75/126/8 197/126/8 196/99/8 74/99/8
f 108/101/17 230/101/17 203/104/17 81/104/17
f 72/123/5 194/123/5 231/125/5 109/125/5
f 103/98/13 225/98/13 224/108/13 102/108/13
f 81/104/22 203/104/22 215/86/22 93/86/22
f 111/124/8 233/124/8 197/126/8 75/126/8
f 68/135/8 66/136/8 62/94/8 74/99/8
f 67/89/3 66/137/3 68/138/3 77/90/3
f 200/92/23 189/89/23 67/89/23 78/92/23
f 67/89/17 189/89/17 188/137/17 66/137/17
f 74/99/8 196/99/8 190/135/8 68/135/8
f 66/136/8 188/136/8 184/94/8 62/94/8
f 87/111/5 209/111/5 186/112/5 64/112/5
f 65/107/18 187/107/18 209/111/18 87/111/18
f 97/109/15 219/109/15 211/121/15 89/121/15
f 95/62/16 217/62/16 216/119/16 94/119/16
f 99/128/16 221/128/16 220/110/16 98/110/16
f 96/117/15 218/117/15 214/118/15 92/118/15
f 94/119/12 216/119/12 208/114/12 86/114/12
f 86/114/18 208/114/18 192/71/18 70/71/18
f 91/106/12 213/106/12 187/107/12 65/107/12
f 101/95/18 223/95/18 191/93/18 69/93/18
f 98/110/12 220/110/12 223/95/12 101/95/12
f 64/112/13 186/112/13 226/113/13 104/113/13
f 89/121/8 211/121/8 221/128/8 99/128/8
f 102/108/17 224/108/17 219/109/17 97/109/17
f 104/113/17 226/113/17 218/117/17 96/117/17
f 69/93/5 191/93/5 225/98/5 103/98/5
f 92/118/3 115/132/3 116/63/3 95/62/3
f 119/139/3 115/140/3 114/141/3 118/142/3
f 89/121/3 113/127/3 114/133/3 90/120/3
f 117/143/3 113/144/3 112/145/3 121/146/3
f 98/110/3 88/81/3 112/129/3 99/128/3
f 72/123/3 117/130/3 121/147/3 80/122/3
f 110/88/3 119/134/3 118/131/3 109/125/3
f 115/140/3 119/139/3 120/60/3 116/59/3
f 113/144/3 117/143/3 118/142/3 114/141/3
f 88/148/3 122/149/3 121/146/3 112/145/3
f 88/81/3 100/115/3 71/87/3 122/150/3
f 71/87/3 80/122/3 121/147/3 122/150/3
f 17/4/8 139/4/8 140/5/8 18/5/8
f 149/26/12 124/9/12 2/9/12 27/26/12
f 222/115/24 100/115/24 88/81/24 210/81/24
f 222/115/8 207/116/8 85/116/8 100/115/8
f 207/116/25 227/105/25 105/105/25 85/116/25
f 227/105/9 228/102/9 106/102/9 105/105/9
f 206/103/26 84/103/26 106/102/26 228/102/26
f 206/103/5 205/97/5 83/97/5 84/103/5
f 185/82/27 63/82/27 83/97/27 205/97/27
f 213/106/16 91/106/16 90/120/16 212/120/16
f 199/90/12 77/90/12 68/138/12 190/138/12
f 199/90/28 201/91/28 79/91/28 77/90/28
f 62/94/8 184/94/8 204/96/8 82/96/8
f 92/118/8 214/118/8 212/120/8 90/120/8
f 161/33/29 149/26/29 27/26/29 39/33/29
f 161/33/8 39/33/8 24/32/8 146/32/8
f 146/32/30 24/32/30 44/19/30 166/19/30
f 166/19/17 44/19/17 45/17/17 167/17/17
f 145/16/31 167/17/31 45/17/31 23/16/31
f 145/16/5 23/16/5 22/11/5 144/11/5
f 124/9/26 144/11/26 22/11/26 2/9/26
f 152/21/15 151/38/15 29/38/15 30/21/15
f 138/6/17 129/67/17 7/67/17 16/6/17
f 138/6/32 16/6/32 18/5/32 140/5/32
f 21/12/8 143/12/8 123/10/8 1/10/8
f 29/38/8 151/38/8 153/37/8 31/37/8
f 128/3/33 138/6/33 140/5/33 139/4/33
f 130/7/14 123/10/14 124/9/14 162/8/14
f 123/10/14 143/12/14 144/11/14 124/9/14
f 123/10/14 130/7/14 164/14/14 135/13/14
f 168/15/14 169/18/14 167/17/14 145/16/14
f 167/17/14 169/18/14 142/20/14 166/19/14
f 152/21/14 126/24/14 163/23/14 158/22/14
f 162/8/14 124/9/14 149/26/14 159/25/14
f 145/16/14 144/11/14 143/12/14 168/15/14
f 126/24/14 148/27/14 164/14/14 163/23/14
f 131/28/14 125/31/14 165/30/14 147/29/14
f 132/1/14 161/33/14 146/32/14 154/2/14
f 157/34/14 153/37/14 156/36/14 155/35/14
f 151/38/14 152/21/14 158/22/14 150/39/14
f 165/30/14 157/34/14 155/35/14 147/29/14
f 142/20/14 154/2/14 146/32/14 166/19/14
f 148/27/14 136/48/14 135/13/14 164/14/14
f 136/48/14 148/27/14 125/31/14 172/44/14
f 131/28/14 137/45/14 172/44/14 125/31/14
f 174/49/14 150/39/14 160/51/14 173/50/14
f 178/52/14 133/42/14 170/47/14 179/53/14
f 176/54/14 153/37/14 151/38/14 175/55/14
f 180/56/14 171/46/14 134/41/14 181/57/14
f 181/61/14 242/60/14 238/59/14 177/58/14
f 177/64/14 238/63/14 217/62/14 156/36/14
f 129/65/8 127/66/8 123/10/8 135/13/8
f 128/3/14 127/68/14 129/67/14 138/6/14
f 153/37/14 176/54/14 177/64/14 156/36/14
f 180/72/14 176/75/14 175/74/14 179/73/14
f 150/39/14 174/49/14 175/55/14 151/38/14
f 178/76/14 174/79/14 173/78/14 182/77/14
f 159/25/14 149/26/14 173/50/14 160/51/14
f 133/42/14 178/52/14 182/80/14 141/43/14
f 171/46/14 180/56/14 179/53/14 170/47/14
f 176/75/14 180/72/14 181/61/14 177/58/14
f 174/79/14 178/76/14 179/73/14 175/74/14
f 149/83/14 183/84/14 182/77/14 173/78/14
f 149/26/14 161/33/14 132/1/14 183/85/14
f 132/1/14 141/43/14 182/80/14 183/85/14
f 131/28/5 9/28/5 70/71/5 192/71/5
f 189/89/34 200/92/34 201/91/34 199/90/34
f 191/93/14 223/95/14 185/82/14 184/94/14
f 184/94/14 185/82/14 205/97/14 204/96/14
f 184/94/14 196/99/14 225/98/14 191/93/14
f 229/100/14 206/103/14 228/102/14 230/101/14
f 228/102/14 227/105/14 203/104/14 230/101/14
f 213/106/14 219/109/14 224/108/14 187/107/14
f 223/95/14 220/110/14 210/81/14 185/82/14
f 206/103/14 229/100/14 204/96/14 205/97/14
f 187/107/14 224/108/14 225/98/14 209/111/14
f 192/71/14 208/114/14 226/113/14 186/112/14
f 193/87/14 215/86/14 207/116/14 222/115/14
f 218/117/14 216/119/14 217/62/14 214/118/14
f 212/120/14 211/121/14 219/109/14 213/106/14
f 226/113/14 208/114/14 216/119/14 218/117/14
f 203/104/14 227/105/14 207/116/14 215/86/14
f 209/111/14 225/98/14 196/99/14 197/126/14
f 197/126/14 233/124/14 186/112/14 209/111/14
f 192/71/14 186/112/14 233/124/14 198/70/14
f 235/127/14 234/129/14 221/128/14 211/121/14
f 239/130/14 240/131/14 231/125/14 194/123/14
f 237/132/14 236/133/14 212/120/14 214/118/14
f 241/134/14 242/69/14 195/40/14 232/88/14
f 190/135/8 196/99/8 184/94/8 188/136/8
f 189/89/14 199/90/14 190/138/14 188/137/14
f 214/118/14 217/62/14 238/63/14 237/132/14
f 241/139/14 240/142/14 236/141/14 237/140/14
f 211/121/14 212/120/14 236/133/14 235/127/14
f 239/143/14 243/146/14 234/145/14 235/144/14
f 220/110/14 221/128/14 234/129/14 210/81/14
f 194/123/14 202/122/14 243/147/14 239/130/14
f 232/88/14 231/125/14 240/131/14 241/134/14
f 237/140/14 238/59/14 242/60/14 241/139/14
f 235/144/14 236/141/14 240/142/14 239/143/14
f 210/148/14 234/145/14 243/146/14 244/149/14
f 210/81/14 244/150/14 193/87/14 222/115/14
f 193/87/14 244/150/14 243/147/14 202/122/14
f 59/57/3 120/69/3 73/40/3 12/41/3
f 79/91/8 201/91/8 200/92/8 78/92/8
