# Blender 5.1.0
# www.blender.org
mtllib barriere55_109.mtl
o barriere55.109
v 68.913597 0.432822 -9.801439
v 68.911163 0.623522 -9.864337
v 68.955681 0.668695 -9.218966
v 68.945671 0.709969 -9.371386
v 68.928421 0.432649 -9.761915
v 68.928085 0.398933 -9.761938
v 68.939064 0.432435 -9.606008
v 68.926247 0.669286 -9.649929
v 68.976349 0.668280 -8.916280
v 68.909088 1.601345 -10.034192
v 68.938950 1.600743 -9.596827
v 68.980698 1.599904 -8.985451
v 68.927513 0.432542 -9.597648
v 68.941429 0.432262 -9.393856
v 68.969261 0.431703 -8.986272
v 68.938736 0.398720 -9.606031
v 68.719780 0.252953 -9.778578
v 68.734734 0.252653 -9.559573
v 68.920731 1.601109 -9.863648
v 68.898384 1.438327 -10.167558
v 68.905388 0.432986 -9.921695
v 68.904747 0.584520 -9.952677
v 68.900368 0.584608 -10.016814
v 68.907967 1.361167 -10.016268
v 68.970718 0.709466 -9.004563
v 68.951302 0.668783 -9.283104
v 68.917999 1.321834 -9.863844
v 68.936562 1.275391 -9.585365
v 68.957237 1.274976 -9.282679
v 68.950798 1.234033 -9.371017
v 68.961617 1.274888 -9.218540
v 68.902382 1.545735 -10.124393
v 68.975853 1.233530 -9.004195
v 68.982285 1.274472 -8.915854
v 68.967239 1.233702 -9.130255
v 68.942192 1.234206 -9.497082
v 68.925751 1.234536 -9.737844
v 68.932182 1.275481 -9.649503
v 68.912346 1.361079 -9.952131
v 68.920624 0.710472 -9.738212
v 68.937065 0.710142 -9.497451
v 68.930626 0.669198 -9.585791
v 68.962112 0.709639 -9.130624
v 68.901558 1.322162 -10.104609
v 68.894722 0.623853 -10.105099
v 68.895287 0.468919 -10.074639
v 68.889915 0.573188 -10.168165
v 68.952866 1.600463 -9.393034
v 68.966782 1.600184 -9.189242
v 68.955345 0.431983 -9.190063
v 68.931175 1.321569 -9.670897
v 68.936905 1.321454 -9.586987
v 68.956619 1.321058 -9.298303
v 68.962349 1.320943 -9.214393
v 68.982056 1.320547 -8.925707
v 68.938507 1.540674 -9.594710
v 68.953674 1.540370 -9.372660
v 68.965828 1.540125 -9.194652
v 68.980995 1.539821 -8.972601
v 68.922974 1.540987 -9.822192
v 68.920143 1.541044 -9.863690
v 69.038811 0.430307 -7.967766
v 69.044983 0.620834 -7.904601
v 69.001366 0.667778 -8.549907
v 69.012177 0.708633 -8.397429
v 69.048126 0.430244 -8.008940
v 69.047798 0.396529 -8.008963
v 69.037476 0.430458 -8.164846
v 69.030800 0.667186 -8.118944
v 68.980698 0.668193 -8.852593
v 69.066200 1.598189 -7.733371
v 69.036331 1.598787 -8.170737
v 68.994583 1.599625 -8.782112
v 69.024895 0.430586 -8.171558
v 69.010979 0.430866 -8.375350
v 68.983147 0.431425 -8.782934
v 69.037148 0.396743 -8.164870
v 68.843658 0.250465 -7.964560
v 68.828697 0.250766 -8.183564
v 69.054558 1.598421 -7.903915
v 69.073700 1.434806 -7.600235
v 69.047028 0.430142 -7.847511
v 69.050629 0.581590 -7.816316
v 69.055016 0.581502 -7.752179
v 69.062614 1.358061 -7.751633
v 68.987129 0.709137 -8.764252
v 69.005745 0.667690 -8.485768
v 69.051819 1.319146 -7.904112
v 69.032349 1.273467 -8.182655
v 69.011681 1.273882 -8.485342
v 69.017311 1.232697 -8.397061
v 69.007301 1.273970 -8.549480
v 69.071815 1.542332 -7.643249
v 68.992264 1.233200 -8.763884
v 68.986633 1.274385 -8.852167
v 69.000870 1.233027 -8.637823
v 69.025917 1.232524 -8.270996
v 69.042358 1.232194 -8.030235
v 69.036728 1.273381 -8.118518
v 69.058235 1.358149 -7.815770
v 69.037231 0.708130 -8.030603
v 69.020790 0.708461 -8.271365
v 69.026413 0.667274 -8.183082
v 68.995735 0.708964 -8.638192
v 69.068260 1.318813 -7.663348
v 69.061424 0.620504 -7.663839
v 69.057823 0.465655 -7.694517
v 69.065231 0.569667 -7.600843
v 69.022415 1.599066 -8.374529
v 69.008499 1.599346 -8.578321
v 68.997063 0.431145 -8.579142
v 69.038643 1.319411 -8.097059
v 69.032913 1.319526 -8.180968
v 69.013199 1.319922 -8.469653
v 69.007469 1.320037 -8.553564
v 68.987755 1.320433 -8.842249
v 69.035599 1.538724 -8.172937
v 69.020439 1.539029 -8.394988
v 69.008278 1.539273 -8.572996
v 68.993118 1.539577 -8.795047
v 69.051132 1.538413 -7.945456
v 69.053970 1.538356 -7.903957
v 69.003822 0.431943 -9.807602
v 69.001381 0.622643 -9.870500
v 69.045906 0.667816 -9.225129
v 69.035896 0.709090 -9.377548
v 68.994514 0.432005 -9.766429
v 68.994179 0.398290 -9.766453
v 69.005157 0.431791 -9.610522
v 69.016472 0.668407 -9.656092
v 69.066574 0.667401 -8.922442
v 68.999306 1.600466 -10.040355
v 69.029175 1.599864 -9.602989
v 69.070923 1.599025 -8.991613
v 69.017738 0.431663 -9.603810
v 69.031654 0.431384 -9.400018
v 69.059486 0.430824 -8.992435
v 69.004829 0.398076 -9.610545
v 69.195419 0.248320 -9.811065
v 69.210381 0.248019 -9.592059
v 69.010956 1.600230 -9.869810
v 68.988609 1.437448 -10.173719
v 68.995613 0.432107 -9.927857
v 68.994972 0.583641 -9.958839
v 68.990593 0.583729 -10.022977
v 68.998192 1.360288 -10.022430
v 69.060944 0.708587 -9.010726
v 69.041527 0.667904 -9.289267
v 69.008224 1.320955 -9.870007
v 69.026787 1.274512 -9.591527
v 69.047455 1.274097 -9.288840
v 69.041023 1.233154 -9.377180
v 69.051842 1.274009 -9.224703
v 68.992607 1.544856 -10.130555
v 69.066078 1.232651 -9.010358
v 69.072510 1.273593 -8.922016
v 69.057465 1.232824 -9.136417
v 69.032417 1.233327 -9.503244
v 69.015976 1.233657 -9.744005
v 69.022408 1.274602 -9.655665
v 69.002571 1.360200 -9.958294
v 69.010849 0.709593 -9.744374
v 69.027290 0.709263 -9.503613
v 69.020851 0.668319 -9.591953
v 69.052338 0.708760 -9.136786
v 68.991783 1.321283 -10.110770
v 68.984940 0.622974 -10.111261
v 68.985512 0.468040 -10.080801
v 68.980141 0.572309 -10.174328
v 69.043091 1.599584 -9.399197
v 69.057007 1.599305 -9.195405
v 69.045570 0.431104 -9.196226
v 69.021400 1.320690 -9.677059
v 69.027130 1.320575 -9.593150
v 69.046837 1.320179 -9.304465
v 69.052567 1.320064 -9.220554
v 69.072281 1.319668 -8.931870
v 69.028732 1.539795 -9.600873
v 69.043900 1.539491 -9.378822
v 69.056053 1.539246 -9.200814
v 69.071220 1.538942 -8.978764
v 69.013199 1.540108 -9.828354
v 69.010368 1.540165 -9.869853
v 69.129036 0.429428 -7.973929
v 69.135208 0.619955 -7.910763
v 69.091591 0.666899 -8.556069
v 69.102402 0.707755 -8.403592
v 69.114220 0.429600 -8.013453
v 69.113884 0.395885 -8.013477
v 69.103569 0.429814 -8.169361
v 69.121017 0.666307 -8.125106
v 69.070923 0.667314 -8.858756
v 69.156425 1.597310 -7.739533
v 69.126556 1.597908 -8.176899
v 69.084808 1.598746 -8.788275
v 69.115120 0.429707 -8.177721
v 69.101204 0.429987 -8.381513
v 69.073372 0.430546 -8.789096
v 69.103241 0.396099 -8.169384
v 69.319298 0.245832 -7.997046
v 69.304344 0.246132 -8.216051
v 69.144783 1.597542 -7.910078
v 69.163925 1.433927 -7.606398
v 69.137253 0.429263 -7.853673
v 69.140854 0.580711 -7.822478
v 69.145233 0.580623 -7.758341
v 69.152840 1.357182 -7.757795
v 69.077354 0.708258 -8.770414
v 69.095970 0.666811 -8.491931
v 69.142044 1.318267 -7.910274
v 69.122574 1.272588 -8.188818
v 69.101906 1.273003 -8.491505
v 69.107536 1.231818 -8.403224
v 69.097527 1.273091 -8.555643
v 69.162041 1.541453 -7.649411
v 69.082489 1.232321 -8.770046
v 69.076859 1.273506 -8.858330
v 69.091095 1.232148 -8.643986
v 69.116142 1.231645 -8.277159
v 69.132584 1.231315 -8.036398
v 69.126953 1.272502 -8.124680
v 69.148460 1.357269 -7.821932
v 69.127457 0.707251 -8.036766
v 69.111015 0.707582 -8.277527
v 69.116638 0.666395 -8.189244
v 69.085960 0.708085 -8.644354
v 69.158485 1.317934 -7.669510
v 69.151649 0.619625 -7.670001
v 69.148048 0.464776 -7.700679
v 69.155457 0.568788 -7.607006
v 69.112640 1.598187 -8.380692
v 69.098724 1.598467 -8.584483
v 69.087288 0.430266 -8.585304
v 69.128868 1.318531 -8.103221
v 69.123138 1.318647 -8.187131
v 69.103424 1.319043 -8.475816
v 69.097694 1.319158 -8.559726
v 69.077980 1.319554 -8.848412
v 69.125824 1.537845 -8.179100
v 69.110664 1.538150 -8.401151
v 69.098503 1.538394 -8.579159
v 69.083344 1.538698 -8.801208
v 69.141357 1.537534 -7.951618
v 69.144188 1.537477 -7.910120
vn -0.0274 0.8518 -0.5231
vn -0.5756 0.8167 0.0404
vn -0.9976 0.0097 0.0681
vn -0.9976 0.0097 0.0682
vn -0.9976 0.0098 0.0682
vn -0.9976 0.0098 0.0681
vn -0.9976 0.0095 0.0681
vn -0.9976 0.0096 0.0681
vn -0.9976 0.0099 0.0681
vn 0.0098 1.0000 0.0007
vn -0.0250 -0.9736 -0.2271
vn -0.0572 -0.6683 -0.7417
vn -0.0098 -1.0000 -0.0007
vn -0.9976 0.0095 0.0680
vn -0.0681 0.0014 -0.9977
vn -0.0596 0.3741 -0.9255
vn -0.0647 0.2037 -0.9769
vn 0.0376 0.9065 0.4205
vn 0.9976 -0.0097 -0.0681
vn 0.9976 -0.0096 -0.0681
vn 0.0198 -0.9077 0.4192
vn 0.0198 -0.9076 0.4193
vn -0.0376 -0.9065 -0.4205
vn 0.0681 -0.0014 0.9977
vn -0.0198 0.9077 -0.4192
vn 0.0441 0.8504 0.5243
vn 0.0059 -0.9742 0.2257
vn 0.0441 -0.6703 0.7408
vn 0.0669 0.3716 0.9260
vn -0.9976 0.0099 0.0680
vn 0.0687 0.2010 0.9772
vn -0.0198 0.9077 -0.4193
vn -0.0375 -0.9065 -0.4205
vn 0.0186 -0.9151 0.4027
vn -0.0365 -0.9140 -0.4040
vn -0.0186 0.9151 -0.4027
vn 0.0365 0.9140 0.4040
vn -0.0644 0.2167 -0.9741
vn 0.0198 -0.9077 0.4193
vn 0.0681 -0.0013 0.9977
vn 0.0686 0.2141 0.9744
vn 0.5915 0.8054 -0.0393
vn 0.9976 -0.0097 -0.0682
vn 0.9976 -0.0098 -0.0681
vn 0.9976 -0.0094 -0.0680
vn 0.9976 -0.0096 -0.0682
vn 0.9976 -0.0099 -0.0681
vn 0.9976 -0.0095 -0.0681
vn 0.9976 -0.0099 -0.0680
vt 0.563424 0.076340
vt 0.553130 0.073518
vt 0.930572 0.423953
vt 0.921307 0.379121
vt 0.987792 0.379121
vt 0.977903 0.423953
vt 0.607372 0.029178
vt 0.597289 0.031257
vt 0.582896 0.026846
vt 0.590093 0.017196
vt 0.572813 0.024865
vt 0.576362 0.017196
vt 0.613360 0.017196
vt 0.614695 0.029178
vt 0.558897 0.019004
vt 0.565490 0.024865
vt 0.555407 0.026846
vt 0.548211 0.024277
vt 0.555407 0.062200
vt 0.548211 0.068077
vt 0.639171 0.057790
vt 0.624778 0.057790
vt 0.624778 0.031257
vt 0.639171 0.031257
vt 0.597289 0.057790
vt 0.582896 0.062201
vt 0.649254 0.029178
vt 0.691136 0.029178
vt 0.681053 0.031257
vt 0.666660 0.031257
vt 0.656577 0.029178
vt 0.565490 0.064181
vt 0.572813 0.064181
vt 0.666660 0.057790
vt 0.681053 0.057790
vt 0.691136 0.059869
vt 0.656577 0.059869
vt 0.649254 0.059869
vt 0.614695 0.059869
vt 0.706379 0.076340
vt 0.683164 0.076340
vt 0.613360 0.076340
vt 0.582896 0.076340
vt 0.659896 0.017196
vt 0.683164 0.017196
vt 0.659896 0.076340
vt 0.636628 0.076340
vt 0.636628 0.017196
vt 0.614506 0.062201
vt 0.604926 0.062201
vt 0.607372 0.059869
vt 0.613607 0.073299
vt 0.638959 0.073299
vt 0.657047 0.062201
vt 0.647466 0.062201
vt 0.659283 0.073299
vt 0.684635 0.073299
vt 0.688839 0.081258
vt 0.699816 0.081258
vt 0.706005 0.126709
vt 0.682651 0.126709
vt 0.698407 0.059869
vt 0.699536 0.062201
vt 0.690007 0.062201
vt 0.612500 0.017196
vt 0.594699 0.017196
vt 0.977903 0.434165
vt 0.930572 0.434165
vt 0.704907 0.073299
vt 0.706379 0.017196
vt 0.698407 0.029178
vt 0.653445 0.126709
vt 0.630032 0.126709
vt 0.639832 0.081258
vt 0.650869 0.081258
vt 0.600826 0.126709
vt 0.570905 0.126710
vt 0.590825 0.081258
vt 0.601862 0.081258
vt 0.587634 0.073299
vt 0.806647 0.062201
vt 0.806647 0.026846
vt 0.565447 0.081258
vt 0.565447 0.126710
vt 0.582896 0.073299
vt 0.836413 0.073518
vt 0.826118 0.076340
vt 0.729647 0.076340
vt 0.978547 0.423953
vt 0.931216 0.423953
vt 0.921327 0.379121
vt 0.987812 0.379121
vt 0.782171 0.029178
vt 0.799450 0.017196
vt 0.792254 0.031257
vt 0.813181 0.017196
vt 0.816730 0.024865
vt 0.774848 0.029178
vt 0.776183 0.017196
vt 0.830646 0.019004
vt 0.841332 0.024277
vt 0.834136 0.026846
vt 0.824053 0.024865
vt 0.841332 0.068077
vt 0.834136 0.062200
vt 0.750372 0.057790
vt 0.750372 0.031257
vt 0.764765 0.031257
vt 0.764765 0.057790
vt 0.792254 0.057790
vt 0.740289 0.029178
vt 0.732966 0.029178
vt 0.722883 0.031257
vt 0.708490 0.031257
vt 0.816730 0.064181
vt 0.824053 0.064181
vt 0.722883 0.057790
vt 0.732966 0.059869
vt 0.708490 0.057790
vt 0.740289 0.059869
vt 0.774848 0.059869
vt 0.806647 0.076340
vt 0.776183 0.076340
vt 0.729647 0.017196
vt 0.752915 0.076340
vt 0.752915 0.017196
vt 0.775037 0.062201
vt 0.782171 0.059869
vt 0.784617 0.062201
vt 0.775936 0.073299
vt 0.750584 0.073299
vt 0.732496 0.062201
vt 0.742077 0.062201
vt 0.730260 0.073299
vt 0.777043 0.017196
vt 0.794844 0.017196
vt 0.978547 0.434165
vt 0.931216 0.434165
vt 0.735211 0.126709
vt 0.737787 0.081258
vt 0.748824 0.081258
vt 0.758624 0.126709
vt 0.787830 0.126709
vt 0.786794 0.081258
vt 0.797831 0.081258
vt 0.817751 0.126710
vt 0.801909 0.073299
vt 0.823209 0.081258
vt 0.823209 0.126710
vt 0.806647 0.073299
s 1
usemtl initialShadingGroup.004
f 10/1/1 132/1/1 154/2/1 32/2/1
f 6/3/2 17/4/2 18/5/2 16/6/2
f 8/7/3 40/8/3 2/9/3 1/10/3
f 1/10/3 2/9/3 22/11/3 21/12/3
f 1/10/3 13/13/3 42/14/3 8/7/3
f 46/15/4 23/16/4 45/17/5 47/18/5
f 45/17/5 44/19/4 20/20/4 47/18/5
f 30/21/6 36/22/6 41/23/7 4/24/7
f 40/8/3 37/25/3 27/26/3 2/9/3
f 23/16/4 46/15/4 21/12/3 22/11/3
f 4/24/7 41/23/7 42/14/3 26/27/3
f 9/28/3 25/29/8 43/30/8 3/31/3
f 10/1/3 32/2/3 24/32/3 39/33/4
f 35/34/7 33/35/7 34/36/3 31/37/6
f 29/38/9 28/39/6 36/22/6 30/21/6
f 43/30/8 25/29/8 33/35/7 35/34/7
f 73/40/10 195/40/10 134/41/10 12/41/10
f 46/15/11 168/15/11 143/12/11 21/12/11
f 11/42/10 133/42/10 141/43/10 19/43/10
f 47/18/12 169/18/12 168/15/12 46/15/12
f 50/44/13 172/44/13 137/45/13 15/45/13
f 19/43/10 141/43/10 132/1/10 10/1/10
f 20/20/4 44/19/4 24/32/3 32/2/3
f 49/46/10 171/46/10 170/47/10 48/47/10
f 26/27/3 42/14/3 13/13/3 14/48/3
f 14/48/3 50/44/3 3/31/3 26/27/3
f 9/28/3 3/31/3 50/44/3 15/45/6
f 52/49/3 51/50/3 38/51/3 28/39/6
f 56/52/6 57/53/3 48/47/3 11/42/14
f 54/54/3 53/55/6 29/38/9 31/37/6
f 58/56/3 59/57/3 12/41/8 49/46/3
f 55/58/3 116/59/6 120/60/3 59/61/3
f 13/13/13 135/13/13 136/48/13 14/48/13
f 20/20/15 142/20/15 169/18/15 47/18/15
f 34/36/3 95/62/3 116/63/6 55/64/3
f 48/47/10 170/47/10 133/42/10 11/42/10
f 32/2/16 154/2/16 142/20/16 20/20/16
f 14/48/13 136/48/13 172/44/13 50/44/13
f 7/65/13 13/13/13 1/10/13 5/66/13
f 6/3/7 16/6/7 7/67/7 5/68/7
f 139/4/17 17/4/17 6/3/17 128/3/17
f 5/68/15 127/68/15 128/3/15 6/3/15
f 7/65/13 129/65/13 135/13/13 13/13/13
f 1/10/13 123/10/13 127/66/13 5/66/13
f 3/31/10 125/31/10 148/27/10 26/27/10
f 26/27/18 148/27/18 126/24/18 4/24/18
f 134/41/19 195/40/20 242/69/19 181/57/19
f 156/36/13 217/62/13 95/62/13 34/36/13
f 33/35/21 155/35/21 156/36/21 34/36/21
f 37/25/22 159/25/22 160/51/22 38/51/22
f 31/37/23 153/37/23 157/34/23 35/34/23
f 25/29/24 147/29/24 155/35/24 33/35/24
f 9/28/18 131/28/18 147/29/18 25/29/18
f 4/24/24 126/24/24 152/21/24 30/21/24
f 8/7/18 130/7/18 162/8/18 40/8/18
f 40/8/24 162/8/24 159/25/24 37/25/24
f 43/30/25 165/30/25 125/31/25 3/31/25
f 38/51/13 160/51/13 150/39/13 28/39/13
f 76/70/3 70/71/6 9/28/3 15/45/6
f 36/22/15 158/22/15 163/23/15 41/23/15
f 35/34/15 157/34/15 165/30/15 43/30/15
f 42/14/10 164/14/10 130/7/10 8/7/10
f 28/39/23 150/39/23 158/22/23 36/22/23
f 31/37/6 34/36/3 55/64/3 54/54/3
f 58/72/3 57/73/3 53/74/6 54/75/3
f 28/39/6 29/38/9 53/55/6 52/49/3
f 56/76/6 60/77/6 51/78/3 52/79/3
f 37/25/3 38/51/3 51/50/3 27/26/3
f 11/42/14 19/43/6 60/80/6 56/52/6
f 49/46/3 48/47/3 57/53/3 58/56/3
f 210/81/24 88/81/24 63/82/24 185/82/24
f 54/75/3 55/58/3 59/61/3 58/72/3
f 52/79/3 53/74/6 57/73/3 56/76/6
f 27/83/3 51/78/3 60/77/6 61/84/3
f 27/26/3 61/85/3 10/1/3 39/33/4
f 10/1/3 61/85/3 60/80/6 19/43/6
f 12/41/10 134/41/10 171/46/10 49/46/10
f 41/23/25 163/23/25 164/14/25 42/14/25
f 15/45/13 137/45/13 198/70/13 76/70/13
f 93/86/26 215/86/26 193/87/26 71/87/26
f 110/88/10 232/88/10 195/40/10 73/40/10
f 67/89/2 77/90/2 79/91/2 78/92/2
f 69/93/3 62/94/3 63/82/3 101/95/3
f 62/94/3 82/96/4 83/97/4 63/82/3
f 62/94/3 69/93/3 103/98/3 74/99/3
f 107/100/3 108/101/3 106/102/3 84/103/3
f 106/102/3 108/101/3 81/104/3 105/105/3
f 91/106/6 65/107/3 102/108/3 97/109/6
f 101/95/3 63/82/3 88/81/6 98/110/3
f 84/103/3 83/97/4 82/96/4 107/100/3
f 65/107/3 87/111/3 103/98/3 102/108/3
f 70/71/6 64/112/3 104/113/6 86/114/6
f 71/87/3 100/115/6 85/116/3 93/86/3
f 96/117/8 92/118/3 95/62/3 94/119/8
f 90/120/3 91/106/6 97/109/6 89/121/6
f 104/113/6 96/117/8 94/119/8 86/114/6
f 198/70/19 137/45/19 131/28/19 192/71/19
f 82/96/27 204/96/27 229/100/27 107/100/27
f 80/122/10 202/122/10 194/123/10 72/123/10
f 107/100/28 229/100/28 230/101/28 108/101/28
f 76/70/13 198/70/13 233/124/13 111/124/13
f 71/87/10 193/87/10 202/122/10 80/122/10
f 81/104/3 93/86/3 85/116/3 105/105/3
f 109/125/10 231/125/10 232/88/10 110/88/10
f 87/111/3 75/126/3 74/99/3 103/98/3
f 75/126/3 87/111/3 64/112/3 111/124/3
f 70/71/6 76/70/3 111/124/3 64/112/3
f 113/127/3 89/121/6 99/128/3 112/129/3
f 117/130/3 72/123/3 109/125/3 118/131/3
f 115/132/3 92/118/3 90/120/3 114/133/3
f 119/134/3 110/88/8 73/40/8 120/69/3
f 75/126/13 197/126/13 196/99/13 74/99/13
f 108/101/24 230/101/24 203/104/24 81/104/24
f 72/123/10 194/123/10 231/125/10 109/125/10
f 103/98/18 225/98/18 224/108/18 102/108/18
f 81/104/29 203/104/29 215/86/29 93/86/29
f 111/124/13 233/124/13 197/126/13 75/126/13
f 68/135/13 66/136/13 62/94/13 74/99/13
f 67/89/30 66/137/30 68/138/30 77/90/30
f 200/92/31 189/89/31 67/89/31 78/92/31
f 67/89/24 189/89/24 188/137/24 66/137/24
f 74/99/13 196/99/13 190/135/13 68/135/13
f 66/136/13 188/136/13 184/94/13 62/94/13
f 87/111/10 209/111/10 186/112/10 64/112/10
f 65/107/32 187/107/32 209/111/32 87/111/32
f 97/109/21 219/109/21 211/121/21 89/121/21
f 95/62/33 217/62/33 216/119/33 94/119/33
f 99/128/23 221/128/23 220/110/23 98/110/23
f 96/117/21 218/117/21 214/118/21 92/118/21
f 94/119/15 216/119/15 208/114/15 86/114/15
f 86/114/25 208/114/25 192/71/25 70/71/25
f 91/106/15 213/106/15 187/107/15 65/107/15
f 101/95/25 223/95/25 191/93/25 69/93/25
f 98/110/15 220/110/15 223/95/15 101/95/15
f 64/112/18 186/112/18 226/113/18 104/113/18
f 89/121/13 211/121/13 221/128/13 99/128/13
f 102/108/24 224/108/24 219/109/24 97/109/24
f 104/113/24 226/113/24 218/117/24 96/117/24
f 69/93/10 191/93/10 225/98/10 103/98/10
f 92/118/3 115/132/3 116/63/6 95/62/3
f 119/139/3 115/140/3 114/141/3 118/142/3
f 89/121/6 113/127/3 114/133/3 90/120/3
f 117/143/3 113/144/3 112/145/3 121/146/3
f 98/110/3 88/81/6 112/129/3 99/128/3
f 72/123/3 117/130/3 121/147/3 80/122/8
f 110/88/8 119/134/3 118/131/3 109/125/3
f 115/140/3 119/139/3 120/60/3 116/59/6
f 113/144/3 117/143/3 118/142/3 114/141/3
f 88/148/6 122/149/3 121/146/3 112/145/3
f 88/81/6 100/115/6 71/87/3 122/150/3
f 71/87/3 80/122/8 121/147/3 122/150/3
f 17/4/13 139/4/13 140/5/13 18/5/13
f 149/26/15 124/9/15 2/9/15 27/26/15
f 222/115/34 100/115/34 88/81/34 210/81/34
f 222/115/13 207/116/13 85/116/13 100/115/13
f 207/116/35 227/105/35 105/105/35 85/116/35
f 227/105/15 228/102/15 106/102/15 105/105/15
f 206/103/36 84/103/36 106/102/36 228/102/36
f 206/103/10 205/97/10 83/97/10 84/103/10
f 185/82/37 63/82/37 83/97/37 205/97/37
f 213/106/23 91/106/23 90/120/23 212/120/23
f 199/90/15 77/90/15 68/138/15 190/138/15
f 199/90/38 201/91/38 79/91/38 77/90/38
f 62/94/13 184/94/13 204/96/13 82/96/13
f 92/118/13 214/118/13 212/120/13 90/120/13
f 161/33/35 149/26/35 27/26/35 39/33/35
f 161/33/13 39/33/13 24/32/13 146/32/13
f 146/32/34 24/32/34 44/19/34 166/19/34
f 166/19/24 44/19/24 45/17/24 167/17/24
f 145/16/37 167/17/37 45/17/37 23/16/37
f 145/16/10 23/16/10 22/11/10 144/11/10
f 124/9/36 144/11/36 22/11/36 2/9/36
f 152/21/39 151/38/39 29/38/39 30/21/39
f 138/6/40 129/67/40 7/67/40 16/6/40
f 138/6/41 16/6/41 18/5/41 140/5/41
f 21/12/13 143/12/13 123/10/13 1/10/13
f 29/38/13 151/38/13 153/37/13 31/37/13
f 128/3/42 138/6/42 140/5/42 139/4/42
f 130/7/19 123/10/19 124/9/19 162/8/19
f 123/10/19 143/12/19 144/11/19 124/9/19
f 123/10/19 130/7/19 164/14/19 135/13/19
f 168/15/43 169/18/43 167/17/43 145/16/43
f 167/17/43 169/18/43 142/20/19 166/19/43
f 152/21/44 126/24/20 163/23/20 158/22/44
f 162/8/19 124/9/19 149/26/19 159/25/44
f 145/16/43 144/11/19 143/12/19 168/15/43
f 126/24/20 148/27/19 164/14/19 163/23/20
f 131/28/19 125/31/19 165/30/44 147/29/44
f 132/1/19 161/33/43 146/32/19 154/2/19
f 157/34/45 153/37/46 156/36/19 155/35/45
f 151/38/46 152/21/44 158/22/44 150/39/19
f 165/30/44 157/34/45 155/35/45 147/29/44
f 142/20/19 154/2/19 146/32/19 166/19/43
f 148/27/19 136/48/19 135/13/19 164/14/19
f 136/48/19 148/27/19 125/31/19 172/44/19
f 131/28/19 137/45/19 172/44/19 125/31/19
f 174/49/19 150/39/19 160/51/19 173/50/19
f 178/52/19 133/42/19 170/47/19 179/53/19
f 176/54/20 153/37/46 151/38/46 175/55/19
f 180/56/19 171/46/19 134/41/19 181/57/19
f 181/61/19 242/60/19 238/59/19 177/58/19
f 177/64/19 238/63/19 217/62/19 156/36/19
f 129/65/13 127/66/13 123/10/13 135/13/13
f 128/3/44 127/68/44 129/67/44 138/6/44
f 153/37/46 176/54/20 177/64/19 156/36/19
f 180/72/19 176/75/20 175/74/19 179/73/19
f 150/39/19 174/49/19 175/55/19 151/38/46
f 178/76/19 174/79/19 173/78/19 182/77/19
f 159/25/44 149/26/19 173/50/19 160/51/19
f 133/42/19 178/52/19 182/80/19 141/43/19
f 171/46/19 180/56/19 179/53/19 170/47/19
f 176/75/20 180/72/19 181/61/19 177/58/19
f 174/79/19 178/76/19 179/73/19 175/74/19
f 149/83/19 183/84/19 182/77/19 173/78/19
f 149/26/19 161/33/43 132/1/19 183/85/19
f 132/1/19 141/43/19 182/80/19 183/85/19
f 131/28/10 9/28/10 70/71/10 192/71/10
f 189/89/42 200/92/42 201/91/42 199/90/42
f 191/93/19 223/95/19 185/82/19 184/94/19
f 184/94/19 185/82/19 205/97/19 204/96/19
f 184/94/19 196/99/19 225/98/19 191/93/19
f 229/100/19 206/103/19 228/102/19 230/101/19
f 228/102/19 227/105/19 203/104/19 230/101/19
f 213/106/47 219/109/47 224/108/20 187/107/20
f 223/95/19 220/110/19 210/81/19 185/82/19
f 206/103/19 229/100/19 204/96/19 205/97/19
f 187/107/20 224/108/20 225/98/19 209/111/19
f 192/71/19 208/114/47 226/113/47 186/112/19
f 193/87/43 215/86/19 207/116/19 222/115/43
f 218/117/44 216/119/48 217/62/19 214/118/20
f 212/120/20 211/121/19 219/109/47 213/106/47
f 226/113/47 208/114/47 216/119/48 218/117/44
f 203/104/19 227/105/19 207/116/19 215/86/19
f 209/111/19 225/98/19 196/99/19 197/126/19
f 197/126/19 233/124/19 186/112/19 209/111/19
f 192/71/19 186/112/19 233/124/19 198/70/19
f 235/127/19 234/129/19 221/128/19 211/121/19
f 239/130/19 240/131/19 231/125/19 194/123/20
f 237/132/19 236/133/19 212/120/20 214/118/20
f 241/134/19 242/69/19 195/40/20 232/88/20
f 190/135/13 196/99/13 184/94/13 188/136/13
f 189/89/49 199/90/49 190/138/49 188/137/49
f 214/118/20 217/62/19 238/63/19 237/132/19
f 241/139/19 240/142/19 236/141/19 237/140/19
f 211/121/19 212/120/20 236/133/19 235/127/19
f 239/143/19 243/146/19 234/145/19 235/144/19
f 220/110/19 221/128/19 234/129/19 210/81/19
f 194/123/20 202/122/44 243/147/19 239/130/19
f 232/88/20 231/125/19 240/131/19 241/134/19
f 237/140/19 238/59/19 242/60/19 241/139/19
f 235/144/19 236/141/19 240/142/19 239/143/19
f 210/148/19 234/145/19 243/146/19 244/149/44
f 210/81/19 244/150/44 193/87/43 222/115/43
f 193/87/43 244/150/44 243/147/19 202/122/44
f 59/57/3 120/69/3 73/40/8 12/41/8
f 79/91/13 201/91/13 200/92/13 78/92/13
