# Blender 5.1.0
# www.blender.org
mtllib barriere55_128.mtl
o barriere55.128
v -32.407581 0.444969 -27.298838
v -32.469162 0.635592 -27.312962
v -31.838690 0.681653 -27.168358
v -31.987625 0.722720 -27.202518
v -32.365459 0.444969 -27.301584
v -32.365459 0.411252 -27.301584
v -32.213142 0.444969 -27.266649
v -32.259724 0.681653 -27.264925
v -31.542974 0.681653 -27.100534
v -32.635773 1.613228 -27.351175
v -32.208485 1.613226 -27.253174
v -31.611193 1.613226 -27.116180
v -32.208485 0.444969 -27.253174
v -32.009388 0.444969 -27.207508
v -31.611193 0.444969 -27.116180
v -32.213142 0.411252 -27.266649
v -32.441162 0.263228 -27.108356
v -32.227203 0.263228 -27.059284
v -32.469158 1.613226 -27.312962
v -32.765953 1.450020 -27.381033
v -32.525066 0.444969 -27.325783
v -32.555439 0.596467 -27.332750
v -32.618099 0.596467 -27.347120
v -32.618099 1.373063 -27.347120
v -31.629253 0.722720 -27.120323
v -31.901350 0.681653 -27.182730
v -32.469158 1.333937 -27.312962
v -32.197063 1.287874 -27.250553
v -31.901350 1.287874 -27.182730
v -31.987625 1.246808 -27.202518
v -31.838690 1.287874 -27.168358
v -32.723858 1.557492 -27.371378
v -31.629253 1.246808 -27.120323
v -31.542974 1.287874 -27.100534
v -31.752409 1.246808 -27.148569
v -32.110786 1.246808 -27.230766
v -32.346001 1.246808 -27.284714
v -32.259724 1.287877 -27.264925
v -32.555439 1.373063 -27.332750
v -32.346001 0.722720 -27.284714
v -32.110786 0.722720 -27.230766
v -32.197063 0.681653 -27.250553
v -31.752409 0.722720 -27.148569
v -32.704376 1.333935 -27.366909
v -32.704376 0.635592 -27.366909
v -32.674511 0.480694 -27.360060
v -32.765953 0.584839 -27.381033
v -32.009388 1.613226 -27.207508
v -31.810289 1.613226 -27.161844
v -31.810289 0.444969 -27.161844
v -32.280655 1.333937 -27.269726
v -32.198681 1.333937 -27.250925
v -31.916645 1.333937 -27.186237
v -31.834667 1.333937 -27.167437
v -31.552633 1.333937 -27.102749
v -32.206375 1.553157 -27.252689
v -31.989441 1.553157 -27.202934
v -31.815533 1.553157 -27.163048
v -31.598598 1.553157 -27.113291
v -32.428616 1.553158 -27.303661
v -32.469158 1.553158 -27.312962
v -30.616150 0.444969 -26.887960
v -30.554571 0.635592 -26.873837
v -31.185041 0.681653 -27.018440
v -31.036106 0.722720 -26.984280
v -30.652866 0.444969 -26.908791
v -30.652866 0.411252 -26.908791
v -30.805182 0.444969 -26.943726
v -30.764008 0.681653 -26.921873
v -31.480757 0.681653 -27.086264
v -30.387957 1.613228 -26.835623
v -30.815247 1.613226 -26.933624
v -31.412539 1.613226 -27.070618
v -30.815247 0.444969 -26.933624
v -31.014345 0.444969 -26.979290
v -31.412539 0.444969 -27.070618
v -30.805182 0.411252 -26.943726
v -30.668934 0.263228 -26.701885
v -30.882895 0.263228 -26.750957
v -30.554573 1.613226 -26.873837
v -30.257776 1.450020 -26.805765
v -30.498665 0.444969 -26.861015
v -30.468292 0.596467 -26.854048
v -30.405634 0.596467 -26.839678
v -30.405634 1.373063 -26.839678
v -31.394478 0.722720 -27.066475
v -31.122381 0.681653 -27.004068
v -30.554573 1.333937 -26.873837
v -30.826668 1.287874 -26.936245
v -31.122381 1.287874 -27.004068
v -31.036106 1.246808 -26.984280
v -31.185041 1.287874 -27.018440
v -30.299873 1.557492 -26.815420
v -31.394478 1.246808 -27.066475
v -31.480757 1.287874 -27.086264
v -31.271322 1.246808 -27.038229
v -30.912945 1.246808 -26.956032
v -30.677731 1.246808 -26.902084
v -30.764008 1.287877 -26.921873
v -30.468292 1.373063 -26.854048
v -30.677731 0.722720 -26.902084
v -30.912945 0.722720 -26.956032
v -30.826668 0.681653 -26.936245
v -31.271322 0.722720 -27.038229
v -30.319355 1.333935 -26.819889
v -30.319355 0.635592 -26.819889
v -30.349220 0.480694 -26.826738
v -30.257776 0.584839 -26.805765
v -31.014345 1.613226 -26.979290
v -31.213442 1.613226 -27.024954
v -31.213442 0.444969 -27.024954
v -30.743074 1.333937 -26.917072
v -30.825050 1.333937 -26.935873
v -31.107086 1.333937 -27.000561
v -31.189062 1.333937 -27.019361
v -31.471098 1.333937 -27.084049
v -30.817356 1.553157 -26.934109
v -31.034290 1.553157 -26.983864
v -31.208199 1.553157 -27.023750
v -31.425133 1.553157 -27.073505
v -30.595116 1.553158 -26.883137
v -30.554573 1.553158 -26.873837
v -32.387363 0.444969 -27.386988
v -32.448944 0.635592 -27.401112
v -31.818472 0.681653 -27.256508
v -31.967407 0.722720 -27.290668
v -32.350647 0.444969 -27.366158
v -32.350647 0.411252 -27.366158
v -32.198334 0.444969 -27.331223
v -32.239506 0.681653 -27.353075
v -31.522757 0.681653 -27.188684
v -32.615555 1.613228 -27.439325
v -32.188267 1.613226 -27.341324
v -31.590975 1.613226 -27.204330
v -32.188267 0.444969 -27.341324
v -31.989168 0.444969 -27.295658
v -31.590975 0.444969 -27.204330
v -32.198334 0.411252 -27.331223
v -32.334579 0.263228 -27.573063
v -32.120621 0.263228 -27.523991
v -32.448940 1.613226 -27.401112
v -32.745735 1.450020 -27.469183
v -32.504848 0.444969 -27.413933
v -32.535221 0.596467 -27.420900
v -32.597881 0.596467 -27.435270
v -32.597881 1.373063 -27.435270
v -31.609035 0.722720 -27.208473
v -31.881132 0.681653 -27.270880
v -32.448940 1.333937 -27.401112
v -32.176846 1.287874 -27.338703
v -31.881132 1.287874 -27.270880
v -31.967407 1.246808 -27.290668
v -31.818472 1.287874 -27.256508
v -32.703640 1.557492 -27.459528
v -31.609035 1.246808 -27.208473
v -31.522757 1.287874 -27.188684
v -31.732191 1.246808 -27.236719
v -32.090569 1.246808 -27.318916
v -32.325783 1.246808 -27.372864
v -32.239506 1.287877 -27.353075
v -32.535221 1.373063 -27.420900
v -32.325783 0.722720 -27.372864
v -32.090569 0.722720 -27.318916
v -32.176846 0.681653 -27.338703
v -31.732191 0.722720 -27.236719
v -32.684158 1.333935 -27.455059
v -32.684158 0.635592 -27.455059
v -32.654293 0.480694 -27.448210
v -32.745735 0.584839 -27.469183
v -31.989168 1.613226 -27.295660
v -31.790071 1.613226 -27.249994
v -31.790071 0.444969 -27.249994
v -32.260437 1.333937 -27.357876
v -32.178463 1.333937 -27.339075
v -31.896427 1.333937 -27.274387
v -31.814449 1.333937 -27.255587
v -31.532415 1.333937 -27.190899
v -32.186157 1.553157 -27.340839
v -31.969223 1.553157 -27.291084
v -31.795315 1.553157 -27.251198
v -31.578381 1.553157 -27.201443
v -32.408398 1.553158 -27.391811
v -32.448940 1.553158 -27.401112
v -30.595932 0.444969 -26.976110
v -30.534353 0.635592 -26.961987
v -31.164824 0.681653 -27.106590
v -31.015888 0.722720 -27.072430
v -30.638056 0.444969 -26.973364
v -30.638056 0.411252 -26.973364
v -30.790371 0.444969 -27.008299
v -30.743790 0.681653 -27.010023
v -31.460539 0.681653 -27.174414
v -30.367739 1.613228 -26.923773
v -30.795029 1.613226 -27.021776
v -31.392321 1.613226 -27.158768
v -30.795029 0.444969 -27.021774
v -30.994127 0.444969 -27.067440
v -31.392321 0.444969 -27.158768
v -30.790371 0.411252 -27.008299
v -30.562351 0.263228 -27.166592
v -30.776310 0.263228 -27.215664
v -30.534355 1.613226 -26.961988
v -30.237558 1.450020 -26.893915
v -30.478447 0.444969 -26.949165
v -30.448074 0.596467 -26.942198
v -30.385416 0.596467 -26.927828
v -30.385416 1.373063 -26.927828
v -31.374260 0.722720 -27.154625
v -31.102163 0.681653 -27.092218
v -30.534355 1.333937 -26.961988
v -30.806450 1.287874 -27.024395
v -31.102163 1.287874 -27.092218
v -31.015888 1.246808 -27.072432
v -31.164824 1.287874 -27.106590
v -30.279655 1.557492 -26.903570
v -31.374260 1.246808 -27.154625
v -31.460539 1.287874 -27.174414
v -31.251104 1.246808 -27.126379
v -30.892727 1.246808 -27.044184
v -30.657513 1.246808 -26.990234
v -30.743790 1.287877 -27.010023
v -30.448074 1.373063 -26.942200
v -30.657513 0.722720 -26.990234
v -30.892727 0.722720 -27.044184
v -30.806450 0.681653 -27.024395
v -31.251104 0.722720 -27.126379
v -30.299137 1.333935 -26.908039
v -30.299137 0.635592 -26.908039
v -30.329002 0.480694 -26.914888
v -30.237558 0.584839 -26.893915
v -30.994127 1.613226 -27.067440
v -31.193224 1.613226 -27.113104
v -31.193224 0.444969 -27.113104
v -30.722857 1.333937 -27.005222
v -30.804832 1.333937 -27.024023
v -31.086868 1.333937 -27.088711
v -31.168844 1.333937 -27.107512
v -31.450880 1.333937 -27.172199
v -30.797138 1.553157 -27.022259
v -31.014072 1.553157 -27.072014
v -31.187981 1.553157 -27.111900
v -31.404915 1.553157 -27.161657
v -30.574898 1.553158 -26.971287
v -30.534355 1.553158 -26.961988
vn -0.5116 0.8511 -0.1173
vn -0.1308 0.8111 0.5701
vn -0.2235 -0.0000 0.9747
vn -0.2236 -0.0000 0.9747
vn -0.0000 1.0000 -0.0000
vn -0.2212 -0.9739 -0.0507
vn -0.7242 -0.6693 -0.1661
vn -0.0000 -1.0000 -0.0000
vn -0.9747 -0.0000 -0.2236
vn -0.9044 0.3729 -0.2074
vn -0.9545 0.2024 -0.2189
vn 0.4102 0.9071 0.0941
vn 0.2235 -0.0000 -0.9747
vn 0.2236 -0.0000 -0.9747
vn 0.4102 -0.9071 0.0941
vn -0.4102 -0.9071 -0.0941
vn 0.9747 -0.0000 0.2236
vn -0.4102 0.9071 -0.0941
vn 0.5117 0.8511 0.1174
vn 0.2212 -0.9739 0.0507
vn 0.7242 -0.6693 0.1661
vn 0.9044 0.3729 0.2074
vn 0.9545 0.2024 0.2189
vn 0.9747 -0.0000 0.2235
vn 0.3940 -0.9146 0.0904
vn -0.3941 -0.9146 -0.0904
vn -0.3940 0.9146 -0.0904
vn 0.3940 0.9146 0.0904
vn -0.9518 0.2154 -0.2183
vn -0.3940 -0.9146 -0.0904
vn 0.3941 -0.9146 0.0904
vn 0.9518 0.2154 0.2183
vn 0.1308 0.8111 -0.5701
vt 0.563424 0.076340
vt 0.553130 0.073518
vt 0.930572 0.423953
vt 0.921307 0.379121
vt 0.987792 0.379121
vt 0.977903 0.423953
vt 0.607372 0.029178
vt 0.597289 0.031257
vt 0.582896 0.026846
vt 0.590093 0.017196
vt 0.572813 0.024865
vt 0.576362 0.017196
vt 0.613360 0.017196
vt 0.614695 0.029178
vt 0.558897 0.019004
vt 0.565490 0.024865
vt 0.555407 0.026846
vt 0.548211 0.024277
vt 0.555407 0.062200
vt 0.548211 0.068077
vt 0.639171 0.057790
vt 0.624778 0.057790
vt 0.624778 0.031257
vt 0.639171 0.031257
vt 0.597289 0.057790
vt 0.582896 0.062201
vt 0.649254 0.029178
vt 0.691136 0.029178
vt 0.681053 0.031257
vt 0.666660 0.031257
vt 0.656577 0.029178
vt 0.565490 0.064181
vt 0.572813 0.064181
vt 0.666660 0.057790
vt 0.681053 0.057790
vt 0.691136 0.059869
vt 0.656577 0.059869
vt 0.649254 0.059869
vt 0.614695 0.059869
vt 0.706379 0.076340
vt 0.683164 0.076340
vt 0.613360 0.076340
vt 0.582896 0.076340
vt 0.659896 0.017196
vt 0.683164 0.017196
vt 0.659896 0.076340
vt 0.636628 0.076340
vt 0.636628 0.017196
vt 0.614506 0.062201
vt 0.604926 0.062201
vt 0.607372 0.059869
vt 0.613607 0.073299
vt 0.638959 0.073299
vt 0.657047 0.062201
vt 0.647466 0.062201
vt 0.659283 0.073299
vt 0.684635 0.073299
vt 0.688839 0.081258
vt 0.699816 0.081258
vt 0.706005 0.126709
vt 0.682651 0.126709
vt 0.698407 0.059869
vt 0.699536 0.062201
vt 0.690007 0.062201
vt 0.612500 0.017196
vt 0.594699 0.017196
vt 0.977903 0.434165
vt 0.930572 0.434165
vt 0.704907 0.073299
vt 0.706379 0.017196
vt 0.698407 0.029178
vt 0.653445 0.126709
vt 0.630032 0.126709
vt 0.639832 0.081258
vt 0.650869 0.081258
vt 0.600826 0.126709
vt 0.570905 0.126710
vt 0.590825 0.081258
vt 0.601862 0.081258
vt 0.587634 0.073299
vt 0.806647 0.062201
vt 0.806647 0.026846
vt 0.565447 0.081258
vt 0.565447 0.126710
vt 0.582896 0.073299
vt 0.836413 0.073518
vt 0.826118 0.076340
vt 0.729647 0.076340
vt 0.978547 0.423953
vt 0.931216 0.423953
vt 0.921327 0.379121
vt 0.987812 0.379121
vt 0.782171 0.029178
vt 0.799450 0.017196
vt 0.792254 0.031257
vt 0.813181 0.017196
vt 0.816730 0.024865
vt 0.774848 0.029178
vt 0.776183 0.017196
vt 0.830646 0.019004
vt 0.841332 0.024277
vt 0.834136 0.026846
vt 0.824053 0.024865
vt 0.841332 0.068077
vt 0.834136 0.062200
vt 0.750372 0.057790
vt 0.750372 0.031257
vt 0.764765 0.031257
vt 0.764765 0.057790
vt 0.792254 0.057790
vt 0.740289 0.029178
vt 0.732966 0.029178
vt 0.722883 0.031257
vt 0.708490 0.031257
vt 0.816730 0.064181
vt 0.824053 0.064181
vt 0.722883 0.057790
vt 0.732966 0.059869
vt 0.708490 0.057790
vt 0.740289 0.059869
vt 0.774848 0.059869
vt 0.806647 0.076340
vt 0.776183 0.076340
vt 0.729647 0.017196
vt 0.752915 0.076340
vt 0.752915 0.017196
vt 0.775037 0.062201
vt 0.782171 0.059869
vt 0.784617 0.062201
vt 0.775936 0.073299
vt 0.750584 0.073299
vt 0.732496 0.062201
vt 0.742077 0.062201
vt 0.730260 0.073299
vt 0.777043 0.017196
vt 0.794844 0.017196
vt 0.978547 0.434165
vt 0.931216 0.434165
vt 0.735211 0.126709
vt 0.737787 0.081258
vt 0.748824 0.081258
vt 0.758624 0.126709
vt 0.787830 0.126709
vt 0.786794 0.081258
vt 0.797831 0.081258
vt 0.817751 0.126710
vt 0.801909 0.073299
vt 0.823209 0.081258
vt 0.823209 0.126710
vt 0.806647 0.073299
s 1
usemtl initialShadingGroup.004
f 10/1/1 132/1/1 154/2/1 32/2/1
f 6/3/2 17/4/2 18/5/2 16/6/2
f 8/7/3 40/8/3 2/9/3 1/10/3
f 1/10/3 2/9/3 22/11/4 21/12/4
f 1/10/3 13/13/4 42/14/4 8/7/3
f 46/15/4 23/16/4 45/17/4 47/18/4
f 45/17/4 44/19/4 20/20/4 47/18/4
f 30/21/4 36/22/4 41/23/3 4/24/3
f 40/8/3 37/25/3 27/26/3 2/9/3
f 23/16/4 46/15/4 21/12/4 22/11/4
f 4/24/3 41/23/3 42/14/4 26/27/4
f 9/28/3 25/29/3 43/30/3 3/31/4
f 10/1/4 32/2/4 24/32/4 39/33/3
f 35/34/3 33/35/3 34/36/4 31/37/3
f 29/38/4 28/39/4 36/22/4 30/21/4
f 43/30/3 25/29/3 33/35/3 35/34/3
f 73/40/5 195/40/5 134/41/5 12/41/5
f 46/15/6 168/15/6 143/12/6 21/12/6
f 11/42/5 133/42/5 141/43/5 19/43/5
f 47/18/7 169/18/7 168/15/7 46/15/7
f 50/44/8 172/44/8 137/45/8 15/45/8
f 19/43/5 141/43/5 132/1/5 10/1/5
f 20/20/4 44/19/4 24/32/4 32/2/4
f 49/46/5 171/46/5 170/47/5 48/47/5
f 26/27/4 42/14/4 13/13/4 14/48/4
f 14/48/4 50/44/4 3/31/4 26/27/4
f 9/28/3 3/31/4 50/44/4 15/45/3
f 52/49/3 51/50/3 38/51/3 28/39/4
f 56/52/4 57/53/4 48/47/4 11/42/4
f 54/54/4 53/55/4 29/38/4 31/37/3
f 58/56/4 59/57/4 12/41/4 49/46/4
f 55/58/4 116/59/4 120/60/3 59/61/4
f 13/13/8 135/13/8 136/48/8 14/48/8
f 20/20/9 142/20/9 169/18/9 47/18/9
f 34/36/4 95/62/4 116/63/4 55/64/4
f 48/47/5 170/47/5 133/42/5 11/42/5
f 32/2/10 154/2/10 142/20/10 20/20/10
f 14/48/8 136/48/8 172/44/8 50/44/8
f 7/65/8 13/13/8 1/10/8 5/66/8
f 6/3/4 16/6/4 7/67/4 5/68/4
f 139/4/11 17/4/11 6/3/11 128/3/11
f 5/68/9 127/68/9 128/3/9 6/3/9
f 7/65/8 129/65/8 135/13/8 13/13/8
f 1/10/8 123/10/8 127/66/8 5/66/8
f 3/31/5 125/31/5 148/27/5 26/27/5
f 26/27/12 148/27/12 126/24/12 4/24/12
f 134/41/13 195/40/14 242/69/13 181/57/14
f 156/36/8 217/62/8 95/62/8 34/36/8
f 33/35/15 155/35/15 156/36/15 34/36/15
f 37/25/15 159/25/15 160/51/15 38/51/15
f 31/37/16 153/37/16 157/34/16 35/34/16
f 25/29/17 147/29/17 155/35/17 33/35/17
f 9/28/12 131/28/12 147/29/12 25/29/12
f 4/24/17 126/24/17 152/21/17 30/21/17
f 8/7/12 130/7/12 162/8/12 40/8/12
f 40/8/17 162/8/17 159/25/17 37/25/17
f 43/30/18 165/30/18 125/31/18 3/31/18
f 38/51/8 160/51/8 150/39/8 28/39/8
f 76/70/3 70/71/3 9/28/3 15/45/3
f 36/22/9 158/22/9 163/23/9 41/23/9
f 35/34/9 157/34/9 165/30/9 43/30/9
f 42/14/5 164/14/5 130/7/5 8/7/5
f 28/39/16 150/39/16 158/22/16 36/22/16
f 31/37/3 34/36/4 55/64/4 54/54/4
f 58/72/4 57/73/4 53/74/4 54/75/4
f 28/39/4 29/38/4 53/55/4 52/49/3
f 56/76/4 60/77/4 51/78/3 52/79/3
f 37/25/3 38/51/3 51/50/3 27/26/3
f 11/42/4 19/43/4 60/80/4 56/52/4
f 49/46/4 48/47/4 57/53/4 58/56/4
f 210/81/17 88/81/17 63/82/17 185/82/17
f 54/75/4 55/58/4 59/61/4 58/72/4
f 52/79/3 53/74/4 57/73/4 56/76/4
f 27/83/3 51/78/3 60/77/4 61/84/4
f 27/26/3 61/85/4 10/1/4 39/33/3
f 10/1/4 61/85/4 60/80/4 19/43/4
f 12/41/5 134/41/5 171/46/5 49/46/5
f 41/23/18 163/23/18 164/14/18 42/14/18
f 15/45/8 137/45/8 198/70/8 76/70/8
f 93/86/19 215/86/19 193/87/19 71/87/19
f 110/88/5 232/88/5 195/40/5 73/40/5
f 67/89/2 77/90/2 79/91/2 78/92/2
f 69/93/4 62/94/4 63/82/4 101/95/4
f 62/94/4 82/96/4 83/97/4 63/82/4
f 62/94/4 69/93/4 103/98/4 74/99/4
f 107/100/4 108/101/4 106/102/4 84/103/4
f 106/102/4 108/101/4 81/104/4 105/105/4
f 91/106/4 65/107/4 102/108/4 97/109/4
f 101/95/4 63/82/4 88/81/4 98/110/4
f 84/103/4 83/97/4 82/96/4 107/100/4
f 65/107/4 87/111/4 103/98/4 102/108/4
f 70/71/3 64/112/4 104/113/4 86/114/4
f 71/87/4 100/115/3 85/116/4 93/86/4
f 96/117/4 92/118/3 95/62/4 94/119/4
f 90/120/4 91/106/4 97/109/4 89/121/4
f 104/113/4 96/117/4 94/119/4 86/114/4
f 198/70/13 137/45/13 131/28/13 192/71/13
f 82/96/20 204/96/20 229/100/20 107/100/20
f 80/122/5 202/122/5 194/123/5 72/123/5
f 107/100/21 229/100/21 230/101/21 108/101/21
f 76/70/8 198/70/8 233/124/8 111/124/8
f 71/87/5 193/87/5 202/122/5 80/122/5
f 81/104/4 93/86/4 85/116/4 105/105/4
f 109/125/5 231/125/5 232/88/5 110/88/5
f 87/111/4 75/126/4 74/99/4 103/98/4
f 75/126/4 87/111/4 64/112/4 111/124/4
f 70/71/3 76/70/3 111/124/4 64/112/4
f 113/127/4 89/121/4 99/128/4 112/129/4
f 117/130/4 72/123/4 109/125/4 118/131/4
f 115/132/3 92/118/3 90/120/4 114/133/4
f 119/134/3 110/88/3 73/40/3 120/69/3
f 75/126/8 197/126/8 196/99/8 74/99/8
f 108/101/17 230/101/17 203/104/17 81/104/17
f 72/123/5 194/123/5 231/125/5 109/125/5
f 103/98/12 225/98/12 224/108/12 102/108/12
f 81/104/22 203/104/22 215/86/22 93/86/22
f 111/124/8 233/124/8 197/126/8 75/126/8
f 68/135/8 66/136/8 62/94/8 74/99/8
f 67/89/4 66/137/4 68/138/4 77/90/4
f 200/92/23 189/89/23 67/89/23 78/92/23
f 67/89/17 189/89/17 188/137/17 66/137/17
f 74/99/8 196/99/8 190/135/8 68/135/8
f 66/136/8 188/136/8 184/94/8 62/94/8
f 87/111/5 209/111/5 186/112/5 64/112/5
f 65/107/18 187/107/18 209/111/18 87/111/18
f 97/109/15 219/109/15 211/121/15 89/121/15
f 95/62/16 217/62/16 216/119/16 94/119/16
f 99/128/16 221/128/16 220/110/16 98/110/16
f 96/117/15 218/117/15 214/118/15 92/118/15
f 94/119/9 216/119/9 208/114/9 86/114/9
f 86/114/18 208/114/18 192/71/18 70/71/18
f 91/106/9 213/106/9 187/107/9 65/107/9
f 101/95/18 223/95/18 191/93/18 69/93/18
f 98/110/9 220/110/9 223/95/9 101/95/9
f 64/112/12 186/112/12 226/113/12 104/113/12
f 89/121/8 211/121/8 221/128/8 99/128/8
f 102/108/24 224/108/24 219/109/24 97/109/24
f 104/113/17 226/113/17 218/117/17 96/117/17
f 69/93/5 191/93/5 225/98/5 103/98/5
f 92/118/3 115/132/3 116/63/4 95/62/4
f 119/139/3 115/140/3 114/141/4 118/142/4
f 89/121/4 113/127/4 114/133/4 90/120/4
f 117/143/4 113/144/4 112/145/4 121/146/4
f 98/110/4 88/81/4 112/129/4 99/128/4
f 72/123/4 117/130/4 121/147/4 80/122/4
f 110/88/3 119/134/3 118/131/4 109/125/4
f 115/140/3 119/139/3 120/60/3 116/59/4
f 113/144/4 117/143/4 118/142/4 114/141/4
f 88/148/4 122/149/4 121/146/4 112/145/4
f 88/81/4 100/115/3 71/87/4 122/150/4
f 71/87/4 80/122/4 121/147/4 122/150/4
f 17/4/8 139/4/8 140/5/8 18/5/8
f 149/26/9 124/9/9 2/9/9 27/26/9
f 222/115/25 100/115/25 88/81/25 210/81/25
f 222/115/8 207/116/8 85/116/8 100/115/8
f 207/116/26 227/105/26 105/105/26 85/116/26
f 227/105/9 228/102/9 106/102/9 105/105/9
f 206/103/27 84/103/27 106/102/27 228/102/27
f 206/103/5 205/97/5 83/97/5 84/103/5
f 185/82/28 63/82/28 83/97/28 205/97/28
f 213/106/16 91/106/16 90/120/16 212/120/16
f 199/90/9 77/90/9 68/138/9 190/138/9
f 199/90/29 201/91/29 79/91/29 77/90/29
f 62/94/8 184/94/8 204/96/8 82/96/8
f 92/118/8 214/118/8 212/120/8 90/120/8
f 161/33/30 149/26/30 27/26/30 39/33/30
f 161/33/8 39/33/8 24/32/8 146/32/8
f 146/32/31 24/32/31 44/19/31 166/19/31
f 166/19/17 44/19/17 45/17/17 167/17/17
f 145/16/28 167/17/28 45/17/28 23/16/28
f 145/16/5 23/16/5 22/11/5 144/11/5
f 124/9/27 144/11/27 22/11/27 2/9/27
f 152/21/15 151/38/15 29/38/15 30/21/15
f 138/6/24 129/67/24 7/67/24 16/6/24
f 138/6/32 16/6/32 18/5/32 140/5/32
f 21/12/8 143/12/8 123/10/8 1/10/8
f 29/38/8 151/38/8 153/37/8 31/37/8
f 128/3/33 138/6/33 140/5/33 139/4/33
f 130/7/14 123/10/13 124/9/13 162/8/14
f 123/10/13 143/12/13 144/11/13 124/9/13
f 123/10/13 130/7/14 164/14/14 135/13/14
f 168/15/14 169/18/13 167/17/13 145/16/14
f 167/17/13 169/18/13 142/20/14 166/19/13
f 152/21/14 126/24/14 163/23/14 158/22/14
f 162/8/14 124/9/13 149/26/13 159/25/13
f 145/16/14 144/11/13 143/12/13 168/15/14
f 126/24/14 148/27/14 164/14/14 163/23/14
f 131/28/13 125/31/14 165/30/14 147/29/14
f 132/1/13 161/33/13 146/32/13 154/2/13
f 157/34/14 153/37/13 156/36/14 155/35/14
f 151/38/14 152/21/14 158/22/14 150/39/14
f 165/30/14 157/34/14 155/35/14 147/29/14
f 142/20/14 154/2/13 146/32/13 166/19/13
f 148/27/14 136/48/14 135/13/14 164/14/14
f 136/48/14 148/27/14 125/31/14 172/44/14
f 131/28/13 137/45/13 172/44/14 125/31/14
f 174/49/14 150/39/14 160/51/14 173/50/14
f 178/52/13 133/42/14 170/47/14 179/53/14
f 176/54/13 153/37/13 151/38/14 175/55/14
f 180/56/14 171/46/14 134/41/13 181/57/14
f 181/61/14 242/60/13 238/59/14 177/58/14
f 177/64/14 238/63/14 217/62/14 156/36/14
f 129/65/8 127/66/8 123/10/8 135/13/8
f 128/3/14 127/68/14 129/67/14 138/6/14
f 153/37/13 176/54/13 177/64/14 156/36/14
f 180/72/14 176/75/13 175/74/14 179/73/14
f 150/39/14 174/49/14 175/55/14 151/38/14
f 178/76/13 174/79/14 173/78/14 182/77/14
f 159/25/13 149/26/13 173/50/14 160/51/14
f 133/42/14 178/52/13 182/80/14 141/43/14
f 171/46/14 180/56/14 179/53/14 170/47/14
f 176/75/13 180/72/14 181/61/14 177/58/14
f 174/79/14 178/76/13 179/73/14 175/74/14
f 149/83/13 183/84/14 182/77/14 173/78/14
f 149/26/13 161/33/13 132/1/13 183/85/14
f 132/1/13 141/43/14 182/80/14 183/85/14
f 131/28/5 9/28/5 70/71/5 192/71/5
f 189/89/33 200/92/33 201/91/33 199/90/33
f 191/93/14 223/95/14 185/82/14 184/94/14
f 184/94/14 185/82/14 205/97/14 204/96/14
f 184/94/14 196/99/14 225/98/14 191/93/14
f 229/100/14 206/103/14 228/102/14 230/101/14
f 228/102/14 227/105/14 203/104/14 230/101/14
f 213/106/13 219/109/13 224/108/13 187/107/13
f 223/95/14 220/110/14 210/81/13 185/82/14
f 206/103/14 229/100/14 204/96/14 205/97/14
f 187/107/13 224/108/13 225/98/14 209/111/14
f 192/71/13 208/114/13 226/113/13 186/112/14
f 193/87/14 215/86/14 207/116/14 222/115/13
f 218/117/13 216/119/13 217/62/14 214/118/13
f 212/120/14 211/121/13 219/109/13 213/106/13
f 226/113/13 208/114/13 216/119/13 218/117/13
f 203/104/14 227/105/14 207/116/14 215/86/14
f 209/111/14 225/98/14 196/99/14 197/126/14
f 197/126/14 233/124/14 186/112/14 209/111/14
f 192/71/13 186/112/14 233/124/14 198/70/13
f 235/127/14 234/129/13 221/128/13 211/121/13
f 239/130/14 240/131/14 231/125/14 194/123/14
f 237/132/13 236/133/14 212/120/14 214/118/13
f 241/134/14 242/69/13 195/40/14 232/88/14
f 190/135/8 196/99/8 184/94/8 188/136/8
f 189/89/14 199/90/14 190/138/14 188/137/14
f 214/118/13 217/62/14 238/63/14 237/132/13
f 241/139/14 240/142/14 236/141/14 237/140/13
f 211/121/13 212/120/14 236/133/14 235/127/14
f 239/143/14 243/146/14 234/145/13 235/144/14
f 220/110/14 221/128/13 234/129/13 210/81/13
f 194/123/14 202/122/14 243/147/14 239/130/14
f 232/88/14 231/125/14 240/131/14 241/134/14
f 237/140/13 238/59/14 242/60/13 241/139/14
f 235/144/14 236/141/14 240/142/14 239/143/14
f 210/148/13 234/145/13 243/146/14 244/149/13
f 210/81/13 244/150/13 193/87/14 222/115/13
f 193/87/14 244/150/13 243/147/14 202/122/14
f 59/57/4 120/69/3 73/40/3 12/41/4
f 79/91/8 201/91/8 200/92/8 78/92/8
