# Blender 5.1.0
# www.blender.org
mtllib barriere55_138.mtl
o barriere55.138
v 10.865940 0.406544 31.238659
v 10.818414 0.597168 31.197033
v 11.305007 0.643228 31.623217
v 11.190059 0.684295 31.522539
v 10.904333 0.406544 31.256208
v 10.904333 0.372827 31.256208
v 11.021889 0.406544 31.359169
v 10.980056 0.643228 31.338608
v 11.533237 0.643228 31.823111
v 10.689823 1.574804 31.084406
v 11.019602 1.574801 31.373243
v 11.480587 1.574801 31.776999
v 11.019602 0.406544 31.373243
v 11.173264 0.406544 31.507828
v 11.480587 0.406544 31.776999
v 11.021889 0.372827 31.359169
v 10.746079 0.224803 31.390461
v 10.911212 0.224803 31.535091
v 10.818416 1.574801 31.197035
v 10.589351 1.411595 30.996408
v 10.775267 0.406544 31.159243
v 10.751825 0.558043 31.138712
v 10.703465 0.558043 31.096355
v 10.703465 1.334638 31.096355
v 11.466647 0.684295 31.764790
v 11.256646 0.643228 31.580858
v 10.818416 1.295513 31.197035
v 11.028417 1.249449 31.380964
v 11.256646 1.249449 31.580858
v 11.190059 1.208383 31.522539
v 11.305007 1.249449 31.623217
v 10.621840 1.519067 31.024864
v 11.466647 1.208383 31.764790
v 11.533237 1.249449 31.823111
v 11.371596 1.208383 31.681540
v 11.095005 1.208383 31.439285
v 10.913467 1.208383 31.280287
v 10.980056 1.249452 31.338608
v 10.751825 1.334638 31.138712
v 10.913467 0.684295 31.280287
v 11.095005 0.684295 31.439285
v 11.028417 0.643228 31.380964
v 11.371596 0.684295 31.681540
v 10.636877 1.295510 31.038034
v 10.636877 0.597168 31.038034
v 10.659925 0.442269 31.058222
v 10.589351 0.546414 30.996408
v 11.173264 1.574801 31.507828
v 11.326925 1.574801 31.642414
v 11.326925 0.406544 31.642414
v 10.963900 1.295513 31.324457
v 11.027168 1.295513 31.379871
v 11.244841 1.295513 31.570518
v 11.308110 1.295513 31.625935
v 11.525783 1.295513 31.816582
v 11.021230 1.514732 31.374670
v 11.188658 1.514732 31.521313
v 11.322878 1.514732 31.638868
v 11.490307 1.514732 31.785511
v 10.849706 1.514733 31.224440
v 10.818416 1.514733 31.197035
v 12.248552 0.406544 32.449619
v 12.296079 0.597168 32.491249
v 11.809485 0.643228 32.065063
v 11.924434 0.684295 32.165741
v 12.226097 0.406544 32.413876
v 12.226097 0.372827 32.413876
v 12.108541 0.406544 32.310917
v 12.134437 0.643228 32.349674
v 11.581256 0.643228 31.865170
v 12.424669 1.574805 32.603874
v 12.094891 1.574801 32.315037
v 11.633906 1.574801 31.911283
v 12.094891 0.406544 32.315037
v 11.941229 0.406544 32.180450
v 11.633906 0.406544 31.911283
v 12.108541 0.372827 32.310917
v 12.113871 0.224803 32.588444
v 11.948738 0.224803 32.443810
v 12.296078 1.574801 32.491245
v 12.525143 1.411595 32.691872
v 12.339226 0.406544 32.529037
v 12.362667 0.558043 32.549568
v 12.411027 0.558043 32.591927
v 12.411028 1.334638 32.591927
v 11.647845 0.684295 31.923491
v 11.857846 0.643228 32.107422
v 12.296078 1.295514 32.491245
v 12.086076 1.249449 32.307316
v 11.857846 1.249449 32.107422
v 11.924434 1.208383 32.165741
v 11.809485 1.249449 32.065063
v 12.492653 1.519068 32.663418
v 11.647845 1.208383 31.923491
v 11.581256 1.249449 31.865170
v 11.742896 1.208383 32.006741
v 12.019488 1.208383 32.248997
v 12.201025 1.208384 32.407993
v 12.134438 1.249452 32.349674
v 12.362667 1.334638 32.549568
v 12.201025 0.684295 32.407993
v 12.019488 0.684295 32.248997
v 12.086076 0.643228 32.307316
v 11.742896 0.684295 32.006741
v 12.477616 1.295511 32.650246
v 12.477616 0.597168 32.650246
v 12.454567 0.442269 32.630058
v 12.525142 0.546414 32.691872
v 11.941229 1.574801 32.180450
v 11.787567 1.574801 32.045868
v 11.787567 0.406544 32.045868
v 12.150593 1.295513 32.363823
v 12.087324 1.295513 32.308411
v 11.869652 1.295513 32.117760
v 11.806383 1.295513 32.062347
v 11.588711 1.295513 31.871698
v 12.093264 1.514732 32.313610
v 11.925835 1.514732 32.166969
v 11.791615 1.514732 32.049412
v 11.624186 1.514732 31.902769
v 12.264787 1.514734 32.463840
v 12.296078 1.514734 32.491245
v 10.925528 0.406544 31.170626
v 10.878001 0.597168 31.129000
v 11.364594 0.643228 31.555182
v 11.249646 0.684295 31.454506
v 10.947983 0.406544 31.206371
v 10.947983 0.372827 31.206371
v 11.065538 0.406544 31.309332
v 11.039643 0.643228 31.270573
v 11.592824 0.643228 31.755077
v 10.749411 1.574804 31.016373
v 11.079189 1.574801 31.305210
v 11.540174 1.574801 31.708963
v 11.079189 0.406544 31.305210
v 11.232851 0.406544 31.439795
v 11.540174 0.406544 31.708963
v 11.065538 0.372827 31.309332
v 11.060209 0.224803 31.031805
v 11.225342 0.224803 31.176435
v 10.878003 1.574801 31.129002
v 10.648938 1.411595 30.928373
v 10.834854 0.406544 31.091209
v 10.811413 0.558043 31.070679
v 10.763053 0.558043 31.028322
v 10.763053 1.334638 31.028322
v 11.526235 0.684295 31.696756
v 11.316234 0.643228 31.512825
v 10.878003 1.295513 31.129002
v 11.088004 1.249449 31.312931
v 11.316234 1.249449 31.512825
v 11.249646 1.208383 31.454506
v 11.364594 1.249449 31.555182
v 10.681427 1.519067 30.956829
v 11.526235 1.208383 31.696754
v 11.592824 1.249449 31.755077
v 11.431184 1.208383 31.613504
v 11.154592 1.208383 31.371252
v 10.973055 1.208383 31.212252
v 11.039643 1.249452 31.270573
v 10.811413 1.334638 31.070677
v 10.973055 0.684295 31.212254
v 11.154592 0.684295 31.371252
v 11.088004 0.643228 31.312931
v 11.431184 0.684295 31.613504
v 10.696464 1.295510 30.969999
v 10.696464 0.597168 30.969999
v 10.719513 0.442269 30.990189
v 10.648938 0.546414 30.928373
v 11.232851 1.574801 31.439795
v 11.386513 1.574801 31.574379
v 11.386513 0.406544 31.574379
v 11.023487 1.295513 31.256424
v 11.086756 1.295513 31.311838
v 11.304428 1.295513 31.502485
v 11.367698 1.295513 31.557899
v 11.585369 1.295513 31.748549
v 11.080817 1.514732 31.306635
v 11.248245 1.514732 31.453278
v 11.382465 1.514732 31.570835
v 11.549894 1.514732 31.717478
v 10.909293 1.514733 31.156406
v 10.878003 1.514733 31.129002
v 12.308140 0.406544 32.381588
v 12.355666 0.597168 32.423214
v 11.869073 0.643228 31.997030
v 11.984021 0.684295 32.097710
v 12.269747 0.406544 32.364040
v 12.269747 0.372827 32.364040
v 12.152191 0.406544 32.261078
v 12.194024 0.643228 32.281639
v 11.640843 0.643228 31.797136
v 12.484257 1.574805 32.535839
v 12.154478 1.574801 32.247002
v 11.693494 1.574801 31.843248
v 12.154478 0.406544 32.247002
v 12.000816 0.406544 32.112419
v 11.693493 0.406544 31.843248
v 12.152191 0.372827 32.261078
v 12.428000 0.224803 32.229786
v 12.262868 0.224803 32.085155
v 12.355665 1.574801 32.423214
v 12.584729 1.411595 32.623840
v 12.398813 0.406544 32.461006
v 12.422255 0.558043 32.481537
v 12.470614 0.558043 32.523891
v 12.470614 1.334638 32.523891
v 11.707433 0.684295 31.855457
v 11.917434 0.643228 32.039387
v 12.355664 1.295514 32.423214
v 12.145663 1.249449 32.239281
v 11.917434 1.249449 32.039387
v 11.984021 1.208383 32.097710
v 11.869073 1.249449 31.997030
v 12.552240 1.519068 32.595383
v 11.707433 1.208383 31.855457
v 11.640843 1.249449 31.797136
v 11.802484 1.208383 31.938707
v 12.079076 1.208383 32.180962
v 12.260612 1.208383 32.339962
v 12.194024 1.249452 32.281639
v 12.422255 1.334638 32.481537
v 12.260612 0.684295 32.339962
v 12.079076 0.684295 32.180962
v 12.145663 0.643228 32.239285
v 11.802484 0.684295 31.938707
v 12.537204 1.295511 32.582214
v 12.537203 0.597168 32.582214
v 12.514154 0.442269 32.562027
v 12.584729 0.546414 32.623840
v 12.000816 1.574801 32.112419
v 11.847155 1.574801 31.977833
v 11.847155 0.406544 31.977833
v 12.210180 1.295513 32.295788
v 12.146912 1.295513 32.240376
v 11.929239 1.295513 32.049728
v 11.865970 1.295513 31.994312
v 11.648298 1.295513 31.803665
v 12.152850 1.514732 32.245579
v 11.985422 1.514732 32.098934
v 11.851202 1.514732 31.981379
v 11.683773 1.514732 31.834736
v 12.324374 1.514734 32.395805
v 12.355664 1.514734 32.423214
vn -0.3949 0.8511 -0.3459
vn -0.3854 0.8111 0.4400
vn -0.6589 -0.0000 0.7523
vn -0.6589 -0.0000 0.7522
vn -0.0000 1.0000 -0.0000
vn -0.1707 -0.9739 -0.1495
vn -0.5589 -0.6693 -0.4895
vn -0.0000 -1.0000 -0.0000
vn -0.7523 -0.0000 -0.6589
vn -0.6980 0.3729 -0.6113
vn -0.7367 0.2024 -0.6452
vn 0.3166 0.9071 0.2773
vn 0.6589 -0.0000 -0.7523
vn 0.3166 -0.9071 0.2773
vn -0.3166 -0.9071 -0.2773
vn 0.7523 -0.0000 0.6588
vn 0.7523 -0.0000 0.6589
vn -0.3166 0.9071 -0.2773
vn -0.7523 -0.0000 -0.6588
vn 0.3949 0.8512 0.3459
vn 0.1707 -0.9739 0.1495
vn 0.5589 -0.6693 0.4895
vn 0.6980 0.3729 0.6114
vn 0.7367 0.2024 0.6452
vn 0.7522 -0.0000 0.6589
vn -0.7522 -0.0000 -0.6589
vn 0.3041 -0.9146 0.2664
vn -0.3041 -0.9146 -0.2664
vn -0.3041 0.9146 -0.2664
vn 0.3041 0.9146 0.2664
vn -0.7346 0.2154 -0.6434
vn 0.7346 0.2154 0.6434
vn 0.3854 0.8111 -0.4400
vn 0.6589 -0.0000 -0.7522
vt 0.563424 0.076340
vt 0.553130 0.073518
vt 0.930572 0.423953
vt 0.921307 0.379121
vt 0.987792 0.379121
vt 0.977903 0.423953
vt 0.607372 0.029178
vt 0.597289 0.031257
vt 0.582896 0.026846
vt 0.590093 0.017196
vt 0.572813 0.024865
vt 0.576362 0.017196
vt 0.613360 0.017196
vt 0.614695 0.029178
vt 0.558897 0.019004
vt 0.565490 0.024865
vt 0.555407 0.026846
vt 0.548211 0.024277
vt 0.555407 0.062200
vt 0.548211 0.068077
vt 0.639171 0.057790
vt 0.624778 0.057790
vt 0.624778 0.031257
vt 0.639171 0.031257
vt 0.597289 0.057790
vt 0.582896 0.062201
vt 0.649254 0.029178
vt 0.691136 0.029178
vt 0.681053 0.031257
vt 0.666660 0.031257
vt 0.656577 0.029178
vt 0.565490 0.064181
vt 0.572813 0.064181
vt 0.666660 0.057790
vt 0.681053 0.057790
vt 0.691136 0.059869
vt 0.656577 0.059869
vt 0.649254 0.059869
vt 0.614695 0.059869
vt 0.706379 0.076340
vt 0.683164 0.076340
vt 0.613360 0.076340
vt 0.582896 0.076340
vt 0.659896 0.017196
vt 0.683164 0.017196
vt 0.659896 0.076340
vt 0.636628 0.076340
vt 0.636628 0.017196
vt 0.614506 0.062201
vt 0.604926 0.062201
vt 0.607372 0.059869
vt 0.613607 0.073299
vt 0.638959 0.073299
vt 0.657047 0.062201
vt 0.647466 0.062201
vt 0.659283 0.073299
vt 0.684635 0.073299
vt 0.688839 0.081258
vt 0.699816 0.081258
vt 0.706005 0.126709
vt 0.682651 0.126709
vt 0.698407 0.059869
vt 0.699536 0.062201
vt 0.690007 0.062201
vt 0.612500 0.017196
vt 0.594699 0.017196
vt 0.977903 0.434165
vt 0.930572 0.434165
vt 0.704907 0.073299
vt 0.706379 0.017196
vt 0.698407 0.029178
vt 0.653445 0.126709
vt 0.630032 0.126709
vt 0.639832 0.081258
vt 0.650869 0.081258
vt 0.600826 0.126709
vt 0.570905 0.126710
vt 0.590825 0.081258
vt 0.601862 0.081258
vt 0.587634 0.073299
vt 0.806647 0.062201
vt 0.806647 0.026846
vt 0.565447 0.081258
vt 0.565447 0.126710
vt 0.582896 0.073299
vt 0.836413 0.073518
vt 0.826118 0.076340
vt 0.729647 0.076340
vt 0.978547 0.423953
vt 0.931216 0.423953
vt 0.921327 0.379121
vt 0.987812 0.379121
vt 0.782171 0.029178
vt 0.799450 0.017196
vt 0.792254 0.031257
vt 0.813181 0.017196
vt 0.816730 0.024865
vt 0.774848 0.029178
vt 0.776183 0.017196
vt 0.830646 0.019004
vt 0.841332 0.024277
vt 0.834136 0.026846
vt 0.824053 0.024865
vt 0.841332 0.068077
vt 0.834136 0.062200
vt 0.750372 0.057790
vt 0.750372 0.031257
vt 0.764765 0.031257
vt 0.764765 0.057790
vt 0.792254 0.057790
vt 0.740289 0.029178
vt 0.732966 0.029178
vt 0.722883 0.031257
vt 0.708490 0.031257
vt 0.816730 0.064181
vt 0.824053 0.064181
vt 0.722883 0.057790
vt 0.732966 0.059869
vt 0.708490 0.057790
vt 0.740289 0.059869
vt 0.774848 0.059869
vt 0.806647 0.076340
vt 0.776183 0.076340
vt 0.729647 0.017196
vt 0.752915 0.076340
vt 0.752915 0.017196
vt 0.775037 0.062201
vt 0.782171 0.059869
vt 0.784617 0.062201
vt 0.775936 0.073299
vt 0.750584 0.073299
vt 0.732496 0.062201
vt 0.742077 0.062201
vt 0.730260 0.073299
vt 0.777043 0.017196
vt 0.794844 0.017196
vt 0.978547 0.434165
vt 0.931216 0.434165
vt 0.735211 0.126709
vt 0.737787 0.081258
vt 0.748824 0.081258
vt 0.758624 0.126709
vt 0.787830 0.126709
vt 0.786794 0.081258
vt 0.797831 0.081258
vt 0.817751 0.126710
vt 0.801909 0.073299
vt 0.823209 0.081258
vt 0.823209 0.126710
vt 0.806647 0.073299
s 1
usemtl initialShadingGroup.004
f 10/1/1 132/1/1 154/2/1 32/2/1
f 6/3/2 17/4/2 18/5/2 16/6/2
f 8/7/3 40/8/3 2/9/3 1/10/3
f 1/10/3 2/9/3 22/11/3 21/12/3
f 1/10/3 13/13/3 42/14/3 8/7/3
f 46/15/3 23/16/3 45/17/3 47/18/3
f 45/17/3 44/19/3 20/20/3 47/18/3
f 30/21/3 36/22/3 41/23/3 4/24/3
f 40/8/3 37/25/3 27/26/3 2/9/3
f 23/16/3 46/15/3 21/12/3 22/11/3
f 4/24/3 41/23/3 42/14/3 26/27/3
f 9/28/3 25/29/3 43/30/3 3/31/3
f 10/1/3 32/2/3 24/32/3 39/33/3
f 35/34/3 33/35/3 34/36/3 31/37/4
f 29/38/4 28/39/3 36/22/3 30/21/3
f 43/30/3 25/29/3 33/35/3 35/34/3
f 73/40/5 195/40/5 134/41/5 12/41/5
f 46/15/6 168/15/6 143/12/6 21/12/6
f 11/42/5 133/42/5 141/43/5 19/43/5
f 47/18/7 169/18/7 168/15/7 46/15/7
f 50/44/8 172/44/8 137/45/8 15/45/8
f 19/43/5 141/43/5 132/1/5 10/1/5
f 20/20/3 44/19/3 24/32/3 32/2/3
f 49/46/5 171/46/5 170/47/5 48/47/5
f 26/27/3 42/14/3 13/13/3 14/48/3
f 14/48/3 50/44/3 3/31/3 26/27/3
f 9/28/3 3/31/3 50/44/3 15/45/3
f 52/49/3 51/50/3 38/51/3 28/39/3
f 56/52/3 57/53/3 48/47/3 11/42/3
f 54/54/3 53/55/3 29/38/4 31/37/4
f 58/56/3 59/57/3 12/41/3 49/46/3
f 55/58/3 116/59/3 120/60/3 59/61/3
f 13/13/8 135/13/8 136/48/8 14/48/8
f 20/20/9 142/20/9 169/18/9 47/18/9
f 34/36/3 95/62/3 116/63/3 55/64/3
f 48/47/5 170/47/5 133/42/5 11/42/5
f 32/2/10 154/2/10 142/20/10 20/20/10
f 14/48/8 136/48/8 172/44/8 50/44/8
f 7/65/8 13/13/8 1/10/8 5/66/8
f 6/3/3 16/6/3 7/67/3 5/68/3
f 139/4/11 17/4/11 6/3/11 128/3/11
f 5/68/9 127/68/9 128/3/9 6/3/9
f 7/65/8 129/65/8 135/13/8 13/13/8
f 1/10/8 123/10/8 127/66/8 5/66/8
f 3/31/5 125/31/5 148/27/5 26/27/5
f 26/27/12 148/27/12 126/24/12 4/24/12
f 134/41/13 195/40/13 242/69/13 181/57/13
f 156/36/8 217/62/8 95/62/8 34/36/8
f 33/35/14 155/35/14 156/36/14 34/36/14
f 37/25/14 159/25/14 160/51/14 38/51/14
f 31/37/15 153/37/15 157/34/15 35/34/15
f 25/29/16 147/29/16 155/35/16 33/35/16
f 9/28/12 131/28/12 147/29/12 25/29/12
f 4/24/17 126/24/17 152/21/17 30/21/17
f 8/7/12 130/7/12 162/8/12 40/8/12
f 40/8/17 162/8/17 159/25/17 37/25/17
f 43/30/18 165/30/18 125/31/18 3/31/18
f 38/51/8 160/51/8 150/39/8 28/39/8
f 76/70/3 70/71/3 9/28/3 15/45/3
f 36/22/9 158/22/9 163/23/9 41/23/9
f 35/34/19 157/34/19 165/30/19 43/30/19
f 42/14/5 164/14/5 130/7/5 8/7/5
f 28/39/15 150/39/15 158/22/15 36/22/15
f 31/37/4 34/36/3 55/64/3 54/54/3
f 58/72/3 57/73/3 53/74/3 54/75/3
f 28/39/3 29/38/4 53/55/3 52/49/3
f 56/76/3 60/77/3 51/78/3 52/79/3
f 37/25/3 38/51/3 51/50/3 27/26/3
f 11/42/3 19/43/3 60/80/3 56/52/3
f 49/46/3 48/47/3 57/53/3 58/56/3
f 210/81/17 88/81/17 63/82/17 185/82/17
f 54/75/3 55/58/3 59/61/3 58/72/3
f 52/79/3 53/74/3 57/73/3 56/76/3
f 27/83/3 51/78/3 60/77/3 61/84/3
f 27/26/3 61/85/3 10/1/3 39/33/3
f 10/1/3 61/85/3 60/80/3 19/43/3
f 12/41/5 134/41/5 171/46/5 49/46/5
f 41/23/18 163/23/18 164/14/18 42/14/18
f 15/45/8 137/45/8 198/70/8 76/70/8
f 93/86/20 215/86/20 193/87/20 71/87/20
f 110/88/5 232/88/5 195/40/5 73/40/5
f 67/89/2 77/90/2 79/91/2 78/92/2
f 69/93/3 62/94/3 63/82/3 101/95/3
f 62/94/3 82/96/3 83/97/3 63/82/3
f 62/94/3 69/93/3 103/98/3 74/99/3
f 107/100/3 108/101/3 106/102/3 84/103/3
f 106/102/3 108/101/3 81/104/3 105/105/3
f 91/106/3 65/107/3 102/108/3 97/109/3
f 101/95/3 63/82/3 88/81/3 98/110/3
f 84/103/3 83/97/3 82/96/3 107/100/3
f 65/107/3 87/111/3 103/98/3 102/108/3
f 70/71/3 64/112/3 104/113/3 86/114/3
f 71/87/3 100/115/3 85/116/3 93/86/3
f 96/117/3 92/118/3 95/62/3 94/119/3
f 90/120/3 91/106/3 97/109/3 89/121/3
f 104/113/3 96/117/3 94/119/3 86/114/3
f 198/70/13 137/45/13 131/28/13 192/71/13
f 82/96/21 204/96/21 229/100/21 107/100/21
f 80/122/5 202/122/5 194/123/5 72/123/5
f 107/100/22 229/100/22 230/101/22 108/101/22
f 76/70/8 198/70/8 233/124/8 111/124/8
f 71/87/5 193/87/5 202/122/5 80/122/5
f 81/104/3 93/86/3 85/116/3 105/105/3
f 109/125/5 231/125/5 232/88/5 110/88/5
f 87/111/3 75/126/3 74/99/3 103/98/3
f 75/126/3 87/111/3 64/112/3 111/124/3
f 70/71/3 76/70/3 111/124/3 64/112/3
f 113/127/3 89/121/3 99/128/3 112/129/3
f 117/130/3 72/123/3 109/125/3 118/131/3
f 115/132/3 92/118/3 90/120/3 114/133/3
f 119/134/3 110/88/3 73/40/3 120/69/3
f 75/126/8 197/126/8 196/99/8 74/99/8
f 108/101/17 230/101/17 203/104/17 81/104/17
f 72/123/5 194/123/5 231/125/5 109/125/5
f 103/98/12 225/98/12 224/108/12 102/108/12
f 81/104/23 203/104/23 215/86/23 93/86/23
f 111/124/8 233/124/8 197/126/8 75/126/8
f 68/135/8 66/136/8 62/94/8 74/99/8
f 67/89/3 66/137/3 68/138/3 77/90/3
f 200/92/24 189/89/24 67/89/24 78/92/24
f 67/89/25 189/89/25 188/137/25 66/137/25
f 74/99/8 196/99/8 190/135/8 68/135/8
f 66/136/8 188/136/8 184/94/8 62/94/8
f 87/111/5 209/111/5 186/112/5 64/112/5
f 65/107/18 187/107/18 209/111/18 87/111/18
f 97/109/14 219/109/14 211/121/14 89/121/14
f 95/62/15 217/62/15 216/119/15 94/119/15
f 99/128/15 221/128/15 220/110/15 98/110/15
f 96/117/14 218/117/14 214/118/14 92/118/14
f 94/119/26 216/119/26 208/114/26 86/114/26
f 86/114/18 208/114/18 192/71/18 70/71/18
f 91/106/26 213/106/26 187/107/26 65/107/26
f 101/95/18 223/95/18 191/93/18 69/93/18
f 98/110/9 220/110/9 223/95/9 101/95/9
f 64/112/12 186/112/12 226/113/12 104/113/12
f 89/121/8 211/121/8 221/128/8 99/128/8
f 102/108/16 224/108/16 219/109/16 97/109/16
f 104/113/17 226/113/17 218/117/17 96/117/17
f 69/93/5 191/93/5 225/98/5 103/98/5
f 92/118/3 115/132/3 116/63/3 95/62/3
f 119/139/3 115/140/3 114/141/3 118/142/3
f 89/121/3 113/127/3 114/133/3 90/120/3
f 117/143/3 113/144/3 112/145/3 121/146/3
f 98/110/3 88/81/3 112/129/3 99/128/3
f 72/123/3 117/130/3 121/147/3 80/122/3
f 110/88/3 119/134/3 118/131/3 109/125/3
f 115/140/3 119/139/3 120/60/3 116/59/3
f 113/144/3 117/143/3 118/142/3 114/141/3
f 88/148/3 122/149/3 121/146/3 112/145/3
f 88/81/3 100/115/3 71/87/3 122/150/3
f 71/87/3 80/122/3 121/147/3 122/150/3
f 17/4/8 139/4/8 140/5/8 18/5/8
f 149/26/9 124/9/9 2/9/9 27/26/9
f 222/115/27 100/115/27 88/81/27 210/81/27
f 222/115/8 207/116/8 85/116/8 100/115/8
f 207/116/28 227/105/28 105/105/28 85/116/28
f 227/105/26 228/102/26 106/102/26 105/105/26
f 206/103/29 84/103/29 106/102/29 228/102/29
f 206/103/5 205/97/5 83/97/5 84/103/5
f 185/82/30 63/82/30 83/97/30 205/97/30
f 213/106/15 91/106/15 90/120/15 212/120/15
f 199/90/9 77/90/9 68/138/9 190/138/9
f 199/90/31 201/91/31 79/91/31 77/90/31
f 62/94/8 184/94/8 204/96/8 82/96/8
f 92/118/8 214/118/8 212/120/8 90/120/8
f 161/33/28 149/26/28 27/26/28 39/33/28
f 161/33/8 39/33/8 24/32/8 146/32/8
f 146/32/27 24/32/27 44/19/27 166/19/27
f 166/19/17 44/19/17 45/17/17 167/17/17
f 145/16/30 167/17/30 45/17/30 23/16/30
f 145/16/5 23/16/5 22/11/5 144/11/5
f 124/9/29 144/11/29 22/11/29 2/9/29
f 152/21/14 151/38/14 29/38/14 30/21/14
f 138/6/17 129/67/17 7/67/17 16/6/17
f 138/6/32 16/6/32 18/5/32 140/5/32
f 21/12/8 143/12/8 123/10/8 1/10/8
f 29/38/8 151/38/8 153/37/8 31/37/8
f 128/3/33 138/6/33 140/5/33 139/4/33
f 130/7/13 123/10/13 124/9/13 162/8/13
f 123/10/13 143/12/13 144/11/13 124/9/13
f 123/10/13 130/7/13 164/14/13 135/13/13
f 168/15/13 169/18/13 167/17/13 145/16/13
f 167/17/13 169/18/13 142/20/13 166/19/13
f 152/21/13 126/24/13 163/23/13 158/22/13
f 162/8/13 124/9/13 149/26/13 159/25/13
f 145/16/13 144/11/13 143/12/13 168/15/13
f 126/24/13 148/27/13 164/14/13 163/23/13
f 131/28/13 125/31/13 165/30/13 147/29/13
f 132/1/13 161/33/13 146/32/13 154/2/13
f 157/34/13 153/37/13 156/36/13 155/35/13
f 151/38/13 152/21/13 158/22/13 150/39/13
f 165/30/13 157/34/13 155/35/13 147/29/13
f 142/20/13 154/2/13 146/32/13 166/19/13
f 148/27/13 136/48/13 135/13/13 164/14/13
f 136/48/13 148/27/13 125/31/13 172/44/13
f 131/28/13 137/45/13 172/44/13 125/31/13
f 174/49/13 150/39/13 160/51/13 173/50/13
f 178/52/13 133/42/13 170/47/13 179/53/13
f 176/54/13 153/37/13 151/38/13 175/55/13
f 180/56/13 171/46/13 134/41/13 181/57/13
f 181/61/13 242/60/13 238/59/13 177/58/13
f 177/64/13 238/63/13 217/62/13 156/36/13
f 129/65/8 127/66/8 123/10/8 135/13/8
f 128/3/13 127/68/13 129/67/13 138/6/13
f 153/37/13 176/54/13 177/64/13 156/36/13
f 180/72/13 176/75/13 175/74/13 179/73/13
f 150/39/13 174/49/13 175/55/13 151/38/13
f 178/76/13 174/79/13 173/78/13 182/77/13
f 159/25/13 149/26/13 173/50/13 160/51/13
f 133/42/13 178/52/13 182/80/13 141/43/13
f 171/46/13 180/56/13 179/53/13 170/47/13
f 176/75/13 180/72/13 181/61/13 177/58/13
f 174/79/13 178/76/13 179/73/13 175/74/13
f 149/83/13 183/84/13 182/77/13 173/78/13
f 149/26/13 161/33/13 132/1/13 183/85/13
f 132/1/13 141/43/13 182/80/13 183/85/13
f 131/28/5 9/28/5 70/71/5 192/71/5
f 189/89/33 200/92/33 201/91/33 199/90/33
f 191/93/13 223/95/13 185/82/13 184/94/13
f 184/94/13 185/82/13 205/97/13 204/96/13
f 184/94/13 196/99/13 225/98/13 191/93/13
f 229/100/13 206/103/13 228/102/13 230/101/13
f 228/102/13 227/105/13 203/104/13 230/101/13
f 213/106/13 219/109/13 224/108/13 187/107/13
f 223/95/13 220/110/13 210/81/34 185/82/13
f 206/103/13 229/100/13 204/96/13 205/97/13
f 187/107/13 224/108/13 225/98/13 209/111/13
f 192/71/13 208/114/13 226/113/13 186/112/13
f 193/87/13 215/86/13 207/116/13 222/115/13
f 218/117/13 216/119/13 217/62/13 214/118/13
f 212/120/13 211/121/13 219/109/13 213/106/13
f 226/113/13 208/114/13 216/119/13 218/117/13
f 203/104/13 227/105/13 207/116/13 215/86/13
f 209/111/13 225/98/13 196/99/13 197/126/13
f 197/126/13 233/124/13 186/112/13 209/111/13
f 192/71/13 186/112/13 233/124/13 198/70/13
f 235/127/13 234/129/13 221/128/13 211/121/13
f 239/130/13 240/131/13 231/125/13 194/123/13
f 237/132/13 236/133/13 212/120/13 214/118/13
f 241/134/13 242/69/13 195/40/13 232/88/13
f 190/135/8 196/99/8 184/94/8 188/136/8
f 189/89/13 199/90/13 190/138/13 188/137/13
f 214/118/13 217/62/13 238/63/13 237/132/13
f 241/139/13 240/142/13 236/141/13 237/140/13
f 211/121/13 212/120/13 236/133/13 235/127/13
f 239/143/13 243/146/13 234/145/13 235/144/13
f 220/110/13 221/128/13 234/129/13 210/81/34
f 194/123/13 202/122/13 243/147/13 239/130/13
f 232/88/13 231/125/13 240/131/13 241/134/13
f 237/140/13 238/59/13 242/60/13 241/139/13
f 235/144/13 236/141/13 240/142/13 239/143/13
f 210/148/34 234/145/13 243/146/13 244/149/34
f 210/81/34 244/150/34 193/87/13 222/115/13
f 193/87/13 244/150/34 243/147/13 202/122/13
f 59/57/3 120/69/3 73/40/3 12/41/3
f 79/91/8 201/91/8 200/92/8 78/92/8
