# Blender 5.1.0
# www.blender.org
mtllib Cylinder_030.mtl
o Cylinder.030
v -61.548656 0.323900 27.023106
v -60.251549 0.323900 27.549902
v -61.650249 0.595108 27.273249
v -60.353142 0.595107 27.800045
v -61.649925 0.977790 27.272449
v -60.352818 0.977790 27.799246
v -61.547874 1.247777 27.021173
v -60.250767 1.247777 27.547970
v -61.403877 1.246914 26.666616
v -60.106770 1.246914 27.193413
v -61.302284 0.975706 26.416473
v -60.005177 0.975706 26.943270
v -61.302608 0.593024 26.417273
v -60.005501 0.593023 26.944069
v -61.404659 0.323037 26.668549
v -60.107552 0.323036 27.195345
v -61.476265 0.785407 26.844860
v -60.179161 0.785407 27.371658
vn -0.3763 0.0022 0.9265
vn -0.2655 0.7087 0.6537
vn 0.0008 1.0000 -0.0021
vn 0.2667 0.7055 -0.6566
vn -0.9265 -0.0000 -0.3763
vn 0.3763 -0.0023 -0.9265
vn 0.2655 -0.7087 -0.6537
vn -0.0008 -1.0000 0.0021
vn 0.9265 -0.0000 0.3763
vn -0.2667 -0.7055 0.6566
vt 0.928501 0.810983
vt 0.869134 0.810983
vt 0.869134 0.496330
vt 0.928501 0.496330
vt 0.809767 0.810983
vt 0.809767 0.496330
vt 0.750401 0.810983
vt 0.750401 0.496330
vt 0.691034 0.810983
vt 0.691034 0.496330
vt 0.276953 0.781375
vt 0.367310 0.818803
vt 0.367310 0.691018
vt 0.239525 0.691018
vt 0.631667 0.810983
vt 0.631667 0.496330
vt 0.367310 0.563233
vt 0.276953 0.600660
vt 0.572301 0.810983
vt 0.572301 0.496330
vt 0.457668 0.781375
vt 0.495095 0.691018
vt 0.512934 0.810983
vt 0.512934 0.496330
vt 0.457572 0.781375
vt 0.367214 0.818803
vt 0.367214 0.691018
vt 0.494999 0.691018
vt 0.367214 0.563233
vt 0.457572 0.600660
vt 0.276857 0.781375
vt 0.239429 0.691018
vt 0.276857 0.600660
vt 0.457668 0.600660
vt 0.987867 0.810983
vt 0.987867 0.496330
s 1
usemtl initialShadingGroup.001
f 4/1/1 6/2/1 5/3/1 3/4/1
f 6/2/2 8/5/2 7/6/2 5/3/2
f 8/5/3 10/7/3 9/8/3 7/6/3
f 10/7/4 12/9/4 11/10/4 9/8/4
f 15/11/5 1/12/5 17/13/5 13/14/5
f 12/9/6 14/15/6 13/16/6 11/10/6
f 13/14/5 17/13/5 9/17/5 11/18/5
f 14/15/7 16/19/7 15/20/7 13/16/7
f 1/12/5 3/21/5 5/22/5 17/13/5
f 16/19/8 2/23/8 1/24/8 15/20/8
f 4/25/9 2/26/9 18/27/9 6/28/9
f 6/28/9 18/27/9 10/29/9 8/30/9
f 2/26/9 16/31/9 14/32/9 18/27/9
f 18/27/9 14/32/9 12/33/9 10/29/9
f 17/13/5 5/22/5 7/34/5 9/17/5
f 2/35/10 4/1/10 3/4/10 1/36/10
