# Blender 5.1.0
# www.blender.org
mtllib Cylinder_045.mtl
o Cylinder.045
v 41.520809 0.287860 -8.892786
v 42.121746 0.287861 -7.628318
v 41.276962 0.559068 -8.776896
v 41.877895 0.559069 -7.512430
v 41.277740 0.941750 -8.777267
v 41.878674 0.941751 -7.512800
v 41.522694 1.211737 -8.893681
v 42.123627 1.211738 -7.629212
v 41.868328 1.210874 -9.057941
v 42.469265 1.210875 -7.793475
v 42.112179 0.939666 -9.173831
v 42.713112 0.939667 -7.909364
v 42.111401 0.556983 -9.173461
v 42.712334 0.556984 -7.908994
v 41.866447 0.286997 -9.057048
v 42.467381 0.286997 -7.792581
v 41.694569 0.749367 -8.975364
v 42.295506 0.749368 -7.710896
vn -0.9032 0.0023 0.4292
vn -0.6372 0.7087 0.3028
vn 0.0020 1.0000 -0.0010
vn 0.6401 0.7055 -0.3042
vn -0.4292 -0.0000 -0.9032
vn 0.9032 -0.0023 -0.4292
vn 0.6372 -0.7087 -0.3028
vn -0.0020 -1.0000 0.0010
vn 0.4292 -0.0000 0.9032
vn -0.6401 -0.7055 0.3042
vt 0.928501 0.810983
vt 0.869134 0.810983
vt 0.869134 0.496330
vt 0.928501 0.496330
vt 0.809767 0.810983
vt 0.809767 0.496330
vt 0.750401 0.810983
vt 0.750401 0.496330
vt 0.691034 0.810983
vt 0.691034 0.496330
vt 0.276953 0.781375
vt 0.367310 0.818803
vt 0.367310 0.691018
vt 0.239525 0.691018
vt 0.631667 0.810983
vt 0.631667 0.496330
vt 0.367310 0.563233
vt 0.276953 0.600660
vt 0.572301 0.810983
vt 0.572301 0.496330
vt 0.457668 0.781375
vt 0.495095 0.691018
vt 0.512934 0.810983
vt 0.512934 0.496330
vt 0.457572 0.781375
vt 0.367214 0.818803
vt 0.367214 0.691018
vt 0.494999 0.691018
vt 0.367214 0.563233
vt 0.457572 0.600660
vt 0.276857 0.781375
vt 0.239429 0.691018
vt 0.276857 0.600660
vt 0.457668 0.600660
vt 0.987867 0.810983
vt 0.987867 0.496330
s 1
usemtl initialShadingGroup.001
f 4/1/1 6/2/1 5/3/1 3/4/1
f 6/2/2 8/5/2 7/6/2 5/3/2
f 8/5/3 10/7/3 9/8/3 7/6/3
f 10/7/4 12/9/4 11/10/4 9/8/4
f 15/11/5 1/12/5 17/13/5 13/14/5
f 12/9/6 14/15/6 13/16/6 11/10/6
f 13/14/5 17/13/5 9/17/5 11/18/5
f 14/15/7 16/19/7 15/20/7 13/16/7
f 1/12/5 3/21/5 5/22/5 17/13/5
f 16/19/8 2/23/8 1/24/8 15/20/8
f 4/25/9 2/26/9 18/27/9 6/28/9
f 6/28/9 18/27/9 10/29/9 8/30/9
f 2/26/9 16/31/9 14/32/9 18/27/9
f 18/27/9 14/32/9 12/33/9 10/29/9
f 17/13/5 5/22/5 7/34/5 9/17/5
f 2/35/10 4/1/10 3/4/10 1/36/10
