# Blender 5.1.0
# www.blender.org
mtllib Cylinder_036.mtl
o Cylinder.036
v -13.059278 0.182735 1.147372
v -12.101658 0.182735 2.168628
v -13.256225 0.453943 1.332047
v -12.298605 0.453943 2.353303
v -13.255595 0.836626 1.331457
v -12.297975 0.836625 2.352713
v -13.057757 1.106612 1.145947
v -12.100137 1.106612 2.167203
v -12.778603 1.105749 0.884186
v -11.820982 1.105749 1.905442
v -12.581656 0.834541 0.699512
v -11.624036 0.834541 1.720767
v -12.582286 0.451858 0.700102
v -11.624665 0.451858 1.721358
v -12.780124 0.181872 0.885612
v -11.822503 0.181871 1.906868
v -12.918941 0.644242 1.015779
v -11.961320 0.644242 2.037035
vn -0.7295 0.0023 0.6840
vn -0.5146 0.7087 0.4826
vn 0.0016 1.0000 -0.0015
vn 0.5170 0.7055 -0.4848
vn -0.6840 -0.0000 -0.7295
vn 0.7295 -0.0023 -0.6840
vn 0.5146 -0.7087 -0.4826
vn -0.0016 -1.0000 0.0015
vn 0.6840 -0.0000 0.7295
vn -0.5170 -0.7055 0.4848
vt 0.928501 0.810983
vt 0.869134 0.810983
vt 0.869134 0.496330
vt 0.928501 0.496330
vt 0.809767 0.810983
vt 0.809767 0.496330
vt 0.750401 0.810983
vt 0.750401 0.496330
vt 0.691034 0.810983
vt 0.691034 0.496330
vt 0.276953 0.781375
vt 0.367310 0.818803
vt 0.367310 0.691018
vt 0.239525 0.691018
vt 0.631667 0.810983
vt 0.631667 0.496330
vt 0.367310 0.563233
vt 0.276953 0.600660
vt 0.572301 0.810983
vt 0.572301 0.496330
vt 0.457668 0.781375
vt 0.495095 0.691018
vt 0.512934 0.810983
vt 0.512934 0.496330
vt 0.457572 0.781375
vt 0.367214 0.818803
vt 0.367214 0.691018
vt 0.494999 0.691018
vt 0.367214 0.563233
vt 0.457572 0.600660
vt 0.276857 0.781375
vt 0.239429 0.691018
vt 0.276857 0.600660
vt 0.457668 0.600660
vt 0.987867 0.810983
vt 0.987867 0.496330
s 1
usemtl initialShadingGroup.001
f 4/1/1 6/2/1 5/3/1 3/4/1
f 6/2/2 8/5/2 7/6/2 5/3/2
f 8/5/3 10/7/3 9/8/3 7/6/3
f 10/7/4 12/9/4 11/10/4 9/8/4
f 15/11/5 1/12/5 17/13/5 13/14/5
f 12/9/6 14/15/6 13/16/6 11/10/6
f 13/14/5 17/13/5 9/17/5 11/18/5
f 14/15/7 16/19/7 15/20/7 13/16/7
f 1/12/5 3/21/5 5/22/5 17/13/5
f 16/19/8 2/23/8 1/24/8 15/20/8
f 4/25/9 2/26/9 18/27/9 6/28/9
f 6/28/9 18/27/9 10/29/9 8/30/9
f 2/26/9 16/31/9 14/32/9 18/27/9
f 18/27/9 14/32/9 12/33/9 10/29/9
f 17/13/5 5/22/5 7/34/5 9/17/5
f 2/35/10 4/1/10 3/4/10 1/36/10
