# Blender 5.1.0
# www.blender.org
mtllib Cylinder_026.mtl
o Cylinder.026
v -47.001675 0.221881 -7.819879
v -45.704567 0.221881 -7.293082
v -47.103268 0.493089 -7.569734
v -45.806160 0.493089 -7.042938
v -47.102943 0.875771 -7.570534
v -45.805836 0.875771 -7.043737
v -47.000893 1.145758 -7.821809
v -45.703785 1.145758 -7.295012
v -46.856895 1.144895 -8.176366
v -45.559788 1.144895 -7.649570
v -46.755302 0.873687 -8.426511
v -45.458195 0.873687 -7.899714
v -46.755627 0.491005 -8.425711
v -45.458519 0.491005 -7.898914
v -46.857677 0.221018 -8.174436
v -45.560570 0.221018 -7.647639
v -46.929283 0.683388 -7.998122
v -45.632179 0.683388 -7.471326
vn -0.3763 0.0023 0.9265
vn -0.2655 0.7087 0.6537
vn 0.0008 1.0000 -0.0021
vn 0.2667 0.7055 -0.6566
vn -0.9265 -0.0000 -0.3763
vn 0.3763 -0.0023 -0.9265
vn 0.2655 -0.7087 -0.6537
vn -0.0008 -1.0000 0.0021
vn 0.9265 -0.0000 0.3763
vn -0.2667 -0.7055 0.6566
vt 0.928501 0.810983
vt 0.869134 0.810983
vt 0.869134 0.496330
vt 0.928501 0.496330
vt 0.809767 0.810983
vt 0.809767 0.496330
vt 0.750401 0.810983
vt 0.750401 0.496330
vt 0.691034 0.810983
vt 0.691034 0.496330
vt 0.276953 0.781375
vt 0.367310 0.818803
vt 0.367310 0.691018
vt 0.239525 0.691018
vt 0.631667 0.810983
vt 0.631667 0.496330
vt 0.367310 0.563233
vt 0.276953 0.600660
vt 0.572301 0.810983
vt 0.572301 0.496330
vt 0.457668 0.781375
vt 0.495095 0.691018
vt 0.512934 0.810983
vt 0.512934 0.496330
vt 0.457572 0.781375
vt 0.367214 0.818803
vt 0.367214 0.691018
vt 0.494999 0.691018
vt 0.367214 0.563233
vt 0.457572 0.600660
vt 0.276857 0.781375
vt 0.239429 0.691018
vt 0.276857 0.600660
vt 0.457668 0.600660
vt 0.987867 0.810983
vt 0.987867 0.496330
s 1
usemtl initialShadingGroup.001
f 4/1/1 6/2/1 5/3/1 3/4/1
f 6/2/2 8/5/2 7/6/2 5/3/2
f 8/5/3 10/7/3 9/8/3 7/6/3
f 10/7/4 12/9/4 11/10/4 9/8/4
f 15/11/5 1/12/5 17/13/5 13/14/5
f 12/9/6 14/15/6 13/16/6 11/10/6
f 13/14/5 17/13/5 9/17/5 11/18/5
f 14/15/7 16/19/7 15/20/7 13/16/7
f 1/12/5 3/21/5 5/22/5 17/13/5
f 16/19/8 2/23/8 1/24/8 15/20/8
f 4/25/9 2/26/9 18/27/9 6/28/9
f 6/28/9 18/27/9 10/29/9 8/30/9
f 2/26/9 16/31/9 14/32/9 18/27/9
f 18/27/9 14/32/9 12/33/9 10/29/9
f 17/13/5 5/22/5 7/34/5 9/17/5
f 2/35/10 4/1/10 3/4/10 1/36/10
