# Blender 5.1.0
# www.blender.org
mtllib Cylinder_043.mtl
o Cylinder.043
v 53.625851 0.213463 2.924356
v 53.625851 1.613463 2.924356
v 53.542221 0.213463 2.550923
v 53.542221 1.613463 2.550923
v 53.747143 0.213463 2.227730
v 53.747143 1.613463 2.227730
v 54.120575 0.213463 2.144101
v 54.120575 1.613463 2.144101
v 54.443768 0.213463 2.349024
v 54.443768 1.613463 2.349024
v 54.527397 0.213463 2.722458
v 54.527397 1.613463 2.722458
v 54.322475 0.213463 3.045650
v 54.322475 1.613463 3.045650
v 53.949043 0.213463 3.129279
v 53.949043 1.613463 3.129279
v 54.034809 0.213463 2.636690
v 54.034809 1.613463 2.636690
vn -0.8445 -0.0000 -0.5355
vn -0.2185 -0.0000 -0.9758
vn 0.5355 -0.0000 -0.8445
vn 0.9758 -0.0000 -0.2185
vn -0.0000 -1.0000 -0.0000
vn 0.8445 -0.0000 0.5355
vn 0.2185 -0.0000 0.9758
vn -0.5355 -0.0000 0.8445
vn -0.0000 1.0000 -0.0000
vn -0.9758 -0.0000 0.2185
vt 0.928501 0.810983
vt 0.869134 0.810983
vt 0.869134 0.496330
vt 0.928501 0.496330
vt 0.809767 0.810983
vt 0.809767 0.496330
vt 0.750401 0.810983
vt 0.750401 0.496330
vt 0.691034 0.810983
vt 0.691034 0.496330
vt 0.276953 0.781375
vt 0.367310 0.818803
vt 0.367310 0.691018
vt 0.239525 0.691018
vt 0.631667 0.810983
vt 0.631667 0.496330
vt 0.367310 0.563233
vt 0.276953 0.600660
vt 0.572301 0.810983
vt 0.572301 0.496330
vt 0.457668 0.781375
vt 0.495095 0.691018
vt 0.512934 0.810983
vt 0.512934 0.496330
vt 0.457572 0.781375
vt 0.367214 0.818803
vt 0.367214 0.691018
vt 0.494999 0.691018
vt 0.367214 0.563233
vt 0.457572 0.600660
vt 0.276857 0.781375
vt 0.239429 0.691018
vt 0.276857 0.600660
vt 0.457668 0.600660
vt 0.987867 0.810983
vt 0.987867 0.496330
s 1
usemtl initialShadingGroup.001
f 4/1/1 6/2/1 5/3/1 3/4/1
f 6/2/2 8/5/2 7/6/2 5/3/2
f 8/5/3 10/7/3 9/8/3 7/6/3
f 10/7/4 12/9/4 11/10/4 9/8/4
f 15/11/5 1/12/5 17/13/5 13/14/5
f 12/9/6 14/15/6 13/16/6 11/10/6
f 13/14/5 17/13/5 9/17/5 11/18/5
f 14/15/7 16/19/7 15/20/7 13/16/7
f 1/12/5 3/21/5 5/22/5 17/13/5
f 16/19/8 2/23/8 1/24/8 15/20/8
f 4/25/9 2/26/9 18/27/9 6/28/9
f 6/28/9 18/27/9 10/29/9 8/30/9
f 2/26/9 16/31/9 14/32/9 18/27/9
f 18/27/9 14/32/9 12/33/9 10/29/9
f 17/13/5 5/22/5 7/34/5 9/17/5
f 2/35/10 4/1/10 3/4/10 1/36/10
