# Blender 5.1.0
# www.blender.org
mtllib Cylinder_014.mtl
o Cylinder.014
v 32.899059 0.213463 4.876856
v 32.899059 1.613463 4.876855
v 32.517021 0.213463 4.899062
v 32.517021 1.613463 4.899062
v 32.231178 0.213463 4.644622
v 32.231178 1.613463 4.644621
v 32.208973 0.213463 4.262583
v 32.208973 1.613463 4.262583
v 32.463413 0.213463 3.976739
v 32.463413 1.613463 3.976738
v 32.845451 0.213463 3.954533
v 32.845451 1.613463 3.954533
v 33.131294 0.213463 4.208972
v 33.131294 1.613463 4.208972
v 33.153500 0.213463 4.591012
v 33.153500 1.613463 4.591012
v 32.681236 0.213463 4.426796
v 32.681236 1.613463 4.426796
vn -0.6649 -0.0000 0.7469
vn -0.9983 -0.0000 0.0580
vn -0.7469 -0.0000 -0.6649
vn -0.0580 -0.0000 -0.9983
vn -0.0000 -1.0000 -0.0000
vn 0.6649 -0.0000 -0.7469
vn 0.9983 -0.0000 -0.0580
vn 0.7469 -0.0000 0.6649
vn -0.0000 1.0000 -0.0000
vn 0.0580 -0.0000 0.9983
vt 0.928501 0.810983
vt 0.869134 0.810983
vt 0.869134 0.496330
vt 0.928501 0.496330
vt 0.809767 0.810983
vt 0.809767 0.496330
vt 0.750401 0.810983
vt 0.750401 0.496330
vt 0.691034 0.810983
vt 0.691034 0.496330
vt 0.276953 0.781375
vt 0.367310 0.818803
vt 0.367310 0.691018
vt 0.239525 0.691018
vt 0.631667 0.810983
vt 0.631667 0.496330
vt 0.367310 0.563233
vt 0.276953 0.600660
vt 0.572301 0.810983
vt 0.572301 0.496330
vt 0.457668 0.781375
vt 0.495095 0.691018
vt 0.512934 0.810983
vt 0.512934 0.496330
vt 0.457572 0.781375
vt 0.367214 0.818803
vt 0.367214 0.691018
vt 0.494999 0.691018
vt 0.367214 0.563233
vt 0.457572 0.600660
vt 0.276857 0.781375
vt 0.239429 0.691018
vt 0.276857 0.600660
vt 0.457668 0.600660
vt 0.987867 0.810983
vt 0.987867 0.496330
s 1
usemtl initialShadingGroup.001
f 4/1/1 6/2/1 5/3/1 3/4/1
f 6/2/2 8/5/2 7/6/2 5/3/2
f 8/5/3 10/7/3 9/8/3 7/6/3
f 10/7/4 12/9/4 11/10/4 9/8/4
f 15/11/5 1/12/5 17/13/5 13/14/5
f 12/9/6 14/15/6 13/16/6 11/10/6
f 13/14/5 17/13/5 9/17/5 11/18/5
f 14/15/7 16/19/7 15/20/7 13/16/7
f 1/12/5 3/21/5 5/22/5 17/13/5
f 16/19/8 2/23/8 1/24/8 15/20/8
f 4/25/9 2/26/9 18/27/9 6/28/9
f 6/28/9 18/27/9 10/29/9 8/30/9
f 2/26/9 16/31/9 14/32/9 18/27/9
f 18/27/9 14/32/9 12/33/9 10/29/9
f 17/13/5 5/22/5 7/34/5 9/17/5
f 2/35/10 4/1/10 3/4/10 1/36/10
