# Blender 5.1.0
# www.blender.org
mtllib Cylinder_012.mtl
o Cylinder.012
v 38.943691 0.213465 20.698622
v 38.943691 1.613465 20.698622
v 39.246445 0.213465 20.932690
v 39.246445 1.613465 20.932690
v 39.295010 0.213465 21.312279
v 39.295010 1.613465 21.312279
v 39.060944 0.213465 21.615032
v 39.060944 1.613465 21.615032
v 38.681355 0.213465 21.663599
v 38.681355 1.613465 21.663599
v 38.378601 0.213465 21.429531
v 38.378601 1.613465 21.429531
v 38.330036 0.213465 21.049942
v 38.330036 1.613465 21.049942
v 38.564102 0.213465 20.747189
v 38.564102 1.613465 20.747189
v 38.812523 0.213465 21.181110
v 38.812523 1.613465 21.181110
vn 0.9919 -0.0000 -0.1269
vn 0.7911 -0.0000 0.6116
vn 0.1269 -0.0000 0.9919
vn -0.6116 -0.0000 0.7911
vn -0.0000 -1.0000 -0.0000
vn -0.9919 -0.0000 0.1269
vn -0.7911 -0.0000 -0.6116
vn -0.1269 -0.0000 -0.9919
vn -0.0000 1.0000 -0.0000
vn 0.6116 -0.0000 -0.7911
vt 0.928501 0.810983
vt 0.869134 0.810983
vt 0.869134 0.496330
vt 0.928501 0.496330
vt 0.809767 0.810983
vt 0.809767 0.496330
vt 0.750401 0.810983
vt 0.750401 0.496330
vt 0.691034 0.810983
vt 0.691034 0.496330
vt 0.276953 0.781375
vt 0.367310 0.818803
vt 0.367310 0.691018
vt 0.239525 0.691018
vt 0.631667 0.810983
vt 0.631667 0.496330
vt 0.367310 0.563233
vt 0.276953 0.600660
vt 0.572301 0.810983
vt 0.572301 0.496330
vt 0.457668 0.781375
vt 0.495095 0.691018
vt 0.512934 0.810983
vt 0.512934 0.496330
vt 0.457572 0.781375
vt 0.367214 0.818803
vt 0.367214 0.691018
vt 0.494999 0.691018
vt 0.367214 0.563233
vt 0.457572 0.600660
vt 0.276857 0.781375
vt 0.239429 0.691018
vt 0.276857 0.600660
vt 0.457668 0.600660
vt 0.987867 0.810983
vt 0.987867 0.496330
s 1
usemtl initialShadingGroup.001
f 4/1/1 6/2/1 5/3/1 3/4/1
f 6/2/2 8/5/2 7/6/2 5/3/2
f 8/5/3 10/7/3 9/8/3 7/6/3
f 10/7/4 12/9/4 11/10/4 9/8/4
f 15/11/5 1/12/5 17/13/5 13/14/5
f 12/9/6 14/15/6 13/16/6 11/10/6
f 13/14/5 17/13/5 9/17/5 11/18/5
f 14/15/7 16/19/7 15/20/7 13/16/7
f 1/12/5 3/21/5 5/22/5 17/13/5
f 16/19/8 2/23/8 1/24/8 15/20/8
f 4/25/9 2/26/9 18/27/9 6/28/9
f 6/28/9 18/27/9 10/29/9 8/30/9
f 2/26/9 16/31/9 14/32/9 18/27/9
f 18/27/9 14/32/9 12/33/9 10/29/9
f 17/13/5 5/22/5 7/34/5 9/17/5
f 2/35/10 4/1/10 3/4/10 1/36/10
