# Blender 5.1.0
# www.blender.org
mtllib Cylinder_016.mtl
o Cylinder.016
v 31.169685 0.182735 3.066635
v 29.772640 0.182735 3.157539
v 31.152153 0.453943 2.797218
v 29.755110 0.453943 2.888122
v 31.152210 0.836626 2.798079
v 29.755165 0.836625 2.888983
v 31.169819 1.106612 3.068715
v 29.772776 1.106612 3.159618
v 31.194668 1.105749 3.450590
v 29.797623 1.105749 3.541494
v 31.212200 0.834541 3.720006
v 29.815153 0.834541 3.810911
v 31.212143 0.451858 3.719145
v 29.815098 0.451858 3.810049
v 31.194534 0.181872 3.448510
v 29.797487 0.181871 3.539414
v 31.182178 0.644242 3.258613
v 29.785131 0.644242 3.349516
vn -0.0649 0.0023 -0.9979
vn -0.0458 0.7087 -0.7040
vn 0.0001 1.0000 0.0023
vn 0.0460 0.7055 0.7072
vn 0.9979 -0.0000 -0.0649
vn 0.0649 -0.0023 0.9979
vn 0.0458 -0.7087 0.7040
vn -0.0001 -1.0000 -0.0023
vn -0.9979 -0.0000 0.0649
vn -0.0460 -0.7055 -0.7072
vt 0.928501 0.810983
vt 0.869134 0.810983
vt 0.869134 0.496330
vt 0.928501 0.496330
vt 0.809767 0.810983
vt 0.809767 0.496330
vt 0.750401 0.810983
vt 0.750401 0.496330
vt 0.691034 0.810983
vt 0.691034 0.496330
vt 0.276953 0.781375
vt 0.367310 0.818803
vt 0.367310 0.691018
vt 0.239525 0.691018
vt 0.631667 0.810983
vt 0.631667 0.496330
vt 0.367310 0.563233
vt 0.276953 0.600660
vt 0.572301 0.810983
vt 0.572301 0.496330
vt 0.457668 0.781375
vt 0.495095 0.691018
vt 0.512934 0.810983
vt 0.512934 0.496330
vt 0.457572 0.781375
vt 0.367214 0.818803
vt 0.367214 0.691018
vt 0.494999 0.691018
vt 0.367214 0.563233
vt 0.457572 0.600660
vt 0.276857 0.781375
vt 0.239429 0.691018
vt 0.276857 0.600660
vt 0.457668 0.600660
vt 0.987867 0.810983
vt 0.987867 0.496330
s 1
usemtl initialShadingGroup.001
f 4/1/1 6/2/1 5/3/1 3/4/1
f 6/2/2 8/5/2 7/6/2 5/3/2
f 8/5/3 10/7/3 9/8/3 7/6/3
f 10/7/4 12/9/4 11/10/4 9/8/4
f 15/11/5 1/12/5 17/13/5 13/14/5
f 12/9/6 14/15/6 13/16/6 11/10/6
f 13/14/5 17/13/5 9/17/5 11/18/5
f 14/15/7 16/19/7 15/20/7 13/16/7
f 1/12/5 3/21/5 5/22/5 17/13/5
f 16/19/8 2/23/8 1/24/8 15/20/8
f 4/25/9 2/26/9 18/27/9 6/28/9
f 6/28/9 18/27/9 10/29/9 8/30/9
f 2/26/9 16/31/9 14/32/9 18/27/9
f 18/27/9 14/32/9 12/33/9 10/29/9
f 17/13/5 5/22/5 7/34/5 9/17/5
f 2/35/10 4/1/10 3/4/10 1/36/10
