# Blender 5.1.0
# www.blender.org
mtllib Cylinder_041.mtl
o Cylinder.041
v -29.675173 0.182737 29.912092
v -28.538790 0.182737 29.094391
v -29.517481 0.453945 30.131241
v -28.381098 0.453945 29.313540
v -29.517984 0.836627 30.130541
v -28.381603 0.836627 29.312840
v -29.676390 1.106614 29.910400
v -28.540009 1.106614 29.092699
v -29.899904 1.105751 29.599777
v -28.763521 1.105751 28.782076
v -30.057596 0.834543 29.380629
v -28.921213 0.834543 28.562927
v -30.057091 0.451861 29.381329
v -28.920710 0.451860 28.563627
v -29.898685 0.181874 29.601469
v -28.762304 0.181874 28.783768
v -29.787539 0.644244 29.755936
v -28.651155 0.644244 28.938232
vn 0.5841 0.0023 0.8117
vn 0.4121 0.7087 0.5727
vn -0.0013 1.0000 -0.0018
vn -0.4139 0.7055 -0.5753
vn -0.8117 -0.0000 0.5841
vn -0.5841 -0.0023 -0.8117
vn -0.4121 -0.7087 -0.5727
vn 0.0013 -1.0000 0.0018
vn 0.8117 -0.0000 -0.5841
vn 0.4139 -0.7055 0.5753
vt 0.928501 0.810983
vt 0.869134 0.810983
vt 0.869134 0.496330
vt 0.928501 0.496330
vt 0.809767 0.810983
vt 0.809767 0.496330
vt 0.750401 0.810983
vt 0.750401 0.496330
vt 0.691034 0.810983
vt 0.691034 0.496330
vt 0.276953 0.781375
vt 0.367310 0.818803
vt 0.367310 0.691018
vt 0.239525 0.691018
vt 0.631667 0.810983
vt 0.631667 0.496330
vt 0.367310 0.563233
vt 0.276953 0.600660
vt 0.572301 0.810983
vt 0.572301 0.496330
vt 0.457668 0.781375
vt 0.495095 0.691018
vt 0.512934 0.810983
vt 0.512934 0.496330
vt 0.457572 0.781375
vt 0.367214 0.818803
vt 0.367214 0.691018
vt 0.494999 0.691018
vt 0.367214 0.563233
vt 0.457572 0.600660
vt 0.276857 0.781375
vt 0.239429 0.691018
vt 0.276857 0.600660
vt 0.457668 0.600660
vt 0.987867 0.810983
vt 0.987867 0.496330
s 1
usemtl initialShadingGroup.001
f 4/1/1 6/2/1 5/3/1 3/4/1
f 6/2/2 8/5/2 7/6/2 5/3/2
f 8/5/3 10/7/3 9/8/3 7/6/3
f 10/7/4 12/9/4 11/10/4 9/8/4
f 15/11/5 1/12/5 17/13/5 13/14/5
f 12/9/6 14/15/6 13/16/6 11/10/6
f 13/14/5 17/13/5 9/17/5 11/18/5
f 14/15/7 16/19/7 15/20/7 13/16/7
f 1/12/5 3/21/5 5/22/5 17/13/5
f 16/19/8 2/23/8 1/24/8 15/20/8
f 4/25/9 2/26/9 18/27/9 6/28/9
f 6/28/9 18/27/9 10/29/9 8/30/9
f 2/26/9 16/31/9 14/32/9 18/27/9
f 18/27/9 14/32/9 12/33/9 10/29/9
f 17/13/5 5/22/5 7/34/5 9/17/5
f 2/35/10 4/1/10 3/4/10 1/36/10
