# Blender 5.1.0
# www.blender.org
mtllib Cylinder_003.mtl
o Cylinder.003
v -3.940203 0.182737 19.844381
v -3.911781 0.182737 21.244093
v -4.210134 0.453945 19.849861
v -4.181712 0.453945 21.249573
v -4.209271 0.836626 19.849844
v -4.180849 0.836627 21.249556
v -3.938119 1.106614 19.844339
v -3.909697 1.106614 21.244049
v -3.555516 1.105751 19.836569
v -3.527094 1.105751 21.236280
v -3.285584 0.834543 19.831089
v -3.257163 0.834543 21.230801
v -3.286447 0.451860 19.831106
v -3.258026 0.451860 21.230818
v -3.557599 0.181874 19.836613
v -3.529177 0.181874 21.236322
v -3.747859 0.644243 19.840475
v -3.719437 0.644244 21.240187
vn -0.9998 0.0023 0.0203
vn -0.7054 0.7087 0.0143
vn 0.0023 1.0000 -0.0000
vn 0.7086 0.7055 -0.0144
vn -0.0203 -0.0000 -0.9998
vn 0.9998 -0.0023 -0.0203
vn 0.7054 -0.7087 -0.0143
vn -0.0023 -1.0000 -0.0000
vn 0.0203 -0.0000 0.9998
vn -0.7086 -0.7055 0.0144
vt 0.928501 0.810983
vt 0.869134 0.810983
vt 0.869134 0.496330
vt 0.928501 0.496330
vt 0.809767 0.810983
vt 0.809767 0.496330
vt 0.750401 0.810983
vt 0.750401 0.496330
vt 0.691034 0.810983
vt 0.691034 0.496330
vt 0.276953 0.781375
vt 0.367310 0.818803
vt 0.367310 0.691018
vt 0.239525 0.691018
vt 0.631667 0.810983
vt 0.631667 0.496330
vt 0.367310 0.563233
vt 0.276953 0.600660
vt 0.572301 0.810983
vt 0.572301 0.496330
vt 0.457668 0.781375
vt 0.495095 0.691018
vt 0.512934 0.810983
vt 0.512934 0.496330
vt 0.457572 0.781375
vt 0.367214 0.818803
vt 0.367214 0.691018
vt 0.494999 0.691018
vt 0.367214 0.563233
vt 0.457572 0.600660
vt 0.276857 0.781375
vt 0.239429 0.691018
vt 0.276857 0.600660
vt 0.457668 0.600660
vt 0.987867 0.810983
vt 0.987867 0.496330
s 1
usemtl initialShadingGroup.001
f 4/1/1 6/2/1 5/3/1 3/4/1
f 6/2/2 8/5/2 7/6/2 5/3/2
f 8/5/3 10/7/3 9/8/3 7/6/3
f 10/7/4 12/9/4 11/10/4 9/8/4
f 15/11/5 1/12/5 17/13/5 13/14/5
f 12/9/6 14/15/6 13/16/6 11/10/6
f 13/14/5 17/13/5 9/17/5 11/18/5
f 14/15/7 16/19/7 15/20/7 13/16/7
f 1/12/5 3/21/5 5/22/5 17/13/5
f 16/19/8 2/23/8 1/24/8 15/20/8
f 4/25/9 2/26/9 18/27/9 6/28/9
f 6/28/9 18/27/9 10/29/9 8/30/9
f 2/26/9 16/31/9 14/32/9 18/27/9
f 18/27/9 14/32/9 12/33/9 10/29/9
f 17/13/5 5/22/5 7/34/5 9/17/5
f 2/35/10 4/1/10 3/4/10 1/36/10
