# Blender 5.1.0
# www.blender.org
mtllib Cylinder_018.mtl
o Cylinder.018
v 50.025646 0.182736 10.626984
v 50.163517 0.182736 12.020178
v 49.756969 0.453944 10.653572
v 49.894844 0.453944 12.046767
v 49.757832 0.836626 10.653487
v 49.895702 0.836626 12.046681
v 50.027718 1.106613 10.626779
v 50.165592 1.106613 12.019973
v 50.408543 1.105750 10.589092
v 50.546413 1.105750 11.982286
v 50.677216 0.834542 10.562503
v 50.815090 0.834542 11.955698
v 50.676357 0.451860 10.562589
v 50.814228 0.451859 11.955783
v 50.406467 0.181873 10.589297
v 50.544342 0.181873 11.982491
v 50.217094 0.644243 10.608038
v 50.354965 0.644243 12.001232
vn -0.9951 0.0023 0.0985
vn -0.7021 0.7087 0.0695
vn 0.0022 1.0000 -0.0002
vn 0.7053 0.7055 -0.0698
vn -0.0985 -0.0000 -0.9951
vn 0.9951 -0.0023 -0.0985
vn 0.7021 -0.7087 -0.0695
vn -0.0022 -1.0000 0.0002
vn 0.0985 -0.0000 0.9951
vn -0.7052 -0.7055 0.0698
vt 0.928501 0.810983
vt 0.869134 0.810983
vt 0.869134 0.496330
vt 0.928501 0.496330
vt 0.809767 0.810983
vt 0.809767 0.496330
vt 0.750401 0.810983
vt 0.750401 0.496330
vt 0.691034 0.810983
vt 0.691034 0.496330
vt 0.276953 0.781375
vt 0.367310 0.818803
vt 0.367310 0.691018
vt 0.239525 0.691018
vt 0.631667 0.810983
vt 0.631667 0.496330
vt 0.367310 0.563233
vt 0.276953 0.600660
vt 0.572301 0.810983
vt 0.572301 0.496330
vt 0.457668 0.781375
vt 0.495095 0.691018
vt 0.512934 0.810983
vt 0.512934 0.496330
vt 0.457572 0.781375
vt 0.367214 0.818803
vt 0.367214 0.691018
vt 0.494999 0.691018
vt 0.367214 0.563233
vt 0.457572 0.600660
vt 0.276857 0.781375
vt 0.239429 0.691018
vt 0.276857 0.600660
vt 0.457668 0.600660
vt 0.987867 0.810983
vt 0.987867 0.496330
s 1
usemtl initialShadingGroup.001
f 4/1/1 6/2/1 5/3/1 3/4/1
f 6/2/2 8/5/2 7/6/2 5/3/2
f 8/5/3 10/7/3 9/8/3 7/6/3
f 10/7/4 12/9/4 11/10/4 9/8/4
f 15/11/5 1/12/5 17/13/5 13/14/5
f 12/9/6 14/15/6 13/16/6 11/10/6
f 13/14/5 17/13/5 9/17/5 11/18/5
f 14/15/7 16/19/7 15/20/7 13/16/7
f 1/12/5 3/21/5 5/22/5 17/13/5
f 16/19/8 2/23/8 1/24/8 15/20/8
f 4/25/9 2/26/9 18/27/9 6/28/9
f 6/28/9 18/27/9 10/29/9 8/30/9
f 2/26/9 16/31/9 14/32/9 18/27/9
f 18/27/9 14/32/9 12/33/9 10/29/9
f 17/13/5 5/22/5 7/34/5 9/17/5
f 2/35/10 4/1/10 3/4/10 1/36/10
