# Blender 5.1.0
# www.blender.org
mtllib Cylinder_019.mtl
o Cylinder.019
v 49.433170 0.182737 24.391975
v 50.726646 0.182737 23.856331
v 49.536469 0.453945 24.641420
v 50.829945 0.453945 24.105774
v 49.536137 0.836627 24.640621
v 50.829617 0.836627 24.104977
v 49.432373 1.106614 24.390049
v 50.725849 1.106614 23.854404
v 49.285957 1.105751 24.036484
v 50.579433 1.105751 23.500839
v 49.182659 0.834543 23.787041
v 50.476135 0.834543 23.251394
v 49.182987 0.451861 23.787838
v 50.476467 0.451860 23.252193
v 49.286755 0.181874 24.038410
v 50.580231 0.181874 23.502766
v 49.359562 0.644244 24.214230
v 50.653042 0.644244 23.678585
vn 0.3826 0.0023 0.9239
vn 0.2699 0.7087 0.6518
vn -0.0009 1.0000 -0.0021
vn -0.2712 0.7055 -0.6548
vn -0.9239 -0.0000 0.3826
vn -0.3826 -0.0023 -0.9239
vn -0.2699 -0.7087 -0.6518
vn 0.0009 -1.0000 0.0021
vn 0.9239 -0.0000 -0.3826
vn 0.2712 -0.7055 0.6548
vt 0.928501 0.810983
vt 0.869134 0.810983
vt 0.869134 0.496330
vt 0.928501 0.496330
vt 0.809767 0.810983
vt 0.809767 0.496330
vt 0.750401 0.810983
vt 0.750401 0.496330
vt 0.691034 0.810983
vt 0.691034 0.496330
vt 0.276953 0.781375
vt 0.367310 0.818803
vt 0.367310 0.691018
vt 0.239525 0.691018
vt 0.631667 0.810983
vt 0.631667 0.496330
vt 0.367310 0.563233
vt 0.276953 0.600660
vt 0.572301 0.810983
vt 0.572301 0.496330
vt 0.457668 0.781375
vt 0.495095 0.691018
vt 0.512934 0.810983
vt 0.512934 0.496330
vt 0.457572 0.781375
vt 0.367214 0.818803
vt 0.367214 0.691018
vt 0.494999 0.691018
vt 0.367214 0.563233
vt 0.457572 0.600660
vt 0.276857 0.781375
vt 0.239429 0.691018
vt 0.276857 0.600660
vt 0.457668 0.600660
vt 0.987867 0.810983
vt 0.987867 0.496330
s 1
usemtl initialShadingGroup.001
f 4/1/1 6/2/1 5/3/1 3/4/1
f 6/2/2 8/5/2 7/6/2 5/3/2
f 8/5/3 10/7/3 9/8/3 7/6/3
f 10/7/4 12/9/4 11/10/4 9/8/4
f 15/11/5 1/12/5 17/13/5 13/14/5
f 12/9/6 14/15/6 13/16/6 11/10/6
f 13/14/5 17/13/5 9/17/5 11/18/5
f 14/15/7 16/19/7 15/20/7 13/16/7
f 1/12/5 3/21/5 5/22/5 17/13/5
f 16/19/8 2/23/8 1/24/8 15/20/8
f 4/25/9 2/26/9 18/27/9 6/28/9
f 6/28/9 18/27/9 10/29/9 8/30/9
f 2/26/9 16/31/9 14/32/9 18/27/9
f 18/27/9 14/32/9 12/33/9 10/29/9
f 17/13/5 5/22/5 7/34/5 9/17/5
f 2/35/10 4/1/10 3/4/10 1/36/10
