# Blender 5.1.0
# www.blender.org
mtllib Cylinder_021.mtl
o Cylinder.021
v -52.126572 0.213464 16.308628
v -52.126572 1.613464 16.308628
v -51.872303 0.213464 16.022629
v -51.872303 1.613464 16.022629
v -51.490280 0.213464 16.000189
v -51.490280 1.613464 16.000189
v -51.204281 0.213464 16.254454
v -51.204281 1.613464 16.254454
v -51.181839 0.213464 16.636478
v -51.181839 1.613464 16.636478
v -51.436108 0.213464 16.922478
v -51.436108 1.613464 16.922478
v -51.818130 0.213464 16.944918
v -51.818130 1.613464 16.944918
v -52.104130 0.213464 16.690653
v -52.104130 1.613464 16.690653
v -51.654205 0.213464 16.472553
v -51.654205 1.613464 16.472553
vn -0.0586 -0.0000 -0.9983
vn 0.6644 -0.0000 -0.7474
vn 0.9983 -0.0000 -0.0586
vn 0.7473 -0.0000 0.6644
vn -0.0000 -1.0000 -0.0000
vn 0.0586 -0.0000 0.9983
vn -0.6644 -0.0000 0.7474
vn -0.9983 -0.0000 0.0586
vn -0.0000 1.0000 -0.0000
vn -0.7473 -0.0000 -0.6644
vt 0.928501 0.810983
vt 0.869134 0.810983
vt 0.869134 0.496330
vt 0.928501 0.496330
vt 0.809767 0.810983
vt 0.809767 0.496330
vt 0.750401 0.810983
vt 0.750401 0.496330
vt 0.691034 0.810983
vt 0.691034 0.496330
vt 0.276953 0.781375
vt 0.367310 0.818803
vt 0.367310 0.691018
vt 0.239525 0.691018
vt 0.631667 0.810983
vt 0.631667 0.496330
vt 0.367310 0.563233
vt 0.276953 0.600660
vt 0.572301 0.810983
vt 0.572301 0.496330
vt 0.457668 0.781375
vt 0.495095 0.691018
vt 0.512934 0.810983
vt 0.512934 0.496330
vt 0.457572 0.781375
vt 0.367214 0.818803
vt 0.367214 0.691018
vt 0.494999 0.691018
vt 0.367214 0.563233
vt 0.457572 0.600660
vt 0.276857 0.781375
vt 0.239429 0.691018
vt 0.276857 0.600660
vt 0.457668 0.600660
vt 0.987867 0.810983
vt 0.987867 0.496330
s 1
usemtl initialShadingGroup.001
f 4/1/1 6/2/1 5/3/1 3/4/1
f 6/2/2 8/5/2 7/6/2 5/3/2
f 8/5/3 10/7/3 9/8/3 7/6/3
f 10/7/4 12/9/4 11/10/4 9/8/4
f 15/11/5 1/12/5 17/13/5 13/14/5
f 12/9/6 14/15/6 13/16/6 11/10/6
f 13/14/5 17/13/5 9/17/5 11/18/5
f 14/15/7 16/19/7 15/20/7 13/16/7
f 1/12/5 3/21/5 5/22/5 17/13/5
f 16/19/8 2/23/8 1/24/8 15/20/8
f 4/25/9 2/26/9 18/27/9 6/28/9
f 6/28/9 18/27/9 10/29/9 8/30/9
f 2/26/9 16/31/9 14/32/9 18/27/9
f 18/27/9 14/32/9 12/33/9 10/29/9
f 17/13/5 5/22/5 7/34/5 9/17/5
f 2/35/10 4/1/10 3/4/10 1/36/10
